<?xml version="1.0" encoding="utf-8"?>
<!DOCTYPE svg PUBLIC "-//W3C//DTD SVG 1.1//EN" "http://www.w3.org/Graphics/SVG/1.1/DTD/svg11.dtd">
<svg version="1.1" id="Layer_1" xmlns="http://www.w3.org/2000/svg" xmlns:xlink="http://www.w3.org/1999/xlink" x="0px" y="0px"
	 width="701.798px" height="179.703px" viewBox="57.393 56.292 701.798 179.703"
	 enable-background="new 57.393 56.292 701.798 179.703" xml:space="preserve">
	<g id="Layer_2">
		<rect fill="none" width="814.865" height="294"/>
	</g>
	<g id="Layer_1_1_">
		<polygon fill="#00BCF0" points="718.605,145.821 718.605,56.292 685.529,56.292 685.529,170.912 756.955,170.912 756.955,145.821 	
			"/>
		<polygon fill="#00BCF0" points="600.562,170.912 672.557,170.912 672.557,145.821 633.209,145.821 633.209,125.862 
			669.991,125.862 669.991,101.342 633.209,101.342 633.209,81.384 672.557,81.384 672.557,56.292 600.562,56.292 	"/>
		<path fill="#00BCF0" d="M532.417,81.384h9.266c7.557,0,12.689,2.851,12.689,10.263c0,8.127-6.132,11.264-13.259,11.264h-8.696
			V81.384L532.417,81.384z M532.417,145.821v-21.812h11.12c7.698,0,13.828,2.565,13.828,10.549c0,5.989-3.991,11.263-14.399,11.263
			H532.417z M565.207,109.753c13.828-5.417,18.96-13.971,18.96-26.231c0-19.104-12.402-27.23-38.351-27.23h-46.049v114.621h44.195
			c28.371,0,47.76-8.979,47.76-31.22C591.723,122.441,582.314,110.893,565.207,109.753L565.207,109.753z"/>
		<polygon fill="#00BCF0" points="501.479,170.912 464.983,56.292 449.729,102.91 456.999,129.712 441.176,129.712 434.047,152.379 
			463.127,152.379 468.119,170.912 	"/>
		<path fill="#00BCF0" d="M332.256,107.472V81.384h11.121c9.123,0,13.97,4.133,13.97,12.401c0,8.983-6.129,13.687-15.253,13.687
			H332.256z M366.044,122.728c15.254-4.706,23.238-16.253,23.238-33.218c0-21.67-14.541-33.218-41.344-33.218h-48.614v114.621h32.932
			v-43.195h3.28l21.385,43.195h37.78L366.044,122.728z"/>
		<polygon fill="#00BCF0" points="215.639,170.912 248.572,170.912 248.572,127.717 284.926,127.717 284.926,103.194 
			248.572,103.194 248.572,81.384 287.49,81.384 287.49,56.292 215.639,56.292 	"/>
		<polygon fill="#00BCF0" points="168.593,56.292 168.593,113.173 167.737,113.317 139.794,56.292 104.439,56.292 104.439,170.912 
			137.372,170.912 137.372,113.032 138.084,112.747 166.168,170.912 201.526,170.912 201.526,56.292 	"/>
		<rect x="57.393" y="56.292" fill="#00BCF0" width="32.933" height="114.621"/>
		<g>
			<path fill="#00BCF0" d="M404.305,224.994c-0.577,1.926-1.935,3.042-3.558,3.042c-2.029,0-3.195-1.474-2.396-4.006l8.658-28.595
				c0.628-1.978,1.987-3.144,3.662-3.144h10.197c4.972,0,8.432,1.115,10.634,3.446c1.615,1.673,2.447,4.005,2.354,6.691
				c-0.115,3.297-1.381,6.086-3.53,8.112c-2.154,2.132-4.938,3.397-8.67,4.209l4.73,8.365c0.528,0.812,0.658,1.468,0.64,2.077
				c-0.065,1.875-1.675,2.841-3.146,2.841c-1.724,0-2.811-0.812-3.479-2.028l-5.769-10.597h-7.407L404.305,224.994z M416.957,209.886
				c3.755,0,6.73-0.964,8.464-2.688c1.155-1.115,1.865-2.534,1.925-4.257c0.046-1.32-0.373-2.385-1.154-3.246
				c-1.129-1.114-3.034-1.725-5.874-1.725h-7.763l-3.612,11.915H416.957z"/>
			<path fill="#00BCF0" d="M439.616,224.994c-0.625,1.926-1.936,3.042-3.558,3.042c-2.028,0-3.094-1.474-2.346-3.954l6.186-20.28
				c0.576-1.978,1.884-3.093,3.508-3.093c2.079,0,3.092,1.52,2.346,4.005L439.616,224.994z M445.254,197.159
				c-1.979,0-3.356-1.216-2.892-2.89l0.173-0.606c0.468-1.776,2.129-2.841,4.106-2.841c1.979,0,3.305,1.269,2.892,2.891l-0.173,0.607
				C448.896,196.045,447.232,197.159,445.254,197.159z"/>
			<path fill="#00BCF0" d="M473.076,203.802c0.52-1.725,1.631-3.093,3.509-3.093c2.028,0,3.092,1.52,2.345,4.005l-5.562,18.404
				c-1.488,4.866-2.733,7.099-4.884,9.126c-2.574,2.482-5.916,3.751-10.684,3.751c-4.263,0-8.136-0.963-11.567-2.89
				c-1.047-0.56-1.628-1.317-1.59-2.383c0.052-1.472,1.207-2.688,2.681-2.688c0.709,0,1.212,0.15,1.857,0.508
				c2.633,1.673,5.444,2.482,8.438,2.482c2.891,0,5.053-0.861,6.626-2.383c1.364-1.319,2.239-3.093,2.979-5.426l0.514-1.621
				c-2.88,2.586-5.569,4.057-9.322,4.057c-5.277,0-10.178-3.449-9.96-9.686c0.312-8.922,7.896-15.514,15.354-15.514
				c5.071,0,7.264,2.637,8.64,5.375L473.076,203.802z M470.52,211.66c0.117-3.396-2.327-5.982-6.284-5.982
				c-4.82,0-9.176,4.156-9.354,9.229c-0.132,3.801,2.541,5.728,5.989,5.728C465.792,220.633,470.355,216.425,470.52,211.66z"/>
			<path fill="#00BCF0" d="M503.539,224.994c-0.575,1.926-1.882,3.042-3.505,3.042c-2.029,0-3.094-1.474-2.35-3.954l3.384-11.155
				c0.283-0.862,0.474-1.927,0.5-2.685c0.094-2.688-1.578-4.212-4.521-4.212c-3.449,0-6.385,2.739-7.589,6.694l-3.725,12.27
				c-0.577,1.926-1.886,3.042-3.509,3.042c-2.026,0-3.092-1.474-2.344-3.954l9.18-30.521c0.628-1.928,1.936-3.045,3.559-3.045
				c2.028,0,3.094,1.475,2.346,3.957l-3.035,9.937c2.202-2.078,4.856-3.954,8.307-3.954c4.92,0,8.008,3.094,7.837,8.01
				c-0.05,1.422-0.517,3.145-0.978,4.717L503.539,224.994z"/>
			<path fill="#00BCF0" d="M520.011,196.45c0.575-1.927,1.882-3.042,3.505-3.042c2.029,0,3.095,1.47,2.35,3.953l-1.145,3.65h4.111
				c1.419,0,2.548,1.116,2.494,2.637c-0.053,1.521-1.259,2.637-2.679,2.637h-5.53l-3.901,12.929
				c-0.118,0.506-0.243,1.115-0.257,1.521c-0.048,1.367,0.892,2.08,2.517,2.08c0.404,0,0.813-0.051,1.068-0.104
				c1.373-0.102,2.359,0.711,2.305,2.283c-0.048,1.369-0.734,2.129-1.764,2.533c-1.288,0.561-2.61,0.712-4.134,0.712
				c-4.414,0-6.722-2.13-6.612-5.274c0.034-1.014,0.225-2.078,0.563-3.092l4.076-13.588h-0.711c-1.109-0.152-2.299-1.014-2.241-2.637
				c0.055-1.521,1.259-2.637,2.679-2.637h1.877L520.011,196.45z"/>
			<path fill="#00BCF0" d="M546.533,212.824c0.376-10.747,9.514-21.139,21.791-21.139c9.588,0,15.744,6.74,15.437,15.562
				c-0.375,10.747-9.515,21.141-21.842,21.141C552.381,228.389,546.224,221.646,546.533,212.824z M577.253,207.605
				c0.204-5.832-3.396-10.193-9.737-10.193c-8.219,0-14.224,7.809-14.479,15.061c-0.206,5.881,3.398,10.188,9.739,10.188
				C570.995,222.66,577,214.854,577.253,207.605z"/>
			<path fill="#00BCF0" d="M597.446,203.345l-0.343,1.064c2.202-2.078,4.855-3.954,8.305-3.954c4.923,0,8.01,3.094,7.839,8.01
				c-0.051,1.421-0.517,3.145-0.979,4.717l-3.557,11.812c-0.576,1.926-1.884,3.042-3.507,3.042c-2.028,0-3.092-1.474-2.346-3.954
				l3.381-11.155c0.285-0.862,0.476-1.927,0.501-2.685c0.094-2.688-1.578-4.212-4.521-4.212c-3.449,0-6.385,2.739-7.588,6.694
				l-3.727,12.27c-0.576,1.926-1.884,3.042-3.508,3.042c-2.026,0-3.093-1.474-2.345-3.954l6.136-20.28
				c0.575-1.978,1.883-3.093,3.607-3.093C596.625,200.709,597.545,201.924,597.446,203.345z"/>
			<path fill="#00BCF0" d="M638.594,224.994c-0.575,1.926-1.932,3.042-3.556,3.042c-2.029,0-3.195-1.474-2.396-4.006l7.907-25.958
				h-7.863c-1.572,0-2.846-1.318-2.791-2.889c0.057-1.572,1.423-2.892,2.993-2.892h23.538c1.571,0,2.846,1.317,2.792,2.892
				c-0.056,1.569-1.421,2.889-2.993,2.889h-9.437L638.594,224.994z"/>
			<path fill="#00BCF0" d="M665.414,206.641c2.367-3.854,5.333-5.981,8.124-5.981c1.672,0,2.65,1.063,2.59,2.79
				c-0.059,1.671-0.956,2.736-3.005,3.242c-5.061,1.117-9.036,4.562-11.042,11.152l-2.177,7.15c-0.626,1.926-1.935,3.042-3.558,3.042
				c-2.029,0-3.094-1.474-2.348-3.954l6.188-20.28c0.576-1.978,1.884-3.093,3.507-3.093c2.029,0,2.991,1.52,2.407,3.65
				L665.414,206.641z"/>
			<path fill="#00BCF0" d="M689.982,225.195l0.287-0.965c-2.375,2.535-5.369,4.109-8.972,4.109c-4.565,0-7.967-2.891-7.812-7.302
				c0.214-6.134,5.36-9.685,12.057-9.685c3.146,0,5.915,0.608,8.274,1.32l0.166-0.456c0.177-0.661,0.354-1.423,0.383-2.231
				c0.089-2.484-1.582-4.057-5.793-4.057c-1.929,0-3.868,0.354-5.304,0.76c-0.357,0.103-0.765,0.151-1.068,0.151
				c-1.421,0-2.398-1.063-2.35-2.483c0.043-1.217,0.884-2.078,2.013-2.436c2.515-0.811,5.169-1.266,8.108-1.266
				c7.002,0,10.601,3.041,10.417,8.264c-0.046,1.32-0.345,2.586-0.694,3.902l-3.672,12.17c-0.625,1.926-1.933,3.042-3.557,3.042
				C690.134,228.036,689.783,226.514,689.982,225.195z M692.378,217.54l0.398-1.216c-1.707-0.559-4.023-1.016-6.458-1.016
				c-3.806,0-6.562,1.979-6.67,5.021c-0.074,2.129,1.55,3.601,4.237,3.601C687.589,223.93,691.237,221.141,692.378,217.54z"/>
			<path fill="#00BCF0" d="M715.794,228.389c-6.897,0-12.116-4.613-11.86-11.912c0.307-8.771,7.863-16.021,16.388-16.021
				c4.921,0,7.588,2.078,9.146,3.904c0.538,0.607,1.019,1.369,0.981,2.434c-0.057,1.57-1.368,2.838-2.991,2.838
				c-0.965,0-1.612-0.304-2.098-0.963c-1.258-1.773-2.993-2.891-5.732-2.891c-4.819,0-9.356,4.969-9.555,10.646
				c-0.146,4.157,2.657,6.693,6.107,6.693c1.979,0,3.774-0.608,5.701-2.029c0.521-0.355,1.19-0.709,1.903-0.709
				c1.419,0,2.441,1.167,2.394,2.585c-0.03,0.913-0.408,1.521-1.035,2.079C722.43,227.225,719.499,228.389,715.794,228.389z"/>
			<path fill="#00BCF0" d="M739.829,212.824l14.486-11c0.729-0.557,1.46-1.115,2.423-1.115c1.521,0,2.499,1.064,2.451,2.484
				c-0.032,0.859-0.518,1.673-1.241,2.129l-9.482,7.048l4.547,10.798c0.326,0.812,0.557,1.471,0.532,2.13
				c-0.061,1.772-1.718,2.738-3.29,2.738c-1.676,0-2.604-0.965-3.068-2.181l-4.177-9.685l-5.469,4.056l-1.436,4.768
				c-0.576,1.926-1.884,3.042-3.507,3.042c-2.027,0-3.093-1.474-2.345-3.954l9.282-30.521c0.575-1.928,1.882-3.045,3.506-3.045
				c2.029,0,3.094,1.475,2.348,3.957L739.829,212.824z"/>
		</g>
		<polygon fill="#005DA4" points="449.729,56.292 412.805,170.912 428.058,170.912 464.983,56.292 	"/>
		<polygon fill="#005DA4" points="417.652,56.292 380.727,170.912 396.125,170.912 432.907,56.292 	"/>
	</g>
</svg>
