<svg version="1.1" id="Layer_1" xmlns="http://www.w3.org/2000/svg" xmlns:xlink="http://www.w3.org/1999/xlink" x="0px" y="0px"
	 viewBox="0 0 656.4 195.9" style="enable-background:new 0 0 656.4 195.9;" xml:space="preserve">
<style type="text/css">
	.st0{fill:#1D1D1B;}
	.st1{fill:#97CCA9;}
</style>
<g>
	<path class="st0" d="M235.1,188.8h-2.9l3.2-18.3h-6.6l0.4-2.5h16l-0.4,2.5h-6.5L235.1,188.8z"/>
	<path class="st0" d="M243.5,176.5c0.1-0.6,0.2-1.1,0.2-1.6h2.6c0,0.1,0,0.3-0.1,0.5c0,0.2,0,0.4-0.1,0.6c0,0.2-0.1,0.4-0.1,0.6
		c0,0.2-0.1,0.4-0.1,0.5h0.1c0.5-0.8,1.1-1.5,1.8-2c0.7-0.5,1.6-0.8,2.5-0.8c0.4,0,0.8,0,1.1,0.1l-0.5,2.6c-0.4-0.1-0.8-0.1-1.2-0.1
		c-0.7,0-1.3,0.1-1.8,0.4c-0.5,0.2-1,0.6-1.3,1c-0.4,0.4-0.7,0.9-0.9,1.4c-0.2,0.5-0.4,1.1-0.5,1.7l-1.3,7.3h-2.7l1.9-10.9
		C243.4,177.5,243.4,177,243.5,176.5z"/>
	<path class="st0" d="M261.2,180.1c0-0.3,0.1-0.5,0.1-0.6c0-0.2,0-0.3,0-0.4c0-0.8-0.3-1.4-0.8-1.8c-0.5-0.4-1.2-0.5-2.2-0.5
		c-0.7,0-1.5,0.1-2.2,0.4c-0.7,0.3-1.4,0.7-1.9,1.1l-1.1-1.8c0.7-0.6,1.6-1.1,2.6-1.4c1-0.3,2-0.5,3.1-0.5c0.7,0,1.3,0.1,1.9,0.2
		c0.6,0.1,1.2,0.4,1.6,0.7c0.5,0.3,0.9,0.8,1.2,1.3c0.3,0.5,0.4,1.2,0.4,1.9c0,0.2,0,0.4,0,0.7c0,0.3,0,0.5-0.1,0.7l-1,5.7
		c-0.1,0.5-0.2,1.1-0.2,1.7c-0.1,0.6-0.1,1.1-0.1,1.5H260c0-0.3,0-0.6,0-0.9c0-0.3,0.1-0.7,0.1-1h-0.1c-0.7,0.8-1.4,1.4-2.2,1.7
		c-0.8,0.4-1.7,0.5-2.8,0.5c-0.5,0-1-0.1-1.5-0.2c-0.5-0.1-1-0.3-1.4-0.6c-0.4-0.3-0.8-0.7-1-1.1c-0.3-0.5-0.4-1.1-0.4-1.8
		c0-1.1,0.3-2.1,0.9-2.8c0.6-0.7,1.4-1.2,2.4-1.6c1-0.4,2.1-0.6,3.3-0.8C258.8,180.2,260,180.1,261.2,180.1z M260.5,182.1
		c-0.8,0-1.6,0-2.4,0.1c-0.8,0.1-1.6,0.2-2.3,0.4c-0.7,0.2-1.2,0.5-1.7,0.9c-0.4,0.4-0.6,0.9-0.6,1.5c0,0.4,0.1,0.7,0.2,1
		c0.1,0.2,0.3,0.4,0.6,0.6c0.2,0.2,0.5,0.3,0.8,0.3c0.3,0.1,0.6,0.1,0.9,0.1c0.6,0,1.2-0.1,1.7-0.3c0.5-0.2,1-0.5,1.4-0.8
		c0.4-0.4,0.7-0.8,1-1.2c0.3-0.5,0.4-1,0.5-1.5l0.2-1H260.5z"/>
	<path class="st0" d="M275.5,177.1h-3.3l-2.1,11.7h-2.7l2.1-11.7h-2.8l0.4-2.2h2.7l0.5-2.9c0.1-0.7,0.3-1.4,0.6-2.1
		c0.3-0.7,0.6-1.3,1.1-1.8c0.5-0.5,1-1,1.7-1.3c0.7-0.3,1.5-0.5,2.4-0.5c0.6,0,1.2,0.1,1.7,0.2l-0.6,2.4c-0.2-0.1-0.4-0.1-0.6-0.1
		c-0.2,0-0.4-0.1-0.7-0.1c-0.5,0-0.9,0.1-1.2,0.3c-0.3,0.2-0.6,0.4-0.8,0.8c-0.2,0.3-0.4,0.7-0.5,1.1c-0.1,0.4-0.2,0.8-0.3,1.3
		l-0.5,2.9h3.3L275.5,177.1z"/>
	<path class="st0" d="M285.9,168.8c-0.2-0.1-0.4-0.1-0.6-0.1c-0.2,0-0.4-0.1-0.7-0.1c-0.5,0-0.9,0.1-1.2,0.3
		c-0.3,0.2-0.6,0.4-0.8,0.8c-0.2,0.3-0.4,0.7-0.5,1.1c-0.1,0.4-0.2,0.8-0.3,1.3l-0.5,2.9h3.3l-0.4,2.2h-3.3l-2.1,11.7h-2.7l2.1-11.7
		h-2.8l0.4-2.2h2.7l0.5-2.9c0.1-0.7,0.3-1.4,0.6-2.1c0.3-0.7,0.6-1.3,1.1-1.8c0.5-0.5,1-1,1.7-1.3c0.7-0.3,1.5-0.5,2.4-0.5
		c0.6,0,1.2,0.1,1.7,0.2L285.9,168.8z M287.5,188.8h-2.7l2.4-14h2.7L287.5,188.8z M291.1,169.8c0,0.5-0.2,0.9-0.5,1.3
		c-0.3,0.4-0.7,0.5-1.2,0.5c-0.5,0-0.9-0.1-1.2-0.4c-0.3-0.3-0.5-0.7-0.5-1.2c0-0.5,0.2-0.9,0.5-1.3c0.4-0.4,0.8-0.5,1.2-0.5
		c0.4,0,0.8,0.2,1.2,0.5C290.9,168.9,291.1,169.3,291.1,169.8z"/>
	<path class="st0" d="M303.9,178.4c-0.2-0.5-0.6-0.9-1.2-1.2c-0.6-0.3-1.2-0.5-1.9-0.5c-0.8,0-1.5,0.2-2.2,0.5
		c-0.7,0.3-1.3,0.8-1.8,1.3c-0.5,0.6-0.9,1.2-1.1,1.9c-0.3,0.7-0.4,1.5-0.4,2.3c0,0.6,0.1,1.1,0.2,1.6c0.2,0.5,0.4,0.9,0.8,1.3
		c0.3,0.4,0.8,0.7,1.3,0.9c0.5,0.2,1.1,0.3,1.8,0.3c0.9,0,1.6-0.2,2.2-0.5c0.6-0.3,1.1-0.7,1.6-1.2l1.6,1.5
		c-0.7,0.7-1.6,1.3-2.5,1.8c-0.9,0.4-2,0.7-3.2,0.7c-1,0-1.9-0.1-2.7-0.4c-0.8-0.3-1.5-0.7-2.1-1.2c-0.6-0.5-1-1.2-1.3-1.9
		s-0.5-1.6-0.5-2.5c0-1.2,0.2-2.3,0.6-3.3c0.4-1,1-2,1.7-2.8c0.7-0.8,1.6-1.4,2.7-1.9c1-0.5,2.2-0.7,3.5-0.7c0.5,0,1,0,1.5,0.1
		c0.5,0.1,1,0.2,1.4,0.4c0.4,0.2,0.8,0.4,1.2,0.7c0.4,0.3,0.7,0.6,0.9,1.1L303.9,178.4z"/>
	<path class="st0" d="M326,184.1L326,184.1l9.2-16.1h4.5l-3.6,20.8h-2.9l3.1-17.4h-0.1l-10,17.4h-1.8l-3.9-17.4h-0.1l-3.1,17.4h-2.8
		l3.7-20.8h4.4L326,184.1z"/>
	<path class="st0" d="M350.8,180.1c0-0.3,0.1-0.5,0.1-0.6c0-0.2,0-0.3,0-0.4c0-0.8-0.3-1.4-0.8-1.8c-0.5-0.4-1.2-0.5-2.2-0.5
		c-0.7,0-1.5,0.1-2.2,0.4c-0.7,0.3-1.4,0.7-1.9,1.1l-1.1-1.8c0.7-0.6,1.6-1.1,2.6-1.4c1-0.3,2-0.5,3.1-0.5c0.7,0,1.3,0.1,1.9,0.2
		c0.6,0.1,1.2,0.4,1.6,0.7c0.5,0.3,0.9,0.8,1.2,1.3c0.3,0.5,0.4,1.2,0.4,1.9c0,0.2,0,0.4,0,0.7c0,0.3,0,0.5-0.1,0.7l-1,5.7
		c-0.1,0.5-0.2,1.1-0.2,1.7c-0.1,0.6-0.1,1.1-0.1,1.5h-2.5c0-0.3,0-0.6,0-0.9c0-0.3,0.1-0.7,0.1-1h-0.1c-0.7,0.8-1.4,1.4-2.2,1.7
		c-0.8,0.4-1.7,0.5-2.8,0.5c-0.5,0-1-0.1-1.5-0.2c-0.5-0.1-1-0.3-1.4-0.6c-0.4-0.3-0.8-0.7-1-1.1c-0.3-0.5-0.4-1.1-0.4-1.8
		c0-1.1,0.3-2.1,0.9-2.8c0.6-0.7,1.4-1.2,2.4-1.6c1-0.4,2.1-0.6,3.3-0.8C348.4,180.2,349.6,180.1,350.8,180.1z M350.1,182.1
		c-0.8,0-1.6,0-2.4,0.1c-0.8,0.1-1.6,0.2-2.3,0.4c-0.7,0.2-1.2,0.5-1.7,0.9s-0.6,0.9-0.6,1.5c0,0.4,0.1,0.7,0.2,1
		c0.1,0.2,0.3,0.4,0.6,0.6c0.2,0.2,0.5,0.3,0.8,0.3c0.3,0.1,0.6,0.1,0.9,0.1c0.6,0,1.2-0.1,1.7-0.3c0.5-0.2,1-0.5,1.4-0.8
		c0.4-0.4,0.7-0.8,1-1.2c0.3-0.5,0.4-1,0.5-1.5l0.2-1H350.1z"/>
	<path class="st0" d="M361.4,174.9c0,0.3-0.1,0.6-0.1,1.1c0,0.5-0.1,0.8-0.2,1.2h0.1c0.5-0.8,1.2-1.4,2-1.9c0.8-0.5,1.7-0.7,2.7-0.7
		c1.5,0,2.7,0.4,3.5,1.2c0.8,0.8,1.2,1.8,1.2,3.1c0,0.5,0,1-0.1,1.4l-1.5,8.6h-2.7l1.4-7.7c0.1-0.5,0.2-1,0.2-1.6
		c0-0.8-0.2-1.5-0.6-2c-0.4-0.5-1.1-0.8-2.1-0.8c-1.1,0-2.1,0.4-2.9,1.3c-0.8,0.8-1.3,1.9-1.6,3.3l-1.3,7.4h-2.7l1.9-10.9
		c0.1-0.4,0.2-0.9,0.3-1.4s0.2-1.1,0.2-1.6H361.4z"/>
	<path class="st0" d="M383.4,180.1c0-0.3,0.1-0.5,0.1-0.6c0-0.2,0-0.3,0-0.4c0-0.8-0.3-1.4-0.8-1.8c-0.5-0.4-1.2-0.5-2.2-0.5
		c-0.7,0-1.5,0.1-2.2,0.4c-0.7,0.3-1.4,0.7-1.9,1.1l-1.1-1.8c0.7-0.6,1.6-1.1,2.6-1.4c1-0.3,2-0.5,3.1-0.5c0.7,0,1.3,0.1,1.9,0.2
		c0.6,0.1,1.2,0.4,1.6,0.7c0.5,0.3,0.9,0.8,1.2,1.3c0.3,0.5,0.4,1.2,0.4,1.9c0,0.2,0,0.4,0,0.7c0,0.3,0,0.5-0.1,0.7l-1,5.7
		c-0.1,0.5-0.2,1.1-0.2,1.7c-0.1,0.6-0.1,1.1-0.1,1.5h-2.5c0-0.3,0-0.6,0-0.9c0-0.3,0.1-0.7,0.1-1h-0.1c-0.7,0.8-1.4,1.4-2.2,1.7
		s-1.7,0.5-2.8,0.5c-0.5,0-1-0.1-1.5-0.2c-0.5-0.1-1-0.3-1.4-0.6c-0.4-0.3-0.8-0.7-1-1.1c-0.3-0.5-0.4-1.1-0.4-1.8
		c0-1.1,0.3-2.1,0.9-2.8c0.6-0.7,1.4-1.2,2.4-1.6c1-0.4,2.1-0.6,3.3-0.8C381,180.2,382.2,180.1,383.4,180.1z M382.7,182.1
		c-0.8,0-1.6,0-2.4,0.1c-0.8,0.1-1.6,0.2-2.3,0.4c-0.7,0.2-1.2,0.5-1.7,0.9c-0.4,0.4-0.6,0.9-0.6,1.5c0,0.4,0.1,0.7,0.2,1
		c0.1,0.2,0.3,0.4,0.6,0.6c0.2,0.2,0.5,0.3,0.8,0.3c0.3,0.1,0.6,0.1,0.9,0.1c0.6,0,1.2-0.1,1.7-0.3c0.5-0.2,1-0.5,1.4-0.8
		c0.4-0.4,0.7-0.8,1-1.2c0.3-0.5,0.4-1,0.5-1.5l0.2-1H382.7z"/>
	<path class="st0" d="M389.7,191.3c0.5,0.7,1.2,1.2,2,1.6c0.9,0.4,1.8,0.6,2.8,0.6c0.9,0,1.7-0.1,2.4-0.4c0.6-0.3,1.2-0.6,1.6-1.1
		c0.4-0.5,0.8-1,1-1.6c0.3-0.6,0.5-1.3,0.6-2l0.4-1.9h-0.1c-0.6,0.8-1.3,1.4-2.1,1.8c-0.9,0.4-1.8,0.7-2.9,0.7
		c-0.9,0-1.8-0.2-2.5-0.5c-0.7-0.3-1.4-0.7-1.9-1.3c-0.5-0.5-0.9-1.2-1.2-1.9c-0.3-0.7-0.4-1.6-0.4-2.4c0-1.2,0.2-2.2,0.6-3.3
		c0.4-1,0.9-1.9,1.6-2.7c0.7-0.8,1.5-1.4,2.5-1.8c1-0.4,2-0.7,3.2-0.7c1.1,0,2.1,0.2,3,0.7c0.8,0.5,1.5,1.1,1.8,1.9h0.1l0.4-2.3h2.6
		l-2.3,13.3c-0.2,1-0.4,2-0.8,2.9c-0.3,0.9-0.8,1.8-1.5,2.5c-0.6,0.7-1.5,1.3-2.4,1.7c-1,0.4-2.2,0.6-3.7,0.6
		c-1.3,0-2.5-0.2-3.7-0.7c-1.2-0.5-2.2-1.1-2.9-2L389.7,191.3z M392.1,182.7c0,0.6,0.1,1.1,0.3,1.6c0.2,0.5,0.4,0.9,0.8,1.3
		c0.3,0.4,0.7,0.7,1.2,0.9c0.5,0.2,1,0.3,1.7,0.3c0.8,0,1.5-0.2,2.2-0.5c0.7-0.3,1.2-0.8,1.7-1.3c0.5-0.5,0.9-1.2,1.1-1.9
		c0.3-0.7,0.4-1.5,0.4-2.3c0-1.2-0.4-2.1-1.1-2.9s-1.7-1.1-2.9-1.1c-0.8,0-1.5,0.2-2.2,0.5c-0.7,0.3-1.2,0.7-1.7,1.3
		c-0.5,0.5-0.8,1.2-1.1,1.9C392.3,181,392.1,181.8,392.1,182.7z"/>
	<path class="st0" d="M410.2,182.7c0,0.1,0,0.2,0,0.2c0,0.1,0,0.1,0,0.2c0,0.5,0.1,1.1,0.3,1.5c0.2,0.5,0.5,0.9,0.9,1.2
		c0.4,0.3,0.8,0.6,1.3,0.8c0.5,0.2,1,0.3,1.6,0.3c1,0,1.9-0.2,2.6-0.6c0.7-0.4,1.3-0.9,1.8-1.5l1.6,1.5c-0.8,0.9-1.8,1.7-2.8,2.1
		c-1.1,0.5-2.2,0.7-3.4,0.7c-0.9,0-1.8-0.1-2.6-0.4c-0.8-0.3-1.5-0.7-2.1-1.2c-0.6-0.5-1-1.2-1.4-1.9c-0.3-0.8-0.5-1.6-0.5-2.6
		c0-1.2,0.2-2.3,0.6-3.3c0.4-1,1-1.9,1.7-2.7c0.7-0.8,1.6-1.4,2.6-1.8c1-0.5,2.1-0.7,3.2-0.7c1.8,0,3.2,0.5,4.2,1.5
		c1,1,1.6,2.3,1.6,4.1c0,0.3,0,0.7-0.1,1.2c0,0.5-0.1,1-0.2,1.5H410.2z M418.8,180.7c0-0.1,0-0.3,0-0.4c0-0.2,0-0.3,0-0.4
		c0-0.9-0.3-1.7-0.9-2.3c-0.6-0.6-1.4-0.9-2.6-0.9c-0.7,0-1.3,0.1-1.8,0.4c-0.5,0.2-1,0.5-1.5,0.9c-0.4,0.4-0.8,0.8-1.1,1.3
		c-0.3,0.5-0.5,1-0.6,1.5H418.8z"/>
	<path class="st0" d="M442.2,174.5c1.6,0,2.8,0.4,3.5,1.2c0.8,0.8,1.2,1.8,1.2,3.1c0,0.2,0,0.5,0,0.7c0,0.2-0.1,0.5-0.1,0.7
		l-1.5,8.6h-2.7l1.4-7.7c0-0.3,0.1-0.5,0.1-0.8c0-0.3,0-0.5,0-0.8c0-0.8-0.2-1.5-0.6-2c-0.4-0.5-1.1-0.8-2.1-0.8
		c-0.6,0-1.2,0.1-1.7,0.4c-0.5,0.3-0.9,0.6-1.2,1c-0.3,0.4-0.6,0.9-0.8,1.4c-0.2,0.5-0.4,1.1-0.5,1.6l-1.3,7.5h-2.7l1.5-8.3
		c0-0.2,0.1-0.5,0.1-0.7c0-0.2,0-0.4,0-0.6c0-0.7-0.2-1.3-0.6-1.8c-0.4-0.5-1-0.7-1.9-0.7c-0.5,0-1,0.1-1.5,0.3
		c-0.5,0.2-0.9,0.5-1.3,0.9c-0.4,0.4-0.7,0.9-1,1.5c-0.3,0.6-0.5,1.2-0.6,1.9l-1.3,7.4h-2.7l1.9-10.9c0.1-0.4,0.2-0.9,0.3-1.4
		s0.2-1.1,0.2-1.6h2.6c0,0.3-0.1,0.6-0.1,1.1c-0.1,0.5-0.1,0.9-0.1,1.1h0.1c0.5-0.7,1.1-1.4,1.9-1.9c0.8-0.5,1.7-0.8,2.7-0.8
		c1,0,1.8,0.2,2.6,0.7c0.8,0.5,1.2,1.2,1.5,2.2c0.6-0.9,1.3-1.6,2.1-2.1C440.1,174.7,441.1,174.5,442.2,174.5z"/>
	<path class="st0" d="M452.5,182.7c0,0.1,0,0.2,0,0.2c0,0.1,0,0.1,0,0.2c0,0.5,0.1,1.1,0.3,1.5s0.5,0.9,0.9,1.2
		c0.4,0.3,0.8,0.6,1.3,0.8c0.5,0.2,1,0.3,1.6,0.3c1,0,1.9-0.2,2.6-0.6c0.7-0.4,1.3-0.9,1.8-1.5l1.6,1.5c-0.8,0.9-1.8,1.7-2.8,2.1
		c-1.1,0.5-2.2,0.7-3.4,0.7c-0.9,0-1.8-0.1-2.6-0.4c-0.8-0.3-1.5-0.7-2.1-1.2c-0.6-0.5-1-1.2-1.4-1.9c-0.3-0.8-0.5-1.6-0.5-2.6
		c0-1.2,0.2-2.3,0.6-3.3c0.4-1,1-1.9,1.7-2.7c0.7-0.8,1.6-1.4,2.6-1.8c1-0.5,2.1-0.7,3.2-0.7c1.8,0,3.2,0.5,4.2,1.5
		c1,1,1.6,2.3,1.6,4.1c0,0.3,0,0.7-0.1,1.2c0,0.5-0.1,1-0.2,1.5H452.5z M461.2,180.7c0-0.1,0-0.3,0-0.4c0-0.2,0-0.3,0-0.4
		c0-0.9-0.3-1.7-0.9-2.3c-0.6-0.6-1.4-0.9-2.6-0.9c-0.7,0-1.3,0.1-1.8,0.4c-0.5,0.2-1,0.5-1.5,0.9c-0.4,0.4-0.8,0.8-1.1,1.3
		c-0.3,0.5-0.5,1-0.6,1.5H461.2z"/>
	<path class="st0" d="M471.2,174.9c0,0.3-0.1,0.6-0.1,1.1c0,0.5-0.1,0.8-0.2,1.2h0.1c0.5-0.8,1.2-1.4,2-1.9c0.8-0.5,1.7-0.7,2.7-0.7
		c1.5,0,2.7,0.4,3.5,1.2c0.8,0.8,1.2,1.8,1.2,3.1c0,0.5,0,1-0.1,1.4l-1.5,8.6h-2.7l1.4-7.7c0.1-0.5,0.2-1,0.2-1.6
		c0-0.8-0.2-1.5-0.6-2c-0.4-0.5-1.1-0.8-2.1-0.8c-1.1,0-2.1,0.4-2.9,1.3c-0.8,0.8-1.3,1.9-1.6,3.3l-1.3,7.4h-2.7l1.9-10.9
		c0.1-0.4,0.2-0.9,0.3-1.4c0.1-0.6,0.2-1.1,0.2-1.6H471.2z"/>
	<path class="st0" d="M491.7,177.1h-3.4l-1.3,7.3c-0.1,0.3-0.1,0.6-0.1,0.9c0,0.6,0.2,1,0.5,1.2c0.3,0.2,0.7,0.3,1.2,0.3
		c0.3,0,0.5,0,0.8-0.1c0.3-0.1,0.5-0.1,0.7-0.2l-0.2,2.2c-0.3,0.1-0.6,0.2-1,0.3c-0.4,0.1-0.8,0.1-1.2,0.1c-1.1,0-1.9-0.2-2.6-0.7
		s-1-1.2-1-2.3c0-0.2,0-0.4,0-0.7c0-0.2,0-0.5,0.1-0.7l1.4-7.6h-2.6l0.4-2.2h2.6l0.7-4h2.7l-0.7,4h3.5L491.7,177.1z"/>
</g>
<g>
	<path class="st0" d="M508.9,180.6c0-0.3,0.1-0.5,0.1-0.7c0-0.2,0-0.3,0-0.5c0-0.9-0.3-1.5-0.8-1.8c-0.5-0.4-1.3-0.6-2.3-0.6
		c-0.8,0-1.5,0.2-2.3,0.5c-0.8,0.3-1.4,0.7-2,1.1l-1.2-1.9c0.8-0.6,1.7-1.1,2.7-1.4c1-0.4,2.1-0.5,3.2-0.5c0.7,0,1.4,0.1,2,0.2
		c0.6,0.2,1.2,0.4,1.7,0.7c0.5,0.3,0.9,0.8,1.2,1.3c0.3,0.5,0.5,1.2,0.5,2c0,0.2,0,0.4,0,0.7c0,0.3-0.1,0.5-0.1,0.7l-1.1,5.9
		c-0.1,0.6-0.2,1.2-0.2,1.8c-0.1,0.6-0.1,1.1-0.1,1.5h-2.6c0-0.3,0-0.6,0-1c0-0.3,0.1-0.7,0.1-1h-0.1c-0.7,0.8-1.4,1.4-2.3,1.8
		c-0.8,0.4-1.8,0.5-2.9,0.5c-0.5,0-1-0.1-1.5-0.2s-1-0.3-1.4-0.6c-0.4-0.3-0.8-0.7-1.1-1.2c-0.3-0.5-0.4-1.1-0.4-1.8
		c0-1.2,0.3-2.1,1-2.9c0.7-0.7,1.5-1.3,2.5-1.7c1-0.4,2.2-0.7,3.5-0.8C506.4,180.7,507.7,180.6,508.9,180.6z M508.2,182.7
		c-0.8,0-1.6,0-2.5,0.1c-0.9,0.1-1.6,0.2-2.3,0.4c-0.7,0.2-1.3,0.5-1.7,0.9c-0.4,0.4-0.7,0.9-0.7,1.6c0,0.4,0.1,0.7,0.2,1
		c0.2,0.3,0.4,0.5,0.6,0.6s0.5,0.3,0.9,0.3c0.3,0.1,0.6,0.1,1,0.1c0.6,0,1.2-0.1,1.8-0.3c0.5-0.2,1-0.5,1.4-0.9
		c0.4-0.4,0.7-0.8,1-1.3c0.3-0.5,0.5-1,0.6-1.6l0.2-1.1H508.2z"/>
	<path class="st0" d="M523.9,178.7c-0.3-0.5-0.7-0.9-1.2-1.2c-0.5-0.3-1.1-0.5-1.9-0.5c-0.3,0-0.7,0-1,0.1c-0.3,0.1-0.7,0.2-1,0.3
		c-0.3,0.2-0.5,0.4-0.7,0.6s-0.3,0.6-0.3,0.9c0,0.6,0.2,1,0.7,1.3c0.4,0.3,1.1,0.5,1.9,0.7c1.4,0.4,2.4,0.9,3.2,1.6
		c0.7,0.6,1.1,1.6,1.1,2.7c0,0.8-0.2,1.5-0.5,2.1c-0.3,0.6-0.8,1.1-1.4,1.5c-0.6,0.4-1.2,0.7-1.9,0.9c-0.7,0.2-1.4,0.3-2.2,0.3
		c-1.4,0-2.6-0.3-3.6-0.8c-1-0.5-1.8-1.2-2.3-2.1l2.3-1.5c0.3,0.6,0.8,1.1,1.4,1.4c0.6,0.4,1.4,0.5,2.2,0.5c0.9,0,1.6-0.2,2.2-0.5
		c0.6-0.4,0.9-0.9,0.9-1.6c0-0.6-0.2-1.1-0.7-1.4c-0.5-0.3-1.2-0.7-2.2-1c-0.6-0.2-1.1-0.4-1.6-0.6c-0.5-0.2-0.9-0.5-1.2-0.8
		c-0.3-0.3-0.6-0.7-0.8-1.1c-0.2-0.4-0.3-0.9-0.3-1.5c0-0.7,0.2-1.3,0.5-1.9c0.3-0.6,0.8-1,1.3-1.4c0.5-0.4,1.2-0.7,1.9-0.9
		c0.7-0.2,1.5-0.3,2.2-0.3c1.1,0,2.1,0.2,3,0.6c0.9,0.4,1.6,1,2,1.8L523.9,178.7z"/>
	<path class="st0" d="M544.2,180.6c0-0.3,0.1-0.5,0.1-0.7c0-0.2,0-0.3,0-0.5c0-0.9-0.3-1.5-0.8-1.8s-1.3-0.6-2.3-0.6
		c-0.8,0-1.5,0.2-2.3,0.5c-0.8,0.3-1.4,0.7-2,1.1l-1.2-1.9c0.8-0.6,1.7-1.1,2.7-1.4c1-0.4,2.1-0.5,3.2-0.5c0.7,0,1.4,0.1,2,0.2
		c0.6,0.2,1.2,0.4,1.7,0.7c0.5,0.3,0.9,0.8,1.2,1.3c0.3,0.5,0.5,1.2,0.5,2c0,0.2,0,0.4,0,0.7c0,0.3-0.1,0.5-0.1,0.7l-1.1,5.9
		c-0.1,0.6-0.2,1.2-0.2,1.8c-0.1,0.6-0.1,1.1-0.1,1.5h-2.6c0-0.3,0-0.6,0-1c0-0.3,0.1-0.7,0.1-1h-0.1c-0.7,0.8-1.4,1.4-2.3,1.8
		c-0.8,0.4-1.8,0.5-2.9,0.5c-0.5,0-1-0.1-1.5-0.2c-0.5-0.1-1-0.3-1.4-0.6c-0.4-0.3-0.8-0.7-1.1-1.2c-0.3-0.5-0.4-1.1-0.4-1.8
		c0-1.2,0.3-2.1,1-2.9c0.7-0.7,1.5-1.3,2.5-1.7c1-0.4,2.2-0.7,3.5-0.8C541.7,180.7,543,180.6,544.2,180.6z M543.5,182.7
		c-0.8,0-1.6,0-2.5,0.1c-0.9,0.1-1.6,0.2-2.3,0.4c-0.7,0.2-1.3,0.5-1.7,0.9c-0.4,0.4-0.7,0.9-0.7,1.6c0,0.4,0.1,0.7,0.2,1
		c0.2,0.3,0.4,0.5,0.6,0.6c0.3,0.2,0.5,0.3,0.9,0.3c0.3,0.1,0.6,0.1,1,0.1c0.6,0,1.2-0.1,1.8-0.3c0.5-0.2,1-0.5,1.4-0.9
		c0.4-0.4,0.7-0.8,1-1.3c0.3-0.5,0.5-1,0.6-1.6l0.2-1.1H543.5z"/>
	<path class="st0" d="M570.1,172c-0.4-0.6-1-1.1-1.6-1.4c-0.7-0.4-1.5-0.5-2.3-0.5c-0.5,0-1,0.1-1.6,0.2c-0.5,0.1-1,0.4-1.5,0.7
		c-0.5,0.3-0.8,0.7-1.1,1.2s-0.4,1.1-0.4,1.7c0,0.5,0.1,0.9,0.3,1.2c0.2,0.3,0.4,0.7,0.7,0.9c0.3,0.3,0.7,0.5,1.1,0.7
		c0.4,0.2,0.9,0.4,1.4,0.6c0.8,0.3,1.5,0.6,2.2,1c0.7,0.4,1.3,0.8,1.8,1.3c0.5,0.5,0.9,1,1.2,1.6c0.3,0.6,0.4,1.3,0.4,2.2
		c0,1-0.2,1.9-0.6,2.8c-0.4,0.8-0.9,1.6-1.6,2.2c-0.7,0.6-1.6,1.1-2.5,1.4c-1,0.3-2.1,0.5-3.4,0.5c-0.7,0-1.4-0.1-2.1-0.2
		c-0.7-0.1-1.3-0.4-2-0.6c-0.6-0.3-1.2-0.6-1.7-1c-0.5-0.4-1-0.9-1.3-1.5l2.5-1.7c0.4,0.7,1,1.3,1.8,1.8c0.8,0.5,1.8,0.7,2.8,0.7
		c0.6,0,1.2-0.1,1.8-0.3c0.6-0.2,1.1-0.4,1.5-0.8c0.4-0.3,0.8-0.8,1.1-1.3c0.3-0.5,0.4-1.1,0.4-1.8c0-0.5-0.1-1-0.3-1.4
		c-0.2-0.4-0.5-0.8-0.9-1.1c-0.4-0.3-0.8-0.6-1.3-0.8s-1-0.5-1.6-0.7c-0.6-0.2-1.2-0.5-1.8-0.8c-0.6-0.3-1.1-0.7-1.6-1.1
		c-0.4-0.4-0.8-0.9-1.1-1.5c-0.3-0.6-0.4-1.3-0.4-2.1c0-1,0.2-1.9,0.6-2.7c0.4-0.8,1-1.5,1.7-2.1c0.7-0.6,1.6-1,2.5-1.3
		c1-0.3,2-0.5,3.2-0.5c1.3,0,2.4,0.2,3.5,0.7c1.1,0.5,1.9,1.1,2.5,2L570.1,172z"/>
	<path class="st0" d="M575.7,183.3c0,0.1,0,0.2,0,0.3c0,0.1,0,0.1,0,0.2c0,0.6,0.1,1.1,0.3,1.6c0.2,0.5,0.5,0.9,0.9,1.3
		c0.4,0.4,0.8,0.6,1.3,0.8c0.5,0.2,1.1,0.3,1.7,0.3c1,0,1.9-0.2,2.7-0.6s1.4-0.9,1.9-1.6l1.7,1.6c-0.9,1-1.8,1.7-2.9,2.2
		c-1.1,0.5-2.3,0.7-3.6,0.7c-1,0-1.8-0.1-2.7-0.4c-0.8-0.3-1.5-0.7-2.1-1.3c-0.6-0.5-1.1-1.2-1.4-2c-0.3-0.8-0.5-1.7-0.5-2.7
		c0-1.2,0.2-2.3,0.6-3.4c0.4-1.1,1-2,1.8-2.8c0.8-0.8,1.6-1.4,2.7-1.9c1-0.5,2.2-0.7,3.4-0.7c1.9,0,3.3,0.5,4.4,1.5
		c1.1,1,1.6,2.4,1.6,4.2c0,0.3,0,0.7-0.1,1.2c-0.1,0.5-0.1,1-0.2,1.5H575.7z M584.7,181.2c0-0.1,0-0.3,0-0.5c0-0.2,0-0.3,0-0.5
		c0-0.9-0.3-1.7-0.9-2.3c-0.6-0.6-1.5-0.9-2.7-0.9c-0.7,0-1.3,0.1-1.9,0.4c-0.6,0.2-1.1,0.6-1.5,0.9c-0.4,0.4-0.8,0.8-1.1,1.3
		c-0.3,0.5-0.5,1-0.6,1.5H584.7z"/>
	<path class="st0" d="M591.6,176.9c0.1-0.6,0.2-1.2,0.2-1.6h2.7c0,0.1,0,0.3-0.1,0.5c0,0.2,0,0.4-0.1,0.7c0,0.2-0.1,0.5-0.1,0.7
		s-0.1,0.4-0.1,0.6h0.1c0.5-0.9,1.1-1.5,1.9-2.1c0.8-0.5,1.6-0.8,2.6-0.8c0.4,0,0.8,0,1.1,0.1l-0.5,2.7c-0.4-0.1-0.8-0.2-1.3-0.2
		c-0.7,0-1.3,0.1-1.8,0.4c-0.5,0.3-1,0.6-1.4,1c-0.4,0.4-0.7,0.9-0.9,1.5c-0.2,0.6-0.4,1.1-0.5,1.8l-1.3,7.6h-2.8l2-11.3
		C591.4,178,591.5,177.5,591.6,176.9z"/>
	<path class="st0" d="M607.4,189.7h-3l-2.9-14.5h2.9l2,11.4h0.1l6.6-11.4h3L607.4,189.7z"/>
	<path class="st0" d="M619,189.7h-2.8l2.5-14.5h2.8L619,189.7z M622.7,169.9c0,0.5-0.2,0.9-0.5,1.3c-0.3,0.4-0.8,0.5-1.3,0.5
		c-0.5,0-0.9-0.2-1.3-0.5c-0.4-0.3-0.5-0.7-0.5-1.3c0-0.5,0.2-1,0.6-1.4c0.4-0.4,0.8-0.5,1.3-0.5c0.5,0,0.9,0.2,1.2,0.5
		C622.6,169,622.7,169.4,622.7,169.9z"/>
	<path class="st0" d="M635.8,178.9c-0.2-0.5-0.7-0.9-1.2-1.2c-0.6-0.3-1.2-0.5-1.9-0.5c-0.8,0-1.6,0.2-2.3,0.5s-1.3,0.8-1.8,1.4
		c-0.5,0.6-0.9,1.3-1.2,2c-0.3,0.8-0.4,1.6-0.4,2.4c0,0.6,0.1,1.1,0.3,1.6c0.2,0.5,0.4,1,0.8,1.3c0.3,0.4,0.8,0.7,1.3,0.9
		c0.5,0.2,1.1,0.3,1.8,0.3c0.9,0,1.7-0.2,2.3-0.5c0.6-0.3,1.2-0.7,1.6-1.3l1.7,1.6c-0.8,0.8-1.6,1.4-2.6,1.8c-0.9,0.5-2,0.7-3.3,0.7
		c-1,0-2-0.2-2.8-0.5c-0.8-0.3-1.6-0.7-2.2-1.3c-0.6-0.5-1-1.2-1.4-2c-0.3-0.8-0.5-1.6-0.5-2.5c0-1.2,0.2-2.3,0.6-3.4
		c0.4-1.1,1-2,1.8-2.9c0.8-0.8,1.7-1.5,2.8-2c1.1-0.5,2.3-0.7,3.6-0.7c0.5,0,1.1,0.1,1.6,0.2c0.5,0.1,1,0.2,1.5,0.4
		c0.5,0.2,0.9,0.4,1.3,0.7c0.4,0.3,0.7,0.7,0.9,1.1L635.8,178.9z"/>
	<path class="st0" d="M641.8,183.3c0,0.1,0,0.2,0,0.3c0,0.1,0,0.1,0,0.2c0,0.6,0.1,1.1,0.3,1.6c0.2,0.5,0.5,0.9,0.9,1.3
		c0.4,0.4,0.8,0.6,1.3,0.8c0.5,0.2,1.1,0.3,1.7,0.3c1,0,1.9-0.2,2.7-0.6c0.7-0.4,1.4-0.9,1.9-1.6l1.7,1.6c-0.9,1-1.8,1.7-2.9,2.2
		c-1.1,0.5-2.3,0.7-3.6,0.7c-1,0-1.8-0.1-2.7-0.4c-0.8-0.3-1.5-0.7-2.1-1.3c-0.6-0.5-1.1-1.2-1.4-2c-0.3-0.8-0.5-1.7-0.5-2.7
		c0-1.2,0.2-2.3,0.6-3.4c0.4-1.1,1-2,1.8-2.8c0.8-0.8,1.6-1.4,2.7-1.9c1-0.5,2.2-0.7,3.4-0.7c1.9,0,3.3,0.5,4.4,1.5
		c1.1,1,1.6,2.4,1.6,4.2c0,0.3,0,0.7-0.1,1.2c-0.1,0.5-0.1,1-0.2,1.5H641.8z M650.7,181.2c0-0.1,0-0.3,0-0.5c0-0.2,0-0.3,0-0.5
		c0-0.9-0.3-1.7-0.9-2.3c-0.6-0.6-1.5-0.9-2.7-0.9c-0.7,0-1.3,0.1-1.9,0.4c-0.6,0.2-1.1,0.6-1.5,0.9s-0.8,0.8-1.1,1.3
		c-0.3,0.5-0.5,1-0.6,1.5H650.7z"/>
</g>
<g>
	<path class="st0" d="M256.2,148.5V67.6h-28.9V51.1h77.4v16.5h-28.8v80.9H256.2z"/>
	<path class="st0" d="M317.1,148.5V51.1h29.4l17.7,66.5l17.5-66.5h29.5v97.4H393V71.8l-19.3,76.7h-18.9l-19.3-76.7v76.7H317.1z"/>
	<path class="st0" d="M444.6,99.5l-16.9-3.1c1.9-6.8,5.2-11.9,9.8-15.2c4.7-3.3,11.6-4.9,20.7-4.9c8.3,0,14.5,1,18.6,3
		c4.1,2,6.9,4.5,8.6,7.5s2.5,8.6,2.5,16.7l-0.2,21.8c0,6.2,0.3,10.8,0.9,13.7c0.6,2.9,1.7,6.1,3.4,9.5h-18.5
		c-0.5-1.2-1.1-3.1-1.8-5.5c-0.3-1.1-0.5-1.8-0.7-2.2c-3.2,3.1-6.6,5.4-10.2,7c-3.6,1.6-7.5,2.3-11.6,2.3c-7.3,0-13-2-17.2-5.9
		c-4.2-3.9-6.3-8.9-6.3-15c0-4,1-7.5,2.9-10.7c1.9-3.1,4.6-5.5,8-7.2c3.4-1.7,8.4-3.1,14.9-4.4c8.7-1.6,14.8-3.2,18.1-4.6v-1.9
		c0-3.6-0.9-6.1-2.7-7.7c-1.8-1.5-5.1-2.3-10-2.3c-3.3,0-5.9,0.7-7.8,2C447.3,93.9,445.7,96.2,444.6,99.5z M469.6,114.6
		c-2.4,0.8-6.2,1.8-11.4,2.9c-5.2,1.1-8.6,2.2-10.2,3.3c-2.4,1.7-3.7,3.9-3.7,6.6c0,2.6,1,4.9,2.9,6.8c1.9,1.9,4.4,2.9,7.4,2.9
		c3.4,0,6.6-1.1,9.6-3.3c2.3-1.7,3.7-3.7,4.5-6.2c0.5-1.6,0.7-4.6,0.7-9.1V114.6z"/>
	<path class="st0" d="M520.3,99.5l-16.9-3.1c1.9-6.8,5.2-11.9,9.8-15.2c4.7-3.3,11.6-4.9,20.7-4.9c8.3,0,14.5,1,18.6,3
		c4.1,2,6.9,4.5,8.6,7.5c1.7,3,2.5,8.6,2.5,16.7l-0.2,21.8c0,6.2,0.3,10.8,0.9,13.7c0.6,2.9,1.7,6.1,3.4,9.5h-18.5
		c-0.5-1.2-1.1-3.1-1.8-5.5c-0.3-1.1-0.5-1.8-0.7-2.2c-3.2,3.1-6.6,5.4-10.2,7c-3.6,1.6-7.5,2.3-11.6,2.3c-7.3,0-13-2-17.2-5.9
		c-4.2-3.9-6.3-8.9-6.3-15c0-4,1-7.5,2.9-10.7c1.9-3.1,4.6-5.5,8-7.2c3.4-1.7,8.4-3.1,14.9-4.4c8.7-1.6,14.8-3.2,18.1-4.6v-1.9
		c0-3.6-0.9-6.1-2.7-7.7c-1.8-1.5-5.1-2.3-10-2.3c-3.3,0-5.9,0.7-7.8,2C523,93.9,521.4,96.2,520.3,99.5z M545.3,114.6
		c-2.4,0.8-6.2,1.8-11.4,2.9c-5.2,1.1-8.6,2.2-10.2,3.3c-2.4,1.7-3.7,3.9-3.7,6.6c0,2.6,1,4.9,2.9,6.8c1.9,1.9,4.4,2.9,7.4,2.9
		c3.4,0,6.6-1.1,9.6-3.3c2.3-1.7,3.7-3.7,4.5-6.2c0.5-1.6,0.7-4.6,0.7-9.1V114.6z"/>
	<path class="st0" d="M577.2,116.8l19.1-1.9c1.2,6.4,3.5,11.1,7,14.2c3.5,3,8.3,4.5,14.3,4.5c6.3,0,11.1-1.3,14.3-4
		c3.2-2.7,4.8-5.8,4.8-9.4c0-2.3-0.7-4.3-2-5.9c-1.4-1.6-3.7-3-7.1-4.2c-2.3-0.8-7.6-2.2-15.8-4.3c-10.5-2.6-17.9-5.8-22.2-9.6
		c-6-5.4-9-11.9-9-19.6c0-5,1.4-9.6,4.2-13.9c2.8-4.3,6.9-7.6,12.2-9.9c5.3-2.3,11.7-3.4,19.2-3.4c12.2,0,21.4,2.7,27.6,8
		c6.2,5.4,9.4,12.5,9.7,21.5l-19.7,0.9c-0.8-5-2.6-8.6-5.4-10.8c-2.8-2.2-6.9-3.3-12.5-3.3c-5.7,0-10.2,1.2-13.4,3.5
		c-2.1,1.5-3.1,3.5-3.1,6c0,2.3,1,4.3,2.9,5.9c2.5,2.1,8.5,4.3,18.1,6.5c9.6,2.3,16.6,4.6,21.2,7c4.6,2.4,8.2,5.7,10.8,9.9
		c2.6,4.2,3.9,9.4,3.9,15.5c0,5.6-1.6,10.8-4.7,15.7c-3.1,4.9-7.5,8.5-13.2,10.9c-5.7,2.4-12.7,3.6-21.2,3.6
		c-12.3,0-21.8-2.8-28.4-8.5C582.4,136,578.5,127.7,577.2,116.8z"/>
</g>
<g id="jJZl5e_2_">
	<g>
		<path class="st1" d="M124.3,1c0,0,2.1-1.6,3.8-0.6c1.5,0.9,1.5,2,1.5,4.3l-0.1,52.9l55.4-55.4c1-1,2.9-2.6,4.4-1.6
			c1.6,1.1,1.8,2.1,1.8,4c0.1,21.1,0.1,143.7,0.1,182.5c0,3.2-1.3,4.7-4.5,4.7c-38.7-0.2-160.4,0-181.9,0c-1.9,0-3.6-0.2-4.3-2.2
			c-0.7-2.1,0.3-3.4,1.7-4.8c2.8-2.7,53.6-53.2,54.7-54.4c-1.6,0-35.9,0.1-52,0c-1.2,0-3.4-0.3-4.2-1.9c-0.9-1.7,0.1-3.6,1.5-5.2
			c1.5-1.6,53.3-53.2,54.3-54.3c-1.3,0-35.4,0.1-51.7,0.1c-1.6,0-3.6-0.4-4.4-2.4c-0.8-2,0.6-3.7,2-5C4.5,59.2,56.9,6.9,62.4,1.3
			c1.1-1.1,3-1.8,4.4-0.9s1.4,2.1,1.4,4.1c-0.1,16.1,0,33.3,0,49.4c0,0.9,0,1.7,0,3.1c1.1-1.1,1.9-1.9,2.6-2.6L124.3,1z M184.2,74.2
			l-49.1,49.2h49.1C184.2,123.4,184.2,74.5,184.2,74.2z M134.6,62h49.6V12.5L134.6,62z M122.7,73.9L73,123.6
			c0.6,0,49.6-0.3,49.6-0.3S122.7,74.6,122.7,73.9z M122.7,12.2L72.8,62h49.9V12.2z M11.3,123.6c0.8,0,50-0.4,50-0.4
			s0.1-49.6,0-49.7L11.3,123.6z M68.2,68.9l0,49.8l49.9-49.9L68.2,68.9z M134.8,184.8h49.4v-49.4L134.8,184.8z M61.4,62V12L11.5,62
			L61.4,62z M118.5,130.3H68.2l0,50.3L118.5,130.3z M122.6,135.9l-49,48.9l49,0L122.6,135.9z M180,68.8l-50.4,0v50.5L180,68.8z
			 M129.4,180.6l50.3-50.3h-50.3V180.6z M61.4,135.2l-49.6,49.6h49.6V135.2z"/>
	</g>
</g>
</svg>
