<?xml version="1.0" encoding="utf-8"?>
<!-- Generator: Adobe Illustrator 21.1.0, SVG Export Plug-In . SVG Version: 6.00 Build 0)  -->
<svg version="1.1" id="Laag_1" xmlns="http://www.w3.org/2000/svg" xmlns:xlink="http://www.w3.org/1999/xlink" x="0px" y="0px"
	 viewBox="0 0 800 300" style="enable-background:new 0 0 800 300;" xml:space="preserve">
<style type="text/css">
	.st0{fill:#363636;}
</style>
<g>
	<path class="st0" d="M23,120.5l-2.9,8.4h-4.4l12.4-36.1h5.7l12.4,36.1h-4.4l-2.9-8.4H23z M37.5,116.6l-6.6-19.2l-6.6,19.2H37.5z"/>
	<path class="st0" d="M73.4,128.9l-2.5-1.9c-2.3,1.6-4.7,2.4-8,2.4c-5,0-9.1-2-12-5.4c-2.9-3.3-4.6-8-4.6-13.4c0-5,1.4-9.6,4.4-13
		c3-3.3,7.4-5.4,13.5-5.4c1.3,0,2.9,0.1,4.3,0.3c1.4,0.2,2.9,0.5,4.1,0.8v3.9l-0.2,0.1c-1.3-0.4-2.7-0.7-4.1-0.9
		c-1.4-0.2-2.7-0.3-3.8-0.3c-4.7,0-8.2,1.6-10.5,4.1c-2.3,2.5-3.5,6.1-3.5,10c0,4.2,1.3,8,3.6,10.7c2.3,2.7,5.5,4.4,9.2,4.4
		c2.1,0,3.8-0.5,5.1-1.2c1.2-0.7,2-1.5,2.4-1.9v-9.1H63v-4.2H75v19.9H73.4z"/>
	<path class="st0" d="M104.9,92.8v3.9H87.4v12.1h17.5v3.9H87.4V125h17.5v3.9H83.2V92.8H104.9z"/>
	<path class="st0" d="M114.9,128.9h-4.2V92.8h4.4l17.4,27.9V92.8h4.2v36.1h-4.2l-17.6-28.1V128.9z"/>
	<path class="st0" d="M168.6,92.8v3.9h-11.2v32.1h-4.2V96.8h-11.2v-3.9H168.6z"/>
	<path class="st0" d="M168,124c1.9,0.9,5.4,1.5,7.9,1.5c4.2,0,8.3-1.5,8.3-5.9c0-2.4-1.1-3.8-3.2-5.1c-1.7-1.1-8.6-4.3-10.1-5.5
		c-1.7-1.4-2.8-3.6-2.8-6.9c0-6.8,4.8-9.7,11.2-9.7c2.2,0,4.4,0.4,6.3,1v3.6l-0.1,0.1c-1.6-0.3-4-0.7-6.3-0.7c-4,0-7.3,1.3-7.3,5.5
		c0,1.8,0.6,2.8,1.6,3.6c1.8,1.6,7.4,3.9,10.1,5.8c3,2.1,4.5,3.5,4.5,7.5c0,7.2-6,10.8-12.9,10.8c-2.6,0-5.2-0.5-7.4-1.6L168,124
		L168,124z"/>
	<path class="st0" d="M219.1,124.4v3.9c-1.2,0.4-2.7,0.6-4.1,0.8c-1.5,0.2-2.9,0.3-4.2,0.3c-6,0-10.5-2-13.5-5.4
		c-3-3.4-4.5-8.2-4.5-13.8c0.1-5.1,1.6-9.6,4.5-12.8c3-3.2,7.4-5.2,13.4-5.2c1.3,0,2.8,0.1,4.2,0.3c1.4,0.2,2.9,0.5,4.1,0.8v3.9
		l-0.2,0.1c-1.3-0.4-2.7-0.7-4.1-0.9c-1.4-0.2-2.7-0.3-3.8-0.3c-4.7,0-8.2,1.5-10.5,4.1c-2.3,2.5-3.5,6.2-3.5,10.5
		c0,4.3,1.1,7.9,3.5,10.5c2.3,2.6,5.8,4.1,10.5,4.1c1.1,0,2.4-0.1,3.8-0.3c1.4-0.2,2.8-0.5,4.1-0.9L219.1,124.4z"/>
	<path class="st0" d="M228.8,113v15.9h-4.2V92.8h4.2v15.9h17.6V92.8h4.2v36.1h-4.2V113H228.8z"/>
	<path class="st0" d="M262.9,120.5l-2.9,8.4h-4.4l12.4-36.1h5.7l12.4,36.1h-4.4l-2.9-8.4H262.9z M277.5,116.6l-6.6-19.2l-6.6,19.2
		H277.5z"/>
	<path class="st0" d="M291.2,92.8h7.1c5.9,0,10.3,0.9,13.3,2.7c3,1.9,4.5,4.8,4.5,9c0,3.3-0.9,5.7-2.5,7.6c-1.6,1.9-3.8,3.2-6.5,4
		c-2.7,0.8-5.8,1.2-9,1.2h-2.6v11.6h-4.2V92.8z M295.4,113.3h3.4c3.9,0,7.2-0.5,9.5-1.7c2.3-1.3,3.5-3.2,3.5-6.4
		c0-3.3-1.5-5.4-3.8-6.6c-2.3-1.3-5.6-1.7-9.3-1.7h-3.4V113.3z"/>
	<path class="st0" d="M18.6,143.3H28c3.8,0,7.2,0.4,9.7,1.8c2.5,1.4,4,3.9,4,7.9c0,3.6-1.2,5.9-3.2,7.4c3.7,1.5,5.5,4.1,5.5,8.6
		c0,3.2-0.9,5.4-2.5,7c-1.6,1.6-3.9,2.4-6.5,2.9c-2.7,0.5-5.8,0.6-9,0.6h-7.4V143.3z M25,157.6h0.4c3.2,0,5.6-0.1,7.2-0.6
		c1.6-0.6,2.4-1.7,2.4-3.8c0-2.2-0.8-3.3-2.5-3.9c-1.6-0.5-3.9-0.6-7-0.6H25V157.6z M25,173.9h1.8c3.5,0,6.2-0.2,7.9-0.9
		c1.7-0.7,2.6-1.9,2.6-4c0-2.2-0.8-3.4-2.5-4.2c-1.6-0.8-3.9-1-7-1H25V173.9z"/>
	<path class="st0" d="M55.6,179.3h-6.4v-36.1h6.4V179.3z"/>
	<path class="st0" d="M69.1,179.3h-6.4v-36.1h6.4l15,24v-24h6.4v36.1h-6.4l-15-24V179.3z"/>
	<path class="st0" d="M104,179.3h-6.4v-36.1h6.4l15,24v-24h6.4v36.1H119l-15-24V179.3z"/>
	<path class="st0" d="M153.9,143.3v6.2h-15v8.9h14.6v6.2h-14.6v8.7h15v6.2h-21.4v-36.1H153.9z"/>
	<path class="st0" d="M166.1,179.3h-6.4v-36.1h6.4l15,24v-24h6.4v36.1h-6.4l-15-24V179.3z"/>
	<path class="st0" d="M201,143.3v29.9h15v6.2h-21.4v-36.1H201z"/>
	<path class="st0" d="M230.5,142.7h7.5l12.6,36.6h-6.8l-2.6-7.5h-14l-2.6,7.5h-6.8L230.5,142.7z M239.1,165.7l-4.9-14.2l-4.9,14.2
		H239.1z"/>
	<path class="st0" d="M261.4,179.3H255v-36.1h6.4l15,24v-24h6.4v36.1h-6.4l-15-24V179.3z"/>
	<path class="st0" d="M289.9,143.3h12c5.9,0,10.7,2,14,5.3c3.3,3.3,5.2,7.8,5.2,12.7c0,4.5-1.5,9-4.6,12.4
		c-3.1,3.4-7.8,5.7-14.3,5.7h-12.3V143.3z M296.3,173.2h4.8c5.1,0,8.4-1.7,10.5-4c2.1-2.3,2.8-5.3,2.8-7.9c0-3-1.2-6-3.4-8.2
		c-2.3-2.2-5.7-3.7-10.3-3.7h-4.3V173.2z"/>
	<path class="st0" d="M343.8,149.3c-1.7-0.4-4.2-0.6-6.6-0.6c-2.1,0-3.9,0.2-5,0.7c-1.2,0.5-1.8,1.3-1.8,2.6c0,1.3,0.8,2.4,2,3.3
		c1.2,0.9,2.8,1.8,4.4,2.4c0.8,0.4,1.6,0.7,2.3,1c1.5,0.6,3,1.2,4.6,2.4c1.7,1.2,3,2.8,3.7,4.7c0.4,1,0.5,2,0.5,3.2
		c0,3.7-2.1,6.4-5,8.2c-3,1.8-6.8,2.7-10.3,2.7c-2.8,0-5.6-0.5-8-1.6v-6l0.1,0c1,0.4,2.4,0.8,3.9,1.1c1.5,0.3,3.1,0.5,4.7,0.5
		c2.5,0,4.5-0.5,6-1.3c1.4-0.8,2.2-2,2.2-3.3c0-1.3-0.8-2.4-2-3.4c-1.2-0.9-2.8-1.7-4.3-2.4c-0.8-0.3-1.6-0.6-2.4-0.9
		c-1.5-0.6-2.9-1.2-4.6-2.3c-1.6-1.2-3-2.7-3.7-4.6c-0.4-1-0.6-2.1-0.6-3.3c0-3.5,1.8-5.9,4.4-7.4c2.6-1.5,6-2.2,9.3-2.2
		c2.3,0,4.5,0.3,6.5,0.8L343.8,149.3z"/>
	<path class="st0" d="M18.6,193.7H28c3.8,0,7.2,0.4,9.7,1.8c2.5,1.4,4,3.9,4,7.9c0,3.6-1.2,5.9-3.2,7.4c3.7,1.5,5.5,4.1,5.5,8.6
		c0,3.2-0.9,5.4-2.5,7c-1.6,1.6-3.9,2.4-6.5,2.9c-2.7,0.5-5.8,0.6-9,0.6h-7.4V193.7z M25,208.1h0.4c3.2,0,5.6-0.1,7.2-0.6
		c1.6-0.6,2.4-1.7,2.4-3.8c0-2.2-0.8-3.3-2.5-3.9c-1.6-0.6-3.9-0.6-7-0.6H25V208.1z M25,224.3h1.8c3.5,0,6.2-0.2,7.9-0.9
		c1.7-0.7,2.6-1.9,2.6-4c0-2.2-0.8-3.4-2.5-4.2c-1.6-0.8-3.9-1-7-1H25V224.3z"/>
	<path class="st0" d="M70.6,193.7v6.2h-15v8.9h14.6v6.2H55.6v8.7h15v6.2H49.2v-36.1H70.6z"/>
	<path class="st0" d="M93.9,199.8c-1.7-0.4-4.2-0.6-6.6-0.6c-2.1,0-3.9,0.2-5,0.7c-1.2,0.5-1.8,1.3-1.8,2.6c0,1.3,0.8,2.4,2,3.3
		c1.2,0.9,2.8,1.8,4.4,2.4c0.8,0.4,1.6,0.7,2.3,1c1.5,0.6,3,1.2,4.6,2.4c1.7,1.2,3,2.8,3.7,4.7c0.4,1,0.5,2,0.5,3.2
		c0,3.7-2.1,6.4-5,8.2c-3,1.8-6.8,2.7-10.3,2.7c-2.8,0-5.6-0.5-8-1.6v-6l0.1,0c1,0.4,2.4,0.8,3.9,1.1c1.5,0.3,3.1,0.5,4.7,0.5
		c2.5,0,4.5-0.5,6-1.3c1.4-0.8,2.2-2,2.2-3.3c0-1.3-0.8-2.4-2-3.4c-1.2-0.9-2.8-1.7-4.4-2.4c-0.8-0.3-1.6-0.6-2.4-0.9
		c-1.5-0.6-2.9-1.2-4.6-2.3c-1.6-1.2-3-2.7-3.7-4.6c-0.4-1-0.6-2.1-0.6-3.3c0-3.5,1.8-5.9,4.3-7.4c2.6-1.5,6-2.2,9.3-2.2
		c2.3,0,4.5,0.3,6.5,0.8L93.9,199.8z"/>
	<path class="st0" d="M126.9,193.7v6.2H116v29.9h-6.4v-29.9H98.6v-6.2H126.9z"/>
	<path class="st0" d="M137.1,193.7V214c0,4.2,0.8,6.7,2.3,8.2c1.5,1.5,3.6,1.9,6.2,1.9c2.6,0,4.7-0.5,6.2-1.9c1.5-1.5,2.3-4,2.3-8.2
		v-20.3h6.4v22.1c0,4.2-1,7.3-2.5,9.4c-1.6,2.2-3.6,3.4-5.8,4.1c-2.2,0.7-4.4,0.9-6.3,0.9h-0.6c-1.9,0-4.1-0.2-6.2-0.9
		c-2.2-0.7-4.2-2-5.8-4.1c-1.6-2.2-2.5-5.2-2.5-9.4v-22.1H137.1z"/>
	<path class="st0" d="M172.3,193.7V214c0,4.2,0.9,6.7,2.3,8.2c1.4,1.5,3.6,1.9,6.2,1.9c2.6,0,4.7-0.5,6.2-1.9c1.4-1.5,2.3-4,2.3-8.2
		v-20.3h6.4v22.1c0,4.2-1,7.3-2.5,9.4c-1.6,2.2-3.6,3.4-5.8,4.1c-2.2,0.7-4.4,0.9-6.3,0.9h-0.6c-1.9,0-4.1-0.2-6.2-0.9
		c-2.2-0.7-4.2-2-5.8-4.1c-1.6-2.2-2.5-5.2-2.5-9.4v-22.1H172.3z"/>
	<path class="st0" d="M201.9,193.7h10.3c2.4,0,4.9,0.3,7.4,1.1c2.4,0.8,4.6,2,6.2,4c1.6,1.9,2.6,4.5,2.6,8c0,2.5-0.6,4.6-1.7,6.2
		c-1.1,1.7-2.6,3-4.5,3.9c0.7,1.6,2.2,3.6,3.9,5.2c1.7,1.7,3.6,3.1,5.2,3.7v0.3l-2.8,4.3c-1.8,0-3.6-0.8-5.3-2
		c-1.7-1.2-3.3-2.8-4.5-4.6c-1.3-1.7-2.2-3.5-2.7-5c-1.2,0.2-2.4,0.2-3.6,0.2h-3.9v10.8h-6.4V193.7z M208.3,212.8h4
		c3.7,0,6.1-0.6,7.6-1.7c1.5-1.1,2-2.7,2-4.6c0-2-0.5-3.6-2-4.8c-1.5-1.2-3.9-1.9-7.6-1.9h-4V212.8z"/>
</g>
<polygon class="st0" points="557.1,134.4 550,134.4 538,99.5 544.4,99.5 553.5,125.9 562.7,99.5 569.1,99.5 "/>
<polygon class="st0" points="579.4,96.1 579.4,133.8 573.3,133.8 573.3,96.6 578.6,96.1 "/>
<path class="st0" d="M606.6,134.4c-2,0-4.1-0.6-6.1-2.9c-1.1,0.8-2,1.5-3.1,2c-1.1,0.5-2.4,0.8-4.2,0.8c-1.9,0-4.1-0.4-5.8-1.6
	c-1.8-1.2-3.1-3.4-3.1-7c0-2.4,0.6-4.3,2-5.6c1.4-1.3,3.8-2,7.4-2c1.5,0,3.2,0,5.6,0.2v-1.4c0-1.9-0.6-3.2-1.6-4
	c-1-0.8-2.3-1.1-3.7-1.1c-2.3,0-5,0.8-7.2,1.8l-1.5-5.3c2.8-1.4,6.5-2.3,9.9-2.3c2.7,0,5.2,0.6,7.1,2c1.9,1.4,3,3.6,3,6.9v10.1
	c0,1.3,0.4,2.2,1.1,2.8c0.7,0.6,1.7,1,2.9,1.2L606.6,134.4z M599.3,122.9c-2.8,0-5.1,0-6.6,0.3c-1.5,0.4-2.4,1.1-2.4,2.7
	c0,2.2,1.6,3.4,3.8,3.4c0.8,0,2-0.2,3.1-0.8c1.1-0.7,2-1.9,2-4V122.9z"/>
<path class="st0" d="M633.5,134.4c-2,0-4.1-0.6-6.1-2.9c-1.1,0.8-2,1.5-3.1,2c-1.2,0.5-2.4,0.8-4.2,0.8c-1.9,0-4.1-0.4-5.9-1.6
	c-1.8-1.2-3.1-3.4-3.1-7c0-2.4,0.6-4.3,2-5.6c1.5-1.3,3.8-2,7.5-2c1.5,0,3.2,0,5.5,0.2v-1.4c0-1.9-0.6-3.2-1.6-4
	c-1-0.8-2.3-1.1-3.7-1.1c-2.3,0-5,0.8-7.2,1.8l-1.4-5.3c2.8-1.4,6.5-2.3,9.9-2.3c2.7,0,5.2,0.6,7.1,2c1.8,1.4,3,3.6,3,6.9v10.1
	c0,1.3,0.4,2.2,1.2,2.8c0.7,0.6,1.7,1,2.9,1.2L633.5,134.4z M626.2,122.9c-2.8,0-5,0-6.5,0.3c-1.5,0.4-2.4,1.1-2.4,2.7
	c0,2.2,1.6,3.4,3.8,3.4c0.8,0,2-0.2,3.1-0.8c1.1-0.7,2-1.9,2-4V122.9z"/>
<path class="st0" d="M645,106.8l0.5,1.9c2.2-1.6,4.7-2.4,7.1-2.4c2.6,0,5.1,1,6.6,3.2c2.4-2.1,5.4-3.2,8.2-3.2c2.3,0,4.4,0.7,6,2.3
	c1.5,1.6,2.5,4,2.5,7.3v17.9H670v-16.3c0-1.9-0.5-3.3-1.4-4.2c-0.9-0.8-2-1.2-3.2-1.2c-1.6,0-3.1,0.5-4.5,1.4
	c0.1,0.7,0.2,1.4,0.2,2.2v18.1H655v-16.3c0-1.9-0.5-3.3-1.3-4.2c-0.8-0.8-1.9-1.2-3.1-1.2c-1.5,0-3.1,0.6-4.5,1.5v20.2h-6.1v-27H645
	z"/>
<path class="st0" d="M680.3,126.6c0.8,0.4,1.8,0.9,3,1.3c1.2,0.4,2.4,0.7,3.7,0.7c1.1,0,2.2-0.2,3.1-0.7c0.8-0.5,1.4-1.3,1.4-2.5
	c0-1.7-1.3-2.5-3-3.2c-0.9-0.3-1.8-0.6-2.7-0.9c-2-0.6-3.7-1.6-4.9-3.4c-0.6-0.9-0.8-2.1-0.8-3.6c0-2.8,1.1-4.9,2.9-6.2
	c1.7-1.3,4-1.8,6.5-1.8c2.1,0,4.4,0.4,6,1v5.5l-0.3,0.2c-1.5-0.7-2.9-1.1-4.7-1.1c-1.1,0-2.2,0.2-3,0.6c-0.8,0.4-1.3,1-1.3,1.8
	c0,1.3,1.2,1.9,2.9,2.5c0.8,0.3,1.7,0.6,2.7,0.9c2,0.7,3.7,1.8,4.8,3.7c0.6,1,0.8,2.3,0.8,3.8c0,3.1-1.3,5.4-3.2,6.9
	c-1.9,1.5-4.5,2.2-7.2,2.2c-2.7,0-5.1-0.7-7-1.8v-5.7L680.3,126.6z"/>
<path class="st0" d="M722,126.8v5.9c-2.4,1.2-5.4,1.6-7.7,1.6c-3.8,0-7.2-1.2-9.8-3.5c-2.5-2.3-4.1-5.8-4.1-10.6
	c0-4.6,1.5-8.1,3.8-10.4c2.3-2.4,5.3-3.6,8.4-3.6c0.9,0,2.4,0.1,4,0.6c1.6,0.6,3.3,1.6,4.6,3.4c1.3,1.8,2.2,4.5,2.2,8.2v4.1H707
	c0.5,2.2,1.6,3.7,3.1,4.6c1.4,0.9,3.2,1.3,4.9,1.3c2.3,0,4.7-0.7,6.8-1.8L722,126.8z M717.8,117.8c-0.1-2-0.8-3.4-1.8-4.3
	c-1-0.9-2.1-1.3-3.3-1.3c-1.2,0-2.5,0.4-3.6,1.3c-1.1,0.9-1.9,2.4-2.3,4.3H717.8z"/>
<path class="st0" d="M541.2,169.8c0-4,1.4-7.6,3.7-10.1c2.4-2.6,5.7-4.1,9.6-4.1c4,0,7.3,1.5,9.5,4.1c2.3,2.5,3.6,6,3.6,9.9
	c0,4-1.4,7.5-3.7,10c-2.4,2.5-5.7,4.1-9.7,4.1c-4,0-7.3-1.5-9.5-4C542.5,177.2,541.2,173.7,541.2,169.8 M547.5,169.6
	c0,2.3,0.6,4.3,1.8,5.8c1.2,1.5,3,2.5,5.4,2.5c2.3,0,4-0.9,5.2-2.3c1.1-1.4,1.7-3.4,1.7-5.7c0-2.3-0.5-4.4-1.7-5.9
	c-1.2-1.5-2.9-2.4-5.3-2.4c-2.3,0-4.1,0.9-5.3,2.3C548.1,165.3,547.5,167.3,547.5,169.6"/>
<polygon class="st0" points="569.1,156.2 575.7,156.2 581.8,173.9 581.9,173.9 588,156.2 594.6,156.2 585.3,183.2 578.4,183.2 "/>
<path class="st0" d="M617.5,176.2v5.9c-2.4,1.2-5.4,1.6-7.7,1.6c-3.8,0-7.2-1.2-9.8-3.5c-2.5-2.3-4.2-5.9-4.2-10.6
	c0-4.6,1.5-8,3.8-10.4c2.3-2.4,5.3-3.6,8.4-3.6c0.9,0,2.4,0.1,4,0.7c1.6,0.5,3.3,1.6,4.6,3.4c1.3,1.8,2.2,4.5,2.2,8.2v4.1h-16.4
	c0.5,2.2,1.6,3.7,3.1,4.6c1.4,0.9,3.2,1.3,4.9,1.3c2.3,0,4.7-0.7,6.8-1.8L617.5,176.2z M613.3,167.2c-0.1-2-0.8-3.4-1.8-4.3
	c-1-0.9-2.1-1.3-3.3-1.3c-1.3,0-2.5,0.4-3.6,1.3c-1.1,0.9-1.9,2.4-2.3,4.3H613.3z"/>
<path class="st0" d="M639.9,162.9c-1.6-1-3-1.4-4.6-1.4c-2,0-3.8,0.7-5.4,2v19.7h-6.1v-27.1h5.2l0.6,2.2c1.9-1.6,4.2-2.7,6.9-2.7
	c0.7,0,1.8,0,2.7,0.2c1,0.2,2,0.5,2.7,0.8L639.9,162.9z"/>
<path class="st0" d="M650.6,145.5h1v12.6c2.4-1.6,5.4-2.4,8.3-2.4c2.6,0,5.1,0.7,6.9,2.3c1.8,1.5,3,3.9,3,7.4v18h-6.1v-16.2
	c0-2-0.7-3.4-1.8-4.3c-1.1-0.9-2.6-1.3-4.3-1.3c-2.1,0-4.2,0.6-5.9,1.7v20.1h-6.1V146L650.6,145.5z"/>
<path class="st0" d="M696,176.2v5.9c-2.4,1.2-5.4,1.6-7.7,1.6c-3.7,0-7.2-1.2-9.8-3.5c-2.5-2.3-4.2-5.9-4.2-10.6
	c0-4.6,1.5-8,3.8-10.4c2.3-2.4,5.3-3.6,8.4-3.6c0.8,0,2.4,0.1,4,0.7c1.6,0.5,3.3,1.6,4.6,3.4c1.3,1.8,2.2,4.5,2.2,8.2v4.1h-16.4
	c0.5,2.2,1.6,3.7,3.1,4.6c1.4,0.9,3.2,1.3,4.9,1.3c2.3,0,4.7-0.7,6.8-1.8L696,176.2z M691.8,167.2c-0.1-2-0.8-3.4-1.8-4.3
	c-0.9-0.9-2.1-1.3-3.3-1.3c-1.2,0-2.5,0.4-3.5,1.3c-1.1,0.9-1.9,2.4-2.3,4.3H691.8z"/>
<path class="st0" d="M701.6,149.1c0-1,0.4-1.9,1.1-2.5c0.6-0.6,1.5-1,2.5-1c1,0,1.9,0.4,2.6,1c0.6,0.7,1,1.5,1,2.5
	c0,1-0.4,1.9-1,2.5c-0.7,0.7-1.6,1-2.6,1c-1,0-1.9-0.4-2.5-1C702,151,701.6,150.1,701.6,149.1 M708.2,183.2h-6.1v-27.1h6.1V183.2z"
	/>
<path class="st0" d="M733.1,183.2l-1.1-2c-2.1,1.6-4.3,2.5-7.3,2.5c-3.9,0-6.8-1.5-8.7-4c-1.9-2.4-2.8-5.6-2.8-9
	c0-5.1,1.5-8.9,4.1-11.4c2.5-2.5,6.2-3.7,10.3-3.7c1.2,0,2.5,0.1,4,0.3V146l5.1-0.5h0.9v37.7H733.1z M731.6,161.9
	c-1.6-0.4-3.1-0.6-4.3-0.6c-2.3,0-4.3,0.7-5.6,2.1c-1.4,1.4-2.1,3.5-2.1,6.3c0,2.1,0.6,4.1,1.7,5.6c1.1,1.5,2.7,2.6,4.9,2.6
	c1.8,0,3.9-0.7,5.6-1.7V161.9z"/>
<polygon class="st0" points="535.7,228.5 479.8,64.5 480.6,64.2 536.5,228.3 "/>
<path class="st0" d="M481,146c-4-3.1-5.9,0-8.4-0.2c-2.2-0.2-4.2-3.6-5.8-2.8c-3.2,1.6,1.3,7.3,3.2,8.5c1.7,1,3.9,2,4.4,2.2
	c2.5,1.2,3.5,3,3.9,5.8c0.1,0.7,0,2.1-0.2,2.8c-1.2,5-9.8,9.4-14.7,6c-2.3-1.6-4.5-3.7-5.2-7.3c-1.3-6.5-6-11.2-7.5-17.6
	c-0.9-3.9-1.6-7.9-2.6-11.8c-1-4-2.1-8-2.9-11.6c-0.8-3.4-2.4-8.4-3.5-11.5c-4.7-12.4-6.9-11.5-6.9-11.5s1.7,3.4,8,33.7
	c0.2,1.2,2.5,14.6,4.2,19c0.6,1.6,1.6,4.9,2.3,6.4c2,4.3,7.3,10.9,7.6,16.8c0.2,3.4,0.6,6.3,0.7,8.9c0.1,0.8,0.4,3.9,0.9,5.2
	c1.3,3.6,11.7,15.3,22.7,15.3v-8.8c-11,0-21.3-6.1-21.5-6.8c-0.1-0.3,0.6-4.5,1.3-6.3c1.4-3.6,4.1-6.9,8.9-7.2
	c5.3-0.4,8.5,1.2,11.3,1.2L481,146z"/>
<path class="st0" d="M433.5,113.9c-0.4,6.6-10.7,15.7-13.9,21.5c-1.6,2.9-3.5,7.8-4,10.6c-1.4,7.9,0.4,12.8,2.3,17.4
	c3.4,8.1-0.5,11.1,2.2,9.5c3.3-2.7,2.8-8.9,2.5-12.8c-0.2-3.2-0.4-6.8,0.1-10.5c0.9-7.1,5.2-14.6,8.8-19.9
	C435.9,123.4,434.3,116.9,433.5,113.9"/>
<path class="st0" d="M435.5,132.7c0,0,1.1,5.2-3.5,18.7c-12.1,35.3,11,38.6,17.6,46.9c0,0,2.5-3.6-7.9-15.1
	c-3.8-4.2-7.3-13.4-4.3-26.7C441.7,137.5,435.5,132.7,435.5,132.7"/>
<path class="st0" d="M412.6,109.6c-0.6-2.1-0.7-3.9-0.6-5.6c0.6-8.3,8.1-11.7,10-12.9c0,0,3.4-2.3,3.8-4.7c0,0,3.5,8.7-4.5,13.7
	C417.3,102.7,414.6,105.7,412.6,109.6"/>
<path class="st0" d="M431.6,101.6c0.4,0.8,3.6,5.4-9.2,16c-12.7,10.5-8.8,18.1-8.8,18.1s-13.6-7.6,2.1-20.7
	c15.7-13.1,12.5-15.7,12.5-15.7S430.4,99.1,431.6,101.6"/>
<path class="st0" d="M448.2,105.6c2.2,0.3,3.6,7.2,8.7,8.7c3.8,1.1,7.7,0.5,8.6,2.8c-1.7,0.9-0.3,4,1.4,3.4
	C468.4,116.5,469.1,101,448.2,105.6 M455.1,108.8c0.2-0.5,0.5-0.1,1-0.4c0.6-0.6,1.2-1.5,2.2-1.8c0.7-0.2,1.7-0.1,2.3,0.1
	c0.4,0.1,0.2,1.2-0.2,1.5c-0.7,0.5-2.7-0.3-2.7,1.2c0.1,2.5,3.4-0.1,5.1,0C463.7,115.4,453.6,113.8,455.1,108.8"/>
</svg>
