<?xml version="1.0" encoding="utf-8"?>
<!-- Generator: Adobe Illustrator 22.1.0, SVG Export Plug-In . SVG Version: 6.00 Build 0)  -->
<svg version="1.1" id="Layer_1" xmlns="http://www.w3.org/2000/svg" xmlns:xlink="http://www.w3.org/1999/xlink" x="0px" y="0px"
	 viewBox="0 0 92.5 67.8" style="enable-background:new 0 0 92.5 67.8;" xml:space="preserve">
<g>
	<path d="M89.5,12.5c-1.7,0-3,1.3-3,3v13c0,5.9-4.8,10.7-10.7,10.7S65,34.4,65,28.5v-13c0-1.7-1.3-3-3-3s-3,1.3-3,3v0.4
		c-2.9-2.5-6.6-4-10.8-4c-7.3,0-13.4,4.7-15.7,11.2c-2.2-6.6-8.5-11.4-15.8-11.4C7.5,11.8,0,19.3,0,28.5v36.3c0,1.7,1.3,3,3,3
		s3-1.3,3-3V41.3c2.9,2.4,6.6,3.9,10.7,3.9c7.4,0,13.6-4.8,15.8-11.4c2.2,6.5,8.4,11.2,15.7,11.2c5.6,0,10.6-2.8,13.6-7.2
		c3,4.4,8.1,7.4,13.9,7.4c9.2,0,16.7-7.5,16.7-16.7v-13C92.5,13.8,91.1,12.5,89.5,12.5z M16.7,39.2C10.8,39.2,6,34.4,6,28.5
		s4.8-10.7,10.7-10.7s10.7,4.8,10.7,10.7S22.7,39.2,16.7,39.2z M48.2,39.1c-5.8,0-10.6-4.7-10.6-10.6s4.7-10.6,10.6-10.6
		s10.6,4.7,10.6,10.6S54.1,39.1,48.2,39.1z"/>
	<path d="M40.4,5.3l0.3,0.2c0.2,0.1,0.3,0.2,0.5,0.3c0.3,0.2,0.7,0.4,1,0.5c0.7,0.3,1.4,0.6,2.1,0.8c1.4,0.5,2.8,0.8,4.2,1
		c1.4,0.1,2.8,0.2,4.1,0c1.3-0.1,2.7-0.4,3.9-0.7c-1.3-0.2-2.6-0.4-3.8-0.8c-1.2-0.3-2.3-0.9-3.4-1.4c-1.1-0.6-2-1.3-2.9-2
		c-0.4-0.4-0.8-0.8-1.2-1.2c-0.2-0.2-0.4-0.4-0.5-0.6c-0.1-0.1-0.2-0.2-0.2-0.3c0,0-0.1-0.1-0.1-0.1c0,0-0.1-0.1,0-0.1
		c-1.1-1.2-3-1.2-4.2-0.1s-1.2,3-0.1,4.2C40.2,5.2,40.3,5.2,40.4,5.3z"/>
</g>
</svg>
