<svg id="Laag_1" data-name="Laag 1" xmlns="http://www.w3.org/2000/svg" viewBox="0 0 149.02 35.35"><defs><style>.cls-1{fill:#176e8a;}</style></defs><title>logo_nl</title><path class="cls-1" d="M110.19,14.16h-1.54l-2.58-7.5h1.39l2,5.69,2-5.69h1.39Z" transform="translate(0 0.93)"/><path class="cls-1" d="M115,5.93V14h-1.31V6l1.15-.11Z" transform="translate(0 0.93)"/><path class="cls-1" d="M120.84,14.16a1.68,1.68,0,0,1-1.31-.61,3.33,3.33,0,0,1-.67.44,2.11,2.11,0,0,1-.9.18,2.16,2.16,0,0,1-1.25-.35A1.7,1.7,0,0,1,116,12.3a1.5,1.5,0,0,1,.44-1.2,2.4,2.4,0,0,1,1.6-.42c.31,0,.68,0,1.2,0v-.29a1,1,0,0,0-.34-.85,1.24,1.24,0,0,0-.8-.24,3.94,3.94,0,0,0-1.55.4l-.31-1.14a5.12,5.12,0,0,1,2.12-.5,2.46,2.46,0,0,1,1.52.43,1.74,1.74,0,0,1,.65,1.49V12.2a.74.74,0,0,0,.25.6,1.28,1.28,0,0,0,.62.27Zm-1.56-2.47a7.26,7.26,0,0,0-1.41.07.56.56,0,0,0-.51.59.73.73,0,0,0,.82.74,1.29,1.29,0,0,0,.67-.18.94.94,0,0,0,.43-.86Z" transform="translate(0 0.93)"/><path class="cls-1" d="M126.61,14.16a1.66,1.66,0,0,1-1.31-.61,3.61,3.61,0,0,1-.67.44,2.15,2.15,0,0,1-.9.18,2.19,2.19,0,0,1-1.26-.35,1.72,1.72,0,0,1-.66-1.51,1.51,1.51,0,0,1,.44-1.2,2.42,2.42,0,0,1,1.61-.42c.32,0,.68,0,1.19,0v-.29a1,1,0,0,0-.34-.85,1.25,1.25,0,0,0-.8-.24,4,4,0,0,0-1.56.4l-.3-1.14a5.1,5.1,0,0,1,2.12-.5,2.48,2.48,0,0,1,1.52.43,1.75,1.75,0,0,1,.65,1.49V12.2a.71.71,0,0,0,.25.6,1.26,1.26,0,0,0,.61.27ZM125,11.69a7.18,7.18,0,0,0-1.41.07.56.56,0,0,0-.51.59.73.73,0,0,0,.81.74,1.33,1.33,0,0,0,.68-.18A.93.93,0,0,0,125,12Z" transform="translate(0 0.93)"/><path class="cls-1" d="M129.1,8.23l.12.41a2.67,2.67,0,0,1,1.54-.52,1.68,1.68,0,0,1,1.42.68,2.77,2.77,0,0,1,1.77-.68,1.77,1.77,0,0,1,1.29.49,2.16,2.16,0,0,1,.54,1.57V14h-1.31v-3.5a1.25,1.25,0,0,0-.29-.9,1,1,0,0,0-.7-.26,1.86,1.86,0,0,0-1,.3,3.22,3.22,0,0,1,0,.47V14h-1.31v-3.5a1.27,1.27,0,0,0-.29-.9.91.91,0,0,0-.67-.26,1.87,1.87,0,0,0-1,.33V14H128V8.23Z" transform="translate(0 0.93)"/><path class="cls-1" d="M136.69,12.5a3.28,3.28,0,0,0,.64.27,2.43,2.43,0,0,0,.8.14,1.39,1.39,0,0,0,.67-.15.6.6,0,0,0,.3-.53c0-.37-.27-.54-.63-.68l-.59-.2a1.73,1.73,0,0,1-1-.73,1.39,1.39,0,0,1-.18-.77,1.59,1.59,0,0,1,.61-1.33,2.31,2.31,0,0,1,1.4-.4,3.9,3.9,0,0,1,1.29.22V9.52l-.07,0a2.19,2.19,0,0,0-1-.24,1.54,1.54,0,0,0-.64.12.45.45,0,0,0-.28.39c0,.28.27.41.63.55l.58.2a1.84,1.84,0,0,1,1,.81,1.64,1.64,0,0,1,.18.82,1.77,1.77,0,0,1-.68,1.48,2.55,2.55,0,0,1-1.55.47,2.81,2.81,0,0,1-1.5-.4V12.53Z" transform="translate(0 0.93)"/><path class="cls-1" d="M145.65,12.54v1.27a4,4,0,0,1-1.65.35,3.08,3.08,0,0,1-2.1-.75,3,3,0,0,1-.89-2.27,3.16,3.16,0,0,1,.81-2.25,2.48,2.48,0,0,1,1.8-.77,2.62,2.62,0,0,1,.86.14,2.07,2.07,0,0,1,1,.73,3,3,0,0,1,.47,1.76v.88h-3.53a1.5,1.5,0,0,0,.66,1,1.94,1.94,0,0,0,1.06.29,3.13,3.13,0,0,0,1.46-.39Zm-.9-2a1.38,1.38,0,0,0-.38-.93,1,1,0,0,0-.72-.28,1.15,1.15,0,0,0-.77.29,1.64,1.64,0,0,0-.49.92Z" transform="translate(0 0.93)"/><path class="cls-1" d="M106.77,21.79a3.12,3.12,0,0,1,.81-2.17,2.77,2.77,0,0,1,2.07-.87,2.68,2.68,0,0,1,2.05.87,3.14,3.14,0,0,1,.78,2.13,3.1,3.1,0,0,1-.8,2.16,2.77,2.77,0,0,1-2.08.88,2.72,2.72,0,0,1-2.05-.87A3.09,3.09,0,0,1,106.77,21.79Zm1.34-.05A2,2,0,0,0,108.5,23a1.41,1.41,0,0,0,1.16.53,1.36,1.36,0,0,0,1.12-.5,2,2,0,0,0,.36-1.23,2.09,2.09,0,0,0-.36-1.27,1.37,1.37,0,0,0-1.15-.53,1.39,1.39,0,0,0-1.13.5A1.93,1.93,0,0,0,108.11,21.73Z" transform="translate(0 0.93)"/><path class="cls-1" d="M112.76,18.85h1.42l1.31,3.8h0l1.31-3.8h1.42l-2,5.82h-1.49Z" transform="translate(0 0.93)"/><path class="cls-1" d="M123.18,23.17v1.27a4,4,0,0,1-1.65.35,3.09,3.09,0,0,1-2.1-.75,3,3,0,0,1-.89-2.27,3.15,3.15,0,0,1,.82-2.25,2.49,2.49,0,0,1,1.8-.77,2.74,2.74,0,0,1,.86.14,2.07,2.07,0,0,1,1,.73,3,3,0,0,1,.47,1.77v.87H120a1.51,1.51,0,0,0,.66,1,1.94,1.94,0,0,0,1.06.29,3.19,3.19,0,0,0,1.46-.38Zm-.9-1.95a1.4,1.4,0,0,0-.38-.93,1,1,0,0,0-.72-.28,1.15,1.15,0,0,0-.76.29,1.57,1.57,0,0,0-.49.93Z" transform="translate(0 0.93)"/><path class="cls-1" d="M128,20.3a1.83,1.83,0,0,0-1-.29,1.93,1.93,0,0,0-1.17.42v4.24h-1.31V18.85h1.11l.13.48a2.26,2.26,0,0,1,1.48-.59,3.16,3.16,0,0,1,.59,0,2.28,2.28,0,0,1,.57.18Z" transform="translate(0 0.93)"/><path class="cls-1" d="M130.29,16.56h.21v2.71a3.3,3.3,0,0,1,1.78-.52,2.25,2.25,0,0,1,1.48.48,2,2,0,0,1,.64,1.58v3.86h-1.31V21.2a1.11,1.11,0,0,0-.4-.92,1.47,1.47,0,0,0-.92-.27,2.44,2.44,0,0,0-1.26.36v4.31h-1.31v-8Z" transform="translate(0 0.93)"/><path class="cls-1" d="M140,23.17v1.27a4,4,0,0,1-1.66.35,3.09,3.09,0,0,1-2.1-.75,3,3,0,0,1-.9-2.27,3.16,3.16,0,0,1,.82-2.25,2.5,2.5,0,0,1,1.8-.77,2.76,2.76,0,0,1,.86.14,2.06,2.06,0,0,1,1,.73,3,3,0,0,1,.47,1.77v.87h-3.53a1.54,1.54,0,0,0,.67,1,1.94,1.94,0,0,0,1.06.29,3.19,3.19,0,0,0,1.46-.38Zm-.9-1.95a1.39,1.39,0,0,0-.38-.93,1,1,0,0,0-.71-.28,1.15,1.15,0,0,0-.76.29,1.58,1.58,0,0,0-.49.93Z" transform="translate(0 0.93)"/><path class="cls-1" d="M141.26,17.33a.77.77,0,0,1,.77-.77.81.81,0,0,1,.56.22.8.8,0,0,1,.22.55.77.77,0,0,1-.22.54.78.78,0,0,1-.56.22.74.74,0,0,1-.54-.22A.73.73,0,0,1,141.26,17.33Zm1.43,1.53v5.82h-1.3V18.85Z" transform="translate(0 0.93)"/><path class="cls-1" d="M148,24.68l-.24-.44a2.46,2.46,0,0,1-1.56.54,2.27,2.27,0,0,1-1.87-.85,3.1,3.1,0,0,1-.61-1.93,3.31,3.31,0,0,1,.88-2.45,3.08,3.08,0,0,1,2.22-.8,7.69,7.69,0,0,1,.86.05V16.67l1.11-.12h.2v8.12Zm-.32-4.59a3.81,3.81,0,0,0-.93-.12,1.64,1.64,0,0,0-1.21.45,1.91,1.91,0,0,0-.46,1.36,2,2,0,0,0,.36,1.2,1.23,1.23,0,0,0,1,.55,2.4,2.4,0,0,0,1.2-.36Z" transform="translate(0 0.93)"/><polygon class="cls-1" points="105.58 35.35 93.57 0.06 93.74 0 105.75 35.29 105.58 35.35"/><path class="cls-1" d="M93.82,16.67c-.87-.66-1.27,0-1.81,0s-.89-.78-1.25-.6c-.68.35.27,1.57.69,1.82a10,10,0,0,0,.94.48,1.37,1.37,0,0,1,.83,1.25,2.15,2.15,0,0,1,0,.6c-.25,1.06-2.1,2-3.17,1.3a2.43,2.43,0,0,1-1.12-1.58c-.29-1.39-1.29-2.42-1.61-3.78-.2-.83-.34-1.7-.56-2.53s-.45-1.72-.63-2.5a23.07,23.07,0,0,0-.76-2.47c-1-2.66-1.48-2.46-1.48-2.46s.37.74,1.72,7.25a36.79,36.79,0,0,0,.9,4.08c.12.34.35,1.06.49,1.38.43.93,1.56,2.35,1.64,3.62,0,.74.13,1.35.14,1.91a6.51,6.51,0,0,0,.19,1.12c.27.78,2.51,3.29,4.88,3.29V26.9a8.65,8.65,0,0,1-4.63-1.46,5.31,5.31,0,0,1,.29-1.36,2.21,2.21,0,0,1,1.91-1.55,13.67,13.67,0,0,1,2.43.25Z" transform="translate(0 0.93)"/><path class="cls-1" d="M83.6,9.77c-.09,1.43-2.29,3.37-3,4.62a9.26,9.26,0,0,0-.86,2.28,6.1,6.1,0,0,0,.5,3.75c.72,1.74-.1,2.39.47,2,.71-.58.6-1.92.54-2.76a12.26,12.26,0,0,1,0-2.26,10.74,10.74,0,0,1,1.9-4.29,3.91,3.91,0,0,0,.42-3.39" transform="translate(0 0.93)"/><path class="cls-1" d="M84,13.82s.23,1.13-.76,4c-2.6,7.59,2.37,8.31,3.79,10.09,0,0,.54-.77-1.71-3.25-.83-.9-1.56-2.89-.92-5.74.94-4.11-.39-5.13-.39-5.13" transform="translate(0 0.93)"/><path class="cls-1" d="M79.12,8.84A3.61,3.61,0,0,1,79,7.64a3.61,3.61,0,0,1,2.14-2.78s.73-.5.82-1a2.45,2.45,0,0,1-1,3,4.92,4.92,0,0,0-1.87,2" transform="translate(0 0.93)"/><path class="cls-1" d="M83.2,7.12c.09.18.76,1.16-2,3.43s-1.88,3.88-1.88,3.88-2.93-1.62.44-4.44,2.68-3.38,2.68-3.38a.84.84,0,0,1,.75.51" transform="translate(0 0.93)"/><path class="cls-1" d="M86.77,8c.47.07.78,1.54,1.87,1.87.81.23,1.66.11,1.85.59-.37.2-.07.85.3.74C91.1,10.32,91.26,7,86.77,8Zm1.47.67c0-.11.1,0,.22-.1s.26-.33.47-.39a.84.84,0,0,1,.5,0c.09,0,0,.26,0,.32s-.59-.07-.59.26c0,.54.73,0,1.1,0C90.09,10.1,87.93,9.73,88.25,8.65Z" transform="translate(0 0.93)"/><path class="cls-1" d="M.63,0H2.46A3.44,3.44,0,0,1,4.83.9a3.13,3.13,0,0,1,1,2.31,3.17,3.17,0,0,1-.93,2.31,3.3,3.3,0,0,1-2.34.91H.63Zm.76,5.73H2.53A2.54,2.54,0,0,0,4.38,5,2.43,2.43,0,0,0,5,3.29a2.56,2.56,0,0,0-.76-1.87A2.61,2.61,0,0,0,2.46.7H1.39Z" transform="translate(0 0.93)"/><path class="cls-1" d="M10.85,0V.7H7.73V2.87h3.12v.7H7.73V5.73h3.12v.7H7V0Z" transform="translate(0 0.93)"/><path class="cls-1" d="M11.88,0h1.26a4.57,4.57,0,0,1,2.38.49,1.76,1.76,0,0,1,.8,1.6,2,2,0,0,1-.45,1.36,2.38,2.38,0,0,1-1.16.71,5.75,5.75,0,0,1-1.61.21h-.46V6.44h-.76Zm.76,3.65h.61a3.63,3.63,0,0,0,1.69-.31,1.18,1.18,0,0,0,.63-1.14A1.25,1.25,0,0,0,14.89,1,3.52,3.52,0,0,0,13.24.71h-.61Z" transform="translate(0 0.93)"/><path class="cls-1" d="M18,4.94l-.52,1.5h-.78L18.95,0h1l2.22,6.44h-.78l-.52-1.5Zm2.6-.7L19.45.81,18.27,4.23Z" transform="translate(0 0.93)"/><path class="cls-1" d="M23.08,0h1.58a3.66,3.66,0,0,1,2.24.51,1.86,1.86,0,0,1,.63,1.59,2.22,2.22,0,0,1-.29,1.19,1.78,1.78,0,0,1-.8.69,3.81,3.81,0,0,0,.39.71,4.58,4.58,0,0,0,.6.74,2,2,0,0,0,.65.48l-.42.62A1.6,1.6,0,0,1,26.89,6a6,6,0,0,1-.7-.92,9.27,9.27,0,0,1-.49-.87,7.28,7.28,0,0,1-1.4.11h-.47v2.1h-.76Zm.76,3.62h.65a3.51,3.51,0,0,0,1.67-.31,1.2,1.2,0,0,0,.62-1.14A1.22,1.22,0,0,0,26.19,1,3.31,3.31,0,0,0,24.6.71h-.77Z" transform="translate(0 0.93)"/><path class="cls-1" d="M33.27,0V.7h-2V6.44h-.75V.7h-2V0Z" transform="translate(0 0.93)"/><path class="cls-1" d="M37.76,0V.7H34.64V2.87h3.12v.7H34.64V5.73h3.12v.7H33.88V0Z" transform="translate(0 0.93)"/><path class="cls-1" d="M43.14,0h1V6.44h-.78V1L41.57,4.58H41.4L39.54,1V6.44h-.73V0h1l1.65,3.24h0Z" transform="translate(0 0.93)"/><path class="cls-1" d="M49.56,0V.7H46.44V2.87h3.12v.7H46.44V5.73h3.12v.7H45.68V0Z" transform="translate(0 0.93)"/><path class="cls-1" d="M51.34,6.44h-.76V0h.79l3.11,5V0h.76V6.44h-.76l-3.14-5Z" transform="translate(0 0.93)"/><path class="cls-1" d="M60.93,0V.7h-2V6.44h-.75V.7h-2V0Z" transform="translate(0 0.93)"/><path class="cls-1" d="M4.31,9v1.1H1.63v1.59H4.24v1.1H1.63v1.55H4.31v1.1H.49V9Z" transform="translate(0 0.93)"/><path class="cls-1" d="M10,14.25v1.08a6.45,6.45,0,0,1-1.61.2,3.36,3.36,0,0,1-2.55-1A3.5,3.5,0,0,1,5,12.12a3.29,3.29,0,0,1,.86-2.28A3.41,3.41,0,0,1,8.41,8.9,6.41,6.41,0,0,1,10,9.1v1.08l0,0A5.28,5.28,0,0,0,8.57,10a2.42,2.42,0,0,0-1.83.69,2.22,2.22,0,0,0-.56,1.53,2.18,2.18,0,0,0,.56,1.52,2.39,2.39,0,0,0,1.83.69,5.31,5.31,0,0,0,1.41-.2Z" transform="translate(0 0.93)"/><path class="cls-1" d="M10.61,12.21a3.45,3.45,0,0,1,.86-2.36,3,3,0,0,1,2.24-1,2.89,2.89,0,0,1,2.21,1,3.52,3.52,0,0,1,.83,2.36,3.44,3.44,0,0,1-.86,2.36,3,3,0,0,1-2.24,1,2.89,2.89,0,0,1-2.21-1A3.5,3.5,0,0,1,10.61,12.21Zm1.14,0a2.54,2.54,0,0,0,.5,1.62,1.79,1.79,0,0,0,1.46.65,1.74,1.74,0,0,0,1.42-.62,2.42,2.42,0,0,0,.48-1.56A2.38,2.38,0,0,0,15,10.57,1.89,1.89,0,0,0,13.64,10a1.81,1.81,0,0,0-1.3.55A2.25,2.25,0,0,0,11.75,12.16Z" transform="translate(0 0.93)"/><path class="cls-1" d="M18.82,15.44H17.68V9h1.14l2.68,4.28V9h1.14v6.44H21.5l-2.68-4.28Z" transform="translate(0 0.93)"/><path class="cls-1" d="M23.57,12.21a3.45,3.45,0,0,1,.86-2.36,3,3,0,0,1,2.24-1,2.89,2.89,0,0,1,2.21,1,3.52,3.52,0,0,1,.83,2.36,3.44,3.44,0,0,1-.86,2.36,3,3,0,0,1-2.24,1,2.89,2.89,0,0,1-2.21-1A3.5,3.5,0,0,1,23.57,12.21Zm1.14,0a2.54,2.54,0,0,0,.5,1.62,1.79,1.79,0,0,0,1.46.65,1.74,1.74,0,0,0,1.42-.62,2.42,2.42,0,0,0,.48-1.56A2.38,2.38,0,0,0,28,10.57,1.89,1.89,0,0,0,26.61,10a1.81,1.81,0,0,0-1.3.55A2.25,2.25,0,0,0,24.71,12.16Z" transform="translate(0 0.93)"/><path class="cls-1" d="M35,15.44v-4l-1,2H32.83l-1-2v4H30.64V9h1.14l1.58,3L35,9h1.14v6.44Z" transform="translate(0 0.93)"/><path class="cls-1" d="M38.51,9v6.44H37.36V9Z" transform="translate(0 0.93)"/><path class="cls-1" d="M43.6,9v1.1H40.92v1.59h2.61v1.1H40.92v1.55H43.6v1.1H39.78V9Z" transform="translate(0 0.93)"/><path class="cls-1" d="M6.95,24.53H5.68l-1.25-4.4-1.25,4.4H1.91L0,18H1.21l1.32,4.53L3.82,18H5l1.29,4.53L7.65,18H8.86Z" transform="translate(0 0.93)"/><path class="cls-1" d="M13.46,18v1.1H10.78v1.59h2.61v1.1H10.78v1.55h2.68v1.1H9.64V18Z" transform="translate(0 0.93)"/><path class="cls-1" d="M19.1,18v1.1h-2v5.34H16V19.1H14V18Z" transform="translate(0 0.93)"/><path class="cls-1" d="M23.75,18v1.1H21.07v1.59h2.61v1.1H21.07v1.55h2.68v1.1H19.93V18Z" transform="translate(0 0.93)"/><path class="cls-1" d="M25.92,24.44H24.78V18h1.14l2.68,4.28V18h1.14v6.44H28.59l-2.68-4.28Z" transform="translate(0 0.93)"/><path class="cls-1" d="M34.16,18.05v1A6.11,6.11,0,0,0,33,19a2.37,2.37,0,0,0-.9.13.48.48,0,0,0-.33.46.77.77,0,0,0,.36.6,3.55,3.55,0,0,0,.79.43l.41.17a3.47,3.47,0,0,1,.83.42,1.89,1.89,0,0,1,.66.83,1.62,1.62,0,0,1,.1.57A1.69,1.69,0,0,1,34,24a3.66,3.66,0,0,1-1.85.48,3.59,3.59,0,0,1-1.44-.28V23.18h0a4.1,4.1,0,0,0,.69.2,3.9,3.9,0,0,0,.83.09,2.19,2.19,0,0,0,1.07-.24.69.69,0,0,0,.4-.59.79.79,0,0,0-.35-.6,3.45,3.45,0,0,0-.78-.42l-.42-.17a3.39,3.39,0,0,1-.82-.42,1.8,1.8,0,0,1-.67-.83,1.51,1.51,0,0,1-.11-.59,1.48,1.48,0,0,1,.78-1.32A3.31,3.31,0,0,1,33,17.9,4.54,4.54,0,0,1,34.16,18.05Z" transform="translate(0 0.93)"/><path class="cls-1" d="M40.4,23.25v1.08a6.45,6.45,0,0,1-1.61.2,3.36,3.36,0,0,1-2.55-1,3.5,3.5,0,0,1-.86-2.46,3.29,3.29,0,0,1,.86-2.28,3.41,3.41,0,0,1,2.55-.94,6.41,6.41,0,0,1,1.61.2v1.08l0,0A5.28,5.28,0,0,0,39,19a2.42,2.42,0,0,0-1.83.69,2.22,2.22,0,0,0-.56,1.53,2.18,2.18,0,0,0,.56,1.52,2.39,2.39,0,0,0,1.83.69,5.31,5.31,0,0,0,1.41-.2Z" transform="translate(0 0.93)"/><path class="cls-1" d="M42.47,18v2.69h2.68V18h1.14v6.44H45.15V21.78H42.47v2.65H41.32V18Z" transform="translate(0 0.93)"/><path class="cls-1" d="M49.32,17.9h1.34l2.25,6.53H51.7l-.46-1.33h-2.5l-.46,1.33H47.07ZM50.86,22,50,19.47,49.12,22Z" transform="translate(0 0.93)"/><path class="cls-1" d="M53.69,18h1.85a4.53,4.53,0,0,1,1.31.18,2.35,2.35,0,0,1,1.1.67,2,2,0,0,1,.46,1.38,1.86,1.86,0,0,1-.89,1.65,3.72,3.72,0,0,1-2,.5h-.7v2.07H53.69Zm1.14,3.27h.72a2.29,2.29,0,0,0,1.36-.3.89.89,0,0,0,.36-.78.91.91,0,0,0-.36-.79,2.34,2.34,0,0,0-1.36-.3h-.72Z" transform="translate(0 0.93)"/><path class="cls-1" d="M66.28,24.53l-.74-.74a2.51,2.51,0,0,1-1.83.74,2.19,2.19,0,0,1-1.46-.5,1.77,1.77,0,0,1-.58-1.38,2.11,2.11,0,0,1,1-1.81,2.17,2.17,0,0,1-.34-.57,2,2,0,0,1-.18-.82,1.49,1.49,0,0,1,1.59-1.56,2,2,0,0,1,1.14.34,1.32,1.32,0,0,1,.57,1.14,1.66,1.66,0,0,1-.36,1,2.32,2.32,0,0,1-.77.63l1.09,1.09a6.39,6.39,0,0,0,.4-1.43h0l.92.41a6,6,0,0,1-.55,1.77l.88.88ZM64.76,23l-1.36-1.36A1.56,1.56,0,0,0,63,22a1,1,0,0,0-.19.6.84.84,0,0,0,1,.85A1.32,1.32,0,0,0,64.76,23Zm-1.57-3.56a1.31,1.31,0,0,0,.39.84,1.78,1.78,0,0,0,.5-.27.72.72,0,0,0,.29-.57.47.47,0,0,0-.22-.43.83.83,0,0,0-.42-.11.49.49,0,0,0-.45.2A.59.59,0,0,0,63.19,19.46Z" transform="translate(0 0.93)"/><path class="cls-1" d="M1.63,27v6.44H.49V27Z" transform="translate(0 0.93)"/><path class="cls-1" d="M4,33.44H2.9V27H4l2.68,4.28V27H7.86v6.44H6.72L4,29.16Z" transform="translate(0 0.93)"/><path class="cls-1" d="M10.27,33.44H9.13V27h1.14l2.68,4.28V27h1.14v6.44H12.95l-2.68-4.28Z" transform="translate(0 0.93)"/><path class="cls-1" d="M15,30.21a3.45,3.45,0,0,1,.86-2.36,3,3,0,0,1,2.24-1,2.89,2.89,0,0,1,2.21,1,3.52,3.52,0,0,1,.83,2.36,3.44,3.44,0,0,1-.86,2.36,3,3,0,0,1-2.24,1,2.89,2.89,0,0,1-2.21-1A3.5,3.5,0,0,1,15,30.21Zm1.14,0a2.54,2.54,0,0,0,.5,1.62,1.79,1.79,0,0,0,1.46.65,1.74,1.74,0,0,0,1.42-.62A2.42,2.42,0,0,0,20,30.26a2.38,2.38,0,0,0-.62-1.69A1.89,1.89,0,0,0,18.06,28a1.81,1.81,0,0,0-1.3.55A2.25,2.25,0,0,0,16.16,30.16Z" transform="translate(0 0.93)"/><path class="cls-1" d="M24.9,33.53H23.56L21.31,27h1.21l1.71,5,1.71-5h1.21Z" transform="translate(0 0.93)"/><path class="cls-1" d="M29,26.9H30.3l2.25,6.53H31.34l-.46-1.33h-2.5l-.46,1.33H26.71ZM30.5,31l-.87-2.53L28.76,31Z" transform="translate(0 0.93)"/><path class="cls-1" d="M37.21,27v1.1h-2v5.34H34.12V28.1h-2V27Z" transform="translate(0 0.93)"/><path class="cls-1" d="M39.18,27v6.44H38V27Z" transform="translate(0 0.93)"/><path class="cls-1" d="M44.28,27v1.1H41.6v1.59H44.2v1.1H41.6v1.55h2.68v1.1H40.45V27Z" transform="translate(0 0.93)"/></svg>