<svg width="761" height="761" viewBox="0 0 761 761" fill="none" xmlns="http://www.w3.org/2000/svg">
<circle cx="380.5" cy="380.5" r="380.5" fill="#341402"/>
<path fill-rule="evenodd" clip-rule="evenodd" d="M697.349 591.255C737.562 530.92 761 458.447 761 380.5C761 361.351 759.585 342.532 756.855 324.142L722.042 286.506C722.042 287.999 723.087 293.35 724.607 301.138C729.561 326.513 739.564 377.756 734.938 405.675C739.972 372.153 646.946 300.899 646.946 302.484C676.346 339.553 656 402.08 642.153 428.709C651.101 395.475 638.425 358.407 630.968 344.027C624.577 372.148 579.307 412.199 557.47 428.709C571.531 414.649 556.938 356.81 547.884 329.648C528.71 344.989 522.852 387.168 522.319 406.34C517.526 387.169 499.417 353.613 475.983 337.635C444.027 322.297 453.082 268.398 461.603 243.366C451.377 270.209 416.865 301.95 400.887 314.465C370.387 304.617 382.59 241.254 392.898 209.813C372.447 211.091 355.617 264.671 349.758 291.302C348.377 286.948 346.289 285.744 343.437 284.1C335.045 279.262 320.045 270.615 297.031 166.674C281.053 179.457 273.064 249.227 277.858 291.302C266.354 301.527 256.021 278.519 252.293 265.737C231.841 281.076 249.098 314.736 260.282 329.648C225.77 352.657 200.099 268.933 191.577 224.195C151.952 238.255 198.501 332.311 226.729 377.582C203.72 380.139 189.447 361.604 185.186 352.018C172.404 366.078 207.555 402.614 226.729 419.125C200.822 427.415 178.766 405.461 166.52 386.637C165.043 382.29 162.8 378.159 159.622 374.387C161.335 378.016 163.66 382.241 166.52 386.637C174.549 410.274 159.935 440.33 150.035 454.276C162.817 422.32 138.318 351.485 124.47 320.062C109.131 320.062 113.818 382.908 118.079 414.331C100.184 436.061 86.1233 392.495 81.33 367.995C67.2694 373.108 75.4714 414.864 81.33 435.102C55.3188 424.924 53.2384 368.969 56.0552 332.969C57.3704 328.37 57.9224 323.976 57.3632 320.062C56.8721 323.929 56.4221 328.279 56.0552 332.969C51.358 349.392 36.9248 368.428 28.603 377.582C28.603 357.742 13.5667 329.281 5.37393 316.414C5.36386 316.473 5.3538 316.532 5.34376 316.592C12.7192 331.353 8.20233 355.361 0.00481859 378.565C0.00160746 379.209 0 379.854 0 380.5C0 455.832 21.8917 526.051 59.6604 585.142L349.758 694.274L697.349 591.255Z" fill="#FF5C00"/>
<path fill-rule="evenodd" clip-rule="evenodd" d="M147.662 681.47C85.2017 633.08 38.2132 565.677 15.3751 487.941C29.4859 458.728 43.7321 418.034 32.1134 397.696C39.8153 409.509 55.2191 438.066 55.2191 457.788C63.242 448.961 77.1565 430.603 81.685 414.765C78.9694 449.482 80.975 503.443 106.052 513.259C100.404 493.741 92.4963 453.474 106.052 448.543C110.673 472.17 124.228 514.183 141.48 493.228C137.373 462.924 132.854 402.318 147.642 402.318C160.992 432.621 184.611 500.932 172.288 531.749C181.833 518.3 195.922 489.315 188.181 466.52C199.987 484.674 221.251 505.845 246.226 497.85C227.742 481.928 193.853 446.694 206.176 433.135C210.284 442.38 224.045 460.254 246.226 457.788C219.013 414.131 174.136 323.427 212.338 309.868C220.553 353.011 245.302 433.751 278.574 411.563C267.792 397.182 251.155 364.722 270.872 349.93C274.467 362.256 284.428 384.444 295.518 374.583C290.897 334.008 298.599 266.724 314.003 254.398C334.619 278.193 349.113 324.954 358.193 354.249C360.872 362.895 363.081 370.019 364.836 374.583C370.484 348.902 386.709 297.231 406.426 295.998C396.488 326.319 384.723 387.424 414.128 396.921C429.531 384.852 462.804 354.242 472.662 328.356C464.447 352.496 455.718 404.473 486.526 419.265C509.118 434.674 526.575 467.033 531.197 485.522C531.71 467.033 537.358 426.357 555.843 411.563C564.571 437.757 578.64 493.534 565.085 507.093C586.137 491.171 629.781 452.548 635.942 425.429C643.131 439.296 655.351 475.044 646.725 507.093C660.075 481.413 679.689 421.114 651.346 385.367C651.346 383.838 741.029 452.553 736.177 484.88C740.636 457.956 730.992 408.54 726.217 384.069C724.751 376.558 723.744 371.398 723.744 369.959L759.936 409.097C751.105 527.952 687.675 631.605 594.64 695.063L372.51 760.918C367.358 760.812 362.232 760.603 357.133 760.295L147.662 681.47ZM181.53 454.707C184.595 458.345 186.757 462.328 188.181 466.52C185.424 462.281 183.183 458.207 181.53 454.707ZM82.946 402.318C83.4851 406.093 82.953 410.33 81.685 414.765C82.0387 410.243 82.4726 406.047 82.946 402.318Z" fill="#F38421"/>
<path fill-rule="evenodd" clip-rule="evenodd" d="M23.6024 512.723L72.807 462.878C72.807 464.081 71.9081 468.397 70.5997 474.677C66.3369 495.139 57.7284 536.462 61.7089 558.976C57.3773 531.944 137.433 474.484 137.433 475.762C112.133 505.655 129.642 556.076 141.558 577.551C133.858 550.751 144.767 520.859 151.184 509.262C156.684 531.939 195.643 564.237 214.435 577.551C202.335 566.212 214.893 519.571 222.685 497.668C239.186 510.038 244.227 544.052 244.686 559.512C248.811 544.052 264.394 516.993 284.561 504.109C312.062 491.739 304.27 448.275 296.937 428.089C305.737 449.736 335.438 475.332 349.188 485.424C375.436 477.483 364.934 426.386 356.063 401.032C373.663 402.063 388.147 445.27 393.189 466.745C394.755 462.928 396.726 456.971 399.118 449.742C407.224 425.244 420.162 386.142 438.565 366.245C452.315 376.553 459.19 432.815 455.065 466.745C464.965 474.991 473.857 456.437 477.065 446.129C494.666 458.499 479.816 485.642 470.19 497.668C499.891 516.222 521.983 448.706 529.317 412.63C563.417 423.968 523.358 499.815 499.066 536.322C518.866 538.383 531.15 523.437 534.817 515.706C545.817 527.045 515.566 556.508 499.066 569.822C521.361 576.507 540.342 558.804 550.881 543.623C543.971 562.684 556.547 586.922 565.067 598.168C554.067 572.399 575.151 515.277 587.068 489.937C600.268 489.937 596.235 540.617 592.568 565.956C607.968 583.479 620.068 548.347 624.194 528.591C636.294 532.714 629.235 566.386 624.194 582.706C646.578 574.498 648.369 529.376 645.945 500.345C649.987 513.589 662.408 528.94 669.569 536.322C669.569 519.829 683.32 495.95 690.195 486.072C678.442 505.345 696.339 546.478 710.11 570.726C644.323 684.471 521.349 761 380.5 761C216.849 761 77.3283 657.686 23.6024 512.723ZM644.819 489.937C644.338 493.094 644.813 496.637 645.945 500.345C645.629 496.564 645.242 493.055 644.819 489.937ZM556.817 533.745C554.081 536.787 552.151 540.118 550.881 543.623C553.341 540.079 555.342 536.672 556.817 533.745Z" fill="#EDD55B"/>
<rect x="293.538" y="374.9" width="173.065" height="111.444" rx="11.8958" fill="white"/>
<rect x="347.292" y="473.236" width="65.5551" height="38.022" rx="11.8958" fill="white"/>
<rect x="385.582" y="349.709" width="47.4209" height="11.8552" rx="2.61346" transform="rotate(90 385.582 349.709)" fill="white"/>
<path fill-rule="evenodd" clip-rule="evenodd" d="M244.578 736.005L244.578 508.476C244.578 501.907 249.903 496.581 256.473 496.581H505.967C512.537 496.581 517.863 501.907 517.863 508.476V735.45C475.255 751.951 428.934 761 380.5 761C332.611 761 286.789 752.153 244.578 736.005Z" fill="white"/>
<circle cx="379.573" cy="346.663" r="17.6999" fill="white"/>
<rect x="367.546" y="452.256" width="1.58236" height="12.6589" fill="white"/>
<rect x="379.417" y="452.256" width="1.58236" height="12.6589" fill="white"/>
<rect x="389.7" y="452.256" width="1.58236" height="12.6589" fill="white"/>
<path d="M351.264 409.627V409.627C344.339 409.109 338.305 414.304 337.787 421.229V421.229" stroke="#341402" stroke-width="4.38617" stroke-linecap="round"/>
<path d="M392.334 464.989V464.989C385.424 458.231 374.344 458.354 367.586 465.264V465.264" stroke="#341402" stroke-width="11.7475" stroke-linecap="round"/>
<path d="M420.006 420.819V420.819C420.097 413.41 413.05 407.988 405.912 409.975V409.975" stroke="#341402" stroke-width="4.38617" stroke-linecap="round"/>
<path d="M251.581 538.79C178.159 538.79 172.259 472.58 172.259 407.68" stroke="white" stroke-width="24.8928"/>
<path d="M142.55 364.527C142.55 386.756 151.482 401.015 173.67 401.575C195.859 402.135 203.308 385.274 203.517 364.527" stroke="white" stroke-width="16.8814" stroke-linecap="round"/>
<path d="M557.483 364.527C557.483 386.756 566.415 401.015 588.603 401.575C610.792 402.135 618.241 385.274 618.45 364.527" stroke="white" stroke-width="16.8814" stroke-linecap="round"/>
<path d="M508.556 538.79C581.977 538.79 587.877 472.58 587.877 407.68" stroke="white" stroke-width="24.8928"/>
<ellipse cx="402.817" cy="431.718" rx="6.43048" ry="8.03811" fill="#341402"/>
<ellipse cx="354.588" cy="431.721" rx="6.43048" ry="8.03811" fill="#341402"/>
<path d="M206.629 226.984C203.997 209.439 212.843 195.55 217.595 190.798C208.822 213.826 224.174 224.791 226.367 231.37C228.56 237.95 221.981 258.784 221.981 252.205C221.981 245.625 209.919 248.915 206.629 226.984Z" fill="#FF5C00"/>
<path d="M520.422 354.717C516.791 336.913 528.995 322.819 535.55 317.997C523.447 341.364 544.628 352.491 547.653 359.168C550.679 365.844 541.602 386.986 541.602 380.309C541.602 373.633 524.961 376.971 520.422 354.717Z" fill="#FF5C00"/>
<path d="M102.668 358.333C104.902 347.283 97.3925 338.535 93.3583 335.542C100.806 350.045 87.7722 356.952 85.9102 361.096C84.0483 365.24 89.6341 378.362 89.6341 374.218C89.6341 370.074 99.8751 372.146 102.668 358.333Z" fill="#FF5C00"/>
</svg>
