<?xml version="1.0" encoding="UTF-8"?>
<svg id="svg1" width="55mm" height="55mm" version="1.1" viewBox="0 0 55 55" xml:space="preserve"
    xmlns="http://www.w3.org/2000/svg" xmlns:xlink="http://www.w3.org/1999/xlink">
    <style>
    #sparkle-1 {
        animation: fadeIn 2s ease-out 1s infinite alternate;
        opacity: 0;
    }
    #sparkle-2 {
        animation: fadeIn 2s ease-out 1.5s infinite alternate;
        opacity: 0;
    }
    #sparkle-3 {
        animation: fadeIn 2s ease-out 2s infinite alternate;
        opacity: 0;
    }
    @keyframes fadeIn {
        from {
            opacity: 0;
        }
        to {
            opacity: 1;
        }
    }    
    </style>
    <defs id="defs1">
        <radialGradient id="radialGradient10" cx="94.237" cy="94.232" r="94.237"
            gradientTransform="matrix(.29033 0 0 .29033 74.364 109.82)" gradientUnits="userSpaceOnUse">
            <stop id="stop9" stop-color="#7c4dff" offset=".50742" />
            <stop id="stop10" stop-color="#9975ff" offset="1" />
        </radialGradient>
    </defs>
    <g id="layer1" transform="translate(-76.79 -112.2)">
        <g id="g10" transform="translate(2.5732 2.504)">
            <circle id="circle1" cx="101.72" cy="137.18" r="27.36" fill="url(#radialGradient10)" />
            <path id="circle8" transform="matrix(.25117 0 0 .25112 76.599 112.12)"
                d="m124.69 9.0991c47.678 12.716 69.496 56.409 69.311 90.901-0.27897 51.914-42.085 94-94 94-51.915 0-93.938-42.085-94-94-0.039016-32.487 19.432-77.558 69.431-90.871"
                fill="none" stroke="#f7f7f7" stroke-width="10.668" />
            <path id="text3" transform="matrix(.24934 0 0 .24934 80.151 108.18)"
                d="m68.184 26.33c0.19933 1.6256 0.31468 2.3278 0.32077 2.1097 0.02617-4.85e-4 0.05341-0.0011 0.0817-0.0019 0.10544-0.01765 0.21298-0.0353 0.3226-0.0531 0.40731-0.06616 0.81858-0.13017 1.2336-0.19297 1.2599-0.19056 2.5235-0.36466 3.7905-0.52327l-0.18715-1.495c-1.2793 0.16015-2.5557 0.336-3.8286 0.52855-0.06526 0.0099-0.13045 0.01978-0.19558 0.02972l-1.2417-8.1324c-0.37482 0.05723-0.75193 0.11634-1.1312 0.17792-0.12086 0.01962-0.24374 0.0398-0.36861 0.06069-0.03209 0.0093-0.06524 0.01885-0.09944 0.02861-0.08135-0.20332-0.05964 0.51487 0.09042 2.1517zm10.198 0.98078c1.7906-0.17006 2.8268-1.3531 2.7038-3.2424l-0.2591-3.978c-0.12197-1.8727-1.4203-2.924-3.3862-2.7389-1.955 0.18405-3.0157 1.4522-2.7976 3.328l0.45897 3.9477c0.21915 1.885 1.4983 2.8528 3.2802 2.6836zm-0.1381-1.4607c-0.86577 0.08211-1.3878-0.35584-1.4843-1.2723l-0.44423-4.2185c-0.09624-0.91392 0.32711-1.459 1.2632-1.5472 0.93757-0.08837 1.4587 0.36815 1.534 1.2839l0.34746 4.2266c0.07547 0.918-0.35183 1.4454-1.2161 1.5273zm4.3804 1.014c0.53739-0.02648 1.073-0.04718 1.6068-0.0614 0.14577-0.79056 0.29704-1.5806 0.45408-2.3702 0.50411-0.0097 1.0075-0.01372 1.5102-0.01157 0.33265 9.09e-4 0.66558 0.0041 0.99879 0.0095 0.16022 0.78919 0.31538 1.5788 0.46572 2.3689 0.53856 0.0121 1.0787 0.02993 1.6206 0.05285-0.64699-3.2739-1.375-6.5402-2.2067-9.7964-0.28398-0.0041-0.56839-0.0068-0.85323-0.0081-0.48455-9.27e-4 -0.96777 0.0029-1.4496 0.01104-0.82448 3.2579-1.5318 6.5276-2.1466 9.8055zm2.3376-3.7961c0.18002-0.8781 0.36732-1.7556 0.56227-2.6323 0.19916-0.85243 0.35372-1.6169 0.40948-1.9348 0.04235 0.23965 0.14841 0.72936 0.27743 1.3247 1.2414 5.7565-1.1072-5.1338 0.13424 0.6227 0.19573 0.87217 0.38477 1.7449 0.56746 2.6182-0.23762-0.0029-0.4752-0.0048-0.71273-0.0056-0.41254-0.0016-0.82526 8.78e-4 -1.2381 0.0071zm5.4511 3.8391c0.4973 0.02714 0.99593 0.05816 1.4959 0.09259l0.27852-4.084c0.13144-1.9273 0.08858-3.671 0.0017-4.9175 0.35312 1.6174 0.68694 3.2364 1.0046 4.8567 0.4565 0.03487 0.91301 0.07218 1.3695 0.11157 0.5967-1.5862 1.2083-3.1691 1.8312-4.7491-0.29658 1.3739-0.62348 3.2954-0.77984 4.9773l-0.37905 4.0772c0.50573 0.04705 1.0128 0.09643 1.5211 0.14766l0.98072-9.6866c-0.74537-0.0758-1.4941-0.1478-2.2463-0.21466-0.50459 1.3567-1.0003 2.7154-1.4852 4.0764-0.25333-1.4212-0.51777-2.8417-0.79523-4.2613-0.75427-0.05483-1.5118-0.10326-2.2726-0.14396zm7.5057 0.63222c0.17371 0.0183 0.34756 0.03677 0.52156 0.05538 0.38258 0.04141 0.76501 0.08386 1.1473 0.12738 0.2624-0.76188 0.52674-1.5233 0.79304-2.2843 0.8504 0.09899 1.7001 0.20319 2.549 0.31272 0.0623 0.6724 0.12313 1.3448 0.18252 2.0171 0.0115 0.13038 0.023 0.26075 0.0344 0.39112 0.42103 0.05545 0.83955 0.11193 1.2555 0.17009 0.1197 0.01674 0.23781 0.03341 0.35432 0.05013 0.0104 0.0015 0.0207 3e-3 0.0309 0.0044-4e-3 -0.04488-8e-3 -0.08977-0.0122-0.13467-0.0468-0.50359-0.0975-1.0074-0.15052-1.5115v-1e-6c-0.19658-1.8683-0.4134-3.737-0.64143-5.6057-0.11079-0.90784-0.2245-1.8157-0.34111-2.7235-0.72999-0.09337-1.4603-0.18293-2.191-0.26873-0.95073 2.4479-1.8786 4.9016-2.784 7.3605-0.25081 0.67943-0.5003 1.3592-0.74826 2.0394zm2.9235-3.4168c0.2966-0.84666 0.5956-1.6928 0.89701-2.5383 0.30304-0.82244 0.54435-1.5595 0.63724-1.87 0.015 0.32201 0.0846 1.1007 0.16469 1.9819 0.0886 0.8889 0.17479 1.7778 0.25846 2.6666-0.65205-0.08315-1.3045-0.16318-1.9574-0.24014z"
                fill="#f7f7f7" stroke-width="0" style="white-space:pre" aria-label="LOAMA" />
        </g>
        <g id="g11" transform="translate(2.5732 2.4898)" fill="#dadada">
            <path id="path1" transform="matrix(.25117 0 0 .25112 76.599 112.12)"
                d="m113.57 127.35c1.6625 3.0728 6.9158 6.7541 0 19.086 0 0 10.543 11.1 0 25.358 13.006-0.39744 29.734-0.1353 44.853-0.1583-41.55 27.352-89.475 14.898-89.475 14.898s-0.26944-8.815 17.714-15.307c-9.2809-10.945-0.09706-17.153-0.09706-17.153-12.231-14.505 0-26.724 0-26.724"
                stroke="#f7f7f7" stroke-linejoin="round" stroke-width="12.672" />
            <path id="path1-6" transform="matrix(.25117 0 0 .25112 76.599 112.12)"
                d="m114.16 127.57c1.6625 3.0728 8.3921 8.1956 0 19.086 0 0 10.543 11.1 0 25.358 13.006-0.39744 39.311-0.1353 54.43-0.1583-31.298 28.9-68.04 32.246-99.053 22.641 0 0-0.26944-16.557 17.714-23.05-10.504-9.1446-0.09706-17.153-0.09706-17.153-12.512-13.975 0-26.724 0-26.724" />
        </g>
        <g id="g12" transform="translate(2.5732 2.4898)" stroke-linejoin="round">
            <path id="path3" transform="matrix(.25117 0 0 .25112 76.599 112.12)"
                d="m72.957 80.89s-9.3821-33.427 4.3746-36.177c9.41-1.8451 14.901 25.306 14.901 25.306-7.259 2.2635-12.713 3.8902-19.276 10.871z"
                fill="#dadada" stroke="#f7f7f7" stroke-width="9.5036" />
            <path id="path3-8" transform="matrix(.25117 0 0 .25112 76.599 112.12)"
                d="m125.42 81.037s9.3818-33.426-4.3749-36.177c-9.41-1.8451-14.901 25.306-14.901 25.306 7.259 2.2635 12.713 3.8902 19.276 10.871z"
                fill="#dadada" stroke="#f7f7f7" stroke-width="9.5036" />
            <ellipse id="path7" transform="matrix(.26458 0 0 .26458 76.79 112.25)" cx="93.652" cy="93.564" rx="30.449"
                ry="28.949" fill="#dadada" stroke="#f7f7f7" stroke-linecap="round" stroke-width="5.2757" />
            <g id="g13" fill="none" stroke="#7c4dff" stroke-linecap="round" stroke-width="4.478">
                <path id="path4" transform="matrix(.26458 0 0 .26458 76.79 112.25)"
                    d="m77.803 89.653 4.5485-7.4944 4.0252 7.5815" />
                <path id="path4-2" transform="matrix(.26458 0 0 .26458 76.79 112.25)"
                    d="m101.53 89.465 4.5485-7.4944 4.0253 7.5815" />
            </g>
            <path id="path6" transform="matrix(.26458 0 0 .26458 76.79 112.25)"
                d="m81.113 102.11c13.011 7.9458 26.573 0 26.573 0" fill="none" stroke="#7c4dff" stroke-linecap="round"
                stroke-width="4.478" />
        </g>
        <g id="g17" fill="#f7f7f7" stroke-width=".018244">
            <path id="sparkle-1"
                d="m117.24 131.95c7.6e-4 0.12195-0.0754 0.23115-0.19011 0.27257l-0.94102 0.34773-0.34663 0.94175c-0.0933 0.25349-0.45182 0.25349-0.54513 0l-0.34882-0.94175-0.94175-0.34664c-0.25349-0.0933-0.25349-0.45182 0-0.54513l0.94175-0.34882 0.34663-0.94175c0.0933-0.25349 0.45182-0.25349 0.54513 0l0.34882 0.94175 0.94175 0.34663c0.1148 0.0418 0.19071 0.1515 0.18938 0.27366z" />
            <path id="sparkle-2"
                d="m116.23 130.19h0.2919v0.2919c8.8e-4 0.19372 0.29102 0.19372 0.2919 0v-0.2919h0.2919c0.19461 0 0.19461-0.29191 0-0.29191h-0.2919v-0.2919c-8.8e-4 -0.19372-0.29102-0.19372-0.2919 0v0.2919h-0.2919c-0.19461 0-0.19461 0.29191 0 0.29191z" />
            <path id="sparkle-3"
                d="m117.83 130.78h-0.14595v-0.14595c-8.2e-4 -0.19378-0.29108-0.19378-0.2919 0v0.14595h-0.14595c-0.19461 0-0.19461 0.29191 0 0.29191h0.14595v0.14595c8.2e-4 0.19378 0.29108 0.19378 0.2919 0v-0.14595h0.14595c0.19461 0 0.19461-0.29191 0-0.29191z" />
        </g>
    </g>
</svg>