<?xml version="1.0" encoding="UTF-8"?>
<svg id="Layer_2" data-name="Layer 2" xmlns="http://www.w3.org/2000/svg" viewBox="0 0 581.97 574.75">
  <defs>
    <style>
      .cls-1, .cls-2, .cls-3 {
        fill: none;
      }

      .cls-1, .cls-2, .cls-3, .cls-4 {
        stroke-linecap: round;
        stroke-width: 5px;
      }

      .cls-1, .cls-5, .cls-6 {
        stroke: #410099;
      }

      .cls-1, .cls-5, .cls-6, .cls-7, .cls-3 {
        stroke-miterlimit: 10;
      }

      .cls-2, .cls-3, .cls-4 {
        stroke: #333c42;
      }

      .cls-2, .cls-4 {
        stroke-linejoin: round;
      }

      .cls-5 {
        stroke-width: 2px;
      }

      .cls-5, .cls-6, .cls-8 {
        fill: #410099;
      }

      .cls-8, .cls-9 {
        stroke-width: 0px;
      }

      .cls-7 {
        fill: #47308a;
        stroke: #47308a;
      }

      .cls-9 {
        fill: #b9e3b6;
      }

      .cls-4 {
        fill: #333c42;
      }
    </style>
  </defs>
  <g id="Layer_1-2" data-name="Layer 1">
    <ellipse class="cls-9" cx="290.98" cy="287.38" rx="290.98" ry="287.38"/>
    <g>
      <path class="cls-2" d="M270.88,391.98c-51.45-9.65-89.76-55.47-88.37-109.48,1.39-54.01,42.01-97.79,93.9-104.78"/>
      <path class="cls-4" d="M275.26,166.37c.37,7.62.75,15.23,1.12,22.85,6.33-3.42,12.66-6.84,18.99-10.26-6.7-4.2-13.41-8.4-20.11-12.59Z"/>
    </g>
    <g>
      <path class="cls-2" d="M311.69,178.72c51.2,9.86,89.25,55.55,87.86,109.38-1.39,53.84-41.75,97.5-93.38,104.71"/>
      <path class="cls-4" d="M307.21,404.25c-.37-7.62-.75-15.23-1.12-22.85-6.33,3.42-12.66,6.84-18.99,10.26,6.7,4.2,13.41,8.4,20.11,12.59Z"/>
    </g>
    <line class="cls-3" x1="405.67" y1="288.26" x2="475.24" y2="288.26"/>
    <line class="cls-3" x1="106.3" y1="282.34" x2="176.36" y2="282.34"/>
    <line class="cls-3" x1="360.58" y1="194.22" x2="401.15" y2="138.7"/>
    <line class="cls-3" x1="183.39" y1="436.76" x2="225.34" y2="379.34"/>
    <line class="cls-3" x1="355.71" y1="380.09" x2="395.51" y2="438.83"/>
    <line class="cls-3" x1="182.48" y1="136.69" x2="224.45" y2="190.67"/>
    <circle class="cls-3" cx="157.97" cy="103.28" r="34.93"/>
    <circle class="cls-3" cx="421.68" cy="101.76" r="34.93"/>
    <circle class="cls-3" cx="516.87" cy="287.38" r="34.93"/>
    <circle class="cls-3" cx="420.15" cy="473.35" r="34.93"/>
    <circle class="cls-3" cx="158.23" cy="471.19" r="34.93"/>
    <circle class="cls-3" cx="65.14" cy="282.34" r="34.93"/>
    <path class="cls-6" d="M176.11,93.17l-15.71-8.33c-.85-.46-1.9-.47-2.77-.05l-15.99,7.78c-.93.45-1.52,1.34-1.54,2.32l-.28,16c-.01.98.54,1.88,1.46,2.37l15.71,8.33c.85.46,1.9.47,2.77.05l15.99-7.78c.93-.45,1.52-1.34,1.54-2.32l.28-16c.02-.98-.54-1.89-1.46-2.37ZM158.98,87.15l14.34,7.61-5.41,2.63-14.34-7.61,5.41-2.63ZM158.72,101.87l-14.34-7.61,6.16-3,14.34,7.61-6.16,3ZM142.96,96.58l14.28,7.57-.25,14.35-14.28-7.57.25-14.36ZM174.41,111.48h0l-14.54,7.07.25-14.34,5.81-2.83-.1,5.97c-.01.74.62,1.35,1.42,1.36s1.45-.57,1.46-1.31l.13-7.44,5.81-2.83-.25,14.35h0Z"/>
    <path class="cls-6" d="M403.18,100.18c.65.5,1.58.39,2.08-.26h0c3.26-4.19,9.31-4.95,13.5-1.69.72.56,1.36,1.22,1.89,1.96.48.66,1.4.81,2.07.33.11-.08.21-.18.3-.29h0c3.26-4.19,9.31-4.95,13.5-1.69.72.56,1.36,1.22,1.89,1.96.48.66,1.41.81,2.07.33s.81-1.41.33-2.07c-1.28-1.78-3-3.19-5-4.1,3.07-2.7,3.36-7.38.66-10.45-2.7-3.07-7.38-3.36-10.45-.66-3.07,2.7-3.36,7.38-.66,10.45.15.17.3.33.47.48-1.46.6-2.8,1.48-3.93,2.58-1.1-1.14-2.4-2.06-3.84-2.71,3.07-2.7,3.36-7.38.66-10.45-2.7-3.07-7.38-3.36-10.45-.66-3.07,2.7-3.36,7.38-.66,10.45.15.17.3.33.47.48-2.03.83-3.81,2.19-5.16,3.92-.5.65-.39,1.58.26,2.08h0ZM430.99,84.68c2.45.04,4.41,2.07,4.36,4.52s-2.07,4.4-4.52,4.36-4.41-2.07-4.36-4.52,2.07-4.4,4.52-4.36ZM413.23,84.37c2.45.04,4.41,2.07,4.36,4.52s-2.07,4.4-4.52,4.36-4.41-2.07-4.36-4.52,2.07-4.4,4.52-4.36ZM435.48,113.9c3.07-2.7,3.36-7.38.66-10.45-2.7-3.07-7.38-3.36-10.45-.66-3.07,2.7-3.36,7.38-.66,10.45.15.17.3.33.47.48-1.46.6-2.8,1.48-3.93,2.58-1.1-1.14-2.4-2.06-3.84-2.71,3.07-2.7,3.36-7.38.66-10.45-2.7-3.07-7.38-3.36-10.45-.66-3.07,2.7-3.36,7.38-.66,10.45.15.17.3.33.47.48-2.03.83-3.81,2.19-5.16,3.92-.5.65-.39,1.58.26,2.08.65.5,1.58.39,2.08-.26,3.26-4.19,9.31-4.95,13.5-1.69.72.56,1.36,1.22,1.89,1.96.48.66,1.4.81,2.07.33.11-.08.21-.18.3-.29h0c3.26-4.19,9.31-4.95,13.5-1.69.72.56,1.36,1.22,1.89,1.96.48.66,1.41.81,2.07.33s.81-1.41.33-2.07c-1.28-1.78-3-3.19-5-4.1ZM412.89,103.6c2.45.04,4.41,2.07,4.36,4.52s-2.07,4.4-4.52,4.36-4.41-2.07-4.36-4.52,2.07-4.4,4.52-4.36ZM430.65,103.91c2.45.04,4.41,2.07,4.36,4.52s-2.07,4.4-4.52,4.36-4.41-2.07-4.36-4.52,2.07-4.4,4.52-4.36Z"/>
    <path class="cls-5" d="M521.43,289.77l-17.23,16.64c-.67.65-1.75.63-2.4-.04s-.63-1.75.04-2.4l16.01-15.46-15.46-16.01c-.65-.67-.63-1.75.04-2.4s1.75-.63,2.4.04l16.64,17.23c.65.67.63,1.74-.04,2.39h0ZM538.4,287.67l-16.64-17.23c-.65-.67-1.72-.69-2.4-.04s-.69,1.72-.04,2.4h0l15.46,16.01-16.01,15.46c-.67.65-.69,1.72-.04,2.4s1.72.69,2.4.04l17.23-16.64c.67-.65.69-1.72.04-2.39,0,0,0,0,0,0Z"/>
    <path class="cls-6" d="M439.4,471.45c-.13-.5-.55-.91-1.1-1.09l-12.63-4.17,3.21-14.16c.19-.84-.44-1.65-1.39-1.81-.59-.1-1.2.07-1.62.46l-24.55,23.17c-.67.62-.64,1.6.06,2.18.17.14.37.25.59.33l12.63,4.17-3.21,14.14c-.19.84.44,1.65,1.39,1.81.59.1,1.2-.07,1.62-.46l24.55-23.17c.4-.38.56-.9.43-1.4ZM416.07,489.95l2.3-10.11c.17-.74-.29-1.48-1.1-1.75l-11.58-3.83,18.55-17.5-2.29,10.11c-.17.74.29,1.48,1.1,1.75l11.58,3.82-18.55,17.51Z"/>
    <path class="cls-6" d="M159.73,445.7c-.59-.54-1.48-.56-2.09-.04-11.35,9.74-16.83,21.29-14.64,30.9.73,3.3,2.43,6.32,4.88,8.65,2.25,2.17,5.1,3.81,8.47,4.87l-.1,5.41c-.02.87.68,1.58,1.54,1.6s1.58-.68,1.6-1.54l.09-5.41c3.4-.95,6.31-2.49,8.63-4.57.16-.15.32-.29.48-.45,2.28-2.19,3.91-4.97,4.7-8.03,2.52-9.53-2.55-21.26-13.55-31.39ZM170.26,476.28c-1.33,5.04-5.1,8.75-10.72,10.56l.43-24.58c.02-.87-.68-1.58-1.54-1.6-.87-.02-1.58.68-1.6,1.54l-.42,24.59c-5.54-2.01-9.19-5.85-10.34-10.93-1.85-8.16,2.84-18.13,12.57-26.88,9.42,9.08,13.76,19.21,11.62,27.3Z"/>
    <g>
      <circle class="cls-8" cx="64.81" cy="298.23" r="3.75"/>
      <path class="cls-1" d="M57.27,288.81c2.86-2.28,6.22-3.3,9.53-2.69,2.11.39,4.09,1.42,5.83,2.96"/>
      <path class="cls-1" d="M51.11,280.53c5.15-4.58,11.37-6.7,17.5-5.56,3.85.71,7.45,2.67,10.56,5.58"/>
      <path class="cls-1" d="M45.59,272.38c7.33-6.08,16.02-8.83,24.57-7.24,5.43,1,10.53,3.7,14.97,7.72"/>
    </g>
    <path class="cls-7" d="M363.47,335.45h-7.72s0-79.73,0-79.73c0-1.42-1.15-2.57-2.57-2.57h-41.15c-1.42,0-2.57,1.15-2.57,2.57v28.29s-36.01,0-36.01,0v-59.16c0-1.42-1.15-2.57-2.57-2.57h-41.15c-1.42,0-2.57,1.15-2.57,2.57v110.6s-7.72,0-7.72,0c-1.42,0-2.57,1.15-2.57,2.57s1.15,2.57,2.57,2.57h144.03c1.42,0,2.57-1.15,2.57-2.57s-1.15-2.57-2.57-2.57ZM314.6,258.29h36.01s0,77.16,0,77.16h-36.01s0-77.16,0-77.16ZM309.46,289.15v46.3s-36.01,0-36.01,0v-46.3s36.01,0,36.01,0ZM232.3,227.43h36.01s0,108.02,0,108.02h-36.01s0-108.02,0-108.02ZM252.88,245.43v10.29c0,1.42-1.15,2.57-2.57,2.57s-2.57-1.15-2.57-2.57v-10.29c0-1.42,1.15-2.57,2.57-2.57s2.57,1.15,2.57,2.57ZM252.88,276.29v10.29c0,1.42-1.15,2.57-2.57,2.57s-2.57-1.15-2.57-2.57v-10.29c0-1.42,1.15-2.57,2.57-2.57s2.57,1.15,2.57,2.57ZM252.88,307.16v10.29c0,1.42-1.15,2.57-2.57,2.57s-2.57-1.15-2.57-2.57v-10.29c0-1.42,1.15-2.57,2.57-2.57s2.57,1.15,2.57,2.57ZM288.88,317.45v-10.29c0-1.42,1.15-2.57,2.57-2.57s2.57,1.15,2.57,2.57v10.29c0,1.42-1.15,2.57-2.57,2.57s-2.57-1.15-2.57-2.57ZM330.04,317.45v-10.29c0-1.42,1.15-2.57,2.57-2.57s2.57,1.15,2.57,2.57v10.29c0,1.42-1.15,2.57-2.57,2.57s-2.57-1.15-2.57-2.57ZM330.04,286.58v-10.29c0-1.42,1.15-2.57,2.57-2.57s2.57,1.15,2.57,2.57v10.29c0,1.42-1.15,2.57-2.57,2.57s-2.57-1.15-2.57-2.57Z"/>
  </g>
</svg>