<?xml version="1.0" encoding="UTF-8"?>
<svg id="Layer_2" data-name="Layer 2" xmlns="http://www.w3.org/2000/svg" viewBox="0 0 581.97 574.75">
  <defs>
    <style>
      .cls-1 {
        stroke-width: 2px;
      }

      .cls-1, .cls-2, .cls-3 {
        stroke: #0431fe;
        stroke-miterlimit: 10;
      }

      .cls-1, .cls-4, .cls-3 {
        fill: #0431fe;
      }

      .cls-2, .cls-5 {
        fill: none;
      }

      .cls-2, .cls-5, .cls-6 {
        stroke-linecap: round;
        stroke-width: 5px;
      }

      .cls-7 {
        fill: #99ecea;
      }

      .cls-7, .cls-8, .cls-4 {
        stroke-width: 0px;
      }

      .cls-8 {
        fill: #161616;
      }

      .cls-5, .cls-6 {
        stroke: #ea6928;
        stroke-linejoin: round;
      }

      .cls-6 {
        fill: #ea6928;
      }
    </style>
  </defs>
  <g id="Layer_1-2" data-name="Layer 1">
    <ellipse class="cls-7" cx="290.98" cy="287.38" rx="290.98" ry="287.38"/>
    <g>
      <g>
        <path class="cls-5" d="M265.04,458.53c-82.54-11.41-146.95-81.32-148.87-167.3-1.92-85.98,59.31-158.69,141.26-173.77"/>
        <path class="cls-6" d="M254.73,99.5c1.18,12.08,2.35,24.16,3.53,36.24,9.8-5.92,19.61-11.84,29.41-17.76-10.98-6.16-21.96-12.32-32.94-18.48Z"/>
      </g>
      <g>
        <path class="cls-5" d="M313.59,116.35c82.15,11.75,146.14,81.48,148.05,167.18,1.91,85.7-58.91,158.21-140.45,173.61"/>
        <path class="cls-6" d="M323.73,475.25c-1.18-12.08-2.35-24.16-3.53-36.24-9.8,5.92-19.61,11.84-29.41,17.76,10.98,6.16,21.96,12.32,32.94,18.48Z"/>
      </g>
    </g>
    <circle class="cls-5" cx="156.73" cy="104.77" r="34.93"/>
    <circle class="cls-5" cx="420.44" cy="103.24" r="34.93"/>
    <circle class="cls-5" cx="515.63" cy="288.86" r="34.93"/>
    <circle class="cls-5" cx="418.91" cy="474.83" r="34.93"/>
    <circle class="cls-5" cx="156.99" cy="472.67" r="34.93"/>
    <circle class="cls-5" cx="63.9" cy="283.82" r="34.93"/>
    <path class="cls-3" d="M174.87,94.65l-15.71-8.33c-.85-.46-1.9-.47-2.77-.05l-15.99,7.78c-.93.45-1.52,1.34-1.54,2.32l-.28,16c-.01.98.54,1.88,1.46,2.37l15.71,8.33c.85.46,1.9.47,2.77.05l15.99-7.78c.93-.45,1.52-1.34,1.54-2.32l.28-16c.02-.98-.54-1.89-1.46-2.37ZM157.74,88.64l14.34,7.61-5.41,2.63-14.34-7.61,5.41-2.63ZM157.48,103.36l-14.34-7.61,6.16-3,14.34,7.61-6.16,3ZM141.72,98.06l14.28,7.57-.25,14.35-14.28-7.57.25-14.36ZM173.17,112.96h0l-14.54,7.07.25-14.34,5.81-2.83-.1,5.97c-.01.74.62,1.35,1.42,1.36s1.45-.57,1.46-1.31l.13-7.44,5.81-2.83-.25,14.35h0Z"/>
    <path class="cls-3" d="M401.94,101.66c.65.5,1.58.39,2.08-.26h0c3.26-4.19,9.31-4.95,13.5-1.69.72.56,1.36,1.22,1.89,1.96.48.66,1.4.81,2.07.33.11-.08.21-.18.3-.29h0c3.26-4.19,9.31-4.95,13.5-1.69.72.56,1.36,1.22,1.89,1.96.48.66,1.41.81,2.07.33s.81-1.41.33-2.07c-1.28-1.78-3-3.19-5-4.1,3.07-2.7,3.36-7.38.66-10.45-2.7-3.07-7.38-3.36-10.45-.66-3.07,2.7-3.36,7.38-.66,10.45.15.17.3.33.47.48-1.46.6-2.8,1.48-3.93,2.58-1.1-1.14-2.4-2.06-3.84-2.71,3.07-2.7,3.36-7.38.66-10.45-2.7-3.07-7.38-3.36-10.45-.66-3.07,2.7-3.36,7.38-.66,10.45.15.17.3.33.47.48-2.03.83-3.81,2.19-5.16,3.92-.5.65-.39,1.58.26,2.08h0ZM429.75,86.16c2.45.04,4.41,2.07,4.36,4.52-.04,2.45-2.07,4.4-4.52,4.36s-4.41-2.07-4.36-4.52,2.07-4.4,4.52-4.36ZM411.99,85.85c2.45.04,4.41,2.07,4.36,4.52s-2.07,4.4-4.52,4.36-4.41-2.07-4.36-4.52,2.07-4.4,4.52-4.36ZM434.24,115.38c3.07-2.7,3.36-7.38.66-10.45-2.7-3.07-7.38-3.36-10.45-.66-3.07,2.7-3.36,7.38-.66,10.45.15.17.3.33.47.48-1.46.6-2.8,1.48-3.93,2.58-1.1-1.14-2.4-2.06-3.84-2.71,3.07-2.7,3.36-7.38.66-10.45-2.7-3.07-7.38-3.36-10.45-.66-3.07,2.7-3.36,7.38-.66,10.45.15.17.3.33.47.48-2.03.83-3.81,2.19-5.16,3.92-.5.65-.39,1.58.26,2.08.65.5,1.58.39,2.08-.26,3.26-4.19,9.31-4.95,13.5-1.69.72.56,1.36,1.22,1.89,1.96.48.66,1.4.81,2.07.33.11-.08.21-.18.3-.29h0c3.26-4.19,9.31-4.95,13.5-1.69.72.56,1.36,1.22,1.89,1.96.48.66,1.41.81,2.07.33s.81-1.41.33-2.07c-1.28-1.78-3-3.19-5-4.1ZM411.65,105.09c2.45.04,4.41,2.07,4.36,4.52s-2.07,4.4-4.52,4.36-4.41-2.07-4.36-4.52,2.07-4.4,4.52-4.36ZM429.42,105.4c2.45.04,4.41,2.07,4.36,4.52-.04,2.45-2.07,4.4-4.52,4.36s-4.41-2.07-4.36-4.52,2.07-4.4,4.52-4.36Z"/>
    <path class="cls-1" d="M520.19,291.26l-17.23,16.64c-.67.65-1.75.63-2.4-.04s-.63-1.75.04-2.4l16.01-15.46-15.46-16.01c-.65-.67-.63-1.75.04-2.4s1.75-.63,2.4.04l16.64,17.23c.65.67.63,1.74-.04,2.39h0ZM537.17,289.15l-16.64-17.23c-.65-.67-1.72-.69-2.4-.04s-.69,1.72-.04,2.4h0l15.46,16.01-16.01,15.46c-.67.65-.69,1.72-.04,2.4s1.72.69,2.4.04l17.23-16.64c.67-.65.69-1.72.04-2.39,0,0,0,0,0,0Z"/>
    <path class="cls-3" d="M438.16,472.94c-.13-.5-.55-.91-1.1-1.09l-12.63-4.17,3.21-14.16c.19-.84-.44-1.65-1.39-1.81-.59-.1-1.2.07-1.62.46l-24.55,23.17c-.67.62-.64,1.6.06,2.18.17.14.37.25.59.33l12.63,4.17-3.21,14.14c-.19.84.44,1.65,1.39,1.81.59.1,1.2-.07,1.62-.46l24.55-23.17c.4-.38.56-.9.43-1.4ZM414.83,491.44l2.3-10.11c.17-.74-.29-1.48-1.1-1.75l-11.58-3.83,18.55-17.5-2.29,10.11c-.17.74.29,1.48,1.1,1.75l11.58,3.82-18.55,17.51Z"/>
    <path class="cls-3" d="M158.49,447.18c-.59-.54-1.48-.56-2.09-.04-11.35,9.74-16.83,21.29-14.64,30.9.73,3.3,2.43,6.32,4.88,8.65,2.25,2.17,5.1,3.81,8.47,4.87l-.1,5.41c-.02.87.68,1.58,1.54,1.6s1.58-.68,1.6-1.54l.09-5.41c3.4-.95,6.31-2.49,8.63-4.57.16-.15.32-.29.48-.45,2.28-2.19,3.91-4.97,4.7-8.03,2.52-9.53-2.55-21.26-13.55-31.39ZM169.02,477.77c-1.33,5.04-5.1,8.75-10.72,10.56l.43-24.58c.02-.87-.68-1.58-1.54-1.6-.87-.02-1.58.68-1.6,1.54l-.42,24.59c-5.54-2.01-9.19-5.85-10.34-10.93-1.85-8.16,2.84-18.13,12.57-26.88,9.42,9.08,13.76,19.21,11.62,27.3Z"/>
    <g>
      <circle class="cls-4" cx="63.57" cy="299.72" r="3.75"/>
      <path class="cls-2" d="M56.03,290.29c2.86-2.28,6.22-3.3,9.53-2.69,2.11.39,4.09,1.42,5.83,2.96"/>
      <path class="cls-2" d="M49.87,282.01c5.15-4.58,11.37-6.7,17.5-5.56,3.85.71,7.45,2.67,10.56,5.58"/>
      <path class="cls-2" d="M44.35,273.86c7.33-6.08,16.02-8.83,24.57-7.24,5.43,1,10.53,3.7,14.97,7.72"/>
    </g>
    <g id="Laag_2" data-name="Laag 2">
      <g id="Laag_1-2" data-name="Laag 1-2">
        <path class="cls-8" d="M341.66,235.35l-36.6,46.87c-2.48,3.19-2.48,7.66,0,10.85l37.87,48.52-48.52-37.88c-3.19-2.48-7.66-2.48-10.85,0l-48.57,37.94-50.09,39.07c-2.93,2.24-3.5,6.43-1.26,9.36,1.27,1.67,3.25,2.64,5.35,2.63h130.72c41.03,0,74.29-33.26,74.29-74.29h0c0-19.69-7.82-38.58-21.75-52.51l-30.59-30.56Z"/>
        <path class="cls-8" d="M183.98,256.34h0c0,19.68,7.8,38.56,21.7,52.48l30.58,30.59,36.6-46.89c2.48-3.19,2.48-7.66,0-10.85l-37.86-48.57,48.52,37.87c3.19,2.48,7.66,2.48,10.85,0l48.52-37.87,50.08-39.11c2.91-2.27,3.43-6.46,1.16-9.37-1.26-1.61-3.18-2.56-5.23-2.57h-130.71c-41,.04-74.22,33.29-74.22,74.29Z"/>
      </g>
    </g>
  </g>
</svg>