<svg id="Your_design" data-name="Your design" xmlns="http://www.w3.org/2000/svg" viewBox="0 0 400 400"><defs><style>.cls-1{fill:#d6d6d6;}.cls-2{fill:red;}.cls-3{fill:#fff;}.cls-4{fill:#1a1a1a;}.cls-5{fill:#ff0101;}</style></defs><title>OpenRecognition_TeamFocus</title><circle class="cls-1" cx="200" cy="200" r="200"/><circle class="cls-2" cx="191.59" cy="208.25" r="67.12"/><path class="cls-2" d="M191.59,84A124.22,124.22,0,1,0,315.8,208.25,124.23,124.23,0,0,0,191.59,84Zm0,221.73a97.51,97.51,0,1,1,97.51-97.51A97.51,97.51,0,0,1,191.59,305.76Z"/><path class="cls-3" d="M191.59,110.74a97.51,97.51,0,1,0,97.51,97.51A97.51,97.51,0,0,0,191.59,110.74Zm0,164.63a67.12,67.12,0,1,1,67.12-67.12A67.12,67.12,0,0,1,191.59,275.37Z"/><path class="cls-3" d="M191.59,172.41a35.84,35.84,0,1,0,35.83,35.84A35.84,35.84,0,0,0,191.59,172.41Zm0,48.51a12.67,12.67,0,1,1,12.67-12.67A12.67,12.67,0,0,1,191.59,220.92Z"/><rect class="cls-4" x="251.17" y="63.72" width="10.06" height="168.91" transform="translate(186.75 -139.52) rotate(46.38)"/><polygon class="cls-5" points="313.88 86.28 313.47 73.19 289.38 96.15 289.38 109.62 313.88 86.28"/><circle class="cls-4" cx="191.59" cy="208.25" r="12.67" transform="translate(-91.14 196.47) rotate(-45)"/><path class="cls-3" d="M302.22,114.29l-1.51-1.58L198.52,210.08h0a12.07,12.07,0,0,0,6.5-3.18Z"/><polygon class="cls-5" points="320.81 93.56 333.86 94.6 309.77 117.55 296.31 116.9 320.81 93.56"/></svg>