<?xml version="1.0" encoding="utf-8"?>
<!-- Generator: Adobe Illustrator 22.1.0, SVG Export Plug-In . SVG Version: 6.00 Build 0)  -->
<svg version="1.1" id="Layer_3" xmlns="http://www.w3.org/2000/svg" xmlns:xlink="http://www.w3.org/1999/xlink" x="0px" y="0px"
	 viewBox="0 0 500 500" style="enable-background:new 0 0 500 500;" xml:space="preserve">
<style type="text/css">
	.st0{fill:#FF5E00;}
</style>
<g>
	<path class="st0" d="M397.7,234.6c-1.5-0.9-3.1-1.5-4.8-1.7c-1.7-0.2-3.4-0.4-5.1-0.4h-7.2v28.4h7.6c2.7,0,5-0.4,6.8-1.1
		c1.8-0.7,3.3-1.8,4.5-3.1c1.2-1.3,2-2.9,2.7-4.7c0.6-1.8,0.9-3.8,0.9-6c0-2.9-0.5-5.3-1.6-7.2C400.4,236.9,399.2,235.5,397.7,234.6
		z"/>
	<path class="st0" d="M489.9,237.6L380.7,36.3c-4.5-8.4-13.3-13.6-22.8-13.6H142.2c-9.5,0-18.3,5.2-22.8,13.6L10.1,237.6
		c-4.2,7.7-4.2,17,0,24.8l109.2,201.3c4.5,8.4,13.3,13.6,22.8,13.6h215.7c9.5,0,18.3-5.2,22.8-13.6l109.2-201.3
		C494,254.7,494,245.3,489.9,237.6z M332.4,275.3c-1-1.4-2.4-2.6-4-3.6c-1.7-1.1-3.5-2-5.7-3c-2.1-0.9-4.3-1.9-6.5-2.9
		c-2.2-1-4.4-2.2-6.5-3.5c-2.1-1.3-4-2.9-5.7-4.7c-1.7-1.8-3-4-4-6.5c-1-2.5-1.6-5.5-1.6-9c0-4,0.7-7.5,2.2-10.6
		c1.5-3,3.5-5.6,6-7.6c2.5-2,5.5-3.5,8.9-4.5c3.4-1,7.1-1.5,10.9-1.5c2,0,4,0.2,6,0.5c2,0.3,3.8,0.7,5.6,1.2
		c1.7,0.5,3.3,1.1,4.6,1.7c1.3,0.6,2.2,1.2,2.7,1.6c0.4,0.4,0.7,0.8,0.9,1.1c0.2,0.3,0.3,0.7,0.4,1.2c0.1,0.5,0.2,1.1,0.2,1.9
		c0,0.8,0.1,1.7,0.1,2.8c0,1.3,0,2.3-0.1,3.2c-0.1,0.9-0.2,1.6-0.3,2.1c-0.2,0.6-0.4,1-0.6,1.2c-0.3,0.3-0.7,0.4-1.1,0.4
		s-1.2-0.3-2.3-0.9c-1-0.6-2.3-1.3-3.8-2c-1.5-0.7-3.3-1.4-5.2-1.9c-2-0.6-4.2-0.9-6.5-0.9c-1.9,0-3.5,0.2-4.9,0.7
		c-1.4,0.5-2.5,1.1-3.5,1.9c-0.9,0.8-1.6,1.8-2.1,2.9c-0.5,1.1-0.7,2.3-0.7,3.6c0,1.9,0.5,3.5,1.5,4.8c1,1.4,2.4,2.6,4.1,3.6
		c1.7,1.1,3.6,2,5.8,3c2.2,0.9,4.4,1.9,6.6,2.9c2.2,1,4.4,2.2,6.6,3.5c2.2,1.3,4.1,2.9,5.8,4.7c1.7,1.8,3,4,4.1,6.5
		c1,2.5,1.6,5.4,1.6,8.8c0,4.4-0.8,8.3-2.5,11.6c-1.6,3.3-3.9,6.1-6.7,8.3c-2.8,2.2-6.1,3.9-9.8,5c-3.8,1.1-7.8,1.7-12,1.7
		c-2.9,0-5.6-0.2-8.1-0.7c-2.5-0.5-4.7-1-6.6-1.7c-1.9-0.7-3.5-1.4-4.8-2.1c-1.3-0.7-2.2-1.4-2.7-1.9c-0.6-0.6-1-1.4-1.2-2.4
		c-0.2-1.1-0.4-2.6-0.4-4.6c0-1.3,0-2.5,0.1-3.4c0.1-0.9,0.2-1.6,0.4-2.2c0.2-0.6,0.5-1,0.8-1.2c0.3-0.2,0.7-0.4,1.1-0.4
		c0.6,0,1.5,0.4,2.6,1.1c1.1,0.7,2.5,1.5,4.2,2.4c1.7,0.9,3.8,1.6,6.2,2.4c2.4,0.7,5.2,1.1,8.3,1.1c2.1,0,3.9-0.2,5.6-0.7
		c1.6-0.5,3-1.2,4.2-2.1c1.1-0.9,2-2,2.6-3.4c0.6-1.3,0.9-2.8,0.9-4.5C333.9,278.3,333.4,276.7,332.4,275.3z M305.5,117.7h30.7
		l15.3,26.5l-15.3,26.5h-30.7l-15.3-26.5L305.5,117.7z M211.9,190.8h20.5l10.2,12.2l-10.2,12.2h-20.5L201.7,203L211.9,190.8z
		 M186.9,182.3l9.2,6.9l-9.2,6.9h-18.3l-9.2-6.9l9.2-6.9H186.9z M165.4,170.2l-6.5,4.8h-13.1l-6.5-4.8l6.5-4.8h13.1L165.4,170.2z
		 M127.7,154.3l4.9-2.6h9.9l4.9,2.6l-4.9,2.6h-9.9L127.7,154.3z M252.4,328.5l-19.2,72.8c-0.3,1-0.6,1.9-1.1,2.5
		c-0.5,0.6-1.1,1.1-2,1.4c-0.9,0.3-2.1,0.5-3.5,0.6c-1.4,0.1-3.2,0.2-5.4,0.2c-2.5,0-4.4-0.1-5.9-0.2c-1.5-0.1-2.7-0.3-3.5-0.6
		c-0.9-0.3-1.5-0.8-1.9-1.4c-0.4-0.6-0.7-1.5-0.9-2.5l-13.4-53h-0.1l-12.7,53c-0.2,1-0.5,1.8-0.9,2.4c-0.4,0.6-1,1.1-1.8,1.5
		c-0.8,0.3-2,0.6-3.4,0.7c-1.4,0.1-3.4,0.2-5.7,0.2c-2.5,0-4.5-0.1-6-0.2c-1.5-0.1-2.7-0.3-3.5-0.6c-0.9-0.3-1.5-0.8-1.9-1.4
		c-0.4-0.6-0.7-1.5-1-2.5l-19-73c-0.4-1.6-0.6-2.8-0.6-3.7c0-0.9,0.2-1.6,0.7-2c0.5-0.5,1.4-0.8,2.7-0.9c1.2-0.1,2.9-0.2,5.1-0.2
		c2,0,3.6,0,4.8,0.1c1.2,0.1,2.1,0.2,2.7,0.5c0.6,0.2,1,0.6,1.2,1c0.2,0.5,0.4,1.1,0.5,1.9l14.7,64.1h0.1l15.3-63.7
		c0.2-0.8,0.4-1.5,0.7-2c0.3-0.5,0.8-0.9,1.4-1.2c0.7-0.3,1.6-0.5,2.7-0.6c1.2-0.1,2.7-0.2,4.7-0.2c2.1,0,3.7,0,4.9,0.1
		c1.2,0.1,2.2,0.3,2.8,0.5c0.7,0.3,1.2,0.7,1.5,1.2c0.3,0.5,0.5,1.2,0.7,2.1l15.8,63.7h0.1l14.7-63.9c0.1-0.7,0.3-1.3,0.5-1.8
		c0.2-0.5,0.6-0.9,1.2-1.2c0.6-0.3,1.5-0.5,2.6-0.6c1.1-0.1,2.7-0.2,4.7-0.2c1.9,0,3.4,0.1,4.4,0.2c1.1,0.1,1.8,0.4,2.3,0.9
		c0.5,0.5,0.7,1.2,0.6,2.1C253,325.6,252.8,326.9,252.4,328.5z M249.3,187.1l11.3-17.4h22.6l11.3,17.4l-11.3,17.4h-22.6L249.3,187.1
		z M281.1,403.3c0,0.4-0.1,0.8-0.4,1.2c-0.3,0.3-0.7,0.6-1.4,0.8c-0.6,0.2-1.5,0.4-2.6,0.5c-1.1,0.1-2.5,0.2-4.1,0.2
		c-1.6,0-3-0.1-4.1-0.2c-1.1-0.1-2-0.3-2.6-0.5c-0.6-0.2-1.1-0.5-1.4-0.8c-0.3-0.3-0.4-0.7-0.4-1.2v-79c0-0.4,0.1-0.8,0.4-1.2
		c0.3-0.3,0.8-0.6,1.4-0.8c0.7-0.2,1.5-0.4,2.6-0.5c1.1-0.1,2.4-0.2,4.1-0.2c1.7,0,3.1,0.1,4.1,0.2c1.1,0.1,1.9,0.3,2.6,0.5
		c0.6,0.2,1.1,0.5,1.4,0.8c0.3,0.3,0.4,0.7,0.4,1.2V403.3z M284.8,300.8c0,0.4-0.1,0.8-0.4,1.2c-0.3,0.3-0.7,0.6-1.4,0.8
		c-0.6,0.2-1.5,0.4-2.6,0.5c-1.1,0.1-2.5,0.2-4.1,0.2c-1.6,0-3-0.1-4.1-0.2s-2-0.3-2.6-0.5c-0.6-0.2-1.1-0.5-1.4-0.8
		c-0.3-0.3-0.4-0.7-0.4-1.2v-79c0-0.4,0.1-0.8,0.4-1.2c0.3-0.3,0.8-0.6,1.4-0.8c0.7-0.2,1.5-0.4,2.6-0.5c1.1-0.1,2.4-0.2,4.1-0.2
		c1.7,0,3.1,0.1,4.1,0.2c1.1,0.1,1.9,0.3,2.6,0.5c0.6,0.2,1.1,0.5,1.4,0.8c0.3,0.3,0.4,0.7,0.4,1.2V300.8z M365.9,324.8
		c-0.2,0.9-0.5,2.1-1,3.6l-25,74.3c-0.2,0.7-0.5,1.3-0.8,1.8c-0.3,0.5-0.9,0.8-1.7,1c-0.8,0.2-1.8,0.4-3.2,0.5
		c-1.3,0.1-3.1,0.1-5.2,0.1c-1.7,0-3.2,0-4.4,0c-1.2,0-2.3-0.1-3.1-0.2c-0.9-0.1-1.6-0.2-2.1-0.4c-0.5-0.2-1-0.4-1.4-0.6
		c-0.4-0.3-0.6-0.6-0.8-0.9c-0.2-0.4-0.4-0.8-0.6-1.4l-24.9-74.2c-0.5-1.6-0.8-2.8-0.9-3.7c-0.1-0.9,0.1-1.6,0.6-2
		c0.5-0.5,1.5-0.7,2.7-0.8c1.3-0.1,3.1-0.2,5.4-0.2c2,0,3.5,0,4.7,0.1c1.1,0.1,2,0.2,2.6,0.5c0.6,0.2,1,0.5,1.3,1
		c0.2,0.4,0.5,1,0.7,1.6l20.4,64.6h0.1l20-64.2c0.2-0.7,0.4-1.3,0.6-1.8c0.3-0.5,0.7-0.8,1.3-1.1c0.6-0.3,1.5-0.4,2.7-0.5
		c1.2-0.1,2.8-0.1,4.8-0.1c2,0,3.5,0.1,4.6,0.2c1.1,0.1,1.9,0.4,2.3,0.9C366,323.2,366.1,323.9,365.9,324.8z M418.6,257.3
		c-1.5,3.6-3.6,6.7-6.4,9.2c-2.8,2.5-6.2,4.4-10.3,5.7c-4.1,1.3-8.9,1.9-14.4,1.9h-7v26.7c0,0.4-0.1,0.8-0.4,1.2
		c-0.3,0.3-0.7,0.6-1.4,0.8c-0.6,0.2-1.5,0.4-2.6,0.5c-1.1,0.1-2.5,0.2-4.1,0.2c-1.6,0-3-0.1-4.1-0.2c-1.1-0.1-2-0.3-2.6-0.5
		c-0.6-0.2-1.1-0.5-1.4-0.8c-0.3-0.3-0.4-0.7-0.4-1.2v-75.3c0-2,0.5-3.5,1.6-4.6c1.1-1,2.4-1.5,4.2-1.5H389c2,0,3.9,0.1,5.7,0.2
		c1.8,0.2,3.9,0.5,6.4,1c2.5,0.5,5,1.4,7.6,2.7c2.6,1.3,4.8,3,6.6,5.1c1.8,2,3.2,4.4,4.1,7.2c0.9,2.7,1.4,5.8,1.4,9.2
		C420.8,249.5,420.1,253.7,418.6,257.3z"/>
</g>
</svg>
