<svg xmlns="http://www.w3.org/2000/svg" viewBox="0 0 465.99 331.64">
  <defs>
    <style>
      .cls-1 {
        fill: #44dba4;
      }

      .cls-2 {
        fill: #0a0839;
      }

      .cls-3 {
        fill: #fcb70f;
      }

      .cls-4 {
        fill: #f14a3b;
      }

      .cls-5 {
        fill: #fff;
      }
    </style>
  </defs>
  <g id="Layer_2" data-name="Layer 2">
    <g id="Layer_1-2" data-name="Layer 1">
      <g>
        <path class="cls-1" d="M380.61,151.8A78.2,78.2,0,0,1,299,22.67a78.09,78.09,0,0,1,110.58.51L378.19,54.29a34,34,0,1,0,9.87,24.09l44.2.2a78.4,78.4,0,0,1-49.14,72.26C382.29,151.17,381.45,151.49,380.61,151.8Z"/>
        <path class="cls-2" d="M272.84,326.92a80.83,80.83,0,0,1-8.29,2.5A79.06,79.06,0,0,1,168.91,235l44.67,10.17a33.22,33.22,0,1,0,59.06-12.36l-.38-.51c-4.25-5.53-10.27-10-30.09-14.83-32.23-7.92-56-36.74-58.47-69.94,0-.49-.07-1-.1-1.46A78.93,78.93,0,0,1,224,72.53l22.28,40a33.15,33.15,0,0,0-17,30.93c0,.2,0,.42,0,.63A35.1,35.1,0,0,0,255,175.24c14.64,4,22.87,5.12,33.44,10.89a56.68,56.68,0,0,1,20.2,18.29c.27.41.59.78.89,1.18a79.09,79.09,0,0,1-36.64,121.32Z"/>
        <path class="cls-3" d="M137.9,115a76.41,76.41,0,0,0-87.3-26.5A77,77,0,0,0,31,99.06a76.43,76.43,0,1,0,91,122.86,76.34,76.34,0,0,0,16-106.9Z"/>
        <path class="cls-4" d="M393.27,243.58a35.19,35.19,0,1,1,7.35-49.22A35.16,35.16,0,0,1,393.27,243.58Z"/>
        <g>
          <path class="cls-2" d="M445.91,210.14a4.5,4.5,0,0,1-3.55,4.52,5,5,0,0,1,4.28,5.2c0,3.52-3,5.69-7.75,5.69h-9.77V205h9.45C443.09,205,445.91,207,445.91,210.14Zm-4.76.85c0-1.41-1.08-2.2-2.81-2.2h-4.58v4.49h4.58C440.07,213.28,441.15,212.43,441.15,211Zm.71,8.28c0-1.5-1.32-2.41-3.52-2.41h-4.58v4.9h4.58C440.54,221.76,441.86,220.86,441.86,219.27Z"/>
          <path class="cls-2" d="M465.67,205v3.85h-11v4.46h9.92v3.85h-9.92v4.55H466v3.84H450V205Z"/>
        </g>
        <g>
          <path class="cls-5" d="M365.36,205.26v22.4H361.2V208.75h-4.74v-3.49Z"/>
          <path class="cls-5" d="M386.11,207.82q2.53,2.88,2.54,8.25a14,14,0,0,1-1.37,6.45,9.62,9.62,0,0,1-3.86,4.07,11.61,11.61,0,0,1-5.74,1.39,14,14,0,0,1-3.25-.37,8.9,8.9,0,0,1-2.64-1.07l1.53-3.14a7.61,7.61,0,0,0,4.26,1.09,6.55,6.55,0,0,0,5.06-2,8.23,8.23,0,0,0,1.82-5.73v0a6.2,6.2,0,0,1-2.53,1.74,9.6,9.6,0,0,1-3.45.59,8.94,8.94,0,0,1-4-.85,6.46,6.46,0,0,1-2.75-2.41,6.56,6.56,0,0,1-1-3.62,6.82,6.82,0,0,1,1.09-3.82,7.25,7.25,0,0,1,2.95-2.55,9.51,9.51,0,0,1,4.16-.89A9,9,0,0,1,386.11,207.82Zm-3.55,6.91a3.62,3.62,0,0,0,0-5.46,5,5,0,0,0-3.41-1.07,4.73,4.73,0,0,0-3.17,1,3.79,3.79,0,0,0,0,5.55,5.59,5.59,0,0,0,6.55-.06Z"/>
        </g>
      </g>
    </g>
  </g>
</svg>
