<?xml version="1.0" encoding="UTF-8" standalone="no"?>
<!DOCTYPE svg PUBLIC "-//W3C//DTD SVG 1.1//EN" "http://www.w3.org/Graphics/SVG/1.1/DTD/svg11.dtd">
<svg width="100%" height="100%" viewBox="0 0 462 355" version="1.1" xmlns="http://www.w3.org/2000/svg" xmlns:xlink="http://www.w3.org/1999/xlink" xml:space="preserve" xmlns:serif="http://www.serif.com/" style="fill-rule:evenodd;clip-rule:evenodd;stroke-linejoin:round;stroke-miterlimit:2;">
    <g id="Layer-1" serif:id="Layer 1">
        <g transform="matrix(1,0,0,1,377.832,20.3899)">
            <path d="M0,143.133C-8.362,146.147 -17.211,147.703 -26.156,147.606C-35.978,147.606 -45.604,145.661 -54.744,141.869C-64.176,137.98 -72.636,132.34 -79.831,125.047C-87.027,117.754 -92.667,109.295 -96.459,99.765C-100.154,90.625 -101.904,80.998 -101.904,71.177C-101.904,61.357 -99.959,51.73 -96.167,42.59C-92.277,33.158 -86.638,24.698 -79.345,17.503C-72.053,10.307 -63.593,4.667 -54.063,0.875C-44.923,-2.82 -35.297,-4.57 -25.476,-4.57C-15.655,-4.57 -6.028,-2.625 3.112,1.167C12.544,5.056 21.004,10.696 28.199,17.989L-2.333,48.23C-8.557,41.909 -16.821,38.408 -25.67,38.408C-34.519,38.408 -42.784,41.812 -49.104,48.035C-55.425,54.258 -58.926,62.524 -58.926,71.372C-58.926,80.22 -55.522,88.486 -49.299,94.806C-43.076,101.127 -34.811,104.627 -25.962,104.627C-17.113,104.627 -8.849,101.224 -2.528,95.001C3.793,88.778 7.293,80.512 7.293,71.664L50.271,71.858C50.271,81.679 48.327,91.305 44.535,100.446C40.646,109.878 35.006,118.338 27.713,125.533C20.42,132.729 11.961,138.368 2.432,142.161C1.653,142.55 0.876,142.841 0,143.133" style="fill-rule:nonzero;"/>
        </g>
        <g transform="matrix(1,0,0,1,273.108,91.5681)">
            <path d="M0,242.217C-2.626,243.19 -5.349,243.967 -8.071,244.648C-17.697,246.982 -27.616,247.468 -37.534,245.912C-47.355,244.453 -56.689,241.148 -65.247,236.091C-74.095,230.84 -81.777,223.937 -87.903,215.671C-101.224,197.585 -106.086,174.735 -101.127,152.856L-57.662,162.775C-59.704,171.914 -57.759,181.541 -52.12,189.125C-46.966,196.029 -39.479,200.6 -30.922,201.863C-22.365,203.128 -13.905,200.988 -6.904,195.835C0,190.682 4.569,183.195 5.834,174.637C7.098,166.08 4.959,157.62 -0.195,150.619C-0.292,150.425 -0.486,150.328 -0.584,150.133C-4.765,144.785 -10.6,140.409 -29.853,135.742C-61.163,128.061 -84.305,100.056 -86.736,67.774C-86.736,67.287 -86.833,66.801 -86.833,66.315C-87.708,51.632 -84.305,37.047 -77.207,24.309C-70.206,11.862 -59.996,1.653 -47.549,-5.251L-25.865,33.643C-31.116,36.56 -35.395,40.839 -38.312,46.09C-41.326,51.438 -42.688,57.564 -42.396,63.69L-42.396,64.273C-41.423,77.692 -32.186,90.528 -17.503,94.514C-3.307,98.404 4.764,99.473 14.974,105.113C24.309,110.169 30.143,116.489 34.616,122.907C34.907,123.296 35.199,123.685 35.491,124.073C41.617,132.437 45.993,141.674 48.424,151.69C50.757,161.316 51.243,171.234 49.688,181.153C48.229,190.973 44.923,200.308 39.867,208.864C34.616,217.713 27.712,225.395 19.447,231.521C13.516,236.189 6.903,239.689 0,242.217" style="fill-rule:nonzero;"/>
        </g>
        <g transform="matrix(1,0,0,1,141.838,217.198)">
            <path d="M0,-89.458C-11.863,-105.405 -29.171,-115.81 -48.716,-118.824C-61.065,-120.671 -73.414,-119.407 -84.888,-115.226C-91.598,-112.795 -98.015,-109.392 -103.947,-105.016C-119.894,-93.153 -130.298,-75.845 -133.312,-56.3C-136.229,-36.659 -131.368,-17.114 -119.504,-1.07C-107.642,14.975 -90.333,25.282 -70.789,28.296C-51.147,31.213 -31.602,26.351 -15.558,14.489C0.389,2.625 10.793,-14.683 13.808,-34.227C16.725,-53.869 11.863,-73.511 0,-89.458" style="fill-rule:nonzero;"/>
        </g>
        <g transform="matrix(1,0,0,1,380.944,207.453)">
            <path d="M16.044,-4.062C6.903,-16.51 -10.6,-19.135 -23.046,-9.897C-35.492,-0.757 -38.117,16.746 -28.88,29.192C-19.739,41.639 -2.237,44.264 10.21,35.026C22.656,25.789 25.281,8.286 16.044,-4.062" style="fill-rule:nonzero;"/>
        </g>
        <g transform="matrix(1,0,0,1,428.728,216.343)">
            <path d="M0,8.612C0,6.998 -1.424,6.016 -3.799,6.016L-8.737,6.016L-8.737,11.302L-3.799,11.302C-1.424,11.302 0,10.322 0,8.612M-0.759,-0.317C-0.759,-1.835 -1.931,-2.691 -3.799,-2.691L-8.737,-2.691L-8.737,2.153L-3.799,2.153C-1.931,2.153 -0.759,1.236 -0.759,-0.317M4.37,-1.235C4.37,1.172 2.914,3.041 0.539,3.642C3.389,4.179 5.162,6.333 5.162,9.246C5.162,13.045 1.964,15.387 -3.197,15.387L-13.739,15.387L-13.739,-6.775L-3.545,-6.775C1.331,-6.775 4.37,-4.654 4.37,-1.235" style="fill-rule:nonzero;"/>
        </g>
        <g transform="matrix(1,0,0,1,453.652,231.73)">
            <path d="M0,-22.162L0,-18.015L-11.873,-18.015L-11.873,-13.202L-1.172,-13.202L-1.172,-9.055L-11.873,-9.055L-11.873,-4.147L0.348,-4.147L0.348,0L-16.875,0L-16.875,-22.162L0,-22.162Z" style="fill-rule:nonzero;"/>
        </g>
        <g transform="matrix(2.9263,0,0,2.85652,-696.582,-569.244)">
            <text x="360.628px" y="280.574px" style="font-family:'Montserrat-Bold', 'Montserrat';font-weight:700;font-size:12px;fill:white;">21</text>
        </g>
    </g>
</svg>
