<?xml version="1.0" encoding="UTF-8"?>
<svg id="Layer_1" data-name="Layer 1" xmlns="http://www.w3.org/2000/svg" xmlns:serif="http://www.serif.com/" version="1.1" viewBox="0 0 500 500">
  <defs>
    <style>
      .cls-1 {
        fill: #000;
        stroke-width: 0px;
      }

      .cls-2 {
        fill: #fff;
        font-family: Montserrat-Bold, Montserrat;
        font-size: 37.1px;
        font-weight: 700;
        isolation: isolate;
      }
    </style>
  </defs>
  <g id="Layer-1" serif:id="Layer 1">
    <path class="cls-1" d="M408.9,234.9c-9,3.3-18.6,4.9-28.3,4.8-10.6,0-21-2.1-30.9-6.2-10.2-4.2-19.4-10.3-27.2-18.2-7.8-7.9-13.9-17-18-27.4-4-9.9-5.9-20.3-5.9-30.9s2.1-21,6.2-30.9c4.2-10.2,10.3-19.4,18.2-27.2,7.9-7.8,17-13.9,27.4-18,9.9-4,20.3-5.9,30.9-5.9s21,2.1,30.9,6.2c10.2,4.2,19.4,10.3,27.2,18.2l-33,32.7c-6.7-6.8-15.7-10.6-25.3-10.6s-18.5,3.7-25.4,10.4c-6.8,6.7-10.6,15.7-10.6,25.3s3.7,18.5,10.4,25.4c6.7,6.8,15.7,10.6,25.3,10.6s18.5-3.7,25.4-10.4c6.8-6.7,10.6-15.7,10.6-25.3l46.5.2c0,10.6-2.1,21-6.2,30.9-4.2,10.2-10.3,19.4-18.2,27.2-7.9,7.8-17,13.9-27.4,18-.8.4-1.7.7-2.6,1.1"/>
    <path class="cls-1" d="M295.6,419.1c-2.8,1.1-5.8,1.9-8.7,2.6-10.4,2.5-21.2,3.1-31.9,1.4-10.6-1.6-20.7-5.2-30-10.6-9.6-5.7-17.9-13.2-24.5-22.1-14.4-19.6-19.7-44.3-14.3-68l47,10.7c-2.2,9.9-.1,20.3,6,28.5,5.6,7.5,13.7,12.4,22.9,13.8,9.3,1.4,18.4-.9,26-6.5,7.5-5.6,12.4-13.7,13.8-22.9,1.4-9.3-.9-18.4-6.5-26-.1-.2-.3-.3-.4-.5-4.5-5.8-10.8-10.5-31.7-15.6-33.9-8.3-58.9-38.6-61.6-73.6,0-.5-.1-1.1-.1-1.6-.9-15.9,2.7-31.7,10.4-45.5,7.6-13.5,18.6-24.5,32.1-32l23.5,42.1c-5.7,3.2-10.3,7.8-13.5,13.5-3.3,5.8-4.7,12.4-4.4,19v.6c1.1,14.5,11,28.4,26.9,32.7,15.4,4.2,24.1,5.4,35.1,11.5,10.1,5.5,16.4,12.3,21.3,19.3.3.4.6.8.9,1.3,6.6,9.1,11.4,19,14,29.9,2.5,10.4,3.1,21.2,1.4,31.9-1.6,10.6-5.2,20.7-10.6,30-5.7,9.6-13.2,17.9-22.1,24.5-6.4,5.1-13.6,8.8-21,11.6"/>
    <path class="cls-1" d="M153.5,196.1c-12.8-17.3-31.6-28.5-52.7-31.8-13.4-2-26.7-.6-39.1,3.9-7.3,2.6-14.2,6.3-20.6,11-17.3,12.8-28.5,31.6-31.8,52.7-3.2,21.3,2.1,42.4,14.9,59.8,12.8,17.4,31.6,28.5,52.7,31.8,21.3,3.2,42.4-2.1,59.8-14.9,17.3-12.8,28.5-31.6,31.8-52.7,3.2-21.3-2.1-42.5-14.9-59.8"/>
    <path class="cls-1" d="M429.6,278c-9.9-13.5-28.8-16.3-42.3-6.3-13.5,9.9-16.3,28.8-6.3,42.3,9.9,13.5,28.8,16.3,42.3,6.3,13.5-10,16.3-28.9,6.3-42.3"/>
    <path class="cls-1" d="M464,301.4c0-1.7-1.5-2.8-4.1-2.8h-5.3v5.7h5.3c2.6,0,4.1-1.1,4.1-2.9M463.2,291.7c0-1.6-1.3-2.6-3.3-2.6h-5.3v5.2h5.3c2,0,3.3-1,3.3-2.7M468.7,290.7c0,2.6-1.6,4.6-4.1,5.3,3.1.6,5,2.9,5,6.1s-3.5,6.6-9,6.6h-11.4v-24h11c5.3,0,8.6,2.3,8.6,6"/>
    <path class="cls-1" d="M491,284.7v4.5h-12.8v5.2h11.6v4.5h-11.6v5.3h13.2v4.5h-18.6v-24h18.3Z"/>
    <text class="cls-2" transform="translate(384.2 308.2) scale(1 1)"><tspan x="0" y="0">24</tspan></text>
  </g>
</svg>