<?xml version="1.0" encoding="UTF-8" standalone="no"?>
<svg width="728px" height="152px" viewBox="0 0 182 38" version="1.1" xmlns="http://www.w3.org/2000/svg" xmlns:xlink="http://www.w3.org/1999/xlink">
    <!-- Generator: Sketch 40 (33762) - http://www.bohemiancoding.com/sketch -->
    <title>Combilogos_FRIS_zwart 2</title>
    <desc>Created with Sketch.</desc>
    <defs>
        <polygon id="path-1" points="0.06 0.311 0.06 17.052 18.581 17.052 18.581 0.311"></polygon>
    </defs>
    <g id="Page-1" stroke="none" stroke-width="1" fill="none" fill-rule="evenodd">
        <g id="Combilogos_FRIS_zwart">
            <g id="logoNED">
                <polyline id="Fill-1" fill="#000106" points="0.262 9.416 4.517 9.416 4.517 10.594 1.487 10.594 1.487 12.295 4.412 12.295 4.412 13.473 1.487 13.473 1.487 16.314 0.262 16.314 0.262 9.416"></polyline>
                <path d="M6.671,10.594 L6.671,13.075 L7.446,13.075 C8.158,13.075 8.618,12.955 8.901,12.745 C9.184,12.536 9.283,12.237 9.283,11.866 C9.283,11.489 9.184,11.175 8.901,10.95 C8.618,10.725 8.158,10.594 7.446,10.594 L6.671,10.594 L6.671,10.594 Z M5.446,16.314 L5.446,9.416 L7.425,9.416 C7.88,9.416 8.372,9.474 8.833,9.621 C9.293,9.767 9.707,10.008 10.016,10.379 C10.324,10.751 10.513,11.238 10.513,11.902 C10.513,12.384 10.393,12.776 10.183,13.096 C9.974,13.415 9.681,13.666 9.33,13.849 C9.471,14.164 9.749,14.53 10.068,14.844 C10.387,15.163 10.753,15.435 11.067,15.545 L11.067,15.603 L10.523,16.419 C10.183,16.419 9.833,16.268 9.508,16.032 C9.184,15.802 8.885,15.487 8.645,15.158 C8.404,14.828 8.22,14.488 8.121,14.21 C7.896,14.247 7.66,14.252 7.425,14.252 L6.671,14.252 L6.671,16.314 L5.446,16.314 L5.446,16.314 Z" id="Fill-2" fill="#000106"></path>
                <polygon id="Fill-3" fill="#000106" points="11.843 16.314 13.068 16.314 13.068 9.416 11.843 9.416"></polygon>
                <g id="Group-7" transform="translate(0.000000, 9.000000)">
                    <mask id="mask-2" fill="white">
                        <use xlink:href="#path-1"></use>
                    </mask>
                    <g id="Clip-5"></g>
                    <path d="M17.785,1.578 C17.466,1.51 16.99,1.463 16.529,1.463 C16.126,1.463 15.791,1.499 15.566,1.599 C15.341,1.699 15.215,1.851 15.215,2.096 C15.215,2.348 15.367,2.557 15.597,2.735 C15.828,2.913 16.136,3.07 16.44,3.195 C16.592,3.264 16.738,3.321 16.88,3.378 C17.168,3.489 17.445,3.603 17.764,3.829 C18.083,4.059 18.33,4.357 18.476,4.724 C18.544,4.907 18.581,5.111 18.581,5.331 C18.581,6.038 18.183,6.556 17.618,6.901 C17.052,7.247 16.314,7.419 15.639,7.419 C15.1,7.419 14.561,7.32 14.101,7.116 L14.101,5.964 L14.116,5.959 C14.31,6.038 14.572,6.111 14.854,6.168 C15.137,6.231 15.446,6.268 15.744,6.268 C16.22,6.268 16.613,6.168 16.89,6.011 C17.162,5.854 17.319,5.634 17.319,5.378 C17.319,5.127 17.168,4.912 16.942,4.734 C16.712,4.556 16.414,4.41 16.11,4.284 C15.958,4.221 15.807,4.164 15.66,4.106 C15.367,3.996 15.1,3.881 14.786,3.661 C14.472,3.441 14.216,3.154 14.069,2.777 C13.991,2.588 13.954,2.379 13.954,2.149 C13.954,1.484 14.294,1.023 14.786,0.73 C15.278,0.437 15.927,0.311 16.561,0.311 C17.005,0.311 17.424,0.374 17.801,0.474 L17.785,1.578" id="Fill-4" fill="#000106" mask="url(#mask-2)"></path>
                    <path d="M0.806,13.43 C0.806,14.241 1.026,14.953 1.439,15.466 C1.853,15.979 2.465,16.298 3.24,16.298 C3.994,16.298 4.585,16.005 4.983,15.519 C5.38,15.032 5.595,14.346 5.595,13.556 C5.595,12.745 5.386,12.027 4.983,11.515 C4.58,11.001 3.988,10.698 3.214,10.698 C2.46,10.698 1.858,10.991 1.445,11.478 C1.026,11.965 0.806,12.65 0.806,13.43 L0.806,13.43 Z M0,13.493 C0,12.488 0.33,11.603 0.9,10.965 C1.471,10.327 2.277,9.944 3.235,9.944 C4.192,9.944 4.983,10.327 5.538,10.965 C6.092,11.603 6.401,12.488 6.401,13.493 C6.401,14.498 6.071,15.382 5.506,16.021 C4.941,16.659 4.135,17.052 3.177,17.052 C2.219,17.052 1.429,16.665 0.875,16.026 C0.319,15.388 0,14.498 0,13.493 L0,13.493 Z" id="Fill-6" fill="#000106" mask="url(#mask-2)"></path>
                </g>
                <path d="M7.647,20.515 L8.191,20.515 L8.343,21.017 C8.568,20.871 8.84,20.719 9.128,20.603 C9.416,20.488 9.714,20.41 9.971,20.41 C10.489,20.41 10.965,20.541 11.321,20.865 C11.672,21.19 11.892,21.703 11.892,22.472 L11.892,25.947 L11.08,25.947 L11.08,22.519 C11.08,21.996 10.944,21.656 10.735,21.446 C10.521,21.237 10.222,21.158 9.892,21.158 C9.641,21.158 9.385,21.227 9.139,21.326 C8.893,21.425 8.667,21.556 8.458,21.682 L8.458,25.947 L7.647,25.947 L7.647,20.515" id="Fill-8" fill="#000106"></path>
                <path d="M16.829,21.368 C16.462,21.227 16.106,21.153 15.767,21.153 C15.222,21.153 14.756,21.326 14.427,21.671 C14.092,22.017 13.898,22.535 13.898,23.221 C13.898,23.765 14.018,24.283 14.285,24.665 C14.552,25.047 14.96,25.298 15.542,25.298 C16.085,25.298 16.541,25.11 16.829,24.707 L16.829,21.368 L16.829,21.368 Z M17.64,25.953 L17.127,25.953 L16.96,25.471 C16.546,25.827 16.06,26.052 15.432,26.052 C14.72,26.052 14.133,25.722 13.725,25.194 C13.317,24.67 13.087,23.948 13.087,23.152 C13.087,22.383 13.307,21.703 13.757,21.206 C14.207,20.708 14.887,20.41 15.824,20.41 C16.18,20.41 16.51,20.457 16.829,20.52 L16.829,18.474 L17.588,18.369 L17.64,18.369 L17.64,25.953 L17.64,25.953 Z" id="Fill-9" fill="#000106"></path>
                <path d="M22.285,22.702 C22.274,21.854 22.054,21.164 21.206,21.164 C20.354,21.164 19.861,21.833 19.73,22.702 L22.285,22.702 L22.285,22.702 Z M23.08,23.435 L19.694,23.435 C19.767,24.571 20.453,25.298 21.489,25.298 C21.976,25.298 22.457,25.162 22.955,24.911 L22.97,24.916 L22.97,25.665 C22.405,25.942 21.913,26.052 21.411,26.052 C19.835,26.052 18.888,24.937 18.888,23.163 C18.888,21.587 19.621,20.41 21.222,20.41 C22.614,20.41 23.08,21.452 23.08,22.702 L23.08,23.435 L23.08,23.435 Z" id="Fill-10" fill="#000106"></path>
                <path d="M24.303,20.515 L24.847,20.515 L25.036,21.132 C25.438,20.666 25.868,20.41 26.37,20.41 C26.501,20.41 26.663,20.426 26.825,20.457 C26.988,20.488 27.145,20.541 27.271,20.598 L26.988,21.326 C26.784,21.227 26.464,21.158 26.239,21.158 C25.763,21.158 25.392,21.462 25.114,21.886 L25.114,25.947 L24.303,25.947 L24.303,20.515" id="Fill-11" fill="#000106"></path>
                <polyline id="Fill-12" fill="#000106" points="27.736 25.921 30.593 21.268 27.819 21.268 27.819 20.515 31.954 20.515 31.98 20.546 29.123 25.194 31.964 25.194 31.964 25.947 27.762 25.947 27.736 25.921"></polyline>
                <path d="M33.235,23.205 C33.235,23.77 33.376,24.299 33.664,24.675 C33.952,25.058 34.376,25.298 34.941,25.298 C35.485,25.298 35.899,25.079 36.176,24.717 C36.454,24.356 36.595,23.843 36.595,23.262 C36.595,22.692 36.454,22.163 36.176,21.781 C35.899,21.399 35.48,21.164 34.915,21.164 C34.371,21.164 33.952,21.383 33.669,21.75 C33.387,22.116 33.235,22.634 33.235,23.205 L33.235,23.205 Z M32.424,23.247 C32.424,22.457 32.685,21.75 33.13,21.237 C33.57,20.724 34.198,20.41 34.936,20.41 C35.674,20.41 36.302,20.729 36.731,21.237 C37.16,21.745 37.406,22.446 37.406,23.221 C37.406,24.011 37.15,24.712 36.71,25.225 C36.265,25.738 35.632,26.052 34.894,26.052 C34.146,26.052 33.533,25.733 33.104,25.225 C32.675,24.723 32.424,24.021 32.424,23.247 L32.424,23.247 Z" id="Fill-13" fill="#000106"></path>
                <path d="M41.632,22.702 C41.622,21.854 41.401,21.164 40.554,21.164 C39.701,21.164 39.208,21.833 39.078,22.702 L41.632,22.702 L41.632,22.702 Z M42.427,23.435 L39.041,23.435 C39.114,24.571 39.8,25.298 40.836,25.298 C41.323,25.298 41.805,25.162 42.302,24.911 L42.317,24.916 L42.317,25.665 C41.752,25.942 41.26,26.052 40.758,26.052 C39.183,26.052 38.235,24.937 38.235,23.163 C38.235,21.587 38.968,20.41 40.569,20.41 C41.961,20.41 42.427,21.452 42.427,22.702 L42.427,23.435 L42.427,23.435 Z" id="Fill-14" fill="#000106"></path>
                <path d="M47.429,26.052 C47.157,26.036 46.837,25.864 46.518,25.612 C46.199,25.366 45.864,25.031 45.571,24.691 C45.272,24.356 45,24.011 44.807,23.733 C44.707,23.597 44.628,23.482 44.571,23.383 C44.508,23.283 44.472,23.221 44.461,23.189 L44.461,25.947 L43.65,25.947 L43.65,18.51 L44.409,18.369 L44.461,18.369 L44.461,23.09 L46.618,20.515 L47.654,20.515 L45.445,23.142 C45.471,23.262 45.644,23.514 45.895,23.807 C46.146,24.105 46.471,24.445 46.806,24.733 C47.141,25.021 47.486,25.251 47.764,25.335 L47.429,26.052" id="Fill-15" fill="#000106"></path>
                <path d="M48.327,25.047 L48.358,25.021 C48.704,25.157 49.217,25.293 49.609,25.293 C50.18,25.293 50.975,25.031 50.975,24.414 C50.975,24.126 50.813,23.937 50.567,23.786 C50.243,23.582 49.677,23.419 49.18,23.152 C48.609,22.849 48.348,22.409 48.348,21.839 C48.348,20.802 49.206,20.41 50.195,20.41 C50.593,20.41 50.98,20.473 51.3,20.561 L51.3,21.294 L51.268,21.31 C50.98,21.231 50.447,21.137 50.07,21.137 C49.593,21.137 49.148,21.279 49.148,21.77 C49.148,22.069 49.321,22.273 49.573,22.43 C49.913,22.655 50.562,22.844 51.085,23.11 C51.64,23.398 51.787,23.728 51.787,24.309 C51.787,24.895 51.499,25.335 51.08,25.623 C50.656,25.911 50.101,26.052 49.562,26.052 C49.102,26.052 48.683,25.957 48.327,25.806 L48.327,25.047" id="Fill-16" fill="#000106"></path>
                <path d="M53.847,25.1 C54.203,25.246 54.554,25.309 54.91,25.309 C55.454,25.309 55.92,25.104 56.255,24.728 C56.584,24.356 56.778,23.812 56.778,23.126 C56.778,22.587 56.658,22.101 56.391,21.745 C56.124,21.389 55.716,21.164 55.135,21.164 C54.59,21.164 54.125,21.352 53.847,21.75 L53.847,25.1 L53.847,25.1 Z M53.036,20.515 L53.581,20.515 L53.727,20.986 C54.141,20.63 54.622,20.41 55.245,20.41 C55.957,20.41 56.543,20.708 56.951,21.206 C57.359,21.708 57.589,22.404 57.589,23.194 C57.589,23.964 57.375,24.675 56.925,25.199 C56.475,25.722 55.789,26.052 54.852,26.052 C54.497,26.052 54.162,26.01 53.847,25.942 L53.847,28.344 L53.036,28.344 L53.036,20.515 L53.036,20.515 Z" id="Fill-17" fill="#000106"></path>
                <path d="M59.23,23.205 C59.23,23.77 59.371,24.299 59.659,24.675 C59.947,25.058 60.371,25.298 60.936,25.298 C61.48,25.298 61.894,25.079 62.171,24.717 C62.449,24.356 62.59,23.843 62.59,23.262 C62.59,22.692 62.449,22.163 62.171,21.781 C61.894,21.399 61.475,21.164 60.91,21.164 C60.366,21.164 59.947,21.383 59.665,21.75 C59.382,22.116 59.23,22.634 59.23,23.205 L59.23,23.205 Z M58.419,23.247 C58.419,22.457 58.68,21.75 59.126,21.237 C59.565,20.724 60.193,20.41 60.931,20.41 C61.669,20.41 62.297,20.729 62.726,21.237 C63.155,21.745 63.401,22.446 63.401,23.221 C63.401,24.011 63.145,24.712 62.705,25.225 C62.26,25.738 61.627,26.052 60.889,26.052 C60.141,26.052 59.528,25.733 59.099,25.225 C58.67,24.723 58.419,24.021 58.419,23.247 L58.419,23.247 Z" id="Fill-18" fill="#000106"></path>
                <path d="M64.231,20.515 L64.775,20.515 L64.964,21.132 C65.367,20.666 65.796,20.41 66.298,20.41 C66.429,20.41 66.591,20.426 66.753,20.457 C66.916,20.488 67.073,20.541 67.199,20.598 L66.916,21.326 C66.712,21.227 66.393,21.158 66.168,21.158 C65.691,21.158 65.319,21.462 65.042,21.886 L65.042,25.947 L64.231,25.947 L64.231,20.515" id="Fill-19" fill="#000106"></path>
                <path d="M67.533,20.515 L68.135,20.515 L68.135,19.541 L68.894,19.4 L68.946,19.4 L68.946,20.515 L70.454,20.515 L70.454,21.268 L68.946,21.268 L68.946,23.937 C68.946,24.435 69.056,24.77 69.229,24.989 C69.401,25.209 69.647,25.304 69.925,25.304 C70.239,25.304 70.59,25.183 70.945,24.979 L71.165,25.722 C70.705,25.932 70.249,26.052 69.826,26.052 C69.349,26.052 68.936,25.905 68.627,25.565 C68.318,25.23 68.135,24.696 68.135,23.937 L68.135,21.268 L67.533,21.268 L67.533,20.515" id="Fill-20" fill="#000106"></path>
                <path d="M74.797,23.556 C74.049,23.55 73.457,23.54 73.054,23.639 C72.651,23.744 72.431,23.953 72.431,24.377 C72.431,24.958 72.887,25.298 73.331,25.298 C74.143,25.298 74.797,24.963 74.797,23.995 L74.797,23.556 L74.797,23.556 Z M75.891,26.052 C75.509,25.926 75.242,25.649 75.069,25.293 C74.656,25.77 74.069,26.052 73.395,26.052 C73.033,26.052 72.594,25.974 72.243,25.722 C71.887,25.471 71.631,25.052 71.631,24.377 C71.631,23.231 72.405,22.807 73.703,22.807 C73.996,22.807 74.315,22.828 74.797,22.87 L74.797,22.195 C74.797,21.452 74.446,21.158 73.771,21.158 C73.19,21.158 72.688,21.268 72.138,21.546 L71.929,20.839 C72.667,20.541 73.085,20.41 73.913,20.41 C74.991,20.41 75.603,20.965 75.603,22.195 L75.603,23.922 C75.603,24.565 75.703,25.089 76.352,25.293 L75.891,26.052 L75.891,26.052 Z" id="Fill-21" fill="#000106"></path>
                <path d="M80.138,23.556 C79.39,23.55 78.798,23.54 78.396,23.639 C77.993,23.744 77.772,23.953 77.772,24.377 C77.772,24.958 78.228,25.298 78.673,25.298 C79.484,25.298 80.138,24.963 80.138,23.995 L80.138,23.556 L80.138,23.556 Z M81.232,26.052 C80.85,25.926 80.583,25.649 80.411,25.293 C79.997,25.77 79.411,26.052 78.736,26.052 C78.374,26.052 77.935,25.974 77.585,25.722 C77.229,25.471 76.972,25.052 76.972,24.377 C76.972,23.231 77.747,22.807 79.044,22.807 C79.337,22.807 79.657,22.828 80.138,22.87 L80.138,22.195 C80.138,21.452 79.788,21.158 79.112,21.158 C78.532,21.158 78.029,21.268 77.479,21.546 L77.27,20.839 C78.008,20.541 78.427,20.41 79.254,20.41 C80.332,20.41 80.944,20.965 80.944,22.195 L80.944,23.922 C80.944,24.565 81.044,25.089 81.693,25.293 L81.232,26.052 L81.232,26.052 Z" id="Fill-22" fill="#000106"></path>
                <polyline id="Fill-23" fill="#000106" points="83.485 18.369 83.538 18.369 83.538 25.947 82.732 25.947 82.732 18.474 83.485 18.369"></polyline>
                <polyline id="Fill-24" fill="#000106" points="130.145 10.279 127.43 18.16 125.816 18.16 123.101 10.279 124.562 10.279 126.624 16.264 128.685 10.279 130.145 10.279"></polyline>
                <polyline id="Fill-25" fill="#000106" points="132.287 9.514 132.463 9.514 132.463 18.042 131.085 18.042 131.085 9.631 132.287 9.514"></polyline>
                <path d="M136.975,15.568 C136.333,15.568 135.833,15.557 135.491,15.639 C135.149,15.722 134.96,15.898 134.96,16.258 C134.96,16.758 135.32,17.035 135.821,17.035 C135.992,17.035 136.28,16.999 136.528,16.847 C136.775,16.693 136.975,16.416 136.975,15.939 L136.975,15.568 L136.975,15.568 Z M138.619,18.16 C138.17,18.16 137.7,18.019 137.246,17.518 C137.004,17.7 136.792,17.859 136.54,17.972 C136.28,18.089 135.992,18.16 135.597,18.16 C135.172,18.16 134.672,18.077 134.278,17.795 C133.876,17.512 133.583,17.029 133.583,16.21 C133.583,15.674 133.712,15.244 134.042,14.956 C134.372,14.667 134.908,14.508 135.726,14.508 C136.056,14.508 136.439,14.508 136.981,14.555 L136.981,14.249 C136.981,13.825 136.845,13.53 136.627,13.353 C136.41,13.177 136.115,13.106 135.786,13.106 C135.261,13.106 134.643,13.295 134.148,13.524 L133.824,12.323 C134.466,12.017 135.285,11.805 136.056,11.805 C136.663,11.805 137.228,11.935 137.652,12.252 C138.071,12.57 138.335,13.071 138.335,13.819 L138.335,16.093 C138.335,16.381 138.43,16.581 138.594,16.723 C138.753,16.864 138.977,16.952 139.243,17.006 L138.619,18.16 L138.619,18.16 Z" id="Fill-26" fill="#000106"></path>
                <path d="M143.046,15.568 C142.404,15.568 141.904,15.557 141.562,15.639 C141.22,15.722 141.032,15.898 141.032,16.258 C141.032,16.758 141.391,17.035 141.892,17.035 C142.063,17.035 142.351,16.999 142.598,16.847 C142.846,16.693 143.046,16.416 143.046,15.939 L143.046,15.568 L143.046,15.568 Z M144.69,18.16 C144.242,18.16 143.771,18.019 143.317,17.518 C143.076,17.7 142.864,17.859 142.611,17.972 C142.351,18.089 142.063,18.16 141.668,18.16 C141.244,18.16 140.744,18.077 140.349,17.795 C139.948,17.512 139.654,17.029 139.654,16.21 C139.654,15.674 139.784,15.244 140.113,14.956 C140.443,14.667 140.979,14.508 141.797,14.508 C142.127,14.508 142.51,14.508 143.052,14.555 L143.052,14.249 C143.052,13.825 142.917,13.53 142.699,13.353 C142.481,13.177 142.186,13.106 141.857,13.106 C141.333,13.106 140.713,13.295 140.219,13.524 L139.895,12.323 C140.538,12.017 141.356,11.805 142.127,11.805 C142.734,11.805 143.299,11.935 143.723,12.252 C144.142,12.57 144.407,13.071 144.407,13.819 L144.407,16.093 C144.407,16.381 144.501,16.581 144.666,16.723 C144.825,16.864 145.049,16.952 145.314,17.006 L144.69,18.16 L144.69,18.16 Z" id="Fill-27" fill="#000106"></path>
                <path d="M146.136,11.929 L147.303,11.929 L147.438,12.405 C148.003,12.028 148.705,11.811 149.388,11.811 C149.971,11.811 150.531,11.97 150.937,12.323 C151.343,12.677 151.608,13.212 151.608,13.983 L151.608,18.042 L150.23,18.042 L150.23,14.391 C150.23,13.936 150.065,13.619 149.812,13.418 C149.559,13.218 149.217,13.136 148.846,13.136 C148.375,13.136 147.892,13.277 147.515,13.513 L147.515,18.042 L146.136,18.042 L146.136,11.929" id="Fill-28" fill="#000106"></path>
                <path d="M156.826,13.224 C156.478,13.136 156.125,13.095 155.847,13.095 C155.324,13.095 154.881,13.248 154.576,13.565 C154.269,13.884 154.092,14.354 154.092,14.991 C154.092,15.456 154.222,15.91 154.469,16.258 C154.716,16.604 155.082,16.835 155.571,16.835 C155.989,16.835 156.455,16.687 156.826,16.458 L156.826,13.224 L156.826,13.224 Z M158.204,18.042 L157.161,18.042 L156.914,17.583 C156.443,17.936 155.948,18.16 155.27,18.16 C154.393,18.16 153.739,17.807 153.309,17.265 C152.879,16.723 152.667,15.992 152.667,15.238 C152.667,14.084 153.014,13.224 153.591,12.652 C154.168,12.087 154.982,11.811 155.924,11.811 C156.201,11.811 156.501,11.828 156.826,11.869 L156.826,9.631 L157.992,9.514 L158.204,9.514 L158.204,18.042 L158.204,18.042 Z" id="Fill-29" fill="#000106"></path>
                <path d="M163.261,14.408 C163.232,13.96 163.073,13.643 162.861,13.431 C162.649,13.224 162.378,13.136 162.113,13.136 C161.831,13.136 161.542,13.229 161.306,13.436 C161.065,13.648 160.882,13.966 160.793,14.408 L163.261,14.408 L163.261,14.408 Z M164.209,16.458 L164.209,17.795 C163.668,18.06 162.997,18.16 162.472,18.16 C161.625,18.16 160.841,17.895 160.264,17.37 C159.686,16.847 159.321,16.045 159.321,14.985 C159.321,13.954 159.663,13.165 160.181,12.623 C160.694,12.087 161.382,11.811 162.072,11.811 C162.266,11.811 162.614,11.834 162.973,11.958 C163.333,12.081 163.727,12.317 164.021,12.724 C164.316,13.13 164.522,13.73 164.522,14.579 L164.522,15.498 L160.811,15.498 C160.923,15.992 161.176,16.328 161.506,16.54 C161.831,16.752 162.225,16.841 162.62,16.841 C163.138,16.841 163.686,16.693 164.157,16.439 L164.209,16.458 L164.209,16.458 Z" id="Fill-30" fill="#000106"></path>
                <path d="M169.256,13.448 C168.909,13.236 168.567,13.142 168.219,13.142 C167.772,13.142 167.36,13.307 166.989,13.589 L166.989,18.042 L165.61,18.042 L165.61,11.929 L166.777,11.929 L166.917,12.429 C167.342,12.069 167.86,11.811 168.473,11.811 C168.637,11.811 168.868,11.822 169.091,11.863 C169.315,11.904 169.533,11.964 169.692,12.052 L169.256,13.448" id="Fill-31" fill="#000106"></path>
                <path d="M173.984,14.408 C173.955,13.96 173.795,13.643 173.583,13.431 C173.372,13.224 173.101,13.136 172.835,13.136 C172.553,13.136 172.264,13.229 172.029,13.436 C171.788,13.648 171.605,13.966 171.516,14.408 L173.984,14.408 L173.984,14.408 Z M174.932,16.458 L174.932,17.795 C174.391,18.06 173.719,18.16 173.195,18.16 C172.347,18.16 171.564,17.895 170.987,17.37 C170.409,16.847 170.043,16.045 170.043,14.985 C170.043,13.954 170.385,13.165 170.904,12.623 C171.417,12.087 172.105,11.811 172.794,11.811 C172.989,11.811 173.336,11.834 173.696,11.958 C174.055,12.081 174.45,12.317 174.744,12.724 C175.039,13.13 175.245,13.73 175.245,14.579 L175.245,15.498 L171.534,15.498 C171.646,15.992 171.899,16.328 172.229,16.54 C172.553,16.752 172.948,16.841 173.342,16.841 C173.861,16.841 174.409,16.693 174.879,16.439 L174.932,16.458 L174.932,16.458 Z" id="Fill-32" fill="#000106"></path>
                <path d="M176.333,11.929 L177.5,11.929 L177.634,12.405 C178.2,12.028 178.901,11.811 179.584,11.811 C180.167,11.811 180.727,11.97 181.133,12.323 C181.54,12.677 181.804,13.212 181.804,13.983 L181.804,18.042 L180.426,18.042 L180.426,14.391 C180.426,13.936 180.261,13.619 180.008,13.418 C179.755,13.218 179.414,13.136 179.042,13.136 C178.571,13.136 178.088,13.277 177.711,13.513 L177.711,18.042 L176.333,18.042 L176.333,11.929" id="Fill-33" fill="#000106"></path>
                <path d="M125.331,26.082 L125.833,26.082 L125.833,22.692 L125.331,22.692 L125.331,26.082 Z M125.233,21.769 C125.233,21.572 125.386,21.419 125.583,21.419 C125.778,21.419 125.935,21.572 125.935,21.769 C125.935,21.958 125.772,22.114 125.583,22.114 C125.4,22.114 125.233,21.951 125.233,21.769 L125.233,21.769 Z" id="Fill-34" fill="#000106"></path>
                <path d="M126.721,25.52 L126.742,25.504 C126.957,25.589 127.277,25.674 127.522,25.674 C127.877,25.674 128.374,25.511 128.374,25.125 C128.374,24.945 128.273,24.828 128.12,24.733 C127.917,24.606 127.564,24.505 127.254,24.338 C126.898,24.148 126.735,23.875 126.735,23.519 C126.735,22.872 127.27,22.627 127.887,22.627 C128.135,22.627 128.377,22.666 128.577,22.722 L128.577,23.179 L128.557,23.188 C128.377,23.14 128.044,23.081 127.809,23.081 C127.512,23.081 127.234,23.169 127.234,23.477 C127.234,23.662 127.342,23.79 127.499,23.888 C127.711,24.028 128.116,24.145 128.443,24.312 C128.789,24.492 128.88,24.697 128.88,25.06 C128.88,25.426 128.701,25.7 128.439,25.88 C128.174,26.06 127.829,26.147 127.493,26.147 C127.205,26.147 126.944,26.089 126.721,25.994 L126.721,25.52" id="Fill-35" fill="#000106"></path>
                <path d="M131.876,24.371 C131.876,24.724 131.964,25.054 132.144,25.288 C132.324,25.527 132.588,25.677 132.941,25.677 C133.281,25.677 133.539,25.54 133.711,25.314 C133.884,25.09 133.972,24.77 133.972,24.407 C133.972,24.051 133.884,23.721 133.711,23.482 C133.539,23.244 133.277,23.098 132.924,23.098 C132.584,23.098 132.324,23.234 132.147,23.463 C131.971,23.691 131.876,24.015 131.876,24.371 L131.876,24.371 Z M131.37,24.397 C131.37,23.904 131.534,23.463 131.811,23.144 C132.085,22.823 132.477,22.627 132.938,22.627 C133.398,22.627 133.79,22.826 134.057,23.144 C134.326,23.46 134.479,23.897 134.479,24.381 C134.479,24.874 134.319,25.311 134.044,25.632 C133.767,25.951 133.372,26.147 132.912,26.147 C132.445,26.147 132.062,25.948 131.794,25.632 C131.527,25.318 131.37,24.881 131.37,24.397 L131.37,24.397 Z" id="Fill-36" fill="#000106"></path>
                <path d="M135.269,22.692 L135.609,22.692 L135.704,23.006 C135.844,22.915 136.013,22.82 136.193,22.748 C136.373,22.676 136.559,22.627 136.719,22.627 C137.042,22.627 137.339,22.709 137.561,22.911 C137.78,23.114 137.917,23.434 137.917,23.914 L137.917,26.082 L137.411,26.082 L137.411,23.943 C137.411,23.616 137.327,23.404 137.196,23.273 C137.062,23.144 136.875,23.094 136.669,23.094 C136.513,23.094 136.353,23.137 136.2,23.198 C136.046,23.261 135.906,23.343 135.775,23.421 L135.775,26.082 L135.269,26.082 L135.269,22.692" id="Fill-37" fill="#000106"></path>
                <path d="M141.01,23.225 C140.782,23.137 140.56,23.091 140.348,23.091 C140.008,23.091 139.717,23.198 139.512,23.414 C139.303,23.63 139.182,23.953 139.182,24.381 C139.182,24.721 139.257,25.044 139.423,25.282 C139.59,25.52 139.845,25.677 140.208,25.677 C140.546,25.677 140.831,25.56 141.01,25.309 L141.01,23.225 L141.01,23.225 Z M141.517,26.085 L141.197,26.085 L141.092,25.785 C140.834,26.007 140.531,26.147 140.139,26.147 C139.695,26.147 139.329,25.941 139.074,25.611 C138.82,25.285 138.676,24.835 138.676,24.338 C138.676,23.858 138.813,23.434 139.094,23.124 C139.375,22.813 139.799,22.627 140.383,22.627 C140.606,22.627 140.811,22.656 141.01,22.696 L141.01,21.419 L141.484,21.353 L141.517,21.353 L141.517,26.085 L141.517,26.085 Z" id="Fill-38" fill="#000106"></path>
                <path d="M144.426,24.058 C144.419,23.528 144.282,23.098 143.753,23.098 C143.221,23.098 142.914,23.516 142.833,24.058 L144.426,24.058 L144.426,24.058 Z M144.922,24.515 L142.809,24.515 C142.855,25.224 143.283,25.677 143.929,25.677 C144.233,25.677 144.534,25.592 144.844,25.436 L144.854,25.438 L144.854,25.905 C144.5,26.079 144.194,26.147 143.88,26.147 C142.898,26.147 142.307,25.452 142.307,24.345 C142.307,23.362 142.764,22.627 143.763,22.627 C144.631,22.627 144.922,23.277 144.922,24.058 L144.922,24.515 L144.922,24.515 Z" id="Fill-39" fill="#000106"></path>
                <path d="M145.695,22.692 L146.035,22.692 L146.152,23.078 C146.404,22.787 146.671,22.627 146.985,22.627 C147.066,22.627 147.167,22.637 147.269,22.656 C147.37,22.676 147.468,22.709 147.546,22.745 L147.37,23.198 C147.243,23.137 147.043,23.094 146.903,23.094 C146.606,23.094 146.374,23.283 146.201,23.548 L146.201,26.082 L145.695,26.082 L145.695,22.692" id="Fill-40" fill="#000106"></path>
                <polyline id="Fill-41" fill="#000106" points="147.845 26.065 149.628 23.163 147.898 23.163 147.898 22.692 150.477 22.692 150.494 22.712 148.71 25.611 150.484 25.611 150.484 26.082 147.862 26.082 147.845 26.065"></polyline>
                <path d="M151.286,24.371 C151.286,24.724 151.374,25.054 151.553,25.288 C151.733,25.527 151.998,25.677 152.35,25.677 C152.69,25.677 152.948,25.54 153.121,25.314 C153.293,25.09 153.381,24.77 153.381,24.407 C153.381,24.051 153.293,23.721 153.121,23.482 C152.948,23.244 152.686,23.098 152.333,23.098 C151.994,23.098 151.733,23.234 151.556,23.463 C151.38,23.691 151.286,24.015 151.286,24.371 L151.286,24.371 Z M150.78,24.397 C150.78,23.904 150.943,23.463 151.22,23.144 C151.495,22.823 151.886,22.627 152.346,22.627 C152.807,22.627 153.199,22.826 153.466,23.144 C153.735,23.46 153.888,23.897 153.888,24.381 C153.888,24.874 153.728,25.311 153.454,25.632 C153.176,25.951 152.781,26.147 152.321,26.147 C151.854,26.147 151.471,25.948 151.204,25.632 C150.936,25.318 150.78,24.881 150.78,24.397 L150.78,24.397 Z" id="Fill-42" fill="#000106"></path>
                <path d="M156.537,24.058 C156.53,23.528 156.392,23.098 155.864,23.098 C155.332,23.098 155.024,23.516 154.943,24.058 L156.537,24.058 L156.537,24.058 Z M157.033,24.515 L154.919,24.515 C154.965,25.224 155.393,25.677 156.04,25.677 C156.343,25.677 156.644,25.592 156.955,25.436 L156.964,25.438 L156.964,25.905 C156.612,26.079 156.304,26.147 155.991,26.147 C155.008,26.147 154.417,25.452 154.417,24.345 C154.417,23.362 154.875,22.627 155.874,22.627 C156.742,22.627 157.033,23.277 157.033,24.058 L157.033,24.515 L157.033,24.515 Z" id="Fill-43" fill="#000106"></path>
                <path d="M160.164,26.147 C159.994,26.138 159.794,26.029 159.595,25.873 C159.396,25.72 159.187,25.511 159.004,25.299 C158.819,25.09 158.649,24.874 158.528,24.701 L158.381,24.482 L158.312,24.361 L158.312,26.082 L157.806,26.082 L157.806,21.442 L158.28,21.353 L158.312,21.353 L158.312,24.299 L159.658,22.692 L160.304,22.692 L158.926,24.332 C158.943,24.407 159.05,24.563 159.207,24.746 C159.364,24.933 159.566,25.145 159.775,25.324 C159.984,25.504 160.2,25.647 160.373,25.7 L160.164,26.147" id="Fill-44" fill="#000106"></path>
                <polyline id="lijn" fill="#386A7C" points="123.052 37.159 110.44 0.076 110.62 0.013 123.232 37.098 123.052 37.159"></polyline>
                <g id="leeuw" transform="translate(94.000000, 5.000000)" fill="#000106">
                    <path d="M16.695,13.51 C15.785,12.817 15.358,13.514 14.789,13.467 C14.302,13.431 13.849,12.648 13.475,12.835 C12.76,13.198 13.76,14.485 14.195,14.748 C14.584,14.98 15.071,15.193 15.189,15.249 C15.762,15.517 15.99,15.924 16.064,16.559 C16.083,16.703 16.064,17.037 16.027,17.191 C15.764,18.305 13.816,19.315 12.695,18.55 C12.167,18.189 11.688,17.723 11.519,16.895 C11.217,15.434 10.164,14.358 9.825,12.926 C9.617,12.058 9.468,11.14 9.24,10.266 C9.008,9.358 8.769,8.464 8.582,7.641 C8.409,6.876 8.045,5.735 7.784,5.039 C6.712,2.247 6.23,2.45 6.23,2.45 C6.23,2.45 6.619,3.225 8.035,10.07 C8.093,10.351 8.61,13.364 8.984,14.357 C9.119,14.713 9.353,15.472 9.507,15.81 C9.957,16.788 11.148,18.277 11.226,19.615 C11.271,20.389 11.361,21.032 11.379,21.619 C11.39,21.788 11.467,22.488 11.576,22.8 C11.869,23.617 14.214,26.253 16.702,26.253 L16.702,24.256 C14.227,24.256 11.896,22.869 11.839,22.723 C11.804,22.657 11.969,21.712 12.135,21.293 C12.463,20.478 13.073,19.733 14.146,19.655 C15.344,19.568 16.067,19.918 16.702,19.918 L16.695,13.51" id="Fill-46"></path>
                    <path d="M5.953,6.254 C5.863,7.754 3.547,9.8 2.822,11.113 C2.466,11.756 2.031,12.867 1.919,13.51 C1.611,15.292 2.002,16.401 2.437,17.449 C3.203,19.285 2.333,19.96 2.933,19.589 C3.674,18.984 3.562,17.572 3.507,16.692 C3.464,15.977 3.417,15.164 3.525,14.314 C3.73,12.723 4.696,11.014 5.518,9.816 C6.494,8.391 6.14,6.917 5.953,6.254" id="Fill-47"></path>
                    <path d="M6.422,10.509 C6.422,10.509 6.667,11.695 5.622,14.74 C2.886,22.715 8.112,23.472 9.598,25.346 C9.598,25.346 10.176,24.534 7.805,21.935 C6.94,20.984 6.159,18.891 6.84,15.902 C7.822,11.572 6.422,10.509 6.422,10.509" id="Fill-48"></path>
                    <path d="M1.248,5.28 C1.124,4.809 1.085,4.386 1.112,4.009 C1.238,2.138 2.939,1.379 3.362,1.099 C3.362,1.099 4.129,0.578 4.227,0.047 C4.227,0.047 5.01,2.017 3.215,3.148 C2.305,3.721 1.682,4.392 1.248,5.28" id="Fill-49"></path>
                    <path d="M5.538,3.469 C5.635,3.659 6.341,4.691 3.454,7.074 C0.57,9.455 1.469,11.158 1.469,11.158 C1.469,11.158 -1.607,9.446 1.938,6.486 C5.482,3.534 4.754,2.935 4.754,2.935 C4.754,2.935 5.262,2.91 5.538,3.469" id="Fill-50"></path>
                    <path d="M10.843,5.08 C10.883,4.97 10.946,5.059 11.071,4.978 C11.205,4.853 11.344,4.643 11.563,4.57 C11.72,4.525 11.935,4.549 12.082,4.606 C12.179,4.63 12.122,4.88 12.048,4.946 C11.891,5.059 11.431,4.871 11.431,5.216 C11.449,5.783 12.197,5.197 12.586,5.213 C12.777,6.596 10.505,6.218 10.843,5.08 L10.843,5.08 Z M9.288,4.381 C9.787,4.446 10.104,6.001 11.258,6.34 C12.109,6.588 13.009,6.455 13.212,6.964 C12.82,7.173 13.127,7.855 13.518,7.743 C13.843,6.834 14.005,3.319 9.288,4.381 L9.288,4.381 Z" id="Fill-51"></path>
                </g>
            </g>
        </g>
    </g>
</svg>