<svg id="svg" version="1.1" width="400" height="400" viewBox="0 0 400 400" xmlns="http://www.w3.org/2000/svg" xmlns:xlink="http://www.w3.org/1999/xlink" ><g id="svgg"><path id="path0" d="M271.200 49.983 C 271.200 50.229,270.149 50.400,268.643 50.400 C 266.739 50.400,266.027 50.553,265.855 51.000 C 265.714 51.367,265.108 51.600,264.293 51.600 C 263.560 51.600,262.768 51.792,262.532 52.028 C 262.297 52.263,261.766 52.512,261.352 52.581 C 260.939 52.650,260.645 52.907,260.700 53.153 C 260.755 53.399,260.350 53.623,259.800 53.650 C 258.172 53.731,258.101 53.761,257.287 54.700 C 256.857 55.195,256.311 55.600,256.072 55.600 C 255.230 55.600,253.600 56.535,253.600 57.018 C 253.600 57.287,253.285 57.621,252.900 57.760 C 251.589 58.234,250.404 59.071,250.669 59.336 C 250.814 59.481,250.633 59.600,250.267 59.600 C 249.900 59.600,249.600 59.870,249.600 60.200 C 249.600 60.530,249.319 60.800,248.976 60.800 C 248.633 60.800,248.464 60.980,248.600 61.200 C 248.736 61.420,248.567 61.600,248.224 61.600 C 247.881 61.600,247.600 61.881,247.600 62.224 C 247.600 62.567,247.420 62.736,247.200 62.600 C 246.980 62.464,246.800 62.633,246.800 62.976 C 246.800 63.319,246.612 63.600,246.383 63.600 C 245.942 63.600,244.961 64.491,243.988 65.777 C 243.566 66.335,243.549 66.464,243.930 66.235 C 244.368 65.971,244.369 66.061,243.933 66.758 C 243.644 67.221,243.219 67.600,242.989 67.600 C 242.759 67.600,242.543 67.962,242.510 68.404 C 242.476 68.846,242.168 69.489,241.825 69.833 C 241.481 70.176,241.200 70.725,241.200 71.052 C 241.200 71.379,241.040 71.549,240.845 71.428 C 240.484 71.205,240.056 72.201,239.740 74.000 C 239.643 74.550,239.302 75.200,238.982 75.444 C 238.662 75.688,238.400 76.374,238.400 76.968 C 238.400 77.561,238.253 77.956,238.074 77.845 C 237.894 77.735,237.704 78.485,237.650 79.513 C 237.597 80.540,237.394 81.480,237.198 81.601 C 236.767 81.868,236.436 83.623,236.340 86.152 C 236.301 87.187,236.118 88.127,235.935 88.240 C 235.378 88.584,235.528 94.304,236.100 94.536 C 236.478 94.689,236.453 94.852,236.000 95.200 C 235.547 95.548,235.522 95.711,235.900 95.864 C 236.232 95.999,236.400 96.995,236.400 98.833 C 236.400 101.199,236.501 101.601,237.100 101.606 C 237.698 101.611,237.713 101.669,237.200 102.000 C 236.800 102.258,236.767 102.390,237.100 102.394 C 237.417 102.398,237.600 102.995,237.600 104.024 C 237.600 105.004,237.758 105.549,238.000 105.400 C 238.366 105.174,238.590 106.272,238.429 107.505 C 238.392 107.783,238.641 108.118,238.981 108.248 C 239.322 108.379,239.600 108.901,239.600 109.409 C 239.600 109.918,239.788 110.396,240.018 110.473 C 240.248 110.549,240.466 111.014,240.503 111.506 C 240.540 111.998,240.802 112.400,241.085 112.400 C 241.368 112.400,241.600 112.703,241.600 113.074 C 241.600 113.445,242.005 114.194,242.500 114.739 C 242.995 115.283,243.177 115.601,242.905 115.444 C 242.571 115.252,242.487 115.361,242.646 115.777 C 242.777 116.117,243.045 116.296,243.242 116.174 C 243.439 116.052,243.600 116.246,243.600 116.605 C 243.600 117.343,244.525 118.400,245.171 118.400 C 245.407 118.400,245.600 118.670,245.600 119.000 C 245.600 119.330,245.772 119.600,245.981 119.600 C 246.191 119.600,246.661 120.228,247.025 120.996 C 247.390 121.765,247.849 122.293,248.047 122.171 C 248.244 122.049,248.514 122.232,248.646 122.577 C 248.779 122.922,249.497 123.493,250.244 123.847 C 250.990 124.201,251.600 124.664,251.600 124.874 C 251.600 125.371,252.631 126.400,253.129 126.400 C 253.341 126.400,253.618 126.670,253.745 127.000 C 253.871 127.330,254.341 127.600,254.787 127.600 C 255.234 127.600,255.600 127.780,255.600 128.000 C 255.600 128.220,256.095 128.403,256.700 128.406 C 257.463 128.410,257.635 128.517,257.261 128.754 C 256.865 129.005,257.041 129.206,257.927 129.515 C 258.590 129.746,259.237 129.829,259.366 129.701 C 259.495 129.572,259.600 129.677,259.600 129.933 C 259.600 130.190,260.159 130.400,260.843 130.400 C 261.779 130.400,262.029 130.547,261.857 130.995 C 261.732 131.323,261.757 131.571,261.914 131.548 C 262.883 131.403,264.415 131.652,264.245 131.926 C 264.135 132.106,264.888 132.296,265.919 132.350 C 267.001 132.406,267.924 132.678,268.101 132.994 C 268.560 133.816,285.000 133.878,285.473 133.060 C 285.653 132.749,286.520 132.397,287.400 132.279 C 290.057 131.922,291.383 131.512,291.720 130.942 C 291.896 130.644,292.355 130.400,292.740 130.400 C 293.125 130.400,293.615 130.225,293.829 130.011 C 294.042 129.798,294.584 129.567,295.032 129.499 C 295.480 129.430,296.275 128.975,296.799 128.487 C 297.322 127.999,297.897 127.578,298.075 127.550 C 298.254 127.522,298.625 127.469,298.900 127.432 C 299.175 127.394,299.355 127.147,299.300 126.882 C 299.245 126.617,299.470 126.400,299.800 126.400 C 300.130 126.400,300.400 126.220,300.400 126.000 C 300.400 125.780,300.754 125.600,301.186 125.600 C 301.618 125.600,302.167 125.235,302.406 124.789 C 302.645 124.343,303.011 124.083,303.220 124.212 C 303.429 124.342,303.600 124.156,303.600 123.800 C 303.600 123.444,303.780 123.264,304.000 123.400 C 304.220 123.536,304.400 123.444,304.400 123.195 C 304.400 122.644,305.398 121.600,305.925 121.600 C 306.135 121.600,306.406 121.222,306.526 120.760 C 306.647 120.297,306.938 120.038,307.173 120.183 C 307.408 120.328,307.623 120.257,307.650 120.024 C 307.797 118.778,308.424 117.600,308.943 117.597 C 309.425 117.594,310.400 115.803,310.400 114.920 C 310.400 114.634,310.605 114.400,310.856 114.400 C 311.528 114.400,312.373 113.132,312.387 112.100 C 312.394 111.605,312.617 111.245,312.882 111.300 C 313.360 111.399,313.454 111.158,313.550 109.576 C 313.578 109.123,313.784 108.867,314.010 109.006 C 314.235 109.145,314.394 109.111,314.363 108.930 C 314.169 107.813,314.477 106.400,314.915 106.400 C 315.198 106.400,315.472 105.905,315.525 105.300 C 315.677 103.525,315.826 102.841,316.122 102.545 C 316.275 102.392,316.400 101.137,316.400 99.757 C 316.400 98.272,316.591 97.129,316.868 96.958 C 317.185 96.762,317.251 96.889,317.073 97.355 C 316.928 97.733,316.970 97.942,317.167 97.821 C 317.717 97.481,317.720 87.321,317.170 86.981 C 316.843 86.779,316.867 86.603,317.257 86.356 C 317.680 86.088,317.645 86.011,317.100 86.006 C 316.506 86.001,316.400 85.607,316.400 83.400 C 316.400 81.933,316.226 80.800,316.000 80.800 C 315.780 80.800,315.600 80.164,315.600 79.387 C 315.600 78.501,315.377 77.889,315.000 77.745 C 314.670 77.618,314.400 77.026,314.400 76.429 C 314.400 75.146,313.080 72.253,312.679 72.655 C 312.525 72.808,312.400 72.363,312.400 71.667 C 312.400 70.970,312.220 70.400,312.000 70.400 C 311.780 70.400,311.600 70.091,311.600 69.713 C 311.600 69.335,311.140 68.630,310.578 68.147 C 310.015 67.664,309.527 66.893,309.493 66.434 C 309.458 65.975,309.198 65.600,308.915 65.600 C 308.632 65.600,308.400 65.319,308.400 64.976 C 308.400 64.633,308.220 64.464,308.000 64.600 C 307.780 64.736,307.600 64.567,307.600 64.224 C 307.600 63.881,307.330 63.600,307.000 63.600 C 306.670 63.600,306.400 63.300,306.400 62.933 C 306.400 62.567,306.295 62.372,306.167 62.500 C 305.934 62.733,304.400 61.405,304.400 60.971 C 304.400 60.579,303.278 59.600,302.829 59.600 C 302.593 59.600,302.400 59.330,302.400 59.000 C 302.400 58.670,302.119 58.400,301.776 58.400 C 301.433 58.400,301.264 58.220,301.400 58.000 C 301.536 57.780,301.266 57.600,300.800 57.600 C 300.334 57.600,300.061 57.425,300.193 57.212 C 300.325 56.998,299.975 56.709,299.416 56.568 C 298.857 56.428,298.400 56.191,298.400 56.043 C 298.400 55.894,297.365 55.238,296.100 54.586 C 294.835 53.934,293.743 53.275,293.674 53.122 C 293.605 52.970,293.260 52.955,292.909 53.090 C 292.484 53.254,292.366 53.179,292.558 52.868 C 292.754 52.550,292.462 52.400,291.647 52.400 C 290.987 52.400,290.336 52.220,290.200 52.000 C 290.064 51.780,289.333 51.600,288.576 51.600 C 287.602 51.600,287.200 51.420,287.200 50.982 C 287.200 50.643,286.975 50.394,286.700 50.430 C 285.231 50.621,282.383 50.350,282.576 50.039 C 282.705 49.831,280.337 49.654,277.000 49.622 C 273.210 49.586,271.200 49.711,271.200 49.983 " stroke="none" fill="#3cf4cc" fill-rule="evenodd"></path><path id="path1" d="M173.745 17.000 C 173.618 17.330,173.166 17.600,172.740 17.600 C 171.994 17.600,171.298 18.028,170.281 19.113 C 170.016 19.395,169.305 20.146,168.700 20.782 L 167.600 21.938 167.600 121.769 C 167.600 176.676,167.739 221.600,167.909 221.600 C 168.079 221.600,168.557 222.230,168.972 223.000 C 169.387 223.770,169.968 224.400,170.263 224.400 C 170.558 224.400,170.800 224.567,170.800 224.771 C 170.800 224.975,171.368 225.425,172.061 225.771 C 173.519 226.498,181.600 226.692,181.600 226.000 C 181.600 225.780,181.825 225.597,182.100 225.592 C 182.903 225.580,185.600 223.030,185.600 222.283 C 185.600 221.907,185.780 221.600,186.000 221.600 C 186.266 221.600,186.400 188.000,186.400 121.600 C 186.400 55.200,186.266 21.600,186.000 21.600 C 185.780 21.600,185.600 21.330,185.600 21.000 C 185.600 20.670,185.351 20.400,185.047 20.400 C 184.742 20.400,184.396 20.027,184.276 19.570 C 184.157 19.114,183.686 18.643,183.230 18.524 C 182.773 18.404,182.400 18.148,182.400 17.953 C 182.400 17.759,181.969 17.600,181.443 17.600 C 180.916 17.600,180.382 17.330,180.255 17.000 C 180.079 16.540,179.320 16.400,177.000 16.400 C 174.680 16.400,173.921 16.540,173.745 17.000 M221.038 32.600 C 220.444 33.150,219.784 33.600,219.571 33.600 C 219.357 33.600,218.978 34.050,218.727 34.600 C 218.477 35.150,218.120 35.600,217.936 35.600 C 217.751 35.600,217.600 35.848,217.600 36.151 C 217.600 36.454,217.330 36.926,217.000 37.200 C 216.508 37.609,216.400 38.978,216.400 44.825 C 216.400 49.146,216.242 52.050,216.000 52.200 C 215.738 52.362,215.600 66.460,215.600 93.190 C 215.600 125.429,215.496 133.968,215.100 134.100 C 214.712 134.229,214.572 138.545,214.474 153.433 C 214.401 164.617,214.193 172.758,213.974 172.980 C 213.448 173.515,213.473 227.074,214.000 227.400 C 214.220 227.536,214.400 228.794,214.400 230.195 C 214.400 231.926,214.592 232.935,215.000 233.343 C 215.356 233.699,215.600 234.677,215.600 235.748 C 215.600 236.741,215.780 237.664,216.000 237.800 C 216.220 237.936,216.400 238.654,216.400 239.395 C 216.400 240.136,216.670 241.013,217.000 241.343 C 217.330 241.673,217.600 242.496,217.600 243.171 C 217.600 243.847,217.780 244.400,218.000 244.400 C 218.220 244.400,218.400 244.918,218.400 245.551 C 218.400 246.184,218.670 246.926,219.000 247.200 C 219.330 247.474,219.600 248.126,219.600 248.649 C 219.600 249.172,219.780 249.600,220.000 249.600 C 220.220 249.600,220.400 250.028,220.400 250.551 C 220.400 251.074,220.670 251.726,221.000 252.000 C 221.330 252.274,221.613 252.791,221.629 253.149 C 221.645 253.507,222.007 254.340,222.434 255.000 C 222.860 255.660,223.318 256.515,223.451 256.900 C 223.584 257.285,223.852 257.600,224.047 257.600 C 224.241 257.600,224.400 257.966,224.400 258.413 C 224.400 258.859,224.670 259.329,225.000 259.455 C 225.330 259.582,225.600 260.026,225.600 260.443 C 225.600 260.859,225.780 261.200,226.000 261.200 C 226.220 261.200,226.400 261.470,226.400 261.800 C 226.400 262.130,226.670 262.400,227.000 262.400 C 227.330 262.400,227.600 262.744,227.600 263.164 C 227.600 264.627,231.711 268.400,233.306 268.400 C 234.189 268.400,234.800 268.624,234.945 269.000 C 235.268 269.844,239.132 269.844,239.455 269.000 C 239.597 268.630,240.205 268.400,241.043 268.400 C 241.789 268.400,242.400 268.220,242.400 268.000 C 242.400 267.780,242.670 267.600,243.000 267.600 C 243.330 267.600,243.600 267.407,243.600 267.171 C 243.600 266.618,244.618 265.600,245.171 265.600 C 245.407 265.600,245.600 265.251,245.600 264.824 C 245.600 264.397,245.780 263.936,246.000 263.800 C 246.227 263.660,246.400 261.670,246.400 259.200 C 246.400 256.730,246.227 254.740,246.000 254.600 C 245.780 254.464,245.597 254.048,245.593 253.676 C 245.589 253.304,245.139 252.576,244.593 252.058 C 244.047 251.540,243.600 250.775,243.600 250.358 C 243.600 249.941,243.330 249.600,243.000 249.600 C 242.670 249.600,242.400 249.266,242.400 248.858 C 242.400 248.451,241.950 247.631,241.400 247.038 C 240.850 246.444,240.400 245.608,240.400 245.179 C 240.400 244.751,240.220 244.400,240.000 244.400 C 239.780 244.400,239.600 244.034,239.600 243.587 C 239.600 243.141,239.330 242.671,239.000 242.545 C 238.670 242.418,238.400 241.894,238.400 241.381 C 238.400 240.867,238.220 240.336,238.000 240.200 C 237.780 240.064,237.600 239.423,237.600 238.776 C 237.600 237.997,237.397 237.600,237.000 237.600 C 236.567 237.600,236.400 237.156,236.400 236.000 C 236.400 235.120,236.220 234.400,236.000 234.400 C 235.780 234.400,235.600 233.584,235.600 232.587 C 235.600 231.345,235.411 230.702,235.000 230.545 C 234.568 230.379,234.400 229.703,234.400 228.131 C 234.400 226.930,234.194 225.562,233.942 225.092 C 233.345 223.977,233.405 173.635,234.003 173.037 C 234.255 172.785,234.400 165.421,234.400 152.920 C 234.400 140.898,234.547 133.200,234.775 133.200 C 235.533 133.200,235.634 129.047,235.800 90.800 C 235.893 69.350,236.075 48.875,236.204 45.300 C 236.363 40.887,236.304 38.800,236.019 38.800 C 235.789 38.800,235.600 38.352,235.600 37.805 C 235.600 36.700,233.659 33.639,232.943 33.615 C 232.691 33.607,232.382 33.330,232.255 33.000 C 232.129 32.670,231.659 32.400,231.213 32.400 C 230.766 32.400,230.400 32.220,230.400 32.000 C 230.400 31.008,222.188 31.534,221.038 32.600 M128.200 42.087 C 127.760 42.328,127.130 42.679,126.800 42.866 C 126.470 43.052,125.944 43.325,125.631 43.472 C 124.713 43.902,123.600 45.154,123.600 45.757 C 123.600 46.064,123.353 46.409,123.050 46.525 C 122.115 46.884,121.194 52.954,121.959 53.719 C 122.550 54.310,122.591 205.435,122.000 205.800 C 121.494 206.113,121.476 209.382,121.976 210.305 C 122.183 210.687,122.447 211.459,122.563 212.020 C 122.788 213.102,125.594 216.400,126.290 216.400 C 126.516 216.400,126.926 216.670,127.200 217.000 C 127.587 217.466,128.669 217.600,132.049 217.600 C 135.650 217.600,136.400 217.497,136.400 217.000 C 136.400 216.659,136.759 216.400,137.231 216.400 C 138.285 216.400,140.400 214.313,140.400 213.274 C 140.400 212.840,140.670 212.382,141.000 212.255 C 141.531 212.052,141.600 202.526,141.600 129.855 C 141.600 57.185,141.531 47.659,141.000 47.455 C 140.670 47.329,140.400 46.941,140.400 46.594 C 140.400 45.774,137.075 42.400,136.268 42.400 C 135.926 42.400,135.536 42.220,135.400 42.000 C 135.068 41.462,129.208 41.533,128.200 42.087 M83.600 78.000 C 83.600 78.220,83.150 78.400,82.600 78.400 C 81.978 78.400,81.600 78.627,81.600 79.000 C 81.600 79.330,81.407 79.600,81.171 79.600 C 80.638 79.600,79.600 80.610,79.600 81.129 C 79.600 81.341,79.330 81.618,79.000 81.745 C 78.670 81.871,78.400 82.341,78.400 82.787 C 78.400 83.234,78.220 83.600,78.000 83.600 C 77.744 83.600,77.600 87.256,77.600 93.767 C 77.600 101.544,77.483 103.972,77.100 104.100 C 76.364 104.345,75.262 273.200,75.996 273.200 C 76.246 273.200,76.400 275.075,76.400 278.124 C 76.400 281.833,76.545 283.238,76.987 283.824 C 77.390 284.356,77.579 285.631,77.587 287.876 C 77.594 289.678,77.780 291.264,78.000 291.400 C 78.220 291.536,78.400 292.785,78.400 294.175 C 78.400 295.933,78.583 296.854,79.000 297.200 C 79.409 297.539,79.600 298.447,79.600 300.049 C 79.600 301.350,79.779 302.400,80.000 302.400 C 80.220 302.400,80.400 303.216,80.400 304.213 C 80.400 305.455,80.589 306.098,81.000 306.255 C 81.420 306.417,81.600 307.072,81.600 308.443 C 81.600 309.519,81.780 310.400,82.000 310.400 C 82.220 310.400,82.400 310.957,82.400 311.638 C 82.400 312.319,82.647 313.354,82.949 313.938 C 83.656 315.306,84.400 317.665,84.400 318.541 C 84.400 318.917,84.670 319.329,85.000 319.455 C 85.370 319.597,85.600 320.205,85.600 321.043 C 85.600 321.789,85.780 322.400,86.000 322.400 C 86.220 322.400,86.400 322.850,86.400 323.400 C 86.400 324.022,86.627 324.400,87.000 324.400 C 87.383 324.400,87.600 324.785,87.600 325.466 C 87.600 326.674,88.787 329.600,89.277 329.600 C 89.455 329.600,89.600 329.874,89.600 330.208 C 89.600 330.542,90.019 331.487,90.531 332.308 C 91.043 333.129,91.717 334.385,92.029 335.100 C 92.340 335.815,92.821 336.400,93.098 336.400 C 93.374 336.400,93.600 336.768,93.600 337.217 C 93.600 337.667,94.050 338.520,94.600 339.113 C 95.150 339.707,95.600 340.432,95.600 340.724 C 95.600 341.364,96.572 342.400,97.171 342.400 C 97.407 342.400,97.600 342.784,97.600 343.253 C 97.600 343.722,98.230 344.700,99.000 345.426 C 99.770 346.152,100.400 346.938,100.400 347.173 C 100.400 347.407,101.120 348.341,102.000 349.248 C 102.880 350.155,103.600 350.978,103.600 351.077 C 103.600 351.431,104.751 352.400,105.171 352.400 C 105.407 352.400,105.600 352.593,105.600 352.829 C 105.600 353.382,106.618 354.400,107.171 354.400 C 107.407 354.400,107.600 354.593,107.600 354.829 C 107.600 355.382,108.618 356.400,109.171 356.400 C 109.407 356.400,109.600 356.593,109.600 356.829 C 109.600 357.382,110.618 358.400,111.171 358.400 C 111.407 358.400,111.600 358.670,111.600 359.000 C 111.600 359.330,111.735 359.600,111.900 359.600 C 112.065 359.600,112.908 360.230,113.773 361.000 C 114.638 361.770,115.501 362.400,115.692 362.400 C 115.882 362.400,116.455 362.850,116.965 363.400 C 117.475 363.950,118.077 364.400,118.303 364.400 C 118.529 364.400,118.818 364.670,118.945 365.000 C 119.071 365.330,119.451 365.600,119.787 365.600 C 120.124 365.600,120.400 365.780,120.400 366.000 C 120.400 366.220,120.670 366.400,121.000 366.400 C 121.330 366.400,121.600 366.670,121.600 367.000 C 121.600 367.330,121.935 367.600,122.345 367.600 C 122.755 367.600,123.520 368.009,124.045 368.509 C 124.570 369.008,125.540 369.683,126.200 370.008 C 126.860 370.333,127.544 370.824,127.720 371.099 C 127.896 371.375,128.391 371.600,128.820 371.600 C 129.249 371.600,129.600 371.780,129.600 372.000 C 129.600 372.220,130.050 372.400,130.600 372.400 C 131.222 372.400,131.600 372.627,131.600 373.000 C 131.600 373.373,131.978 373.600,132.600 373.600 C 133.150 373.600,133.600 373.780,133.600 374.000 C 133.600 374.220,134.050 374.400,134.600 374.400 C 135.222 374.400,135.600 374.627,135.600 375.000 C 135.600 375.373,135.978 375.600,136.600 375.600 C 137.150 375.600,137.600 375.780,137.600 376.000 C 137.600 376.220,138.031 376.400,138.557 376.400 C 139.084 376.400,139.618 376.670,139.745 377.000 C 139.871 377.330,140.330 377.600,140.764 377.600 C 141.198 377.600,141.664 377.780,141.800 378.000 C 141.936 378.220,142.582 378.400,143.236 378.400 C 143.924 378.400,144.522 378.653,144.655 379.000 C 144.797 379.370,145.405 379.600,146.243 379.600 C 146.989 379.600,147.600 379.780,147.600 380.000 C 147.600 380.220,148.301 380.400,149.157 380.400 C 150.172 380.400,150.795 380.609,150.945 381.000 C 151.096 381.394,151.720 381.600,152.764 381.600 C 153.638 381.600,154.464 381.780,154.600 382.000 C 154.736 382.220,155.917 382.400,157.224 382.400 C 159.069 382.400,159.600 382.534,159.600 383.000 C 159.600 383.480,160.200 383.600,162.600 383.600 C 164.333 383.600,165.600 383.769,165.600 384.000 C 165.600 384.547,189.062 384.547,189.400 384.000 C 189.536 383.780,190.974 383.600,192.595 383.600 C 194.682 383.600,195.718 383.425,196.143 383.000 C 196.501 382.642,197.479 382.400,198.571 382.400 C 199.577 382.400,200.400 382.220,200.400 382.000 C 200.400 381.780,201.300 381.600,202.400 381.600 C 203.911 381.600,204.400 381.453,204.400 381.000 C 204.400 380.557,204.864 380.400,206.176 380.400 C 207.153 380.400,208.064 380.220,208.200 380.000 C 208.336 379.780,208.874 379.600,209.395 379.600 C 209.916 379.600,210.613 379.330,210.943 379.000 C 211.273 378.670,212.006 378.400,212.571 378.400 C 213.137 378.400,213.600 378.220,213.600 378.000 C 213.600 377.780,214.146 377.600,214.813 377.600 C 215.521 377.600,216.121 377.351,216.255 377.000 C 216.382 376.670,216.916 376.400,217.443 376.400 C 217.969 376.400,218.400 376.220,218.400 376.000 C 218.400 375.780,218.850 375.600,219.400 375.600 C 220.022 375.600,220.400 375.373,220.400 375.000 C 220.400 374.627,220.778 374.400,221.400 374.400 C 221.950 374.400,222.400 374.220,222.400 374.000 C 222.400 373.780,222.850 373.600,223.400 373.600 C 224.022 373.600,224.400 373.373,224.400 373.000 C 224.400 372.627,224.778 372.400,225.400 372.400 C 225.950 372.400,226.400 372.220,226.400 372.000 C 226.400 371.780,226.850 371.600,227.400 371.600 C 228.022 371.600,228.400 371.373,228.400 371.000 C 228.400 370.670,228.634 370.400,228.920 370.400 C 229.839 370.400,231.594 369.416,231.597 368.900 C 231.599 368.625,231.973 368.400,232.429 368.400 C 233.314 368.400,234.400 367.534,234.400 366.829 C 234.400 366.593,234.850 366.400,235.400 366.400 C 235.950 366.400,236.400 366.220,236.400 366.000 C 236.400 365.780,236.670 365.600,237.000 365.600 C 237.330 365.600,237.600 365.351,237.600 365.046 C 237.600 364.741,238.230 364.192,239.000 363.827 C 239.770 363.461,240.400 362.991,240.400 362.781 C 240.400 362.572,240.593 362.400,240.829 362.400 C 241.382 362.400,242.400 361.382,242.400 360.829 C 242.400 360.593,242.593 360.400,242.829 360.400 C 243.064 360.400,243.508 360.175,243.815 359.900 C 245.028 358.812,245.577 358.400,245.814 358.400 C 246.263 358.400,253.780 350.618,254.800 349.097 C 255.350 348.277,255.935 347.604,256.100 347.603 C 256.265 347.601,256.400 347.330,256.400 347.000 C 256.400 346.670,256.593 346.400,256.829 346.400 C 257.382 346.400,258.400 345.382,258.400 344.829 C 258.400 344.593,258.577 344.400,258.792 344.400 C 259.008 344.400,259.289 343.985,259.416 343.477 C 259.544 342.969,260.087 342.224,260.624 341.821 C 261.161 341.418,261.600 340.753,261.600 340.344 C 261.600 339.935,261.780 339.600,262.000 339.600 C 262.220 339.600,262.400 339.330,262.400 339.000 C 262.400 338.670,262.670 338.400,263.000 338.400 C 263.330 338.400,263.600 338.059,263.600 337.642 C 263.600 337.225,264.047 336.460,264.593 335.942 C 265.139 335.424,265.589 334.685,265.593 334.300 C 265.597 333.915,265.737 333.600,265.905 333.600 C 266.211 333.600,266.933 332.415,267.429 331.100 C 267.574 330.715,267.852 330.400,268.047 330.400 C 268.241 330.400,268.400 329.969,268.400 329.443 C 268.400 328.916,268.670 328.382,269.000 328.255 C 269.330 328.129,269.600 327.659,269.600 327.213 C 269.600 326.766,269.780 326.400,270.000 326.400 C 270.220 326.400,270.400 325.969,270.400 325.443 C 270.400 324.916,270.670 324.382,271.000 324.255 C 271.330 324.129,271.600 323.670,271.600 323.236 C 271.600 322.802,271.780 322.336,272.000 322.200 C 272.220 322.064,272.400 321.423,272.400 320.776 C 272.400 319.997,272.603 319.600,273.000 319.600 C 273.369 319.600,273.600 319.225,273.600 318.624 C 273.600 318.087,273.780 317.536,274.000 317.400 C 274.220 317.264,274.400 316.533,274.400 315.776 C 274.400 314.820,274.583 314.400,275.000 314.400 C 275.419 314.400,275.600 313.978,275.600 313.000 C 275.600 312.230,275.780 311.600,276.000 311.600 C 276.220 311.600,276.400 310.899,276.400 310.043 C 276.400 309.028,276.609 308.405,277.000 308.255 C 277.411 308.098,277.600 307.455,277.600 306.213 C 277.600 305.216,277.780 304.400,278.000 304.400 C 278.220 304.400,278.400 303.519,278.400 302.443 C 278.400 301.072,278.580 300.417,279.000 300.255 C 279.441 300.086,279.600 299.391,279.600 297.636 C 279.600 296.322,279.780 295.136,280.000 295.000 C 280.220 294.864,280.400 293.401,280.400 291.748 C 280.400 289.610,280.573 288.570,281.000 288.143 C 281.471 287.672,281.600 286.438,281.600 282.395 C 281.600 279.395,281.767 277.144,282.000 277.000 C 282.262 276.838,282.400 264.786,282.400 242.148 C 282.400 211.921,282.476 207.467,283.000 206.943 C 283.425 206.518,283.600 205.482,283.600 203.395 C 283.600 201.774,283.780 200.336,284.000 200.200 C 284.220 200.064,284.400 198.905,284.400 197.625 C 284.400 196.045,284.592 195.138,285.000 194.800 C 285.383 194.482,285.600 193.597,285.600 192.351 C 285.600 191.278,285.780 190.400,286.000 190.400 C 286.220 190.400,286.400 189.757,286.400 188.971 C 286.400 188.186,286.670 187.273,287.000 186.943 C 287.330 186.613,287.600 185.826,287.600 185.195 C 287.600 184.564,287.780 183.936,288.000 183.800 C 288.220 183.664,288.400 183.101,288.400 182.548 C 288.400 181.995,288.670 181.273,289.000 180.943 C 289.330 180.613,289.600 179.906,289.600 179.371 C 289.600 178.837,289.780 178.400,290.000 178.400 C 290.220 178.400,290.400 177.972,290.400 177.449 C 290.400 176.926,290.670 176.274,291.000 176.000 C 291.330 175.726,291.600 175.074,291.600 174.551 C 291.600 174.028,291.780 173.600,292.000 173.600 C 292.220 173.600,292.400 173.169,292.400 172.643 C 292.400 172.116,292.670 171.582,293.000 171.455 C 293.330 171.329,293.600 170.859,293.600 170.413 C 293.600 169.966,293.780 169.600,294.000 169.600 C 294.220 169.600,294.400 169.150,294.400 168.600 C 294.400 167.978,294.627 167.600,295.000 167.600 C 295.330 167.600,295.600 167.328,295.600 166.995 C 295.600 166.228,296.445 164.699,297.100 164.280 C 297.375 164.104,297.600 163.609,297.600 163.180 C 297.600 162.751,297.780 162.400,298.000 162.400 C 298.220 162.400,298.400 162.173,298.400 161.896 C 298.400 161.619,298.805 160.934,299.300 160.375 C 300.280 159.268,301.052 158.140,301.475 157.200 C 301.623 156.870,302.162 156.234,302.672 155.787 C 303.183 155.340,303.600 154.665,303.600 154.287 C 303.600 153.909,303.780 153.600,304.000 153.600 C 304.220 153.600,304.400 153.330,304.400 153.000 C 304.400 152.670,304.593 152.400,304.829 152.400 C 305.266 152.400,306.400 151.425,306.400 151.049 C 306.400 150.935,306.850 150.356,307.400 149.762 C 307.950 149.169,308.400 148.439,308.400 148.142 C 308.400 147.844,308.670 147.600,309.000 147.600 C 309.330 147.600,309.600 147.407,309.600 147.171 C 309.600 146.618,310.618 145.600,311.171 145.600 C 311.407 145.600,311.600 145.407,311.600 145.171 C 311.600 144.618,312.618 143.600,313.171 143.600 C 313.407 143.600,313.600 143.407,313.600 143.171 C 313.600 142.618,314.618 141.600,315.171 141.600 C 315.407 141.600,315.600 141.363,315.600 141.074 C 315.600 140.785,316.230 140.248,317.000 139.881 C 317.770 139.513,318.400 139.030,318.400 138.806 C 318.400 138.583,318.593 138.400,318.829 138.400 C 319.382 138.400,320.400 137.382,320.400 136.829 C 320.400 136.593,320.587 136.400,320.816 136.400 C 321.340 136.400,324.400 133.395,324.400 132.880 C 324.400 132.670,324.670 132.274,325.000 132.000 C 325.459 131.619,325.600 130.575,325.600 127.551 C 325.600 124.306,325.493 123.600,325.000 123.600 C 324.659 123.600,324.400 123.241,324.400 122.769 C 324.400 121.518,321.436 118.788,319.788 118.521 C 319.025 118.397,318.400 118.139,318.400 117.948 C 318.400 117.756,317.140 117.600,315.600 117.600 C 314.000 117.600,312.800 117.771,312.800 118.000 C 312.800 118.220,312.344 118.400,311.787 118.400 C 311.231 118.400,310.671 118.670,310.545 119.000 C 310.418 119.330,310.039 119.600,309.703 119.600 C 309.367 119.600,308.675 120.050,308.165 120.600 C 307.655 121.150,307.127 121.600,306.991 121.600 C 306.583 121.600,305.600 122.711,305.600 123.171 C 305.600 123.407,305.407 123.600,305.171 123.600 C 304.936 123.600,304.492 123.825,304.185 124.100 C 303.035 125.131,302.428 125.600,302.242 125.600 C 302.136 125.600,300.554 127.096,298.725 128.924 C 295.886 131.763,294.620 133.148,292.003 136.283 C 291.781 136.549,291.600 136.954,291.600 137.183 C 291.600 137.412,291.330 137.600,291.000 137.600 C 290.670 137.600,290.400 137.735,290.400 137.900 C 290.400 138.065,289.770 138.908,289.000 139.773 C 288.230 140.638,287.600 141.501,287.600 141.692 C 287.600 141.882,287.177 142.435,286.661 142.919 C 286.144 143.404,285.649 143.980,285.561 144.200 C 285.263 144.941,282.203 149.399,281.900 149.533 C 281.735 149.607,281.600 150.102,281.600 150.633 C 281.600 151.226,281.368 151.600,281.000 151.600 C 280.670 151.600,280.400 151.870,280.400 152.200 C 280.400 152.530,280.220 152.800,280.000 152.800 C 279.780 152.800,279.600 153.141,279.600 153.557 C 279.600 153.974,279.330 154.418,279.000 154.545 C 278.670 154.671,278.400 155.141,278.400 155.587 C 278.400 156.034,278.220 156.400,278.000 156.400 C 277.780 156.400,277.600 156.760,277.600 157.200 C 277.600 157.640,277.461 158.000,277.291 158.000 C 277.121 158.000,276.650 158.675,276.245 159.500 C 275.839 160.325,275.258 161.478,274.954 162.062 C 274.649 162.646,274.400 163.411,274.400 163.762 C 274.400 164.113,274.220 164.400,274.000 164.400 C 273.780 164.400,273.600 164.831,273.600 165.357 C 273.600 165.884,273.330 166.418,273.000 166.545 C 272.670 166.671,272.400 167.231,272.400 167.787 C 272.400 168.344,272.220 168.800,272.000 168.800 C 271.780 168.800,271.600 169.346,271.600 170.013 C 271.600 170.721,271.351 171.321,271.000 171.455 C 270.670 171.582,270.400 172.106,270.400 172.619 C 270.400 173.133,270.220 173.664,270.000 173.800 C 269.780 173.936,269.600 174.589,269.600 175.252 C 269.600 175.915,269.330 176.727,269.000 177.057 C 268.670 177.387,268.400 178.084,268.400 178.605 C 268.400 179.126,268.220 179.664,268.000 179.800 C 267.780 179.936,267.600 180.827,267.600 181.781 C 267.600 182.953,267.406 183.589,267.000 183.745 C 266.589 183.902,266.400 184.545,266.400 185.787 C 266.400 186.784,266.220 187.600,266.000 187.600 C 265.780 187.600,265.600 188.485,265.600 189.567 C 265.600 190.747,265.407 191.598,265.117 191.694 C 264.821 191.793,264.571 192.968,264.472 194.728 C 264.383 196.307,264.150 197.600,263.955 197.600 C 263.760 197.600,263.600 199.288,263.600 201.351 C 263.600 204.197,263.455 205.222,263.000 205.600 C 262.475 206.036,262.400 210.445,262.400 240.825 C 262.400 263.546,262.262 275.638,262.000 275.800 C 261.768 275.943,261.600 278.121,261.600 280.975 C 261.600 284.867,261.474 286.007,261.000 286.400 C 260.574 286.754,260.400 287.689,260.400 289.625 C 260.400 291.125,260.220 292.464,260.000 292.600 C 259.780 292.736,259.600 293.897,259.600 295.181 C 259.600 296.886,259.438 297.576,259.000 297.745 C 258.606 297.896,258.400 298.520,258.400 299.564 C 258.400 300.438,258.220 301.264,258.000 301.400 C 257.780 301.536,257.600 302.272,257.600 303.036 C 257.600 303.902,257.374 304.512,257.000 304.655 C 256.630 304.797,256.400 305.405,256.400 306.243 C 256.400 306.989,256.220 307.600,256.000 307.600 C 255.780 307.600,255.600 307.945,255.600 308.368 C 255.600 308.790,255.300 309.735,254.932 310.468 C 253.723 312.880,253.600 313.184,253.600 313.746 C 253.600 314.052,253.330 314.526,253.000 314.800 C 252.670 315.074,252.400 315.636,252.400 316.049 C 252.400 316.462,252.220 316.800,252.000 316.800 C 251.780 316.800,251.600 317.149,251.600 317.576 C 251.600 318.003,251.431 318.457,251.225 318.584 C 250.818 318.836,249.600 321.126,249.600 321.641 C 249.600 321.816,249.150 322.444,248.600 323.038 C 248.050 323.631,247.600 324.351,247.600 324.638 C 247.600 324.924,247.150 325.644,246.600 326.238 C 246.050 326.831,245.600 327.461,245.600 327.638 C 245.600 327.814,245.150 328.444,244.600 329.038 C 244.050 329.631,243.600 330.451,243.600 330.858 C 243.600 331.266,243.330 331.600,243.000 331.600 C 242.670 331.600,242.400 331.752,242.400 331.939 C 242.400 332.125,241.770 332.926,241.000 333.719 C 240.230 334.512,239.600 335.329,239.600 335.535 C 239.600 335.970,231.714 344.000,231.286 344.001 C 231.129 344.001,230.370 344.541,229.600 345.200 C 228.830 345.859,228.065 346.399,227.900 346.399 C 227.735 346.400,227.600 346.670,227.600 347.000 C 227.600 347.330,227.330 347.600,227.000 347.600 C 226.670 347.600,226.400 347.780,226.400 348.000 C 226.400 348.220,226.173 348.400,225.896 348.400 C 225.619 348.400,224.930 348.828,224.367 349.351 C 223.803 349.873,222.950 350.426,222.471 350.578 C 221.992 350.730,221.600 351.022,221.600 351.227 C 221.600 351.432,221.330 351.600,221.000 351.600 C 220.670 351.600,220.400 351.737,220.400 351.905 C 220.400 352.230,219.903 352.529,217.259 353.794 C 216.347 354.231,215.600 354.816,215.600 355.094 C 215.600 355.372,215.150 355.600,214.600 355.600 C 214.050 355.600,213.600 355.780,213.600 356.000 C 213.600 356.220,213.150 356.400,212.600 356.400 C 211.978 356.400,211.600 356.627,211.600 357.000 C 211.600 357.397,211.203 357.600,210.424 357.600 C 209.777 357.600,209.136 357.780,209.000 358.000 C 208.864 358.220,208.416 358.400,208.005 358.400 C 207.594 358.400,206.987 358.670,206.657 359.000 C 206.327 359.330,205.605 359.600,205.052 359.600 C 204.499 359.600,203.936 359.780,203.800 360.000 C 203.664 360.220,203.126 360.400,202.605 360.400 C 202.084 360.400,201.387 360.670,201.057 361.000 C 200.727 361.330,199.814 361.600,199.029 361.600 C 198.243 361.600,197.600 361.780,197.600 362.000 C 197.600 362.220,196.784 362.400,195.787 362.400 C 194.545 362.400,193.902 362.589,193.745 363.000 C 193.569 363.458,192.817 363.600,190.557 363.600 C 188.852 363.600,187.600 363.769,187.600 364.000 C 187.600 364.256,184.075 364.400,177.824 364.400 C 171.737 364.400,167.954 364.249,167.800 364.000 C 167.664 363.780,166.471 363.600,165.148 363.600 C 163.543 363.600,162.543 363.400,162.143 363.000 C 161.813 362.670,160.846 362.400,159.995 362.400 C 159.144 362.400,158.336 362.220,158.200 362.000 C 158.064 361.780,157.173 361.600,156.219 361.600 C 155.047 361.600,154.411 361.406,154.255 361.000 C 154.121 360.649,153.521 360.400,152.813 360.400 C 152.146 360.400,151.600 360.220,151.600 360.000 C 151.600 359.780,151.150 359.600,150.600 359.600 C 150.050 359.600,149.600 359.462,149.600 359.294 C 149.600 358.939,146.002 357.600,145.046 357.600 C 144.691 357.600,144.400 357.330,144.400 357.000 C 144.400 356.627,144.022 356.400,143.400 356.400 C 142.850 356.400,142.400 356.220,142.400 356.000 C 142.400 355.780,141.950 355.600,141.400 355.600 C 140.850 355.600,140.400 355.395,140.400 355.144 C 140.400 354.529,139.165 353.628,138.300 353.613 C 137.915 353.606,137.600 353.428,137.600 353.219 C 137.600 353.009,136.944 352.526,136.141 352.145 C 135.339 351.765,134.233 351.036,133.683 350.527 C 133.133 350.017,132.542 349.600,132.370 349.600 C 132.198 349.600,131.396 348.976,130.587 348.214 C 129.779 347.451,128.776 346.719,128.359 346.587 C 127.941 346.454,127.600 346.178,127.600 345.973 C 127.600 345.768,127.330 345.600,127.000 345.600 C 126.670 345.600,126.400 345.407,126.400 345.171 C 126.400 344.650,125.395 343.600,124.896 343.600 C 124.698 343.600,124.294 343.150,124.000 342.600 C 123.706 342.050,123.256 341.600,123.000 341.600 C 122.744 341.600,122.294 341.150,122.000 340.600 C 121.706 340.050,121.256 339.600,121.000 339.600 C 120.744 339.600,120.294 339.150,120.000 338.600 C 119.706 338.050,119.225 337.600,118.932 337.600 C 118.640 337.600,118.400 337.407,118.400 337.171 C 118.400 336.618,117.382 335.600,116.829 335.600 C 116.593 335.600,116.400 335.268,116.400 334.861 C 116.400 334.455,115.815 333.500,115.100 332.740 C 113.785 331.341,113.021 330.293,112.520 329.200 C 112.369 328.870,112.055 328.381,111.822 328.114 C 110.639 326.751,110.400 326.400,110.400 326.017 C 110.400 325.788,110.220 325.600,110.000 325.600 C 109.780 325.600,109.600 325.150,109.600 324.600 C 109.600 323.978,109.373 323.600,109.000 323.600 C 108.627 323.600,108.400 323.222,108.400 322.600 C 108.400 322.050,108.220 321.600,108.000 321.600 C 107.780 321.600,107.600 321.150,107.600 320.600 C 107.600 319.978,107.373 319.600,107.000 319.600 C 106.627 319.600,106.400 319.222,106.400 318.600 C 106.400 318.050,106.220 317.600,106.000 317.600 C 105.780 317.600,105.600 317.172,105.600 316.649 C 105.600 316.126,105.330 315.474,105.000 315.200 C 104.670 314.926,104.400 314.285,104.400 313.775 C 104.400 313.265,104.220 312.736,104.000 312.600 C 103.780 312.464,103.600 311.818,103.600 311.164 C 103.600 310.476,103.347 309.878,103.000 309.745 C 102.630 309.603,102.400 308.995,102.400 308.157 C 102.400 307.411,102.220 306.800,102.000 306.800 C 101.780 306.800,101.600 306.080,101.600 305.200 C 101.600 304.044,101.433 303.600,101.000 303.600 C 100.547 303.600,100.400 303.111,100.400 301.600 C 100.400 300.500,100.220 299.600,100.000 299.600 C 99.780 299.600,99.600 298.604,99.600 297.387 C 99.600 295.790,99.433 295.111,99.000 294.945 C 98.554 294.774,98.400 294.064,98.400 292.181 C 98.400 290.787,98.220 289.536,98.000 289.400 C 97.780 289.264,97.600 287.736,97.600 286.005 C 97.600 283.740,97.432 282.689,97.000 282.257 C 96.537 281.794,96.400 280.618,96.400 277.109 C 96.400 274.578,96.221 272.381,95.996 272.156 C 95.727 271.887,95.660 259.352,95.797 234.576 C 95.909 214.129,96.093 176.430,96.204 150.800 C 96.378 110.590,96.487 104.027,97.003 102.940 C 97.883 101.083,97.880 84.731,97.000 84.000 C 96.670 83.726,96.400 83.156,96.400 82.732 C 96.400 81.796,93.142 78.400,92.244 78.400 C 91.890 78.400,91.600 78.220,91.600 78.000 C 91.600 77.760,90.000 77.600,87.600 77.600 C 85.200 77.600,83.600 77.760,83.600 78.000 " stroke="none" fill="#040404" fill-rule="evenodd"></path><path id="path2" d="" stroke="none" fill="#20bcd0" fill-rule="evenodd"></path><path id="path3" d="" stroke="none" fill="#20406c" fill-rule="evenodd"></path><path id="path4" d="" stroke="none" fill="#204404" fill-rule="evenodd"></path></g></svg>