<?xml version="1.0" encoding="utf-8"?>
<svg viewBox="252.725 175.265 128.372 31.628" xmlns="http://www.w3.org/2000/svg">
  <g id="Website" stroke="none" stroke-width="1" fill="none" fill-rule="evenodd" transform="matrix(1, 0, 0, 1, 252.724747, 175.05426)">
    <g id="CognizoneWebsite-/-Desktop-/-Home-1" transform="translate(-132.000000, -16.000000)">
      <g id="Header-/-Menu">
        <g id="Group-6" transform="translate(132.000000, 16.000000)">
          <path d="M31.627907,16.0243101 L23.5249153,16.0243101 C23.5249153,11.765671 20.0725926,8.31334826 15.8139535,8.31334826 C11.5553144,8.31334826 8.10299167,11.765671 8.10299167,16.0243101 C8.10299167,20.2829492 11.5553144,23.7352719 15.8139535,23.7352719 L15.8139535,31.8382636 C7.08016078,31.8382636 0,24.7581028 0,16.0243101 C0,7.29051737 7.08016078,0.210356589 15.8139535,0.210356589 C24.5477462,0.210356589 31.627907,7.29051737 31.627907,16.0243101" id="Fill-1-Copy-8" style="fill: rgb(0, 0, 0);"/>
          <path d="M45.841722,23.8677887 C48.843022,23.8677887 50.9891129,22.0285212 51.126269,19.2370665 L48.2782613,19.2370665 C48.092697,20.612448 47.1487398,21.4751133 45.84979,21.4751133 C44.2200519,21.4751133 43.2034825,20.0834551 43.2034825,17.7803015 C43.2034825,15.5015629 44.2281199,14.1099047 45.841722,14.1099047 C47.1406718,14.1099047 48.116901,15.0214001 48.2621252,16.40492 L51.110133,16.40492 C51.0213849,13.629742 48.7865459,11.7172292 45.841722,11.7172292 C42.3724774,11.7172292 40.1860465,13.955276 40.1860465,17.7884398 C40.1860465,21.629742 42.3563414,23.8677887 45.841722,23.8677887 Z M56.5479723,23.8759271 C59.3152999,23.8759271 61.0418542,22.1912882 61.0418542,19.2289281 C61.0418542,16.3235365 59.2910959,14.5900675 56.5479723,14.5900675 C53.8209846,14.5900675 52.0540903,16.3316748 52.0540903,19.2289281 C52.0540903,22.1831499 53.7806446,23.8759271 56.5479723,23.8759271 Z M56.5479723,21.7599556 C55.5636749,21.7599556 54.9585741,20.8565985 54.9585741,19.2370665 C54.9585741,17.6419495 55.579811,16.706039 56.5479723,16.706039 C57.5242015,16.706039 58.1454384,17.6419495 58.1454384,19.2370665 C58.1454384,20.8565985 57.5242015,21.7599556 56.5479723,21.7599556 Z M66.3667413,27.0010543 C69.1017969,27.0010543 70.9574394,25.6826412 70.9574394,23.5666697 L70.9574394,14.8016646 L68.1174996,14.8016646 L68.1174996,16.3723666 L68.0610236,16.3723666 C67.665691,15.3713493 66.6894617,14.671451 65.414716,14.671451 C63.2121491,14.671451 61.8809273,16.3723666 61.8809273,19.2045131 C61.8809273,21.9796911 63.2766932,23.5910848 65.374376,23.5910848 C66.6652577,23.5910848 67.6979631,22.948155 68.0448875,22.0122445 L68.1013636,22.0122445 L68.1013636,23.6399149 C68.1013636,24.5188569 67.5285348,25.1129566 66.4312854,25.1129566 C65.6164163,25.1129566 65.0193835,24.7548691 64.8822273,24.2421529 L62.1148996,24.2421529 C62.2762599,25.8535466 63.865658,27.0010543 66.3667413,27.0010543 Z M66.4554894,21.4588366 C65.422784,21.4588366 64.8096152,20.6612781 64.8096152,19.2289281 C64.8096152,17.8047165 65.4308521,16.9257745 66.4554894,16.9257745 C67.4720588,16.9257745 68.1094316,17.8128549 68.1094316,19.2289281 C68.1094316,20.6612781 67.4801268,21.4588366 66.4554894,21.4588366 Z M75.201213,23.66433 L75.201213,18.6511051 C75.201213,17.6745029 75.7659738,16.982743 76.677659,16.982743 C77.6135482,16.982743 78.0895609,17.584981 78.0895609,18.5941367 L78.0895609,23.66433 L80.9456367,23.66433 L80.9456367,17.9756219 C80.9456367,15.8677887 79.8564552,14.6307592 77.8959286,14.6307592 C76.5485708,14.6307592 75.6288176,15.2899658 75.177009,16.4700268 L75.1205329,16.4700268 L75.1205329,14.8016646 L72.3370692,14.8016646 L72.3370692,23.66433 L75.201213,23.66433 Z M83.7210324,13.792509 C84.5116974,13.792509 85.1329342,13.1577175 85.1329342,12.4008508 C85.1329342,11.6358457 84.5116974,11.0010543 83.7210324,11.0010543 C82.9384353,11.0010543 82.3171985,11.6358457 82.3171985,12.4008508 C82.3171985,13.1577175 82.9384353,13.792509 83.7210324,13.792509 Z M85.1652063,23.66433 L85.1652063,14.8016646 L82.3091305,14.8016646 L82.3091305,23.66433 L85.1652063,23.66433 Z M98.9399899,23.66433 L98.9399899,21.4995283 L95.0512087,21.4995283 L95.0512087,21.4425599 L98.8028337,16.5595487 L98.8028337,14.8016646 L91.4286719,14.8016646 L91.4286719,16.9664663 L95.4626773,16.9664663 L95.4626773,17.0234347 L91.3318558,22.1343198 L91.3318558,23.66433 L98.9399899,23.66433 Z M104.385897,23.8759271 C107.153225,23.8759271 108.879779,22.1912882 108.879779,19.2289281 C108.879779,16.3235365 107.129021,14.5900675 104.385897,14.5900675 C101.65891,14.5900675 99.8920152,16.3316748 99.8920152,19.2289281 C99.8920152,22.1831499 101.618569,23.8759271 104.385897,23.8759271 Z M104.385897,21.7599556 C103.4016,21.7599556 102.796499,20.8565985 102.796499,19.2370665 C102.796499,17.6419495 103.417736,16.706039 104.385897,16.706039 C105.362126,16.706039 105.983363,17.6419495 105.983363,19.2370665 C105.983363,20.8565985 105.362126,21.7599556 104.385897,21.7599556 Z M112.84924,23.66433 L112.84924,18.6511051 C112.84924,17.6745029 113.414001,16.982743 114.325686,16.982743 C115.261576,16.982743 115.737588,17.584981 115.737588,18.5941367 L115.737588,23.66433 L118.593664,23.66433 L118.593664,17.9756219 C118.593664,15.8677887 117.504483,14.6307592 115.543956,14.6307592 C114.196598,14.6307592 113.276845,15.2899658 112.825036,16.4700268 L112.76856,16.4700268 L112.76856,14.8016646 L109.985097,14.8016646 L109.985097,23.66433 L112.84924,23.66433 Z M124.136387,23.8759271 C126.43577,23.8759271 128.049373,22.6958661 128.323685,20.8647369 L125.741922,20.8647369 C125.540221,21.4669749 124.943188,21.8332008 124.176727,21.8332008 C123.144022,21.8332008 122.442105,21.1007491 122.442105,20.0427633 L122.442105,19.8637196 L128.372093,19.8637196 L128.372093,19.0498844 C128.372093,16.3398132 126.685879,14.5900675 124.039571,14.5900675 C121.352924,14.5900675 119.666709,16.4130583 119.666709,19.2777582 C119.666709,22.1424581 121.336788,23.8759271 124.136387,23.8759271 Z M125.677377,18.2197725 L122.482445,18.2197725 C122.555057,17.3001387 123.208566,16.6409322 124.087979,16.6409322 C124.991597,16.6409322 125.628969,17.2757236 125.677377,18.2197725 Z" id="Cognizone" fill-rule="nonzero" style="fill: rgb(0, 0, 0);"/>
          <circle id="Oval" cx="88.1860465" cy="22.163845" r="1.48837209" style="fill: rgb(80, 227, 194);"/>
        </g>
      </g>
    </g>
  </g>
</svg>
