<?xml version="1.0" encoding="utf-8"?>
<svg viewBox="-23.664 74.665 1051.344 222.602" xmlns="http://www.w3.org/2000/svg">
  <g transform="matrix(0.693226, 0, 0, -0.693226, 122.037521, 258.216309)" style=""/>
  <g transform="matrix(1.333333, 0, 0, -1.333333, -23.664152, 315.226135)" id="g10">
    <g transform="scale(0.1)" id="g12">
      <path id="path14" style="fill:#2d49a3;fill-opacity:1;fill-rule:nonzero;stroke:none" d="M 2478.21,134.691 V 1804.21 H 0 V 134.691 h 2478.21"/>
      <path id="path16" style="fill:#f3f020;fill-opacity:1;fill-rule:nonzero;stroke:none" d="m 1860.48,996.281 -25.86,0.528 -38.24,0.722 -12.52,34.089 -8.11,21.79 -7.97,-21.79 -12.42,-34.089 -38.24,-0.722 -25.84,-0.528 21.09,-15.195 30.14,-21.633 -10.96,-34.129 -7.52,-23.242 20.39,13.457 31.33,20.742 31.7,-20.742 20.14,-13.457 -7.39,23.242 -10.85,34.129 30.03,21.633 21.1,15.195"/>
      <path id="path18" style="fill:none;stroke:#f3f020;stroke-width:11.06400013;stroke-linecap:butt;stroke-linejoin:miter;stroke-miterlimit:4;stroke-dasharray:none;stroke-opacity:1" d="m 1860.48,996.281 -25.86,0.528 -38.24,0.722 -12.52,34.089 -8.11,21.79 -7.97,-21.79 -12.42,-34.089 -38.24,-0.722 -25.84,-0.528 21.09,-15.195 30.14,-21.633 -10.96,-34.129 -7.52,-23.242 20.39,13.457 31.33,20.742 31.7,-20.742 20.14,-13.457 -7.39,23.242 -10.85,34.129 30.03,21.633 z"/>
      <path id="path20" style="fill:#f3f020;fill-opacity:1;fill-rule:nonzero;stroke:none" d="m 1670.65,1228.64 -10.84,-34.19 -7.38,-23.17 20.26,13.28 31.46,21.04 31.7,-21.04 20,-13.28 -7.27,23.17 -10.95,34.19 30.04,21.65 21.19,15.19 -25.84,0.47 -38.38,0.59 -12.38,34.19 -8.11,22 -8.01,-22 -12.36,-34.19 -38.26,-0.59 -25.86,-0.47 20.97,-15.19 30.02,-21.65"/>
      <path id="path22" style="fill:none;stroke:#f3f020;stroke-width:11.06400013;stroke-linecap:butt;stroke-linejoin:miter;stroke-miterlimit:4;stroke-dasharray:none;stroke-opacity:1" d="m 1670.65,1228.64 -10.84,-34.19 -7.38,-23.17 20.26,13.28 31.46,21.04 31.7,-21.04 20,-13.28 -7.27,23.17 -10.95,34.19 30.04,21.65 21.19,15.19 -25.84,0.47 -38.38,0.59 -12.38,34.19 -8.11,22 -8.01,-22 -12.36,-34.19 -38.26,-0.59 -25.86,-0.47 20.97,-15.19 z"/>
      <path id="path24" style="fill:#f3f020;fill-opacity:1;fill-rule:nonzero;stroke:none" d="m 1529.93,1462.34 -12.52,34.12 -8.1,21.93 -7.97,-21.93 -12.4,-34.12 -38.25,-0.67 -25.99,-0.58 21.21,-15.14 30.15,-21.69 -10.95,-34.14 -7.52,-23.19 20.37,13.24 31.35,20.92 31.58,-20.92 20.27,-13.24 -7.52,23.19 -10.74,34.14 30.04,21.69 21.07,15.14 -25.72,0.58 -38.36,0.67"/>
      <path id="path26" style="fill:none;stroke:#f3f020;stroke-width:11.06400013;stroke-linecap:butt;stroke-linejoin:miter;stroke-miterlimit:4;stroke-dasharray:none;stroke-opacity:1" d="m 1529.93,1462.34 -12.52,34.12 -8.1,21.93 -7.97,-21.93 -12.4,-34.12 -38.25,-0.67 -25.99,-0.58 21.21,-15.14 30.15,-21.69 -10.95,-34.14 -7.52,-23.19 20.37,13.24 31.35,20.92 31.58,-20.92 20.27,-13.24 -7.52,23.19 -10.74,34.14 30.04,21.69 21.07,15.14 -25.72,0.58 z"/>
      <path id="path28" style="fill:#f3f020;fill-opacity:1;fill-rule:nonzero;stroke:none" d="m 1257.53,1534.54 -12.52,34.03 -8.13,21.92 -7.85,-21.92 -12.52,-34.03 -38.24,-0.84 -25.98,-0.41 21.22,-15.19 30.03,-21.75 -10.85,-34.2 -7.5,-23.11 20.25,13.22 31.44,20.97 31.7,-20.97 20.14,-13.22 -7.36,23.11 -10.86,34.2 30.04,21.75 20.95,15.19 -25.72,0.41 -38.24,0.84"/>
      <path id="path30" style="fill:none;stroke:#f3f020;stroke-width:11.06400013;stroke-linecap:butt;stroke-linejoin:miter;stroke-miterlimit:4;stroke-dasharray:none;stroke-opacity:1" d="m 1257.53,1534.54 -12.52,34.03 -8.13,21.92 -7.85,-21.92 -12.52,-34.03 -38.24,-0.84 -25.98,-0.41 21.22,-15.19 30.03,-21.75 -10.85,-34.2 -7.5,-23.11 20.25,13.22 31.44,20.97 31.7,-20.97 20.14,-13.22 -7.36,23.11 -10.86,34.2 30.04,21.75 20.95,15.19 -25.72,0.41 z"/>
      <path id="path32" style="fill:#f3f020;fill-opacity:1;fill-rule:nonzero;stroke:none" d="m 987.488,1462.34 -12.515,34.12 -7.856,21.93 -7.984,-21.93 -12.5,-34.12 -38.266,-0.67 -25.972,-0.41 21.089,-15.25 30.161,-21.63 -10.864,-34.13 -7.476,-23.32 20.23,13.47 31.582,20.8 31.352,-20.8 20.251,-13.47 -7.38,23.32 -10.86,34.13 30.04,21.63 21.21,15.25 -25.98,0.41 -38.262,0.67"/>
      <path id="path34" style="fill:none;stroke:#f3f020;stroke-width:11.06400013;stroke-linecap:butt;stroke-linejoin:miter;stroke-miterlimit:4;stroke-dasharray:none;stroke-opacity:1" d="m 987.488,1462.34 -12.515,34.12 -7.856,21.93 -7.984,-21.93 -12.5,-34.12 -38.266,-0.67 -25.972,-0.41 21.089,-15.25 30.161,-21.63 -10.864,-34.13 -7.476,-23.32 20.23,13.47 31.582,20.8 31.352,-20.8 20.251,-13.47 -7.38,23.32 -10.86,34.13 30.04,21.63 21.21,15.25 -25.98,0.41 z"/>
      <path id="path36" style="fill:#f3f020;fill-opacity:1;fill-rule:nonzero;stroke:none" d="m 790.891,1268.63 -12.305,34.03 -7.973,21.85 -8.086,-21.85 -12.398,-34.03 -38.266,-0.71 -25.855,-0.49 21.094,-15.25 30.039,-21.68 -10.957,-34.08 -7.289,-23.24 20.023,13.34 31.578,20.86 31.582,-20.86 20.141,-13.34 -7.406,23.24 -10.836,34.08 30.156,21.68 20.972,15.25 -25.878,0.49 -38.336,0.71"/>
      <path id="path38" style="fill:none;stroke:#f3f020;stroke-width:11.06400013;stroke-linecap:butt;stroke-linejoin:miter;stroke-miterlimit:4;stroke-dasharray:none;stroke-opacity:1" d="m 790.891,1268.63 -12.305,34.03 -7.973,21.85 -8.086,-21.85 -12.398,-34.03 -38.266,-0.71 -25.855,-0.49 21.094,-15.25 30.039,-21.68 -10.957,-34.08 -7.289,-23.24 20.023,13.34 31.578,20.86 31.582,-20.86 20.141,-13.34 -7.406,23.24 -10.836,34.08 30.156,21.68 20.972,15.25 -25.878,0.49 z"/>
      <path id="path40" style="fill:#f3f020;fill-opacity:1;fill-rule:nonzero;stroke:none" d="m 728.547,916.027 20.254,-13.457 -7.367,23.348 -10.86,34.082 30.024,21.68 21.09,15.129 -25.836,0.546 -38.262,0.653 -12.5,34.032 -7.988,21.86 -8.008,-21.86 -12.5,-34.032 -38.246,-0.653 -25.86,-0.546 20.957,-15.129 30.157,-21.68 -10.836,-34.082 -7.383,-23.348 20.113,13.457 31.606,20.848 31.445,-20.848"/>
      <path id="path42" style="fill:none;stroke:#f3f020;stroke-width:11.06400013;stroke-linecap:butt;stroke-linejoin:miter;stroke-miterlimit:4;stroke-dasharray:none;stroke-opacity:1" d="m 728.547,916.027 20.254,-13.457 -7.367,23.348 -10.86,34.082 30.024,21.68 21.09,15.129 -25.836,0.546 -38.262,0.653 -12.5,34.032 -7.988,21.86 -8.008,-21.86 -12.5,-34.032 -38.246,-0.653 -25.86,-0.546 20.957,-15.129 30.157,-21.68 -10.836,-34.082 -7.383,-23.348 20.113,13.457 31.606,20.848 z"/>
      <path id="path44" style="fill:#f3f020;fill-opacity:1;fill-rule:nonzero;stroke:none" d="m 790.027,730.961 -12.5,33.961 -7.871,21.879 -8.101,-21.879 -12.5,-33.961 -38.246,-0.832 -25.86,-0.578 21.074,-15.02 30.04,-21.812 -10.86,-34.09 -7.5,-23.039 20.258,13.16 31.465,20.84 31.582,-20.84 20.137,-13.281 -7.383,23.16 -10.727,34.09 30.024,21.812 20.972,15.02 -25.855,0.578 -38.149,0.832"/>
      <path id="path46" style="fill:none;stroke:#f3f020;stroke-width:11.06400013;stroke-linecap:butt;stroke-linejoin:miter;stroke-miterlimit:4;stroke-dasharray:none;stroke-opacity:1" d="m 790.027,730.961 -12.5,33.961 -7.871,21.879 -8.101,-21.879 -12.5,-33.961 -38.246,-0.832 -25.86,-0.578 21.074,-15.02 30.04,-21.812 -10.86,-34.09 -7.5,-23.039 20.258,13.16 31.465,20.84 31.582,-20.84 20.137,-13.281 -7.383,23.16 -10.727,34.09 30.024,21.812 20.972,15.02 -25.855,0.578 z"/>
      <path id="path48" style="fill:#f3f020;fill-opacity:1;fill-rule:nonzero;stroke:none" d="m 985.105,535.422 -12.378,34.199 -7.993,21.859 -8.101,-21.859 -12.387,-34.199 -38.379,-0.602 -25.855,-0.59 21.211,-15.14 29.898,-21.692 -10.723,-34.058 -7.5,-23.25 20.122,13.23 31.714,20.918 31.329,-20.918 20.397,-13.23 -7.52,23.25 -10.827,34.058 30.017,21.692 21.22,15.14 -25.98,0.59 -38.265,0.602"/>
      <path id="path50" style="fill:none;stroke:#f3f020;stroke-width:11.06400013;stroke-linecap:butt;stroke-linejoin:miter;stroke-miterlimit:4;stroke-dasharray:none;stroke-opacity:1" d="m 985.105,535.422 -12.378,34.199 -7.993,21.859 -8.101,-21.859 -12.387,-34.199 -38.379,-0.602 -25.855,-0.59 21.211,-15.14 29.898,-21.692 -10.723,-34.058 -7.5,-23.25 20.122,13.23 31.714,20.918 31.329,-20.918 20.397,-13.23 -7.52,23.25 -10.827,34.058 30.017,21.692 21.22,15.14 -25.98,0.59 z"/>
      <path id="path52" style="fill:#f3f020;fill-opacity:1;fill-rule:nonzero;stroke:none" d="m 1257.28,463.27 -12.39,33.902 -8.12,21.988 -7.85,-21.988 -12.52,-33.902 -38.25,-0.782 -25.99,-0.597 21.09,-15.25 30.18,-21.551 -10.98,-34.09 -7.26,-23.301 20.13,13.391 31.45,20.922 31.6,-20.922 20.14,-13.391 -7.27,23.301 -10.98,34.09 30.04,21.551 21.08,15.25 -25.73,0.597 -38.37,0.782"/>
      <path id="path54" style="fill:none;stroke:#f3f020;stroke-width:11.06400013;stroke-linecap:butt;stroke-linejoin:miter;stroke-miterlimit:4;stroke-dasharray:none;stroke-opacity:1" d="m 1257.28,463.27 -12.39,33.902 -8.12,21.988 -7.85,-21.988 -12.52,-33.902 -38.25,-0.782 -25.99,-0.597 21.09,-15.25 30.18,-21.551 -10.98,-34.09 -7.26,-23.301 20.13,13.391 31.45,20.922 31.6,-20.922 20.14,-13.391 -7.27,23.301 -10.98,34.09 30.04,21.551 21.08,15.25 -25.73,0.597 z"/>
      <path id="path56" style="fill:#f3f020;fill-opacity:1;fill-rule:nonzero;stroke:none" d="m 1527.43,534.109 -12.52,34.082 -7.99,21.868 -7.98,-21.868 -12.41,-34.082 -38.24,-0.839 -25.98,-0.481 21.23,-15.117 30.02,-21.684 -10.86,-34.097 -7.38,-23.231 20.14,13.238 31.46,20.903 31.59,-20.903 20.02,-13.238 -7.15,23.231 -10.86,34.097 29.9,21.684 21.11,15.117 -25.86,0.481 -38.24,0.839"/>
      <path id="path58" style="fill:none;stroke:#f3f020;stroke-width:11.06400013;stroke-linecap:butt;stroke-linejoin:miter;stroke-miterlimit:4;stroke-dasharray:none;stroke-opacity:1" d="m 1527.43,534.109 -12.52,34.082 -7.99,21.868 -7.98,-21.868 -12.41,-34.082 -38.24,-0.839 -25.98,-0.481 21.23,-15.117 30.02,-21.684 -10.86,-34.097 -7.38,-23.231 20.14,13.238 31.46,20.903 31.59,-20.903 20.02,-13.238 -7.15,23.231 -10.86,34.097 29.9,21.684 21.11,15.117 -25.86,0.481 z"/>
      <path id="path60" style="fill:#f3f020;fill-opacity:1;fill-rule:nonzero;stroke:none" d="m 1723.68,728.57 -12.52,34.11 -7.97,21.781 -7.99,-21.781 -12.51,-34.11 -38.27,-0.699 -25.84,-0.492 21.2,-15.25 29.94,-21.617 -10.84,-34.203 -7.29,-23.168 20.04,13.339 31.56,20.852 31.57,-20.852 20.03,-13.339 -7.4,23.168 -10.72,34.203 30.04,21.617 21.09,15.25 -25.88,0.492 -38.24,0.699"/>
      <path id="path62" style="fill:none;stroke:#f3f020;stroke-width:11.06400013;stroke-linecap:butt;stroke-linejoin:miter;stroke-miterlimit:4;stroke-dasharray:none;stroke-opacity:1" d="m 1723.68,728.57 -12.52,34.11 -7.97,21.781 -7.99,-21.781 -12.51,-34.11 -38.27,-0.699 -25.84,-0.492 21.2,-15.25 29.94,-21.617 -10.84,-34.203 -7.29,-23.168 20.04,13.339 31.56,20.852 31.57,-20.852 20.03,-13.339 -7.4,23.168 -10.72,34.203 30.04,21.617 21.09,15.25 -25.88,0.492 z"/>
      <g transform="scale(10)" id="g64">
        <text id="text72" style="font-variant: normal; font-weight: normal; font-size: 50px; font-family: Arial; writing-mode: lr-tb; fill: rgb(45, 73, 163); fill-opacity: 1; fill-rule: nonzero; stroke: none; white-space: pre;" transform="matrix(1,0,0,-1,271.571,134.46)"><tspan id="tspan66" y="0" x="0 47.200001 58.299999 72.199997 100 113.9 127.8 155.60001 183.39999 197.3 222.3 250.10001 277.89999 305.70001 333.5 350.14999 364.04999 377.95001 405.75 419.64999 433.54999 447.45001 475.25 503.04999">With the support of the </tspan><tspan id="tspan68" y="55.000801" x="0 33.349998 50 77.800003 102.8 144.45 172.25 197.25 226.45 240.35001 273.70001 290.35001 318.14999 345.95001 362.60001 390.39999 432.04999 473.70001 501.5">Erasmus+ Programme </tspan><tspan id="tspan70" y="110.0008" x="0 27.799999 41.700001 55.599998 69.5 97.300003 125.1 139 172.35001 200.14999 216.8 244.60001 272.39999 300.20001 328 355.79999 369.70001 405.79999 433.60001 444.70001 472.5">of the European Union</tspan></text>
      </g>
    </g>
  </g>
</svg>