<svg id="Layer_1" data-name="Layer 1" xmlns="http://www.w3.org/2000/svg" viewBox="0 0 600 600">
  <defs>
    <style>
      .cls-1 {
        fill: none;
        stroke: #fefefe;
        stroke-miterlimit: 10;
      }

      .cls-2 {
        fill: #010100;
      }

      .cls-3 {
        fill: #d82306;
      }

      .cls-4 {
        fill: #fdfd38;
      }

      .cls-5 {
        fill: #040404;
      }

      .cls-6 {
        fill: #050505;
      }

      .cls-7 {
        fill: #020202;
      }

      .cls-8 {
        fill: #010101;
      }

      .cls-9 {
        fill: #030303;
      }

      .cls-10 {
        fill: #fdfdfd;
      }

      .cls-11 {
        fill: #fcfcfc;
      }
    </style>
  </defs>
  <title>Artboard 1hyf</title>
  <g>
    <path class="cls-1" d="M0,600V0H600V600ZM507.11,267.67l-41.48-.08q-21.44-.06-42.88-.09c-.17,0-.35.24-.47.33v74.9c10.65,0,21.06,0,31.48,0,4,0,7.94-.19,11.91-.29l41.46-.11h41.71V267.37c-9,0-17.7,0-26.45,0C517.3,267.41,512.2,267.57,507.11,267.67ZM174.74,342.4c21.95,0,37.71-15.68,37.64-37.43-.07-21.41-15.72-36.82-36.8-37.37-22.09-.57-38.8,16.24-38.59,36.87C137.21,327,152.3,342.4,174.74,342.4ZM343,311.73c3.47,0,6.79-.18,10.07.09a5.55,5.55,0,0,1,3.64,1.95c6,8.49,11.9,17.12,17.89,25.64.68,1,1.86,2.12,2.89,2.21,3.14.29,6.33.11,10.13.11L366,311.08c.69-.32,1.05-.52,1.44-.67,9.86-3.87,14.07-11.37,13-23.11-.83-8.89-7.11-16.06-16.82-16.92-10-.9-20.1-.2-30.28-.2v71.29H343Zm78.75,70.93v68.93h9.28V423.06c3.22,0,6.2.14,9.15-.05a4.83,4.83,0,0,1,4.86,2.46c5.51,8.18,11.17,16.25,16.83,24.33.53.76,1.34,1.78,2.08,1.83,3.24.2,6.49.09,10.27.09l-20.9-29.59c.55-.26.82-.41,1.11-.52,9.56-3.84,13.95-11.14,12.88-21.47-1-9.66-6.89-16.36-17.12-17.3C440.87,382,431.4,382.66,421.77,382.66ZM103,342.31c0-14.18,0-28,0-41.9a4.8,4.8,0,0,0-1-2.68q-11.1-15-22.35-29.79a3.55,3.55,0,0,0-2.28-1.48c-7.61-.11-15.22-.07-23.38-.07.82,1.1,1.32,1.79,1.84,2.45,8.5,10.94,17.05,21.85,25.46,32.87A8.51,8.51,0,0,1,83,306.46c.14,11,.07,22,.08,33,0,.95.1,1.9.15,2.88ZM235.7,270.5c0,12.4,0,24.49,0,36.58a76.51,76.51,0,0,0,.69,10.6c1.68,11.38,7.19,20.08,18.57,23.67A46.12,46.12,0,0,0,268.44,343c13.63.11,23.94-8,27.27-21.3a36.92,36.92,0,0,0,1.3-8.51c.13-14.18.06-28.35.06-42.62h-9.26V274c0,11.66.06,23.31,0,35a54,54,0,0,1-.82,9.25c-1.81,9.94-8.72,16.17-18.3,16.76-10.64.65-18.5-4.28-21.36-13.68a32.75,32.75,0,0,1-1.51-8.81c-.2-12.76-.14-25.53-.17-38.29,0-1.18,0-2.37,0-3.66ZM378.93,381.87c0,3,0,5.87,0,8.73-.17,11.87,0,23.76-.68,35.6-.48,8.1-4.33,14.67-12.59,17.55-14,4.87-26.82-3.2-27.84-18-.78-11.16-.49-22.4-.65-33.61,0-3.39,0-6.79,0-10.16h-9.57c0,12.2,0,24.2,0,36.19,0,1.77,0,3.55.13,5.32.6,7.89,2.3,15.44,8.11,21.29,9,9,20,9.9,31.54,7.15,12.07-2.88,19.64-12.52,20.24-26.12s.33-27.31.42-41c0-1-.08-1.95-.12-2.94ZM144.5,380.55c0,14.56-.28,29,.12,43.37.2,7.18,2.44,14.08,7.75,19.34,9.81,9.73,21.75,10.43,34,6.55,11.92-3.78,17.25-13.43,17.85-25.19.74-14.5.32-29.07.39-43.61,0-.16-.24-.33-.32-.43h-8.71c0,12.51.1,24.83-.05,37.15a52.22,52.22,0,0,1-1.27,10.86c-2.09,9.19-9.08,14.78-18.27,15-10.65.28-17.8-4.3-20.38-13.88a61.27,61.27,0,0,1-1.72-14.44c-.24-11.53-.08-23.06-.08-34.74ZM51.12,228.19H70.85v-73.6H51.12Zm44.1-73.71v73.73h19.64V154.48ZM337,191.69c11.3,11,22,21.42,32.74,31.82.85.83,1.85,2,2.84,2.1,3.79.24,7.61.1,12.05.1L346.73,189l33.41-32.63c-4,0-7.17-.06-10.34.05a3.34,3.34,0,0,0-1.87,1.11c-6,6.08-11.94,12.23-18,18.29-4.16,4.18-8.46,8.23-13.07,12.71v-32H327.8v69H337Zm-128.54,34a5.67,5.67,0,0,0-.19-1.25c-9.47-22.09-19-44.15-28.38-66.28-1.14-2.69-3.07-1.43-4.72-1.73s-2.73.25-3.49,2c-6.41,15.2-12.94,30.35-19.44,45.52L143,225.55h9.22c2.75-6.45,5.43-12.76,8.11-19.07H191l8.15,19.18ZM505.68,451.47h42v-7.82H515.25V418.91H542V411H515.26V390.27h32.38V382.6h-42ZM292.94,209.89c-7.05,5.85-14.59,8.83-23.15,9.06-8.92.23-16.63-2.45-22.4-9.49-8.21-10-8.08-27.23.17-37.07a24.18,24.18,0,0,1,14.26-8.54c11.4-2.16,21.66.58,31.12,8.36A47.58,47.58,0,0,1,293,166c.4-2.88-.86-4.42-3.29-5.72a44.73,44.73,0,0,0-22-5.28c-25.8.26-44.12,24.14-33.06,51,10,24.17,40.14,25.67,57,14.47a3.15,3.15,0,0,0,1.29-2.06C293,215.85,292.94,213.22,292.94,209.89Zm-170,170.66H61.2v19.68h61.73Zm147.69,71.08V390.31H295v-7.68H236.61v7.93h24.67v61.07ZM61.28,414.51v17.65H94.81V414.51Z"/>
    <path class="cls-2" d="M465.67,342.43c-4,.1-7.94.27-11.91.29-10.42,0-20.83,0-31.48,0v-74.9c.12-.09.3-.33.47-.33l42.89.09Z"/>
    <path class="cls-3" d="M507.11,267.67c5.09-.1,10.19-.26,15.28-.29,8.75,0,17.5,0,26.45,0v74.95H507.13Q507.12,305,507.11,267.67Z"/>
    <path class="cls-4" d="M507.11,267.67q0,37.32,0,74.65l-41.46.11,0-74.84Z"/>
    <path class="cls-5" d="M174.74,342.4c-22.44,0-37.53-15.36-37.75-37.93-.21-20.63,16.5-37.44,38.59-36.87,21.08.55,36.73,16,36.8,37.37C212.45,326.72,196.69,342.4,174.74,342.4Zm-27.82-37c.15,10.82,4.23,20.12,14.38,25.57,16.18,8.68,37.28.51,40.51-20.1,2.09-13.4-2.61-25.31-12.77-31.22-9.14-5.32-18.76-5.46-27.95-.42C151.12,284.71,147.06,293.88,146.92,305.41Z"/>
    <path class="cls-6" d="M343,311.73v29.74H333.3V270.18c10.18,0,20.3-.7,30.28.2,9.71.86,16,8,16.82,16.92,1.11,11.74-3.1,19.24-13,23.11-.39.15-.75.35-1.44.67l21.64,30.65c-3.8,0-7,.18-10.13-.11-1-.09-2.21-1.24-2.89-2.21-6-8.52-11.84-17.15-17.89-25.64a5.55,5.55,0,0,0-3.64-1.95C349.81,311.55,346.49,311.73,343,311.73Zm0-7.73c6.45-.31,12.67-.2,18.77-1,5.83-.78,9.3-6,9.24-12.38s-3.47-11.39-9.14-12.13c-6.19-.82-12.51-.72-18.87-1Z"/>
    <path class="cls-7" d="M421.77,382.66c9.63,0,19.1-.68,28.44.18,10.23.94,16.12,7.64,17.12,17.3,1.07,10.33-3.32,17.63-12.88,21.47-.29.11-.56.26-1.11.52l20.9,29.59c-3.78,0-7,.11-10.27-.09-.74-.05-1.55-1.07-2.08-1.83-5.66-8.08-11.32-16.15-16.83-24.33A4.83,4.83,0,0,0,440.2,423c-2.95.19-5.93.05-9.15.05v28.53h-9.28Zm9.41,32.66c6.16-.28,12.05-.17,17.83-.94s9-5.25,9-11.61-3.09-10.92-9-11.69-11.83-.66-17.91-.94Z"/>
    <path class="cls-8" d="M103,342.31H83.2c0-1-.15-1.93-.15-2.88,0-11,.06-22-.08-33a8.51,8.51,0,0,0-1.64-4.75c-8.41-11-17-21.93-25.46-32.87-.52-.66-1-1.35-1.84-2.45,8.16,0,15.77,0,23.38.07a3.55,3.55,0,0,1,2.28,1.48Q90.94,282.77,102,297.73a4.8,4.8,0,0,1,1,2.68C103.06,314.27,103,328.13,103,342.31Z"/>
    <path class="cls-5" d="M235.7,270.5h9.91c0,1.29,0,2.48,0,3.66,0,12.76,0,25.53.17,38.29a32.75,32.75,0,0,0,1.51,8.81c2.86,9.4,10.72,14.33,21.36,13.68,9.58-.59,16.49-6.82,18.3-16.76a54,54,0,0,0,.82-9.25c.1-11.66,0-23.31,0-35v-3.41h9.26c0,14.27.07,28.44-.06,42.62a36.92,36.92,0,0,1-1.3,8.51c-3.33,13.26-13.64,21.41-27.27,21.3A46.12,46.12,0,0,1,255,341.35c-11.38-3.59-16.89-12.29-18.57-23.67a76.51,76.51,0,0,1-.69-10.6C235.65,295,235.7,282.9,235.7,270.5Z"/>
    <path class="cls-7" d="M378.93,381.87h9c0,1,.13,2,.12,2.94-.09,13.65.18,27.32-.42,41s-8.17,23.24-20.24,26.12c-11.51,2.75-22.59,1.85-31.54-7.15-5.81-5.85-7.51-13.4-8.11-21.29-.13-1.77-.13-3.55-.13-5.32,0-12,0-24,0-36.19h9.57c0,3.37,0,6.77,0,10.16.16,11.21-.13,22.45.65,33.61,1,14.84,13.88,22.91,27.84,18,8.26-2.88,12.11-9.45,12.59-17.55.71-11.84.51-23.73.68-35.6C379,387.74,378.93,384.88,378.93,381.87Z"/>
    <path class="cls-7" d="M144.5,380.55h9.32c0,11.68-.16,23.21.08,34.74a61.27,61.27,0,0,0,1.72,14.44c2.58,9.58,9.73,14.16,20.38,13.88,9.19-.24,16.18-5.83,18.27-15a52.22,52.22,0,0,0,1.27-10.86c.15-12.32.05-24.64.05-37.15h8.71c.08.1.32.27.32.43-.07,14.54.35,29.11-.39,43.61-.6,11.76-5.93,21.41-17.85,25.19-12.26,3.88-24.2,3.18-34-6.55-5.31-5.26-7.55-12.16-7.75-19.34C144.22,409.52,144.5,395.11,144.5,380.55Z"/>
    <path d="M51.12,228.19v-73.6H70.85v73.6Z"/>
    <path d="M95.22,154.48h19.64v73.73H95.22Z"/>
    <path class="cls-7" d="M337,191.69v33.87H327.8v-69h9.09v32c4.61-4.48,8.91-8.53,13.07-12.71,6-6.06,12-12.21,18-18.29a3.34,3.34,0,0,1,1.87-1.11c3.17-.11,6.33-.05,10.34-.05L346.73,189l37.93,36.69c-4.44,0-8.26.14-12.05-.1-1-.07-2-1.27-2.84-2.1C359,213.11,348.33,202.68,337,191.69Z"/>
    <path class="cls-9" d="M208.49,225.66h-9.35L191,206.48H160.35c-2.68,6.31-5.36,12.62-8.11,19.07H143L152.27,204c6.5-15.17,13-30.32,19.44-45.52.76-1.8,1.79-2.36,3.49-2s3.58-1,4.72,1.73c9.37,22.13,18.91,44.19,28.38,66.28A5.67,5.67,0,0,1,208.49,225.66ZM175.66,170.1,163.51,199h24.32"/>
    <path d="M505.68,451.47V382.6h42v7.67H515.26V411H542v7.91H515.25v24.74h32.44v7.82Z"/>
    <path class="cls-5" d="M292.94,209.89c0,3.33.09,6-.06,8.56a3.15,3.15,0,0,1-1.29,2.06c-16.84,11.2-47,9.7-57-14.47-11.06-26.87,7.26-50.75,33.06-51a44.73,44.73,0,0,1,22,5.28c2.43,1.3,3.69,2.84,3.29,5.72a47.58,47.58,0,0,0-.05,6.18c-9.46-7.78-19.72-10.52-31.12-8.36a24.18,24.18,0,0,0-14.26,8.54c-8.25,9.84-8.38,27.06-.17,37.07,5.77,7,13.48,9.72,22.4,9.49C278.35,218.72,285.89,215.74,292.94,209.89Z"/>
    <path d="M122.93,380.55v19.68H61.2V380.55Z"/>
    <path class="cls-7" d="M270.62,451.63h-9.34V390.56H236.61v-7.93H295v7.68H270.62Z"/>
    <path d="M61.28,414.51H94.81v17.65H61.28Z"/>
    <path class="cls-10" d="M146.92,305.41c.14-11.53,4.2-20.7,14.17-26.17,9.19-5,18.81-4.9,27.95.42,10.16,5.91,14.86,17.82,12.77,31.22-3.23,20.61-24.33,28.78-40.51,20.1C151.15,325.53,147.07,316.23,146.92,305.41Z"/>
    <path class="cls-11" d="M343,304V277.46c6.36.3,12.68.2,18.87,1,5.67.74,9.08,5.83,9.14,12.13s-3.41,11.6-9.24,12.38C355.69,303.8,349.47,303.69,343,304Z"/>
    <path class="cls-10" d="M431.18,415.32V390.14c6.08.28,12.05.17,17.91.94s9,5.32,9,11.69-3.12,10.83-9,11.61S437.34,415,431.18,415.32Z"/>
  </g>
</svg>
