<?xml version="1.0" encoding="UTF-8" standalone="no"?>
<svg
   xmlns:dc="http://purl.org/dc/elements/1.1/"
   xmlns:cc="http://creativecommons.org/ns#"
   xmlns:rdf="http://www.w3.org/1999/02/22-rdf-syntax-ns#"
   xmlns:svg="http://www.w3.org/2000/svg"
   xmlns="http://www.w3.org/2000/svg"
   viewBox="0 0 1823.9067 1086.0933"
   height="1086.0933"
   width="1823.9067"
   xml:space="preserve"
   id="svg2"
   version="1.1"><metadata
     id="metadata8"><rdf:RDF><cc:Work
         rdf:about=""><dc:format>image/svg+xml</dc:format><dc:type
           rdf:resource="http://purl.org/dc/dcmitype/StillImage" /></cc:Work></rdf:RDF></metadata><defs
     id="defs6" /><g
     transform="matrix(1.3333333,0,0,-1.3333333,0,1086.0933)"
     id="g10"><g
       transform="scale(0.1)"
       id="g12"><path
         id="path14"
         style="fill:#231f20;fill-opacity:1;fill-rule:nonzero;stroke:none"
         d="m 11116,2984.03 c 0,-216.68 151.9,-368.5 354.7,-368.5 202.9,0 356.1,151.82 356.1,368.5 0,216.68 -153.2,368.51 -356.1,368.51 -202.8,0 -354.7,-151.83 -354.7,-368.51 m 1079.3,0 c 0,-403 -307.8,-703.87 -724.6,-703.87 -415.4,0 -721.8,300.87 -721.8,703.87 0,403.01 306.4,703.89 721.8,703.89 416.8,0 724.6,-300.88 724.6,-703.89 m -2653.84,0 c 0,-216.68 151.82,-368.5 354.71,-368.5 202.93,0 356.03,151.82 356.03,368.5 0,216.68 -153.1,368.51 -356.03,368.51 -202.89,0 -354.71,-151.83 -354.71,-368.51 m 1079.34,0 c 0,-403 -307.8,-703.87 -724.63,-703.87 -415.43,0 -721.83,300.87 -721.83,703.87 0,403.01 306.4,703.89 721.83,703.89 416.83,0 724.63,-300.88 724.63,-703.89 m -1647.67,182.18 v -851.56 h -358.85 v 735.63 c 0,193.22 -97.99,299.5 -260.85,299.5 -154.57,0 -282.93,-100.76 -282.93,-302.26 v -732.87 h -360.22 v 735.63 c 0,193.22 -96.61,299.5 -260.85,299.5 -154.58,0 -282.94,-100.76 -282.94,-302.26 v -732.87 h -360.22 v 1337.38 h 350.57 v -157.34 c 95.23,142.17 241.52,193.23 393.34,193.23 193.22,0 351.94,-86.96 441.65,-229.12 103.51,169.76 278.8,229.12 454.07,229.12 314.68,0 527.23,-211.18 527.23,-521.71 m -3331.51,-56.58 h 592.08 c -33.12,171.13 -136.63,267.74 -291.21,267.74 -169.76,0 -269.13,-102.13 -300.87,-267.74 m 953.68,-124.22 c 0,-41.4 -2.76,-91.09 -6.9,-121.45 h -948.17 c 38.65,-193.23 173.91,-277.42 343.67,-277.42 115.92,0 241.52,46.94 338.13,128.35 l 211.17,-231.85 c -151.82,-139.4 -345.05,-202.88 -570.01,-202.88 -409.9,0 -694.22,278.79 -694.22,699.72 0,420.96 276.03,708.04 676.28,708.04 385.06,0 648.67,-285.71 650.05,-702.51 m -2408.18,124.22 h 592.08 c -33.12,171.13 -136.63,267.74 -291.21,267.74 -169.76,0 -269.13,-102.13 -300.87,-267.74 m 953.69,-124.22 c 0,-41.4 -2.76,-91.09 -6.9,-121.45 h -948.17 c 38.64,-193.23 173.89,-277.42 343.65,-277.42 115.94,0 241.53,46.94 338.14,128.35 l 211.17,-231.85 c -151.82,-139.4 -345.04,-202.88 -570.01,-202.88 -409.9,0 -694.22,278.79 -694.22,699.72 0,420.96 276.03,708.04 676.28,708.04 385.07,0 648.67,-285.71 650.06,-702.51 m -1527.56,180.8 v -851.56 h -358.84 v 735.63 c 0,193.22 -97.99,299.5 -260.85,299.5 -154.58,0 -282.93,-100.76 -282.93,-302.26 v -732.87 h -360.22 v 735.63 c 0,193.22 -96.61,299.5 -260.85,299.5 -154.58,0 -282.93,-100.76 -282.93,-302.26 v -732.87 h -360.22 v 1337.38 h 350.55 v -157.34 c 95.23,142.17 241.53,193.23 393.35,193.23 193.22,0 351.94,-86.96 441.65,-229.12 103.51,169.76 278.79,229.12 454.07,229.12 314.68,0 527.22,-211.18 527.22,-521.71" /><path
         id="path16"
         style="fill:#231f20;fill-opacity:1;fill-rule:nonzero;stroke:none"
         d="m 10841.4,1730.26 c -26.4,19.2 -60.9,34.51 -102.3,34.51 -39.9,0 -68.4,-17.71 -68.4,-48.01 0,-28.19 29.1,-40.2 74.7,-50.69 l 24.9,-5.71 c 73.2,-16.79 118.8,-53.4 118.8,-119.69 0,-88.5 -72.6,-132.59 -158.1,-132.59 -63.3,0 -121.5,21.3 -160.2,56.99 l 47.4,61.8 c 25.8,-22.5 64.8,-42.6 112.8,-42.6 40.5,0 70.8,17.4 70.8,48.6 0,27.6 -24,40.21 -72,50.7 l -27.3,6 c -77.1,16.8 -118.2,56.99 -118.2,123.59 0,77.41 64.2,128.1 152.7,128.1 55.2,0 100.5,-14.39 147.6,-47.7 z m -313.7,-240.89 v -74.7 h -278.6 v 419.99 h 277.7 v -74.7 h -195.5 v -95.99 h 185.3 v -74.7 h -185.3 v -99.9 z m -317.1,345.29 -141.8,-419.99 h -98.44 l -141.9,419.99 h 87 l 104.74,-330.59 105.2,330.59 z m -419.22,-419.99 h -82.19 v 419.99 h 82.19 z m -159.6,419.99 v -419.99 h -81.91 v 174 h -169.19 v -174 h -82.19 v 419.99 h 82.19 v -170.1 h 169.19 v 170.1 z m -381,-87.9 -70.8,-38.69 c -19.49,34.79 -50.7,53.99 -89.99,53.99 -63,0 -108.3,-51.3 -108.3,-137.4 0.3,-89.08 47.69,-137.38 108.59,-137.38 38.7,0 70.21,18.89 90.61,53.7 l 67.79,-42.9 c -31.49,-56.41 -87.6,-90.31 -158.4,-90.31 -115.19,0 -193.79,85.5 -193.79,216.89 0,131.4 78.6,216.89 193.79,216.89 71.1,0 131.1,-35.09 160.5,-94.79 m -612.41,-96.9 h 73.5 c 39.9,0 63.9,18 63.9,55.2 0,36.9 -24.6,54.31 -63.9,54.31 h -73.5 z m 20.69,-69.89 h -20.69 v -165.3 h -82.19 v 419.99 h 156.58 c 93.91,0 147,-48.6 147,-129.6 0,-66.29 -41.7,-111.89 -112.49,-122.7 l 115.79,-167.69 h -96.6 z m -282.89,4.5 -53.1,164.39 -52.8,-164.39 z m 24.3,-74.69 h -154.49 l -30.6,-95.11 h -85.2 l 145.2,419.99 h 97.2 l 145.18,-419.99 h -86.7 z m -650.69,140.08 h 73.5 c 39.89,0 63.9,18 63.9,55.2 0,36.9 -24.6,54.31 -63.9,54.31 h -73.5 z m 20.71,-69.89 h -20.71 v -165.3 h -82.19 v 419.99 h 156.59 c 93.9,0 146.99,-48.6 146.99,-129.6 0,-66.29 -41.7,-111.89 -112.49,-122.7 l 115.79,-167.69 h -96.59 z m -466.03,44.69 c 0,-86.09 45,-137.38 109.5,-137.38 64.5,0 109.49,51.29 109.49,137.38 0,86.1 -44.99,137.4 -109.49,137.4 -64.5,0 -109.5,-51.3 -109.5,-137.4 m 304.19,0 c 0,-130.49 -78.59,-216.89 -194.69,-216.89 -116.1,0 -194.69,86.4 -194.69,216.89 0,130.51 78.59,216.89 194.69,216.89 116.1,0 194.69,-86.38 194.69,-216.89 m -614.38,135.3 v -99.29 h 179.69 v -74.69 h -179.69 v -171.31 h -82.19 v 419.99 h 274.48 v -74.7 z m -282.9,-270.59 v -74.7 h -278.69 v 419.99 h 277.79 v -74.7 h -195.59 v -95.99 h 185.39 v -74.7 h -185.39 v -99.9 z m -318.59,269.09 h -114.9 v -343.79 h -82.19 v 343.79 h -114.9 v 76.2 h 311.99 z m -350.1,-189.89 c 0,-102.59 -62.99,-160.49 -163.49,-160.49 -100.5,0 -163.79,57.9 -163.79,160.49 v 266.09 h 82.2 v -261.9 c 0,-58.49 32.99,-85.48 81.59,-85.48 48.6,0 81.6,26.99 81.6,85.48 v 261.9 h 81.89 z m -365.21,189.89 h -114.89 v -343.79 h -82.2 v 343.79 h -114.89 v 76.2 h 311.98 z m -350.74,-343.79 h -82.19 v 419.99 h 82.19 z m -122.04,343.79 h -114.9 v -343.79 h -82.19 v 343.79 h -114.9 v 76.2 h 311.99 z m -389.81,-28.2 c -26.41,19.2 -60.9,34.51 -102.3,34.51 -39.9,0 -68.4,-17.71 -68.4,-48.01 0,-28.19 29.1,-40.2 74.7,-50.69 l 24.9,-5.71 c 73.2,-16.79 118.79,-53.4 118.79,-119.69 0,-88.5 -72.59,-132.59 -158.09,-132.59 -63.3,0 -121.49,21.3 -160.2,56.99 l 47.4,61.8 c 25.8,-22.5 64.8,-42.6 112.8,-42.6 40.5,0 70.8,17.4 70.8,48.6 0,27.6 -24,40.21 -72,50.7 l -27.3,6 c -77.1,16.8 -118.19,56.99 -118.19,123.59 0,77.41 64.2,128.1 152.69,128.1 55.2,0 100.49,-14.39 147.59,-47.7 z m -323.71,-315.59 h -78.59 l -181.2,273 v -273 h -81.59 v 419.99 h 78.59 l 181.5,-273.59 v 273.59 h 81.29 z m -417.71,0 h -82.19 v 419.99 h 82.19 z m -290.4,419.99 v -419.99 h -81.9 v 174 h -169.19 v -174 h -82.19 v 419.99 h 82.19 v -170.1 h 169.19 v 170.1 z m -439.73,-104.4 c -26.4,19.2 -60.9,34.51 -102.29,34.51 -39.9,0 -68.4,-17.71 -68.4,-48.01 0,-28.19 29.1,-40.2 74.7,-50.69 l 24.89,-5.71 c 73.2,-16.79 118.8,-53.4 118.8,-119.69 0,-88.5 -72.59,-132.59 -158.09,-132.59 -63.3,0 -121.5,21.3 -160.2,56.99 l 47.4,61.8 c 25.8,-22.5 64.8,-42.6 112.8,-42.6 40.5,0 70.79,17.4 70.79,48.6 0,27.6 -24,40.21 -71.99,50.7 l -27.3,6 c -77.1,16.8 -118.2,56.99 -118.2,123.59 0,77.41 64.2,128.1 152.7,128.1 55.19,0 100.49,-14.39 147.59,-47.7 z m -323.87,-315.59 h -82.19 v 419.99 h 82.19 z m -159.97,0 h -81.59 v 308.99 l -87.6,-241.49 h -83.39 l -87.6,240.29 v -307.79 h -81.9 v 419.99 h 115.8 l 95.4,-255.29 95.39,255.29 h 115.49 z m -491.26,74.7 v -74.7 h -278.69 v 419.99 h 277.79 v -74.7 h -195.6 v -95.99 h 185.4 v -74.7 h -185.4 v -99.9 z m -318.6,1.5 v -76.2 h -274.19 v 419.99 h 82.19 v -343.79 z m -521.03,269.09 v -99.29 h 179.7 v -74.69 h -179.7 v -171.31 h -82.19 v 419.99 h 274.49 v -74.7 h -192.3" /><path
         id="path18"
         style="fill:#4fc29f;fill-opacity:1;fill-rule:nonzero;stroke:none"
         d="m 3617.58,5589.65 c 0.92,0 0.86,-0.86 0.86,-0.86 V 4620.18 H 4767.45 V 6683.6 H 3618.44 v -968.61 c 0,0 0,-0.77 -1.08,-0.77 -0.75,0 -0.73,0.77 -0.73,0.77 -32.67,570.42 -505.59,1022.92 -1084.21,1022.92 -599.79,0 -1086.02,-486.23 -1086.02,-1086.02 0,-599.79 486.23,-1086.02 1086.02,-1086.02 578.62,0 1051.54,452.49 1084.21,1022.92 0,0 -0.01,0.86 0.95,0.86" /></g></g></svg>
