<?xml version="1.0" encoding="utf-8"?>
<svg viewBox="131.865 179.324 257.954 69.063" xmlns="http://www.w3.org/2000/svg">
  <defs>
    <clipPath id="clippath0" transform="">
      <path d="M 25.228 113.805 C 19.149 113.805 14.177 108.832 14.177 102.754 L 14.177 102.754 L 14.177 25.231 C 14.177 19.152 19.149 14.18 25.228 14.18 L 25.228 14.18 L 190.263 14.18 C 196.341 14.18 201.314 19.153 201.314 25.231 L 201.314 25.231 L 201.314 43.491 C 201.314 45.513 202.117 47.453 203.548 48.884 L 203.548 48.884 L 212.644 57.98 C 215.184 60.519 215.177 64.637 212.631 67.168 L 212.631 67.168 L 203.564 76.185 C 202.124 77.616 201.314 79.564 201.314 81.594 L 201.314 81.594 L 201.314 102.754 C 201.314 108.832 196.341 113.805 190.263 113.805 L 190.263 113.805 Z" style="fill: none; clip-rule: nonzero;"/>
    </clipPath>
    <linearGradient id="shading0" gradientUnits="userSpaceOnUse" x1="0" y1="0" x2="1" y2="0">
      <stop offset="0" style="stop-color: rgb(255, 214, 76);"/>
      <stop offset="0.1" style="stop-color: rgb(247, 200, 75);"/>
      <stop offset="0.2" style="stop-color: rgb(233, 187, 74);"/>
      <stop offset="0.3" style="stop-color: rgb(218, 175, 73);"/>
      <stop offset="0.4" style="stop-color: rgb(205, 163, 72);"/>
      <stop offset="0.5" style="stop-color: rgb(192, 151, 70);"/>
      <stop offset="0.6" style="stop-color: rgb(179, 140, 69);"/>
      <stop offset="0.7" style="stop-color: rgb(167, 129, 67);"/>
      <stop offset="0.8" style="stop-color: rgb(155, 118, 65);"/>
      <stop offset="0.9" style="stop-color: rgb(144, 108, 64);"/>
      <stop offset="1" style="stop-color: rgb(133, 98, 62);"/>
    </linearGradient>
    <clipPath id="clippath1" transform="">
      <path d="M 0 127.984 L 415.474 127.984 L 415.474 0 L 0 0 Z" style="fill: none; clip-rule: nonzero;"/>
    </clipPath>
  </defs>
  <g transform="matrix(0.693226, 0, 0, -0.693226, 122.037521, 258.216309)">
    <path d="M 25.228 113.805 C 19.149 113.805 14.177 108.832 14.177 102.754 L 14.177 102.754 L 14.177 25.231 C 14.177 19.152 19.149 14.18 25.228 14.18 L 25.228 14.18 L 190.263 14.18 C 196.341 14.18 201.314 19.153 201.314 25.231 L 201.314 25.231 L 201.314 43.491 C 201.314 45.513 202.117 47.453 203.548 48.884 L 203.548 48.884 L 212.644 57.98 C 215.184 60.519 215.177 64.637 212.631 67.168 L 212.631 67.168 L 203.564 76.185 C 202.124 77.616 201.314 79.564 201.314 81.594 L 201.314 81.594 L 201.314 102.754 C 201.314 108.832 196.341 113.805 190.263 113.805 L 190.263 113.805 Z" style="fill: none;"/>
  </g>
  <g style="clip-path: url(#clippath0);" transform="matrix(0.693226, 0, 0, -0.693226, 122.037521, 258.216309)">
    <g transform="matrix(-139.4551086 -135.5218506 -135.5218506 139.4551086 177.472702 131.7530823)">
      <rect x="-0.8642246489274661" y="-1.3388732101589604" width="1.9909240174111404" height="1.9610204009311585" style="fill: url(#shading0);"/>
    </g>
  </g>
  <g style="clip-path: url(#clippath1);" transform="matrix(0.693226, 0, 0, -0.693226, 122.037521, 258.216309)">
    <g transform="translate(175.9982 95.8645)">
      <path d="M 0 0 L 0 0 C 4.074 0 7.376 -3.302 7.376 -7.376 L 7.376 -56.369 C 7.376 -60.443 4.074 -63.745 0 -63.745 C -4.074 -63.745 -7.376 -60.443 -7.376 -56.369 L -7.376 -7.376 C -7.376 -3.302 -4.074 0 0 0" style="fill: rgb(255, 255, 255); fill-opacity: 1;"/>
    </g>
  </g>
  <g style="clip-path: url(#clippath1);" transform="matrix(0.693226, 0, 0, -0.693226, 122.037521, 258.216309)">
    <g transform="translate(152.1193 64.9934)">
      <path d="M 0 0 L -0.506 0 C -0.57 0 -0.633 -0.008 -0.698 -0.01 C -0.762 -0.008 -0.825 0 -0.89 0 L -8.173 0 C -12.102 0 -15.532 -2.965 -15.786 -6.885 C -16.064 -11.181 -12.662 -14.752 -8.425 -14.752 C -7.649 -14.752 -7.082 -15.506 -7.314 -16.246 C -7.972 -18.334 -9.655 -19.997 -11.861 -20.579 C -13.935 -21.126 -16.137 -21.4 -18.466 -21.4 C -22.473 -21.4 -26.04 -20.535 -29.166 -18.805 C -32.293 -17.075 -34.736 -14.661 -36.497 -11.565 C -38.258 -8.469 -39.138 -4.948 -39.138 -1.001 C -39.138 3.005 -38.258 6.557 -36.497 9.653 C -34.736 12.75 -32.278 15.146 -29.12 16.848 C -25.964 18.546 -22.352 19.397 -18.284 19.397 C -13.603 19.397 -9.419 18.128 -5.734 15.59 C -3.393 13.978 -0.21 14.002 2.023 15.761 C 5.503 18.502 5.312 23.806 1.708 26.213 C 0.008 27.349 -1.83 28.325 -3.804 29.141 C -8.357 31.022 -13.427 31.964 -19.012 31.964 C -25.691 31.964 -31.702 30.552 -37.042 27.729 C -42.386 24.907 -46.559 20.991 -49.564 15.982 C -52.569 10.974 -54.072 5.312 -54.072 -1.001 C -54.072 -7.316 -52.569 -12.976 -49.564 -17.985 C -46.559 -22.994 -42.416 -26.909 -37.134 -29.732 C -31.852 -32.556 -25.903 -33.967 -19.285 -33.967 C -14.672 -33.967 -10.088 -33.268 -5.534 -31.872 C -5.489 -31.858 -5.443 -31.844 -5.398 -31.83 C 1.706 -29.628 6.486 -22.97 6.486 -15.533 L 6.486 -6.486 C 6.486 -2.904 3.583 0 0 0" style="fill: rgb(255, 255, 255); fill-opacity: 1;"/>
    </g>
  </g>
  <g style="clip-path: url(#clippath1);" transform="matrix(0.693226, 0, 0, -0.693226, 122.037521, 258.216309)">
    <g transform="translate(90.5807 88.5798)">
      <path d="M 0 0 L 0 -49.176 C 0 -53.199 -3.262 -56.461 -7.286 -56.461 L -8.667 -56.461 C -10.848 -56.461 -12.914 -55.484 -14.298 -53.799 L -38.527 -24.294 C -40.331 -22.097 -43.895 -23.373 -43.895 -26.216 L -43.895 -49.176 C -43.895 -53.199 -47.156 -56.461 -51.18 -56.461 C -55.203 -56.461 -58.465 -53.199 -58.465 -49.176 L -58.465 0 C -58.465 4.024 -55.203 7.285 -51.18 7.285 L -49.712 7.285 C -47.528 7.285 -45.459 6.306 -44.076 4.616 L -19.941 -24.859 C -18.139 -27.061 -14.571 -25.786 -14.571 -22.941 L -14.571 0 C -14.571 4.024 -11.31 7.285 -7.286 7.285 C -3.262 7.285 0 4.024 0 0" style="fill: rgb(255, 255, 255); fill-opacity: 1;"/>
    </g>
  </g>
  <g transform="matrix(0.693226, 0, 0, -0.693226, 122.037521, 258.216309)">
    <path d="M 0.24 0 L 0.37 0 L 0.37 -0.59 L 0.6 -0.59 L 0.6 -0.7 L 0 -0.7 L 0 -0.59 L 0.24 -0.59 L 0.24 0 ZM 1.612 0 L 1.452 -0.23 C 1.552 -0.27 1.602 -0.35 1.602 -0.45 C 1.602 -0.61 1.492 -0.7 1.302 -0.7 L 1.012 -0.7 L 1.012 0 L 1.142 0 L 1.142 -0.2 L 1.302 -0.2 C 1.312 -0.2 1.322 -0.2 1.332 -0.21 L 1.472 0 L 1.612 0 Z M 1.472 -0.45 C 1.472 -0.36 1.412 -0.31 1.302 -0.31 L 1.142 -0.31 L 1.142 -0.59 L 1.302 -0.59 C 1.412 -0.59 1.472 -0.54 1.472 -0.45 ZM 2.373 0.01 C 2.563 0.01 2.673 -0.1 2.673 -0.3 L 2.673 -0.7 L 2.543 -0.7 L 2.543 -0.31 C 2.543 -0.17 2.483 -0.1 2.373 -0.1 C 2.253 -0.1 2.193 -0.17 2.193 -0.31 L 2.193 -0.7 L 2.063 -0.7 L 2.063 -0.3 C 2.063 -0.1 2.173 0.01 2.373 0.01 ZM 3.392 0.01 C 3.582 0.01 3.672 -0.09 3.672 -0.2 C 3.672 -0.46 3.262 -0.36 3.262 -0.51 C 3.262 -0.56 3.302 -0.6 3.412 -0.6 C 3.472 -0.6 3.542 -0.58 3.602 -0.55 L 3.652 -0.65 C 3.582 -0.69 3.502 -0.71 3.412 -0.71 C 3.222 -0.71 3.132 -0.61 3.132 -0.5 C 3.132 -0.24 3.552 -0.34 3.552 -0.19 C 3.552 -0.14 3.502 -0.1 3.392 -0.1 C 3.312 -0.1 3.222 -0.13 3.162 -0.18 L 3.122 -0.07 C 3.172 -0.02 3.282 0.01 3.392 0.01 ZM 4.261 0 L 4.391 0 L 4.391 -0.59 L 4.621 -0.59 L 4.621 -0.7 L 4.021 -0.7 L 4.021 -0.59 L 4.261 -0.59 L 4.261 0 Z" transform="matrix(31.760000228881836, 0, 0, -31.760000228881836, 237.904296875, 52.392601013183594)" style="fill: rgb(75, 152, 166); white-space: pre;"/>
  </g>
</svg>