<svg id="Your_design" data-name="Your design" xmlns="http://www.w3.org/2000/svg" viewBox="0 0 400 400"><defs><style>.cls-1{fill:#d7d75a;}.cls-2{fill:#91b5c4;}.cls-3{fill:none;stroke:#165939;stroke-miterlimit:10;stroke-width:22.58px;}.cls-4{fill:#739099;}.cls-5{fill:#343945;}.cls-6{fill:#c57660;}.cls-7{fill:#0e0c0d;}.cls-8{fill:#677077;}.cls-9{fill:#165939;}.cls-10{fill:#6a8b69;}.cls-11{fill:#02472e;}.cls-12{fill:#004f35;}.cls-13{fill:#f2e8d9;}.cls-14{fill:#a61816;}</style></defs><title>Crest_arTIFFact Control final</title><circle class="cls-1" cx="200" cy="200" r="200"/><polygon class="cls-2" points="290.81 65.3 290.81 341.12 105.2 341.12 105.2 115.19 155.18 65.3 290.81 65.3"/><polyline class="cls-3" points="214.18 94.89 246.91 127.62 318.04 56.49"/><polygon class="cls-4" points="155.17 115.29 155.17 65.31 105.19 115.29 155.17 115.29"/><path class="cls-5" d="M290.81,286.93v54.19H105.2V257.65c7.73-10.74,26.07-14.54,40.22-17.69,16.87-3.74,25-26.83,25-26.83L216,210s13.43,20.29,24.67,27.16,37.15,13.11,44,25C286.89,266,289,275.63,290.81,286.93Z"/><path class="cls-6" d="M222.85,193.75c0,17.59-13.06,31.85-29.19,31.85s-29.19-14.26-29.19-31.85c0-7.43-3.91-23.61,0-29,5.35-7.41,19.88-2.81,29.19-2.81s23.84-7.25,29.19,0C226.89,167.37,222.85,186.2,222.85,193.75Z"/><ellipse class="cls-6" cx="194.29" cy="212.95" rx="23.88" ry="18.26"/><path class="cls-7" d="M145.74,161.91s11.86,10.3,47.45,9.68,46.52-6.87,45.9-10.93-30.91,1.56-45.27,1.25S145.74,157.85,145.74,161.91Z"/><path class="cls-7" d="M184.15,121H201a20.93,20.93,0,0,1,20.93,20.93v25a0,0,0,0,1,0,0h-58.7a0,0,0,0,1,0,0v-25A20.93,20.93,0,0,1,184.15,121Z"/><rect class="cls-8" x="163.22" y="152.85" width="58.7" height="6.87"/><ellipse class="cls-9" cx="192.88" cy="193.13" rx="19.36" ry="17.17"/><path class="cls-10" d="M188.19,158.8s5-.33,5.63-2.51.94-4.06,1.87-3.75.31,3.75,1.25,4.37,3.12.94,5.31-.93,3.43.93,3.43.93a19.67,19.67,0,0,1-4.68,1.88,4.88,4.88,0,0,0-2.5.93l5.62,3.12-3.12.63-5-4.68v8.11l-1.56,2.19.32-10s-4.06,3-4.06,4.77-2.5,3.66-2.5,3.66,2.81-7.18,4.68-8.43a13.36,13.36,0,0,1-6.55.62Z"/><path class="cls-11" d="M188.51,163.47s-11.55,6.24-14,9.05-3.74,9.06-3.74,9.68c2.81,0,9.67-.31,12.8-1.25s6.55-7.49,6.55-11.55a46.41,46.41,0,0,1,.63-7.49Z"/><path class="cls-9" d="M166,149.73a44,44,0,0,1,4.06,5.93c3.12,5,3.75,9.37,9.06,9.06s10-1.56,9.67-4.37-4.37-4.06-10.61-8.43A14,14,0,0,0,166,149.73Z"/><path class="cls-9" d="M201.31,156.91c-.94-2.24,1.88-6.87,6.56-7.18s10.3-1.25,12.49,0,6.55,1.56,6.87.94a7.42,7.42,0,0,1-7.19,6.24c-3.74,0-5.62,2.5-9.36,2.81S202.26,159.16,201.31,156.91Z"/><path class="cls-9" d="M201.94,161.91a27.08,27.08,0,0,1,10.92,2.81c5.62,2.81,2.81,4.68,7.81,6.87-7.81,2.18-13.74,3.74-16.86-.32a32.82,32.82,0,0,1-4.68-9.36Z"/><path class="cls-12" d="M197,168.17a27.15,27.15,0,0,1,1.77,11.15c-.35,6.27-3.18,4.44-3.2,9.89-5.11-6.29-8.9-11.11-6.42-15.59a32.84,32.84,0,0,1,6.73-8Z"/><path class="cls-6" d="M163.67,175.39s-3.26-4.74-3.57-1,1.56,13.42,1.87,16.86.3,9.59,4.21,10.41"/><path class="cls-6" d="M223.16,173.34s3.25-4.74,3.57-1-1.56,13.42-1.88,16.85-.29,9.6-4.2,10.42"/><path class="cls-13" d="M171.37,217.54s2.16,31.16,5.28,42.71,16.86,52.46,16.86,52.46,14.05-46.52,15.3-48.71,10.74-36.67,9.05-48.39c-4.31,7.46-10.31,15.11-21.86,15.3C176.65,231.22,171.37,217.54,171.37,217.54Z"/><path class="cls-14" d="M188.2,247.45l2.81-9.36h5l2.5,9.36-2.5,7.18s.32-1.87,2.5,5.94,5.62,19,5.62,19-10.93,31.22-10.3,34.34c-2.19-7.8-9.37-25.91-9.37-25.91L190.7,255Z"/></svg>