<svg width="400" height="400" viewBox="0 0 400 400" fill="none" xmlns="http://www.w3.org/2000/svg">
<g clip-path="url(#clip0)">
<circle cx="200" cy="200" r="200" fill="#3A81FC"/>
<path d="M103 144.5L78 152H50.5" stroke="#C2C2C2" stroke-width="5"/>
<path d="M298 145L323 152.5H350.5" stroke="#C2C2C2" stroke-width="5"/>
<rect x="191" y="147" width="17" height="45" fill="#D9D9D9"/>
<rect x="195" y="111" width="9" height="45" fill="#707070"/>
<path d="M187 196.5C187 189.596 192.596 184 199.5 184V184C206.404 184 212 189.596 212 196.5V286H187V196.5Z" fill="#D9D9D9"/>
<path d="M221 375V307C221 295.402 211.598 286 200 286V286C188.402 286 179 295.402 179 307V375" stroke="#C2C2C2" stroke-width="10" stroke-linecap="round"/>
<rect x="187" y="299" width="25" height="116" rx="10" fill="black"/>
<path fill-rule="evenodd" clip-rule="evenodd" d="M175.5 99C169.149 99 164 104.149 164 110.5C164 116.851 169.149 122 175.5 122H187.011C187.272 128.119 192.316 133 198.5 133H200.5C206.684 133 211.728 128.119 211.989 122H224.5C230.851 122 236 116.851 236 110.5C236 104.149 230.851 99 224.5 99H175.5Z" fill="black"/>
<path d="M105 137L199 152.5L296.5 137" stroke="#E9E9E9" stroke-width="11"/>
<rect x="37" y="127" width="71" height="20" rx="3" fill="black"/>
<rect x="293" y="127" width="71" height="20" rx="3" fill="black"/>
<path fill-rule="evenodd" clip-rule="evenodd" d="M139.55 133.998C139.295 134.154 139.047 134.326 138.805 134.514C135.29 137.25 134.659 142.318 137.396 145.833C138.711 147.523 140.567 148.547 142.529 148.849C139.074 150.969 134.503 150.197 131.955 146.923C129.218 143.408 129.849 138.341 133.364 135.605C135.189 134.184 137.432 133.671 139.55 133.998Z" fill="black"/>
<path d="M122 134.542C122 128.168 127.168 123 133.542 123H136.458C142.832 123 148 128.168 148 134.542V134.542C148 137.004 146.004 139 143.542 139H126.458C123.996 139 122 137.004 122 134.542V134.542Z" fill="#C4C4C4"/>
<rect x="146.565" y="133.979" width="4.43522" height="1.77409" rx="0.887044" transform="rotate(0.428655 146.565 133.979)" fill="black"/>
<path d="M268 214L299.098 132.553C303.208 121.787 318.654 122.441 321.841 133.515L328.455 156.5L345 214" stroke="#505050" stroke-width="3"/>
<rect x="315" y="127" width="49" height="20" rx="3" fill="black"/>
<path d="M365.546 228.91C367.417 258.761 343.712 284 313.802 284L299.489 284C269.768 284 246.027 259.253 247.26 229.558V229.558C247.744 217.89 257.996 209.065 269.606 210.322L306.194 214.283L343.405 210.255C354.753 209.026 364.831 217.518 365.546 228.91V228.91Z" fill="black"/>
<path fill-rule="evenodd" clip-rule="evenodd" d="M297.027 286.052L297.09 286.143C294.506 285.99 291.971 285.658 289.496 285.161L290.741 284.027C290.314 277.886 290.446 268.366 290.572 259.232C290.717 248.76 290.855 238.797 290.136 235.014C288.559 226.719 274.849 262.88 270.337 277.325C255.25 267.488 245.277 250.463 245.277 231.108C245.277 217.044 258.669 206.843 272.228 210.578L306.964 220.148L341.7 210.578C355.259 206.843 368.651 217.044 368.651 231.108C368.651 249.806 359.344 266.33 345.109 276.299C341.374 259.329 333.67 230.922 331.46 238.045C330.319 241.723 329.332 251.638 328.295 262.059C327.474 270.305 326.622 278.867 325.637 284.905C323.323 285.424 320.954 285.798 318.54 286.016C317.787 272.473 312.471 230.452 308.884 238.49C307.314 242.006 305.158 251.735 302.892 261.959C300.915 270.878 298.854 280.174 297.027 286.052Z" fill="#FFB712"/>
</g>
<defs>
<clipPath id="clip0">
<rect width="400" height="400" fill="white"/>
</clipPath>
</defs>
</svg>
