<svg id="Layer_1" data-name="Layer 1" xmlns="http://www.w3.org/2000/svg" xmlns:xlink="http://www.w3.org/1999/xlink" viewBox="0 0 400 400"><defs><style>.cls-1{fill:#f2f2f2;}.cls-2,.cls-8{fill:none;}.cls-3{clip-path:url(#clip-path);}.cls-4{fill:#fff;}.cls-5{mask:url(#mask);}.cls-6{fill:#f1f1f1;}.cls-7{fill:#2e3667;}.cls-8{stroke:#2e3667;stroke-miterlimit:10;stroke-width:8px;}.cls-9{fill:#a6a9ad;}.cls-10{fill:#ccc;}.cls-11{fill:#292c2d;}.cls-12{fill:#fc546e;}</style><clipPath id="clip-path"><rect class="cls-2" width="400" height="400"/></clipPath><mask id="mask" x="-126.69" y="0" width="526.89" height="400" maskUnits="userSpaceOnUse"><g id="mask0"><path class="cls-1" d="M200.2,400c110.46,0,200-89.54,200-200S310.66,0,200.2,0,.2,89.54.2,200,89.74,400,200.2,400Z"/></g></mask></defs><g class="cls-3"><rect class="cls-4" width="400" height="400"/><g class="cls-5"><path class="cls-6" d="M200.2,400c110.46,0,200-89.54,200-200S310.66,0,200.2,0,.2,89.54.2,200,89.74,400,200.2,400Z"/><path class="cls-7" d="M168.1,185.29c-6.18,3.75-6.27,5.24-14.69,8.7s-10.29,2.34-16.28,12.91-16.56,25.73-15,35.18-.56,14.69,4.49,19.74,7.21,8.7,8.7,12.06c1,2.34-1,4.21-1,8.14s.56,4.21,3.93,4.21,0,2.62,2.9,7.39,3.46,6.08,7.39,17.59,11.79,28.16,22.64,35.74-5.8-6.55-6.55-13.66,2.9-7.11,2.9-12.63,5.24-.28,6.83-4.21-.56-9,1.31-14.5,2.06-9.45-5-12.35a34,34,0,0,1-14.5-11.32c-2.33-3.46-4.49-5.52-9.16-8.14s-6.83.56-10-1.59-1.88-2.9-4.78-7.57-4.95-3.47-5.23-7.4,4.77-10,5.52-9.44,0,6.08,2,6.26-.74-5.8,1.6-9.72,4.2-9.45,9.44-12.63,5.52-6.27,11.32-7.4,0-7.39,3.93-6.82,6.55,4.21,7.39-.28.28-3.47-4.21-8.42-8.7-7.11-11-1-3.65,11.32-6.54,8.14-1.59-8.14,1.3-9.45,9-7.58,13.1-5,8.7,1.87,9.45-1-5-5-1.87-8.14,9.45-4.49,9.45-.75-2.62,7.86.75,9.17,11.78-3.65,14.21-4.21,9.45-1.31,13.38-4.49,8.42-8.14,10.76-9.73-9.73-2.34-15.81-.75a162.78,162.78,0,0,1-19.74,3.65C175.49,182.39,171.37,183.33,168.1,185.29Z"/><path class="cls-7" d="M134,252.84c-.75,2.15,1.31-.57,2.62,3.18s-2.06,3.46,1.87,4.49,9.45,1.31,7.39-1.31S134.51,251.24,134,252.84Z"/><path class="cls-7" d="M207.29,191.56c-2.62.94-6.27,2.34-2.34,2.9s10.29,0,9.17-2.06S209.16,190.91,207.29,191.56Z"/><path class="cls-7" d="M285.12,303.26c-3.08.75-3.92,2.06-5.51,4.21s-1.88,5.24-2.91,7.86.57,4.95,3.19,1.59S288.21,302.51,285.12,303.26Z"/><path class="cls-7" d="M217.77,199c-2.62,2.9-7.58,9-4.49,8.42s5.52-4.77,5.8-1.87,5.8,3.18,6.08.56S222.17,194.09,217.77,199Z"/><path class="cls-7" d="M316.37,225.43S300.09,190.72,292.7,192s-7.86.75-14.68,1.31-1.32-3.18-4.22-5-5.23,5.24-9,4.77-4.95-.75-9.44-5-9.45-1-13.38.75-6.83,4.77-10,6.83,1.31,2.62,3.93,3.65,6.55,1.31,9-.56,1-4.49,4.49-5.8-.28,4.77,1,7.86-3.65,3.18-6.83,3.46-4.77-.28-9.73-2.34-3.93,4.77-5.8,5.52-9,3.18-8.42,5.8,4.77,5.24,1,4.77-8.42,1.87-8.7,4.77,3.46,7.39,5,7.58,7.39-1.59,8.42-4.49,3.46-4.77,7.57-6.27,5.52,0,8.42,3.65-.28,3.18,1,6.08,3.46-3.65,5-3.09,6.27,5.71,7.11,2.9,1.87-3.65,3.65-1,9.17,3.18,11,6.08-4.21,3.93-6.83,3.46-13.66-.28-16.28-.74-6.83-3.46-8.42-8.14-7.39-1-10.29.56-11,2.34-13.28,3.93-4,6.27-7.49,9.45-5.8,8.41-4.95,11.6-.29,11.78,2.9,17.58,11.78,7.86,18.14,7.86,10-.75,12.91,1.31,5.8,15.81,6.83,20.49-3.65,11-2.62,15.53,3.65,14.68,7.11,16.84,17.87-8.14,19.46-12.35A42.47,42.47,0,0,1,276.24,307c4.39-3.93.09-8.14.84-15.25s10.76-15.25,11.79-18.43-2.34-2.62-8.7-3.93-9.73-18.43-10.48-22.82,1.87.75,3.93,4.77,5.8,11.6,8.42,16.56,6.83-3.46,11-6.36,3.46-6.83,2.34-9.45-6.09-2.9-8.14-5.52-.57-4.77,2.05-.56,7.39,4.49,10.29,4.21,5.8,5.24,6.55,10S313,275.48,313,275.48s.28-9.45.75-13.38,2.62-7.58,6.27-8.7Zm-92.52,44.43c-2.9-.28-6.08,3.46-7.11.75s2.62-6.46,6.08-6.27C229.09,264.62,226.75,270.14,223.85,269.86Zm47.34-46.49c-2.9.56-5.24-1.59-7.86-.75s-2.44-1.12-.75-4.21c1.59-2.9,3.18-1,6.55.56S274.09,222.81,271.19,223.37Zm14.87,8.89c-2.81.28-1.22-4.5-4.86-7.86s-1.78-4.68,1.59-6.08c2.24-.94.56,3.64,3.27,6.26S288.77,232.07,286.06,232.26Z"/><path class="cls-8" d="M221.79,356.58a97.29,97.29,0,1,0-97.29-97.29A97.29,97.29,0,0,0,221.79,356.58Z"/><path class="cls-9" d="M171.32,176l-.9-.2c10.21-39.94,2.58-71-6.24-90.68,0,11-5.05,22.9-15.06,35.28l-.7-.59c10.51-13,15.46-25.37,14.77-36.77-.1-.2-.2-.49-.3-.69-10.11-21.21-23-32.6-23.09-32.7l-2.57-2.28,3.07,1.58c.2.1,18.93,9.71,23.09,28.64a33.93,33.93,0,0,1,.69,5.35C173.4,102.54,181.92,134.46,171.32,176ZM143.07,51.51A116,116,0,0,1,163,80.45c-.1-1-.3-1.89-.49-2.88C159.52,63.8,148.52,55.08,143.07,51.51Z"/><path class="cls-10" d="M35,340.68a3.72,3.72,0,0,1-3.47-2.38L13,287a3.64,3.64,0,0,1,6.84-2.48l18.53,51.33a3.63,3.63,0,0,1-2.18,4.66A2.46,2.46,0,0,1,35,340.68Z"/><path class="cls-11" d="M51.41,344.25H21.18a1.11,1.11,0,0,1-1.09-1.09v-6.54a1.1,1.1,0,0,1,1.09-1.09H51.41a1.1,1.1,0,0,1,1.09,1.09v6.54A1.11,1.11,0,0,1,51.41,344.25Z"/><path class="cls-7" d="M144.16,44.87l-9.81,9.81a1.56,1.56,0,0,1-2.18,0l-6.24-6.24a1.55,1.55,0,0,1,0-2.18l9.81-9.81a1.55,1.55,0,0,1,2.18,0l6.24,6.24A1.55,1.55,0,0,1,144.16,44.87Z"/><path class="cls-12" d="M223.34,263a3.62,3.62,0,0,1-3-1.59l-49.25-71.35a3.49,3.49,0,0,1-.4-.89L126.82,66.27a3.75,3.75,0,0,1,.69-3.66l14.08-16A3.65,3.65,0,0,1,147,51.51L134.35,65.78l42.91,120.5,49.06,71a3.62,3.62,0,0,1-.9,5.05A3.45,3.45,0,0,1,223.34,263Z"/><path class="cls-12" d="M-30.65,132a3.76,3.76,0,0,1-3.67-3.37,3.66,3.66,0,0,1,3.37-3.87l179.18-12a3.63,3.63,0,0,1,.49,7.24L-30.45,132Z"/><path class="cls-12" d="M16.42,285.68H16L-123.5,270.12a3.56,3.56,0,0,1-2.88-2.08,3.78,3.78,0,0,1,.3-3.57l92.56-133.38a3.57,3.57,0,0,1,5.05-.9,3.57,3.57,0,0,1,.89,5.06l-89.09,128.43L14.94,278.35,151.3,129.2a3.65,3.65,0,0,1,5.35,5L19.1,284.49A3.55,3.55,0,0,1,16.42,285.68Z"/><path class="cls-12" d="M232.16,259.32a8.82,8.82,0,1,0-8.82,8.82A8.83,8.83,0,0,0,232.16,259.32Z"/><path class="cls-7" d="M228.1,259.32a4.76,4.76,0,1,0-9.51,0,4.69,4.69,0,0,0,4.75,4.76A4.76,4.76,0,0,0,228.1,259.32Z"/><path class="cls-7" d="M172.51,77.77a3.8,3.8,0,0,1-3-1.49,3.75,3.75,0,0,1,.7-5.15c5.54-4.16,8.52-8.32,8.42-11.89,0-3.07-2.08-5.35-3.27-6.44H143.57a3.67,3.67,0,1,1,0-7.34h33.1a3.89,3.89,0,0,1,2.08.6c.29.2,7,4.95,7.23,12.88.1,6.24-3.66,12.29-11.39,17.94A2.42,2.42,0,0,1,172.51,77.77Z"/></g></g></svg>