<svg width="400" height="400" viewBox="0 0 400 400" fill="none" xmlns="http://www.w3.org/2000/svg">
<g clip-path="url(#clip0)">
<circle cx="200" cy="200" r="200" fill="#5752B2"/>
<path fill-rule="evenodd" clip-rule="evenodd" d="M218.764 132.207L199.19 141.545L189.264 138.709C185.713 137.986 181.522 138.691 178.574 139.955C175.67 141.241 173.713 144.353 173.368 148.67C171.219 150.884 169.371 153.212 168.718 156.141C168.146 158.706 168.87 161.573 170.384 164.51C168.628 165.781 167.073 167.335 166.288 169.421C165.367 171.87 165.52 174.773 166.358 177.929C164.34 180.126 162.502 182.699 162.817 186.161C162.903 187.097 163.085 188.082 163.442 189.066L114.784 227.663C113.818 228.706 113.768 229.856 114.506 230.845L115 231.407V248.5L140.288 260.208L145.603 266.26C146.414 267.216 148.085 267.251 148.935 266.33C169.795 243.596 186.318 230.033 203.077 217.842C218.725 226.44 245.69 252.728 258.052 266.33C258.846 267.191 260.355 267.217 261.211 266.438L262.5 268.5L295.5 250.5V232L292.759 230.355C293.107 229.592 293.181 228.598 292.272 227.732C286.118 222.507 280.55 218.11 275.352 214.004L275.352 214.004C267.695 207.956 260.841 202.543 254.095 196.052C255.855 193.846 256.356 191.642 256.386 189.55C256.386 186.991 255.111 184.639 253.193 182.426C253.932 180.124 254.074 177.765 253.193 175.716C252.374 173.811 250.809 172.322 249.028 171.081C249.772 169.112 250.265 167.042 250 164.925C249.708 162.597 248.488 160.364 246.668 158.216C247.519 156.125 248.063 153.908 247.779 151.644C247.433 148.89 246.028 146.233 243.545 143.759C243.264 143.461 242.899 143.243 242.503 143.136C238.589 142.161 234.778 139.658 231.12 137.188C230.861 137.013 230.603 136.838 230.346 136.663L230.345 136.663L230.345 136.662L230.344 136.662C226.962 134.364 223.667 132.124 219.805 132C219.542 132.009 219.288 132.076 219.061 132.135L219.06 132.135L219.06 132.136C218.956 132.163 218.856 132.189 218.764 132.207ZM220.014 136.565C222.183 136.784 225.212 138.505 228.69 140.854C230.064 141.782 231.527 142.705 233.063 143.621C230.276 143.942 227.423 144.403 224.734 145.073C222.582 145.609 220.531 146.222 218.764 147.079L205.784 143.413L220.014 136.565ZM188.361 143.067L214.391 150.469C212.96 152.55 212.897 154.439 213.331 156.471C214.269 159.479 216.115 160.768 218.625 161.882C215.925 164.427 214.858 166.254 215.46 169.344C216.657 173.702 220.238 175.306 224.109 175.716C222.018 178.356 221.498 180.435 222.418 183.287C224.395 187.996 229.709 188.243 234.035 188.167C232.803 190.16 232.323 192.248 233.202 194.669C236.289 200.225 243.736 199.248 249.861 197.574C250.237 198.238 250.732 198.891 251.196 199.505C251.358 199.72 251.517 199.93 251.666 200.133L263.188 209.61L236.534 238.246C227.47 229.937 218.531 222.702 207.797 214.383C207.407 214.072 206.908 213.898 206.409 213.898C194.24 211.738 182.419 203.893 174.687 196.882C174.503 196.686 174.322 196.493 174.145 196.303C170.228 192.122 167.847 189.58 167.26 185.746C167.103 184.027 167.795 182.75 169.134 181.25C172.299 183.033 174.073 184.788 176.006 186.714C176.786 187.678 178.428 187.766 179.307 186.891C180.185 186.015 180.097 184.379 179.13 183.602C177.072 181.551 174.665 179.291 170.592 177.1C169.836 174.491 169.886 172.451 170.453 170.943C170.895 169.769 171.685 168.878 172.744 168.107C176.578 170.114 178.88 171.87 180.449 173.434C181.228 174.398 182.902 174.516 183.781 173.641C184.659 172.766 184.54 171.098 183.572 170.321C181.094 167.851 178.727 166.228 175.035 164.303C173.703 161.996 172.876 159.407 173.022 157.109C173.378 155.51 174.502 153.889 176.145 152.129C180.47 153.839 183.404 156.189 184.753 157.801C185.47 158.769 187.019 158.988 187.946 158.216C188.872 157.444 188.983 155.84 188.154 154.965C185.888 152.258 182.523 149.848 177.672 147.979C177.957 145.511 178.865 144.637 180.379 143.967C183.076 142.556 185.684 142.154 188.361 143.067ZM240.976 147.563C242.463 149.231 243.152 150.727 243.336 152.198C243.501 153.51 243.336 154.876 242.781 156.348L242.474 156.38C237.917 156.851 233.938 157.262 227.996 158.147C224.345 158.839 219.23 159.142 217.614 155.572C216.594 152.135 222.722 150.154 225.844 149.362C230.764 148.136 236.732 147.635 240.976 147.563ZM243.267 160.913C244.713 162.562 245.375 164.021 245.558 165.479C245.722 166.791 245.558 168.157 245.002 169.629C243.386 169.835 241.786 170.057 240.025 170.3L240.025 170.3L240.024 170.3L240.023 170.301C238.038 170.575 235.849 170.878 233.202 171.22C228.275 171.94 220.786 172.728 219.798 168.656C219.364 164.793 224.233 163.202 228.968 162.435C231.537 162.145 233.885 161.91 236.067 161.691L236.068 161.69L236.069 161.69L236.069 161.69L236.069 161.69L236.069 161.69C238.674 161.429 241.042 161.191 243.267 160.913ZM245.905 174.125C247.457 175.014 248.563 176.201 249.098 177.445C249.467 178.305 249.586 179.19 249.445 180.143C247.234 180.898 242.554 182.187 238.929 182.979C238.734 183.023 238.538 183.069 238.341 183.114C233.565 184.213 228.395 185.403 226.535 181.829C225.859 178.411 229.118 176.273 234.174 175.508C236.444 175.177 238.563 174.949 240.772 174.712C242.401 174.537 244.079 174.356 245.905 174.125ZM250.069 185.331C251.415 186.907 251.944 188.298 251.944 189.55C251.944 190.299 251.765 191.104 251.319 191.971L251.241 191.998C248.936 192.803 245.855 193.878 243.406 194.184C243.197 194.209 242.993 194.233 242.794 194.258C240.461 194.543 238.74 194.753 237.436 192.801C236.596 190.084 240.931 187.633 244.516 186.576C246.188 186.161 247.891 185.797 249.34 185.487C249.591 185.433 249.835 185.381 250.069 185.331ZM165.594 193.009C167.629 195.782 169.035 197.327 171.702 200.133C177.881 205.936 187.986 212.377 197.038 216.043C187.564 223.424 179.405 230.027 171.216 237.485L146.02 208.503L165.594 193.009Z" fill="white"/>
<path d="M199.19 141.545L199.052 142.026L199.234 142.078L199.405 141.997L199.19 141.545ZM218.764 132.207L218.667 131.717L218.605 131.729L218.549 131.756L218.764 132.207ZM189.264 138.709L189.401 138.229L189.383 138.223L189.364 138.22L189.264 138.709ZM178.574 139.955L178.377 139.495L178.372 139.497L178.574 139.955ZM173.368 148.67L173.727 149.018L173.852 148.889L173.867 148.71L173.368 148.67ZM168.718 156.141L168.23 156.032L168.23 156.032L168.718 156.141ZM170.384 164.51L170.677 164.915L171.025 164.663L170.828 164.281L170.384 164.51ZM166.288 169.421L165.82 169.245L165.82 169.245L166.288 169.421ZM166.358 177.929L166.726 178.268L166.911 178.066L166.841 177.801L166.358 177.929ZM162.817 186.161L162.32 186.206L162.32 186.206L162.817 186.161ZM163.442 189.066L163.753 189.458L164.035 189.234L163.912 188.895L163.442 189.066ZM114.784 227.663L114.473 227.272L114.443 227.295L114.417 227.323L114.784 227.663ZM114.506 230.845L114.105 231.144L114.117 231.16L114.13 231.175L114.506 230.845ZM115 231.407H115.5V231.219L115.376 231.077L115 231.407ZM115 248.5H114.5V248.82L114.79 248.954L115 248.5ZM140.288 260.208L140.664 259.878L140.594 259.798L140.499 259.754L140.288 260.208ZM145.603 266.26L145.984 265.937L145.979 265.93L145.603 266.26ZM148.935 266.33L149.302 266.669L149.303 266.668L148.935 266.33ZM203.077 217.842L203.318 217.403L203.039 217.25L202.783 217.437L203.077 217.842ZM258.052 266.33L257.682 266.666L257.684 266.669L258.052 266.33ZM261.211 266.438L261.635 266.173L261.318 265.666L260.875 266.068L261.211 266.438ZM262.5 268.5L262.076 268.765L262.326 269.165L262.739 268.939L262.5 268.5ZM295.5 250.5L295.739 250.939L296 250.797V250.5H295.5ZM295.5 232H296V231.717L295.757 231.571L295.5 232ZM292.759 230.355L292.304 230.148L292.118 230.554L292.501 230.784L292.759 230.355ZM292.272 227.732L292.617 227.37L292.607 227.36L292.596 227.351L292.272 227.732ZM275.352 214.004L275.032 214.389L275.042 214.397L275.352 214.004ZM275.352 214.004L275.672 213.62L275.662 213.612L275.352 214.004ZM254.095 196.052L253.705 195.74L253.42 196.097L253.749 196.412L254.095 196.052ZM256.386 189.55L256.886 189.557V189.55H256.386ZM253.193 182.426L252.717 182.273L252.631 182.54L252.815 182.753L253.193 182.426ZM253.193 175.716L252.734 175.913L252.734 175.913L253.193 175.716ZM249.028 171.081L248.56 170.905L248.423 171.269L248.742 171.492L249.028 171.081ZM250 164.925L249.504 164.988L249.504 164.988L250 164.925ZM246.668 158.216L246.205 158.027L246.091 158.308L246.287 158.539L246.668 158.216ZM247.779 151.644L247.283 151.707L247.283 151.707L247.779 151.644ZM243.545 143.759L243.181 144.102L243.186 144.108L243.192 144.113L243.545 143.759ZM242.503 143.136L242.633 142.653L242.624 142.651L242.503 143.136ZM231.12 137.188L231.399 136.773L231.399 136.773L231.12 137.188ZM230.346 136.663L230.064 137.076L230.065 137.076L230.346 136.663ZM230.344 136.662L230.626 136.249L230.625 136.248L230.344 136.662ZM219.805 132L219.821 131.5L219.805 131.5L219.788 131.5L219.805 132ZM219.061 132.135L218.934 131.652L218.927 131.654L219.061 132.135ZM219.06 132.135L219.168 132.624L219.181 132.621L219.194 132.617L219.06 132.135ZM219.06 132.136L218.953 131.647L218.943 131.649L218.934 131.652L219.06 132.136ZM228.69 140.854L228.97 140.44L228.97 140.44L228.69 140.854ZM220.014 136.565L220.064 136.068L219.924 136.054L219.797 136.115L220.014 136.565ZM233.063 143.621L233.121 144.117L234.589 143.948L233.319 143.191L233.063 143.621ZM224.734 145.073L224.613 144.588L224.613 144.588L224.734 145.073ZM218.764 147.079L218.628 147.56L218.811 147.612L218.983 147.529L218.764 147.079ZM205.784 143.413L205.567 142.963L204.377 143.535L205.648 143.894L205.784 143.413ZM214.391 150.469L214.803 150.752L215.198 150.178L214.528 149.988L214.391 150.469ZM188.361 143.067L188.2 143.541L188.212 143.545L188.225 143.548L188.361 143.067ZM213.331 156.471L212.842 156.576L212.846 156.598L212.853 156.62L213.331 156.471ZM218.625 161.882L218.968 162.246L219.516 161.73L218.828 161.425L218.625 161.882ZM215.46 169.344L214.969 169.439L214.973 169.458L214.978 169.476L215.46 169.344ZM224.109 175.716L224.501 176.026L225.065 175.314L224.162 175.219L224.109 175.716ZM222.418 183.287L221.942 183.441L221.948 183.461L221.957 183.481L222.418 183.287ZM234.035 188.167L234.46 188.43L234.942 187.651L234.026 187.667L234.035 188.167ZM233.202 194.669L232.732 194.839L232.746 194.877L232.765 194.911L233.202 194.669ZM249.861 197.574L250.296 197.327L250.104 196.989L249.729 197.092L249.861 197.574ZM251.196 199.505L251.595 199.203L251.595 199.203L251.196 199.505ZM251.666 200.133L251.262 200.428L251.299 200.479L251.348 200.519L251.666 200.133ZM263.188 209.61L263.554 209.95L263.917 209.561L263.506 209.224L263.188 209.61ZM236.534 238.246L236.196 238.615L236.562 238.95L236.9 238.587L236.534 238.246ZM207.797 214.383L207.486 214.774L207.491 214.778L207.797 214.383ZM206.409 213.898L206.321 214.391L206.365 214.398L206.409 214.398L206.409 213.898ZM174.687 196.882L174.322 197.224L174.336 197.239L174.351 197.253L174.687 196.882ZM174.145 196.303L174.51 195.961L174.51 195.961L174.145 196.303ZM167.26 185.746L166.762 185.791L166.763 185.806L166.766 185.822L167.26 185.746ZM169.134 181.25L169.38 180.814L169.029 180.617L168.761 180.917L169.134 181.25ZM176.006 186.714L176.395 186.4L176.378 186.379L176.359 186.36L176.006 186.714ZM179.307 186.891L179.659 187.245L179.659 187.245L179.307 186.891ZM179.13 183.602L178.777 183.956L178.796 183.975L178.817 183.991L179.13 183.602ZM170.592 177.1L170.112 177.239L170.17 177.44L170.355 177.54L170.592 177.1ZM170.453 170.943L170.921 171.119L170.921 171.119L170.453 170.943ZM172.744 168.107L172.976 167.664L172.701 167.52L172.45 167.703L172.744 168.107ZM180.449 173.434L180.838 173.119L180.821 173.098L180.802 173.079L180.449 173.434ZM183.781 173.641L184.133 173.995L184.133 173.995L183.781 173.641ZM183.572 170.321L183.22 170.675L183.238 170.694L183.259 170.711L183.572 170.321ZM175.035 164.303L174.602 164.553L174.674 164.679L174.804 164.746L175.035 164.303ZM173.022 157.109L172.534 157L172.525 157.038L172.523 157.077L173.022 157.109ZM176.145 152.129L176.329 151.664L176.012 151.539L175.78 151.788L176.145 152.129ZM184.753 157.801L185.154 157.503L185.145 157.491L185.136 157.48L184.753 157.801ZM187.946 158.216L188.266 158.6L188.266 158.6L187.946 158.216ZM188.154 154.965L187.77 155.286L187.78 155.298L187.791 155.309L188.154 154.965ZM177.672 147.979L177.176 147.921L177.131 148.306L177.493 148.445L177.672 147.979ZM180.379 143.967L180.582 144.424L180.597 144.417L180.611 144.41L180.379 143.967ZM243.336 152.198L242.84 152.26L242.84 152.26L243.336 152.198ZM240.976 147.563L241.35 147.231L241.197 147.06L240.968 147.063L240.976 147.563ZM242.781 156.348L242.832 156.845L243.14 156.814L243.249 156.525L242.781 156.348ZM242.474 156.38L242.526 156.877L242.526 156.877L242.474 156.38ZM227.996 158.147L227.922 157.652L227.913 157.654L227.903 157.655L227.996 158.147ZM217.614 155.572L217.134 155.714L217.144 155.747L217.158 155.778L217.614 155.572ZM225.844 149.362L225.723 148.877L225.721 148.877L225.844 149.362ZM245.558 165.479L245.061 165.541L245.061 165.541L245.558 165.479ZM243.267 160.913L243.643 160.584L243.468 160.384L243.205 160.417L243.267 160.913ZM245.002 169.629L245.066 170.125L245.364 170.087L245.47 169.805L245.002 169.629ZM240.025 170.3L239.957 169.805L239.955 169.805L240.025 170.3ZM240.024 170.3L240.091 170.796L240.095 170.795L240.024 170.3ZM240.023 170.301L239.956 169.805L239.954 169.805L240.023 170.301ZM233.202 171.22L233.138 170.724L233.13 170.725L233.202 171.22ZM219.798 168.656L219.301 168.712L219.304 168.744L219.312 168.774L219.798 168.656ZM228.968 162.435L228.912 161.939L228.9 161.94L228.888 161.942L228.968 162.435ZM236.067 161.691L236.117 162.188L236.117 162.188L236.067 161.691ZM236.068 161.69L236.027 161.192L236.018 161.193L236.068 161.69ZM236.069 161.69L236.11 162.189L236.118 162.188L236.069 161.69ZM236.069 161.69L236.119 162.188L236.119 162.188L236.069 161.69ZM249.098 177.445L249.557 177.248L249.557 177.248L249.098 177.445ZM245.905 174.125L246.153 173.691L246.008 173.608L245.842 173.629L245.905 174.125ZM249.445 180.143L249.606 180.616L249.895 180.518L249.939 180.216L249.445 180.143ZM238.929 182.979L238.822 182.49L238.817 182.491L238.929 182.979ZM238.341 183.114L238.453 183.601L238.453 183.601L238.341 183.114ZM226.535 181.829L226.044 181.926L226.058 181.996L226.091 182.06L226.535 181.829ZM234.174 175.508L234.102 175.014L234.099 175.014L234.174 175.508ZM240.772 174.712L240.825 175.209L240.825 175.209L240.772 174.712ZM250.069 185.331L250.45 185.006L250.256 184.779L249.964 184.842L250.069 185.331ZM251.319 191.971L251.484 192.443L251.672 192.377L251.763 192.2L251.319 191.971ZM251.241 191.998L251.077 191.526L251.077 191.526L251.241 191.998ZM243.406 194.184L243.463 194.681L243.468 194.681L243.406 194.184ZM242.794 194.258L242.855 194.754L242.855 194.754L242.794 194.258ZM237.436 192.801L236.958 192.949L236.98 193.018L237.02 193.079L237.436 192.801ZM244.516 186.576L244.396 186.09L244.385 186.093L244.375 186.096L244.516 186.576ZM249.34 185.487L249.444 185.976L249.444 185.976L249.34 185.487ZM171.702 200.133L171.34 200.478L171.35 200.488L171.36 200.498L171.702 200.133ZM165.594 193.009L165.997 192.713L165.69 192.295L165.284 192.617L165.594 193.009ZM197.038 216.043L197.345 216.437L198.029 215.904L197.226 215.579L197.038 216.043ZM171.216 237.485L170.839 237.814L171.175 238.2L171.553 237.855L171.216 237.485ZM146.02 208.503L145.709 208.111L145.299 208.436L145.642 208.831L146.02 208.503ZM199.405 141.997L218.979 132.659L218.549 131.756L198.975 141.094L199.405 141.997ZM189.126 139.19L199.052 142.026L199.327 141.065L189.401 138.229L189.126 139.19ZM178.771 140.414C181.645 139.183 185.732 138.5 189.164 139.199L189.364 138.22C185.695 137.472 181.4 138.2 178.377 139.495L178.771 140.414ZM173.867 148.71C174.202 144.516 176.089 141.602 178.777 140.412L178.372 139.497C175.252 140.879 173.225 144.189 172.87 148.63L173.867 148.71ZM169.206 156.249C169.827 153.463 171.591 151.218 173.727 149.018L173.01 148.322C170.846 150.55 168.914 152.962 168.23 156.032L169.206 156.249ZM170.828 164.281C169.338 161.391 168.67 158.65 169.206 156.249L168.23 156.032C167.621 158.761 168.401 161.755 169.939 164.739L170.828 164.281ZM166.756 169.598C167.492 167.642 168.959 166.158 170.677 164.915L170.09 164.105C168.296 165.403 166.654 167.029 165.82 169.245L166.756 169.598ZM166.841 177.801C166.016 174.693 165.887 171.908 166.756 169.598L165.82 169.245C164.847 171.832 165.024 174.853 165.874 178.058L166.841 177.801ZM163.315 186.115C163.02 182.877 164.727 180.444 166.726 178.268L165.989 177.591C163.954 179.808 161.983 182.521 162.32 186.206L163.315 186.115ZM163.912 188.895C163.572 187.961 163.398 187.02 163.315 186.115L162.32 186.206C162.408 187.174 162.597 188.203 162.972 189.237L163.912 188.895ZM115.095 228.055L163.753 189.458L163.131 188.674L114.473 227.272L115.095 228.055ZM114.907 230.546C114.598 230.133 114.474 229.715 114.504 229.312C114.535 228.906 114.727 228.46 115.15 228.003L114.417 227.323C113.875 227.909 113.559 228.559 113.507 229.237C113.456 229.916 113.676 230.568 114.105 231.144L114.907 230.546ZM115.376 231.077L114.882 230.515L114.13 231.175L114.624 231.737L115.376 231.077ZM115.5 248.5V231.407H114.5V248.5H115.5ZM140.499 259.754L115.21 248.046L114.79 248.954L140.078 260.661L140.499 259.754ZM145.979 265.93L140.664 259.878L139.913 260.538L145.227 266.59L145.979 265.93ZM148.567 265.991C148.256 266.329 147.773 266.51 147.265 266.499C146.756 266.489 146.282 266.287 145.984 265.937L145.222 266.584C145.736 267.189 146.501 267.483 147.244 267.499C147.986 267.515 148.764 267.253 149.302 266.669L148.567 265.991ZM202.783 217.437C186.002 229.645 169.452 243.229 148.566 265.992L149.303 266.668C170.137 243.962 186.635 230.421 203.371 218.246L202.783 217.437ZM258.422 265.994C252.23 259.181 242.387 249.197 232.134 239.84C221.89 230.492 211.199 221.734 203.318 217.403L202.836 218.28C210.603 222.548 221.219 231.233 231.46 240.579C241.691 249.916 251.512 259.877 257.682 266.666L258.422 265.994ZM260.875 266.068C260.211 266.672 259.017 266.639 258.419 265.991L257.684 266.669C258.674 267.742 260.498 267.762 261.548 266.808L260.875 266.068ZM262.924 268.235L261.635 266.173L260.787 266.703L262.076 268.765L262.924 268.235ZM295.261 250.061L262.261 268.061L262.739 268.939L295.739 250.939L295.261 250.061ZM295 232V250.5H296V232H295ZM292.501 230.784L295.243 232.429L295.757 231.571L293.016 229.926L292.501 230.784ZM291.928 228.094C292.302 228.451 292.453 228.81 292.49 229.139C292.529 229.478 292.451 229.825 292.304 230.148L293.213 230.563C293.414 230.122 293.548 229.591 293.484 229.026C293.418 228.451 293.152 227.88 292.617 227.37L291.928 228.094ZM275.042 214.397C280.24 218.502 285.802 222.895 291.949 228.114L292.596 227.351C286.434 222.12 280.86 217.717 275.662 213.612L275.042 214.397ZM275.032 214.388L275.032 214.389L275.672 213.62L275.672 213.62L275.032 214.388ZM253.749 196.412C260.515 202.923 267.388 208.351 275.042 214.397L275.662 213.612C268.002 207.562 261.168 202.163 254.442 195.692L253.749 196.412ZM255.886 189.543C255.857 191.549 255.381 193.638 253.705 195.74L254.486 196.364C256.329 194.054 256.855 191.735 256.886 189.557L255.886 189.543ZM252.815 182.753C254.698 184.926 255.886 187.164 255.886 189.55H256.886C256.886 186.818 255.525 184.353 253.571 182.098L252.815 182.753ZM252.734 175.913C253.551 177.814 253.434 180.039 252.717 182.273L253.669 182.578C254.43 180.208 254.598 177.717 253.652 175.518L252.734 175.913ZM248.742 171.492C250.489 172.709 251.968 174.132 252.734 175.913L253.652 175.518C252.78 173.49 251.128 171.935 249.314 170.671L248.742 171.492ZM249.504 164.988C249.755 166.989 249.291 168.97 248.56 170.905L249.496 171.258C250.253 169.254 250.776 167.096 250.496 164.863L249.504 164.988ZM246.287 158.539C248.072 160.646 249.228 162.791 249.504 164.988L250.496 164.863C250.187 162.403 248.904 160.081 247.05 157.892L246.287 158.539ZM247.283 151.707C247.552 153.851 247.04 155.977 246.205 158.027L247.131 158.404C247.999 156.273 248.574 153.964 248.275 151.582L247.283 151.707ZM243.192 144.113C245.614 146.527 246.954 149.087 247.283 151.707L248.275 151.582C247.913 148.694 246.441 145.939 243.897 143.405L243.192 144.113ZM242.374 143.619C242.68 143.702 242.964 143.871 243.181 144.102L243.909 143.416C243.564 143.051 243.118 142.784 242.633 142.654L242.374 143.619ZM230.84 137.602C234.484 140.063 238.367 142.621 242.383 143.622L242.624 142.651C238.81 141.701 235.071 139.253 231.399 136.773L230.84 137.602ZM230.065 137.076C230.322 137.251 230.58 137.427 230.84 137.602L231.399 136.773C231.142 136.599 230.884 136.424 230.627 136.249L230.065 137.076ZM230.064 137.076L230.064 137.076L230.627 136.25L230.627 136.249L230.064 137.076ZM230.063 137.076L230.064 137.076L230.627 136.249L230.626 136.249L230.063 137.076ZM230.063 137.075L230.063 137.076L230.626 136.249L230.626 136.249L230.063 137.075ZM219.789 132.5C223.48 132.619 226.653 134.758 230.063 137.076L230.625 136.248C227.272 133.969 223.854 131.63 219.821 131.5L219.789 132.5ZM219.187 132.619C219.423 132.557 219.624 132.507 219.823 132.5L219.788 131.5C219.46 131.512 219.154 131.594 218.934 131.652L219.187 132.619ZM219.194 132.617L219.194 132.617L218.927 131.654L218.927 131.654L219.194 132.617ZM219.168 132.624L219.168 132.624L218.953 131.647L218.953 131.647L219.168 132.624ZM218.862 132.698C218.972 132.676 219.086 132.646 219.187 132.619L218.934 131.652C218.825 131.68 218.741 131.702 218.667 131.717L218.862 132.698ZM228.97 140.44C227.225 139.261 225.579 138.231 224.09 137.466C222.608 136.706 221.242 136.187 220.064 136.068L219.963 137.063C220.955 137.163 222.188 137.614 223.633 138.356C225.07 139.093 226.678 140.098 228.41 141.268L228.97 140.44ZM233.319 143.191C231.79 142.28 230.335 141.362 228.97 140.44L228.41 141.268C229.793 142.202 231.264 143.13 232.807 144.05L233.319 143.191ZM224.855 145.558C227.517 144.895 230.348 144.437 233.121 144.117L233.006 143.124C230.205 143.447 227.329 143.912 224.613 144.588L224.855 145.558ZM218.983 147.529C220.701 146.695 222.713 146.092 224.855 145.558L224.613 144.588C222.452 145.126 220.36 145.749 218.546 146.629L218.983 147.529ZM205.648 143.894L218.628 147.56L218.9 146.598L205.92 142.932L205.648 143.894ZM219.797 136.115L205.567 142.963L206.001 143.864L220.23 137.016L219.797 136.115ZM214.528 149.988L188.498 142.586L188.225 143.548L214.254 150.949L214.528 149.988ZM213.82 156.367C213.406 154.428 213.471 152.69 214.803 150.752L213.979 150.185C212.449 152.411 212.388 154.451 212.842 156.576L213.82 156.367ZM218.828 161.425C217.593 160.876 216.563 160.303 215.731 159.522C214.906 158.748 214.254 157.751 213.808 156.322L212.853 156.62C213.346 158.2 214.086 159.351 215.047 160.251C215.999 161.145 217.148 161.773 218.423 162.339L218.828 161.425ZM215.951 169.248C215.666 167.785 215.781 166.665 216.259 165.616C216.747 164.546 217.629 163.507 218.968 162.246L218.282 161.518C216.921 162.801 215.92 163.949 215.349 165.201C214.769 166.475 214.653 167.813 214.969 169.439L215.951 169.248ZM224.162 175.219C222.272 175.019 220.494 174.531 219.055 173.592C217.627 172.661 216.508 171.271 215.942 169.211L214.978 169.476C215.609 171.775 216.879 173.367 218.508 174.429C220.126 175.484 222.074 176.003 224.056 176.213L224.162 175.219ZM222.894 183.134C222.454 181.771 222.37 180.632 222.622 179.534C222.875 178.427 223.48 177.315 224.501 176.026L223.717 175.405C222.647 176.757 221.946 178.004 221.647 179.311C221.346 180.625 221.462 181.951 221.942 183.441L222.894 183.134ZM234.026 187.667C231.865 187.705 229.525 187.659 227.491 187.043C225.478 186.433 223.796 185.277 222.879 183.094L221.957 183.481C223.017 186.006 224.981 187.328 227.201 188C229.399 188.666 231.88 188.705 234.044 188.667L234.026 187.667ZM233.672 194.498C232.857 192.254 233.289 190.325 234.46 188.43L233.61 187.904C232.317 189.995 231.789 192.243 232.732 194.839L233.672 194.498ZM249.729 197.092C246.681 197.925 243.356 198.568 240.432 198.334C237.524 198.102 235.075 197.011 233.639 194.426L232.765 194.911C234.416 197.883 237.234 199.082 240.352 199.331C243.454 199.579 246.916 198.897 249.993 198.056L249.729 197.092ZM251.595 199.203C251.126 198.584 250.653 197.957 250.296 197.327L249.426 197.82C249.822 198.518 250.337 199.198 250.797 199.806L251.595 199.203ZM252.07 199.838C251.918 199.631 251.757 199.417 251.595 199.203L250.797 199.806C250.96 200.022 251.116 200.228 251.262 200.428L252.07 199.838ZM263.506 209.224L251.983 199.747L251.348 200.519L262.871 209.996L263.506 209.224ZM236.9 238.587L263.554 209.95L262.822 209.269L236.168 237.906L236.9 238.587ZM207.491 214.778C218.22 223.094 227.147 230.319 236.196 238.615L236.872 237.878C227.793 229.555 218.842 222.31 208.103 213.987L207.491 214.778ZM206.409 214.398C206.796 214.398 207.184 214.534 207.486 214.774L208.108 213.991C207.629 213.61 207.021 213.398 206.408 213.398L206.409 214.398ZM174.351 197.253C182.117 204.295 194.022 212.207 206.321 214.391L206.496 213.406C194.458 211.269 182.721 203.492 175.023 196.512L174.351 197.253ZM173.78 196.645C173.957 196.834 174.138 197.027 174.322 197.224L175.052 196.541C174.868 196.344 174.687 196.151 174.51 195.961L173.78 196.645ZM166.766 185.822C167.381 189.838 169.892 192.495 173.78 196.645L174.51 195.961C170.564 191.749 168.313 189.322 167.754 185.67L166.766 185.822ZM168.761 180.917C167.383 182.46 166.587 183.871 166.762 185.791L167.758 185.7C167.62 184.183 168.207 183.039 169.507 181.583L168.761 180.917ZM176.359 186.36C174.421 184.428 172.607 182.633 169.38 180.814L168.889 181.685C171.991 183.434 173.726 185.148 175.653 187.068L176.359 186.36ZM178.954 186.536C178.631 186.858 178.148 187.02 177.646 186.993C177.144 186.966 176.681 186.753 176.395 186.4L175.617 187.029C176.111 187.639 176.858 187.952 177.592 187.991C178.327 188.031 179.103 187.799 179.659 187.245L178.954 186.536ZM178.817 183.991C179.172 184.276 179.384 184.738 179.411 185.236C179.438 185.734 179.276 186.215 178.954 186.536L179.659 187.245C180.216 186.69 180.449 185.915 180.41 185.182C180.37 184.449 180.055 183.704 179.443 183.212L178.817 183.991ZM170.355 177.54C174.366 179.698 176.733 181.92 178.777 183.956L179.483 183.247C177.41 181.182 174.963 178.884 170.829 176.659L170.355 177.54ZM169.985 170.767C169.369 172.406 169.336 174.563 170.112 177.239L171.072 176.96C170.336 174.42 170.403 172.495 170.921 171.119L169.985 170.767ZM172.45 167.703C171.336 168.514 170.471 169.478 169.985 170.767L170.921 171.119C171.32 170.061 172.034 169.242 173.038 168.512L172.45 167.703ZM180.802 173.079C179.189 171.472 176.843 169.688 172.976 167.664L172.512 168.55C176.312 170.539 178.57 172.267 180.096 173.788L180.802 173.079ZM183.428 173.287C183.11 173.604 182.623 173.762 182.11 173.728C181.597 173.695 181.124 173.474 180.838 173.119L180.06 173.748C180.553 174.357 181.306 174.678 182.045 174.726C182.784 174.774 183.573 174.554 184.133 173.995L183.428 173.287ZM183.259 170.711C183.615 170.996 183.836 171.467 183.87 171.977C183.903 172.486 183.745 172.97 183.428 173.287L184.133 173.995C184.694 173.436 184.916 172.649 184.868 171.911C184.819 171.174 184.497 170.422 183.886 169.931L183.259 170.711ZM174.804 164.746C178.465 166.655 180.786 168.25 183.22 170.675L183.925 169.967C181.401 167.451 178.99 165.801 175.266 163.86L174.804 164.746ZM172.523 157.077C172.368 159.507 173.241 162.195 174.602 164.553L175.468 164.053C174.166 161.797 173.383 159.307 173.521 157.141L172.523 157.077ZM175.78 151.788C174.123 153.562 172.921 155.265 172.534 157L173.51 157.218C173.836 155.755 174.881 154.216 176.511 152.47L175.78 151.788ZM185.136 157.48C183.726 155.795 180.719 153.4 176.329 151.664L175.962 152.594C180.22 154.278 183.081 156.583 184.369 158.122L185.136 157.48ZM187.625 157.832C186.93 158.411 185.709 158.251 185.154 157.503L184.351 158.099C185.232 159.286 187.108 159.565 188.266 158.6L187.625 157.832ZM187.791 155.309C188.093 155.627 188.242 156.101 188.209 156.596C188.177 157.091 187.966 157.548 187.625 157.832L188.266 158.6C188.852 158.111 189.16 157.381 189.207 156.662C189.254 155.943 189.044 155.177 188.516 154.621L187.791 155.309ZM177.493 148.445C182.281 150.29 185.569 152.656 187.77 155.286L188.537 154.644C186.207 151.86 182.766 149.405 177.852 147.512L177.493 148.445ZM180.177 143.51C179.381 143.862 178.687 144.293 178.163 145.002C177.64 145.707 177.324 146.638 177.176 147.921L178.169 148.036C178.306 146.852 178.585 146.112 178.967 145.596C179.346 145.084 179.863 144.742 180.582 144.424L180.177 143.51ZM188.523 142.594C185.686 141.627 182.934 142.066 180.148 143.524L180.611 144.41C183.217 143.046 185.682 142.682 188.2 143.541L188.523 142.594ZM243.832 152.136C243.632 150.541 242.886 148.955 241.35 147.231L240.603 147.896C242.04 149.508 242.671 150.913 242.84 152.26L243.832 152.136ZM243.249 156.525C243.83 154.984 244.008 153.537 243.832 152.136L242.84 152.26C242.994 153.484 242.843 154.768 242.313 156.172L243.249 156.525ZM242.526 156.877L242.832 156.845L242.73 155.851L242.423 155.883L242.526 156.877ZM228.07 158.641C234 157.759 237.969 157.348 242.526 156.877L242.423 155.883C237.864 156.354 233.876 156.766 227.922 157.652L228.07 158.641ZM217.158 155.778C218.065 157.781 219.946 158.656 221.969 158.952C223.989 159.249 226.245 158.988 228.089 158.638L227.903 157.655C226.096 157.998 223.969 158.235 222.114 157.963C220.263 157.692 218.778 156.932 218.069 155.365L217.158 155.778ZM225.721 148.877C224.151 149.276 221.784 149.982 219.928 151.041C219.002 151.569 218.162 152.208 217.622 152.975C217.068 153.761 216.829 154.685 217.134 155.714L218.093 155.429C217.888 154.739 218.033 154.127 218.439 153.551C218.859 152.955 219.555 152.405 220.424 151.909C222.157 150.92 224.415 150.24 225.967 149.846L225.721 148.877ZM240.968 147.063C236.702 147.135 230.693 147.639 225.723 148.877L225.965 149.847C230.835 148.634 236.762 148.134 240.985 148.063L240.968 147.063ZM246.054 165.416C245.856 163.837 245.138 162.289 243.643 160.584L242.891 161.243C244.287 162.835 244.894 164.204 245.061 165.541L246.054 165.416ZM245.47 169.805C246.051 168.265 246.229 166.817 246.054 165.416L245.061 165.541C245.215 166.765 245.064 168.048 244.534 169.452L245.47 169.805ZM240.094 170.796C241.855 170.552 243.453 170.331 245.066 170.125L244.939 169.133C243.32 169.34 241.717 169.561 239.957 169.805L240.094 170.796ZM240.096 170.795L240.096 170.795L239.955 169.805L239.954 169.805L240.096 170.795ZM240.095 170.795L240.096 170.795L239.954 169.805L239.954 169.806L240.095 170.795ZM240.09 170.796L240.091 170.796L239.957 169.805L239.956 169.805L240.09 170.796ZM233.266 171.716C235.915 171.374 238.107 171.071 240.091 170.796L239.954 169.805C237.969 170.08 235.782 170.383 233.138 170.724L233.266 171.716ZM219.312 168.774C219.599 169.958 220.364 170.777 221.382 171.318C222.384 171.85 223.643 172.12 224.981 172.233C227.656 172.461 230.812 172.075 233.274 171.714L233.13 170.725C230.665 171.085 227.613 171.453 225.065 171.237C223.791 171.129 222.684 170.877 221.851 170.434C221.032 170 220.491 169.391 220.284 168.538L219.312 168.774ZM228.888 161.942C226.507 162.327 224.035 162.927 222.202 163.948C220.356 164.975 219.053 166.499 219.301 168.712L220.295 168.601C220.11 166.951 221.024 165.747 222.688 164.821C224.364 163.889 226.693 163.31 229.048 162.929L228.888 161.942ZM236.017 161.193C233.835 161.412 231.484 161.648 228.912 161.939L229.024 162.932C231.589 162.643 233.935 162.407 236.117 162.188L236.017 161.193ZM236.018 161.193L236.017 161.193L236.117 162.188L236.119 162.188L236.018 161.193ZM236.027 161.192L236.027 161.192L236.11 162.189L236.11 162.189L236.027 161.192ZM236.019 161.193L236.019 161.193L236.118 162.188L236.118 162.188L236.019 161.193ZM236.019 161.193L236.019 161.193L236.118 162.188L236.119 162.188L236.019 161.193ZM236.019 161.193L236.019 161.193L236.119 162.188L236.119 162.188L236.019 161.193ZM243.205 160.417C240.987 160.694 238.625 160.931 236.019 161.193L236.119 162.188C238.722 161.927 241.097 161.688 243.329 161.41L243.205 160.417ZM249.557 177.248C248.97 175.883 247.778 174.622 246.153 173.691L245.656 174.559C247.135 175.406 248.155 176.519 248.638 177.643L249.557 177.248ZM249.939 180.216C250.094 179.172 249.963 178.193 249.557 177.248L248.638 177.643C248.971 178.417 249.078 179.208 248.95 180.07L249.939 180.216ZM239.035 183.467C242.674 182.673 247.374 181.378 249.606 180.616L249.283 179.67C247.095 180.417 242.433 181.702 238.822 182.49L239.035 183.467ZM238.453 183.601C238.65 183.556 238.846 183.511 239.04 183.466L238.817 182.491C238.622 182.536 238.426 182.581 238.229 182.626L238.453 183.601ZM226.091 182.06C227.146 184.086 229.138 184.712 231.342 184.724C233.534 184.736 236.082 184.147 238.453 183.601L238.229 182.626C235.824 183.18 233.399 183.735 231.348 183.724C229.308 183.713 227.784 183.146 226.978 181.598L226.091 182.06ZM234.099 175.014C231.532 175.402 229.357 176.146 227.898 177.279C226.411 178.433 225.664 180.003 226.044 181.926L227.025 181.732C226.73 180.237 227.274 179.029 228.511 178.069C229.777 177.086 231.759 176.379 234.249 176.003L234.099 175.014ZM240.719 174.215C238.51 174.452 236.383 174.68 234.102 175.014L234.246 176.003C236.506 175.673 238.615 175.446 240.825 175.209L240.719 174.215ZM245.842 173.629C244.022 173.86 242.348 174.039 240.719 174.215L240.825 175.209C242.454 175.034 244.137 174.853 245.967 174.621L245.842 173.629ZM252.444 189.55C252.444 188.145 251.848 186.643 250.45 185.006L249.689 185.655C250.983 187.17 251.444 188.451 251.444 189.55H252.444ZM251.763 192.2C252.244 191.266 252.444 190.383 252.444 189.55H251.444C251.444 190.215 251.286 190.942 250.874 191.742L251.763 192.2ZM251.406 192.47L251.484 192.443L251.154 191.499L251.077 191.526L251.406 192.47ZM243.468 194.681C245.981 194.366 249.116 193.27 251.406 192.47L251.077 191.526C248.755 192.336 245.73 193.39 243.344 193.688L243.468 194.681ZM242.855 194.754C243.054 194.73 243.257 194.705 243.463 194.681L243.348 193.688C243.138 193.712 242.933 193.737 242.734 193.761L242.855 194.754ZM237.02 193.079C237.747 194.166 238.621 194.681 239.642 194.86C240.616 195.032 241.711 194.894 242.855 194.754L242.734 193.761C241.544 193.907 240.612 194.016 239.816 193.876C239.067 193.744 238.429 193.387 237.852 192.523L237.02 193.079ZM244.375 186.096C242.545 186.636 240.504 187.535 239.014 188.668C237.56 189.773 236.437 191.262 236.958 192.949L237.914 192.653C237.595 191.623 238.22 190.527 239.619 189.464C240.983 188.427 242.902 187.573 244.658 187.055L244.375 186.096ZM249.235 184.998C247.787 185.308 246.077 185.673 244.396 186.09L244.637 187.061C246.3 186.648 247.994 186.286 249.444 185.976L249.235 184.998ZM249.964 184.842C249.73 184.892 249.487 184.944 249.235 184.998L249.444 185.976C249.696 185.922 249.94 185.87 250.175 185.82L249.964 184.842ZM172.065 199.789C169.403 196.988 168.014 195.461 165.997 192.713L165.191 193.304C167.245 196.103 168.667 197.666 171.34 200.478L172.065 199.789ZM197.226 215.579C188.227 211.935 178.175 205.527 172.045 199.769L171.36 200.498C177.587 206.346 187.746 212.819 196.85 216.506L197.226 215.579ZM171.553 237.855C179.728 230.409 187.875 223.815 197.345 216.437L196.731 215.648C187.252 223.032 179.082 229.644 170.88 237.116L171.553 237.855ZM145.642 208.831L170.839 237.814L171.594 237.157L146.397 208.175L145.642 208.831ZM165.284 192.617L145.709 208.111L146.33 208.895L165.904 193.401L165.284 192.617Z" fill="white"/>
<line x1="100.585" y1="81.7752" x2="48.5845" y2="186.775" stroke="white" stroke-width="8"/>
<line x1="48.3089" y1="221.752" x2="120.309" y2="327.752" stroke="white" stroke-width="8"/>
<line x1="360.388" y1="230.126" x2="296.388" y2="332.126" stroke="white" stroke-width="8"/>
<path d="M258.5 344.5L140 348" stroke="white" stroke-width="8"/>
<path d="M353.499 181L300.999 80" stroke="white" stroke-width="8"/>
<path d="M261.5 55.2432L135 55.2432" stroke="white" stroke-width="8"/>
<path d="M351 219L140 335" stroke="white" stroke-width="8"/>
<path d="M112 79L115.532 319.392" stroke="white" stroke-width="8"/>
<path d="M293 79L297 330" stroke="white" stroke-width="8"/>
<path d="M48.5 213.5L268.5 330" stroke="white" stroke-width="8"/>
<path d="M117 60L351 191" stroke="white" stroke-width="8"/>
<path d="M271 60L48 200" stroke="white" stroke-width="8"/>
<ellipse cx="112" cy="60.5" rx="29" ry="29.5" fill="#78F4D1"/>
<circle cx="38" cy="208" r="29" fill="#78F4D1"/>
<circle cx="117" cy="340" r="29" fill="#78F4D1"/>
<ellipse rx="29" ry="29.5" transform="matrix(-1 0 0 1 288 60.5)" fill="#78F4D1"/>
<circle r="29" transform="matrix(-1 0 0 1 362 208)" fill="#78F4D1"/>
<circle r="29" transform="matrix(-1 0 0 1 283 340)" fill="#78F4D1"/>
</g>
<defs>
<clipPath id="clip0">
<rect width="400" height="400" fill="white"/>
</clipPath>
</defs>
</svg>
