<?xml version="1.0" encoding="UTF-8" standalone="no"?>
<svg
   xmlns:dc="http://purl.org/dc/elements/1.1/"
   xmlns:cc="http://creativecommons.org/ns#"
   xmlns:rdf="http://www.w3.org/1999/02/22-rdf-syntax-ns#"
   xmlns:svg="http://www.w3.org/2000/svg"
   xmlns="http://www.w3.org/2000/svg"
   xmlns:sodipodi="http://sodipodi.sourceforge.net/DTD/sodipodi-0.dtd"
   xmlns:inkscape="http://www.inkscape.org/namespaces/inkscape"
   inkscape:version="1.0 (4035a4fb49, 2020-05-01)"
   sodipodi:docname="cyclofix.svg"
   id="svg110"
   version="1.1"
   fill="none"
   viewBox="0 0 400 400"
   height="400"
   width="400">
  <metadata
     id="metadata114">
    <rdf:RDF>
      <cc:Work
         rdf:about="">
        <dc:format>image/svg+xml</dc:format>
        <dc:type
           rdf:resource="http://purl.org/dc/dcmitype/StillImage" />
      </cc:Work>
    </rdf:RDF>
  </metadata>
  <sodipodi:namedview
     inkscape:current-layer="svg110"
     inkscape:window-maximized="1"
     inkscape:window-y="0"
     inkscape:window-x="44"
     inkscape:cy="200"
     inkscape:cx="200"
     inkscape:zoom="1.7875"
     showgrid="false"
     id="namedview112"
     inkscape:window-height="1051"
     inkscape:window-width="1876"
     inkscape:pageshadow="2"
     inkscape:pageopacity="0"
     guidetolerance="10"
     gridtolerance="10"
     objecttolerance="10"
     borderopacity="1"
     bordercolor="#666666"
     pagecolor="#ffffff" />
  <circle
     id="circle4"
     fill="#264653"
     r="200"
     cy="200"
     cx="200" />
  <path
     id="path6"
     stroke-linejoin="round"
     stroke-linecap="round"
     stroke="black"
     d="M176.021 71.7411C176.021 71.1554 176.021 70.5697 176.021 69.984C176.021 69.727 176.106 69.4658 176.021 69.2109" />
  <path
     id="path8"
     fill="#E76F51"
     d="M155.405 343.841C165.629 335.68 180.793 346.255 192.103 349C216.535 346.972 241.427 348.787 265.692 345.375C277.45 342.348 288.853 332.612 298.635 335.54C312.476 327.87 326.024 319.527 339.366 310.846C350.486 305.581 376.877 300.884 353.867 291.473C343.187 282.988 317.719 271.738 316.481 265.032C313.257 257.302 313.841 248.665 325.378 243.015C327.456 240.962 329.319 240.651 331.9 240.35C345.363 238.777 364.585 241.922 351.205 225.584C340.598 211.45 344.022 199.149 342.078 184.056C334.767 176.956 334.532 160.261 318.833 163.676C309.871 160.062 308.048 144.264 295.526 150.72C286.419 143.391 266.657 134.172 281.956 120.938C283.6 111.535 290.963 111.305 297.252 106.879C300.81 94.8821 274.631 79.7054 291.403 70.7947C286.534 65.5844 281.84 62.9649 282.677 57.9423C277.741 49.6446 258.969 47.8521 263.866 37.253C261.623 24.7037 239.735 28.1498 233.01 36.4317C219.781 33.6991 223.776 56.7785 211.011 60.0641C209.798 73.4914 190.066 50.6342 180.523 56.1698C162.564 54.6685 141.49 50.423 127.45 65.8439C118.668 78.7735 98.6686 75.7726 88.4306 82.7557C87.4358 83.4342 84.6263 84.757 85.6808 86.59C86.6618 89.2694 88.5299 89.8723 89.5419 91.6786C94.1972 99.9875 92.8088 110.107 82.2957 114.876C73.4566 121.672 59.1209 134.055 66.1692 149.093C71.8014 151.586 77.5242 153.989 77.4958 157.228C77.4784 159.208 71.6647 159.717 69.9424 163.864C70.1085 167.845 76.1108 170.522 75.9122 173.346C75.7381 175.822 73.3236 175.772 70.1555 178.014C69.0117 184.859 69.9036 196.791 66.7654 199.018C54.1098 192.571 49.1425 208.562 35.1046 203.879C20.3404 206.1 35.977 228.006 19.3507 232.005C10.9924 237.384 10.6099 248.474 19.8429 240.882C22.5497 244.419 26.575 245.11 30.2061 247.504C33.7143 249.817 31.9128 254.236 35.5518 259.408C38.0313 261.601 49.6471 256.617 57.1112 257.894C61.0819 258.573 61.8177 263.658 63.9302 266.718C67.8698 271.256 88.0268 267.671 89.601 262.434C93.679 251.393 109.286 254.587 100.421 266.284C91.1078 284.727 110.691 288.974 120.19 294.741C124.175 302.667 121.593 311.08 126.453 318.318C132.032 330.002 142.053 342.88 155.405 343.841" />
  <path
     id="path10"
     stroke-linejoin="round"
     stroke-linecap="round"
     stroke="black"
     d="M177.667 74.1075C177.22 74.1075 176.878 74.0544 176.619 74.4628C176.514 74.6289 176.456 74.7508 176.683 74.7634C176.99 74.7804 177.255 74.9274 177.585 74.9274" />
  <path
     id="path12"
     stroke-linejoin="round"
     stroke-linecap="round"
     stroke="black"
     d="M175.453 72.9598C176.19 73.0611 176.855 73.2603 177.512 73.6111C178.025 73.8853 178.74 74.1967 179.142 74.5994" />
  <path
     id="path14"
     stroke-linejoin="round"
     stroke-linecap="round"
     stroke="black"
     d="M177.339 74.5994C178.443 75.1595 179.345 75.9383 180.29 76.731" />
  <path
     id="path16"
     stroke-linejoin="round"
     stroke-linecap="round"
     stroke="black"
     d="M177.667 75.5832C178.395 75.7975 178.989 76.2808 179.662 76.6171C179.948 76.7604 180.722 76.9388 180.864 77.2229" />
  <g
     id="g20"
     filter="url(#filter0_d)">
    <path
       id="path18"
       stroke-linejoin="round"
       stroke-linecap="round"
       stroke-width="4"
       stroke="white"
       d="M135 205.444C136.645 208.042 136.721 208.021 138.762 210.202C139.826 211.338 143.666 214.618 145.15 214.976M174.163 242.81C176.024 247.468 177.646 248.835 182.883 251.399M149.963 217.476C155.056 218.848 158.714 220.543 161.502 223.818M164.89 227.744C168.161 231.279 169.37 233.685 171.204 237.543M250.299 276.459C254.455 278.111 261.016 278.555 264.334 276.265M188.094 253.163L200.22 254.136M205.7 253.668C210.184 253.285 214.169 252.945 217.827 254.641M235.002 267.728C238.373 271.956 240.494 273.281 244.109 274.478M222.523 256.749C226.679 258.402 229.88 260.637 231.63 263.499" />
  </g>
  <circle
     id="circle22"
     fill="#2A9D8F"
     r="49"
     cy="170"
     cx="275" />
  <circle
     id="circle24"
     fill="#E9C46A"
     r="49"
     cy="94"
     cx="135" />
  <path
     id="path26"
     fill="#E9C46A"
     d="M139.473 193.051C137.63 196.738 132.37 196.738 130.528 193.051L88.3867 108.735C86.7252 105.411 89.1427 101.5 92.8592 101.5L177.141 101.5C180.857 101.5 183.275 105.411 181.613 108.735L139.473 193.051Z" />
  <g
     id="g40"
     filter="url(#filter1_d)">
    <path
       id="path28"
       stroke-width="4"
       stroke="white"
       d="M130.795 94.6612H108.579L120.697 68.4055H132.815H141.567H150.992M150.992 68.4055L147.626 61H152.339H157.051M150.992 68.4055L152.339 71.7716L155.031 77.1574L162.437 94.6612M150.992 68.4055L144.596 78.5038L140.759 84.5628M138.201 88.6022L140.759 84.5628M125.41 75.8109L132.142 90.6219L118.677 61L122.717 69.0787M136.181 91.9683L140.759 84.5628" />
    <circle
       id="circle30"
       stroke-width="2"
       stroke="white"
       r="3.71257"
       cy="93.5159"
       cx="134.058" />
    <path
       id="path32"
       stroke-width="4"
       stroke="white"
       d="M158.944 101.936L158.887 101.932H158.829C157.35 101.932 155.825 102.007 154.449 102.075C153.638 102.114 152.88 102.152 152.213 102.17C150.247 102.222 148.809 102.128 147.732 101.744C146.787 101.407 146.07 100.831 145.546 99.6325C144.971 98.3182 144.611 96.1978 144.729 92.7804C145.02 84.3427 151.54 77.6361 159.805 77.6361C168.131 77.6361 174.881 84.3856 174.881 92.7115C174.881 95.5479 174.812 97.5006 174.507 98.9125C174.221 100.231 173.783 100.825 173.179 101.212C172.444 101.683 171.16 102.046 168.75 102.171C166.38 102.295 163.219 102.18 158.944 101.936Z" />
    <circle
       id="circle34"
       stroke-width="4"
       stroke="white"
       r="14.8306"
       cy="92.1694"
       cx="108.476" />
    <path
       id="path36"
       stroke-linejoin="round"
       stroke-linecap="round"
       stroke="white"
       d="M170.172 78.2029C170.05 77.1634 169.563 76.1239 169.075 75.6998M171.514 78.627C171.88 78.0754 172.368 76.6118 172.368 75.6361M172.611 79.6665C172.978 79.1149 174.929 78.2029 175.417 78.2029" />
    <circle
       id="circle38"
       fill-opacity="0.49"
       fill="black"
       r="0.487869"
       cy="80.0269"
       cx="170.538" />
  </g>
  <path
     id="path42"
     fill="#2A9D8F"
     d="M279.472 269.051C277.63 272.738 272.37 272.738 270.527 269.051L228.387 184.735C226.725 181.411 229.143 177.5 232.859 177.5L317.141 177.5C320.857 177.5 323.275 181.411 321.613 184.735L279.472 269.051Z" />
  <g
     id="g58"
     filter="url(#filter2_d)"
     clip-path="url(#clip0)">
    <path
       id="path44"
       fill="white"
       d="M282.94 199.504C284.196 199.504 285.4 199.005 286.288 198.117C287.176 197.229 287.674 196.73 287.674 195.474C287.674 194.219 287.176 193.782 286.288 192.894C285.4 192.006 284.196 191.507 282.94 191.507L277.044 191.512V189.908L278.57 189.904C279.826 189.903 281.029 189.404 281.917 188.516C282.805 187.629 283.954 186.634 283.955 185.379L284 154C284 153.652 284 153 284.089 152.681C284.222 152.36 284.235 152 284.413 151.822C284.659 151.576 284.792 151.381 285.113 151.248C285.434 151.115 286.341 151 286.688 151C287.036 151 287.679 150.997 288 151.13C288.321 151.263 288.677 151.678 289 152C289.246 152.246 289.263 152.36 289.396 152.681C289.529 153.002 289.598 153.346 289.598 153.694L289.605 179.571L288.554 179.571C288.281 179.572 288.019 179.68 287.824 179.872C287.63 180.064 287.518 180.324 287.513 180.597L287.447 185.348C287.437 186.039 287.565 186.726 287.823 187.367C288.081 188.009 288.464 188.593 288.95 189.085C289.435 189.577 290.014 189.968 290.652 190.235C291.29 190.502 291.975 190.639 292.666 190.639L295.812 190.639C296.089 190.639 296.354 190.529 296.55 190.333C296.746 190.138 296.856 189.872 296.856 189.596L296.856 185.167C296.856 185.028 296.828 184.891 296.774 184.763C296.72 184.635 296.641 184.519 296.542 184.422C296.443 184.325 296.325 184.248 296.196 184.197C296.067 184.146 295.929 184.121 295.791 184.124L293.829 184.166L293.779 180.599C293.775 180.326 293.663 180.066 293.468 179.874C293.274 179.682 293.012 179.574 292.738 179.573L292.068 179.571L292.411 154C292.411 152.744 291.888 150.888 291 150C290.112 149.112 289.188 148.5 286.688 148.5C284.478 148.5 283.388 149.112 282.5 150C281.612 150.888 281.228 152.442 281.228 153.697L281.228 185.174C281.227 185.876 280.947 186.548 280.451 187.045C279.955 187.541 279.282 187.82 278.581 187.821L277.044 187.821V155.645C277.044 155.368 276.934 155.103 276.738 154.907C276.542 154.712 276.277 154.602 276 154.602L275.185 154.602L275.185 145.617L284.475 145.617C284.752 145.617 285.018 145.507 285.213 145.311C285.409 145.116 285.519 144.85 285.519 144.574V139.407C285.519 139.13 285.409 138.865 285.213 138.669C285.018 138.473 284.752 138.363 284.475 138.363L259.38 138.363C259.103 138.363 258.837 138.473 258.642 138.669C258.446 138.864 258.336 139.13 258.336 139.407L258.336 144.574C258.336 144.85 258.446 145.116 258.642 145.311C258.837 145.507 259.103 145.617 259.38 145.617L268.669 145.617L268.669 154.602L267.843 154.602C267.566 154.602 267.3 154.712 267.105 154.907C266.909 155.103 266.799 155.368 266.799 155.645L266.799 191.507L260.915 191.507C259.659 191.507 258.455 192.006 257.567 192.894C256.679 193.782 256.181 194.219 256.181 195.474C256.181 196.73 256.679 197.229 257.567 198.117C258.455 199.005 259.659 199.504 260.915 199.504L282.94 199.504ZM291.749 185.244C291.751 185.381 291.78 185.517 291.835 185.643C291.89 185.77 291.969 185.884 292.068 185.979C292.167 186.075 292.283 186.15 292.411 186.2C292.539 186.251 292.676 186.275 292.814 186.273L294.763 186.233L294.765 188.555L292.663 188.555C292.248 188.555 291.837 188.472 291.454 188.312C291.071 188.152 290.724 187.918 290.433 187.622C290.141 187.326 289.912 186.976 289.757 186.591C289.602 186.206 289.525 185.794 289.531 185.379L289.581 181.655H291.704L291.749 185.244ZM260.423 143.53L260.423 140.45L283.432 140.45L283.432 143.53L274.142 143.53L269.713 143.53L260.423 143.53ZM270.757 145.617L273.098 145.617L273.098 154.602L270.757 154.602V145.617ZM268.542 156.689H269.713L274.142 156.689L275.312 156.689L275.312 187.817L268.542 187.817L268.542 156.689ZM268.542 189.904L275.312 189.904L275.312 194.46L268.542 194.46L268.542 189.904ZM258.268 195.474C258.281 194.776 258.564 194.878 259.058 194.384C259.551 193.891 260.217 193.608 260.915 193.595L266.799 193.595L266.799 194.736C266.799 195.013 266.909 195.278 267.105 195.474C267.3 195.67 267.566 195.78 267.842 195.78L276 195.784C276.277 195.784 276.542 195.674 276.738 195.479C276.934 195.283 277.044 195.017 277.044 194.741V193.599L282.94 193.595C283.288 193.593 283.633 193.661 283.955 193.793C284.277 193.926 284.569 194.121 284.815 194.367C285.061 194.613 285.256 194.138 285.389 194.46C285.521 194.781 285.588 195.126 285.587 195.474C285.574 196.172 285.291 196.133 284.797 196.627C284.304 197.12 283.638 197.403 282.94 197.417L260.915 197.417C260.567 197.418 260.222 197.351 259.9 197.218C259.578 197.086 259.286 196.891 259.04 196.645C258.794 196.399 258.599 196.106 258.466 195.784C258.334 195.463 258.266 195.822 258.268 195.474Z" />
    <rect
       id="rect46"
       fill="white"
       height="39"
       width="8"
       y="156"
       x="268" />
    <rect
       id="rect48"
       fill="white"
       height="4"
       width="25"
       y="140"
       x="259" />
    <rect
       id="rect50"
       fill="white"
       height="14"
       width="4"
       y="142"
       x="270" />
    <rect
       id="rect52"
       fill="white"
       height="5"
       width="28"
       y="193"
       x="258" />
    <rect
       id="rect54"
       fill="white"
       height="8"
       width="4"
       y="181"
       x="289" />
    <rect
       id="rect56"
       fill="white"
       height="4"
       width="3"
       y="185"
       x="292" />
  </g>
  <defs
     id="defs108">
    <filter
       color-interpolation-filters="sRGB"
       filterUnits="userSpaceOnUse"
       height="105.121"
       width="141.753"
       y="192.837"
       x="128.837"
       id="filter0_d">
      <feFlood
         id="feFlood60"
         result="BackgroundImageFix"
         flood-opacity="0" />
      <feColorMatrix
         id="feColorMatrix62"
         values="0 0 0 0 0 0 0 0 0 0 0 0 0 0 0 0 0 0 127 0"
         type="matrix"
         in="SourceAlpha" />
      <feOffset
         id="feOffset64"
         dy="4" />
      <feGaussianBlur
         id="feGaussianBlur66"
         stdDeviation="2" />
      <feColorMatrix
         id="feColorMatrix68"
         values="0 0 0 0 0 0 0 0 0 0 0 0 0 0 0 0 0 0 0.25 0"
         type="matrix" />
      <feBlend
         id="feBlend70"
         result="effect1_dropShadow"
         in2="BackgroundImageFix"
         mode="normal" />
      <feBlend
         id="feBlend72"
         result="shape"
         in2="effect1_dropShadow"
         in="SourceGraphic"
         mode="normal" />
    </filter>
    <filter
       color-interpolation-filters="sRGB"
       filterUnits="userSpaceOnUse"
       height="58"
       width="93.2354"
       y="59"
       x="87.6452"
       id="filter1_d">
      <feFlood
         id="feFlood75"
         result="BackgroundImageFix"
         flood-opacity="0" />
      <feColorMatrix
         id="feColorMatrix77"
         values="0 0 0 0 0 0 0 0 0 0 0 0 0 0 0 0 0 0 127 0"
         type="matrix"
         in="SourceAlpha" />
      <feOffset
         id="feOffset79"
         dy="4" />
      <feGaussianBlur
         id="feGaussianBlur81"
         stdDeviation="2" />
      <feColorMatrix
         id="feColorMatrix83"
         values="0 0 0 0 0 0 0 0 0 0 0 0 0 0 0 0 0 0 0.25 0"
         type="matrix" />
      <feBlend
         id="feBlend85"
         result="effect1_dropShadow"
         in2="BackgroundImageFix"
         mode="normal" />
      <feBlend
         id="feBlend87"
         result="shape"
         in2="effect1_dropShadow"
         in="SourceGraphic"
         mode="normal" />
    </filter>
    <filter
       color-interpolation-filters="sRGB"
       filterUnits="userSpaceOnUse"
       height="102.479"
       width="102.479"
       y="122.43"
       x="220.688"
       id="filter2_d">
      <feFlood
         id="feFlood90"
         result="BackgroundImageFix"
         flood-opacity="0" />
      <feColorMatrix
         id="feColorMatrix92"
         values="0 0 0 0 0 0 0 0 0 0 0 0 0 0 0 0 0 0 127 0"
         type="matrix"
         in="SourceAlpha" />
      <feOffset
         id="feOffset94"
         dy="4" />
      <feGaussianBlur
         id="feGaussianBlur96"
         stdDeviation="2" />
      <feColorMatrix
         id="feColorMatrix98"
         values="0 0 0 0 0 0 0 0 0 0 0 0 0 0 0 0 0 0 0.25 0"
         type="matrix" />
      <feBlend
         id="feBlend100"
         result="effect1_dropShadow"
         in2="BackgroundImageFix"
         mode="normal" />
      <feBlend
         id="feBlend102"
         result="shape"
         in2="effect1_dropShadow"
         in="SourceGraphic"
         mode="normal" />
    </filter>
    <clipPath
       id="clip0">
      <rect
         id="rect105"
         transform="translate(224.688 169.669) rotate(-45)"
         fill="white"
         height="66.8064"
         width="66.8064" />
    </clipPath>
  </defs>
</svg>
