<svg width="400" height="400" viewBox="0 0 400 400" fill="none" xmlns="http://www.w3.org/2000/svg">
<g clip-path="url(#clip0)">
<rect width="400" height="400" fill="white"/>
<circle cx="200" cy="200" r="200" fill="url(#paint0_radial)"/>
<path d="M141.5 136L181 90.5L186.5 94.5L161 140.5L141.5 212L186.5 267.5L169 278.5L132 212L141.5 136Z" fill="#DB5461" fill-opacity="0.5"/>
<path d="M196.118 61.1712L205.909 46.521L218.311 27.5297" stroke="#EFF7FF" stroke-width="2" stroke-linecap="round" stroke-linejoin="round"/>
<path d="M209.418 58.3195L231.61 24.6779" stroke="#EFF7FF" stroke-width="2" stroke-linecap="round" stroke-linejoin="round"/>
<path d="M210.925 75.5163L233.117 41.8747" stroke="#EFF7FF" stroke-width="2" stroke-linecap="round" stroke-linejoin="round"/>
<path d="M131 135L175.5 78L204.5 97.5L175.5 148L168 200L339 376.5L195.5 414L115 214L131 135Z" fill="url(#paint1_linear)"/>
<path d="M263 133C263 142.389 255.389 150 246 150C236.611 150 229 142.389 229 133C229 123.611 236.611 116 246 116C255.389 116 263 123.611 263 133Z" fill="#EFF7FF" stroke="black" stroke-width="2"/>
<path d="M105 176C105 185.389 97.3888 193 88 193C78.6112 193 71 185.389 71 176C71 166.611 78.6112 159 88 159C97.3888 159 105 166.611 105 176Z" fill="#EFF7FF" stroke="black" stroke-width="2"/>
<circle cx="284" cy="184" r="17" fill="#EFF7FF" stroke="black" stroke-width="2"/>
<circle cx="326" cy="249" r="17" fill="#EFF7FF" stroke="black" stroke-width="2"/>
<circle cx="247" cy="250" r="17" fill="#EFF7FF" stroke="black" stroke-width="2"/>
<circle cx="222" cy="189" r="17" fill="#EFF7FF" stroke="black" stroke-width="2"/>
<circle cx="83" cy="261" r="17" fill="#EFF7FF" stroke="black" stroke-width="2"/>
<circle cx="128" cy="311" r="17" fill="#EFF7FF" stroke="black" stroke-width="2"/>
<circle cx="153" cy="142" r="17" fill="#DB5461" stroke="black" stroke-width="2"/>
<circle cx="141" cy="210" r="17" fill="#DB5461" stroke="black" stroke-width="2"/>
<circle cx="180" cy="275" r="17" fill="#DB5461" stroke="black" stroke-width="2"/>
<circle cx="189" cy="88" r="14" fill="#DB5461" stroke="black" stroke-width="2"/>
<circle cx="190" cy="88" r="17" fill="#DB5461" stroke="black" stroke-width="2"/>
<path d="M232.136 120.991C232.683 120.916 233.066 120.411 232.991 119.864L231.767 110.948C231.692 110.4 231.187 110.018 230.64 110.093C230.093 110.168 229.71 110.672 229.785 111.22L230.873 119.145L222.948 120.233C222.4 120.308 222.018 120.813 222.093 121.36C222.168 121.907 222.672 122.29 223.22 122.215L232.136 120.991ZM202.396 98.7967L231.396 120.797L232.604 119.203L203.604 97.2033L202.396 98.7967Z" fill="black"/>
<path d="M221.046 171.301C221.213 171.828 221.774 172.12 222.301 171.954L230.883 169.243C231.41 169.077 231.702 168.515 231.536 167.989C231.37 167.462 230.808 167.17 230.281 167.336L222.652 169.745L220.243 162.117C220.077 161.59 219.515 161.298 218.989 161.464C218.462 161.63 218.17 162.192 218.336 162.719L221.046 171.301ZM234.113 145.539L221.113 170.539L222.887 171.461L235.887 146.461L234.113 145.539Z" fill="black"/>
<path d="M275.859 168.99C276.405 169.068 276.912 168.688 276.99 168.141L278.263 159.232C278.341 158.685 277.961 158.179 277.414 158.101C276.867 158.022 276.361 158.402 276.283 158.949L275.151 166.869L267.232 165.737C266.685 165.659 266.179 166.039 266.101 166.586C266.022 167.133 266.402 167.639 266.949 167.717L275.859 168.99ZM257.2 144.6L275.2 168.6L276.8 167.4L258.8 143.4L257.2 144.6Z" fill="black"/>
<path d="M317.823 234.984C318.366 235.082 318.886 234.721 318.984 234.177L320.581 225.32C320.679 224.777 320.318 224.257 319.775 224.159C319.231 224.061 318.711 224.422 318.613 224.965L317.193 232.838L309.32 231.419C308.777 231.321 308.257 231.682 308.159 232.225C308.061 232.769 308.422 233.289 308.965 233.387L317.823 234.984ZM292.179 198.57L317.179 234.57L318.821 233.43L293.821 197.43L292.179 198.57Z" fill="black"/>
<path d="M252.038 234.275C252.19 234.806 252.744 235.113 253.275 234.962L261.928 232.489C262.459 232.337 262.767 231.784 262.615 231.253C262.464 230.722 261.91 230.414 261.379 230.566L253.687 232.764L251.489 225.072C251.337 224.541 250.784 224.233 250.253 224.385C249.722 224.536 249.414 225.09 249.566 225.621L252.038 234.275ZM272.126 197.514L252.126 233.514L253.874 234.486L273.874 198.486L272.126 197.514Z" fill="black"/>
<path d="M140.181 192.573C140.497 193.026 141.121 193.136 141.573 192.819L148.947 187.658C149.399 187.341 149.509 186.718 149.192 186.265C148.876 185.813 148.252 185.703 147.8 186.02L141.246 190.607L136.658 184.053C136.341 183.601 135.718 183.491 135.265 183.808C134.813 184.124 134.703 184.748 135.02 185.2L140.181 192.573ZM146.015 157.826L140.015 191.826L141.985 192.174L147.985 158.174L146.015 157.826Z" fill="black"/>
<path d="M158.005 124.095C158.057 124.645 158.545 125.048 159.095 124.995L168.054 124.142C168.604 124.09 169.007 123.602 168.955 123.052C168.903 122.502 168.414 122.099 167.865 122.151L159.901 122.91L159.142 114.946C159.09 114.396 158.602 113.993 158.052 114.045C157.502 114.097 157.099 114.586 157.151 115.135L158.005 124.095ZM177.229 100.363L158.229 123.363L159.771 124.637L178.771 101.637L177.229 100.363Z" fill="black"/>
<path d="M169.811 260.982C170.353 261.087 170.877 260.732 170.982 260.189L172.687 251.353C172.792 250.81 172.437 250.286 171.895 250.181C171.353 250.077 170.828 250.431 170.723 250.974L169.208 258.829L161.353 257.313C160.81 257.208 160.286 257.563 160.181 258.105C160.077 258.647 160.431 259.172 160.974 259.277L169.811 260.982ZM146.172 226.56L169.172 260.56L170.828 259.44L147.828 225.44L146.172 226.56Z" fill="black"/>
<path d="M102.019 166.804C101.911 167.345 102.262 167.872 102.804 167.981L111.629 169.746C112.171 169.854 112.697 169.503 112.806 168.961C112.914 168.42 112.563 167.893 112.021 167.784L104.177 166.216L105.746 158.371C105.854 157.829 105.503 157.303 104.961 157.194C104.42 157.086 103.893 157.437 103.784 157.979L102.019 166.804ZM135.445 144.168L102.445 166.168L103.555 167.832L136.555 145.832L135.445 144.168Z" fill="black"/>
<path d="M94.0001 247.984C93.9911 248.536 94.4314 248.991 94.9836 249L103.982 249.147C104.535 249.156 104.99 248.716 104.999 248.164C105.008 247.612 104.567 247.157 104.015 247.148L96.0163 247.017L96.1474 239.018C96.1564 238.465 95.7161 238.01 95.1639 238.001C94.6117 237.992 94.1567 238.433 94.1477 238.985L94.0001 247.984ZM125.305 217.281L94.3046 247.281L95.6954 248.719L126.695 218.719L125.305 217.281Z" fill="black"/>
<path d="M113.936 300.998C114.487 301.033 114.963 300.615 114.998 300.064L115.571 291.082C115.606 290.531 115.188 290.055 114.637 290.02C114.086 289.985 113.611 290.403 113.575 290.955L113.066 298.938L105.082 298.429C104.531 298.394 104.055 298.812 104.02 299.363C103.985 299.914 104.403 300.389 104.955 300.425L113.936 300.998ZM91.2493 275.661L113.249 300.661L114.751 299.339L92.7507 274.339L91.2493 275.661Z" fill="black"/>
</g>
<defs>
<radialGradient id="paint0_radial" cx="0" cy="0" r="1" gradientUnits="userSpaceOnUse" gradientTransform="translate(200 200) rotate(90) scale(200)">
<stop offset="0.723958" stop-color="#1F7A8C"/>
<stop offset="1" stop-color="#075977"/>
</radialGradient>
<linearGradient id="paint1_linear" x1="175.5" y1="78" x2="175.5" y2="331" gradientUnits="userSpaceOnUse">
<stop stop-color="#EFF7FF"/>
<stop offset="1" stop-color="#C4C4C4" stop-opacity="0"/>
</linearGradient>
<clipPath id="clip0">
<rect width="400" height="400" fill="white"/>
</clipPath>
</defs>
</svg>
