<svg width="400" height="400" viewBox="0 0 400 400" fill="none" xmlns="http://www.w3.org/2000/svg">
<g clip-path="url(#clip0)">
<rect width="400" height="400" fill="white"/>
<circle cx="200" cy="200" r="200" fill="white"/>
<path d="M399.826 210.167C397.976 233.473 390.034 254.451 375.886 273.398C371.4 279.406 360.24 290.795 354.46 295.264C348.947 299.527 342.353 303.759 336.144 307.02C330.763 309.847 321.678 313.779 320.511 313.787C319.819 313.791 319.836 313.64 321.279 306.938C323.082 298.559 323.736 291.817 323.736 281.593C323.736 261.413 319.924 244.875 311.141 226.946C307.189 218.881 304.12 213.901 298.573 206.557C293.853 200.306 293.808 201.641 298.968 194.894C305.05 186.94 311.395 175.774 315.028 166.631C324.086 143.834 326.288 117.693 321.119 94.2986C320.51 91.5417 320.235 89.3632 320.467 89.1245C320.999 88.5746 327.764 91.3589 335.286 95.2242C346.969 101.227 355.122 107.211 364.919 116.971C381.388 133.38 392.099 152.625 397.266 175.091C399.43 184.5 400.596 200.471 399.826 210.167V210.167Z" fill="#B7FAEA"/>
<path d="M308.929 329.044C302.866 342.907 294.648 354.939 283.908 365.679C265.718 383.87 243.104 395.264 217.057 399.362C209.628 400.531 190.023 400.531 182.593 399.362C156.546 395.264 133.932 383.87 115.743 365.679C104.916 354.852 96.4817 342.444 90.5601 328.631C87.8646 322.343 87.7648 321.725 89.5175 322.177C101.511 325.271 120.322 326.577 132.484 325.159C156.854 322.318 178.298 313.576 196.74 298.964C198.41 297.641 199.958 296.558 200.181 296.558C200.403 296.558 202.285 297.898 204.363 299.536C221.556 313.082 243.448 322.125 265.806 324.917C273.632 325.894 287.933 325.892 295.735 324.913C300.901 324.264 308.182 322.908 310.578 322.147C311.863 321.739 311.548 323.058 308.929 329.044V329.044Z" fill="#DDF9A7"/>
<path d="M102.52 204.045C99.3763 207.887 93.6785 216.46 90.8157 221.656C83.758 234.465 79.0353 248.521 76.6191 263.906C75.9757 268.003 75.8001 271.795 75.8001 281.593C75.8001 294.669 76.2497 299.401 78.3516 308.449C78.857 310.625 79.1471 312.604 78.9964 312.848C78.6438 313.419 70.6071 310.058 63.9052 306.538C32.8944 290.249 10.0944 259.983 3.05278 225.759C0.806 214.839 0.042826 199.115 1.23304 188.268C5.93416 145.422 34.2198 107.683 73.8469 91.385C78.1865 89.6002 79.4473 89.3744 79.0322 90.4563C78.886 90.8372 78.3472 93.2351 77.8349 95.7849C74.0438 114.653 74.9582 136.387 80.3282 155.045C84.5466 169.701 93.1428 186.355 102.286 197.585C103.556 199.145 104.588 200.675 104.578 200.986C104.569 201.296 103.643 202.673 102.52 204.045V204.045Z" fill="#FBF091"/>
<path d="M310.653 80.5496C288.394 75.7356 269.646 75.8451 249.707 80.9055C233.585 84.9973 216.41 93.5081 203.817 103.645C202.147 104.989 200.55 106.089 200.268 106.089C199.986 106.089 197.475 104.378 194.688 102.286C176.9 88.932 157.891 81.1343 135.205 77.8844C129.77 77.1059 109.338 77.1071 103.915 77.886C101.671 78.2086 97.2263 79.0003 94.0392 79.6454C90.852 80.2906 88.119 80.6931 87.9659 80.54C87.0268 79.6009 94.8224 63.3234 99.9463 55.5243C109.858 40.4374 123.363 27.3508 138.242 18.4129C146.823 13.2585 157.183 8.71024 166.364 6.06622C217.169 -8.5648 270.866 11.3506 299.715 55.5243C304.419 62.7272 310.542 75.0433 311.643 79.5163C311.954 80.7809 311.914 80.8222 310.653 80.5493V80.5496Z" fill="#FDBDB4"/>
<path d="M317.941 296.558C317.267 301.509 315.332 310.916 314.407 313.738C313.735 315.792 312.942 316.16 306.101 317.598C297.454 319.416 290.238 320.14 280.77 320.14C254.048 320.14 230.199 312.151 208.564 295.951C206.511 294.414 204.828 292.917 204.823 292.623C204.817 292.33 206.566 290.289 208.709 288.088C221.136 275.323 231.693 258.311 237.009 242.485C237.573 240.805 238.264 239.244 238.543 239.016C238.822 238.788 241.089 237.84 243.581 236.909C259.287 231.042 273.629 221.939 286.248 209.827C288.781 207.395 290.984 205.405 291.143 205.405C291.686 205.405 298.993 215.599 301.87 220.371C309.503 233.029 315.087 248.454 317.549 263.68C318.582 270.068 318.821 290.098 317.941 296.558V296.558Z" fill="#9FF699"/>
<path d="M193.042 294.728C183.159 303.003 166.082 311.67 151.53 315.795C133.111 321.017 112.41 321.5 92.8943 317.163C89.977 316.515 87.1567 315.707 86.6268 315.368C85.0538 314.362 82.8999 305.147 81.7001 294.291C79.266 272.265 83.362 249.164 93.2467 229.168C97.7285 220.102 107.138 205.859 108.646 205.859C108.831 205.859 110.802 207.608 113.025 209.745C126.051 222.273 142.08 232.235 158.397 237.944L161.96 239.191L163.207 242.754C168.979 259.253 179.236 275.662 191.831 288.547C193.734 290.494 195.29 292.257 195.29 292.466C195.29 292.675 194.279 293.693 193.042 294.728V294.728Z" fill="#DBEB5F"/>
<path d="M318.64 129.445C316.898 152.477 308.485 174.325 294.062 193.273C292.59 195.207 291.261 196.789 291.108 196.789C290.955 196.789 288.77 194.795 286.253 192.358C273.651 180.153 258.952 170.89 242.607 164.85L238 163.147L236.298 158.54C230.274 142.24 220.96 127.459 208.791 114.891C206.354 112.375 204.36 110.19 204.36 110.037C204.36 109.884 205.942 108.554 207.875 107.082C225.49 93.6725 245.268 85.6097 267.166 82.9109C273.841 82.0883 289.58 82.216 296.188 83.1464C303.059 84.1137 313.211 86.412 313.971 87.1722C314.758 87.9592 317.089 98.3382 317.914 104.729C318.78 111.436 319.122 123.076 318.64 129.445V129.445Z" fill="#B7BAA6"/>
<path d="M190.557 115.722C179.277 127.395 170.133 141.899 164.23 157.483C163.183 160.245 162.041 162.664 161.69 162.858C161.34 163.052 159.012 163.943 156.518 164.838C141.697 170.158 126.152 179.972 113.106 192.246C110.678 194.53 108.485 196.27 108.231 196.113C107.396 195.597 102.283 188.634 99.2914 183.939C82.9416 158.278 77.1234 125.82 83.4984 95.8332C85.1561 88.0358 85.2437 87.7897 86.5953 87.1331C88.6382 86.1405 97.1961 84.361 104.499 83.4102C135.252 79.4064 166.47 87.7182 191.417 106.552C193.797 108.349 195.735 109.949 195.724 110.108C195.712 110.267 193.388 112.794 190.557 115.722Z" fill="#FBB267"/>
<path d="M229.584 246.447C225.226 256.744 219.044 267.251 212.507 275.47C208.933 279.966 200.791 288.395 200.024 288.395C198.485 288.395 186.672 274.533 181.408 266.55C176.509 259.12 168.26 242.263 169.107 241.415C169.241 241.282 170.172 241.393 171.175 241.663C181.231 244.371 198.686 245.561 211.389 244.405C216.523 243.937 225.609 242.484 228.399 241.684C230.271 241.147 231.581 241.1 231.536 241.572C231.518 241.759 230.64 243.952 229.584 246.447V246.447Z" fill="#9FE759"/>
<path d="M159.629 231.847C159.323 232.153 157.42 231.445 151.165 228.701C138.969 223.349 125.574 214.101 116.159 204.532L112.531 200.845L116.886 196.635C124.547 189.227 133.264 182.755 142.565 177.567C147.134 175.019 156.448 170.806 158.837 170.206C159.959 169.924 160.035 169.989 159.762 170.986C156.449 183.069 155.189 202.943 156.901 216.129C157.575 221.327 159.295 230.611 159.706 231.277C159.81 231.444 159.775 231.701 159.629 231.847H159.629Z" fill="#DBAF43"/>
<path d="M282.924 205.236C274.568 213.446 264.03 221.005 253.562 226.297C247.471 229.376 241.207 231.975 240.816 231.584C240.694 231.461 240.894 230.062 241.261 228.474C243.284 219.727 243.998 212.632 243.995 201.324C243.991 189.811 243.647 186.25 241.483 175.348C240.949 172.66 240.613 170.359 240.736 170.236C241.087 169.885 250.329 173.884 255.539 176.642C261.164 179.619 267.469 183.723 273.061 188.046C277.413 191.411 286.892 200.237 286.892 200.925C286.892 201.151 285.107 203.091 282.924 205.236Z" fill="#9EB66C"/>
<path d="M230.313 160.769C228.305 160.132 220.873 158.686 215.924 157.97C211.979 157.399 207.551 157.182 199.825 157.182C188.747 157.182 183.096 157.727 174.049 159.668C171.719 160.168 169.696 160.461 169.555 160.319C169.145 159.91 171.587 153.975 174.701 147.811C178.108 141.068 181.542 135.52 185.889 129.737C189.56 124.852 198.052 115.412 199.447 114.666C200.285 114.217 200.771 114.534 203.776 117.494C214.114 127.677 223.688 142.039 229.485 156.062C231.335 160.538 231.439 161.127 230.313 160.769Z" fill="#B3AF5C"/>
<path d="M237.659 212.661C237.557 213.285 237.245 215.53 236.967 217.65C236.54 220.897 235.963 223.829 233.958 232.936C233.726 233.99 233.037 234.296 228.096 235.542C210.168 240.063 188.784 239.993 170.855 235.354C169.013 234.878 167.316 234.298 167.084 234.066C166.852 233.834 166.273 232.137 165.796 230.295C161.158 212.365 161.088 190.981 165.609 173.052C166.911 167.887 167.127 167.436 168.44 167.145C169.116 166.995 171.506 166.458 173.75 165.951C183.615 163.725 186.336 163.466 199.825 163.461C208.404 163.457 213.893 163.655 216.15 164.046C221.353 164.949 228.356 166.416 230.977 167.152C233.277 167.799 233.348 167.87 233.992 170.171C234.836 173.188 235.919 178.233 236.833 183.411C237.517 187.283 238.149 209.67 237.659 212.661L237.659 212.661Z" fill="#9DAC3D"/>
<path d="M34.5 341.5C34.5 341.5 12.4999 269.832 38.9999 302.391C63.9585 281.47 63.6221 287.213 69.1691 279.006C71.7861 275.134 74.1474 271.006 74.4165 269.832C74.6856 268.659 76.8929 266.308 79.3217 264.607C84.6187 260.897 96.1621 246.063 105.688 230.723C113.274 218.508 117.254 210.708 121.784 199.179C126.873 186.224 129.427 181.148 130.855 181.148C132.894 181.148 138.305 186.474 146.882 196.922C151.109 202.07 154.741 206.282 154.954 206.282C155.767 206.282 167.537 182.374 171.05 173.588C173.268 168.04 177.107 160.883 180.72 155.557C184.465 150.038 188.167 143.084 190.59 137.018C192.722 131.679 195.264 126.585 196.238 125.697C198.903 123.267 201.793 124.841 206.41 131.237C210.601 137.043 211.206 138.973 214.684 157.636C215.309 160.991 216.8 164.769 218.565 167.471C220.141 169.885 223.683 176.039 226.434 181.148C229.186 186.257 233.801 193.879 236.69 198.086C239.578 202.293 243.781 209.975 246.028 215.157C248.955 221.906 252.253 227.41 257.653 234.554C261.799 240.04 265.501 244.529 265.878 244.529C266.256 244.529 269.673 237.705 273.472 229.365C284.343 205.5 284.557 205.481 303.425 226.702C314.986 239.704 315.277 240.182 317.653 250.058C321.431 265.761 339.5 288 351 291C363 288.545 374.36 287.838 382.5 312.5C388.554 330.84 361.423 314.099 365.5 320L353.5 335L328.5 357C328.5 357 312.119 370 292.5 379C272.882 388 248 395.5 248 395.5L212.439 401C115.5 401 38.5874 341.999 38.9999 341.5H34.5ZM144.718 301.245C151.261 299.253 152.929 299.113 157.365 300.182C160.175 300.86 163.017 301.702 163.681 302.055C165.439 302.989 163.929 297.947 160.431 291.21C156.075 282.818 155.861 281.337 157.442 270.518C159.057 259.462 159.214 259.952 151.346 251.549C148.908 248.946 146.317 245.075 145.588 242.949C144.29 239.163 144.311 238.93 146.567 231.842C147.871 227.744 148.692 223.591 148.458 222.272C147.973 219.536 135.938 203.003 134.431 203.003C133.865 203.003 130.115 209.765 126.098 218.029C109.637 251.897 97.4929 272.157 85.3238 286.055C81.3769 290.562 78.2571 294.404 78.3908 294.592C78.5245 294.78 80.8915 294.363 83.6506 293.665C86.4098 292.967 92.9755 292.392 98.241 292.387C108.429 292.378 114.271 293.983 119.463 298.222C126.467 303.943 133.205 304.749 144.718 301.245ZM317.911 295.026C313.951 285.679 302.965 271.02 296.281 266.167C288.029 260.175 287.707 259.462 287.229 246.118C286.904 237.056 286.507 234.229 285.224 231.851C284.345 230.22 283.283 228.878 282.866 228.867C282.449 228.858 279.681 234.338 276.716 241.046L271.326 253.243L274.348 261.104C280.353 276.726 289.854 286.579 309.619 297.683C315.473 300.972 320.125 303.026 320.28 302.391C320.431 301.771 319.365 298.457 317.911 295.026ZM221.767 264.283C225.863 258.614 224.62 251.208 217.384 238.167C213.788 231.685 211.954 225.065 213.064 222.577C213.563 221.462 214.113 221.817 215.404 224.088C219.083 230.563 222.496 230.151 222.496 223.233C222.496 218.609 218.018 206.331 212.439 195.659C208.851 188.795 207.731 185.58 206.624 178.962C205.87 174.455 204.869 169.049 204.4 166.949C203.931 164.849 203.545 161.407 203.542 159.3C203.54 157.192 203.168 153.624 202.716 151.37C202.042 148.012 201.532 147.272 199.893 147.272C196.883 147.272 189.522 158.154 185.849 168.035C184.173 172.542 178.981 183.361 174.311 192.076C164.843 209.746 162.475 214.804 162.542 217.21C162.595 219.105 171.711 230.099 178.115 235.992C181.356 238.975 183.948 240.354 188.086 241.298C195.73 243.041 198.023 244.747 202.683 252.162C207.004 259.039 215.394 267.477 217.909 267.477C218.762 267.477 220.498 266.04 221.767 264.283Z" fill="#383838"/>
<path d="M62.8792 240.886C66.2604 242.205 70.071 240.534 71.3905 237.153C72.71 233.772 71.0387 229.961 67.6576 228.642C64.2764 227.322 60.4658 228.993 59.1463 232.375C57.8268 235.756 59.4981 239.566 62.8792 240.886Z" fill="#383838"/>
<path d="M26.5 338.5L49 316L76.0306 310.171C77.7692 310.85 73.7179 294.031 74.3959 292.294L104.858 245.397C105.529 243.672 104.836 241.424 103.311 240.376L102.743 239.987C101.216 238.94 99.1428 239.336 98.1132 240.875L91.2276 251.144C90.8509 251.707 90.296 252.234 89.656 252.681C89.5995 252.498 89.5041 252.325 89.3403 252.2L85.5578 249.3L86.2536 248.407C86.5768 247.989 86.503 247.385 86.0842 247.06C85.67 246.738 85.0606 246.809 84.7331 247.226L80.501 252.666C80.3132 252.55 80.1329 252.423 79.9072 252.357L68.5893 249.018L64.8842 244.152L64.8999 244.123L64.8245 244.078L64.824 244.071L64.8166 244.072L57.3584 239.514C56.4485 238.957 55.2745 239.251 54.737 240.166L43.2065 258.711L43.2858 258.738C42.93 259.251 42.6974 259.847 42.6663 260.483L41.9976 274.211L36.0794 287.744C35.9606 288.014 35.8943 288.293 35.8511 288.571L31.5695 287.997C29.7345 287.752 26.8156 288.51 26.5 289.482C1.50001 304 10.5 363.5 26.5 338.5ZM84.3735 250.816L87.9714 253.575C87.3074 253.834 86.6305 253.999 86.0083 254.016L85.2233 254.037C84.0945 254.067 82.7313 254.518 81.5624 255.179C81.6219 254.907 81.644 254.635 81.6101 254.367L84.3735 250.816ZM62.1619 248.611L65.5035 252.775C65.7296 253.016 65.9957 253.203 66.2936 253.334C66.3838 253.375 66.4791 253.41 66.5769 253.435L77.4051 256.631L76.9558 257.208C76.6303 257.628 76.7048 258.232 77.1256 258.559C77.1882 258.611 77.2567 258.648 77.3297 258.681C77.5014 258.755 77.6857 258.767 77.864 258.739L75.6774 261.255L74.3117 259.614L75.4711 258.127C75.7965 257.707 75.7252 257.103 75.3038 256.777C74.8898 256.451 74.2797 256.527 73.9545 256.943L71.4876 260.106L62.6388 252.435L61.5528 249.596L62.1619 248.611ZM48.6887 275.157L49.174 265.302L56.7055 267.92L50.6769 274.596C50.0747 275.263 49.7656 276.126 49.8127 277.023C49.8585 277.919 50.2528 278.747 50.9215 279.348C51.1904 279.591 51.4945 279.789 51.8241 279.932C53.1546 280.515 54.7025 280.184 55.6729 279.106L65.0952 268.663C65.855 267.823 66.1423 266.669 65.8619 265.572C65.5787 264.482 64.8547 263.624 63.7051 263.229L55.0608 260.223L58.3908 254.77C58.5321 255.116 58.7514 255.43 59.0384 255.678L68.5318 263.905L66.1755 266.926C65.848 267.344 65.922 267.949 66.3411 268.273C66.4093 268.326 66.4755 268.365 66.5486 268.397C66.9404 268.568 67.4149 268.459 67.6912 268.106L70.1765 264.921C71.0273 265.111 71.9217 264.855 72.5141 264.176C72.9322 263.69 73.1393 263.07 73.0953 262.43C73.0706 262.101 72.9831 261.792 72.8323 261.508L73.0997 261.166L74.3959 262.728L72.1115 265.357C70.8978 266.756 69.9818 269.386 70.0646 271.236L67.2884 277.671C67.3712 279.52 66.6855 281.937 65.7583 283.068C64.8302 284.201 62.5803 285.001 60.7343 284.855L56.4624 285.489C54.6164 285.343 52.4697 286.404 51.669 287.859C50.8669 289.314 48.7299 290.294 46.8949 290.05L42.6631 289.482L48.4107 276.339C48.5762 275.967 48.6721 275.568 48.6887 275.157Z" fill="#383838"/>
<path d="M-1 0V200C-1.00005 146.957 20.0713 96.0861 57.5785 58.5788C95.0857 21.0715 145.956 8.65929e-05 199 0H-1ZM199 0C225.264 -2.49511e-05 251.271 5.17312 275.536 15.2241C299.802 25.275 321.849 40.0069 340.421 58.5786C358.993 77.1504 373.725 99.1982 383.776 123.463C393.827 147.729 399 173.736 399 200V0H199ZM399 200C399 253.043 377.928 303.914 340.421 341.421C302.914 378.929 252.043 400 199 400H399V200ZM199 400C145.956 400 95.0858 378.928 57.5786 341.421C20.0715 303.914 -0.999912 253.043 -1 200V400H199Z" fill="white"/>
<path d="M250.236 225.542C251.34 225.325 252.089 224.492 252.508 223.013C252.664 222.46 252.712 221.976 252.749 220.583C252.806 218.361 252.714 217.392 251.982 212.528C251.653 210.344 251.338 208.061 251.281 207.454C250.915 203.523 252.217 200.884 255.928 198.037C258.521 196.048 262.185 194.208 263.114 194.43C263.582 194.542 264.711 197.015 270.46 210.52C273.579 217.846 273.954 218.707 274.453 219.683C276.037 222.787 278.919 225.191 281.078 225.212C281.55 225.216 281.851 225.154 282.462 224.927C283.785 224.435 284.234 223.838 284.233 222.57C284.232 221.406 284.011 220.592 281.587 212.837C277.256 198.979 272.986 185.224 272.672 184.115C272.644 184.018 272.751 184.157 272.91 184.424C273.702 185.758 274.923 186.351 276.677 186.252C278.132 186.17 279.808 185.528 281.286 184.487C284.089 182.512 285.009 180.781 285 177.497C284.993 174.926 284.389 172.174 283.052 168.629C282.769 167.877 282.268 166.547 281.94 165.673C281.271 163.893 280.41 162.142 279.685 161.085C279.418 160.697 278.798 159.999 278.305 159.534C277.576 158.845 277.264 158.619 276.622 158.319C275.602 157.84 274.687 157.655 273.654 157.719C271.57 157.846 269.594 158.743 268.573 160.025C267.691 161.134 267.345 162.148 267.28 163.82C267.235 164.959 267.238 164.981 267.706 166.858C267.965 167.897 268.163 168.761 268.146 168.778C268.129 168.794 267.831 167.785 267.484 166.535C266.488 162.943 266.16 162.1 265.348 161.051C264.592 160.075 263.04 159.186 261.549 158.875C260.625 158.683 258.694 158.743 257.497 159.002C255.654 159.4 253.896 160.15 253.255 160.811C252.81 161.27 252.624 161.781 251.806 164.791C251.476 166.004 251.033 167.509 250.821 168.135C249.784 171.203 248.433 173.406 246.929 174.481C246.322 174.914 246.15 174.997 243.631 176.074C239.119 178.002 236.181 179.97 235.318 181.643C235.024 182.213 235 182.321 235 183.099C235 183.824 235.034 184.007 235.247 184.44C236.221 186.414 238.637 186.984 242.268 186.093C245.121 185.394 248.52 183.716 251.195 181.687C253.142 180.209 255.724 177.651 257.443 175.494C257.857 174.975 258.213 174.567 258.234 174.588C258.256 174.608 258.411 175.788 258.58 177.209C258.748 178.63 258.93 180.051 258.984 180.366C259.146 181.318 259.114 181.607 258.793 182.091C257.744 183.671 254.085 187.054 245.951 193.964C242.792 196.647 242.298 197.107 241.596 198.013C240.388 199.571 239.99 201.071 240.237 203.133C240.298 203.641 240.635 205.447 240.986 207.145C241.337 208.844 241.839 211.544 242.1 213.146C243.249 220.178 244.035 222.593 245.695 224.182C246.583 225.033 247.69 225.473 249.199 225.575C249.557 225.599 250.023 225.584 250.236 225.542V225.542Z" fill="#383838"/>
<path d="M268.207 168.966C268.237 168.895 268.259 168.916 268.263 169.019C268.268 169.112 268.246 169.164 268.215 169.135C268.184 169.106 268.181 169.03 268.207 168.966Z" fill="#383838"/>
<path d="M251.969 158.708C254.809 158.136 257.019 156.475 258.283 153.961C258.796 152.941 259.026 152.021 259.085 150.761C259.193 148.437 258.357 146.322 256.668 144.65C255.013 143.011 253.03 142.139 250.67 142.013C247.229 141.829 243.982 143.613 242.368 146.575C241.758 147.694 241.478 148.692 241.417 149.967C241.356 151.244 241.473 152.045 241.892 153.211C242.82 155.799 245.124 157.841 247.944 158.576C248.88 158.82 251.056 158.891 251.969 158.708Z" fill="#383838"/>
<path d="M87 249.5C105.976 253.388 115.02 235.325 131 185C157.932 200.23 173.35 181.18 200 128C211.825 158.81 232.759 192.155 242 180.5" stroke="white" stroke-width="3"/>
</g>
<defs>
<clipPath id="clip0">
<rect width="400" height="400" fill="white"/>
</clipPath>
</defs>
</svg>
