<?xml version="1.0" encoding="utf-8"?>
<!-- Generator: Adobe Illustrator 24.2.1, SVG Export Plug-In . SVG Version: 6.00 Build 0)  -->
<svg version="1.1" id="Layer_1" xmlns="http://www.w3.org/2000/svg" xmlns:xlink="http://www.w3.org/1999/xlink" x="0px" y="0px"
	 viewBox="0 0 500 500" style="enable-background:new 0 0 500 500;" xml:space="preserve">
<style type="text/css">
	.st0{fill:#FFFFFF;}
	.st1{fill:none;stroke:url(#SVGID_1_);stroke-width:7;stroke-miterlimit:10;}
	.st2{enable-background:new    ;}
	.st3{fill:#C33C28;}
	.st4{fill:#060506;}
</style>
<circle class="st0" cx="250.2" cy="249.8" r="250.2"/>
<linearGradient id="SVGID_1_" gradientUnits="userSpaceOnUse" x1="36.783" y1="245.1807" x2="466.3162" y2="245.1807" gradientTransform="matrix(1 0 0 -1 0 499.1969)">
	<stop  offset="0" style="stop-color:#E9C03D"/>
	<stop  offset="0.3492" style="stop-color:#E7BE3C"/>
	<stop  offset="0.475" style="stop-color:#E0B939"/>
	<stop  offset="0.5647" style="stop-color:#D5B035"/>
	<stop  offset="0.6371" style="stop-color:#C7A42D"/>
	<stop  offset="0.6985" style="stop-color:#B59525"/>
	<stop  offset="0.7165" style="stop-color:#AE8F22"/>
</linearGradient>
<polygon class="st1" points="304.8,99.2 461.3,259.8 299.9,408.8 43.6,245.7 "/>
<g class="st2">
	<path class="st3" d="M89.7,245.5v17.8c-4.8,3.3-12.6,5.7-18.9,5.7c-13.7,0-23.8-9.6-23.8-22.6c0-12.9,10.4-22.5,24.7-22.5
		c6.7,0,14,2.6,18.7,6.7l-7.4,9c-3-2.9-7.4-4.8-11.3-4.8c-6.4,0-11.2,5-11.2,11.6c0,6.7,4.9,11.7,11.3,11.7c1.8,0,4.3-0.6,6.7-1.7
		v-10.8H89.7z"/>
	<path class="st3" d="M129.6,254.4h-23.1c1,3.3,3.4,5.1,6.7,5.1c2.7,0,5.3-1.2,7.6-3.3l6.6,6.5c-3.6,4-8.8,6.2-15.3,6.2
		c-11.5,0-18.5-6.9-18.5-17.5c0-10.7,7.3-17.7,18.1-17.7C123.8,233.7,130.4,241.7,129.6,254.4z M117.1,248.1
		c0.1-3.4-2.1-5.8-5.2-5.8c-3,0-5,2.3-5.6,5.8H117.1z"/>
	<path class="st3" d="M158.2,266.8c-2.4,1.4-6.1,2.2-9.5,2.2c-7.3,0.1-12.2-4.2-12.2-11.3V244h-4.7v-8.1h4.7v-9.5h12.7v9.5h8.5v8.1
		h-8.5v11.7c0,2.2,1.1,3.3,2.9,3.3c1,0,2.4-0.4,3.9-1L158.2,266.8z"/>
	<path class="st3" d="M189.9,234.3v6.9h20.9v10.1h-20.9v7h23.6v10.1h-36.8v-44.2h36.1v10.1H189.9z"/>
	<path class="st3" d="M255.9,246.7v21.8h-12.7v-18.1c0-3.4-2-5.6-4.9-5.6c-3.5,0.1-5.6,2.8-5.6,6.7v17h-12.7v-34.3h12.7v5.3
		c2.4-3.8,6.1-5.8,10.9-5.8C250.9,233.6,255.9,238.7,255.9,246.7z"/>
	<path class="st3" d="M296.2,265.5c0,9.6-7.6,15.8-18.9,15.8c-6.4,0-12.1-2-15.8-4.5l4.2-8.6c3,2,7,3.2,10.5,3.2
		c4.6,0,7.3-2.1,7.3-5.5v-3.5c-2.2,2.6-5.3,4.1-9.2,4.1c-8.3,0-14.4-6.6-14.4-16.6c0-9.8,5.9-16.2,14.1-16.2c4,0,7.3,1.5,9.5,4.2
		v-3.7h12.6V265.5z M283.6,250.3c0-4.4-2.3-7.2-5.9-7.2c-3.5,0-5.8,2.9-5.8,7.2c0,4.2,2.3,7.1,5.8,7.1
		C281.3,257.3,283.6,254.5,283.6,250.3z"/>
	<path class="st3" d="M335.3,246.2v22.3h-12.5v-3.8c-2.1,2.8-5.5,4.4-10,4.4c-7.3,0-11.6-4.4-11.6-10.8c0-6.6,4.6-10.3,13.2-10.4
		h8.4v-0.1c0-2.8-2-4.5-5.9-4.5c-2.7,0-6.6,0.8-10.3,2.5l-3.2-8.5c5.6-2.3,11.2-3.5,16.5-3.5C329.5,233.6,335.3,238.2,335.3,246.2z
		 M322.8,257.1V254H317c-2.5,0-3.8,1.1-3.8,3.2c0,2.1,1.4,3.4,3.8,3.4C319.6,260.7,321.8,259.3,322.8,257.1z"/>
	<path class="st3" d="M375.6,265.5c0,9.6-7.6,15.8-18.9,15.8c-6.4,0-12.1-2-15.8-4.5l4.2-8.6c3,2,7,3.2,10.5,3.2
		c4.6,0,7.3-2.1,7.3-5.5v-3.5c-2.2,2.6-5.3,4.1-9.2,4.1c-8.3,0-14.4-6.6-14.4-16.6c0-9.8,5.9-16.2,14.1-16.2c4,0,7.3,1.5,9.5,4.2
		v-3.7h12.6V265.5z M362.9,250.3c0-4.4-2.3-7.2-5.9-7.2c-3.5,0-5.8,2.9-5.8,7.2c0,4.2,2.3,7.1,5.8,7.1
		C360.6,257.3,362.9,254.5,362.9,250.3z"/>
	<path class="st3" d="M416.4,254.4h-23.1c1,3.3,3.4,5.1,6.7,5.1c2.7,0,5.3-1.2,7.6-3.3l6.6,6.5c-3.6,4-8.8,6.2-15.3,6.2
		c-11.5,0-18.5-6.9-18.5-17.5c0-10.7,7.3-17.7,18.1-17.7C410.6,233.7,417.1,241.7,416.4,254.4z M403.8,248.1
		c0.1-3.4-2.1-5.8-5.2-5.8c-3,0-5,2.3-5.6,5.8H403.8z"/>
	<path class="st3" d="M456.8,268.4h-12.7v-3.9c-2.3,2.8-5.5,4.4-9.4,4.4c-9.6,0-15.9-7-15.9-17.8c0-10.5,6.2-17.4,15.6-17.4
		c4,0,7.4,1.6,9.7,4.4v-16.5h12.7V268.4z M444.1,251.4c0-4.5-2.5-7.6-6.2-7.6c-3.8,0-6.2,3.1-6.2,7.6c0,4.6,2.5,7.7,6.2,7.7
		C441.6,259.1,444.1,256,444.1,251.4z"/>
</g>
<g class="st2">
	<path class="st4" d="M118.6,301.1h-4.3V316h-2.6v-14.9h-3V300l3-0.9v-0.9c0-4.1,1.8-6.2,5.4-6.2c0.9,0,1.9,0.2,3.1,0.5l-0.7,2
		c-1-0.3-1.8-0.5-2.5-0.5c-1,0-1.7,0.3-2.1,1s-0.7,1.7-0.7,3.1v1.1h4.3V301.1z M121.5,294.5c0-0.6,0.1-1,0.4-1.3
		c0.3-0.3,0.6-0.4,1.1-0.4c0.4,0,0.8,0.1,1.1,0.4c0.3,0.3,0.4,0.7,0.4,1.3c0,0.6-0.1,1-0.4,1.3c-0.3,0.3-0.7,0.4-1.1,0.4
		c-0.4,0-0.8-0.1-1.1-0.4C121.6,295.6,121.5,295.1,121.5,294.5z M124.3,316h-2.6v-16.9h2.6V316z"/>
	<path class="st4" d="M141.2,316v-10.9c0-1.4-0.3-2.4-0.9-3.1c-0.6-0.7-1.6-1-2.9-1c-1.8,0-3.1,0.5-3.9,1.4c-0.8,1-1.2,2.5-1.2,4.7
		v8.9h-2.6v-16.9h2.1l0.4,2.3h0.1c0.5-0.8,1.3-1.5,2.2-1.9s2-0.7,3.2-0.7c2,0,3.6,0.5,4.6,1.5s1.5,2.5,1.5,4.7v11H141.2z"/>
	<path class="st4" d="M160.5,313.7h-0.1c-1.2,1.7-2.9,2.6-5.3,2.6c-2.2,0-3.9-0.8-5.1-2.3c-1.2-1.5-1.8-3.7-1.8-6.4s0.6-4.9,1.8-6.5
		c1.2-1.5,2.9-2.3,5.1-2.3c2.3,0,4,0.8,5.3,2.5h0.2l-0.1-1.2l-0.1-1.2V292h2.6v24h-2.1L160.5,313.7z M155.4,314.2
		c1.7,0,3-0.5,3.8-1.4c0.8-0.9,1.2-2.5,1.2-4.6v-0.5c0-2.4-0.4-4.1-1.2-5.1c-0.8-1-2.1-1.5-3.8-1.5c-1.5,0-2.6,0.6-3.4,1.7
		c-0.8,1.2-1.2,2.8-1.2,4.9c0,2.2,0.4,3.8,1.2,4.9C152.7,313.6,153.9,314.2,155.4,314.2z"/>
	<path class="st4" d="M188.1,316v-10.9c0-1.4-0.3-2.4-0.9-3.1c-0.6-0.7-1.6-1-2.9-1c-1.8,0-3.1,0.5-3.9,1.4c-0.8,1-1.2,2.5-1.2,4.7
		v8.9h-2.6v-16.9h2.1l0.4,2.3h0.1c0.5-0.8,1.3-1.5,2.2-1.9s2-0.7,3.2-0.7c2,0,3.6,0.5,4.6,1.5s1.5,2.5,1.5,4.7v11H188.1z"/>
	<path class="st4" d="M203,316.3c-2.5,0-4.5-0.8-5.9-2.3c-1.4-1.5-2.2-3.6-2.2-6.3c0-2.7,0.7-4.9,2-6.5c1.3-1.6,3.1-2.4,5.4-2.4
		c2.1,0,3.8,0.7,5,2.1c1.2,1.4,1.8,3.2,1.8,5.5v1.6h-11.6c0.1,2,0.6,3.5,1.5,4.5s2.3,1.5,4,1.5c1.8,0,3.6-0.4,5.4-1.1v2.3
		c-0.9,0.4-1.8,0.7-2.6,0.8C205.1,316.2,204.2,316.3,203,316.3z M202.3,301c-1.4,0-2.4,0.4-3.2,1.3c-0.8,0.9-1.3,2.1-1.4,3.7h8.8
		c0-1.6-0.4-2.8-1.1-3.7C204.7,301.4,203.7,301,202.3,301z"/>
	<path class="st4" d="M227.4,316l-3.1-9.9c-0.2-0.6-0.6-2-1.1-4.1h-0.1c-0.4,1.8-0.8,3.2-1.1,4.2l-3.2,9.9h-3l-4.6-16.9h2.7
		c1.1,4.2,1.9,7.5,2.5,9.7c0.6,2.2,0.9,3.7,1,4.5h0.1c0.1-0.6,0.3-1.3,0.5-2.3s0.5-1.7,0.7-2.2l3.1-9.7h2.8l3,9.7
		c0.6,1.8,1,3.2,1.2,4.4h0.1c0-0.4,0.2-0.9,0.3-1.7s1.2-4.9,3.2-12.4h2.6l-4.7,16.9H227.4z"/>
	<path class="st4" d="M253.1,316.3c-2.4,0-4.3-0.8-5.7-2.3c-1.3-1.5-2-3.6-2-6.4c0-2.8,0.7-5,2-6.5c1.4-1.5,3.3-2.3,5.8-2.3
		c0.8,0,1.6,0.1,2.4,0.3c0.8,0.2,1.4,0.4,1.9,0.6l-0.8,2.2c-0.6-0.2-1.2-0.4-1.8-0.6c-0.7-0.1-1.3-0.2-1.8-0.2
		c-3.4,0-5.1,2.2-5.1,6.6c0,2.1,0.4,3.7,1.3,4.8c0.8,1.1,2.1,1.7,3.7,1.7c1.4,0,2.8-0.3,4.3-0.9v2.3
		C256.2,316,254.8,316.3,253.1,316.3z"/>
	<path class="st4" d="M275.9,307.5c0,2.8-0.7,4.9-2.1,6.4c-1.4,1.5-3.3,2.3-5.7,2.3c-1.5,0-2.8-0.4-4-1.1c-1.2-0.7-2.1-1.7-2.7-3
		s-1-2.9-1-4.6c0-2.8,0.7-4.9,2.1-6.4c1.4-1.5,3.3-2.3,5.7-2.3c2.4,0,4.2,0.8,5.6,2.4C275.2,302.7,275.9,304.9,275.9,307.5z
		 M263,307.5c0,2.2,0.4,3.8,1.3,4.9c0.9,1.1,2.1,1.7,3.8,1.7s2.9-0.6,3.8-1.7s1.3-2.8,1.3-4.9c0-2.1-0.4-3.8-1.3-4.9
		s-2.1-1.7-3.8-1.7c-1.7,0-2.9,0.5-3.8,1.6C263.5,303.7,263,305.4,263,307.5z"/>
	<path class="st4" d="M282.9,316h-2.6v-24h2.6V316z"/>
	<path class="st4" d="M290.9,316h-2.6v-24h2.6V316z"/>
	<path class="st4" d="M303.4,316.3c-2.5,0-4.5-0.8-5.9-2.3c-1.4-1.5-2.2-3.6-2.2-6.3c0-2.7,0.7-4.9,2-6.5c1.3-1.6,3.1-2.4,5.4-2.4
		c2.1,0,3.8,0.7,5,2.1c1.2,1.4,1.8,3.2,1.8,5.5v1.6H298c0.1,2,0.6,3.5,1.5,4.5s2.3,1.5,4,1.5c1.8,0,3.6-0.4,5.4-1.1v2.3
		c-0.9,0.4-1.8,0.7-2.6,0.8C305.6,316.2,304.6,316.3,303.4,316.3z M302.8,301c-1.4,0-2.4,0.4-3.2,1.3s-1.3,2.1-1.4,3.7h8.8
		c0-1.6-0.4-2.8-1.1-3.7C305.1,301.4,304.1,301,302.8,301z"/>
	<path class="st4" d="M324.4,316l-0.5-2.4h-0.1c-0.8,1.1-1.7,1.8-2.5,2.1c-0.8,0.4-1.9,0.6-3.1,0.6c-1.7,0-3-0.4-3.9-1.3
		s-1.4-2.1-1.4-3.7c0-3.4,2.7-5.2,8.2-5.4l2.9-0.1v-1c0-1.3-0.3-2.3-0.9-2.9c-0.6-0.6-1.5-0.9-2.7-0.9c-1.4,0-3,0.4-4.8,1.3l-0.8-2
		c0.8-0.5,1.7-0.8,2.7-1.1c1-0.3,2-0.4,3-0.4c2,0,3.5,0.4,4.5,1.3c1,0.9,1.5,2.3,1.5,4.3V316H324.4z M318.6,314.2
		c1.6,0,2.8-0.4,3.7-1.3c0.9-0.9,1.4-2.1,1.4-3.7v-1.5l-2.6,0.1c-2,0.1-3.5,0.4-4.4,0.9s-1.3,1.4-1.3,2.6c0,0.9,0.3,1.6,0.8,2.1
		S317.6,314.2,318.6,314.2z"/>
	<path class="st4" d="M345.3,299.1v1.6l-3.1,0.4c0.3,0.4,0.5,0.8,0.8,1.4s0.3,1.2,0.3,2c0,1.7-0.6,3-1.7,4c-1.1,1-2.7,1.5-4.6,1.5
		c-0.5,0-1,0-1.4-0.1c-1.1,0.6-1.6,1.3-1.6,2.2c0,0.5,0.2,0.8,0.6,1s1,0.3,2,0.3h3c1.8,0,3.2,0.4,4.2,1.2c1,0.8,1.5,1.9,1.5,3.4
		c0,1.9-0.8,3.3-2.2,4.3c-1.5,1-3.7,1.5-6.6,1.5c-2.2,0-3.9-0.4-5.1-1.2s-1.8-2-1.8-3.5c0-1,0.3-1.9,1-2.7c0.7-0.7,1.6-1.3,2.8-1.5
		c-0.4-0.2-0.8-0.5-1.1-0.9c-0.3-0.4-0.4-0.9-0.4-1.4c0-0.6,0.2-1.2,0.5-1.6c0.3-0.5,0.8-0.9,1.6-1.3c-0.9-0.4-1.6-1-2.1-1.8
		c-0.5-0.9-0.8-1.8-0.8-3c0-1.8,0.6-3.3,1.7-4.3c1.1-1,2.7-1.5,4.7-1.5c0.9,0,1.7,0.1,2.4,0.3H345.3z M331.9,318.8
		c0,0.9,0.4,1.6,1.2,2.1c0.8,0.5,1.9,0.7,3.3,0.7c2.1,0,3.7-0.3,4.8-1s1.5-1.5,1.5-2.6c0-0.9-0.3-1.5-0.8-1.9
		c-0.6-0.4-1.6-0.5-3.2-0.5h-3.1c-1.2,0-2.1,0.3-2.7,0.8C332.2,317,331.9,317.8,331.9,318.8z M333.3,304.5c0,1.2,0.3,2.1,1,2.7
		c0.7,0.6,1.6,0.9,2.8,0.9c2.5,0,3.7-1.2,3.7-3.6c0-2.5-1.3-3.8-3.8-3.8c-1.2,0-2.1,0.3-2.8,1S333.3,303.3,333.3,304.5z"/>
	<path class="st4" d="M351.2,299.1v10.9c0,1.4,0.3,2.4,0.9,3.1c0.6,0.7,1.6,1,2.9,1c1.8,0,3.1-0.5,3.9-1.4c0.8-1,1.2-2.5,1.2-4.7
		v-8.9h2.6V316h-2.1l-0.4-2.3h-0.1c-0.5,0.8-1.2,1.5-2.2,1.9c-0.9,0.4-2,0.7-3.2,0.7c-2.1,0-3.6-0.5-4.6-1.5c-1-1-1.5-2.5-1.5-4.7
		v-11H351.2z"/>
	<path class="st4" d="M375.3,316.3c-2.5,0-4.5-0.8-5.9-2.3c-1.4-1.5-2.2-3.6-2.2-6.3c0-2.7,0.7-4.9,2-6.5c1.3-1.6,3.1-2.4,5.4-2.4
		c2.1,0,3.8,0.7,5,2.1c1.2,1.4,1.8,3.2,1.8,5.5v1.6h-11.6c0.1,2,0.6,3.5,1.5,4.5s2.3,1.5,4,1.5c1.8,0,3.6-0.4,5.4-1.1v2.3
		c-0.9,0.4-1.8,0.7-2.6,0.8C377.4,316.2,376.4,316.3,375.3,316.3z M374.6,301c-1.4,0-2.4,0.4-3.2,1.3s-1.3,2.1-1.4,3.7h8.8
		c0-1.6-0.4-2.8-1.1-3.7C377,301.4,375.9,301,374.6,301z"/>
	<path class="st4" d="M396.7,311.4c0,1.6-0.6,2.8-1.8,3.6c-1.2,0.9-2.8,1.3-4.9,1.3c-2.2,0-4-0.4-5.2-1.1v-2.4
		c0.8,0.4,1.7,0.7,2.6,1c0.9,0.2,1.8,0.4,2.7,0.4c1.3,0,2.4-0.2,3.1-0.6c0.7-0.4,1.1-1.1,1.1-1.9c0-0.7-0.3-1.2-0.9-1.7
		c-0.6-0.5-1.7-1-3.3-1.7c-1.6-0.6-2.7-1.1-3.3-1.5c-0.7-0.4-1.2-0.9-1.5-1.5c-0.3-0.6-0.5-1.2-0.5-2c0-1.4,0.6-2.5,1.7-3.3
		c1.1-0.8,2.7-1.2,4.6-1.2c1.8,0,3.6,0.4,5.3,1.1l-0.9,2.1c-1.7-0.7-3.2-1-4.6-1c-1.2,0-2.1,0.2-2.7,0.6s-0.9,0.9-0.9,1.6
		c0,0.5,0.1,0.8,0.3,1.2c0.2,0.3,0.6,0.6,1.1,0.9c0.5,0.3,1.5,0.7,3,1.2c2,0.7,3.4,1.5,4.1,2.2C396.4,309.3,396.7,310.3,396.7,311.4
		z"/>
</g>
</svg>
