<?xml version="1.0" encoding="utf-8"?>
<!-- Generator: Adobe Illustrator 22.0.0, SVG Export Plug-In . SVG Version: 6.00 Build 0)  -->
<svg version="1.1" id="Layer_1" xmlns="http://www.w3.org/2000/svg" xmlns:xlink="http://www.w3.org/1999/xlink" x="0px" y="0px"
	 viewBox="0 0 400 400" style="enable-background:new 0 0 400 400;" xml:space="preserve">
<style type="text/css">
	.st0{fill:#006AB3;}
	.st1{fill:#FFFFFF;}
	.st2{fill:none;stroke:#FFFFFF;stroke-width:3;stroke-miterlimit:10;}
	.st3{fill:none;stroke:#FFFFFF;stroke-width:2;stroke-miterlimit:10;}
</style>
<circle class="st0" cx="200" cy="200" r="200"/>
<g>
	<g>
		<path class="st1" d="M226.3,136.8c-1.6,0-3,1.3-3,3s1.3,3,3,3c1.6,0,3-1.3,3-3S227.9,136.8,226.3,136.8z"/>
	</g>
</g>
<g>
	<g>
		<path class="st1" d="M178.9,136.8c-1.6,0-3,1.3-3,3s1.3,3,3,3c1.6,0,3-1.3,3-3S180.6,136.8,178.9,136.8z"/>
	</g>
</g>
<g>
	<g>
		<path class="st1" d="M264.1,271.4l-19.6-20.4c7.9-0.3,14.3-6.8,14.3-14.8v-87.7c0-4.8-1.7-9.4-4.7-13.1c-3-3.7-7.3-6.2-12-7.2
			c-10.5-2.1-21.2-3.1-31.9-3.1h-15.6c-10.2,0-20.8,1-31.5,3.1c-9.6,1.9-16.6,10.5-16.6,20.3v87.8c0,8,6.5,14.6,14.5,14.8
			l-19.8,20.4c-0.8,0.9-1.1,2.1-0.6,3.2c0.5,1.1,1.5,1.8,2.7,1.8h21.1c0.9,0,1.8-0.5,2.4-1.2l9-12.4h54l9,12.4
			c0.6,0.8,1.4,1.2,2.4,1.2H262c1.2,0,2.3-0.7,2.7-1.8C265.2,273.5,264.9,272.2,264.1,271.4z M152.3,236.2v-87.8
			c0-7,5-13.1,11.9-14.5c9.7-1.9,19.9-3,30.3-3h15.6c10.3,0,20.7,1,30.8,3c3.3,0.7,6.4,2.5,8.5,5.1c2.2,2.6,3.4,6,3.4,9.4v87.7
			c0,4.9-4,8.9-8.9,8.9h-82.8C156.3,245,152.3,241.1,152.3,236.2z M162.8,270.5h-12.7l18.9-19.5h7.9L162.8,270.5z M180,256.9
			l4.3-5.9h36.9l4.3,5.9H180z M242.6,270.5L228.5,251h7.9l18.7,19.5H242.6z"/>
	</g>
</g>
<g>
	<g>
		<path class="st1" d="M244,148.6h-82.8c-1.6,0-3,1.3-3,3v49.1c0,1.6,1.3,3,3,3H244c1.6,0,3-1.3,3-3v-49.1
			C247,150,245.6,148.6,244,148.6z M199.6,197.7h-35.5v-43.2h35.5V197.7z M241,197.7h-35.5v-43.2H241V197.7z"/>
	</g>
</g>
<g>
	<g>
		<path class="st1" d="M214.4,136.8h-23.7c-1.6,0-3,1.3-3,3s1.3,3,3,3h23.7c1.6,0,3-1.3,3-3S216.1,136.8,214.4,136.8z"/>
	</g>
</g>
<g>
	<g>
		<path class="st1" d="M235.1,212.5c-6.5,0-11.8,5.3-11.8,11.8c0,6.5,5.3,11.8,11.8,11.8c6.5,0,11.8-5.3,11.8-11.8
			C247,217.8,241.6,212.5,235.1,212.5z M235.1,230.3c-3.3,0-5.9-2.7-5.9-5.9s2.7-5.9,5.9-5.9s5.9,2.7,5.9,5.9
			S238.4,230.3,235.1,230.3z"/>
	</g>
</g>
<g>
	<g>
		<path class="st1" d="M170.1,212.5c-6.5,0-11.8,5.3-11.8,11.8c0,6.5,5.3,11.8,11.8,11.8c6.5,0,11.8-5.3,11.8-11.8
			C181.9,217.8,176.6,212.5,170.1,212.5z M170.1,230.3c-3.3,0-5.9-2.7-5.9-5.9s2.7-5.9,5.9-5.9s5.9,2.7,5.9,5.9
			S173.3,230.3,170.1,230.3z"/>
	</g>
</g>
<g>
	<g>
		<path class="st1" d="M214.4,215.5h-23.7c-1.6,0-3,1.3-3,3c0,1.6,1.3,3,3,3h23.7c1.6,0,3-1.3,3-3
			C217.4,216.8,216.1,215.5,214.4,215.5z"/>
	</g>
</g>
<g>
	<g>
		<path class="st1" d="M214.4,227.3h-23.7c-1.6,0-3,1.3-3,3c0,1.6,1.3,3,3,3h23.7c1.6,0,3-1.3,3-3
			C217.4,228.6,216.1,227.3,214.4,227.3z"/>
	</g>
</g>
<line class="st2" x1="255.5" y1="162.4" x2="291.7" y2="125.9"/>
<line class="st2" x1="148.8" y1="189.7" x2="108.3" y2="209.6"/>
<line class="st3" x1="204.9" y1="260.7" x2="184.3" y2="312.9"/>
<line class="st2" x1="258.8" y1="224.3" x2="302" y2="237.5"/>
<line class="st3" x1="170.1" y1="130.9" x2="159.3" y2="94.4"/>
<g>
	<g>
		<g>
			<g>
				<path class="st1" d="M335.2,217.3c12.8,0.6,23.2,11,23.7,23.9h-23.7V217.3 M334,214.3c-1,0-1.9,0.8-1.9,1.9v26.2
					c0,1,0.8,1.9,1.9,1.9h26c1,0,1.9-0.8,1.9-1.9C361.9,226.9,349.4,214.3,334,214.3L334,214.3z"/>
			</g>
		</g>
	</g>
	<g>
		<g>
			<g>
				<path class="st1" d="M325.5,224.9v24.5v0.5l0.2,0.5l8.6,23.1c-2.5,0.8-5,1.2-7.7,1.2c-6.7,0-13-2.6-17.7-7.4
					c-4.8-4.8-7.4-11-7.4-17.7C301.4,236.4,312.1,225.5,325.5,224.9 M326.6,221.8c-15.4,0-28.2,12.5-28.2,27.9s12.8,28,28.2,28
					c3.4,0,6.7-0.6,9.8-1.8c1-0.4,1.4-1.4,1.1-2.4l-9-24.2v-25.7C328.5,222.7,327.6,221.8,326.6,221.8L326.6,221.8z"/>
			</g>
		</g>
	</g>
	<g>
		<g>
			<g>
				<path class="st1" d="M358.9,250.9c-0.4,9.6-6.3,18.1-15.1,21.9l-8.2-21.9H358.9 M360.1,247.9h-26c-0.6,0-1.2,0.3-1.5,0.8
					c-0.3,0.5-0.4,1.1-0.2,1.7l9.1,24.5c0.2,0.5,0.5,0.8,1,1c0.2,0.1,0.5,0.2,0.8,0.2c0.2,0,0.4,0,0.7-0.1
					c10.8-4.1,18.1-14.7,18.1-26.3C361.9,248.7,361.1,247.9,360.1,247.9L360.1,247.9z"/>
			</g>
		</g>
	</g>
</g>
<g>
	<g>
		<path class="st1" d="M115.1,227h-5.9v-36.1c0-0.5-0.4-0.9-0.9-0.9h-9.7c-0.5,0-0.9,0.4-0.9,0.9V227h-6.9v-25.4
			c0-0.5-0.4-0.9-0.9-0.9H80c-0.5,0-0.9,0.4-0.9,0.9V227h-6.9v-20.5c0-0.5-0.4-0.9-0.9-0.9h-9.7c-0.5,0-0.9,0.4-0.9,0.9V227h-5.9
			c-0.5,0-0.9,0.4-0.9,0.9s0.4,0.9,0.9,0.9h60.4c0.5,0,0.9-0.4,0.9-0.9C116,227.4,115.6,227,115.1,227z M70.3,227h-7.9v-19.6h7.9
			V227L70.3,227z M88.8,227h-7.9v-24.5h7.9V227z M107.3,227h-7.9v-35.2h7.9V227L107.3,227z"/>
	</g>
</g>
<g>
	<g>
		<path class="st1" d="M113.1,167.3c-0.6-0.5-1.4-0.8-2.2-0.7l-7.8,1c-1.5,0.2-2.7,1.6-2.5,3.2c0.2,1.6,1.6,2.7,3.2,2.5l0.6-0.1
			c-9.6,11.1-20.9,16.8-29,19.7c-10,3.6-17.8,3.9-17.9,3.9c-1.6,0-2.8,1.4-2.8,2.9c0,1.6,1.3,2.8,2.9,2.8c0,0,0.1,0,0.1,0
			c0.3,0,8.6-0.3,19.5-4.2c6.1-2.2,11.9-5.1,17.1-8.6c0.4-0.3,0.5-0.8,0.2-1.3c-0.3-0.4-0.8-0.5-1.3-0.2c-5.1,3.4-10.7,6.3-16.7,8.4
			c-10.6,3.8-18.6,4.1-18.9,4.1l0,0c-0.6,0-1-0.4-1-1c0-0.6,0.4-1,1-1.1c0.1,0,8.1-0.3,18.4-4c8.7-3.1,21.1-9.5,31.2-22
			c0.5-0.6,0-1.6-0.8-1.5l-2.9,0.4c-0.5,0.1-1-0.3-1.1-0.8c-0.2-0.6,0.3-1.2,0.9-1.3l7.8-1c0.6-0.1,1.2,0.4,1.2,1v7.8
			c0,0.6-0.5,1-1,1c-0.6,0-1-0.5-1-1v-2.4c0-0.4-0.2-0.7-0.6-0.9c-0.4-0.1-0.8,0-1,0.3c-3.4,4.2-7.3,8-11.5,11.2
			c-0.4,0.3-0.5,0.9-0.2,1.3s0.9,0.5,1.3,0.2c3.7-2.9,7.1-6.1,10.2-9.6c0.1,1.5,1.3,2.7,2.9,2.7c1.6,0,2.9-1.3,2.9-2.9v-7.8
			C114,168.7,113.7,167.9,113.1,167.3z"/>
	</g>
</g>
<g>
	<g>
		<path class="st1" d="M150.4,69.4h14.7c0.4,0,0.8-0.4,0.8-0.8v-3.4c0-0.4-0.4-0.8-0.8-0.8h-14.7c-0.4,0-0.8,0.4-0.8,0.8v3.4
			C149.6,69.1,150,69.4,150.4,69.4z M151.2,66h13.1v1.8h-13.1V66z"/>
		<path class="st1" d="M150.4,72.8h18.3c0.4,0,0.8-0.4,0.8-0.8s-0.4-0.8-0.8-0.8h-18.3c-0.4,0-0.8,0.4-0.8,0.8S150,72.8,150.4,72.8
			L150.4,72.8z"/>
		<path class="st1" d="M150.4,76.2h18.3c0.4,0,0.8-0.4,0.8-0.8s-0.4-0.8-0.8-0.8h-18.3c-0.4,0-0.8,0.4-0.8,0.8S150,76.2,150.4,76.2
			L150.4,76.2z"/>
		<path class="st1" d="M150.4,79.6h14.7c0.4,0,0.8-0.4,0.8-0.8s-0.4-0.8-0.8-0.8h-14.7c-0.4,0-0.8,0.4-0.8,0.8S150,79.6,150.4,79.6z
			"/>
		<path class="st1" d="M128.6,74.2c0,5.4,4.4,9.7,9.7,9.7c5.4,0,9.7-4.4,9.7-9.7c0-5.4-4.4-9.7-9.7-9.7
			C133,64.4,128.6,68.8,128.6,74.2z M144.6,79.3l-4.4-4.4h6.2C146.3,76.6,145.6,78.1,144.6,79.3z M130.2,74.2c0-4.2,3.2-7.7,7.4-8.1
			v8.1c0,0.2,0.1,0.4,0.2,0.6c0,0,0,0,0,0l5.7,5.7c-1.4,1.2-3.2,1.9-5.2,1.9C133.8,82.3,130.2,78.6,130.2,74.2L130.2,74.2z
			 M146.4,73.4h-7.3v-7.3C143,66.4,146,69.5,146.4,73.4L146.4,73.4z"/>
		<path class="st1" d="M175.2,58.1c0.4,0,0.8-0.4,0.8-0.8v-3.4c0-0.4-0.4-0.8-0.8-0.8h-52.3c-0.4,0-0.8,0.4-0.8,0.8v3.4
			c0,0.4,0.4,0.8,0.8,0.8h0.9v32.1h-0.9c-0.4,0-0.8,0.4-0.8,0.8v3.4c0,0.4,0.4,0.8,0.8,0.8h6.5c0.4,0,0.8-0.4,0.8-0.8
			c0-0.4-0.4-0.8-0.8-0.8h-5.7v-1.8h36.1c0.4,0,0.8-0.4,0.8-0.8c0-0.4-0.4-0.8-0.8-0.8h-34.4V58.1h3.4c0.4,0,0.8-0.4,0.8-0.8
			s-0.4-0.8-0.8-0.8h-5.1v-1.8h50.7v1.8h-42c-0.4,0-0.8,0.4-0.8,0.8s0.4,0.8,0.8,0.8h40.3v32.1h-9.2c-0.4,0-0.8,0.4-0.8,0.8
			c0,0.4,0.4,0.8,0.8,0.8h10.9v1.8h-41.3c-0.4,0-0.8,0.4-0.8,0.8c0,0.4,0.4,0.8,0.8,0.8h8.6l-2.9,10.9c-0.1,0.4,0.1,0.9,0.6,1
			c0.1,0,0.1,0,0.2,0c0.3,0,0.7-0.2,0.8-0.6l3-11.3h2.6l-2.9,10.9c-0.1,0.4,0.1,0.9,0.6,1c0.1,0,0.1,0,0.2,0c0.3,0,0.7-0.2,0.8-0.6
			l1.6-6.1v5.9c0,0.4,0.4,0.8,0.8,0.8s0.8-0.4,0.8-0.8V95.2h2.7v11.1c0,0.4,0.4,0.8,0.8,0.8s0.8-0.4,0.8-0.8v-5.9l1.6,6.1
			c0.1,0.4,0.4,0.6,0.8,0.6c0.1,0,0.1,0,0.2,0c0.4-0.1,0.7-0.5,0.6-1l-2.9-10.9h2.6l3,11.3c0.1,0.4,0.4,0.6,0.8,0.6
			c0.1,0,0.1,0,0.2,0c0.4-0.1,0.7-0.5,0.6-1l-2.9-10.9h18.7c0.4,0,0.8-0.4,0.8-0.8V91c0-0.4-0.4-0.8-0.8-0.8h-0.9V58.1L175.2,58.1z"
			/>
	</g>
</g>
<g>
	<path class="st1" d="M325.4,101.3h-26.7c-2.1,0-3.7,1.7-3.7,3.7l0,2.7c-1.1,0.5-2.2,1.2-3.1,2.1c-4.2,4-4.7,10.5-1.2,15l-7.7,7.7
		c-0.5,0.5-0.5,1.4,0,2c0.3,0.3,0.6,0.4,1,0.4s0.7-0.1,1-0.4l7.7-7.7c0.7,0.6,1.5,1,2.4,1.4v16.7c0,2.1,1.7,3.7,3.7,3.7h26.7
		c2.1,0,3.7-1.7,3.7-3.7v-39.8C329.2,103,327.5,101.3,325.4,101.3L325.4,101.3z M291.1,117.7c0.1-2.2,1-4.3,2.7-5.8
		c0.9-0.8,1.9-1.4,3-1.8c0,0,0,0,0,0c0.8-0.3,1.7-0.4,2.7-0.4c0.1,0,0.2,0,0.3,0c2.2,0.1,4.3,1,5.8,2.7c1.5,1.6,2.3,3.8,2.3,6
		c-0.1,2.2-1,4.3-2.7,5.8c-1.6,1.5-3.8,2.3-6,2.3c-0.8,0-1.6-0.2-2.4-0.4c0,0,0,0-0.1,0c-1.3-0.4-2.5-1.2-3.4-2.2
		C291.8,122.1,291,120,291.1,117.7L291.1,117.7z M326.4,144.9c0,0.5-0.4,1-1,1h-26.7c-0.5,0-1-0.4-1-1V129c0.6,0.1,1.1,0.1,1.7,0.1
		c2.7,0,5.5-1,7.6-3c2.2-2,3.4-4.8,3.5-7.8c0.1-3-1-5.8-3-8c-2-2.2-4.8-3.4-7.8-3.5c-0.7,0-1.4,0-2.1,0.1l0-1.9c0-0.5,0.4-1,1-1
		h26.7c0.5,0,1,0.4,1,1L326.4,144.9L326.4,144.9z"/>
	<path class="st1" d="M321.4,142.8c0.8,0,1.4-0.6,1.4-1.4v-4.7c0-1.2-1-2.2-2.2-2.2h-4v-2.2c0-1.3-1.1-2.4-2.4-2.4h-4.4
		c-1.2,0-2.2,1-2.2,2.2v0.2h-3.9c-1.3,0-2.3,1-2.3,2.3v6.8c0,0.8,0.6,1.4,1.4,1.4L321.4,142.8L321.4,142.8z M307.6,140h-3.4V135h3.4
		V140z M310.3,132.6h3.5v7.4h-3.5V132.6z M320,140h-3.4v-2.7h3.4V140z"/>
</g>
<g>
	<g>
		<path class="st1" d="M205.2,354c1.8,0,3.3-1.5,3.3-3.3V317c0-2.6-2.1-4.7-4.7-4.7h-39c-2.6,0-4.7,2.1-4.7,4.7v33.7
			c0,1.8,1.5,3.3,3.3,3.3h1v4.9H161c-0.5,0-0.9,0.4-0.9,0.9c0,0.5,0.4,0.9,0.9,0.9h46.6c0.5,0,0.9-0.4,0.9-0.9
			c0-0.5-0.4-0.9-0.9-0.9h-3.4V354H205.2z M162,317c0-1.6,1.3-2.8,2.8-2.8h39c1.6,0,2.8,1.3,2.8,2.8v2.1h-44.6c0,0-0.1,0-0.1,0V317z
			 M170.5,358.8h-4.2v-8.5h4.2V358.8z M181.1,358.8h-4.2v-19h4.2V358.8z M191.7,358.8h-4.2v-11h4.2V358.8z M203.2,336.6h-6.1
			c-0.5,0-0.9,0.4-0.9,0.9v4.8c0,0.5,0.4,0.9,0.9,0.9s0.9-0.4,0.9-0.9v-3.8h4.2v20.4h-4.2v-10.2c0-0.5-0.4-0.9-0.9-0.9
			s-0.9,0.4-0.9,0.9v10.2h-2.6v-11.9c0-0.5-0.4-0.9-0.9-0.9h-6.1c-0.5,0-0.9,0.4-0.9,0.9v11.9H183v-19.9c0-0.5-0.4-0.9-0.9-0.9H176
			c-0.5,0-0.9,0.4-0.9,0.9v19.9h-2.6v-9.5c0-0.5-0.4-0.9-0.9-0.9h-6.1c-0.5,0-0.9,0.4-0.9,0.9v2.7h-1c-0.8,0-1.4-0.6-1.4-1.4V321
			c0,0,0.1,0,0.1,0h44.6v29.7c0,0.8-0.6,1.4-1.4,1.4h-1v-14.6C204.2,337,203.7,336.6,203.2,336.6z"/>
	</g>
</g>
<g>
	<g>
		<path class="st1" d="M202.5,315.7h-21.4c-0.5,0-0.9,0.4-0.9,0.9c0,0.5,0.4,0.9,0.9,0.9h21.4c0.5,0,0.9-0.4,0.9-0.9
			C203.4,316.1,203,315.7,202.5,315.7z"/>
	</g>
</g>
<g>
	<g>
		<path class="st1" d="M170.6,316c-0.2-0.2-0.4-0.3-0.7-0.3s-0.5,0.1-0.7,0.3c-0.2,0.2-0.3,0.4-0.3,0.7s0.1,0.5,0.3,0.7
			c0.2,0.2,0.4,0.3,0.7,0.3s0.5-0.1,0.7-0.3c0.2-0.2,0.3-0.4,0.3-0.7S170.7,316.1,170.6,316z"/>
	</g>
</g>
<g>
	<g>
		<path class="st1" d="M166.8,316c-0.2-0.2-0.4-0.3-0.7-0.3s-0.5,0.1-0.7,0.3c-0.2,0.2-0.3,0.4-0.3,0.7s0.1,0.5,0.3,0.7
			c0.2,0.2,0.4,0.3,0.7,0.3s0.5-0.1,0.7-0.3c0.2-0.2,0.3-0.4,0.3-0.7S167,316.1,166.8,316z"/>
	</g>
</g>
<g>
	<g>
		<path class="st1" d="M174.4,316c-0.2-0.2-0.4-0.3-0.7-0.3c-0.2,0-0.5,0.1-0.7,0.3c-0.2,0.2-0.3,0.4-0.3,0.7s0.1,0.5,0.3,0.7
			c0.2,0.2,0.4,0.3,0.7,0.3s0.5-0.1,0.7-0.3c0.2-0.2,0.3-0.4,0.3-0.7S174.5,316.1,174.4,316z"/>
	</g>
</g>
<g>
	<g>
		<path class="st1" d="M197.8,345c-0.2-0.2-0.4-0.3-0.7-0.3s-0.5,0.1-0.7,0.3c-0.2,0.2-0.3,0.4-0.3,0.7s0.1,0.5,0.3,0.7
			c0.2,0.2,0.4,0.3,0.7,0.3s0.5-0.1,0.7-0.3s0.3-0.4,0.3-0.7C198.1,345.4,198,345.2,197.8,345z"/>
	</g>
</g>
<g>
	<g>
		<path class="st1" d="M200.2,325.2c-1.9,0-3.4,1.5-3.4,3.4c0,0.7,0.2,1.4,0.7,2l-6.3,6.3c-0.5-0.3-1-0.4-1.6-0.4
			c-0.5,0-1,0.1-1.5,0.3l-6.6-6.6c0.3-0.5,0.4-1,0.4-1.6c0-1.9-1.5-3.4-3.4-3.4c-1.9,0-3.4,1.5-3.4,3.4c0,0.7,0.2,1.3,0.5,1.8
			l-5.6,5.6c-0.5-0.3-1-0.4-1.6-0.4c-1.9,0-3.4,1.5-3.4,3.4c0,1.9,1.5,3.4,3.4,3.4s3.4-1.5,3.4-3.4c0-0.6-0.2-1.2-0.4-1.6l5.7-5.7
			c0.5,0.2,1,0.3,1.5,0.3c0.6,0,1.2-0.2,1.6-0.4l6.5,6.5c-0.3,0.5-0.5,1.1-0.5,1.8c0,1.9,1.5,3.4,3.4,3.4s3.4-1.5,3.4-3.4
			c0-0.6-0.2-1.2-0.4-1.6l6.5-6.5c0.4,0.2,0.8,0.2,1.2,0.2c1.9,0,3.4-1.5,3.4-3.4S202.1,325.2,200.2,325.2z M168.3,340.4
			c-0.8,0-1.5-0.7-1.5-1.5c0-0.8,0.7-1.5,1.5-1.5s1.5,0.7,1.5,1.5C169.8,339.8,169.2,340.4,168.3,340.4z M178.5,330.1
			c-0.8,0-1.5-0.7-1.5-1.5s0.7-1.5,1.5-1.5s1.5,0.7,1.5,1.5S179.3,330.1,178.5,330.1z M189.5,341.3c-0.8,0-1.5-0.7-1.5-1.5
			s0.7-1.5,1.5-1.5c0.8,0,1.5,0.7,1.5,1.5S190.3,341.3,189.5,341.3z M200.2,330.1c-0.8,0-1.5-0.7-1.5-1.5s0.7-1.5,1.5-1.5
			s1.5,0.7,1.5,1.5S201,330.1,200.2,330.1z"/>
	</g>
</g>
<g>
	<g>
		<path class="st1" d="M174.1,324.5c-0.2-0.2-0.4-0.3-0.7-0.3c-0.2,0-0.5,0.1-0.7,0.3c-0.2,0.2-0.3,0.4-0.3,0.7s0.1,0.5,0.3,0.7
			c0.2,0.2,0.4,0.3,0.7,0.3c0.2,0,0.5-0.1,0.7-0.3c0.2-0.2,0.3-0.4,0.3-0.7S174.3,324.7,174.1,324.5z"/>
	</g>
</g>
<g>
	<g>
		<path class="st1" d="M169.9,324.2h-4.5c-0.5,0-0.9,0.4-0.9,0.9c0,0.5,0.4,0.9,0.9,0.9h4.5c0.5,0,0.9-0.4,0.9-0.9
			C170.9,324.6,170.4,324.2,169.9,324.2z"/>
	</g>
</g>
<g>
	<g>
		<path class="st1" d="M169.9,328.8h-4.5c-0.5,0-0.9,0.4-0.9,0.9c0,0.5,0.4,0.9,0.9,0.9h4.5c0.5,0,0.9-0.4,0.9-0.9
			C170.9,329.2,170.4,328.8,169.9,328.8z"/>
	</g>
</g>
</svg>
