<svg xmlns="http://www.w3.org/2000/svg" viewBox="0 0 400 400">
  <defs>
    <style>
      .cls-1 {
        fill: #e7eef5;
      }

      .cls-2 {
        fill: #55baeb;
      }

      .cls-3 {
        fill: none;
        stroke: #ffe500;
        stroke-miterlimit: 10;
        stroke-width: 12.4px;
      }

      .cls-4 {
        fill: #273951;
      }
    </style>
  </defs>
  <g id="puzzel">
    <circle class="cls-1" cx="200" cy="200" r="193.8"/>
    <path class="cls-2" d="M200,400A199.94,199.94,0,0,1,58.58,58.58a200,200,0,1,1,219.27,325.7A198.75,198.75,0,0,1,200,400Zm0-387.6C96.56,12.4,12.4,96.56,12.4,200S96.56,387.6,200,387.6,387.6,303.44,387.6,200,303.44,12.4,200,12.4Z"/>
    <path class="cls-2" d="M279.84,149.22a11,11,0,1,0-15.55-15.55,11.51,11.51,0,0,0-3.14,10.62l-11.29,11.29L232.27,138c-.26-.26-.54-.5-.82-.74V111a14.67,14.67,0,0,0-14.67-14.67H195.3V79.21a11.51,11.51,0,0,0,5.29-9.73,11,11,0,1,0-22,0,11.48,11.48,0,0,0,5.28,9.73V96.35H162.4A14.67,14.67,0,0,0,147.73,111V304a14.67,14.67,0,0,0,14.67,14.67h20.76v-18.4a12.29,12.29,0,0,1-5.67-10.44,11.81,11.81,0,1,1,23.6,0,12.33,12.33,0,0,1-5.68,10.44v18.4h21.37A14.67,14.67,0,0,0,231.45,304c5.62-65.63,44.1-106.82,44.1-106.82a11.23,11.23,0,0,0,0-15.89l0,0L258,163.67l11.29-11.29A11.48,11.48,0,0,0,279.84,149.22Z"/>
    <line class="cls-3" x1="214.27" y1="100.24" x2="214.27" y2="314.81"/>
    <line class="cls-3" x1="165.09" y1="100.24" x2="165.09" y2="314.81"/>
    <path class="cls-3" d="M267.83,179S211,235.55,214.27,314.81"/>
    <path class="cls-3" d="M234.6,145.8s-73.94,77.07-69.51,169"/>
    <path class="cls-4" d="M216.78,322.55H191.54V298.13l1.8-1.14a8.39,8.39,0,0,0,3.88-7.17,7.93,7.93,0,1,0-15.84,0,8.38,8.38,0,0,0,3.87,7.17l1.8,1.14v24.42H162.4A18.57,18.57,0,0,1,143.85,304V111A18.57,18.57,0,0,1,162.4,92.48H180V81.14a15.3,15.3,0,0,1-5.28-11.66,14.88,14.88,0,1,1,29.74,0,15.3,15.3,0,0,1-5.28,11.66V92.48h17.6A18.56,18.56,0,0,1,235.33,111v24.54l14.54,14.54,7.18-7.17a15.56,15.56,0,0,1,14.53-16.52c.21,0,.43,0,.64,0a14.58,14.58,0,0,1,10.67,4.26A15.08,15.08,0,0,1,282.6,152h0a15.37,15.37,0,0,1-12,4.52l-7.18,7.18,14.86,14.87a15.14,15.14,0,0,1,.07,21.32c-.63.68-9.81,10.82-19.49,28.24a192.43,192.43,0,0,0-23.54,76.09A18.57,18.57,0,0,1,216.78,322.55Zm-17.49-7.75h17.49a10.82,10.82,0,0,0,10.8-10.8v-.33a200.2,200.2,0,0,1,24.63-79.57c10.44-18.7,20.1-29.13,20.5-29.56l.09-.1a7.36,7.36,0,0,0,0-10.41l0,0-20.34-20.34L268,148.13l2.08.46a7.56,7.56,0,0,0,7.05-2.1,7.34,7.34,0,0,0,.29-10.36,7,7,0,0,0-5-2,7.7,7.7,0,0,0-5.33,2.3,7.58,7.58,0,0,0-2.1,7l.46,2.08-15.53,15.54-20.35-20.34a5,5,0,0,0-.54-.49l-1.41-1.16V111a10.81,10.81,0,0,0-10.8-10.79H191.43V77.07l1.8-1.14a7.54,7.54,0,0,0,3.49-6.45,7.13,7.13,0,1,0-14.24,0A7.55,7.55,0,0,0,186,75.93l1.81,1.14v23.16H162.4A10.81,10.81,0,0,0,151.6,111V304a10.82,10.82,0,0,0,10.8,10.8h16.88V302.22a16.14,16.14,0,0,1-5.67-12.4,15.68,15.68,0,1,1,31.35,0,16.14,16.14,0,0,1-5.67,12.4Z"/>
  </g>
</svg>
