<svg width="400" height="400" viewBox="0 0 400 400" fill="none" xmlns="http://www.w3.org/2000/svg">
<path d="M200 400C310.457 400 400 310.457 400 200C400 89.5431 310.457 0 200 0C89.5431 0 0 89.5431 0 200C0 310.457 89.5431 400 200 400Z" fill="#0A0839"/>
<g clip-path="url(#clip0)">
<path d="M326.926 247.847C317.807 254.607 304.982 252.686 298.285 243.579C291.517 234.472 293.44 221.665 302.56 214.977C311.679 208.218 324.504 210.139 331.201 219.246C337.969 228.282 336.046 241.088 326.926 247.847Z" fill="#F14A3B"/>
<path d="M317.165 190.075C311.038 192.28 304.555 193.419 298 193.348C290.804 193.348 283.751 191.925 277.053 189.15C270.142 186.304 263.944 182.177 258.672 176.841C253.4 171.505 249.267 165.315 246.489 158.342C243.781 151.655 242.499 144.611 242.499 137.425C242.499 130.239 243.924 123.195 246.702 116.507C249.552 109.606 253.684 103.416 259.028 98.1507C264.372 92.8857 270.57 88.7591 277.552 85.9843C284.249 83.2807 291.303 82 298.499 82C305.695 82 312.748 83.423 319.445 86.1978C326.356 89.0437 332.555 93.1703 337.827 98.5065L315.455 120.634C310.896 116.009 304.84 113.448 298.356 113.448C291.873 113.448 285.817 115.938 281.186 120.491C276.555 125.045 273.99 131.093 273.99 137.567C273.99 144.042 276.483 150.089 281.043 154.714C285.603 159.339 291.659 161.9 298.143 161.9C304.626 161.9 310.682 159.41 315.313 154.856C319.944 150.303 322.509 144.255 322.509 137.781L354 137.923C354 145.109 352.575 152.153 349.796 158.841C346.947 165.742 342.814 171.932 337.471 177.197C332.127 182.462 325.929 186.588 318.947 189.363C318.377 189.648 317.807 189.861 317.165 190.075Z" fill="#44DBA4"/>
<path d="M240.433 314.656C238.509 315.368 236.514 315.937 234.519 316.435C227.466 318.142 220.198 318.498 212.931 317.36C205.735 316.292 198.896 313.873 192.626 310.174C186.143 306.332 180.514 301.28 176.025 295.232C166.265 281.999 162.702 265.279 166.336 249.27L198.183 256.528C196.687 263.216 198.112 270.259 202.244 275.809C206.02 280.86 211.506 284.204 217.776 285.129C224.046 286.054 230.244 284.489 235.374 280.718C240.433 276.947 243.781 271.469 244.707 265.208C245.634 258.947 244.066 252.757 240.29 247.634C240.219 247.492 240.076 247.421 240.005 247.278C236.941 243.365 232.667 240.163 218.56 236.748C195.618 231.128 178.662 210.637 176.88 187.015C176.88 186.66 176.809 186.304 176.809 185.948C176.168 175.205 178.662 164.532 183.863 155.212C188.992 146.105 196.473 138.634 205.593 133.583L221.481 162.042C217.634 164.177 214.499 167.307 212.361 171.149C210.153 175.062 209.155 179.545 209.369 184.027C209.369 184.169 209.369 184.312 209.369 184.454C210.081 194.273 216.85 203.664 227.608 206.581C238.01 209.427 243.924 210.21 251.405 214.336C258.244 218.036 262.519 222.661 265.796 227.357C266.01 227.641 266.224 227.926 266.438 228.21C270.926 234.329 274.132 241.088 275.913 248.417C277.623 255.46 277.98 262.718 276.84 269.975C275.771 277.161 273.349 283.991 269.644 290.252C265.796 296.727 260.738 302.347 254.682 306.83C250.336 310.245 245.491 312.806 240.433 314.656Z" fill="white"/>
<path d="M144.249 163.892C135.557 152.224 122.875 144.611 108.555 142.405C99.5064 141.053 90.458 141.978 82.0509 145.038C77.1349 146.816 72.4326 149.307 68.0865 152.508C56.402 161.188 48.7786 173.853 46.57 188.154C44.4326 202.526 47.9949 216.827 56.687 228.566C65.3791 240.306 78.0611 247.847 92.3817 250.053C106.774 252.188 121.094 248.63 132.85 239.95C144.534 231.27 152.158 218.605 154.366 204.304C156.504 189.932 152.941 175.56 144.249 163.892Z" fill="#FCB70F"/>
</g>
<defs>
<clipPath id="clip0">
<rect width="308" height="236" fill="white" transform="translate(46 82)"/>
</clipPath>
</defs>
</svg>
