<svg xmlns="http://www.w3.org/2000/svg" viewBox="0 0 323.32 323.32"><defs><style>.cls-1{fill:#f5f5f5;}.cls-2{fill:#f1ca1b;}.cls-3{fill:#222;}.cls-4{fill:#222221;}.cls-5{fill:#eab81f;}.cls-6,.cls-8{fill:none;}.cls-7{fill:#fff;}.cls-8{stroke:#fff;stroke-linecap:round;stroke-linejoin:round;stroke-width:0;}.cls-9{fill:#c53335;}</style></defs><g id="Layer_2" data-name="Layer 2"><g id="Layer_1-2" data-name="Layer 1"><circle class="cls-1" cx="161.66" cy="161.66" r="156.66" transform="translate(-66.96 161.66) rotate(-45)"/><path class="cls-2" d="M161.66,10A151.66,151.66,0,0,1,268.9,268.9,151.66,151.66,0,0,1,54.42,54.42,150.68,150.68,0,0,1,161.66,10m0-10A161.66,161.66,0,1,0,323.32,161.66,161.66,161.66,0,0,0,161.66,0Z"/><circle class="cls-2" cx="161.66" cy="161.66" r="107.92"/><path class="cls-3" d="M80.35,59.08a4.06,4.06,0,0,1,1,3.52A6.59,6.59,0,0,1,79,66.28a9.92,9.92,0,0,1-4,2.17l-2-2.33a18.08,18.08,0,0,0,2.68-1A7.9,7.9,0,0,0,77.36,64a2.9,2.9,0,0,0,1-1.4A1.43,1.43,0,0,0,78,61.32a1.37,1.37,0,0,0-.73-.45,2.81,2.81,0,0,0-1,0,18.74,18.74,0,0,0-2.22.51,8.86,8.86,0,0,1-2.47.42,4.77,4.77,0,0,1-1.8-.35,4.2,4.2,0,0,1-1.58-1.17,4,4,0,0,1-1-3.39,5.76,5.76,0,0,1,2.17-3.42,9.27,9.27,0,0,1,1.94-1.3,17.2,17.2,0,0,1,2.28-.89l.87,2.65a15.61,15.61,0,0,0-2,.8,6.72,6.72,0,0,0-1.35.89,2.16,2.16,0,0,0-.81,1.28,1.45,1.45,0,0,0,.37,1.19,1.33,1.33,0,0,0,.65.44,2.13,2.13,0,0,0,.9.06,20.75,20.75,0,0,0,2.3-.54,8.33,8.33,0,0,1,3.64-.36A4.12,4.12,0,0,1,80.35,59.08Z"/><path class="cls-3" d="M93.3,45.82a8.52,8.52,0,0,1,1.71,6,7.15,7.15,0,0,1-3.42,4.79A7.13,7.13,0,0,1,85.85,58a8.48,8.48,0,0,1-4.91-3.9,8.33,8.33,0,0,1-1.71-6,7.21,7.21,0,0,1,3.45-4.78,7.11,7.11,0,0,1,5.72-1.34A8.48,8.48,0,0,1,93.3,45.82Zm-9.47,6.33a6.48,6.48,0,0,0,3,2.72,3.46,3.46,0,0,0,3.21-.55q3.28-2.19.36-6.57t-6.2-2.19a3.52,3.52,0,0,0-1.74,2.76A6.52,6.52,0,0,0,83.83,52.15Z"/><path class="cls-3" d="M101.08,50.55l-7-13.93,3-1.49,5.79,11.49,5.65-2.84,1.23,2.43Z"/><path class="cls-3" d="M112.93,44.92,107.1,30.45l3.07-1.24L116,43.69Z"/><path class="cls-3" d="M130.52,30.7a7.68,7.68,0,0,1-.46,6.28,8.91,8.91,0,0,1-5.5,3.74L120.32,42,116,27l4.7-1.37a8.29,8.29,0,0,1,6.26.27A7.46,7.46,0,0,1,130.52,30.7Zm-3.28,1c-.94-3.21-2.82-4.41-5.67-3.58l-1.69.5,2.85,9.75,1.36-.4Q128.68,36.67,127.24,31.74Z"/><path class="cls-3" d="M145.43,36.14l-8.87,1.48L134,22.23l8.86-1.48.45,2.68-5.6.93.57,3.38,5.21-.87.44,2.67-5.21.87.67,4,5.6-.93Z"/><path class="cls-3" d="M149.36,35.72l-1-15.57,3.3-.21.81,12.85,6.32-.4.17,2.72Z"/><path class="cls-3" d="M171.4,35.48l-9-.34L163,19.55l9,.34-.1,2.71-5.67-.22-.14,3.42,5.28.21-.1,2.71L166,28.51l-.15,4,5.67.22Z"/><path class="cls-3" d="M183.77,23.87a3.38,3.38,0,0,0-3.07,1,6.54,6.54,0,0,0-1.58,3.72q-.76,5.16,3.11,5.73a12.23,12.23,0,0,0,4.06-.23l-.4,2.75a11.09,11.09,0,0,1-4.36.16,6.52,6.52,0,0,1-4.85-2.8,8.72,8.72,0,0,1-.92-6.13A9.6,9.6,0,0,1,177.25,24a6.44,6.44,0,0,1,2.93-2.41,7.62,7.62,0,0,1,4-.4,10.49,10.49,0,0,1,4.36,1.76l-1.45,2.5a18.38,18.38,0,0,0-1.63-1A5.28,5.28,0,0,0,183.77,23.87Z"/><path class="cls-3" d="M195.52,39.78l-3.19-.85,3.26-12.42-4.09-1.08.7-2.66,11.39,3-.7,2.66-4.1-1.08Z"/><path class="cls-3" d="M202.6,42l5.25-14.7L211,28.38l-5.24,14.7Z"/><path class="cls-3" d="M226.26,43.68A8.47,8.47,0,0,1,222,48.22,8.32,8.32,0,0,1,212,43.46a8.51,8.51,0,0,1,.85-6.21,8.35,8.35,0,0,1,4.3-4.54,7.23,7.23,0,0,1,5.87.53,7.13,7.13,0,0,1,4.07,4.24A8.54,8.54,0,0,1,226.26,43.68ZM216,38.76a6.51,6.51,0,0,0-.81,4,3.5,3.5,0,0,0,2.11,2.48q3.57,1.71,5.84-3t-1.28-6.45a3.49,3.49,0,0,0-3.26-.09A6.5,6.5,0,0,0,216,38.76Z"/><path class="cls-3" d="M237.66,60.34,234.17,58l.92-13.58-.08-.05q-1.57,2.72-2.31,3.82l-4.09,6.1-2.45-1.65,8.68-13L238.3,42l-.87,13.48.07,0c1-1.74,1.79-3,2.26-3.66l4.1-6.14,2.48,1.66Z"/><path class="cls-3" d="M251,66a4,4,0,0,1-3.33,1.52,6.56,6.56,0,0,1-4-1.84,10,10,0,0,1-2.73-3.6l2-2.32a18.89,18.89,0,0,0,1.37,2.49,7.9,7.9,0,0,0,1.33,1.53,2.93,2.93,0,0,0,1.54.78,1.46,1.46,0,0,0,1.25-.56,1.38,1.38,0,0,0,.34-.79,3.18,3.18,0,0,0-.12-1,21.33,21.33,0,0,0-.84-2.12,9.38,9.38,0,0,1-.78-2.38,5,5,0,0,1,.07-1.84,4.32,4.32,0,0,1,.93-1.73,4,4,0,0,1,3.19-1.54,5.83,5.83,0,0,1,3.71,1.63A8.84,8.84,0,0,1,256.5,56a15.57,15.57,0,0,1,1.22,2.12l-2.49,1.25a15.59,15.59,0,0,0-1.09-1.89,6.63,6.63,0,0,0-1.09-1.2,2.12,2.12,0,0,0-1.37-.61,1.52,1.52,0,0,0-1.47,1.24,2.21,2.21,0,0,0,.07.9,22.78,22.78,0,0,0,.88,2.2,8.44,8.44,0,0,1,.9,3.55A4.14,4.14,0,0,1,251,66Z"/><path class="cls-2" d="M161.66,50.13A111.53,111.53,0,1,1,82.8,82.8a110.83,110.83,0,0,1,78.86-32.67m0-10A121.53,121.53,0,1,0,283.18,161.66,121.52,121.52,0,0,0,161.66,40.13Z"/><path class="cls-4" d="M277.6,230.67a2.72,2.72,0,0,1-1.43-2,4.46,4.46,0,0,1,.73-2.88,6.73,6.73,0,0,1,2.05-2.26l1.79,1a13,13,0,0,0-1.49,1.23,5.12,5.12,0,0,0-.84,1.06,1.93,1.93,0,0,0-.33,1.12,1,1,0,0,0,.52.76,1,1,0,0,0,.57.13,2,2,0,0,0,.65-.21,13.45,13.45,0,0,0,1.31-.82,6.41,6.41,0,0,1,1.48-.81,3.2,3.2,0,0,1,1.22-.18,2.89,2.89,0,0,1,1.27.4,2.73,2.73,0,0,1,1.42,1.93,4,4,0,0,1-.63,2.66,6,6,0,0,1-.95,1.25,9.85,9.85,0,0,1-1.26,1.08l-1.14-1.5a9.7,9.7,0,0,0,1.12-1,4.16,4.16,0,0,0,.66-.87,1.36,1.36,0,0,0,.24-1,.94.94,0,0,0-.5-.68.9.9,0,0,0-.51-.14,1.34,1.34,0,0,0-.59.16,12.49,12.49,0,0,0-1.35.85,5.68,5.68,0,0,1-2.24,1A2.76,2.76,0,0,1,277.6,230.67Z"/><path class="cls-4" d="M273.7,231.3l8.8,5.77-1.23,1.87-8.79-5.77Z"/><path class="cls-4" d="M268.05,239.41l8.09,3,0,0c-1.39-1-2.31-1.59-2.75-1.94l-3.88-3,1.21-1.58,8.35,6.41-1.85,2.41-7.9-2.93,0,0,4.78,7-1.85,2.41-8.35-6.41,1.27-1.65,3.95,3,.64.5c.24.19.86.72,1.88,1.57l0-.05L266.8,241Z"/><path class="cls-4" d="M262.18,257.4a3.26,3.26,0,0,1-1.19-2.54,4.57,4.57,0,0,1,1.39-2.83l.65-.71-2.75-2.53,1.51-1.64,7.74,7.13-2.28,2.47a4.45,4.45,0,0,1-2.58,1.58A3,3,0,0,1,262.18,257.4Zm2.19-4.84-.49.54a2.45,2.45,0,0,0-.75,1.41,1.42,1.42,0,0,0,.52,1.18,1.49,1.49,0,0,0,1.14.47,2,2,0,0,0,1.19-.73l.69-.75Z"/><path class="cls-4" d="M255.05,254.26l7.22,7.66-1.62,1.53-5.95-6.32-3.11,2.93-1.26-1.34Z"/><path class="cls-4" d="M248.46,260.29l6.8,8-1.71,1.44-6.79-8Z"/><path class="cls-4" d="M242.49,265.13l1.75-1.32,6.36,8.38-4.81,3.64-1.1-1.45,3.06-2.32-1.64-2.16-2.85,2.16-1.1-1.45,2.84-2.16Z"/><path class="cls-4" d="M238,275.92l.54,4.83-2,1.32-.6-7.29-2.25-3.43,1.86-1.21,2.2,3.36,6.48,3.53-2,1.32Z"/><path class="cls-4" d="M229,274.2l5.26,9.11-1.94,1.12-5.25-9.12Z"/><path class="cls-4" d="M215.93,281l2.55-1.25,7.61,5.14,0,0c-.69-1.22-1.18-2.1-1.44-2.64l-2.18-4.45,1.79-.88,4.63,9.46-2.53,1.23-7.57-5.07,0,0c.66,1.2,1.12,2.05,1.37,2.56l2.19,4.48-1.8.88Z"/><path class="cls-4" d="M211.39,289.21l-3.9,1.49-2-5.09a12.84,12.84,0,0,1,1.62-1.12,14.85,14.85,0,0,1,1.66-.78,4.67,4.67,0,0,1,3.9,0,5.8,5.8,0,0,1,2.61,3.31,5.28,5.28,0,0,1,.06,4.23,5.52,5.52,0,0,1-3.26,2.77,7.67,7.67,0,0,1-3.15.51l.05-1.93a5.2,5.2,0,0,0,2.45-.32,2.93,2.93,0,0,0,1.81-1.73,3.77,3.77,0,0,0-.12-2.75,4.25,4.25,0,0,0-1.59-2.2,2.44,2.44,0,0,0-2.23-.11,8,8,0,0,0-1.27.64l.79,2.05,1.86-.71Z"/><path class="cls-4" d="M192.32,289l5.86-1.53,2.67,10.18L195,299.13l-.47-1.76,3.71-1-.59-2.24-3.45.9-.46-1.77,3.45-.9-.69-2.62-3.7,1Z"/><path class="cls-4" d="M189.62,289.55l2,10.34-2.19.42-1.63-8.53-4.19.8-.35-1.81Z"/><path class="cls-4" d="M174.85,291.85l6-.74,1.28,10.45-6,.74-.23-1.82,3.8-.47-.28-2.29-3.53.44-.23-1.82,3.54-.43-.33-2.7-3.8.47Z"/><path class="cls-4" d="M168.1,301.13a2.27,2.27,0,0,0,1.9-1,4.39,4.39,0,0,0,.55-2.67c-.12-2.35-1.06-3.47-2.82-3.38a8.45,8.45,0,0,0-2.65.69l-.1-1.86a7.3,7.3,0,0,1,2.86-.69,4.41,4.41,0,0,1,3.58,1.2,5.91,5.91,0,0,1,1.43,3.93,6.54,6.54,0,0,1-.45,2.9,4.22,4.22,0,0,1-1.61,2,5.08,5.08,0,0,1-2.59.8,7.09,7.09,0,0,1-3.11-.58l.62-1.85a11.67,11.67,0,0,0,1.21.43A3.5,3.5,0,0,0,168.1,301.13Z"/><path class="cls-4" d="M158.11,292.42l2.24,0-.16,8.66,2.86.05,0,1.86-7.94-.15,0-1.85,2.86.05Z"/><path class="cls-4" d="M153,292.19l-.76,10.49-2.22-.16.76-10.5Z"/><path class="cls-4" d="M137.42,295.71a5.66,5.66,0,0,1,1.84-3.8,5.61,5.61,0,0,1,7.35,1,6.88,6.88,0,0,1-1.11,8,4.9,4.9,0,0,1-3.88.86,4.82,4.82,0,0,1-3.48-1.9A5.71,5.71,0,0,1,137.42,295.71Zm7.6,1.06a4.37,4.37,0,0,0-.29-2.73,2.36,2.36,0,0,0-1.86-1.16c-1.76-.24-2.81.81-3.13,3.15s.38,3.64,2.13,3.89a2.38,2.38,0,0,0,2.12-.61A4.37,4.37,0,0,0,145,296.77Z"/><path class="cls-4" d="M126.41,287.82l2.76.65,2.63,8.8.06,0c.23-1.39.42-2.38.56-3l1.14-4.82,1.94.46-2.42,10.24-2.74-.65-2.64-8.72h0c-.24,1.35-.43,2.3-.56,2.85L126,298.52l-2-.46Z"/><path class="cls-4" d="M109.79,289.85a3.19,3.19,0,0,1,1.89-2.07,4.52,4.52,0,0,1,3.14.19l.9.33,1.28-3.52,2.1.77-3.61,9.88-3.16-1.15a4.47,4.47,0,0,1-2.45-1.78A3,3,0,0,1,109.79,289.85Zm5.3.16-.69-.25a2.44,2.44,0,0,0-1.58-.14,1.4,1.4,0,0,0-.89.93,1.48,1.48,0,0,0,0,1.24,2,2,0,0,0,1.14.81l1,.35Z"/><path class="cls-4" d="M106.22,284.83l1.67-3.68,2,.93-4.35,9.58-2.8-1.27a5.21,5.21,0,0,1-2.56-2,2.79,2.79,0,0,1,0-2.59,2.84,2.84,0,0,1,1.15-1.29,3.33,3.33,0,0,1,1.78-.43q-.69-4.21-.92-5.46l2.26,1,.61,4.71Zm-.74,1.65-.66-.3a2.81,2.81,0,0,0-1.57-.32,1.25,1.25,0,0,0-.91.8,1.15,1.15,0,0,0,0,1.18,3.16,3.16,0,0,0,1.32,1l.62.28Z"/><path class="cls-4" d="M89.73,277.69a5.68,5.68,0,0,1,3.09-2.87,5.62,5.62,0,0,1,6.48,3.63,5.79,5.79,0,0,1-.84,4.15,5.7,5.7,0,0,1-3.1,2.87,4.86,4.86,0,0,1-3.92-.62,4.79,4.79,0,0,1-2.56-3A5.71,5.71,0,0,1,89.73,277.69Zm6.69,3.75a4.33,4.33,0,0,0,.72-2.64A2.37,2.37,0,0,0,95.83,277c-1.55-.87-2.91-.27-4.06,1.79s-1,3.54.57,4.4a2.34,2.34,0,0,0,2.19.2A4.31,4.31,0,0,0,96.42,281.44Z"/><path class="cls-4" d="M81.39,276.41a2.3,2.3,0,0,0,2.15.31,4.48,4.48,0,0,0,2-1.8q2-2.91-.22-4.4a8.38,8.38,0,0,0-2.54-1l1-1.55a7.6,7.6,0,0,1,2.7,1.17,4.41,4.41,0,0,1,2.13,3.12,5.93,5.93,0,0,1-1.23,4,6.45,6.45,0,0,1-2.1,2,4.28,4.28,0,0,1-2.49.61,5.05,5.05,0,0,1-2.54-.92,7.13,7.13,0,0,1-2.14-2.34l1.62-1.1a9.92,9.92,0,0,0,.71,1.07A3.34,3.34,0,0,0,81.39,276.41Z"/><path class="cls-4" d="M77.09,262.19l4.77,3.74-6.49,8.28-4.77-3.73L71.73,269l3,2.36,1.42-1.82-2.81-2.2,1.13-1.44,2.81,2.2L79,266l-3-2.36Z"/><path class="cls-4" d="M64.9,258.51a5.17,5.17,0,0,1,3.78-1.94,6,6,0,0,1,4.09,1.86l2.2,2-7.1,7.77L65.43,266a5.6,5.6,0,0,1-2-3.7A5.07,5.07,0,0,1,64.9,258.51ZM66.66,260c-1.53,1.67-1.55,3.18-.08,4.52l.88.8,4.62-5.06-.71-.64Q69,257.48,66.66,260Z"/><path class="cls-4" d="M53.08,253.48l5-4.62a3.87,3.87,0,0,1,1.86-1,3.35,3.35,0,0,1,2,.2,5.38,5.38,0,0,1,1.92,1.39,4.44,4.44,0,0,1,1.37,3,3.64,3.64,0,0,1-1.33,2.75l-5,4.6-1.51-1.64,4.74-4.36a2.76,2.76,0,0,0,1-1.57,2.06,2.06,0,0,0-.68-1.58,2,2,0,0,0-1.5-.78,2.73,2.73,0,0,0-1.65.85l-4.73,4.36Z"/><path class="cls-4" d="M54.28,244.68l3.18-2.48L58.84,244l-8.3,6.48L48.66,248a5.25,5.25,0,0,1-1.34-3,2.8,2.8,0,0,1,1.23-2.27,2.75,2.75,0,0,1,1.62-.61,3.29,3.29,0,0,1,1.78.44c.89-2.71,1.47-4.46,1.71-5.26l1.53,1.95-1.64,4.46Zm-1.43,1.12-.44-.57a2.79,2.79,0,0,0-1.24-1,1.25,1.25,0,0,0-1.18.29,1.16,1.16,0,0,0-.53,1.06,3.21,3.21,0,0,0,.73,1.45l.42.54Z"/><path class="cls-4" d="M49.24,230.72l3.38,5-8.74,5.87-3.38-5,1.52-1,2.13,3.18,1.92-1.29-2-3,1.51-1,2,3,2.25-1.51-2.13-3.18Z"/><path class="cls-4" d="M42.14,224.46a2.77,2.77,0,0,1,2.46-.24,4.47,4.47,0,0,1,2.14,2.06,6.65,6.65,0,0,1,.95,2.9l-1.79,1a12.48,12.48,0,0,0-.33-1.89,5.1,5.1,0,0,0-.51-1.27,1.85,1.85,0,0,0-.81-.83.94.94,0,0,0-.91.08.9.9,0,0,0-.39.43,1.79,1.79,0,0,0-.15.67,11,11,0,0,0,.07,1.54,6.4,6.4,0,0,1,0,1.68,3.17,3.17,0,0,1-.46,1.16A3,3,0,0,1,39,233a4,4,0,0,1-2-1.86,6.6,6.6,0,0,1-.62-1.46,10.4,10.4,0,0,1-.3-1.62l1.86-.25a9.33,9.33,0,0,0,.28,1.45,4.77,4.77,0,0,0,.42,1,1.48,1.48,0,0,0,.75.69,1,1,0,0,0,.83-.09,1,1,0,0,0,.38-.38,1.54,1.54,0,0,0,.15-.59,14.36,14.36,0,0,0-.07-1.59,5.51,5.51,0,0,1,.21-2.46A2.73,2.73,0,0,1,42.14,224.46Z"/><path class="cls-4" d="M288.07,211l-2.79-1.1c.82-2.09,1.6-4.23,2.31-6.36l2.85.95C289.71,206.65,288.91,208.84,288.07,211ZM292,199.65l-2.88-.85c.93-3.14,1.74-6.37,2.43-9.58l2.94.63C293.73,193.13,292.9,196.43,292,199.65Zm3.45-14.77-3-.51c.57-3.23,1-6.53,1.34-9.8l3,.29C296.44,178.21,296,181.58,295.4,184.88Zm1.77-15.06-3-.18c.17-2.75.25-5.54.25-8.29,0-.53,0-1.06,0-1.6l3,0c0,.54,0,1.08,0,1.63C297.43,164.16,297.35,167,297.17,169.82Zm-2.9-15c-.16-3.28-.44-6.59-.84-9.84l3-.37c.41,3.33.7,6.71.86,10.07Zm-1.53-14.73c-.52-3.24-1.18-6.5-1.94-9.69l2.92-.7c.78,3.27,1.45,6.6,2,9.91Zm-3.18-14.47c-.88-3.17-1.89-6.33-3-9.42l2.82-1c1.14,3.16,2.18,6.39,3.08,9.63Zm-4.78-14c-1.23-3-2.59-6.08-4-9l2.69-1.33c1.49,3,2.88,6.11,4.15,9.22Zm-6.32-13.4c-1.56-2.88-3.25-5.75-5-8.51L276,88.05c1.82,2.82,3.55,5.75,5.15,8.7Zm-7.78-12.62c-1.87-2.69-3.88-5.35-5.95-7.9l2.33-1.89c2.12,2.61,4.17,5.32,6.08,8.07Z"/><path class="cls-4" d="M35.24,211c-1.23-3.13-2.35-6.34-3.34-9.54l2.87-.89c1,3.13,2.06,6.27,3.27,9.33Zm-4.74-14.4c-.87-3.24-1.62-6.56-2.24-9.85l2.94-.56c.61,3.22,1.35,6.46,2.2,9.64Zm-3.09-14.84c-.5-3.31-.88-6.69-1.14-10l3-.23c.24,3.28.62,6.59,1.11,9.83ZM26,166.65c-.07-1.75-.1-3.54-.1-5.3,0-1.61,0-3.23.08-4.81l3,.11c-.06,1.54-.08,3.12-.08,4.7s0,3.47.1,5.19Zm3.24-14.94-3-.22c.24-3.35.61-6.74,1.1-10.05l3,.43C29.83,145.12,29.47,148.42,29.23,151.71ZM31.12,137l-2.95-.55c.61-3.31,1.35-6.63,2.21-9.87l2.9.77C32.44,130.52,31.72,133.76,31.12,137Zm3.52-14.41-2.87-.87c1-3.21,2.09-6.43,3.31-9.56l2.79,1.09C36.68,116.31,35.59,119.45,34.64,122.59Zm5.11-13.91L37,107.49c1.33-3.08,2.79-6.15,4.36-9.13L44,99.76C42.48,102.67,41.05,105.67,39.75,108.68Zm6.64-13.26-2.6-1.49c1.67-2.91,3.47-5.8,5.35-8.58L51.63,87C49.79,89.75,48,92.57,46.39,95.42ZM54.47,83l-2.42-1.77c1.35-1.84,2.77-3.68,4.21-5.45l2.33,1.89C57.18,79.4,55.79,81.19,54.47,83Z"/><path class="cls-5" d="M180,106.42a8.82,8.82,0,0,0-7.62.72L153.56,79.5a5.66,5.66,0,1,0-8.9-6.34,5.59,5.59,0,0,0-.18,3.35L116.9,86.15a8.84,8.84,0,1,0-13.47,10.46L74.3,140.37a5.66,5.66,0,1,0,.49,9.64l22.86,27.76a8.75,8.75,0,0,0-2.31,3.43,8.84,8.84,0,0,0,12.72,10.72l25.71,39.21a8.85,8.85,0,1,0,8.78-1l17.55-47.54a5.85,5.85,0,0,0,1.83.2,5.67,5.67,0,0,0,1.49-11l11.91-48.37a8.84,8.84,0,0,0,4.69-17Zm-24.09,70.9-43.59,5.37a8.87,8.87,0,0,0-4.85-6.39l16.09-38.79a5.75,5.75,0,0,0,2,.25,5.65,5.65,0,0,0,2.81-.95l29.23,36.25A5.6,5.6,0,0,0,155.93,177.32Zm-31-50.87a6.21,6.21,0,0,0-1.23.22L122.27,123,112.4,97.58a8.82,8.82,0,0,0,4.44-4.52l51.67,19.07a8.81,8.81,0,0,0-.07,4.93l-38,12.78A5.66,5.66,0,0,0,124.93,126.45Zm19.88-49a5.66,5.66,0,0,0,7.92,2.61l18.85,27.65a8.77,8.77,0,0,0-2.72,3.48L117.19,92.12a8.88,8.88,0,0,0,0-5ZM104.26,97.16a9.1,9.1,0,0,0,1.41.67,8.82,8.82,0,0,0,5.8.11L122.77,127a5.68,5.68,0,0,0-3.15,5.42c0,.18,0,.35.06.52L77,143.51a5.67,5.67,0,0,0-1.82-2.58Zm-28.7,52.21A5.6,5.6,0,0,0,77.24,145c0-.17,0-.34,0-.51l42.73-10.54a5.66,5.66,0,0,0,2.74,3.18l-16.1,38.8a8.82,8.82,0,0,0-8.14,1.21Zm66.05,80.42a8.77,8.77,0,0,0-7,.79L108.9,191.37a8.79,8.79,0,0,0,3-4,8.92,8.92,0,0,0,.52-3.65l43.59-5.36a5.68,5.68,0,0,0,3.11,3.93Zm20.84-58.25a4.87,4.87,0,0,0-1.21-.06,5.58,5.58,0,0,0-2.8,1l-29.23-36.25a5.63,5.63,0,0,0,1.72-4.42,5.4,5.4,0,0,0-.15-1l38-12.78a8.84,8.84,0,0,0,5.14,5l.46.14Z"/><path class="cls-6" d="M262.14,127.63l.31,6.05c.42,8.11.91,9.12,4.24,8.65a6.22,6.22,0,0,1,1.14-.1,107.56,107.56,0,0,0-4.15-15.85,8.72,8.72,0,0,0-.82.61Z"/><path class="cls-6" d="M158.27,118.21V118A.4.4,0,0,0,158.27,118.21Z"/><path class="cls-6" d="M263.63,146.1c-.82.16-1.46.44-1.45.65.05,1.14,2.18,2.59,3.68,2.53a6.45,6.45,0,0,0,2.87-1.23c-.22-1.71-.47-3.4-.77-5.08C267.47,144.49,265.86,145.67,263.63,146.1Z"/><path class="cls-6" d="M263.91,154.17l-1.53.43.11,2.3c.12,2.78.9,4,3.07,4.87,1.35.52,1.39.56.91,1.14-1.17,1.42-4.57,1.77-7,.74-1.16-.49-1.2-.48-1.86.18a9.87,9.87,0,0,1-6,2.62c-1.35.11-2.12.3-2.11.52a61.3,61.3,0,0,0,7.79,3.78,105.62,105.62,0,0,1,11.34,5.63,109.94,109.94,0,0,0,1-14.72,107.93,107.93,0,0,0-.54-10.84A11.6,11.6,0,0,1,263.91,154.17Z"/><path class="cls-6" d="M164.76,269.53c-.8-1.18-.92-1.65-1-3.8s0-2.7.56-3.69l.66-1.2,1.34,1A9,9,0,0,0,173,263.5c3.59-.44,6.38-2.47,11.28-8.22,1.74-2,4-4.84,5.07-6.28,2.18-3,5.2-6,7-7.11a17.37,17.37,0,0,0,1.6-1.06,22.83,22.83,0,0,1,5.11-2.06,72.16,72.16,0,0,1,9.19-1.15,86.57,86.57,0,0,0,8.8-1c2.3-.72,3.42-1.71,7.22-6.37a64,64,0,0,1,8.74-9.14,34.7,34.7,0,0,1,14-7.26,48.62,48.62,0,0,1,5.13-.73l.49,0q.69-1.28,1.35-2.58a37.07,37.07,0,0,0-3.86-3.47,18.46,18.46,0,0,0-8.26-3.61c-1.65-.37-4.25-1.11-5.8-1.66a15.26,15.26,0,0,0-4.85-1c-2,0-4.16-.66-8.09-2.36a17.1,17.1,0,0,0-2.49-.88l-.87-.17.3,2a17.65,17.65,0,0,1-1.51,9.62c-.64,1.31-1.64,3.51-2.24,4.88s-1.17,2.37-1.27,2.22c-.32-.49-.62-2.1-.9-4.88-.23-2.12-.41-2.86-.83-3.14a2.09,2.09,0,0,0-.73-.35c-.79,0-1.2,1-1.27,3a23.22,23.22,0,0,1-1.39,8.06c-1.48,4-1.86,5.39-1.81,6.79s0,1.35-.56.86a7.64,7.64,0,0,1-1.36-2,6.44,6.44,0,0,1-.63-3.93c.11-2.54-.25-3.74-1.12-3.7-.49,0-.52.19-.5,2.81,0,1.34-.3,2.45-1.42,5.07a24.54,24.54,0,0,0-1.57,4.64c-.08.72-.26,1.3-.4,1.31s-.49-.57-.8-1.3a5.08,5.08,0,0,1-.34-3.31c.13-1.12.35-2.5.49-3.1a1.83,1.83,0,0,0-.23-1.77c-.59-.82-.9-.85-1.53-.17-.36.38-.43,1.18-.34,3.23.11,2.4,0,2.92-.7,4.44-.44.94-1.22,2.54-1.7,3.56l-.88,1.86-.43-.91c-.43-.9-.5-2.05-.31-6,.11-2.45-.51-3.74-1.69-3.51-.52.1-.82.59-1.29,2.17a7.88,7.88,0,0,0-.44,2.78c.3,1.41-1.68,7.09-3.8,10.85a31.63,31.63,0,0,0-1.72,3.47c-.24.65-.57,1.19-.72,1.19-.5,0-.85-2.74-.69-5.36.32-5.74-.12-7.64-1.59-6.89-.83.42-1.3,1.76-1.23,3.41a10.3,10.3,0,0,1-1.92,6,23.24,23.24,0,0,0-3,5.42c-.53,1.26-.8,1.61-1,1.29-.65-1.12-.78-3-.41-5.9s.38-3.07-.25-4a1.94,1.94,0,0,0-1.49-1.07c-.86-.06-.94,0-1.21,1.62a15.36,15.36,0,0,1-1.68,3.33c-2.5,4-3.12,5.76-2.9,8a4.89,4.89,0,0,1,0,1.87c-.57,0-1.89-1.31-2.39-2.43a9.34,9.34,0,0,1-.61-4c0-2.59-.06-2.76-.87-3.51l-.86-.77-1.55.63c-1.77.73-1.89,1.14-.78,2.84a5.21,5.21,0,0,1,.79,3,4.9,4.9,0,0,1-2.4,4.93,12.38,12.38,0,0,1-2.21,1.2c-1,2.57-3,5.79-10.3,7.51a15.38,15.38,0,0,0,3-6.76l.06,0a4.26,4.26,0,0,1-2-1.19c-1-1.51-1.09-1.75-1.25-4.81-.16-2.64-.28-3.25-.72-3.47s-.72,0-1.37.76c-1,1.19-1.1,1.69-1.22,5.52-.08,3.28-.7,4.87-2.26,5.89s-3.36.66-5.38-1l-1.75-1.48a4.23,4.23,0,0,0-.34-.4h0c.11.13.23.26.34.4-.11-.14-.23-.27-.34-.4a30.58,30.58,0,0,0-5.31,7.18c-1.91-5-.61-8.17,1.15-11.84a5.41,5.41,0,0,1-.64-1.57,4,4,0,0,1,.17-1.51c.36-.6,1.5-1.12,3.34-1.54,3.34-.76,5.55-2.9,5-4.8-.65-2.15-2.29-2.11-4.73.11-2.15,2-2.79,2.35-4,2.4a3,3,0,0,1-2.64-2.14c-.18-.6-.39-1.15-.59-1.72a26.6,26.6,0,0,0-9.92.81c.64-3.68,5.27-5.75,9.28-7.11,0-.39.06-.79.11-1.22.65-2.55,1.78-3.73,3.65-3.82a4.87,4.87,0,0,1,2.92,1.48,5.39,5.39,0,0,0,1.65.54c1.39.31,1.53.28,2.14-.37.94-1,.76-2.5-.51-4.24-1.77-2.43-1.57-4.11.73-5.88a9.15,9.15,0,0,1,1-.85c-.64-2.91-2.12-4.75-3.82-7.19,4.37-.47,7.23,1.53,9.64,5.08a9.27,9.27,0,0,0,3.06-.92,3.69,3.69,0,0,1,4.06.61c.89.78,1.06,2.36.44,4.07s-.47,2.29.82,3.19c1.06.73,1.42.79,3.41.67,3.47-.21,5.83-1,9.76-3.09a14.39,14.39,0,0,0,3.41-2.2,1.43,1.43,0,0,1,.73-.42c.45,0,6.78-4.69,9.8-7.23,1.38-1.15,3.58-3.23,4.92-4.62,2.14-2.24,2.36-2.58,2-3.07a28.47,28.47,0,0,1-2.81-5.57c0-1.09-.79-1.21-1.73-.28a24.18,24.18,0,0,1-8.17,5.54,4.28,4.28,0,0,0-2.64,2.33c-2.27,3.63-6.08,5.85-11.82,6.89a12.86,12.86,0,0,1-4.76.18c-4.29-.63-7.72-2.84-9.32-6a11.24,11.24,0,0,1-.23-10.18c.69-1.67,2.56-4.3,3.07-4.32.19,0,.27.78.2,2.1a5.42,5.42,0,0,0,.58,3.48A4.4,4.4,0,0,0,153,199.8a6.33,6.33,0,0,0,3.21,0,4.22,4.22,0,0,0,3.13-2,15,15,0,0,0,2-3.12c.75-1.82,2.89-12,2.64-12.54s-.48-.51-3,.52a37.34,37.34,0,0,1-9.22,2.41l-1.53.07,1.25-1.18a9.18,9.18,0,0,0,1.82-2.4c.58-1.28.67-3.73.13-3.7a8.83,8.83,0,0,0-1.94,1c-4.27,2.67-10.24,2.68-13,0a9.16,9.16,0,0,1-2.44-4.48,20.47,20.47,0,0,0-.44-2.05c-.28-1-.17-1,2.2-.18,2.62.95,4.1.84,5.39-.4.59-.58.88-1.09.71-1.23a12.1,12.1,0,0,0-2.43-.85,8,8,0,0,1-4.88-3.23,6.57,6.57,0,0,1-.49-1,7,7,0,0,1,2.11.34c3.31.79,4.57.59,6.19-1,1-1,1.46-2.48,1.57-4.91s-.17-2.75-1.26-2.09a11.54,11.54,0,0,1-3,.64,8,8,0,0,1-4.11-.31c-2.06-.68-4.73-2.15-4.75-2.62,0-.19.13-.25.32-.15a12.48,12.48,0,0,0,3.12-.33c4.57-.83,6.68-2.89,6.68-6.44,0-3.87-2.5-5.18-5.06-2.67-3,2.93-3.2,3.08-4.56,2.92a6,6,0,0,1-2.06-.62c-.35-.29-.66-.56-1-.82-4.32.42-9.34-2.41-9.43-9a12.42,12.42,0,0,0,7.32,2.63,2.45,2.45,0,0,0-.15-.46L128,139c-.11-1.38,0-1.67.74-2.39s1-.79,2.61-.64c2.73.27,4,0,5.15-.9a2,2,0,0,0,1-1.91c-.09-1.87-.82-2.22-4-1.9-3.47.36-4.36,0-5.59-2.2-1-1.83-1.09-2.43-.53-4.27.22-.67.47-1.32.74-2a22.21,22.21,0,0,0-5.64-7.94c3.7-.65,6.55.84,9.47,2.24a9.41,9.41,0,0,1,1.06-.79c1.54-.79,2.57-.4,3.81,1.42,1.65,2.43,2,2.79,2.74,2.76a1.92,1.92,0,0,0,1.67-1.74,13.84,13.84,0,0,0-1.4-2.85c-1.05-1.79-1.33-2.55-1.22-3.26a4.35,4.35,0,0,1,2.07-3.11,5.6,5.6,0,0,1,.78-.3h0a1,1,0,0,1,.28-.06h0l.3,0,.42,0c-.21-3.28-1.46-5.33-2.47-8.17,4.37.3,7.59,3.85,9.73,7.78l1.92-.1c2.3.19,3.17,1,3.14,3a6.15,6.15,0,0,1-.26,1.92,6,6,0,0,0,.5,3.91c.61.85,1.6.85,2,0a6.49,6.49,0,0,0,.21-2.28c-.06-1.43.06-1.82.75-2.58s.92-.89,2.85-.82l2,.09.41.23h0a45,45,0,0,0,4.67-6.94c1.85,2.44,2,6.4,1.19,10.31l.67.38a4.35,4.35,0,0,0,1.13.61,5,5,0,0,1,1.56,1.42c1.2,1.67.86,2.57-2.22,5.88-2.72,2.92-3.86,4.93-4.32,7.7-.3,1.72-.32,1.53.39,4.8,1.46,6.86,3.59,11,8.58,16.68,2.92,3.35,4.44,4.52,5.81,4.51h1.18l-.22-2.79c-.21-2.48-.16-3,.51-4.59,1.35-3.3,4.37-5.17,8.76-5.41,2.18-.13,2.62,0,3.75.62a14.38,14.38,0,0,1,4.51,4.48l1.23,1.73,1.76-.08a13.48,13.48,0,0,0,10.5-5.75,10.5,10.5,0,0,0,1.44-2.93,23.08,23.08,0,0,1,.54-2.36,13.1,13.1,0,0,0,.28-3.44,5.12,5.12,0,0,0-1-3.47,9,9,0,0,0-2-2,6.2,6.2,0,0,0-5.33-.3,3.18,3.18,0,0,1-1.54.41,15.67,15.67,0,0,1-.31-3.94c-.06-6,.11-7,1.36-8.78.88-1.22.89-1.25.43-3-.26-.94-.6-2.11-.78-2.6-.49-1.39,0-1.9,2.19-2.41a23.15,23.15,0,0,1,3.5-.53,15.15,15.15,0,0,0,6.58-2.09,24.26,24.26,0,0,0,3.49-3.08c3.23-3.38,4-3.84,7.19-4.3,1.49-.22,5.58-.44,9.08-.47s8.73-.19,11.63-.32l.94,0a107.92,107.92,0,1,0-88.68,169.43C162.7,269.58,163.73,269.56,164.76,269.53ZM194.37,126.6c-.05,1.86-1.08,3.38-1.81,5,4.67,3.17,9.44,6.21,11.29,13.21-6.1-5.43-17-4.36-21.63-9.64a12,12,0,0,1-2.73-5.61C177.62,119.57,194.34,114.86,194.37,126.6Z"/><path class="cls-3" d="M244.76,219.46l-.86.39,1.1.16a4.65,4.65,0,0,1,4.24,4.72c.61-.85,1.21-1.71,1.8-2.57a5.11,5.11,0,0,0-.74-1.33A4.76,4.76,0,0,0,244.76,219.46Z"/><path class="cls-3" d="M248.15,217.68l1,.47a6.39,6.39,0,0,1,2.81,2.67c.4-.61.8-1.22,1.19-1.84a4.25,4.25,0,0,0-3.17-1.26Z"/><path class="cls-3" d="M252.44,216.65a7.13,7.13,0,0,1,1.42,1.13l.71-1.2a7.59,7.59,0,0,0-1.51-.23C251.94,216.29,251.88,216.32,252.44,216.65Z"/><path class="cls-3" d="M251,213.83a34.7,34.7,0,0,0-14,7.26,64,64,0,0,0-8.74,9.14c-3.8,4.66-4.92,5.65-7.22,6.37a86.57,86.57,0,0,1-8.8,1,72.16,72.16,0,0,0-9.19,1.15,22.83,22.83,0,0,0-5.11,2.06,17.37,17.37,0,0,1-1.6,1.06c-1.79,1.07-4.81,4.13-7,7.11-1.05,1.44-3.33,4.27-5.07,6.28-4.9,5.75-7.69,7.78-11.28,8.22a9,9,0,0,1-6.67-1.62l-1.34-1-.66,1.2c-.56,1-.66,1.62-.56,3.69s.21,2.62,1,3.8c.59,0,1.18,0,1.76-.06a5.93,5.93,0,0,1-1.38-3.72c-.08-1.67.21-2.49.55-2.49s.88,1,1.09,2.92.39,2.44,1,3.22a107.39,107.39,0,0,0,24-4.09c-.3-.61-.3-1.07.17-1.25.16-.06.62.32,1.09.88,2.12-.65,4.22-1.35,6.28-2.12a8.77,8.77,0,0,1-1.4-2.57,5.09,5.09,0,0,1-.46-2l0,0A5.66,5.66,0,0,1,198.7,260a10.54,10.54,0,0,0,1.78,2.41,108.13,108.13,0,0,0,48.07-36.72c-.37-2-1-2.9-2.55-3.59-2.27-1-5.38-.23-8.06,2.06l-1.81,1.56c-.53.45-6.68,6.44-7,6.83-.09.1-.61.58-1.15,1.08-1.12,1-1.84,1.21-1.24.35.21-.31,2.46-2.79,5-5.53,7-7.54,10.55-10.26,16.53-12.64,2.65-1.05,3.18-1.16,6.75-1.32l.82,0c.26-.46.52-.91.77-1.38l-.49,0A48.62,48.62,0,0,0,251,213.83ZM210.3,240a41.37,41.37,0,0,0-11,3.65c-3.46,1.89-7.23,6.23-10.1,10.06s-6.09,7.44-7.43,8.4a8.94,8.94,0,0,1-1.84,1c-.75.23-.75.21.13-.62a64,64,0,0,0,7.67-9.07c6.25-8.53,10.28-11.77,16.36-13.12a50.79,50.79,0,0,1,6.64-1h0c.17,0,.38,0,.58,0,.46,0,.71,0,.66.15A3.8,3.8,0,0,1,210.3,240Z"/><path class="cls-3" d="M237.77,100.51c-3.5,0-7.59.25-9.08.47-3.17.46-4,.92-7.19,4.3a24.26,24.26,0,0,1-3.49,3.08,15.15,15.15,0,0,1-6.58,2.09,23.15,23.15,0,0,0-3.5.53c-2.21.51-2.68,1-2.19,2.41.18.49.52,1.66.78,2.6.46,1.72.45,1.75-.43,3-1.25,1.75-1.42,2.78-1.36,8.78a15.67,15.67,0,0,0,.31,3.94,3.18,3.18,0,0,0,1.54-.41,6.2,6.2,0,0,1,5.33.3,9,9,0,0,1,2,2,5.12,5.12,0,0,1,1,3.47,13.1,13.1,0,0,1-.28,3.44,23.08,23.08,0,0,0-.54,2.36,10.5,10.5,0,0,1-1.44,2.93,13.48,13.48,0,0,1-10.5,5.75l-1.76.08-1.23-1.73a14.38,14.38,0,0,0-4.51-4.48c-1.13-.67-1.57-.75-3.75-.62-4.39.24-7.41,2.11-8.76,5.41-.67,1.62-.72,2.11-.51,4.59l.22,2.79h-1.18c-1.37,0-2.89-1.16-5.81-4.51-5-5.71-7.12-9.82-8.58-16.68-.71-3.27-.69-3.08-.39-4.8.46-2.77,1.6-4.78,4.32-7.7,3.08-3.31,3.42-4.21,2.22-5.88a5,5,0,0,0-1.56-1.42,4.35,4.35,0,0,1-1.13-.61l-.67-.38h0c-.94,1.48-6.55-2.47-5.86-3.38l-.41-.23-2-.09c-1.93-.07-2.09,0-2.85.82s-.81,1.15-.75,2.58a6.49,6.49,0,0,1-.21,2.28c-.4.83-1.39.83-2,0a6,6,0,0,1-.5-3.91,6.15,6.15,0,0,0,.26-1.92c0-2-.84-2.86-3.14-3l-1.92.1.27.49c-1.91,1.44-4.42,1.86-7.49.72,0-.29,0-.55,0-.82l-.42,0-.3,0a1.43,1.43,0,0,1,.29,0,1.72,1.72,0,0,0-.54.06,5.6,5.6,0,0,0-.78.3,4.35,4.35,0,0,0-2.07,3.11c-.11.71.17,1.47,1.22,3.26a13.84,13.84,0,0,1,1.4,2.85,1.92,1.92,0,0,1-1.67,1.74c-.73,0-1.09-.33-2.74-2.76-1.24-1.82-2.27-2.21-3.81-1.42a9.41,9.41,0,0,0-1.06.79l.58.27a18.21,18.21,0,0,1-4.18,6c-.07-.2-.16-.38-.23-.57-.27.64-.52,1.29-.74,2-.56,1.84-.49,2.44.53,4.27,1.23,2.22,2.12,2.56,5.59,2.2,3.21-.32,3.94,0,4,1.9a2,2,0,0,1-1,1.91c-1.11.94-2.42,1.17-5.15.9-1.59-.15-1.81-.11-2.61.64s-.85,1-.74,2.39l.11,1.58a2.45,2.45,0,0,1,.15.46c.3,0,.61,0,.91,0a12.46,12.46,0,0,1,1.76,6.32c-.18,0-.37,0-.56.06.29.26.6.53,1,.82a6,6,0,0,0,2.06.62c1.36.16,1.58,0,4.56-2.92,2.56-2.51,5-1.2,5.06,2.67,0,3.55-2.11,5.61-6.68,6.44a12.48,12.48,0,0,1-3.12.33c-.19-.1-.33,0-.32.15,0,.47,2.69,1.94,4.75,2.62a8,8,0,0,0,4.11.31,11.54,11.54,0,0,0,3-.64c1.09-.66,1.37-.2,1.26,2.09s-.59,3.95-1.57,4.91c-1.62,1.63-2.88,1.83-6.19,1a7,7,0,0,0-2.11-.34,6.57,6.57,0,0,0,.49,1,8,8,0,0,0,4.88,3.23,12.1,12.1,0,0,1,2.43.85c.17.14-.12.65-.71,1.23-1.29,1.24-2.77,1.35-5.39.4-2.37-.86-2.48-.85-2.2.18a20.47,20.47,0,0,1,.44,2.05,9.16,9.16,0,0,0,2.44,4.48c2.75,2.66,8.72,2.65,13,0a8.83,8.83,0,0,1,1.94-1c.54,0,.45,2.42-.13,3.7a9.18,9.18,0,0,1-1.82,2.4l-1.25,1.18,1.53-.07a37.34,37.34,0,0,0,9.22-2.41c2.49-1,2.73-1.08,3-.52s-1.89,10.72-2.64,12.54a15,15,0,0,1-2,3.12,4.22,4.22,0,0,1-3.13,2,6.33,6.33,0,0,1-3.21,0,4.4,4.4,0,0,1-3.41-2.77,5.42,5.42,0,0,1-.58-3.48c.07-1.32,0-2.11-.2-2.1-.51,0-2.38,2.65-3.07,4.32A11.24,11.24,0,0,0,146,206c1.6,3.16,5,5.37,9.32,6a12.86,12.86,0,0,0,4.76-.18c5.74-1,9.55-3.26,11.82-6.89a4.28,4.28,0,0,1,2.64-2.33,24.18,24.18,0,0,0,8.17-5.54c.94-.93,1.68-.81,1.73.28a28.47,28.47,0,0,0,2.81,5.57c.36.49.14.83-2,3.07-1.34,1.39-3.54,3.47-4.92,4.62-3,2.54-9.35,7.21-9.8,7.23a1.43,1.43,0,0,0-.73.42,14.39,14.39,0,0,1-3.41,2.2c-3.93,2.12-6.29,2.88-9.76,3.09-2,.12-2.35.06-3.41-.67-1.29-.9-1.44-1.48-.82-3.19s.45-3.29-.44-4.07a3.69,3.69,0,0,0-4.06-.61,9.27,9.27,0,0,1-3.06.92c.17.24.33.49.49.75-.51,1.63-3.66,4.33-6.15,2.13,0-.27-.1-.52-.16-.77a9.15,9.15,0,0,0-1,.85c-2.3,1.77-2.5,3.45-.73,5.88,1.27,1.74,1.45,3.21.51,4.24-.61.65-.75.68-2.14.37a5.39,5.39,0,0,1-1.65-.54,4.87,4.87,0,0,0-2.92-1.48c-1.87.09-3,1.27-3.65,3.82,0,.43-.08.83-.11,1.22.53-.19,1.06-.36,1.57-.52.82,2.65,1.16,4.92.34,7-.42-.07-.85-.12-1.27-.16.2.57.41,1.12.59,1.72a3,3,0,0,0,2.64,2.14c1.22-.05,1.86-.43,4-2.4,2.44-2.22,4.08-2.26,4.73-.11.56,1.9-1.65,4-5,4.8-1.84.42-3,.94-3.34,1.54a4,4,0,0,0-.17,1.51,5.41,5.41,0,0,0,.64,1.57.61.61,0,0,0,0-.12,11.78,11.78,0,0,1,4.73,4.13c-.21.21-.41.43-.62.65a4.23,4.23,0,0,1,.34.4l1.75,1.48c2,1.65,3.83,2,5.38,1s2.18-2.61,2.26-5.89c.12-3.83.23-4.33,1.22-5.52.65-.78,1-1,1.37-.76s.56.83.72,3.47c.16,3.06.22,3.3,1.25,4.81a4.26,4.26,0,0,0,2,1.19,18.74,18.74,0,0,1,7.58-1.55c-.09.26-.19.54-.3.83a12.38,12.38,0,0,0,2.21-1.2,4.9,4.9,0,0,0,2.4-4.93,5.21,5.21,0,0,0-.79-3c-1.11-1.7-1-2.11.78-2.84l1.55-.63.86.77c.81.75.84.92.87,3.51a9.34,9.34,0,0,0,.61,4c.5,1.12,1.82,2.46,2.39,2.43a4.89,4.89,0,0,0,0-1.87c-.22-2.2.4-3.92,2.9-8a15.36,15.36,0,0,0,1.68-3.33c.27-1.58.35-1.68,1.21-1.62a1.94,1.94,0,0,1,1.49,1.07c.63,1,.64,1.08.25,4s-.24,4.78.41,5.9c.19.32.46,0,1-1.29a23.24,23.24,0,0,1,3-5.42,10.3,10.3,0,0,0,1.92-6c-.07-1.65.4-3,1.23-3.41,1.47-.75,1.91,1.15,1.59,6.89-.16,2.62.19,5.39.69,5.36.15,0,.48-.54.72-1.19a31.63,31.63,0,0,1,1.72-3.47c2.12-3.76,4.1-9.44,3.8-10.85a7.88,7.88,0,0,1,.44-2.78c.47-1.58.77-2.07,1.29-2.17,1.18-.23,1.8,1.06,1.69,3.51-.19,4-.12,5.13.31,6l.43.91.88-1.86c.48-1,1.26-2.62,1.7-3.56.72-1.52.81-2,.7-4.44-.09-2.05,0-2.85.34-3.23.63-.68.94-.65,1.53.17a1.83,1.83,0,0,1,.23,1.77c-.14.6-.36,2-.49,3.1a5.08,5.08,0,0,0,.34,3.31c.31.73.66,1.3.8,1.3s.32-.59.4-1.31a24.54,24.54,0,0,1,1.57-4.64c1.12-2.62,1.44-3.73,1.42-5.07,0-2.62,0-2.79.5-2.81.87,0,1.23,1.16,1.12,3.7a6.44,6.44,0,0,0,.63,3.93,7.64,7.64,0,0,0,1.36,2c.59.49.61.46.56-.86s.33-2.81,1.81-6.79a23.22,23.22,0,0,0,1.39-8.06c.07-2,.48-3,1.27-3a2.09,2.09,0,0,1,.73.35c.42.28.6,1,.83,3.14.28,2.78.58,4.39.9,4.88.1.15.67-.85,1.27-2.22s1.6-3.57,2.24-4.88A17.65,17.65,0,0,0,224,199.3l-.3-2,.87.17a17.1,17.1,0,0,1,2.49.88c3.93,1.7,6.1,2.33,8.09,2.36a15.26,15.26,0,0,1,4.85,1c1.55.55,4.15,1.29,5.8,1.66a18.46,18.46,0,0,1,8.26,3.61,37.07,37.07,0,0,1,3.86,3.47c.39-.75.76-1.51,1.12-2.27-.58-.44-1-.79-1-.91s.1-.16.26-.18a3.88,3.88,0,0,1,1.13.22c.29-.61.57-1.22.84-1.84-2.48.57-4.49.12-8.2-1.57-1.18-.54-1.47-1.12-.77-1.21h.15l.46,0a30,30,0,0,1,3.18.87c2.34.74,2.39.74,5.72.22l.2,0a107.12,107.12,0,0,0,7.54-27.41,105.62,105.62,0,0,0-11.34-5.63,61.3,61.3,0,0,1-7.79-3.78c0-.22.76-.41,2.11-.52a9.87,9.87,0,0,0,6-2.62c.66-.66.7-.67,1.86-.18,2.44,1,5.84.68,7-.74.48-.58.44-.62-.91-1.14-2.17-.85-2.95-2.09-3.07-4.87l-.11-2.3,1.53-.43a11.6,11.6,0,0,0,5.13-3.35c-.09-.93-.2-1.85-.31-2.77a6.45,6.45,0,0,1-2.87,1.23c-1.5.06-3.63-1.39-3.68-2.53,0-.21.63-.49,1.45-.65,2.23-.43,3.84-1.61,4.33-3.13,0-.25-.08-.49-.13-.74a6.22,6.22,0,0,0-1.14.1c-3.33.47-3.82-.54-4.24-8.65l-.31-6.05.72-.64a8.72,8.72,0,0,1,.82-.61A108.25,108.25,0,0,0,258,113c-.14.48-.7.5-.91,0a8.32,8.32,0,0,1-.14-2,108.78,108.78,0,0,0-6.6-10.79l-.94,0C246.5,100.32,241.27,100.46,237.77,100.51Zm-30,11.77a1.7,1.7,0,0,1,1-.47c.24,0,.34.2.22.53-.25.65-.82.19-.33,2.08-.1,1.32-.19,1.47-.55,1.07a4.29,4.29,0,0,1-.66-1.62C207.24,113,207.31,112.63,207.74,112.28Zm1.52,6.21c-1.92,2.75-2.69,6.67-1.77,9,.47,1.23.52,1.53.18,1.77-1.17.81-1.5.21-1.63-3-.17-3.77.69-6.56,2.56-8.3a2.1,2.1,0,0,1,.92-.61C209.83,117.31,209.79,117.71,209.26,118.49Zm-77.71,11.38a4.9,4.9,0,0,1-2.42-2.73c0-.26.05-.4.17-.42h0c.21,0,.58.22,1,.78a8.12,8.12,0,0,0,1.85,1.28c.78.41,1.43.87,1.43,1C133.61,130.14,132.43,130.18,131.55,129.87Zm2.86-11.2a15.94,15.94,0,0,0-1.2,1.86,11.8,11.8,0,0,1-1.8,2.33c-1.06,1-1.79,1.47-1.81,1a12.25,12.25,0,0,1,1-1.67c2.57-3.8,3.34-4.88,3.77-4.89.14,0,.23.13.36.3S134.73,118.28,134.41,118.67ZM132.85,147a7.68,7.68,0,0,1-.6-1.76,10.61,10.61,0,0,0-.91-2.34c-1.1-2-1.62-3.63-1.49-4.72.08-.66.25-1,.44-1s.39.37.49,1.05a10.56,10.56,0,0,0,1.12,2.63,14.49,14.49,0,0,1,1.39,3.32,5.32,5.32,0,0,0,.9,2,1.24,1.24,0,0,1,.48.77C134.7,147.6,133.23,147.58,132.85,147Zm6.88-12.7c-.75.75-1,.7-.79-.14a3.36,3.36,0,0,0-.52-3c-.45-.44-.46-.56-.1-.58a2.62,2.62,0,0,1,1.15.43A2.46,2.46,0,0,1,139.73,134.25Zm2.77-16.75c-.14-.37-.7-1.54-1.26-2.6a5,5,0,0,1-.86-2.68.92.92,0,0,1,.69-.77c.21,0,.39.11.4.44a14.16,14.16,0,0,0,.76,2.32,16.47,16.47,0,0,1,.89,2.9C143.28,118.31,142.86,118.55,142.5,117.5Zm2.72,33.38a5.46,5.46,0,0,1-2.53,3.48c-1.73,1-1.89.61-.35-.91,1.21-1.18,2.39-3.51,2.34-4.58,0-.39.17-.68.43-.69C145.72,148.15,145.75,149,145.22,150.88ZM141,178.45c-1.47-.83-3.48-3.19-3.52-4.12,0,0,0,0,0,0a5.14,5.14,0,0,1,1.74,1.28,24.39,24.39,0,0,0,3.06,2.41c.7.41,1.28.88,1.28,1C143.59,179.54,142.46,179.3,141,178.45Zm7.9-9.58a6.82,6.82,0,0,1-3.17,4.41c-2.83,1.8-3.65,1.27-1-.7a13.4,13.4,0,0,0,2.71-3c.69-1.12,1.16-1.69,1.39-1.7S149,168.22,148.87,168.87Zm0-7c-.51,2-2,4.58-3.09,5.29s-2.85.82-2.69.24a1.16,1.16,0,0,1,.9-.52c.95-.16,2.2-1.43,2.91-3s1.37-4.93,1.11-5.63c-.15-.41-.06-.6.26-.62C149,157.63,149.37,160,148.9,161.9Zm1-50.29c-1.57,1-4.55,1.15-5.64.34l-.77-.57,1.92.09a7.74,7.74,0,0,0,3.36-.49,7.09,7.09,0,0,1,2-.56C151.37,110.39,151.13,110.82,149.87,111.61Zm6,70c-.21.49-.58.89-.8.9s-.35-.26-.06-1.62a13.56,13.56,0,0,0,.29-2.79c0-.74.11-1.14.32-1.15s.37.21.59.69A6.16,6.16,0,0,1,155.88,181.58Zm3.88-66.74a10.45,10.45,0,0,1-.43,2.51,1.88,1.88,0,0,1-.74.89c-.18.08-.28.09-.32,0v0a.4.4,0,0,1,0-.2v0a2.69,2.69,0,0,1,.06-.41c.1-.47.23-1.63.31-2.57.1-1.31.27-1.74.69-1.83a.71.71,0,0,1,.16,0C159.83,113.1,159.86,113.39,159.76,114.84Zm-7.94,94.47c-1,.05-2.9-1.72-4-3.79-1-1.87-1.11-2.23-1.21-5a9.87,9.87,0,0,1,.31-3.75c.1-.22.2-.37.26-.36h0c.17,0,.25.75.46,2.82.41,3.9,1.27,6.09,3.33,8.4C152.05,208.93,152.25,209.3,151.82,209.31ZM131.6,238.53c-.18.82-.49,1.49-.69,1.5-.59,0-.78-1.53-.36-2.9a5,5,0,0,0-.06-3.28c-.56-2.49-.5-4.13.17-4.28h0c.4-.1.54.31.83,2.12A17.56,17.56,0,0,1,131.6,238.53Zm6.62-17.72a7.27,7.27,0,0,1,1.45,1.71,6.08,6.08,0,0,1,1.43,4.26c0,1.07-.95.93-1-.14a8.56,8.56,0,0,0-1-2.67C138.1,222.28,137.71,220.8,138.22,220.81Zm.93,15.75c-.76,0-.52-.57.31-.82h0a1.24,1.24,0,0,1,.43-.06c1,0,1.67.91,1.91,2.6s-.27,2.26-.7.76C140.77,237.91,139.68,236.54,139.15,236.56Zm4.34,18.26c-1.57,1.2-2.91.51-5-2.65a8.33,8.33,0,0,0-2.78-2.6c-1.53-.89-2.41-2-2-2.44h0c.12-.13.51,0,.76.26a6.37,6.37,0,0,0,1.59.77,7.17,7.17,0,0,1,3.76,3.13c1.38,2,2.39,2.62,3.48,2.3S144.44,254.07,143.49,254.82ZM145.37,220a3.91,3.91,0,0,1-4,.58c-.74-.29-.7-.32.83-.76a8.2,8.2,0,0,0,3.31-2,5.55,5.55,0,0,1,1.77-1.25h0a.08.08,0,0,1,.07,0C147.54,217.1,146.41,219,145.37,220Zm15.47,31.25a39.26,39.26,0,0,1-4.61.58l-3.78.31-.56-.77c-.69-1-1.17-5.62-.66-5.76h0a.16.16,0,0,1,.13,0,3.53,3.53,0,0,1,.69,1.64,24.57,24.57,0,0,0,1,3.29l2.57-.33c3.1-.39,6.05-.2,6.07.38C161.68,250.82,161.3,251.11,160.84,251.24Zm101.79-99.47a7.73,7.73,0,0,0,2,.09c.93-.08,1.12,0,1,.4a1.81,1.81,0,0,1-.91.82,4.1,4.1,0,0,1-5.53-3.56c0-.3.12-.57.28-.58a.32.32,0,0,1,.34.29C259.84,149.81,261.79,151.56,262.63,151.77Zm1.21-8c.78,0,1.18.42.68.78-1.14.76-3.56.1-4.33-1.19-.43-.72-.55-2.19-.17-2.21.14,0,.44.29.66.67A5,5,0,0,0,263.84,143.78Zm-5.21-17.38c.27-.05.95,1,1.51,2.56a21.14,21.14,0,0,1,.73,2.27c0,.37-.53.37-.78,0a21,21,0,0,1-1.6-4.37C258.48,126.58,258.53,126.42,258.63,126.4Zm-1,30.65a.26.26,0,0,1,.18-.11h0c.18,0,.37.2.65.8a9.27,9.27,0,0,0,3.84,3.83c.68.3,1.23.69,1.24.85,0,.51-1.63.41-3-.18s-2-1.46-2.83-3.68C257.37,157.71,257.34,157.32,257.6,157.05Zm-29.71-36.8c.85,1.18,3.09,1.84,6.39,1.5,2.15-.23,2.88-.21,2.8.07s-.71.54-1.46.76-1.35.36-2,.48c-3.62.65-6.25-.21-7.58-2.49-.83-1.44-.75-6,.13-6.34a.76.76,0,0,1,.28-.09h0c.58-.09,1.06.45.7,1.67A5.11,5.11,0,0,0,227.89,120.25Zm8,23.55c-2.61-8.54-3.65-13.51-2.86-13.77h0c.18-.07.57,1,.91,2.29s1.09,3.83,1.7,5.6c1.42,4.12,1.76,6.05,1.35,7.5s-1,1.5-.91.15A6.5,6.5,0,0,0,235.9,143.8Zm2.57,30.42c2.57-.34,3.86.08,4.71,1.55s.53,1.9-.65.93c-1.36-1.11-3.16-1.29-6.82-.63-3.43.62-5.47.54-6.62-.24-.92-.62-1.93-2-1.67-2.31,0,0,0,0,.08,0h0a7.38,7.38,0,0,1,1.9.71C231.36,175.17,231.43,175.17,238.47,174.22Zm-7.46-55a4.79,4.79,0,0,1,2.63-1.62,4,4,0,0,1,2.35.8c1.95,1.11,1.94,1.65,0,2.15a27.61,27.61,0,0,1-3.81.72C230.54,121.31,230,121.06,231,119.18Zm-3.49,15.76h0c.26,0,.69.9,1.22,2.68.44,1.42,1.21,3.82,1.74,5.33a46.36,46.36,0,0,1,1.41,4.92,7.61,7.61,0,0,1,.17,3.08c-.32,1.16-.55.79-.93-1.5a35.21,35.21,0,0,0-1.69-5.34c-1.85-4.67-2-5.35-2.14-7.48C227.24,135.49,227.33,135,227.52,134.94Zm.74,49.13c1.49.46,6.86.08,7.93-.55a6.71,6.71,0,0,1,2.47-.43h0a9.29,9.29,0,0,1,2.72.19,5.08,5.08,0,0,1,2.91,2.61c.74,1.53.17,1.72-1.19.4-2-1.9-4.23-2.13-8.45-.84-3.33,1-5.42,1-6.74-.2S226.62,183.58,228.26,184.07Zm15.87-14.76c-2.28,1.2-4.45.48-6.37-2.11-1-1.4-1.84-4-1.39-4.44a.39.39,0,0,1,.11-.06h0c.11,0,.22.07.29.23a17.91,17.91,0,0,0,4,4.8c1,.59,1.36.64,3.08.41s1.91-.19,1.62.18A5.21,5.21,0,0,1,244.13,169.31ZM225.42,105.7a6.38,6.38,0,0,1,.58-1.24h0c0,.09.09,1.15.19,2.37a4.05,4.05,0,0,0,1.46,3.21c1.44,1.63,3.55,3,7.21,4.7,5,2.32,7,4.82,7.14,7.7,0,.64,0,1.17-.17,1.18s-.94.14-1.78-1.57-2.08-3.86-6.49-5.85c-2.89-1.3-6.21-3.61-7.31-5.08A5.4,5.4,0,0,1,225.42,105.7Zm.31,15.44a.13.13,0,0,1,.09,0c.65.37.51,1.14-.53,1.85s-1.48.74-1.5.3A4,4,0,0,1,225.73,121.14Zm-6.06,26.18h0c.1,0,.22.09.37.3a3.7,3.7,0,0,1,.35,1.46,57.87,57.87,0,0,0,1.23,5.67c.83,3.33,1.14,5.1,1.06,6.21-.12,1.6-.66,2.72-.79,1.6,0-.32,0-.76,0-.95s-.5-2.34-1.12-4.77C219.46,152,219,147.31,219.67,147.32Zm-.82,18.46c-.25,1.27-.76,1-.82-.47a20.36,20.36,0,0,0-1.14-4.21,24.38,24.38,0,0,1-1.62-5.26c-.24-1.29.06-3,.51-3h0s.06,0,.09,0a4.49,4.49,0,0,1,.55,1.78,33.56,33.56,0,0,0,1.15,4.23C218.58,161.82,219.1,164.58,218.85,165.78Zm-3.66,1.9c-.24,1.34-.62,1.18-.87-.37a19.31,19.31,0,0,0-1.78-4.24c-1.64-3-2-4.54-1.24-5.63.14-.21.24-.36.33-.38s.35.47.84,2.21a27.73,27.73,0,0,0,1.4,3.51C215.06,165.21,215.4,166.47,215.19,167.68Zm-3.65-18.8c3.62-3,5-6.41,5-12.24,0-1.6,0-2.2.11-2.18s.19.23.37.61a11.37,11.37,0,0,1,.63,3.81,8.32,8.32,0,0,1-.74,4.84,11.3,11.3,0,0,1-3.66,4.89c-1.5,1.33-3.11,2.3-3.38,2C209.71,150.56,210.48,149.76,211.54,148.88ZM200,170.66a12.16,12.16,0,0,0,.48-4.42c-.07-1.7-.07-2.27.12-2.28h0a.51.51,0,0,1,.26.16c1,.89,1,3.88.08,7.71s-.9,3.76-1.2,3.48S199.45,172.46,200,170.66Zm-6.61.18a44.31,44.31,0,0,0,.88-7.3.7.7,0,0,1,.28-.73h0c.54-.23.74,4.74.31,7.7-.47,3.13-1.07,4.59-3.67,8.79s-3.62,6.25-4.25,8.51a3.7,3.7,0,0,1-.75,1.66c-.42,0-.5-3.22-.1-4.24a50.24,50.24,0,0,1,3.12-5.83C190.1,178.72,192.75,173.3,193.4,170.84Zm-9-21c.59-1.29,2.67-3.27,3.49-3.3.63,0,.54.19-.73,1.83a11.92,11.92,0,0,0-2.45,6.31,4.12,4.12,0,0,1-.35,1.82C183.49,157.14,183.53,151.85,184.43,149.87Zm-9.31,9.07c.31-1.52.55-2.12.87-2.15h.06c1.29.19.45,4.06-1.39,6.45-.77,1-2.55,2.28-2.57,1.86a13.93,13.93,0,0,1,1.29-2.07A10.85,10.85,0,0,0,175.12,158.94Zm-2.23-5.07c.24,0,.45.32.55,1.14.21,1.53-.93,4.31-2.43,5.94a4.57,4.57,0,0,1-1.73,1.35c-.45,0-.45-.07.08-.71a13.17,13.17,0,0,0,2.57-5.53C172.22,154.7,172.58,153.94,172.89,153.87Zm-3.89,2a10.57,10.57,0,0,0,.31-3,8.55,8.55,0,0,1,.29-2.81.86.86,0,0,1,.21-.07c.48-.06,1,.72,1.06,1.63a12.77,12.77,0,0,1-1.56,5.24,1.57,1.57,0,0,1-.71.57C168.32,157.37,168.55,156.48,169,155.85Zm-2.3-7.33c.2-1.33.37-1.83.67-1.89a.38.38,0,0,1,.15,0c.64.09.73,2.77.13,3.94-1.11,2.21-1.75,3.19-2.41,3.66-1,.75-1.19.65-.6-.34A14,14,0,0,0,166.7,148.52Zm-2.94-32.6c-.91-.79-1.4-1.71-.94-1.74a17.07,17.07,0,0,1,1.84,1.17,17.67,17.67,0,0,0,2.87,1.64c.66.25,1.19.58,1.2.71C168.76,118.53,165.33,117.31,163.76,115.92Zm3.73,66.78c-1.75,7.61-2.08,8.78-3.27,11.48a23.1,23.1,0,0,1-2.27,4c-1.52,1.93-2.23,1.85-1-.11s2.24-4.72,3.26-8.91c.31-1.29.68-2.7.81-3.13s.42-1.78.63-3c1-5.73,3.14-10.77,6-14.19,2.57-3.06,7.36-6.34,10.25-7l.27-.06h0c.52-.07.1.26-1.67,1.41a28.77,28.77,0,0,0-6.52,5.67C170.6,172.8,169,176.29,167.49,182.7Zm14.45-7.5a26.37,26.37,0,0,0-3.13,7.23,71.52,71.52,0,0,0-1.56,10.63c-.15,3.15-.45,4.24-1.71,6.11-1.13,1.7-1.58,1.39-.86-.58.45-1.23.52-1.74.84-5.54.71-8.78,2.06-14.2,4.47-18.05,1.33-2.11,5.09-6.08,5.8-6.23h0c.08,0,.13,0,.13.09A70.8,70.8,0,0,1,181.94,175.2Zm-12.06,67.09a7.79,7.79,0,0,1-.37,2.63c-.41.46-.59-.08-.84-2.6a4.41,4.41,0,0,0-.8-2.67c-.56-.56-.56-.62-.09-.83l.13,0a1.68,1.68,0,0,1,1.21.53C169.9,240,170,240.12,169.88,242.29ZM180.39,241c-.63,1.66-1.21,1.6-1-.12a17.16,17.16,0,0,0,.11-2.92c-.09-1.49-.27-1.88-1.68-3.63-.18-.21-.23-.48-.13-.6a.56.56,0,0,1,.33-.17,2.58,2.58,0,0,1,2,1.24C180.85,236,181,239.29,180.39,241Zm-2.08-23.89a33.91,33.91,0,0,1-11.21,5.77l-3.9,1.31c-.29.11-.55.07-.54-.06a9.32,9.32,0,0,1,2.48-1.42,75.55,75.55,0,0,0,12.63-7.32,46,46,0,0,0,8.31-7.33c1.38-1.45,2.14-2.12,2.61-2.21h.09c.22,0,.38.16.5.43C189.68,207.21,183.56,213.25,178.31,217.11Zm11.16,20.65c-.55,1.18-1.16,1.23-.95.08.08-.47.18-2.07.22-3.56.1-3-.3-4-1.89-4.57-.85-.32-.85-.32-.13-.48a5.74,5.74,0,0,1,.65-.1h0c1.4-.08,2.18.76,2.66,2.82A12.38,12.38,0,0,1,189.47,237.76ZM200,227c-.28,1.28-.62,1.79-1,1.47A9,9,0,0,1,199,226c.05-1.63.3-2.38-1.15-3.34-1-.84-1.12-1.11-.75-1.28a1.35,1.35,0,0,1,.33-.09C199,221.07,200.61,224.33,200,227Zm5.86-5.45a9.4,9.4,0,0,1-.54,2.74c-.45,1-1.06,1.36-1.09.69a13.55,13.55,0,0,1,.41-1.85c.49-1.78.05-3.5-1-4-.35-.16-.54-.43-.45-.6a.64.64,0,0,1,.59-.32,2.07,2.07,0,0,1,1.45.79C205.85,219.63,205.94,220,205.89,221.5Zm5.22-1c-.38.41-.47.14-.69-2.23-.25-2.53-.32-2.74-1.19-3.37s-.84-.71-.42-.9a3.05,3.05,0,0,1,.58-.16c1.25-.15,2,1.27,2.08,4C211.52,219.36,211.41,220.2,211.11,220.53Zm.53-35.78c-.4,1.56-.83,3.87-1,5.14a6.65,6.65,0,0,1-.57,2.44c-.16.06-.69-.54-1.19-1.32-1.37-2.2-3.76-4.5-5.3-5.12a6.94,6.94,0,0,0-9.25,4.57,9.71,9.71,0,0,0,1,6.23,13.3,13.3,0,0,0,5.65,4.75c.87.31,1.34.66,1.31,1a5.86,5.86,0,0,1-2,1.56,6.48,6.48,0,0,1-3.52,1.12c-3.3.06-4.51-.38-6.54-2.37-2.53-2.46-4.87-6.85-4.53-8.48.26-1.33,1.07-.73,1.9,1.41,1.37,3.56,3.76,6.65,5.69,7.36,1.14.42,5.56.33,5.82-.12.08-.14-.64-.91-1.62-1.65-3.33-2.6-4.54-4.88-4.65-8.71s1.35-6.3,4.91-8.15a5.2,5.2,0,0,1,3.38-.7,9.9,9.9,0,0,1,6.55,3.05,6.37,6.37,0,0,0,1.58,1.38,13.89,13.89,0,0,0,.52-2c.23-1,.61-2.51.86-3.29a20,20,0,0,0,.48-4.53c0-3,0-3.22-1-5.35a44.29,44.29,0,0,0-3.43-5.48c-2.3-3.19-3-4.57-3.05-6.62,0-.55,0-.84.15-.89l.06,0h0c.23,0,.62.6,1.08,1.75a32.12,32.12,0,0,0,3.11,5c3.28,4.45,4.22,6.53,4.57,10.06C212.84,179.55,212.77,180.16,211.64,184.75Zm7.85,26.18c-.43,0-.56-.32-.85-2.13a2.9,2.9,0,0,0-1.22-2.15c-1.18-.9-1.24-1.16-.28-1.2,1.32-.06,2.24,1.24,2.49,3.47C219.78,210.29,219.74,210.91,219.49,210.93Zm4.16-30.87c-.35,2.63-1.28,4.46-3.85,7.58a14.66,14.66,0,0,0-3.67,8.53c-.08.86-.25,1.58-.39,1.59s-1-1.07-2.06-3.15c-1.36-2.62-1.25-6.46.35-11.68a31.44,31.44,0,0,0,1.65-7.65c0-.63,0-.91.09-.95s.18,0,.34.14c.91.69.61,4.31-.77,9.24-.93,3.31-1.22,4.94-1.16,6.32a4.68,4.68,0,0,0,.37,2c.18.09.57-.49.87-1.27a19.68,19.68,0,0,1,3.21-4.38c2.3-2.52,2.77-3.24,3.41-5.17a17.53,17.53,0,0,0,.81-3.74,4.18,4.18,0,0,1,.31-1.66C223.62,175.54,223.91,178.09,223.65,180.06Zm-.79-38.28c-.06-1.35,0-1.93.21-2h0a.16.16,0,0,1,.1,0,1.19,1.19,0,0,1,.52.87,32.07,32.07,0,0,0,1,3.18c1.86,5.1,2.26,6.69,2.39,9.66s-.14,4.47-.57,3.08a10.35,10.35,0,0,1-.3-2.08,9.76,9.76,0,0,0-.41-2.32C223.76,146.52,223,143.67,222.86,141.78Zm2.68,54.3c-.65-.37-.79-1.41-.23-1.62a.49.49,0,0,1,.24,0h0a6.32,6.32,0,0,1,1.4.12,14.76,14.76,0,0,0,3.16,0c2.27-.22,2.68,0,1.36.77S226.32,196.51,225.54,196.08Zm14.1,2.13c-1.88.53-3.43.51-6.33-.07s-3.42-.86-2.27-1.37a6.19,6.19,0,0,1,2.91-.1c3.66.42,5.54.33,7.81-.41a18.9,18.9,0,0,1,2.15-.66.59.59,0,0,1,.17,0h0c.13,0,.14.1.14.23C244.24,196.18,241.2,197.78,239.64,198.21Zm12.83,1.46c1.87-.77,6-1.22,7.25-.78.91.33.81.37-2,.92a46.45,46.45,0,0,0-4.9,1.23,13.44,13.44,0,0,1-7.25.79c-2.18-.44-4.59-1.62-4.62-2.27,0-.25.14-.4.42-.45h0a7.41,7.41,0,0,1,2.78.66A13.37,13.37,0,0,0,252.47,199.67Zm.25-35.06c-1,.71-4,0-6.24-1.42-1-.65-3.27-3.53-3.3-4.19,0-.19,0-.31.15-.31s.91.51,2.17,1.68c2,1.86,5.2,3.55,6.63,3.49C253,163.82,253.32,164.2,252.72,164.61Z"/><path class="cls-3" d="M158.26,118h0a.4.4,0,0,0,0,.2h0A.4.4,0,0,1,158.26,118Z"/><polygon class="cls-7" points="226.01 104.45 226.01 104.45 226.01 104.45 226.01 104.45"/><path class="cls-7" d="M233.58,116.2c4.41,2,5.67,4.14,6.49,5.85s1.65,1.56,1.78,1.57.2-.54.17-1.18c-.15-2.88-2.18-5.38-7.14-7.7-3.66-1.71-5.77-3.07-7.21-4.7a4.05,4.05,0,0,1-1.46-3.21c-.1-1.22-.18-2.28-.19-2.37h0a6.38,6.38,0,0,0-.58,1.24,5.4,5.4,0,0,0,.85,5.42C227.37,112.59,230.69,114.9,233.58,116.2Z"/><path class="cls-7" d="M141.65,109.2h0a1,1,0,0,0-.28.06h0a1.72,1.72,0,0,1,.54-.06A1.43,1.43,0,0,0,141.65,109.2Z"/><path class="cls-8" d="M158.27,118.21a.4.4,0,0,1,0-.2"/><path class="cls-7" d="M208.09,115.49c.36.4.45.25.55-1.07-.49-1.89.08-1.43.33-2.08.12-.33,0-.51-.22-.53a1.7,1.7,0,0,0-1,.47c-.43.35-.5.69-.31,1.59A4.29,4.29,0,0,0,208.09,115.49Z"/><path class="cls-7" d="M209.52,117.35a2.1,2.1,0,0,0-.92.61c-1.87,1.74-2.73,4.53-2.56,8.3.13,3.23.46,3.83,1.63,3,.34-.24.29-.54-.18-1.77-.92-2.35-.15-6.27,1.77-9C209.79,117.71,209.83,117.31,209.52,117.35Z"/><path class="cls-7" d="M232.16,121.23a27.61,27.61,0,0,0,3.81-.72c2-.5,2-1,0-2.15a4,4,0,0,0-2.35-.8,4.79,4.79,0,0,0-2.63,1.62C230,121.06,230.54,121.31,232.16,121.23Z"/><path class="cls-7" d="M225.29,123c1-.71,1.18-1.48.53-1.85a.13.13,0,0,0-.09,0,4,4,0,0,0-1.94,2.17C223.81,123.75,224.16,123.77,225.29,123Z"/><path class="cls-7" d="M226.46,114.14h0a.76.76,0,0,0-.28.09c-.88.38-1,4.9-.13,6.34,1.33,2.28,4,3.14,7.58,2.49.64-.12,1.3-.28,2-.48s1.41-.56,1.46-.76-.65-.3-2.8-.07c-3.3.34-5.54-.32-6.39-1.5a5.11,5.11,0,0,1-.73-4.44C227.52,114.59,227,114.05,226.46,114.14Z"/><path class="cls-7" d="M257.08,113c.21.5.77.48.91,0l-1.05-2A8.32,8.32,0,0,0,257.08,113Z"/><path class="cls-7" d="M260.87,131.23a21.14,21.14,0,0,0-.73-2.27c-.56-1.54-1.24-2.61-1.51-2.56-.1,0-.15.18-.14.46a21,21,0,0,0,1.6,4.37C260.34,131.6,260.88,131.6,260.87,131.23Z"/><path class="cls-7" d="M143.12,117.11a16.47,16.47,0,0,0-.89-2.9,14.16,14.16,0,0,1-.76-2.32c0-.33-.19-.48-.4-.44a.92.92,0,0,0-.69.77,5,5,0,0,0,.86,2.68c.56,1.06,1.12,2.23,1.26,2.6C142.86,118.55,143.28,118.31,143.12,117.11Z"/><path class="cls-7" d="M134.19,146.21a5.32,5.32,0,0,1-.9-2,14.49,14.49,0,0,0-1.39-3.32,10.56,10.56,0,0,1-1.12-2.63c-.1-.68-.31-1-.49-1.05s-.36.3-.44,1c-.13,1.09.39,2.75,1.49,4.72a10.61,10.61,0,0,1,.91,2.34,7.68,7.68,0,0,0,.6,1.76c.38.63,1.85.65,1.82,0A1.24,1.24,0,0,0,134.19,146.21Z"/><path class="cls-7" d="M168.73,117.7c0-.13-.54-.46-1.2-.71a17.67,17.67,0,0,1-2.87-1.64,17.07,17.07,0,0,0-1.84-1.17c-.46,0,0,.95.94,1.74C165.33,117.31,168.76,118.53,168.73,117.7Z"/><path class="cls-7" d="M150.74,110.42a7.09,7.09,0,0,0-2,.56,7.74,7.74,0,0,1-3.36.49l-1.92-.09.77.57c1.09.81,4.07.63,5.64-.34C151.13,110.82,151.37,110.39,150.74,110.42Z"/><path class="cls-7" d="M159.48,113.12a.71.71,0,0,0-.16,0c-.42.09-.59.52-.69,1.83-.08.94-.21,2.1-.31,2.57a2.69,2.69,0,0,0-.06.41v0h0v.2h0v0c0,.1.14.09.32,0a1.88,1.88,0,0,0,.74-.89,10.45,10.45,0,0,0,.43-2.51C159.86,113.39,159.83,113.1,159.48,113.12Z"/><path class="cls-7" d="M139.47,130.92a2.62,2.62,0,0,0-1.15-.43c-.36,0-.35.14.1.58a3.36,3.36,0,0,1,.52,3c-.24.84,0,.89.79.14A2.46,2.46,0,0,0,139.47,130.92Z"/><path class="cls-7" d="M134.4,117.34c-.43,0-1.2,1.09-3.77,4.89a12.25,12.25,0,0,0-1,1.67c0,.43.75,0,1.81-1a11.8,11.8,0,0,0,1.8-2.33,15.94,15.94,0,0,1,1.2-1.86c.32-.39.47-.85.35-1S134.54,117.35,134.4,117.34Z"/><path class="cls-7" d="M132.16,128.78a8.12,8.12,0,0,1-1.85-1.28c-.43-.56-.8-.83-1-.78h0c-.12,0-.18.16-.17.42a4.9,4.9,0,0,0,2.42,2.73c.88.31,2.06.27,2-.07C133.59,129.65,132.94,129.19,132.16,128.78Z"/><path class="cls-7" d="M213.2,148.61a11.3,11.3,0,0,0,3.66-4.89,8.32,8.32,0,0,0,.74-4.84,11.37,11.37,0,0,0-.63-3.81c-.18-.38-.31-.6-.37-.61s-.13.58-.11,2.18c0,5.83-1.33,9.24-5,12.24-1.06.88-1.83,1.68-1.72,1.77C210.09,150.91,211.7,149.94,213.2,148.61Z"/><path class="cls-7" d="M148.3,157.66c-.32,0-.41.21-.26.62.26.7-.39,4.06-1.11,5.63s-2,2.84-2.91,3a1.16,1.16,0,0,0-.9.52c-.16.58,1.69.41,2.69-.24s2.58-3.27,3.09-5.29S149,157.63,148.3,157.66Z"/><path class="cls-7" d="M145.11,148.18c-.26,0-.45.3-.43.69,0,1.07-1.13,3.4-2.34,4.58-1.54,1.52-1.38,1.91.35.91a5.46,5.46,0,0,0,2.53-3.48C145.75,149,145.72,148.15,145.11,148.18Z"/><path class="cls-7" d="M155.63,176.92c-.21,0-.35.41-.32,1.15a13.56,13.56,0,0,1-.29,2.79c-.29,1.36-.28,1.64.06,1.62s.59-.41.8-.9a6.16,6.16,0,0,0,.34-4C156,177.13,155.79,176.89,155.63,176.92Z"/><path class="cls-7" d="M148.75,167.92c-.23,0-.7.58-1.39,1.7a13.4,13.4,0,0,1-2.71,3c-2.6,2-1.78,2.5,1,.7a6.82,6.82,0,0,0,3.17-4.41C149,168.22,148.94,167.9,148.75,167.92Z"/><path class="cls-7" d="M142.28,178a24.39,24.39,0,0,1-3.06-2.41,5.14,5.14,0,0,0-1.74-1.28s0,0,0,0c0,.93,2.05,3.29,3.52,4.12s2.62,1.09,2.59.57C143.56,178.86,143,178.39,142.28,178Z"/><path class="cls-7" d="M184.39,156.53a4.12,4.12,0,0,0,.35-1.82,11.92,11.92,0,0,1,2.45-6.31c1.27-1.64,1.36-1.86.73-1.83-.82,0-2.9,2-3.49,3.3C183.53,151.85,183.49,157.14,184.39,156.53Z"/><path class="cls-7" d="M169.28,162.3A4.57,4.57,0,0,0,171,161c1.5-1.63,2.64-4.41,2.43-5.94-.1-.82-.31-1.18-.55-1.14s-.67.83-1,2.19a13.17,13.17,0,0,1-2.57,5.53C168.83,162.23,168.83,162.32,169.28,162.3Z"/><path class="cls-7" d="M168.6,157.36a1.57,1.57,0,0,0,.71-.57,12.77,12.77,0,0,0,1.56-5.24c0-.91-.58-1.69-1.06-1.63a.86.86,0,0,0-.21.07,8.55,8.55,0,0,0-.29,2.81,10.57,10.57,0,0,1-.31,3C168.55,156.48,168.32,157.37,168.6,157.36Z"/><path class="cls-7" d="M165.24,154.24c.66-.47,1.3-1.45,2.41-3.66.6-1.17.51-3.85-.13-3.94a.38.38,0,0,0-.15,0c-.3.06-.47.56-.67,1.89a14,14,0,0,1-2.06,5.38C164.05,154.89,164.2,155,165.24,154.24Z"/><path class="cls-7" d="M172.09,165.09c0,.42,1.8-.86,2.57-1.86,1.84-2.39,2.68-6.26,1.39-6.45H176c-.32,0-.56.63-.87,2.15a10.85,10.85,0,0,1-1.74,4.08A13.93,13.93,0,0,0,172.09,165.09Z"/><path class="cls-7" d="M229.44,144.11a35.21,35.21,0,0,1,1.69,5.34c.38,2.29.61,2.66.93,1.5a7.61,7.61,0,0,0-.17-3.08,46.36,46.36,0,0,0-1.41-4.92c-.53-1.51-1.3-3.91-1.74-5.33-.53-1.78-1-2.68-1.22-2.68h0c-.19,0-.28.55-.22,1.69C227.4,138.76,227.59,139.44,229.44,144.11Z"/><path class="cls-7" d="M212.47,159.27c-.49-1.74-.63-2.28-.84-2.21s-.19.17-.33.38c-.73,1.09-.4,2.59,1.24,5.63a19.31,19.31,0,0,1,1.78,4.24c.25,1.55.63,1.71.87.37s-.13-2.47-1.32-4.9A27.73,27.73,0,0,1,212.47,159.27Z"/><path class="cls-7" d="M221.86,161.61c0,.19,0,.63,0,.95.13,1.12.67,0,.79-1.6.08-1.11-.23-2.88-1.06-6.21a57.87,57.87,0,0,1-1.23-5.67,3.7,3.7,0,0,0-.35-1.46c-.15-.21-.27-.31-.37-.3h0c-.67,0-.21,4.71,1.07,9.52C221.36,159.27,221.87,161.41,221.86,161.61Z"/><path class="cls-7" d="M216.42,154.66a4.49,4.49,0,0,0-.55-1.78s-.06,0-.09,0h0c-.45,0-.75,1.69-.51,3a24.38,24.38,0,0,0,1.62,5.26,20.36,20.36,0,0,1,1.14,4.21c.06,1.45.57,1.74.82.47s-.27-4-1.28-6.89A33.56,33.56,0,0,1,216.42,154.66Z"/><path class="cls-7" d="M237,145.42c.41-1.45.07-3.38-1.35-7.5-.61-1.77-1.37-4.3-1.7-5.6S233.22,130,233,130h0c-.79.26.25,5.23,2.86,13.77a6.5,6.5,0,0,1,.19,1.77C236,146.92,236.6,146.83,237,145.42Z"/><path class="cls-7" d="M226.23,154.49a10.35,10.35,0,0,0,.3,2.08c.43,1.39.71-.07.57-3.08s-.53-4.56-2.39-9.66a32.07,32.07,0,0,1-1-3.18,1.19,1.19,0,0,0-.52-.87.16.16,0,0,0-.1,0h0c-.21.06-.27.64-.21,2,.09,1.89.9,4.74,3,10.39A9.76,9.76,0,0,1,226.23,154.49Z"/><path class="cls-7" d="M208,166.59a32.12,32.12,0,0,1-3.11-5c-.46-1.15-.85-1.75-1.08-1.75h0l-.06,0c-.13.05-.19.34-.15.89.1,2,.75,3.43,3.05,6.62a44.29,44.29,0,0,1,3.43,5.48c1,2.13,1,2.39,1,5.35a20,20,0,0,1-.48,4.53c-.25.78-.63,2.26-.86,3.29a13.89,13.89,0,0,1-.52,2,6.37,6.37,0,0,1-1.58-1.38,9.9,9.9,0,0,0-6.55-3.05,5.2,5.2,0,0,0-3.38.7c-3.56,1.85-5,4.24-4.91,8.15s1.32,6.11,4.65,8.71c1,.74,1.7,1.51,1.62,1.65-.26.45-4.68.54-5.82.12-1.93-.71-4.32-3.8-5.69-7.36-.83-2.14-1.64-2.74-1.9-1.41-.34,1.63,2,6,4.53,8.48,2,2,3.24,2.43,6.54,2.37a6.48,6.48,0,0,0,3.52-1.12,5.86,5.86,0,0,0,2-1.56c0-.3-.44-.65-1.31-1a13.3,13.3,0,0,1-5.65-4.75,9.71,9.71,0,0,1-1-6.23,6.94,6.94,0,0,1,9.25-4.57c1.54.62,3.93,2.92,5.3,5.12.5.78,1,1.38,1.19,1.32a6.65,6.65,0,0,0,.57-2.44c.17-1.27.6-3.58,1-5.14,1.13-4.59,1.2-5.2.9-8.1C212.19,173.12,211.25,171,208,166.59Z"/><path class="cls-7" d="M186.2,189.47a3.7,3.7,0,0,0,.75-1.66c.63-2.26,1.64-4.26,4.25-8.51s3.2-5.66,3.67-8.79c.43-3,.23-7.93-.31-7.7h0a.7.7,0,0,0-.28.73,44.31,44.31,0,0,1-.88,7.3c-.65,2.46-3.3,7.88-4.18,8.56a50.24,50.24,0,0,0-3.12,5.83C185.7,186.25,185.78,189.49,186.2,189.47Z"/><path class="cls-7" d="M201,171.83c.93-3.83.89-6.82-.08-7.71a.51.51,0,0,0-.26-.16h0c-.19,0-.19.58-.12,2.28a12.16,12.16,0,0,1-.48,4.42c-.56,1.8-.7,4.24-.26,4.65S200,175.75,201,171.83Z"/><path class="cls-7" d="M185.79,168.77h0c-.71.15-4.47,4.12-5.8,6.23-2.41,3.85-3.76,9.27-4.47,18.05-.32,3.8-.39,4.31-.84,5.54-.72,2-.27,2.28.86.58,1.26-1.87,1.56-3,1.71-6.11a71.52,71.52,0,0,1,1.56-10.63,26.37,26.37,0,0,1,3.13-7.23,70.8,70.8,0,0,0,4-6.34C185.92,168.78,185.87,168.76,185.79,168.77Z"/><path class="cls-7" d="M180.48,163.24c1.77-1.15,2.19-1.48,1.67-1.41h0l-.27.06c-2.89.68-7.68,4-10.25,7-2.86,3.42-5,8.46-6,14.19-.21,1.2-.49,2.54-.63,3s-.5,1.84-.81,3.13c-1,4.19-2,6.93-3.26,8.91s-.5,2,1,.11a23.1,23.1,0,0,0,2.27-4c1.19-2.7,1.52-3.87,3.27-11.48,1.47-6.41,3.11-9.9,6.47-13.79A28.77,28.77,0,0,1,180.48,163.24Z"/><path class="cls-7" d="M223.16,175.84a4.18,4.18,0,0,0-.31,1.66,17.53,17.53,0,0,1-.81,3.74c-.64,1.93-1.11,2.65-3.41,5.17a19.68,19.68,0,0,0-3.21,4.38c-.3.78-.69,1.36-.87,1.27a4.68,4.68,0,0,1-.37-2c-.06-1.38.23-3,1.16-6.32,1.38-4.93,1.68-8.55.77-9.24-.16-.12-.26-.17-.34-.14s-.12.32-.09.95a31.44,31.44,0,0,1-1.65,7.65c-1.6,5.22-1.71,9.06-.35,11.68,1.08,2.08,1.78,3.16,2.06,3.15s.31-.73.39-1.59a14.66,14.66,0,0,1,3.67-8.53c2.57-3.12,3.5-4.95,3.85-7.58C223.91,178.09,223.62,175.54,223.16,175.84Z"/><path class="cls-7" d="M260.54,162.24c1.34.59,3,.69,3,.18,0-.16-.56-.55-1.24-.85a9.27,9.27,0,0,1-3.84-3.83c-.28-.6-.47-.83-.65-.8a.26.26,0,0,0-.18.11c-.26.27-.23.66.11,1.51C258.58,160.78,259.26,161.67,260.54,162.24Z"/><path class="cls-7" d="M229.4,174.22a7.38,7.38,0,0,0-1.9-.71h0s-.07,0-.08,0c-.26.29.75,1.69,1.67,2.31,1.15.78,3.19.86,6.62.24,3.66-.66,5.46-.48,6.82.63,1.18,1,1.49.54.65-.93s-2.14-1.89-4.71-1.55C231.43,175.17,231.36,175.17,229.4,174.22Z"/><path class="cls-7" d="M245.48,168.32c.29-.37,0-.4-1.62-.18s-2.1.18-3.08-.41a17.91,17.91,0,0,1-4-4.8c-.07-.16-.18-.24-.29-.23h0a.39.39,0,0,0-.11.06c-.45.47.36,3,1.39,4.44,1.92,2.59,4.09,3.31,6.37,2.11A5.21,5.21,0,0,0,245.48,168.32Z"/><path class="cls-7" d="M243.33,158.69c-.12,0-.16.12-.15.31,0,.66,2.3,3.54,3.3,4.19,2.25,1.45,5.22,2.13,6.24,1.42.6-.41.3-.79-.59-.75-1.43.06-4.64-1.63-6.63-3.49C244.24,159.2,243.6,158.69,243.33,158.69Z"/><path class="cls-7" d="M259.82,149.23a.32.32,0,0,0-.34-.29c-.16,0-.29.28-.28.58a4.1,4.1,0,0,0,5.53,3.56,1.81,1.81,0,0,0,.91-.82c.13-.42-.06-.48-1-.4a7.73,7.73,0,0,1-2-.09C261.79,151.56,259.84,149.81,259.82,149.23Z"/><path class="cls-7" d="M227.91,185.25c1.32,1.15,3.41,1.22,6.74.2,4.22-1.29,6.49-1.06,8.45.84,1.36,1.32,1.93,1.13,1.19-.4a5.08,5.08,0,0,0-2.91-2.61,9.29,9.29,0,0,0-2.72-.19h0a6.71,6.71,0,0,0-2.47.43c-1.07.63-6.44,1-7.93.55S226.5,184,227.91,185.25Z"/><path class="cls-7" d="M260,141.16c-.38,0-.26,1.49.17,2.21.77,1.29,3.19,1.95,4.33,1.19.5-.36.1-.81-.68-.78a5,5,0,0,1-3.16-1.95C260.46,141.45,260.16,141.16,260,141.16Z"/><path class="cls-7" d="M147.6,199.27c-.21-2.07-.29-2.81-.46-2.82h0c-.06,0-.16.14-.26.36a9.87,9.87,0,0,0-.31,3.75c.1,2.73.18,3.09,1.21,5,1.14,2.07,3,3.84,4,3.79.43,0,.23-.38-.89-1.64C148.87,205.36,148,203.17,147.6,199.27Z"/><path class="cls-7" d="M189.28,206.27c-.12-.27-.28-.43-.5-.43h-.09c-.47.09-1.23.76-2.61,2.21a46,46,0,0,1-8.31,7.33,75.55,75.55,0,0,1-12.63,7.32,9.32,9.32,0,0,0-2.48,1.42c0,.13.25.17.54.06l3.9-1.31a33.91,33.91,0,0,0,11.21-5.77C183.56,213.25,189.68,207.21,189.28,206.27Z"/><path class="cls-7" d="M244.17,199.77a7.41,7.41,0,0,0-2.78-.66c-.28,0-.43.2-.42.45,0,.65,2.44,1.83,4.62,2.27a13.44,13.44,0,0,0,7.25-.79,46.45,46.45,0,0,1,4.9-1.23c2.79-.55,2.89-.59,2-.92-1.21-.44-5.38,0-7.25.78A13.37,13.37,0,0,1,244.17,199.77Z"/><path class="cls-7" d="M258.07,207.29c0,.12.4.47,1,.91.14-.29.28-.58.41-.87a3.88,3.88,0,0,0-1.13-.22C258.17,207.13,258.07,207.19,258.07,207.29Z"/><polygon class="cls-7" points="241.39 199.11 241.39 199.11 241.39 199.11 241.39 199.11"/><path class="cls-7" d="M255.12,203.6a30,30,0,0,0-3.18-.87l-.46,0h-.15c-.7.09-.41.67.77,1.21,3.71,1.69,5.72,2.14,8.2,1.57.25-.56.5-1.13.74-1.7l-.2,0C257.51,204.34,257.46,204.34,255.12,203.6Z"/><path class="cls-7" d="M244.22,195.81c0-.13,0-.22-.14-.23h0a.59.59,0,0,0-.17,0,18.9,18.9,0,0,0-2.15.66c-2.27.74-4.15.83-7.81.41a6.19,6.19,0,0,0-2.91.1c-1.15.51-.64.8,2.27,1.37s4.45.6,6.33.07C241.2,197.78,244.24,196.18,244.22,195.81Z"/><path class="cls-7" d="M230.11,194.58a14.76,14.76,0,0,1-3.16,0,6.32,6.32,0,0,0-1.4-.12h0a.49.49,0,0,0-.24,0c-.56.21-.42,1.25.23,1.62s4.74,0,5.93-.73S232.38,194.36,230.11,194.58Z"/><path class="cls-7" d="M130.66,229.57h0c-.67.15-.73,1.79-.17,4.28a5,5,0,0,1,.06,3.28c-.42,1.37-.23,2.93.36,2.9.2,0,.51-.68.69-1.5a17.56,17.56,0,0,0-.11-6.84C131.2,229.88,131.06,229.47,130.66,229.57Z"/><path class="cls-7" d="M143.29,253.59c-1.09.32-2.1-.34-3.48-2.3a7.17,7.17,0,0,0-3.76-3.13,6.37,6.37,0,0,1-1.59-.77c-.25-.25-.64-.39-.76-.26h0c-.43.48.45,1.55,2,2.44a8.33,8.33,0,0,1,2.78,2.6c2.12,3.16,3.46,3.85,5,2.65C144.44,254.07,144.33,253.28,143.29,253.59Z"/><path class="cls-7" d="M140.1,226.64c.05,1.07,1,1.21,1,.14a6.08,6.08,0,0,0-1.43-4.26,7.27,7.27,0,0,0-1.45-1.71c-.51,0-.12,1.47.84,3.16A8.56,8.56,0,0,1,140.1,226.64Z"/><path class="cls-7" d="M141.8,238.28c-.24-1.69-.94-2.64-1.91-2.6a1.24,1.24,0,0,0-.43.06h0c-.83.25-1.07.85-.31.82.53,0,1.62,1.35,1.95,2.48C141.53,240.54,142.05,240,141.8,238.28Z"/><path class="cls-7" d="M147.3,216.58h0a5.55,5.55,0,0,0-1.77,1.25,8.2,8.2,0,0,1-3.31,2c-1.53.44-1.57.47-.83.76a3.91,3.91,0,0,0,4-.58c1-1,2.17-2.89,2-3.38A.08.08,0,0,0,147.3,216.58Z"/><path class="cls-7" d="M155.6,250.22l-2.57.33a24.57,24.57,0,0,1-1-3.29,3.53,3.53,0,0,0-.69-1.64.16.16,0,0,0-.13,0h0c-.51.14,0,4.8.66,5.76l.56.77,3.78-.31a39.26,39.26,0,0,0,4.61-.58c.46-.13.84-.42.83-.64C161.65,250,158.7,249.83,155.6,250.22Z"/><path class="cls-7" d="M248.24,215.78c-6,2.38-9.52,5.1-16.53,12.64-2.52,2.74-4.77,5.22-5,5.53-.6.86.12.65,1.24-.35.54-.5,1.06-1,1.15-1.08.33-.39,6.48-6.38,7-6.83l1.81-1.56c2.68-2.29,5.79-3.09,8.06-2.06,1.53.69,2.18,1.58,2.55,3.59l.69-.93A4.65,4.65,0,0,0,245,220l-1.1-.16.86-.39a4.76,4.76,0,0,1,5.54,1.37,5.11,5.11,0,0,1,.74,1.33c.3-.44.59-.89.88-1.34a6.39,6.39,0,0,0-2.81-2.67l-1-.47,1.79,0a4.25,4.25,0,0,1,3.17,1.26l.75-1.2a7.13,7.13,0,0,0-1.42-1.13c-.56-.33-.5-.36.62-.3a7.59,7.59,0,0,1,1.51.23c.42-.71.84-1.43,1.24-2.15l-.82,0C251.42,214.62,250.89,214.73,248.24,215.78Z"/><path class="cls-7" d="M178.06,233.56a.56.56,0,0,0-.33.17c-.1.12,0,.39.13.6,1.41,1.75,1.59,2.14,1.68,3.63a17.16,17.16,0,0,1-.11,2.92c-.25,1.72.33,1.78,1,.12s.46-5-.36-6.2A2.58,2.58,0,0,0,178.06,233.56Z"/><path class="cls-7" d="M169.12,239.3a1.68,1.68,0,0,0-1.21-.53l-.13,0c-.47.21-.47.27.09.83a4.41,4.41,0,0,1,.8,2.67c.25,2.52.43,3.06.84,2.6a7.79,7.79,0,0,0,.37-2.63C170,240.12,169.9,240,169.12,239.3Z"/><path class="cls-7" d="M203.8,218.15a.64.64,0,0,0-.59.32c-.09.17.1.44.45.6,1.06.51,1.5,2.23,1,4a13.55,13.55,0,0,0-.41,1.85c0,.67.64.28,1.09-.69a9.4,9.4,0,0,0,.54-2.74c.05-1.46,0-1.87-.64-2.56A2.07,2.07,0,0,0,203.8,218.15Z"/><path class="cls-7" d="M217.14,205.45c-1,0-.9.3.28,1.2a2.9,2.9,0,0,1,1.22,2.15c.29,1.81.42,2.15.85,2.13.25,0,.29-.64.14-2C219.38,206.69,218.46,205.39,217.14,205.45Z"/><path class="cls-7" d="M187.37,229.13h0a5.74,5.74,0,0,0-.65.1c-.72.16-.72.16.13.48,1.59.57,2,1.55,1.89,4.57,0,1.49-.14,3.09-.22,3.56-.21,1.15.4,1.1.95-.08A12.38,12.38,0,0,0,190,232C189.55,229.89,188.77,229.05,187.37,229.13Z"/><path class="cls-7" d="M209.39,213.87a3.05,3.05,0,0,0-.58.16c-.42.19-.35.34.42.9s.94.84,1.19,3.37c.22,2.37.31,2.64.69,2.23s.41-1.17.36-2.63C211.35,215.14,210.64,213.72,209.39,213.87Z"/><path class="cls-7" d="M197.38,221.29a1.35,1.35,0,0,0-.33.09c-.37.17-.21.44.75,1.28,1.45,1,1.2,1.71,1.15,3.34a9,9,0,0,0,.11,2.42c.35.32.69-.19,1-1.47C200.61,224.33,199,221.07,197.38,221.29Z"/><path class="cls-7" d="M211.3,239.27c-.2,0-.41,0-.58,0h0a50.79,50.79,0,0,0-6.64,1c-6.08,1.35-10.11,4.59-16.36,13.12a64,64,0,0,1-7.67,9.07c-.88.83-.88.85-.13.62a8.94,8.94,0,0,0,1.84-1c1.34-1,4.59-4.62,7.43-8.4s6.64-8.17,10.1-10.06a41.37,41.37,0,0,1,11-3.65,3.8,3.8,0,0,0,1.66-.58C212,239.32,211.76,239.26,211.3,239.27Z"/><path class="cls-8" d="M136.25,254.07c.11.13.23.26.34.4"/><path class="cls-7" d="M198.7,260a5.66,5.66,0,0,0-1.21-1.71l0,0a5.09,5.09,0,0,0,.46,2,8.77,8.77,0,0,0,1.4,2.57l1.15-.44A10.54,10.54,0,0,1,198.7,260Z"/><path class="cls-7" d="M192,264.06c-.47.18-.47.64-.17,1.25l1.26-.37C192.58,264.38,192.12,264,192,264.06Z"/><path class="cls-7" d="M165.69,263.26c-.34,0-.63.82-.55,2.49a5.93,5.93,0,0,0,1.38,3.72l1.27-.07c-.62-.78-.82-1.43-1-3.22S166.08,263.24,165.69,263.26Z"/><path class="cls-9" d="M132.47,117.39l-.58-.27c-2.92-1.4-5.77-2.89-9.47-2.24a22.21,22.21,0,0,1,5.64,7.94c.07.19.16.37.23.57A18.21,18.21,0,0,0,132.47,117.39Zm-4.18,3.2a26.29,26.29,0,0,0-2.52-3.83c1.5.07,2.53,1.39,3.52,2.9C129.85,120.55,128.74,121.3,128.29,120.59Z"/><path class="cls-9" d="M145.3,216.62c-.16-.26-.32-.51-.49-.75-2.41-3.55-5.27-5.55-9.64-5.08,1.7,2.44,3.18,4.28,3.82,7.19.06.25.12.5.16.77C141.64,221,144.79,218.25,145.3,216.62Zm-6.82-3.2c1.44.48,2.42,1.78,3.41,3.83.62,1-1.48,1.37-1.63.95A29.83,29.83,0,0,0,138.48,213.42Z"/><path class="cls-9" d="M182.22,135.18c4.58,5.28,15.53,4.21,21.63,9.64-1.85-7-6.62-10-11.29-13.21.73-1.63,1.76-3.15,1.81-5,0-11.74-16.75-7-14.88,3A12,12,0,0,0,182.22,135.18Zm9.36-11.84c-7-1.43-9.43,1.68-9.05,4.68,1.05,8.32,9.54,8,13.37,10.7-12-1.7-14.29-5.56-14.89-10.53S187.21,119,191.58,123.34Z"/><path class="cls-7" d="M195.9,138.72c-3.83-2.67-12.32-2.38-13.37-10.7-.38-3,2.07-6.11,9.05-4.68-4.37-4.39-11.16,0-10.57,4.85S183.92,137,195.9,138.72Z"/><path class="cls-9" d="M169.06,115.59h0c.79-3.91.66-7.87-1.19-10.31a45,45,0,0,1-4.67,6.94h0C162.51,113.12,168.12,117.07,169.06,115.59Zm-4.21-3.17a36.06,36.06,0,0,0,2.22-3.44c.33.83-.45,2.92-.86,3.68a.8.8,0,0,1-1.28.34C164.72,112.75,164.73,112.61,164.85,112.42Z"/><path class="cls-9" d="M149.9,109.26l-.27-.49c-2.14-3.93-5.36-7.48-9.73-7.78,1,2.84,2.26,4.89,2.47,8.17,0,.27,0,.53,0,.82C145.48,111.12,148,110.7,149.9,109.26Zm-6.35-.4a12.44,12.44,0,0,0-1.12-4.57,6.45,6.45,0,0,1,2.89,4.19C145.58,109.18,143.55,109.75,143.55,108.86Z"/><path class="cls-9" d="M129.18,141.06c-.3,0-.61,0-.91,0A12.42,12.42,0,0,1,121,138.4c.09,6.63,5.11,9.46,9.43,9,.19,0,.38,0,.56-.06A12.46,12.46,0,0,0,129.18,141.06Zm-5.35,2.17a20,20,0,0,0,5.38,1.73c.58.16.9,1.28.37,1.39C127.52,146.72,124,145,123.83,143.23Z"/><path class="cls-9" d="M128.91,231.82c-.51.16-1,.33-1.57.52-4,1.36-8.64,3.43-9.28,7.11a26.6,26.6,0,0,1,9.92-.81c.42,0,.85.09,1.27.16C130.07,236.74,129.73,234.47,128.91,231.82Zm-.75,3.09a20.43,20.43,0,0,0-5.34,1.41c.64-1.95,2.77-2.12,4.51-2.71C128.15,233.33,129.13,234.91,128.16,234.91Z"/><path class="cls-9" d="M132.14,249.29a.61.61,0,0,1,0,.12c-1.76,3.67-3.06,6.82-1.15,11.84a30.58,30.58,0,0,1,5.31-7.18h0c.21-.22.41-.44.62-.65A11.78,11.78,0,0,0,132.14,249.29Zm1.47,3.62a12.67,12.67,0,0,0-2,4.52,5.54,5.54,0,0,1,.83-5.73C132.84,251.3,133.87,252.56,133.61,252.91Z"/><path class="cls-9" d="M152.52,254.24l-.06,0a15.38,15.38,0,0,1-3,6.76c7.26-1.72,9.31-4.94,10.3-7.51.11-.29.21-.57.3-.83A18.74,18.74,0,0,0,152.52,254.24Zm-.4,4.71a19,19,0,0,0,1.56-4.06c.14-.47,1.39-.35,1.37.13C154.92,257.2,153.75,258.76,152.12,259Z"/><path class="cls-7" d="M166.21,112.66c.41-.76,1.19-2.85.86-3.68a36.06,36.06,0,0,1-2.22,3.44c-.12.19-.13.33.08.58A.8.8,0,0,0,166.21,112.66Z"/><path class="cls-7" d="M145.32,108.48a6.45,6.45,0,0,0-2.89-4.19,12.44,12.44,0,0,1,1.12,4.57C143.55,109.75,145.58,109.18,145.32,108.48Z"/><path class="cls-7" d="M129.29,119.66c-1-1.51-2-2.83-3.52-2.9a26.29,26.29,0,0,1,2.52,3.83C128.74,121.3,129.85,120.55,129.29,119.66Z"/><path class="cls-7" d="M129.58,146.35c.53-.11.21-1.23-.37-1.39a20,20,0,0,1-5.38-1.73C124,145,127.52,146.72,129.58,146.35Z"/><path class="cls-7" d="M141.89,217.25c-1-2.05-2-3.35-3.41-3.83a29.83,29.83,0,0,1,1.78,4.78C140.41,218.62,142.51,218.22,141.89,217.25Z"/><path class="cls-7" d="M127.33,233.61c-1.74.59-3.87.76-4.51,2.71a20.43,20.43,0,0,1,5.34-1.41C129.13,234.91,128.15,233.33,127.33,233.61Z"/><path class="cls-7" d="M132.43,251.7a5.54,5.54,0,0,0-.83,5.73,12.67,12.67,0,0,1,2-4.52C133.87,252.56,132.84,251.3,132.43,251.7Z"/><path class="cls-7" d="M153.68,254.89a19,19,0,0,1-1.56,4.06c1.63-.19,2.8-1.75,2.93-3.93C155.07,254.54,153.82,254.42,153.68,254.89Z"/><path class="cls-2" d="M107.63,95.27l-.3-1.25a11.72,11.72,0,0,0-3.84-5.83l.61-.79A12.86,12.86,0,0,1,108,92.66c1.39-2.4,5-8.32,7.31-10l.6.81c-2.72,2-7.57,10.63-7.62,10.72Z"/><path class="cls-2" d="M149.64,78.07l-.3-1.24a7.32,7.32,0,0,0-2.39-3.6l.61-.79A8.53,8.53,0,0,1,150,75.52c1-1.68,3.12-5.08,4.54-6.12l.59.81c-1.7,1.25-4.78,6.7-4.82,6.75Z"/><path class="cls-2" d="M70.21,149.69l-.3-1.23a7.32,7.32,0,0,0-2.39-3.61l.61-.79a8.53,8.53,0,0,1,2.39,3.08c1-1.68,3.12-5.08,4.54-6.12l.59.81c-1.41,1-4,5.23-4.82,6.75Z"/><path class="cls-2" d="M103.68,189.07l-.3-1.23a11.55,11.55,0,0,0-3.81-5.74l.61-.79a12.72,12.72,0,0,1,3.82,5.17c1.39-2.36,4.94-8.18,7.25-9.87l.59.8c-2.69,2-7.49,10.47-7.54,10.56Z"/></g></g></svg>