<?xml version="1.0" encoding="utf-8"?>
<!-- Generator: Adobe Illustrator 24.2.1, SVG Export Plug-In . SVG Version: 6.00 Build 0)  -->
<svg version="1.1" xmlns="http://www.w3.org/2000/svg" xmlns:xlink="http://www.w3.org/1999/xlink" x="0px" y="0px"
	 viewBox="0 0 400 400" style="enable-background:new 0 0 400 400;" xml:space="preserve">
<style type="text/css">
	.st0{fill:#EDF6F9;}
	.st1{opacity:0.6;}
	.st2{fill:#FFFFFF;}
	.st3{fill:#FFF7CA;stroke:#3D3D3D;stroke-width:7;stroke-miterlimit:10;}
	.st4{fill:#EDF6F9;stroke:#006D77;stroke-width:7;stroke-miterlimit:10;}
	.st5{fill:#63918A;stroke:#006D77;stroke-width:7;stroke-miterlimit:10;}
	.st6{fill:#83C5BE;stroke:#006D77;stroke-width:7;stroke-miterlimit:10;}
	.st7{opacity:0.2;fill:none;stroke:#FFFFFF;stroke-width:5.1409;stroke-linecap:round;stroke-miterlimit:10;}
	.st8{display:none;}
	.st9{fill:#BFA7A1;}
	.st10{fill:#FFDDD2;}
	.st11{fill:#E29578;}
	.st12{fill:none;stroke:#006D77;stroke-width:10;stroke-linecap:round;stroke-miterlimit:10;}
	.st13{fill:none;stroke:#006D77;stroke-width:7;stroke-miterlimit:10;}
</style>
<g id="Your_design">
	<circle class="st0" cx="200" cy="200" r="200"/>
	<g class="st1">
		<g>
			<g>
				<path class="st2" d="M239.8,357.6L239.8,357.6c0,0-0.1,0-0.2,0L239.8,357.6z"/>
				<polygon class="st2" points="292.6,333.4 292.5,333.4 292.5,333.5 				"/>
				<polygon class="st2" points="287,337.3 287,337.3 286.8,337.4 				"/>
				<path class="st2" d="M258.8,351.3c-0.1,0-0.2,0.1-0.2,0.1l0,0L258.8,351.3z"/>
				<path class="st2" d="M342.3,276.7c0,0,0,0.1,0,0.1C342.3,276.8,342.3,276.8,342.3,276.7L342.3,276.7z"/>
				<path class="st2" d="M294.7,332c0.1-0.1,0.2-0.2,0.3-0.2l-0.2,0.1L294.7,332z"/>
				<path class="st2" d="M126.3,83c0.1-0.1,0.1-0.1,0.2-0.1l-0.1,0.1L126.3,83z"/>
				<polygon class="st2" points="297.7,102.7 297.6,102.6 297.6,102.6 				"/>
				<polygon class="st2" points="299.3,104.3 299.2,104.2 299.2,104.2 				"/>
				<path class="st2" d="M117.6,312.8l0.3,0.2c0,0,0.1,0,0.1,0L117.6,312.8z"/>
				<path class="st2" d="M66.1,164.5c0,0.1,0,0.1-0.1,0.2c0,0,0,0,0,0.1L66.1,164.5z"/>
				<polygon class="st2" points="115.2,89.7 115.2,89.8 115.1,89.9 				"/>
				<path class="st2" d="M162.8,41.7l0.1,0c0,0,0,0,0,0L162.8,41.7z"/>
				<polygon class="st2" points="230.8,40.4 231,40.4 231,40.4 				"/>
				<path class="st2" d="M231.2,40.7L231.2,40.7c-0.1,0-0.2,0-0.3-0.1L231.2,40.7z"/>
				<path class="st2" d="M109.6,335.3C109.5,335.2,109.5,335.2,109.6,335.3l-0.1-0.1L109.6,335.3z"/>
				<path class="st2" d="M241.4,42.5c0,0,0.1,0,0.1,0l0.1,0L241.4,42.5z"/>
				<path class="st2" d="M44.5,153.5c0,0.1,0,0.1,0,0.1L44.5,153.5L44.5,153.5C44.5,153.5,44.5,153.5,44.5,153.5z"/>
				<path class="st2" d="M354.9,198.7c-0.1-1.7-0.2-3.3-0.3-4.7c0-0.7-0.1-1.3-0.1-1.9c-0.1-0.6-0.1-1.2-0.2-1.7
					c-0.3-2.1-0.5-3.6-0.7-4.6c-0.4-2-0.6-2-0.8-1.2c-0.4,1.6-0.5,6.5-1,6.1c-0.1,0-0.1-0.3-0.2-0.4l0,0.2l-0.1,0l0-0.1
					c-0.6,0-1.2,0-1.8,0.1c-0.2,0.1-0.4,0.4-0.7-0.4c-0.1-0.4-0.3-1.2-0.5-2.4c-0.2-1.2-0.4-3-0.8-5.4c-0.2-1.1-0.4-2.3-0.5-2.1
					c-0.1,1.9-0.6,1.5-1.1,0c-0.3-0.7-0.6-1.7-0.9-2.8c-0.4-1.1-0.8-2.2-1.1-3.4c-0.4-1.1-0.7-2.2-1.1-3c-0.3-0.8-0.7-1.4-0.9-1.7
					c-0.5-0.5-0.6,0.5-0.4,4.2c0.2,3.6,0,4-0.8,1c-0.2-0.7-0.4-1.7-0.7-2.9c-0.3-1.2-0.7-2.5-1-4.1c-0.4-1.6-0.8-3.4-1.4-5.4
					c-0.3-1-0.6-2.1-0.9-3.2c-0.2-0.6-0.3-1.1-0.5-1.7c-0.2-0.6-0.4-1.2-0.6-1.8c0,0-0.1-0.3-0.1-0.3l0.2,0.6c0.1,1.8,0,3.8-0.1,5.3
					c-0.1,0.8-0.6-0.2-1.4-2.6c-0.4-1.2-1-2.8-1.7-4.6c-0.6-1.9-1.5-4-2.4-6.4c-3.5-8.7-5.5-11.7-6.1-12.5c-0.6-0.8-0.1,0.9,0.1,2
					c0.3,1.4-1.4-1.2,0.5,3.3c0.4,1.1-0.1,0.4-1.9-3.2c-0.4-0.9-0.9-1.8-1.4-2.7c-0.5-0.9-1-1.8-1.5-2.6c-0.9-1.6-1.5-2.8-1.4-3
					c-2.2-2.9-3.6-4.7-8.2-11.8c-0.5-0.8-1.3-1.8-2.2-3c-0.5-0.6-0.9-1.2-1.4-1.8c-0.5-0.6-1.1-1.2-1.6-1.8
					c-1.1-1.2-2.2-2.5-3.2-3.5c-1.1-1-2-1.9-2.7-2.4l-1.1-1.4c-0.1-0.1-0.3-0.2-0.4-0.2c-0.7-0.7-1.6-1.5-2.2-2.1
					c-1.1-1.1-1.9-2-2.8-2.9c-0.9-0.9-1.8-1.8-2.9-2.7c-0.5-0.5-1.1-1-1.7-1.5c-0.6-0.5-1.3-1-2-1.6c-1.5-1.1-3.2-2.5-5.6-3.8
					c-1.5-0.9-6.6-4.6-12.7-8c-6-3.5-12.9-6.9-16.8-8.7c-1.1-0.5-2.1-1-3.3-1.5c-1.1-0.4-2.3-0.9-3.5-1.3c-1.2-0.4-2.5-0.9-3.8-1.2
					c-1.3-0.3-2.7-0.7-4.2-1.1c-0.3-0.1-0.9-0.2-1.6-0.3c-0.7-0.1-1.6-0.2-2.3-0.4c-1.5-0.3-2.5-0.6-1.6-0.7c0.1,0-0.5-0.2-0.7-0.2
					c-0.5-0.1-1.3-0.3-2-0.4c-0.7-0.1-1.2-0.2-1.1-0.1c0.3,0.4-0.5,0.4-2.4,0.1c-1-0.1-2.2-0.4-3.7-0.7c-1.5-0.2-3.3-0.5-5.3-0.9
					c-0.5-0.1-2.5-0.2-3.9-0.3c0.4,0.1,2.5,0.4-0.6,0.2c-1.2-0.1-2.3-0.2-3.3-0.2c-1-0.1-1.9-0.1-2.8-0.1c-1.7-0.1-3.2-0.2-4.6-0.3
					c-1.4,0-2.7-0.1-4.1-0.1c-1.4,0-2.8-0.1-4.5,0l0,0c-4.1,0.4-5.8,0.2-7.8,0.3c-2,0.1-4.3,0.1-9.6,1.3l0.1,0c2-0.3,4-0.7,5.4-0.7
					c1.4-0.1,2.1-0.1,1.4,0.2c-1.5,0.5-6,1.1-9.5,1.8c-3,0.7-6.2,1.3-9.2,2.2c-1.5,0.4-3,0.8-4.3,1.3c-1.3,0.5-2.6,1-3.7,1.5
					c-0.1,0.1-0.7,0.3-1.6,0.6c-0.8,0.3-1.9,0.7-3,1.2c-1.1,0.4-2.3,0.9-3.3,1.2c-1,0.4-1.8,0.7-2.3,0.8c-0.2,0-1.4,0.6-2.2,0.9
					c-0.9,0.4-2.1,0.9-3.1,1.5c-1,0.5-1.8,0.9-1.8,1c-1.3,1.3-6.6,3.7-10.5,6.2c0.7-0.5,1.3-0.9,1.8-1.2c0.5-0.3,0.9-0.6,1.2-0.8
					c0.7-0.4,1-0.7,1.4-1.1c0.4-0.3,0.8-0.6,1.5-1.1c0.4-0.2,0.8-0.5,1.3-0.8c0.5-0.3,1.2-0.6,2-1.1c-0.7,0.3-1.3,0.6-1.9,0.9
					c-0.6,0.3-1.2,0.6-1.8,0.9c-1.2,0.7-2.7,1.4-4.5,2.6l0.1,0.1l-0.1,0.1c-4.9,3.6-8.1,5-12.2,8.3l-0.5,0.2
					c-4.8,3.7-9.3,7.9-13.7,12.2c-2.1,2.2-4.3,4.4-6.2,6.8c-2,2.3-3.8,4.7-5.6,7.1l2.3-2.8c0.8-0.9,1.5-1.9,2.3-2.7
					c-0.7,0.9-1.7,2.3-2.9,3.8c-0.6,0.7-1.2,1.5-1.7,2.2c-0.6,0.7-1,1.5-1.5,2.1c-3.9,5.6-8.3,12.1-11.4,19.2
					c-0.3,0.6-0.6,1.3-1,2.1c-0.4,0.8-0.7,1.7-1.2,2.7c-0.4,1-0.9,2-1.4,3c-0.5,1.1-0.9,2.2-1.4,3.4c-0.5,1.2-1,2.3-1.4,3.5
					c-0.4,1.2-0.9,2.4-1.3,3.7c-0.9,2.4-1.6,4.8-2.3,7c-0.1,0.2-0.2,0.8-0.2,0.9c0,0.2,0,0.3,0,0.4c-0.6,2-1.1,4.4-1.8,6.9
					c-0.5,2.5-1,5.2-1.4,7.8c-0.3,2.6-0.7,5-1,7c-0.2,2-0.5,3.6-0.8,4.6c-0.3,0.8-0.2,5.6-0.2,8.6c0,1.6,0.1,3.6,0.1,5.3
					c0,0.9,0,1.7,0.1,2.4c0,0.7,0.1,1.2,0.1,1.6c0,2.7-0.4-2.5-0.4-3.7c-0.2-1.9-0.2,0.7-0.1,2.3c0.1,2.2,0.2,4.3,0.3,6.4
					c0.2,2.1,0.5,4.3,0.8,6.5c0.4,2.4,0.1-0.8-0.1-2.6c-0.4-5,0.4,2.1,0.5,1.7c0.2,1.4,0.4,2.8,0.7,4.2c0.3,1.4,0.5,2.7,0.7,4
					c0.6,2.6,1.1,5,1.4,7.5c0.1,0.5,0.4,1.6,0.7,3c0.4,1.4,0.8,3.2,1.5,5.2c0.3,1,0.7,2,1,3c0.3,1,0.7,2,1.1,3
					c0.8,2,1.5,3.9,2.2,5.6l-0.1-0.2c0.1,0.6,0.5,1.7,1.1,3c0.5,1.3,1.2,2.9,2,4.4c0.8,1.5,1.6,3.1,2.3,4.5c0.8,1.3,1.4,2.5,1.9,3.3
					c4.9,8.5,10.8,16.7,17.5,24.1c6.7,7.4,14.1,13.8,21.7,19c0,0,0.1,0,0.1,0.1c3.5,2.5,7.1,4.9,10.8,7.1l-0.1-0.1
					c13.9,8.8,29.8,15,47,17.7l-3.5-0.9l-0.2,0c1.5,0.2,3,0.5,4.5,0.7c0.7,0.1,1.5,0.2,2.2,0.4c0.7,0.1,1.5,0.2,2.3,0.3
					c1.5,0.2,3.1,0.4,4.6,0.6c1.6,0.1,3.2,0.3,5,0.5c2.4,0.3,5.3,0.3,8,0.4l-3.7,0l-1.9,0l-1.9-0.1l-0.8,0.1c1,0.1,2,0.2,2.9,0.2
					l0.2,0l4.6,0.1c0.8,0,1.5,0,2.3,0l2.3-0.1l4.6-0.1l4.6-0.4l2.3-0.2c0.8-0.1,1.5-0.2,2.3-0.3l4.6-0.6c1.5-0.2,3-0.5,4.6-0.8
					l2.3-0.4c0.8-0.1,1.5-0.3,2.3-0.5c-0.1,0-0.2,0.1-0.4,0.1l0.5-0.1c1.3-0.4,2.7-0.8,4.1-1.2c1.4-0.4,2.8-0.9,4.3-1.3
					c3-0.8,6-1.9,9.1-2.9c1.5-0.5,3-1.1,4.5-1.7c0.8-0.3,1.5-0.6,2.3-0.9c0.7-0.3,1.5-0.7,2.2-1c1.5-0.7,2.9-1.3,4.3-2
					c1.4-0.7,2.7-1.4,4-2.1l0.1,0c7.3-3.4,14.9-9,21.6-14c0.7-0.5,2.2-1.8,4.1-3.4c0.8-0.6,1.8-1.4,2.8-2.2c1-0.8,2-1.7,3-2.5
					c1-0.9,1.9-1.7,2.6-2.5c0.7-0.8,1.2-1.5,1.3-2.1c0,0,0.2-0.2,0.4-0.5c0.3-0.3,0.6-0.7,1-1.1c0.7-0.8,1.5-1.6,1.6-1.7
					c6.4-5.9,11.1-13.2,15.4-20.5c0,0,0,0,0,0c7.4-12.2,11.2-22.3,12.4-22.7c0.9-0.2,4.4-9.4,6.3-18c0.4-1.7,0.7-3.1,1-4.4
					c0.2-1.3,0.5-2.5,0.7-3.5c0.4-2,0.8-3.4,1-4.5l0-0.1l0.1,0l0,0.1c0.9-3.7,1.7-5.7,2.2-7.3c0.6-1.5,1.1-2.5,1.7-4
					c0.1-0.2,0.1,1.1,0.1,1.4c-0.1,1.5-0.2,2.8-0.3,3.9c-0.1,1.2-0.3,2.2-0.4,3.1c-0.2,1.8-0.4,3.1-0.4,4c-0.2,1.8-0.2,2,0,1.5
					c0.4-1,1.1-4.8,1.2-4.2c0.8,5,3-1.3,4.7-4.1c0.3-0.5,0.7-2.4,0.8-1.8c0.1,0.3,0.1,1.2-0.1,3.2c-0.1,1-0.3,2.3-0.5,3.9
					c-0.1,0.8-0.2,1.7-0.3,2.7c-0.1,1-0.4,2.1-0.6,3.2c-0.8,4-0.6,4.1-0.4,4c1.5-0.8,3.1-2.3,4.4-2c0.3,0.1,0.8-1.7,1.4-3.9
					c0.5-2.3,1-5.1,1.5-7.1c2.1-11,3.1-9.2,4.6-16.6c0.1-0.7,0.3,0.7,0.3,1.9c0,2-0.1,3.9-0.1,5.9c-0.1,2-0.3,4-0.4,6
					c-0.1,1-0.1,2-0.2,3l-0.4,3l-0.4,3c-0.1,1-0.2,2-0.4,3c-0.3,2-0.7,3.9-1,5.9c-0.4,2-0.8,3.9-1.2,5.8c-0.2,1-0.4,1.9-0.6,2.9
					c-0.3,0.9-0.5,1.9-0.8,2.8c-0.5,1.9-1,3.8-1.6,5.6c-0.7,2.2-1.5,4.5-2.3,6.8c-0.9,2.3-1.8,4.6-2.7,6.9c-1,2.2-1.9,4.4-2.8,6.4
					c-0.9,2-1.8,3.8-2.4,5.4l0.1-0.1c-0.6,1-1.1,2.1-1.7,3.1c0.3-0.4,0.4-0.6,0.4-0.6c-0.4,0.9-1.2,2.3-1.2,2.3
					c0.2,0.5-0.6,2.2-1.8,4.8c-0.7,1.3-1.5,2.7-2.5,4.2c-1,1.6-2,3.3-3.3,5c-1.2,1.7-2.5,3.6-3.9,5.3c-1.4,1.8-2.8,3.6-4.3,5.3
					c-1.5,1.7-3,3.4-4.4,5c-1.4,1.6-2.9,3.1-4.2,4.5c-0.7,0.7-1.4,1.5-2.1,2.2l-2.2,2.1l0.2-0.1c-1.4,1.3-2.8,2.6-4.2,3.9l-4.4,3.7
					c-1.5,1.2-3,2.3-4.5,3.5l-2.3,1.7l-2.3,1.6c1.6-1.2,2.6-1.9,3.1-2.4c0.5-0.5,0.7-0.6,0.5-0.5c-0.3,0.2-1.9,1.3-3.6,2.4
					c-0.9,0.7-1.7,1.4-2.6,2.1c-1.8,1.4-3.7,2.6-5.5,3.8c-0.6,0.2-1.5,0.7-2.7,1.3c-1.2,0.6-2.6,1.4-4.1,2.4
					c-7.3,4.6-14.2,7.6-21.6,10.3c-1.1,0.4-2.2,0.8-3.2,1.1c-1,0.3-1.9,0.6-2.7,0.9c-1.7,0.6-3.1,1.1-4.4,1.6
					c-2.7,0.9-5.1,1.8-8.5,2.7c0.2-0.1,0.4-0.2,0.6-0.3c-0.1,0-0.2,0-0.3,0l0.3,0c-2.7,0.5-5.5,1-8.2,1.4l0.3,0l-0.8,0l0,0
					c-1.4,0.2-2.8,0.3-4.1,0.5c-0.1,0-0.2,0.1-0.3,0.1c-0.8,0.2-1.7,0.5-2.6,0.7c-0.9,0.2-1.8,0.3-2.7,0.4c-1.9,0.2-3.7,0.5-5.6,0.6
					c-3.8,0.2-7.4,0.4-10.6,0.5c-4.3,0.3-0.1,0.3,3.7,0.2c3.8-0.2,7-0.3,0.7,0.4c-0.3,0-0.9,0.1-1.6,0.1c-0.7,0-1.4,0-2,0
					c0,0,0,0,0,0c-2.3,0-4.7,0.1-7.1,0.1c-2.4-0.1-4.8-0.1-7-0.2c-2.2-0.1-4.4-0.2-6.2-0.3c-0.9,0-1.8-0.1-2.6-0.1
					c-0.8,0-1.5-0.1-2.2-0.1c-8-1-16.5-2.9-23.8-4.6c-3.3-0.8-6-1.5-8.4-2.4c-1.2-0.4-2.3-0.8-3.4-1.2c-0.5-0.2-1.1-0.4-1.6-0.6
					c-0.5-0.2-1-0.4-1.5-0.7c-2-0.9-3.9-1.7-5.9-2.6c-2-1-4.2-2-6.8-3.1c1,0.4,1.9,0.7,2.9,1.1c-1.2-0.5-2.3-1-3.5-1.5l-3.4-1.7
					c-1.1-0.6-2.3-1.1-3.4-1.7l-3.3-1.8c0,0.2-1-0.2-2.8-1.2c-1.7-1-4.1-2.6-6.8-4.3c-0.7-0.5-0.2-0.3-0.1-0.3
					c0.1,0-0.1-0.2-2.2-1.7c-0.2,0.1-0.4,0.1-3.6-2.1c-1.7-1.3-3.2-2.8-4.8-4.2c-0.8-0.7-1.6-1.4-2.4-2.2c-0.8-0.7-1.5-1.5-2.3-2.3
					c-0.8-0.8-1.5-1.5-2.5-2.4c-1-0.9-2.1-2-3.8-3.5c-2.5-2.2-1.7-1.3,1,1.5c4.9,4.9-5.6-4.9-1.3-0.6l-0.2-0.2
					c-0.9-0.9-1.7-1.7-2.4-2.4c-0.7-0.7-1.2-1.4-1.8-2c-1-1.2-1.9-2.2-2.7-3.2c-0.9-1-1.7-2.1-2.8-3.5c-1.1-1.4-2.5-3-4.3-5.3
					c0,0-0.3-0.3-0.3-0.3l0.5,0.6l1.2,1.8l1.3,1.8c1.2,1.5,2.4,3,3.6,4.5c0,0-0.4-0.5-0.4-0.5l0.2,0.3c0.8,1.1,1.6,2.1,2.3,3.1
					c-1.4-1.4-2.7-2.8-4-4.4c-1.3-1.5-2.6-3-3.9-4.5l-3.7-4.7l-0.9-1.2l-0.9-1.2l-1.7-2.4c0.6,0.1-1.6-3-4.1-7c-0.6-1-1.3-2-2-3.1
					c-0.6-1.1-1.2-2.1-1.8-3.2c-0.6-1-1.1-2-1.7-2.9c-0.5-0.9-0.9-1.7-1.2-2.4c-1.1-2.4-1.9-4-2.4-5c-0.5-1.1-0.7-1.6-0.9-1.8
					c-0.3-0.4-0.1,0.3-0.4-0.1c-1.1-2.1-2.8-5.8-2.9-6.7c-1.7-6.2-5.8-17-8.2-27.3l0,0.2c-0.2-0.8-0.3-1.5-0.4-2.1
					c-0.1-0.6-0.2-1.1-0.3-1.5c-0.2-0.9-0.3-1.4-0.4-1.8c-0.2-0.8-0.4-1-0.6-1.9c-1.3-8.2-2.6-16-2.3-24.7l0,0c-0.2-3.2,0-6.4,0-9.7
					c0-1.6,0.2-3.2,0.3-4.9c0.1-1.6,0.2-3.2,0.4-4.9c0.2-1.6,0.4-3.2,0.6-4.9c0.2-1.6,0.4-3.3,0.7-4.9c0.6-3.2,1.1-6.5,2-9.7
					c0.2-0.3,0.2,0.7,0.5-0.1c0.3-0.8,0.8-3.3,2.7-10.4l0,0l0,0c0-0.1,0-0.1,0.1-0.2c0,0,0,0.1-0.1,0.2c-0.4,0.2,0.1-1.9,1.1-4.7
					c0.5-1.4,1-3,1.6-4.6c0.6-1.6,1.2-3.1,1.7-4.4l0.1-0.3c-0.7,2.2-1.4,4.3-1.9,6.5c0.5-1.5,1-2.9,1.6-4.3l1.7-4.3
					c0.3-0.9,0.8-1.7,1.1-2.6l2.3-4.5c0.4-0.7,0.8-1.4,1.2-2.2l-0.1-0.1c2.8-5.8-0.6,0.7-0.5,0.4l0.4-1l0.9-1.9l-0.1,0.2l1.3-2.5
					l-0.1,0.2c3.6-6.2,7.3-12.5,11.5-18.3l1.6-2.2l1.6-2.2l3.3-4.3c2.4-2.7,4.7-5.6,7.2-8.1c2.8-3.1,7.1-7.3,7.8-7.4
					c1.2-1.3,2.5-2.3,3.6-3.3c1.1-1,2.1-1.9,3-2.8c1.8-1.6,3.3-2.9,4.2-3.9l0,0c0.5-0.3,0.2,0.1,0.4,0.1c0.1,0,0.3-0.1,0.8-0.5
					c0.3-0.2,0.6-0.4,1.1-0.7c0.5-0.3,1-0.7,1.7-1.2c1.1-0.8,2.6-1.9,3.9-2.8c-3.6,1.6,7.1-5.2,10.9-7.2c11.6-6.7,13.2-6.6,10.6-4.9
					l-0.6,0.3l0.4-0.2c5.8-2.8,11.8-5.6,17.9-7.7l-0.2,0.1c2.1-0.7,4.2-1.5,6.3-2.1h0c1-0.4,3.1-0.9,5.1-1.5c2-0.5,3.8-0.9,4.1-1.1
					l3.6-0.8c1.2-0.3,2.4-0.4,3.6-0.6l2.5-0.3c2.5-0.4,5-0.6,7.6-0.9l0,0c12-1.2,23.1-1.4,33.9-0.8c1.3,0.1,0.6-0.3,3.5,0.2
					c1.2,0.2,0.6,0.3-0.3,0.3c-0.7-0.1-5.1-0.5-5.4-0.3c0,0,1.3,0.2,1.5,0.2c0.8,0,1.7,0.1,2.7,0.2c1,0.1,2,0.3,3,0.4
					c2,0.3,3.7,0.5,4.4,0.4c1.6,0.1,3.2,0.5,4.7,0.7l-0.1,0c1,0.3,2.4,0.5,3.7,0.8c1.3,0.2,2.5,0.5,3.1,0.6c0.8,0.1,0.4,0-0.5-0.3
					c-0.9-0.2-2.3-0.6-3.4-0.7l-0.2-0.3c1.3,0.2,2.6,0.5,3.9,0.8c1.3,0.3,2.6,0.6,3.9,0.9c0,0-0.1,0-0.1,0c1,0.1,1.9,0.3,2.9,0.5
					c0.6,0.2,1.2,0.3,1.8,0.5l0,0c2.5,0.8,5.1,1.5,7.5,2.5c2.5,0.9,5,1.8,7.4,2.8l-0.2-0.1c1.5,0.7,3.1,1.3,4.5,1.8
					c1.4,0.6,2.7,1.2,3.8,1.6c2.2,0.9,3.8,1.5,4.1,1.6c1.6,0.5,3.5,1.3,5.7,2.4c0.5,0.3,1.1,0.5,1.7,0.8c0.6,0.3,1.1,0.6,1.7,1
					c1.1,0.7,2.3,1.4,3.5,2.1c1.2,0.7,2.4,1.5,3.6,2.3c1.2,0.8,2.4,1.6,3.6,2.4c2.4,1.6,4.6,3.3,6.7,4.8c7.1,5.1,14.3,12,13.8,12.6
					c-0.3,0.4,3.1,3.5,7,7.8c2.1,2.1,4.1,4.6,6.2,6.9c2,2.4,3.8,4.8,5.3,6.7c3.9,5.5,8.5,12.2,12.1,18.8c3.3,6.2,4.5,9.3,3.5,7.7
					c-2.2-3.4-3-4.3-2.8-3.4c0.1,0.4,0.4,1.3,1,2.5c0.3,0.6,0.6,1.3,0.9,2c0.3,0.8,0.7,1.6,1,2.5c0.7,1.8,1.7,3.7,2.5,5.9
					c0.8,2.2,1.7,4.4,2.6,6.7c0.8,2.3,1.6,4.7,2.3,7c0.6,2.3,1.2,4.5,1.8,6.5c2,8.3,3.8,17.6,4.5,26.4c0.2,2.6,0.3,4.4,0.3,5.6
					c0,1.2-0.1,1.9-0.1,2.3c-0.1,0.7-0.3,0.1-0.5-0.1c-1.1-1.5-2,4.1-3,6.4C355.2,200.1,355,200,354.9,198.7z M344.6,270.6l-0.4,1
					c0.3-0.7,0.7-1.4,1-2.1C345.1,269.9,344.8,270.2,344.6,270.6z M342.1,275.7c0.4-0.6,0.8-1.2,1.3-1.8c0.2-0.6,0.5-1.3,0.7-1.9
					L342.1,275.7z M341.8,277.4C341.8,277.4,341.8,277.4,341.8,277.4l0.1-0.2L341.8,277.4z M295.5,330.6c-1.3,1-3.3,2.4-3.7,2.8
					c-1.2,1.1,1.5-0.9,2.9-1.9C292.3,333.1,296.4,330.1,295.5,330.6z M231.8,358.7c1.9-0.4,3.7-1,5.6-1.5c-0.6,0.1-1.3,0.3-1.9,0.4
					C231.5,358.5,232.1,358.5,231.8,358.7z M220.8,360.2c1.8-0.3,3.7-0.4,5.5-0.8c-1.8,0.4-3.6,0.5-5.4,0.8
					C220.8,360.2,220.8,360.2,220.8,360.2z M177.8,338.3l-1.6-0.4l0.8,0.3L177.8,338.3z M119.2,340.4l0.2,0.4
					C120.5,341.3,122.2,342.2,119.2,340.4z M140.3,350.3c-1-0.4-1.9-0.8-2.9-1.2c-1-0.4-2-0.9-3-1.3c-1-0.4-2-0.9-3-1.3l-1.5-0.7
					l-1.5-0.7c1.5,1,3,1.8,4.5,2.7c4.6,1.9,7,2.8,9.2,3.9c2.1,1.1,4.1,1.9,8.1,3.1c0.9,0.3,1.4,0.7,3.9,1.2c0.7,0.1-0.1-0.2-0.2-0.3
					c-2.8-0.7-4.6-1.4-5.9-1.9c-1.3-0.5-2.2-0.9-2.9-1.2c-1.4-0.6-2.1-1.2-5-2.3L140.3,350.3z M115.3,338.6c1.2,0.7,2.4,1.3,3.6,2
					c0,0,0,0,0.2,0c-1.3-0.7-2.6-1.4-3.8-2.2C115.2,338.4,115.3,338.6,115.3,338.6z M72.1,300c0.3,0.4,0.5,0.8,0.9,1.2
					c2,2.6,2.7,3.1,3,3.3C74.6,303.1,73.4,301.6,72.1,300z M37.6,194.7c0,1.9,0,3.5-0.1,4.9c0,1.4,0,2.4-0.1,3.1
					c0.2,3.1,0.4,2.7,0.5,1.5c-0.1-0.7-0.1-1.7-0.1-2.6c0-0.5,0-1-0.1-1.5c0-0.5,0-1,0-1.5C37.7,196.6,37.7,194.9,37.6,194.7z
					 M55.2,127.7l-0.2,0.5l0.1-0.2C55.1,128,55.2,127.7,55.2,127.7z M87.5,118.4c0.4-0.6,0.8-1.3,1.2-1.9c-0.8,1-1.6,2.1-2.4,3.1
					l-0.1,0.2l0.2-0.3L87.5,118.4z M117.6,87.7l-0.5,0.3c-0.7,0.5-1.3,1.1-2,1.7C115.9,89,116.7,88.3,117.6,87.7z M177.2,39.6
					c0,0,0.2,0,0.2,0l0,0l0.5-0.1C177.7,39.5,177.5,39.5,177.2,39.6z M200.1,61c-4.8,0-7.4,0.1-8.5,0.5c1.4-0.2,2.8-0.2,4.2-0.3
					L200.1,61z M200.4,61.1c0,0-0.1,0-0.1,0C200.4,61.1,200.4,61.1,200.4,61.1L200.4,61.1z M210.8,62.1c-1.3-0.1-2.5-0.2-3.8-0.4
					l-0.1,0.1L210.8,62.1z M297.2,101.8l0.3,0.3L297.2,101.8L297.2,101.8z M317.1,126.2l1.4,2.1c-0.1-0.2-0.3-0.4-0.4-0.6
					L317.1,126.2z"/>
				<path class="st2" d="M223.6,39.6L223.6,39.6c0.1,0,0.1,0,0.1,0L223.6,39.6z"/>
				<path class="st2" d="M52.5,268.6c0,0,0-0.1-0.1-0.1c0,0,0,0,0,0L52.5,268.6z"/>
				<polygon class="st2" points="103.8,331.2 103.6,331.1 103.6,331.1 				"/>
				<polygon class="st2" points="170,40.3 170.2,40.2 170.3,40.2 				"/>
				<path class="st2" d="M39.7,227.6l0-0.1c0,0,0-0.1,0-0.1L39.7,227.6z"/>
				<path class="st2" d="M41.2,164C41.2,164,41.2,164,41.2,164l0.1-0.2L41.2,164z"/>
			</g>
		</g>
	</g>
</g>
<g id="Layer_2">
</g>
<g id="Layer_3">
	<g>
		<path class="st3" d="M164.7,327v9.2c0,7.9,15.8,14.4,35.3,14.4s35.3-6.4,35.3-14.4V327H164.7z"/>
		<path class="st4" d="M196.5,76.6c-49.1,1.9-87.5,41.8-87.4,91c0,23.1,8.6,44.2,22.8,60.2c9,10.2,16.4,21.6,21.8,33.9H246
			c5.2-12,12.4-23.1,21.3-32.9c14.7-16.2,23.7-37.6,23.7-61.2C291,116.1,248.3,74.6,196.5,76.6z"/>
	</g>
	<g>
		<path class="st5" d="M164.7,327v9.2c0,7.9,15.8,14.4,35.3,14.4s35.3-6.4,35.3-14.4V327H164.7z"/>
	</g>
	<path class="st6" d="M225.9,330.9h-51.8c-11.8,0-21.4-9.6-21.4-21.4v-47.8h94.7v47.8C247.3,321.3,237.7,330.9,225.9,330.9z"/>
	<path class="st7" d="M236.6,296.4v8.5c0,8.7-7.1,15.7-15.7,15.7"/>
	<g id="zWb3oE.tif" class="st8">
		
			<image style="display:inline;overflow:visible;" width="790" height="600" id="Layer_0" xlink:href="9A392F8C12ACEDF6.png"  transform="matrix(0.5 0 0 0.5 2.5 50)">
		</image>
	</g>
	<g>
		<path class="st9" d="M127.1,183l11.7,7c5.3,3.2,12.2,1.5,15.4-3.8l29.6-48.7c4.2-6.9,0-15.8-7.9-17l-17.2-2.6
			c-4.7-0.7-9.3,1.6-11.6,5.7l-24.2,44.3C120,173.2,121.9,179.9,127.1,183L127.1,183z"/>
		<path class="st9" d="M287.5,167.5c0,20.5-7.2,40.3-20.2,56c-0.2,0-0.5,0-0.7,0c-3,0-6.1-1.3-8.1-4l-0.4-0.5
			c-1.7-2.2-4.2-3.6-6.9-4l-0.5-0.1c-5.1-0.6-9-4.9-9-10.1V176c0-4.2,2.5-7.9,6.4-9.4l28.5-11.3c3.6-1.4,7.5-0.6,10.3,1.7
			C287.3,160.4,287.5,163.9,287.5,167.5z"/>
		<path class="st9" d="M220.7,151.3l-15.8-9c-3.2-1.8-4.5-5.7-3.1-9.1l6.8-16.3c1.6-3.9-0.4-8.4-4.4-9.7l-8.3-2.8
			c-4.2-1.4-6.2-6.2-4.2-10.2l1.8-3.7c1.1-2.3,3.4-3.8,6-4c8-0.6,26.2-0.1,48.1,13.6c8.8,6,17.5,17.8,22.7,25.6
			c2.6,3.9,0.9,9.2-3.5,10.9l-39.7,15.3C224.9,152.5,222.6,152.4,220.7,151.3z"/>
	</g>
	<g>
		<g>
			<g>
				<path class="st10" d="M237.3,108.6l-0.3-0.1c-1.7-0.7-3.5-0.7-5.2,0l-0.8,0.3c-2.2,0.9-3.8,2.9-4.1,5.3
					c-0.1,0.9-0.1,1.8,0.1,2.6c0.3,1.3,1.1,2.6,2.1,3.5c0.7,0.6,1.5,1,2.4,1.3l0.4,0.1c0.4,0.1,0.8,0.1,1.2,0
					c-0.3,0.8-0.5,1.6-0.5,2.4l-0.8,62.7v0l-0.1,4.6l-0.4,28.4l0,1.5c0,1.1,0.9,2,2,2h0c0.1,0,0.3,0,0.4,0l0.2,0
					c0.8-0.2,1.4-1,1.4-1.9l0-2.6l0.4-28.6l0.9-66.1c0-0.7,0.3-1.5,0.8-2l1.9-1.8c1.3-1.3,2.1-3,2.1-4.9v-0.6
					C241.5,112.1,239.8,109.7,237.3,108.6z M237.5,115.4c0,0.8-0.3,1.5-0.9,2l-1.9,1.8l-0.2,0.2c-0.1-0.7-0.6-1.4-1.4-1.6l-0.4-0.1
					c-1.3-0.4-2.1-1.7-1.9-3c0.1-1,0.8-1.8,1.7-2.2l0.8-0.3c0.3-0.1,0.7-0.2,1-0.2c0.4,0,0.7,0.1,1.1,0.2l0.3,0.1
					c1,0.4,1.7,1.4,1.7,2.6V115.4z"/>
			</g>
		</g>
		<g>
			<g>
				<path class="st10" d="M119.4,164.5c0-0.2-0.1-0.4-0.1-0.6c0-0.5,0.1-1,0.4-1.5l17.8-27.9c-0.4,0.5-1,0.8-1.6,0.8
					c-0.3,0-0.7-0.1-1-0.3l-1.9-1l-16.8,26.2c-0.5,0.8-0.9,1.8-1,2.8c0,0.1,0,0.3,0,0.4c0.3,0,0.7,0,1,0.2l0.2,0.1l4,2.5
					C120,165.9,119.6,165.3,119.4,164.5z M172.1,139.2c-0.2-0.6-0.4-1.2-0.8-1.8c-0.6-1-1.5-1.9-2.6-2.5l-11.3-6.1l-3.5-1.9
					l-6.5-3.5c-0.9-0.5-1.9-0.8-2.9-0.8c-1.4-0.1-2.7,0.3-3.9,1c-0.8,0.5-1.6,1.2-2.1,2.1l-3.2,5l-2.2,3.4l-16.8,26.2
					c-0.5,0.8-0.9,1.8-1,2.8c0,0.1,0,0.3,0,0.4c-0.1,0.6,0,1.3,0.1,2c0.2,0.7,0.4,1.3,0.7,1.9c0.5,1,1.3,1.8,2.3,2.4l6.6,4.1
					l3.4,2.1l10.5,6.4c0.9,0.6,1.9,0.9,2.9,0.9c0.2,0,0.3,0,0.5,0c1.2,0,2.4-0.3,3.4-0.9c0.2-0.1,0.3-0.2,0.4-0.3
					c0.7-0.5,1.4-1.1,1.9-1.9l17.2-26.6l2.2-3.4l3.7-5.7c0.7-1,1-2.2,1.1-3.4C172.3,140.4,172.2,139.8,172.1,139.2z M167.9,142.3
					l-4.7,7.3c0,0.1-0.1,0.2-0.2,0.2c0,0,0,0,0,0L144.8,178c-0.8,1.3-2.5,1.6-3.8,0.9l-20.3-12.5c-0.6-0.4-1.1-1-1.2-1.7
					c0-0.2-0.1-0.4-0.1-0.6c0-0.5,0.1-1,0.4-1.5l17.8-27.9c0.1-0.1,0.1-0.2,0.2-0.2l4.1-6.5c0.5-0.8,1.4-1.3,2.3-1.3
					c0.4,0,0.9,0.1,1.3,0.3l21.3,11.5c0.7,0.4,1.2,1,1.4,1.8C168.4,140.9,168.3,141.7,167.9,142.3z"/>
			</g>
		</g>
		<g>
			<g>
				<path class="st10" d="M233.7,192.2c-0.3,0-0.7-0.1-1-0.3l-69-39.3c-1-0.5-1.3-1.8-0.7-2.7c0.5-1,1.8-1.3,2.7-0.7l69,39.3
					c1,0.5,1.3,1.8,0.7,2.7C235.1,191.8,234.4,192.2,233.7,192.2z"/>
			</g>
		</g>
		<g>
			<g>
				<path class="st10" d="M137.8,134.3c0,0.1-0.1,0.2-0.2,0.2c-0.4,0.5-1,0.8-1.6,0.8c-0.3,0-0.7-0.1-1-0.3l-1.9-1l-11.2-6.2
					c0.6-1.2,1.2-2.4,1.9-3.5l11.5,6.4l1.6,0.9C137.9,132.1,138.3,133.3,137.8,134.3z"/>
			</g>
		</g>
		<g>
			<g>
				<path class="st10" d="M143.3,124.9c-0.2,0.1-0.5,0.1-0.7,0.1c-0.8,0-1.6-0.5-1.9-1.3l-0.1-0.2l-5.7-14.8c1-1.1,2-2.2,3.1-3.2
					l6.4,16.7c0,0.1,0.1,0.2,0.1,0.3C144.8,123.5,144.2,124.5,143.3,124.9z"/>
			</g>
		</g>
		<g>
			<g>
				<g>
					<path class="st10" d="M215,237.8c-0.1,0-0.1,0-0.2,0l-66.7-5.3c-3.5-0.3-6.2-3.2-6.2-6.8V183c0-1.1,0.9-2,2-2s2,0.9,2,2v42.7
						c0,1.4,1.1,2.7,2.6,2.8l66.7,5.3c1.1,0.1,1.9,1.1,1.8,2.2C217,237,216.1,237.8,215,237.8z"/>
				</g>
			</g>
		</g>
		<g>
			<g>
				<path class="st10" d="M172.4,141.1c-0.8,0-1.6-0.5-1.9-1.3c-0.4-1,0.1-2.2,1.2-2.6l55.9-20.7c1-0.4,2.2,0.1,2.6,1.2
					c0.4,1-0.1,2.2-1.2,2.6L173,141C172.8,141,172.6,141.1,172.4,141.1z"/>
			</g>
		</g>
		<g>
			<g>
				<path class="st10" d="M238.2,257.8c-0.2,0.2-0.5,0.3-0.7,0.4h6.2c1.2-2.5,2.4-5,3.7-7.4L238.2,257.8z M256.2,236.9l-4.5-9.8
					c-0.7-1.4-1.8-2.6-3.3-3.3l-9.5-4.5c-1.1-0.5-2.3-0.7-3.5-0.6c-0.4,0-0.8,0.1-1.2,0.2l-2.8,0.8l-9.1,2.6l-7.2,2.4
					c-0.4-0.4-0.8-0.7-1.2-1l-67.6-41.7l-1.2-0.7l-0.2-0.1l-3.9-2.4l-20.3-12.5l-4-2.5l-0.2-0.1l-1-0.6l-2.6-1.6c-0.1,1-0.1,2-0.1,3
					c0,0.5,0,1.1,0,1.6l2.7,1.7l3.3,2l6.6,4.1l3.4,2.1l10.5,6.4l2.9,1.8l4,2.5l65.8,40.6c0.8,0.5,1.3,1.4,1.3,2.4V243
					c0,1.6,0.5,3.1,1.6,4.3l9,10.9h11.7l-6.7-1.3c-0.6-0.1-1.2-0.5-1.6-1l-9.3-11.2c-0.4-0.5-0.6-1.1-0.6-1.8v-13.4
					c0-0.4,0-0.8-0.1-1.2l6.5-2.1l10.3-2.9l0.2,0l1.3-0.4c0.6-0.2,1.3-0.1,1.9,0.2l9.5,4.5c0.6,0.3,1.1,0.8,1.3,1.3l5,10.7
					c0.2,0.5,0.3,1.1,0.2,1.7C254.1,239.7,255.1,238.3,256.2,236.9z"/>
			</g>
		</g>
		<g>
			<g>
				<g>
					<path class="st11" d="M111,168.7c0-0.4,0-0.7,0-1.1c0-0.6,0-1.1,0-1.6c0-0.5,0-1.1,0-1.6l0-1l3.1-1.1c0.3-0.1,0.6-0.2,1-0.2
						c0,0,0.1,0,0.2,0c0.5,0,1,0.1,1.5,0.4l0.4,0.2l0,0c0.6,0.4,1,1,1.3,1.7c0.6,1.8-0.2,3.7-2,4.4l-0.1,0.1l-0.9,0.3l-4.7,1.7
						L111,168.7z"/>
					<path class="st2" d="M115.5,163.4c0.3,0,0.6,0.1,0.8,0.2l0.2,0.1c0.3,0.2,0.6,0.6,0.7,1c0.4,1-0.1,2.1-1.1,2.5c0,0,0,0-0.1,0
						l-0.9,0.3l-2.7,1c0-0.4,0-0.7,0-1.1v-0.1c0-0.5,0-1,0-1.5c0-0.5,0-1.1,0-1.6l2.2-0.8c0.2-0.1,0.4-0.1,0.6-0.1
						C115.4,163.4,115.4,163.4,115.5,163.4 M115.5,160.4c-0.1,0-0.2,0-0.4,0c-0.5,0-1,0.1-1.4,0.3l-2.2,0.8l-1.9,0.7l-0.1,2
						c0,0.6,0,1.1,0,1.7c0,0.5,0,1,0,1.6v0.1c0,0.4,0,0.8,0,1.2l0.1,4.2l3.9-1.5l2.7-1l0.9-0.3l0.2-0.1l0.1-0.1
						c2.4-1.1,3.6-3.8,2.7-6.3c-0.4-1-1-1.8-1.8-2.4l-0.1-0.1l-0.1-0.1l-0.2-0.1l-0.1-0.1l-0.1-0.1
						C117,160.6,116.3,160.4,115.5,160.4L115.5,160.4z"/>
				</g>
				<g>
					<path class="st11" d="M116.1,197.1c-0.6-1.7-1.2-3.6-1.7-5.4l-0.2-0.6l9.6-18.1l0.2-0.5c0.6-1.2,1.8-1.9,3.1-1.9
						c0.6,0,1.1,0.1,1.6,0.4c0.8,0.4,1.4,1.2,1.7,2c0.3,0.9,0.2,1.8-0.3,2.7l-0.4,0.7l-12.6,23.8L116.1,197.1z"/>
					<path class="st2" d="M127.1,172.2c0.3,0,0.6,0.1,0.9,0.2c1,0.5,1.3,1.7,0.8,2.7l-0.4,0.7l-11,20.8c-0.6-1.8-1.2-3.5-1.7-5.4
						l9.3-17.6l0.2-0.5C125.7,172.6,126.4,172.2,127.1,172.2 M127.1,169.2L127.1,169.2c-1.9,0-3.6,1-4.4,2.7l-0.2,0.5l-9.3,17.5
						l-0.6,1.1l0.3,1.2c0.5,1.9,1.1,3.8,1.7,5.5l2.3,6.5l3.2-6.1l11-20.8l0.4-0.7c0.6-1.2,0.8-2.6,0.4-3.8c-0.4-1.3-1.3-2.3-2.5-2.9
						C128.7,169.4,127.9,169.2,127.1,169.2L127.1,169.2z"/>
				</g>
			</g>
			<g>
				<g>
					<path class="st11" d="M155.1,132.3c-0.7,0-1.3-0.2-1.9-0.5c-1.6-1-2.1-3.2-1.1-4.8l29.2-46.4l0.6-0.1c1.8-0.4,3.5-0.7,5.4-0.9
						l3.2-0.4l-32.4,51.6C157.4,131.6,156.3,132.3,155.1,132.3z"/>
					<path class="st2" d="M187.5,80.9l-30.1,47.9l-0.7,1c-0.4,0.6-1,0.9-1.7,0.9c-0.4,0-0.7-0.1-1.1-0.3c-0.9-0.6-1.2-1.8-0.6-2.8
						l0.5-0.8l28.3-45C184,81.5,185.7,81.2,187.5,80.9 M193.5,77.1l-6.4,0.9c-1.9,0.3-3.7,0.6-5.5,0.9l-1.3,0.3l-0.7,1.1l-28.3,45
						l-0.5,0.8c-1.4,2.3-0.7,5.4,1.6,6.9c0.8,0.5,1.7,0.8,2.7,0.8c1.7,0,3.3-0.9,4.2-2.4l0.7-1l30.1-47.9L193.5,77.1L193.5,77.1z"/>
				</g>
			</g>
			<g>
				<g>
					<path class="st11" d="M145.6,242.6c-0.7-1.1-1.5-2.2-2.2-3.3l-1-1.4l19.4-9.5l53.8-26.5v-35l69.1-26.8l0.5,1.5
						c0.4,1.4,0.8,2.7,1.1,3.9l0.3,1.3l-64,24.8v34.6l-51.7,25.5l-7,3.5l-17.6,8.7L145.6,242.6z"/>
					<path class="st2" d="M283.7,141.9c0.4,1.3,0.8,2.6,1.1,3.9l-63.7,24.7v34.7l-50.9,25.1l-7,3.5l-16.4,8.1
						c-0.7-1.1-1.5-2.2-2.2-3.4l10.8-5.3l7-3.5l54.6-26.9v-34.9L283.7,141.9 M285.6,138l-3,1.2L216,164.9l-1.9,0.7v2.1v33.1
						l-53,26.1l-7,3.4l-10.8,5.3l-3.1,1.5l2,2.9c0.7,1.1,1.5,2.2,2.2,3.3l1.4,2.2l2.4-1.2l16.4-8.1l7-3.5l50.9-25.1l1.7-0.8v-1.9
						v-32.6l61.8-23.9l2.5-1l-0.6-2.6c-0.3-1.3-0.7-2.6-1.1-4L285.6,138L285.6,138z"/>
				</g>
			</g>
		</g>
	</g>
	<g>
		<line class="st12" x1="200" y1="35.8" x2="200" y2="56.1"/>
		<line class="st12" x1="132.6" y1="53.9" x2="142.8" y2="71.4"/>
		<line class="st12" x1="83.3" y1="103.2" x2="100.9" y2="113.3"/>
		<line class="st12" x1="316.7" y1="103.2" x2="299.1" y2="113.3"/>
		<line class="st12" x1="267.4" y1="53.9" x2="257.2" y2="71.4"/>
	</g>
	<g>
		<path class="st13" d="M196.5,76.6c-49.1,1.9-87.5,41.8-87.4,91c0,23.1,8.6,44.2,22.8,60.2c9,10.2,16.4,21.6,21.8,33.9H246
			c5.2-12,12.4-23.1,21.3-32.9c14.7-16.2,23.7-37.6,23.7-61.2C291,116.1,248.3,74.6,196.5,76.6z"/>
	</g>
</g>
<g id="Layer_4">
</g>
</svg>
