<svg width="400" height="400" viewBox="0 0 400 400" fill="none" xmlns="http://www.w3.org/2000/svg">
<rect width="400" height="400" fill="white"/>
<circle cx="200" cy="200" r="200" fill="#4048C9"/>
<path d="M314.5 137.5C314.5 161.74 293.967 181.5 268.5 181.5C243.033 181.5 222.5 161.74 222.5 137.5C222.5 113.26 243.033 93.5 268.5 93.5C293.967 93.5 314.5 113.26 314.5 137.5Z" fill="#C5D6F9" stroke="black" stroke-width="3"/>
<path d="M282.095 145.304C281.333 145.304 280.71 144.681 280.71 143.919V134.223C280.71 133.461 281.333 132.838 282.095 132.838C282.857 132.838 283.48 133.461 283.48 134.223V143.919C283.48 144.681 282.857 145.304 282.095 145.304Z" fill="black"/>
<path d="M294.5 144H241L237 133.5H299L294.5 144Z" fill="#DA1F1F"/>
<path d="M279.325 148.074C278.216 148.074 277.178 147.645 276.388 146.855C275.599 146.066 275.169 145.027 275.169 143.919C275.169 143.157 275.792 142.534 276.554 142.534C277.316 142.534 277.939 143.157 277.939 143.919C277.939 144.681 278.563 145.304 279.325 145.304C280.086 145.304 280.71 144.681 280.71 143.919C280.71 143.157 281.333 142.534 282.095 142.534C282.857 142.534 283.48 143.157 283.48 143.919C283.48 145.027 283.051 146.066 282.261 146.855C281.472 147.645 280.433 148.074 279.325 148.074Z" fill="black"/>
<path d="M284.865 148.074C283.757 148.074 282.718 147.645 281.929 146.855C281.139 146.066 280.71 145.027 280.71 143.919C280.71 143.157 281.333 142.534 282.095 142.534C282.857 142.534 283.48 143.157 283.48 143.919C283.48 144.681 284.103 145.304 284.865 145.304C285.627 145.304 286.25 144.681 286.25 143.919C286.25 143.157 286.874 142.534 287.635 142.534C288.397 142.534 289.021 143.157 289.021 143.919C289.021 145.027 288.591 146.066 287.802 146.855C287.012 147.645 285.973 148.074 284.865 148.074Z" fill="black"/>
<path d="M248.851 146.689C248.117 146.689 247.411 146.398 246.898 145.872C246.372 145.346 246.081 144.653 246.081 143.919C246.081 143.185 246.372 142.478 246.898 141.966C247.425 141.439 248.117 141.149 248.851 141.149C249.585 141.149 250.292 141.439 250.804 141.966C251.331 142.492 251.622 143.185 251.622 143.919C251.622 144.653 251.331 145.359 250.804 145.872C250.292 146.398 249.585 146.689 248.851 146.689Z" fill="black"/>
<path d="M258.547 146.689C257.813 146.689 257.107 146.398 256.594 145.872C256.068 145.346 255.777 144.653 255.777 143.919C255.777 143.171 256.068 142.478 256.594 141.966C257.121 141.439 257.813 141.149 258.547 141.149C259.282 141.149 259.988 141.439 260.5 141.966C261.027 142.492 261.318 143.185 261.318 143.919C261.318 144.653 261.027 145.359 260.5 145.872C259.988 146.398 259.282 146.689 258.547 146.689Z" fill="black"/>
<path d="M268.243 146.689C267.509 146.689 266.803 146.398 266.29 145.872C265.764 145.346 265.473 144.653 265.473 143.919C265.473 143.171 265.764 142.478 266.29 141.966C266.817 141.439 267.509 141.149 268.243 141.149C268.978 141.149 269.684 141.439 270.196 141.966C270.723 142.492 271.014 143.185 271.014 143.919C271.014 144.653 270.723 145.359 270.196 145.872C269.684 146.398 268.978 146.689 268.243 146.689Z" fill="black"/>
<path d="M273.133 155C272.371 155 271.748 154.377 271.748 153.615C271.748 152.853 272.371 152.23 273.133 152.23C273.895 152.23 274.518 152.853 274.518 153.615C274.518 154.377 273.895 155 273.133 155ZM266.207 155H249.253C247.619 155 246.039 154.529 244.682 153.629C243.325 152.728 242.272 151.468 241.621 149.972L235.111 134.777C234.931 134.347 234.972 133.863 235.221 133.475C235.485 133.087 235.914 132.851 236.385 132.851H273.881C274.643 132.851 275.266 133.475 275.266 134.237C275.266 134.998 274.643 135.622 273.881 135.622H238.49L244.183 148.891C245.056 150.928 247.051 152.244 249.267 152.244H266.221C266.983 152.244 267.606 152.867 267.606 153.629C267.606 154.391 266.969 155 266.207 155ZM280.045 154.765C279.712 154.765 279.394 154.654 279.145 154.432C278.895 154.21 278.729 153.92 278.674 153.587C278.66 153.518 278.66 153.449 278.66 153.379C278.66 153.047 278.784 152.728 278.992 152.479C279.214 152.23 279.505 152.063 279.837 152.008C286.486 151.011 292.248 146.841 295.254 140.83L297.858 135.622H287.732C286.971 135.622 286.347 134.998 286.347 134.237C286.347 133.475 286.971 132.851 287.732 132.851H300.102C300.587 132.851 301.03 133.101 301.279 133.503C301.529 133.918 301.556 134.417 301.335 134.846L297.719 142.063C296.874 143.766 295.822 145.359 294.589 146.8C293.384 148.213 291.999 149.487 290.489 150.581C288.979 151.662 287.358 152.576 285.641 153.269C283.909 153.975 282.095 154.474 280.239 154.751C280.183 154.751 280.114 154.765 280.045 154.765ZM280.807 135.608C280.045 135.608 279.422 134.985 279.422 134.223C279.422 133.461 280.045 132.838 280.807 132.838C281.569 132.838 282.192 133.461 282.192 134.223C282.192 134.985 281.582 135.608 280.807 135.608Z" fill="black"/>
<path d="M276.554 135.608H271.789C271.028 135.608 270.404 134.985 270.404 134.223C270.404 133.461 271.028 132.838 271.789 132.838H275.169V127.297H259.933C259.572 127.297 259.212 127.145 258.949 126.895C258.686 126.632 258.547 126.286 258.547 125.912V121.756H251.262L247.937 132.838H257.938C258.7 132.838 259.323 133.461 259.323 134.223C259.323 134.985 258.7 135.608 257.938 135.608H246.081C245.638 135.608 245.236 135.4 244.973 135.054C244.71 134.694 244.627 134.25 244.751 133.835L248.907 119.983C248.99 119.693 249.17 119.443 249.405 119.277C249.641 119.097 249.932 119 250.236 119H259.933C260.293 119 260.653 119.152 260.916 119.402C261.179 119.665 261.318 120.011 261.318 120.385V124.541H276.554C276.914 124.541 277.275 124.693 277.538 124.942C277.801 125.205 277.939 125.552 277.939 125.926V134.237C277.939 134.597 277.787 134.957 277.538 135.22C277.275 135.456 276.914 135.608 276.554 135.608ZM264.864 135.608C264.102 135.608 263.479 134.985 263.479 134.223C263.479 133.461 264.102 132.838 264.864 132.838C265.625 132.838 266.249 133.461 266.249 134.223C266.249 134.985 265.625 135.608 264.864 135.608Z" fill="black"/>
<path d="M262.703 135.608C262.426 135.608 262.163 135.525 261.941 135.372C261.304 134.943 261.138 134.084 261.553 133.447L267.094 125.136C267.357 124.748 267.786 124.527 268.243 124.527C268.52 124.527 268.784 124.61 269.005 124.762C269.642 125.192 269.809 126.05 269.393 126.688L263.853 134.998C263.603 135.372 263.16 135.608 262.703 135.608Z" fill="black"/>
<path d="M375.5 250.5C375.5 274.74 354.967 294.5 329.5 294.5C304.033 294.5 283.5 274.74 283.5 250.5C283.5 226.26 304.033 206.5 329.5 206.5C354.967 206.5 375.5 226.26 375.5 250.5Z" fill="#C5D6F9" stroke="black" stroke-width="3"/>
<path d="M329 264.5L331 279.5H346L349 275.5V266L353.5 254.5V241.5H348L346 250L341 243.5L334 232L329 219L324 224.5V236.5L329 243.5L335.5 250V257L329 264.5Z" fill="#047D26"/>
<path d="M324 267.5L329 279H324L316 276.5L305.5 267.5L301 257.5L297 241.5L299 232.5V228.5L305.5 226L310 228.5L314 241.5L316 251.5L324 267.5Z" fill="#047D26"/>
<path d="M349.686 227.756C352.417 227.756 354.639 225.513 354.639 222.755C354.639 219.997 352.417 217.753 349.686 217.753C346.955 217.753 344.732 219.997 344.732 222.755C344.732 225.513 346.954 227.756 349.686 227.756ZM349.686 219.449C351.491 219.449 352.959 220.933 352.959 222.755C352.959 224.577 351.491 226.06 349.686 226.06C347.881 226.06 346.412 224.577 346.412 222.755C346.412 220.933 347.881 219.449 349.686 219.449ZM349.686 225.274C351.062 225.274 352.181 224.143 352.181 222.754C352.181 222.286 351.806 221.906 351.341 221.906C350.877 221.906 350.501 222.286 350.501 222.754C350.501 223.208 350.135 223.578 349.686 223.578C349.221 223.578 348.846 223.957 348.846 224.426C348.846 224.894 349.221 225.274 349.686 225.274Z" fill="black"/>
<path d="M317.767 237.854C318.859 237.854 319.747 236.957 319.747 235.855C319.747 234.752 318.858 233.856 317.767 233.856C316.675 233.856 315.787 234.753 315.787 235.855C315.787 236.957 316.675 237.854 317.767 237.854ZM317.767 235.551C317.932 235.551 318.067 235.687 318.067 235.854C318.067 236.021 317.932 236.158 317.767 236.158C317.601 236.158 317.467 236.021 317.467 235.854C317.467 235.687 317.601 235.551 317.767 235.551Z" fill="black"/>
<path d="M363.648 235.281C364.74 235.281 365.628 234.384 365.628 233.282C365.628 232.18 364.739 231.282 363.648 231.282C362.555 231.282 361.668 232.18 361.668 233.282C361.668 234.384 362.555 235.281 363.648 235.281ZM363.648 232.978C363.814 232.978 363.948 233.115 363.948 233.282C363.948 233.449 363.814 233.585 363.648 233.585C363.483 233.585 363.348 233.449 363.348 233.282C363.348 233.115 363.483 232.978 363.648 232.978Z" fill="black"/>
<path d="M298.224 265.593C297.132 265.593 296.244 266.49 296.244 267.591C296.244 268.695 297.133 269.591 298.224 269.591C299.317 269.591 300.205 268.694 300.205 267.591C300.206 266.489 299.317 265.593 298.224 265.593ZM298.224 267.896C298.059 267.896 297.924 267.759 297.924 267.592C297.924 267.425 298.059 267.289 298.224 267.289C298.39 267.289 298.525 267.425 298.525 267.592C298.525 267.759 298.39 267.896 298.224 267.896Z" fill="black"/>
<path d="M365.482 239.588C363.692 239.588 362.235 241.058 362.235 242.865C362.235 244.672 363.692 246.143 365.482 246.143C367.272 246.143 368.729 244.672 368.729 242.865C368.729 241.058 367.272 239.588 365.482 239.588ZM365.482 244.448C364.618 244.448 363.915 243.738 363.915 242.866C363.915 241.994 364.618 241.285 365.482 241.285C366.346 241.285 367.049 241.994 367.049 242.866C367.049 243.738 366.346 244.448 365.482 244.448Z" fill="black"/>
<path d="M325.053 226.613C323.241 224.809 323.076 221.91 323.07 221.787C323.048 221.318 323.404 220.921 323.868 220.897C324.327 220.866 324.724 221.233 324.749 221.699C324.75 221.723 324.892 224.069 326.233 225.404C326.564 225.733 326.566 226.27 326.241 226.604C326.078 226.772 325.86 226.857 325.643 226.857C325.429 226.857 325.217 226.775 325.053 226.613ZM334.285 221.605C333.835 221.47 333.372 221.728 333.24 222.176C332.444 224.872 330.165 225.783 330.067 225.821C329.634 225.986 329.416 226.473 329.576 226.911C329.702 227.252 330.023 227.463 330.364 227.463C330.462 227.463 330.561 227.445 330.657 227.41C330.786 227.361 333.809 226.189 334.851 222.661C334.982 222.211 334.73 221.739 334.285 221.605ZM329.832 240.167C330.297 240.167 330.672 239.787 330.672 239.319C330.672 238.851 330.297 238.471 329.832 238.471C326.702 238.471 325.586 236.169 325.538 236.064C325.345 235.641 324.85 235.455 324.429 235.647C324.006 235.841 323.819 236.343 324.011 236.77C324.073 236.909 325.588 240.167 329.832 240.167ZM333.862 236.982C333.491 237.257 333.407 237.785 333.679 238.162C333.843 238.391 334.1 238.513 334.36 238.513C334.531 238.513 334.703 238.461 334.851 238.352C334.97 238.266 337.732 236.192 337.214 231.71C337.161 231.245 336.76 230.909 336.283 230.966C335.822 231.02 335.492 231.442 335.546 231.907C335.944 235.357 333.955 236.912 333.862 236.982ZM336.226 251.908C336.536 251.908 336.864 251.89 337.206 251.849C337.666 251.796 337.996 251.373 337.943 250.909C337.889 250.445 337.492 250.11 337.011 250.165C333.682 250.561 332.411 248.313 332.352 248.204C332.136 247.794 331.632 247.637 331.221 247.853C330.81 248.071 330.651 248.584 330.868 248.999C330.934 249.126 332.429 251.908 336.226 251.908ZM340.92 249.392C341.023 249.432 341.128 249.453 341.232 249.453C341.565 249.453 341.881 249.251 342.012 248.919C342.066 248.782 343.324 245.521 341.589 242.217C341.371 241.803 340.863 241.644 340.453 241.864C340.043 242.083 339.886 242.596 340.104 243.01C341.46 245.594 340.469 248.244 340.451 248.293C340.28 248.726 340.49 249.218 340.92 249.392ZM301.088 233.769C301.247 233.908 301.443 233.976 301.638 233.976C301.873 233.976 302.107 233.877 302.274 233.682C302.577 233.329 302.537 232.793 302.187 232.487C300.761 231.242 300.805 229.542 300.809 229.459C300.831 228.994 300.476 228.597 300.015 228.572C299.554 228.55 299.156 228.906 299.13 229.374C299.126 229.478 299.02 231.963 301.088 233.769ZM305.553 232.93C305.126 233.112 304.926 233.607 305.104 234.038C305.239 234.364 305.551 234.56 305.88 234.56C305.988 234.56 306.098 234.539 306.203 234.494C306.313 234.447 308.899 233.331 310.018 230.545C310.192 230.111 309.985 229.616 309.555 229.441C309.126 229.264 308.634 229.474 308.46 229.908C307.611 232.023 305.573 232.921 305.553 232.93ZM302.271 248.866C302.569 248.866 302.857 248.722 303.01 248.439C303.232 248.028 303.081 247.529 302.674 247.306C299.975 245.826 299.927 242.702 299.926 242.551C299.927 242.083 299.553 241.768 299.089 241.768C299.088 241.768 299.087 241.768 299.086 241.768C298.623 241.768 298.248 242.078 298.246 242.546C298.245 242.721 298.27 246.787 301.87 248.762C301.998 248.833 302.136 248.866 302.271 248.866ZM310.945 242.565C309.727 246.752 306.749 247.683 306.609 247.724C306.165 247.852 305.905 248.318 306.029 248.767C306.133 249.142 306.47 249.388 306.838 249.388C306.913 249.388 306.989 249.378 307.065 249.357C307.227 249.311 311.063 248.18 312.557 243.043C312.688 242.593 312.433 242.122 311.988 241.99C311.538 241.856 311.076 242.117 310.945 242.565ZM305.283 260.898C305.392 260.946 305.505 260.968 305.616 260.968C305.941 260.968 306.25 260.778 306.387 260.458C306.573 260.028 306.376 259.529 305.951 259.343C303.03 258.062 302.119 255.131 302.108 255.093C301.977 254.646 301.509 254.385 301.067 254.522C300.621 254.653 300.367 255.126 300.498 255.574C300.542 255.726 301.618 259.293 305.283 260.898ZM314.617 254.537C313.568 258.2 310.557 259.12 310.417 259.16C309.972 259.287 309.712 259.753 309.835 260.203C309.939 260.578 310.276 260.824 310.644 260.824C310.719 260.824 310.795 260.814 310.869 260.794C311.034 260.747 314.912 259.613 316.232 255.007C316.36 254.558 316.104 254.087 315.657 253.957C315.209 253.828 314.745 254.086 314.617 254.537ZM314.32 274.673C314.371 274.682 314.42 274.687 314.47 274.687C314.869 274.687 315.222 274.399 315.295 273.989C315.378 273.528 315.074 273.087 314.617 273.004C311.666 272.467 309.604 269.673 309.583 269.645C309.31 269.27 308.785 269.185 308.411 269.462C308.037 269.738 307.955 270.268 308.227 270.646C308.326 270.782 310.695 274.013 314.32 274.673ZM319.561 273.282C319.716 273.409 319.903 273.47 320.088 273.47C320.333 273.47 320.576 273.363 320.742 273.155C320.846 273.024 323.296 269.894 322.261 265.293C322.158 264.837 321.711 264.551 321.256 264.654C320.804 264.758 320.52 265.212 320.623 265.669C321.471 269.44 319.519 271.983 319.433 272.092C319.143 272.456 319.201 272.988 319.561 273.282ZM352.291 248.987C351.824 248.936 351.419 249.279 351.371 249.744C351.323 250.21 351.659 250.627 352.121 250.675C352.283 250.692 352.465 250.701 352.66 250.701C354.413 250.701 357.316 249.933 358.544 246.894C358.719 246.461 358.513 245.966 358.083 245.789C357.655 245.612 357.163 245.82 356.988 246.254C355.762 249.285 352.432 249.001 352.291 248.987ZM359.051 251.938C359.387 252.261 359.401 252.798 359.082 253.137C356.812 255.552 354.311 256.253 352.175 256.253C351.44 256.253 350.748 256.17 350.123 256.045C351.382 256.811 353.382 257.33 356.512 256.628C356.966 256.532 357.414 256.815 357.514 257.272C357.614 257.729 357.328 258.182 356.875 258.284C355.722 258.542 354.689 258.653 353.768 258.653C350.067 258.653 348.149 256.865 347.262 255.627C346.323 256.651 345.284 257.609 344.168 258.586C345.726 263.277 345.997 267.283 345.633 270.562C349.309 270.292 352.572 268.493 353.902 266.636C354.172 266.257 354.698 266.263 355.074 266.538C355.451 266.812 355.536 267.202 355.264 267.583C353.517 270.025 349.94 271.776 346.336 272.197C349.071 273.957 353.549 272.583 353.599 272.568C354.04 272.426 354.513 272.678 354.651 273.124C354.79 273.571 354.543 274.047 354.1 274.186C353.956 274.232 352.137 274.791 349.975 274.791C348.367 274.791 346.575 274.471 345.135 273.414C344.39 276.462 343.161 278.653 342.28 279.928H346.96C347.425 279.928 347.8 280.307 347.8 280.776C347.8 281.245 347.425 281.624 346.96 281.624H325.12C324.655 281.624 324.28 281.245 324.28 280.776C324.28 280.307 324.655 279.928 325.12 279.928H325.785C324.081 279.13 321.987 277.955 319.752 276.28C318.146 276.812 316.581 277.046 315.093 277.046C308.454 277.046 303.363 272.692 303.1 272.463C302.749 272.158 302.71 271.623 303.013 271.268C303.315 270.915 303.845 270.874 304.196 271.179C304.265 271.239 310.711 276.734 318.13 274.993C317.105 274.129 316.066 273.17 315.032 272.078C312.958 269.884 310.8 267.047 308.884 263.438C308.68 263.445 308.474 263.456 308.276 263.456C300.054 263.456 295.881 258.029 295.7 257.788C295.419 257.414 295.492 256.883 295.861 256.6C296.23 256.316 296.757 256.389 297.037 256.761C297.205 256.982 300.849 261.643 308.034 261.751C306.635 258.819 305.409 255.422 304.495 251.503C295.395 250.742 293.179 242.914 293.158 242.834C293.036 242.382 293.301 241.916 293.749 241.793C294.195 241.674 294.656 241.937 294.779 242.388C294.854 242.66 296.66 248.854 304.116 249.75C303.331 245.843 302.855 241.451 302.819 236.512C296.516 235.454 294.715 230.252 294.64 230.022C294.494 229.578 294.731 229.098 295.172 228.95C295.61 228.803 296.086 229.041 296.234 229.484C296.297 229.67 297.757 233.812 302.823 234.799C302.847 232.949 302.936 231.02 303.088 229.021C299.644 227.704 299.471 223.249 299.466 223.048C299.452 222.579 299.818 222.189 300.281 222.175C300.728 222.16 301.132 222.529 301.146 222.998C301.15 223.133 301.249 225.31 302.521 226.646C302.427 225.491 302.668 224.498 302.685 224.43C302.799 223.975 303.259 223.701 303.706 223.817C304.155 223.932 304.427 224.392 304.314 224.845C304.199 225.313 304.039 226.553 304.405 227.458C305.068 227.347 306.28 226.974 306.753 225.687C306.915 225.247 307.399 225.038 307.834 225.2C308.269 225.363 308.49 225.754 308.328 226.192C307.588 228.204 305.816 228.796 304.778 228.972C304.619 231.021 304.525 233.029 304.505 234.985C310.801 235.249 313.32 230.132 313.344 230.077C313.536 229.651 314.032 229.463 314.455 229.655C314.878 229.849 315.065 230.351 314.873 230.778C314.089 232.521 310.862 236.705 304.969 236.705C304.824 236.705 304.666 236.686 304.517 236.681C304.565 241.37 305.01 245.779 305.86 249.862C313.394 249.925 316.982 244.882 317.02 244.829C317.284 244.444 317.808 244.351 318.19 244.619C318.571 244.887 318.663 245.415 318.398 245.8C318.229 246.045 314.366 251.473 306.254 251.567C307.135 255.215 308.344 258.59 309.879 261.67C317.517 260.951 320.676 255.344 320.707 255.286C320.932 254.876 321.442 254.725 321.848 254.951C322.255 255.177 322.403 255.691 322.181 256.102C322.037 256.365 318.738 262.236 310.723 263.285C312.265 266.067 314.08 268.597 316.182 270.832C317.465 272.197 318.767 273.364 320.037 274.364C326.296 271.774 326.92 264.765 326.926 264.693C326.961 264.226 327.356 263.871 327.828 263.913C328.291 263.949 328.637 264.356 328.601 264.823C328.577 265.147 327.951 272.297 321.605 275.523C326.337 278.835 330.25 279.807 330.304 279.819C330.389 279.84 330.462 279.883 330.535 279.926H332.469C332.061 279.058 331.575 277.746 331.354 276.125C330.981 276.014 330.627 275.873 330.301 275.68C328.346 274.529 328.061 272.355 328.05 272.263C327.994 271.798 328.32 271.375 328.782 271.319C329.244 271.253 329.659 271.59 329.716 272.053C329.726 272.122 329.932 273.511 331.165 274.226C331.187 274.239 331.214 274.246 331.237 274.259C331.264 271.537 332.17 268.229 335.099 264.762C334.773 264.449 334.499 264.126 334.279 263.813C332.659 261.508 332.721 258.46 333.272 257.127C333.451 256.694 333.944 256.49 334.372 256.672C334.8 256.852 335.002 257.349 334.823 257.782C334.482 258.605 334.368 261.009 335.649 262.832C335.824 263.081 336.024 263.3 336.235 263.507C338.193 261.508 340.063 259.897 341.715 258.477C341.892 258.324 342.068 258.173 342.242 258.024C341.65 256.449 340.9 254.788 339.975 253.047C337.74 254.19 335.595 254.578 333.727 254.578C330.1 254.578 327.517 253.139 327.35 253.043C326.946 252.812 326.804 252.295 327.033 251.888C327.26 251.481 327.774 251.337 328.177 251.567C328.42 251.703 333.433 254.435 339.145 251.561C338.333 250.151 337.419 248.697 336.362 247.187C335.074 245.347 333.964 243.59 332.983 241.902C331.693 242.318 330.393 242.496 329.148 242.496C324.864 242.496 321.249 240.574 321.047 240.465C320.639 240.243 320.485 239.73 320.704 239.317C320.922 238.906 321.427 238.748 321.841 238.97C321.897 239 327.183 241.793 332.137 240.398C329.965 236.41 328.607 232.864 327.823 229.762C321.479 229.1 319.225 223.578 319.129 223.334C318.959 222.898 319.169 222.406 319.601 222.234C320.032 222.063 320.519 222.273 320.691 222.708C320.769 222.904 322.54 227.198 327.426 228.009C326.624 223.913 326.829 220.674 327.349 218.283C324.745 216.992 324.422 213.954 324.409 213.814C324.365 213.347 324.705 212.933 325.166 212.889C325.62 212.842 326.035 213.185 326.081 213.65C326.091 213.744 326.307 215.647 327.805 216.603C328.497 214.479 329.345 213.347 329.456 213.207C329.744 212.84 330.273 212.778 330.635 213.069C330.998 213.359 331.06 213.891 330.774 214.258C330.743 214.299 330.049 215.254 329.461 217.111C331.514 217.176 333.47 215.472 333.493 215.453C333.841 215.144 334.372 215.179 334.678 215.529C334.983 215.88 334.951 216.414 334.604 216.725C334.492 216.824 332.229 218.811 329.575 218.811C329.396 218.811 329.214 218.792 329.032 218.773C328.571 221.038 328.402 224.155 329.226 228.13C334.735 228.027 338.28 223.494 338.318 223.447C338.599 223.076 339.126 223.006 339.496 223.294C339.863 223.58 339.931 224.113 339.647 224.484C339.481 224.702 335.706 229.519 329.628 229.814C330.395 232.728 331.69 236.054 333.734 239.791C338.536 237.553 340.081 233.162 340.447 231.819C340.57 231.367 341.035 231.101 341.48 231.227C341.928 231.35 342.19 231.818 342.067 232.269C341.655 233.783 339.926 238.711 334.572 241.271C335.493 242.85 336.532 244.49 337.735 246.208C338.822 247.762 339.765 249.262 340.598 250.719C343.552 248.691 345.243 245.514 344.948 242.425C344.904 241.959 345.242 241.545 345.703 241.5C346.16 241.459 346.575 241.797 346.62 242.263C346.978 246.011 344.955 249.836 341.424 252.205C342.283 253.828 342.978 255.382 343.556 256.877C347.388 253.462 350.017 250.296 350.59 243.015C347.885 242.206 347.195 239.232 347.165 239.093C347.065 238.635 347.351 238.184 347.804 238.083C348.261 237.983 348.704 238.269 348.805 238.725C348.826 238.822 349.247 240.549 350.685 241.24C350.708 240.506 350.715 239.739 350.701 238.926C350.693 238.457 351.063 238.072 351.526 238.063C351.987 238.066 352.373 238.429 352.381 238.897C352.396 239.793 352.387 240.638 352.359 241.446C354.024 241.003 355.021 238.621 355.031 238.593C355.205 238.159 355.693 237.949 356.124 238.126C356.554 238.301 356.762 238.796 356.588 239.23C356.523 239.392 355.09 242.863 352.263 243.183C351.871 248.096 350.587 251.297 348.705 253.879C350.434 254.595 354.423 255.635 357.867 251.971C358.182 251.63 358.714 251.616 359.051 251.938ZM342.833 259.742C342.823 259.752 342.813 259.76 342.802 259.769C341.245 261.108 339.487 262.629 337.665 264.466C338.631 264.89 339.802 265.072 341.183 264.99C341.649 264.966 342.043 265.32 342.071 265.786C342.099 266.252 341.745 266.654 341.282 266.682C341.028 266.698 340.782 266.704 340.543 266.704C338.804 266.704 337.473 266.318 336.459 265.762C333.61 269.087 332.829 272.188 332.877 274.653C333.927 274.676 335.203 274.385 336.663 273.774C337.091 273.595 337.584 273.8 337.761 274.233C337.938 274.666 337.735 275.162 337.307 275.341C335.708 276.01 334.284 276.345 333.041 276.355C333.366 278.181 334.069 279.457 334.36 279.927H340.165C340.697 279.351 342.862 276.776 343.785 272.257C339.876 271.936 337.308 269.601 337.192 269.487C336.861 269.16 336.856 268.716 337.179 268.382C337.505 268.047 338.035 267.903 338.365 268.227C338.389 268.251 340.686 270.338 344.052 270.576C344.399 267.635 344.192 264.022 342.833 259.742Z" fill="black"/>
<path d="M321.76 279.928H315.88C315.415 279.928 315.04 280.307 315.04 280.776C315.04 281.245 315.415 281.624 315.88 281.624H321.76C322.225 281.624 322.6 281.245 322.6 280.776C322.6 280.307 322.225 279.928 321.76 279.928Z" fill="black"/>
<path d="M352.84 279.928H350.32C349.855 279.928 349.48 280.307 349.48 280.776C349.48 281.245 349.855 281.624 350.32 281.624H352.84C353.305 281.624 353.68 281.245 353.68 280.776C353.68 280.307 353.305 279.928 352.84 279.928Z" fill="black"/>
<path d="M344.44 284.168H339.4C338.935 284.168 338.56 284.547 338.56 285.016C338.56 285.485 338.935 285.864 339.4 285.864H344.44C344.905 285.864 345.28 285.485 345.28 285.016C345.28 284.547 344.905 284.168 344.44 284.168Z" fill="black"/>
<path d="M336.88 284.168H336.04C335.575 284.168 335.2 284.547 335.2 285.016C335.2 285.485 335.575 285.864 336.04 285.864H336.88C337.345 285.864 337.72 285.485 337.72 285.016C337.72 284.547 337.345 284.168 336.88 284.168Z" fill="black"/>
<path d="M243.819 303.5C243.819 336.025 216.274 362.5 182.159 362.5C148.044 362.5 120.5 336.025 120.5 303.5C120.5 270.975 148.044 244.5 182.159 244.5C216.274 244.5 243.819 270.975 243.819 303.5Z" fill="#C5D6F9" stroke="black" stroke-width="3"/>
<path d="M227.734 307.685L224.813 301.601L227.273 296.479C230.635 291.986 231.523 288.903 229.914 287.316C228.739 286.156 227.352 285.568 225.791 285.568C221.302 285.568 215.801 290.518 208.592 301.076C199.435 288.801 185.353 281.56 170.339 281.56C154.308 281.56 139.338 289.812 130.295 303.636L129.637 304.644L130.297 305.651C139.341 319.475 154.311 327.727 170.34 327.727C185.321 327.727 199.371 320.517 208.529 308.291C208.728 308.617 217.893 323.718 223.059 323.719C223.059 323.719 223.059 323.719 223.06 323.719C224.495 323.719 225.819 323.131 226.995 321.971C228.511 320.475 227.809 317.652 224.91 313.57L227.734 307.685ZM206.525 305.111C198.043 317.06 184.652 324.15 170.34 324.15C167.383 324.15 164.468 323.831 161.624 323.247C166.066 320.972 169.137 316.222 169.137 310.728C169.137 309.741 168.369 308.939 167.421 308.939C166.472 308.939 165.704 309.741 165.704 310.728C165.704 316.451 161.235 321.107 155.741 321.107C155.455 321.107 155.191 321.186 154.954 321.316C146.568 318.132 139.166 312.388 133.811 304.644C142.273 292.407 155.839 285.139 170.34 285.139C184.652 285.139 198.043 292.228 206.525 304.177V305.111ZM223.897 307.685L220.873 313.984L221.546 314.876C222.858 316.611 224.066 318.727 224.308 319.663C223.767 320.086 223.346 320.142 223.06 320.142C223.059 320.142 223.059 320.142 223.059 320.142C219.784 320.141 211.042 304.644 211.042 304.644C217.369 294.906 223.89 289.145 225.792 289.145C226.326 289.145 226.79 289.3 227.226 289.628C226.981 290.564 225.774 292.676 224.465 294.411L220.976 301.601L223.897 307.685Z" fill="black"/>
<path d="M243.819 303.5C243.819 336.025 216.274 362.5 182.159 362.5C148.044 362.5 120.5 336.025 120.5 303.5C120.5 270.975 148.044 244.5 182.159 244.5C216.274 244.5 243.819 270.975 243.819 303.5Z" fill="#C5D6F9" stroke="black" stroke-width="3"/>
<path d="M145 290L132.5 304.5L138 313.5L152.5 322.5L172.5 326L197 318.5L207.5 306L219 320L223.5 321.5L225 318.5L223.5 316.5V312L225 306L223.5 300L228.5 288H225L217.5 291.5L207.5 303.5L201 295.5L194 290L181.5 284.5L166.5 283L145 290Z" fill="#FF9900" stroke="black"/>
<path d="M227.734 307.685L224.813 301.601L227.273 296.479C230.635 291.986 231.523 288.903 229.914 287.316C228.739 286.156 227.352 285.568 225.791 285.568C221.302 285.568 215.801 290.518 208.592 301.076C199.435 288.801 185.353 281.56 170.339 281.56C154.308 281.56 139.338 289.812 130.295 303.636L129.637 304.644L130.297 305.651C139.341 319.475 154.311 327.727 170.34 327.727C185.321 327.727 199.371 320.517 208.529 308.291C208.728 308.617 217.893 323.718 223.059 323.719C223.059 323.719 223.059 323.719 223.06 323.719C224.495 323.719 225.819 323.131 226.995 321.971C228.511 320.475 227.809 317.652 224.91 313.57L227.734 307.685ZM206.525 305.111C198.043 317.06 184.652 324.15 170.34 324.15C167.383 324.15 164.468 323.831 161.624 323.247C166.066 320.972 169.137 316.222 169.137 310.728C169.137 309.741 168.369 308.939 167.421 308.939C166.472 308.939 165.704 309.741 165.704 310.728C165.704 316.451 161.235 321.107 155.741 321.107C155.455 321.107 155.191 321.186 154.954 321.316C146.568 318.132 139.166 312.388 133.811 304.644C142.273 292.407 155.839 285.139 170.34 285.139C184.652 285.139 198.043 292.228 206.525 304.177V305.111ZM223.897 307.685L220.873 313.984L221.546 314.876C222.858 316.611 224.066 318.727 224.308 319.663C223.767 320.086 223.346 320.142 223.06 320.142C223.059 320.142 223.059 320.142 223.059 320.142C219.784 320.141 211.042 304.644 211.042 304.644C217.369 294.906 223.89 289.145 225.792 289.145C226.326 289.145 226.79 289.3 227.226 289.628C226.981 290.564 225.774 292.676 224.465 294.411L220.976 301.601L223.897 307.685Z" fill="black"/>
<path d="M149.902 296.771C147.346 296.771 145.265 298.937 145.265 301.601C145.265 304.264 147.345 306.432 149.902 306.432C152.459 306.432 154.538 304.266 154.538 301.601C154.538 298.938 152.458 296.771 149.902 296.771ZM149.902 302.855C149.239 302.855 148.698 302.292 148.698 301.601C148.698 300.909 149.239 300.348 149.902 300.348C150.566 300.348 151.105 300.909 151.105 301.601C151.105 302.292 150.565 302.855 149.902 302.855Z" fill="black"/>
<path d="M177.393 299.824C178.064 299.127 178.064 297.994 177.393 297.295C176.724 296.597 175.636 296.597 174.966 297.295L171.051 301.373L176.891 310.499L174.966 312.506C174.295 313.204 174.295 314.336 174.966 315.034C175.301 315.384 175.741 315.558 176.18 315.558C176.619 315.558 177.059 315.384 177.394 315.034L181.309 310.956L175.469 301.83L177.393 299.824Z" fill="black"/>
<path d="M189.072 296.781C189.742 296.084 189.742 294.95 189.072 294.253C188.401 293.554 187.315 293.554 186.644 294.253L182.728 298.331L188.569 307.456L186.644 309.463C185.974 310.162 185.974 311.293 186.644 311.992C186.98 312.341 187.419 312.515 187.859 312.515C188.298 312.515 188.737 312.341 189.073 311.992L192.989 307.913L187.148 298.787L189.072 296.781Z" fill="black"/>
<circle cx="120.5" cy="152.5" r="77" fill="#C5D6F9" stroke="black" stroke-width="3"/>
<path d="M74 182L58 196.5L65.5 206.5L81.5 219L98.5 226L119 229.5L139.5 227L163 216.5L179.5 202.5L187 192L194.5 172L193.5 171.5H187L170 167.5L153 156L143 142L138.5 124.5V103L141 89H138.5L116.5 100.5L101 122.5L88.5 150L74 182Z" fill="#C4C4C4" stroke="black"/>
<path fill-rule="evenodd" clip-rule="evenodd" d="M142.766 85.126C143.949 85.126 144.91 86.2473 144.91 87.6288C144.91 88.0309 144.829 88.4114 144.684 88.7484L144.686 88.7501C141.399 96.2553 139.546 104.757 139.546 113.76C139.546 121.894 141.058 129.615 143.769 136.563C148.435 129.738 154.488 124.195 163.189 121.786C164.222 121.444 165.332 122.053 165.752 123.239C166.002 123.943 165.955 124.706 165.677 125.337C164.308 129.098 163.551 133.236 163.551 137.584C163.551 144.186 165.302 150.313 168.289 155.367C170.402 151.56 173.105 148.209 177.124 146.374C177.193 146.339 177.264 146.307 177.334 146.279C178.46 145.852 179.671 146.571 180.037 147.885C180.183 148.409 180.174 148.95 180.037 149.437L180.038 149.436C179.761 150.682 179.612 151.988 179.612 153.337C179.612 161.89 185.552 168.823 192.879 168.823H195.291V168.933V173.828H186.715C158.298 173.828 135.257 146.933 135.257 113.76C135.257 105.95 136.542 98.2892 139.035 91.1395C89.4429 105.859 92.6676 185.103 58.0709 198.858V193.489C89.2799 178.62 87.123 97.2247 142.114 85.2445C142.319 85.166 142.539 85.126 142.766 85.126ZM171.159 159.444C173.426 162.162 176.112 164.404 179.096 166.023C176.745 162.547 175.337 158.165 175.324 153.4C173.642 155.035 172.318 157.134 171.159 159.444ZM145.949 141.472C151.429 152.432 160.06 160.987 170.393 165.435C163.589 158.764 159.262 148.763 159.262 137.582C159.262 134.327 159.631 131.113 160.354 128.016C155.053 130.364 150.679 134.362 146.847 140.087C146.541 140.544 146.244 141.004 145.949 141.472Z" fill="black"/>
<path d="M145 226L155 251" stroke="black" stroke-width="3"/>
<path d="M207 249L246 177" stroke="black" stroke-width="3"/>
<path d="M285 177L308 211" stroke="black" stroke-width="3"/>
<circle cx="121.5" cy="152.5" r="77" stroke="black" stroke-width="3"/>
</svg>
