<svg id="Your_design" data-name="Your design" xmlns="http://www.w3.org/2000/svg" xmlns:xlink="http://www.w3.org/1999/xlink" viewBox="0 0 400 400"><defs><style>.cls-1{fill:none;}.cls-2{fill:#cddec4;}.cls-3{clip-path:url(#clip-path);}.cls-4{fill:#fff;}.cls-5{fill:#eaead1;}.cls-6{clip-path:url(#clip-path-2);}.cls-7{clip-path:url(#clip-path-3);}.cls-8{fill:#f5f5ea;}.cls-9{fill:#033b79;}.cls-10{fill:#f4d353;}.cls-11{clip-path:url(#clip-path-4);}.cls-12{clip-path:url(#clip-path-5);}</style><clipPath id="clip-path"><rect class="cls-1" x="61.12" y="59" width="278" height="222"/></clipPath><clipPath id="clip-path-2"><circle class="cls-1" cx="200.13" cy="200" r="200"/></clipPath><clipPath id="clip-path-3"><rect class="cls-1" x="342.7" y="59.47" width="278" height="222"/></clipPath><clipPath id="clip-path-4"><circle class="cls-1" cx="199.87" cy="200" r="200"/></clipPath><clipPath id="clip-path-5"><rect class="cls-1" x="-220.3" y="59.47" width="278" height="222"/></clipPath></defs><circle class="cls-2" cx="199.87" cy="200" r="200"/><g class="cls-3"><path class="cls-4" d="M289.38,80.63h-7v2.19h7Z"/><path class="cls-4" d="M331.86,114H326.2v-7.82h-5.78V98.46h-5.18V90.64H310V82.88h-5.12V75.06h-4.59V67.29H294v7.77h-4.59v7.82H284.2v7.76H279v7.82h-5.18v7.76H268V114h-5.6v7.76h-5.18V281H337V121.8h-5.18Z"/><path class="cls-2" d="M297.47,93.81a7.06,7.06,0,0,0-7,7v22H304.5v-22A7,7,0,0,0,297.47,93.81Z"/><path class="cls-2" d="M281,138.51a7,7,0,0,0-7,7.05l.06,22,14.06-.06-.06-22A7.13,7.13,0,0,0,281,138.51Z"/><path class="cls-2" d="M313.89,138.45a7,7,0,0,0-7,7.05l.06,22,14.06-.06-.05-22A7.07,7.07,0,0,0,313.89,138.45Z"/><path class="cls-4" d="M337,223.88H257.88V281H337Z"/><path class="cls-2" d="M281.16,183a7.07,7.07,0,0,0-7,7.05v22h14v-22A7,7,0,0,0,281.16,183Z"/><path class="cls-2" d="M314,182.86a7.06,7.06,0,0,0-7,7v22H321v-22A7.1,7.1,0,0,0,314,182.86Z"/><path class="cls-2" d="M282.28,230.7H266.57v45.74h15.71Z"/><path class="cls-2" d="M305.33,230.7H289.61v45.74h15.72Z"/><path class="cls-2" d="M328.37,230.7H312.65v45.74h15.72Z"/><path class="cls-4" d="M154.19,123.58H63.07V281h91.12Z"/><path class="cls-4" d="M154.19,183.36H63V281h91.17Z"/><path class="cls-2" d="M90.14,234.91H71.05v42.48H90.14Z"/><path class="cls-2" d="M118.14,234.91H99.06v42.48h19.08Z"/><path class="cls-2" d="M146.15,234.91H127.06v42.48h19.09Z"/><path class="cls-4" d="M141.48,105.86H135V97h-5.85V88.09h-6V79.26h-5.79V70.38h-5.2V61.49H105v8.89h-5.2v8.88H94v8.83H88.13V97H82.28v8.88H75.72v8.89H69.4v8.83h78.46v-8.83h-6.38Z"/><path class="cls-2" d="M90.14,190.82H71.05v32.3H90.14Z"/><path class="cls-2" d="M118.14,190.82H99.06v32.3h19.08Z"/><path class="cls-2" d="M146.15,190.82H127.06v32.3h19.09Z"/><path class="cls-2" d="M88.07,138a7.8,7.8,0,0,0-7.8,7.82v24.53H95.93V145.8A7.93,7.93,0,0,0,88.07,138Z"/><path class="cls-2" d="M129.19,138a7.8,7.8,0,0,0-7.8,7.82v24.53h15.66V145.8A7.89,7.89,0,0,0,129.19,138Z"/><path class="cls-4" d="M268,111.79h-7.27V114H268Z"/><path class="cls-4" d="M262.39,119.61h-7.27v2.19h7.27Z"/><path class="cls-4" d="M273.71,104.09h-7.27v2.19h7.27Z"/><path class="cls-4" d="M279,96.21h-7.32V98.4H279Z"/><path class="cls-4" d="M284.26,88.51h-7.39V90.7h7.39Z"/><path class="cls-4" d="M294,72.86h-6.56v2.2H294Z"/><path class="cls-4" d="M333.46,111.79H326.2V114h7.26Z"/><path class="cls-4" d="M339.12,119.61h-7.26v2.19h7.26Z"/><path class="cls-4" d="M327.75,104.09h-7.27v2.19h7.27Z"/><path class="cls-4" d="M322.32,96.21h-7.08V98.4h7.08Z"/><path class="cls-4" d="M317.2,88.51H310V90.7h7.21Z"/><path class="cls-4" d="M311.9,80.63h-7v2.19h7Z"/><path class="cls-4" d="M306.84,72.86h-6.56v2.2h6.56Z"/><path class="cls-4" d="M301.89,65.1h-9.53v2.19h9.53Z"/><path class="cls-4" d="M75.72,112.2H67.45v2.55h8.27Z"/><path class="cls-4" d="M69.4,121.09H61.12v2.55H69.4Z"/><path class="cls-4" d="M82.22,103.38H74v2.54h8.27Z"/><path class="cls-4" d="M88.13,94.43H79.86V97h8.27Z"/><path class="cls-4" d="M94,85.66H85.7v2.55H94Z"/><path class="cls-4" d="M99.83,76.66H91.91V79.2h7.92Z"/><path class="cls-4" d="M105,67.83H97.64v2.55H105Z"/><path class="cls-4" d="M149.75,112.2h-8.27v2.55h8.27Z"/><path class="cls-4" d="M156.13,121.09h-8.27v2.55h8.27Z"/><path class="cls-4" d="M143.25,103.38H135v2.54h8.27Z"/><path class="cls-4" d="M137.4,94.43h-8.27V97h8.27Z"/><path class="cls-4" d="M131.5,85.66h-8.28v2.55h8.28Z"/><path class="cls-4" d="M125.29,76.66h-7.92V79.2h7.92Z"/><path class="cls-4" d="M119.56,67.83h-7.39v2.55h7.39Z"/><path class="cls-4" d="M114,59H103.19v2.55H114Z"/><path class="cls-4" d="M166.53,133.65h78.94L206,65.1Z"/><path class="cls-4" d="M205.94,69,169,133.11H154.12v147.4h103.7V133.11H242.87Z"/><path class="cls-4" d="M257.88,223.77H154.24v57.29H257.88Z"/><path class="cls-5" d="M186.09,230.52H165.53v45.74h20.56Z"/><path class="cls-5" d="M216.28,230.52H195.72v45.74h20.56Z"/><path class="cls-5" d="M246.42,230.52H225.86v45.74h20.56Z"/><path class="cls-2" d="M183.29,176.07H163.44v35.14h19.85Z"/><path class="cls-2" d="M215.93,176.07H196.08v35.14h19.85Z"/><path class="cls-2" d="M248.1,176.07H228.25v35.14H248.1Z"/><path class="cls-2" d="M206,96a3.68,3.68,0,1,0,3.67,3.67A3.73,3.73,0,0,0,206,96Z"/><path class="cls-2" d="M188.51,116.94a3.68,3.68,0,1,0,3.67,3.68A3.69,3.69,0,0,0,188.51,116.94Z"/><path class="cls-2" d="M223.49,116.94a3.68,3.68,0,1,0,3.67,3.68A3.69,3.69,0,0,0,223.49,116.94Z"/><path class="cls-2" d="M173.36,146.11a3.43,3.43,0,0,0-3.42,3.44v10.07h6.85V149.55A3.44,3.44,0,0,0,173.36,146.11Z"/><path class="cls-2" d="M206,136.17a6.85,6.85,0,0,0-7,6.58v20.61H213V142.75A6.85,6.85,0,0,0,206,136.17Z"/><path class="cls-2" d="M238.18,146.11a3.43,3.43,0,0,0-3.43,3.44v10.07h6.85V149.55A3.43,3.43,0,0,0,238.18,146.11Z"/><path class="cls-2" d="M108.57,93.81a7.06,7.06,0,0,0-7,7v22H115.6v-22A7,7,0,0,0,108.57,93.81Z"/></g><g class="cls-6"><polygon class="cls-4" points="367.28 90.14 365.83 95.34 361.75 98.37 351.49 113.55 344.77 152.96 344.77 83.35 368.64 83.35 367.28 90.14"/><g class="cls-7"><path class="cls-8" d="M397.56,91.17H405V89h-7.39Z"/><path class="cls-8" d="M392.44,83.29h7V81.1h-7Z"/><path class="cls-8" d="M387.85,75.53h6.56v-2.2h-6.56Z"/><path class="cls-4" d="M344.78,121.13V281.47h79.83V122.27h-5.18v-7.76h-5.6v-7.82h-5.78V98.93h-5.18V91.11h-5.25V83.35h-5.18V75.53h-4.59V67.77h-6.31v7.76H377v7.82h-5.12"/><path class="cls-8" d="M375,75.53h6.56v-2.2H375Z"/><path class="cls-8" d="M379.93,67.77h9.53v-2.2h-9.53Z"/><path class="cls-2" d="M392.74,146l-.06,23,16.07.06.06-23a8,8,0,0,0-8-8.06A8.14,8.14,0,0,0,392.74,146Z"/><path class="cls-2" d="M393.75,146l-.06,22,14.06.06.06-22a7,7,0,0,0-7-7.05A7.13,7.13,0,0,0,393.75,146Z"/><path class="cls-2" d="M360.83,145.91l-.05,22,14.06.06.06-22a7,7,0,0,0-14.07-.06Z"/><path class="cls-2" d="M360.83,101.76l-.05,22,14.06.06.06-22a7,7,0,0,0-14.07-.06Z"/><path class="cls-4" d="M344.82,281.47h79.12V224.36H344.82Z"/><path class="cls-2" d="M393.69,190.52v22h14v-22a7,7,0,1,0-14,0Z"/><path class="cls-2" d="M360.78,190.38v22h14.06v-22a7,7,0,1,0-14.06,0Z"/><path class="cls-5" d="M399.54,276.91h15.71V231.17H399.54Z"/><path class="cls-2" d="M376.49,276.91h15.72V231.17H376.49Z"/><path class="cls-2" d="M353.45,276.91h15.72V231.17H353.45Z"/></g></g><circle class="cls-1" cx="199.87" cy="200" r="200"/><path class="cls-2" d="M227.3,218.29c12.61-.08,21.44,4.83,28.76,12,7.89,7.73,11.73,17.88,11.79,29.38a40.88,40.88,0,0,1-8.11,25c-7.07,9.77-15.18,16.06-23.5,23.7-13.47,12.38-21.82,23.4-28.84,37.17-1.73,3.4-3.21,8.47-7.28,8.47s-5.54-5.07-7.27-8.47c-7-13.77-15.37-24.79-28.84-37.17-8.32-7.64-16.43-13.93-23.5-23.7a40.82,40.82,0,0,1-8.11-25c.06-11.5,3.9-21.65,11.79-29.38,7.31-7.18,16.16-12.09,28.76-12,13,.07,21.27,4.57,27.17,12.1,5.91-7.53,14.17-12,27.18-12.1Z"/><path class="cls-9" d="M195.84,351.25c0,2.23-.89,4-3.07,4s-4.92-4.49-11.39-7.58a38.92,38.92,0,0,0-16.59-4c-6.35,0-17,3.07-27.17,3.2A32.2,32.2,0,0,1,114,336.48a27.73,27.73,0,0,1,3.38-39.82c5.18-4.33,11.16-6.11,18.1-6.13,10.39,0,20.85,5.31,27.48,10.58a100.73,100.73,0,0,1,24.85,29.11C191.29,336.55,195.87,347.12,195.84,351.25Z"/><path class="cls-4" d="M218.25,242.57c8.41,0,14.3,3.23,19.18,8,5.26,5.16,7.82,11.93,7.86,19.6a27.16,27.16,0,0,1-5.41,16.68c-4.71,6.51-10.12,10.71-15.67,15.81-9,8.25-14.56,15.6-19.23,24.79-1.16,2.27-2.15,5.65-4.86,5.65s-3.7-3.38-4.85-5.65c-4.68-9.19-10.25-16.54-19.23-24.79-5.55-5.1-11-9.3-15.68-15.81A27.29,27.29,0,0,1,155,270.18c0-7.67,2.61-14.44,7.87-19.6,4.88-4.78,10.77-8.06,19.18-8,8.68.05,14.19,3.05,18.12,8.08,3.94-5,9.45-8,18.13-8.08Z"/><path class="cls-10" d="M206.92,254a17.31,17.31,0,0,1,10.2-3.45A19.54,19.54,0,0,1,237,270.68c-.22,8.54-4.85,13.09-11.27,19.66-4.38,4.48-8.55,6.81-14.9,13.89a83.58,83.58,0,0,0-10.68,16.53,83.16,83.16,0,0,0-10.67-16.53c-6.35-7.08-10.52-9.41-14.9-13.89-6.42-6.57-11.05-11.12-11.27-19.66a19.55,19.55,0,0,1,19.85-20.1,17.31,17.31,0,0,1,10.2,3.45,22.44,22.44,0,0,1,6.79,8.51,22.55,22.55,0,0,1,6.8-8.51Z"/><path class="cls-9" d="M204.41,351.25c0,2.23.89,4,3.07,4s4.92-4.49,11.39-7.58a38.92,38.92,0,0,1,16.59-4c6.35,0,17,3.07,27.17,3.2a32.2,32.2,0,0,0,23.67-10.39,27.73,27.73,0,0,0-3.38-39.82c-5.18-4.33-11.16-6.11-18.1-6.13-10.39,0-20.85,5.31-27.48,10.58a100.73,100.73,0,0,0-24.85,29.11C209,336.55,204.38,347.12,204.41,351.25Z"/><g class="cls-11"><g class="cls-12"><path class="cls-8" d="M2.83,89H-4.56v2.19H2.83Z"/><path class="cls-8" d="M8,81.1h-7v2.19H8Z"/><path class="cls-8" d="M12.54,73.33H6v2.2h6.56Z"/><path class="cls-4" d="M28.56,83.35H23.44V75.53H18.85V67.77H12.54v7.76H8v7.82H2.77v7.76H-2.47v7.82H-7.66v7.76h-5.78v7.82H-19v7.76h-5.18v159.2H55.61V121.13"/><path class="cls-8" d="M25.41,73.33H18.85v2.2h6.56Z"/><path class="cls-8" d="M20.46,65.57H10.93v2.2h9.53Z"/><path class="cls-4" d="M-.45,138a8,8,0,0,0-8,8.06l.06,23L7.71,169l-.06-23A8.14,8.14,0,0,0-.45,138Z"/><path class="cls-2" d="M-.45,139a7,7,0,0,0-7,7.05l.06,22L6.7,168l0-22A7.14,7.14,0,0,0-.45,139Z"/><path class="cls-2" d="M32.47,138.92a7,7,0,0,0-7,7.05l.06,22,14.06-.06,0-22A7.07,7.07,0,0,0,32.47,138.92Z"/><path class="cls-4" d="M55.57,224.36H-23.55v57.11H55.57Z"/><path class="cls-2" d="M-.27,183.47a7.06,7.06,0,0,0-7,7.05v22h14v-22A7,7,0,0,0-.27,183.47Z"/><path class="cls-2" d="M32.58,183.33a7.06,7.06,0,0,0-7,7v22H39.61v-22A7.1,7.1,0,0,0,32.58,183.33Z"/><path class="cls-5" d="M.85,231.17H-14.86v45.74H.85Z"/><path class="cls-2" d="M23.9,231.17H8.18v45.74H23.9Z"/><path class="cls-2" d="M46.94,231.17H31.22v45.74H46.94Z"/></g><polyline class="cls-4" points="-6.44 83.35 55.13 83.35 55.61 121.13"/><path class="cls-2" d="M32.47,94.54a7,7,0,0,0-7,7l.06,22,14.06-.06,0-22A7.07,7.07,0,0,0,32.47,94.54Z"/></g></svg>