<?xml version="1.0" encoding="utf-8"?>
<!-- Generator: Adobe Illustrator 24.2.1, SVG Export Plug-In . SVG Version: 6.00 Build 0)  -->
<svg version="1.1" id="Laag_1" xmlns="http://www.w3.org/2000/svg" xmlns:xlink="http://www.w3.org/1999/xlink" x="0px" y="0px"
	 viewBox="0 0 400 400" style="enable-background:new 0 0 400 400;" xml:space="preserve">
<style type="text/css">
	.st0{fill:#FFFF00;}
	.st1{fill:#B7B7B7;}
	.st2{fill:#DDDDDD;stroke:#FFFFFF;stroke-width:10;}
	.st3{fill:#FFFF03;}
	.st4{fill:url(#SVGID_1_);}
	.st5{fill:none;}
	.st6{fill:#3544FF;}
	.st7{fill:#0000FF;}
</style>
<g id="Laag_2_1_">
	<g id="Laag_1-2">
		<circle class="st0" cx="200" cy="200" r="200"/>
		<path class="st1" d="M191.4,347.4l-45.4-4.8l-5.1-6.8l-38.2-68.3l-24.3,4.8l-52.1-23.2l-8.2-8.8l21-25.8l36.3-16.8l5.3-17.1
			l-10.1-26.7l21.2-27.1l6.6-28.8l63.3-28.6l48.8,7.8l26.6-37.4l41.7,39.9l15.5,26l-3.4,10.7l-14.2,20.4l-2.5,17.6l46.6,22.2
			l4.4,34.9l19.5,26.8c-1.6,2.7-3.1,5.5-4.7,8.2l-24.2,6.7l-4.2,11.9l46.9,22.1l-6.2,11L304,330.2l-89.9,32.6L191.4,347.4z"/>
		<path class="st2" d="M189.3,336l-45.4-4.8l-43.3-75l-24.3,4.8l-52.1-23.3L36.8,203l36.4-16.8l5.3-17.1l-10.1-26.7l21.2-27.1
			l6.6-28.8l63.3-28.6l48.8,7.9l26.6-37.4l41.7,39.9l12.1,36.6l-14.2,20.4l-2.5,17.6l46.6,22.2l4.4,34.9l14.8,35l-24.1,6.7
			l-4.3,11.9l40.6,33.1l-48.1,32.1L212,351.4L189.3,336z"/>
		<path class="st1" d="M295.6,250c0.1,3.8-48.4,7.4-58,8c-25.8,1.9-30.3,0.8-33.1,0c-7.7-2.2-13.5-5.8-22.3-4.1
			c-4.9,1-6.5,2.8-13.3,4.1c-5.2,1-10.5,1.2-15.8,0.6c-2.2-0.2-35.9-2.7-35.9-7c-0.1-5.7,58.5-10.6,89.2-12c0,0,23.6-1.1,81.7,7.9
			C290.8,248.1,295.5,248.8,295.6,250z"/>
		<path class="st3" d="M179,141.9c0.5,9.1-1.1,18.1-4.9,26.4c-0.8,1.7-1.6,3.3-2.6,4.9l0,0l-0.1,0.1c-0.3,0.4-0.5,0.7-0.7,1.1
			c-0.3,0.3-0.5,0.7-0.7,1.1l0,0l-0.1,0.1c-0.5,0.7-1,1.5-1.4,2.2l-0.1,0.1c-0.5,0.7-1,1.5-1.4,2.2c-1,1.5-1.9,3.1-2.6,4.7
			c-0.8,1.5-1.5,3.1-2.1,4.8c-0.4,0.8-0.6,1.6-0.8,2.4c-0.1,0.1-0.1,0.2-0.1,0.4l0,0l0,0l-0.1,0.3c-0.2,0.5-0.4,1.1-0.5,1.6
			c-0.2,0.7-0.4,1.4-0.6,2c-0.3-0.7-0.4-1.4-0.6-2c-0.1-0.7-0.3-1.4-0.6-2.1v-0.1l-0.1-0.1l0,0c-0.2-0.8-0.5-1.6-0.8-2.4
			c-0.5-1.6-1.2-3.1-2-4.5l-0.1-0.1l0,0c-0.8-1.7-1.7-3.3-2.7-4.9c-0.4-0.8-0.9-1.6-1.4-2.3c0,0,0-0.1,0-0.1
			c-1.3-1.9-2.3-3.6-3.1-4.7c0,0-1.6-2.6-2.7-4.9c-4.2-8.5-5.1-19-5.5-23.6c-0.1-0.9-0.1-1.6-0.1-2c6,14,16.2,21.9,23.6,20.2
			c4.5-1.1,8.1-5.8,9.6-7.8C176.5,151.2,178.3,146.7,179,141.9z"/>
		
			<linearGradient id="SVGID_1_" gradientUnits="userSpaceOnUse" x1="156.8556" y1="275.1107" x2="162.5044" y2="235.7893" gradientTransform="matrix(1 0 0 -1 0 400)">
			<stop  offset="0.31" style="stop-color:#FFFFFF"/>
			<stop  offset="0.6" style="stop-color:#FFFFFF"/>
			<stop  offset="0.64" style="stop-color:#FFFFFA"/>
			<stop  offset="0.69" style="stop-color:#FFFFED"/>
			<stop  offset="0.75" style="stop-color:#FFFFD7"/>
			<stop  offset="0.8" style="stop-color:#FFFFB8"/>
			<stop  offset="0.86" style="stop-color:#FFFF90"/>
			<stop  offset="0.91" style="stop-color:#FFFF5F"/>
			<stop  offset="0.97" style="stop-color:#FFFF27"/>
			<stop  offset="1" style="stop-color:#FFFF03"/>
		</linearGradient>
		<circle class="st4" cx="159.7" cy="144.6" r="19.9"/>
		<circle cx="151" cy="148.5" r="8.4"/>
		<g>
			<path class="st5" d="M153.2,229.2c0.3,0,0.5,0,0.7,0C153.7,229.2,153.4,229.2,153.2,229.2z"/>
			<path class="st6" d="M139.1,198.7l30.2-3.7l29.4-22.8c2.4,1.5,4.9,3.1,7.3,4.6c1.2,0.9,2.9,2.2,4.9,3.9c2.3,1.9,4.4,3.6,6.2,5.4
				c2,2,4.7,5,7.4,9.4c0.6,1.8,1.5,4.2,3,6.6c2.7,4.2,6,6.7,8.1,8.1c2.3,0.9,5.6,2.1,9.7,2.7c3.1,0.5,5.6,0.4,7.3,0.4
				c4.9-0.1,6.5-0.7,10.5-0.9c2.4-0.1,6.1-0.1,10.6,0.6c1.5,0.6,6.4,2.7,9.5,8c3.6,6.2,2.4,12.4,2.1,13.8
				c-24.1,3.9-48.2,7.7-72.4,11.6l-37.4-5.8l-45.9-8.8L139.1,198.7z"/>
			<path class="st5" d="M149.7,202.5c0.2,0,0.4,0.1,0.7,0.1C150.1,202.6,149.9,202.5,149.7,202.5z"/>
			<path class="st5" d="M173.7,201.2c0.1,0,0.3,0,0.4,0.1c0,0,0.1,0.1,0.1,0.1c0,0,0-0.1-0.1-0.1C174,201.3,173.8,201.2,173.7,201.2
				z"/>
			<path class="st5" d="M195.4,177c0.3-0.2,0.5-0.4,0.8-0.5C195.9,176.6,195.7,176.8,195.4,177z"/>
			<path class="st5" d="M139.9,229.2c-0.1-0.1-0.1-0.2-0.1-0.4c0-0.3,0.3-0.3,0.7-0.3c-0.4,0-0.7,0.1-0.8,0.3c0,0.4,0.2,0.6,0.4,0.7
				C140.1,229.5,140,229.4,139.9,229.2z"/>
			<path class="st5" d="M155.1,229.2c-0.3,0-0.7,0-1,0c0,0,0,0,0,0C154.4,229.2,154.7,229.2,155.1,229.2z"/>
			<path class="st5" d="M232.5,208.5c0.3,0.3,0.7,0.6,1.4,0.9C233.4,209.1,232.9,208.8,232.5,208.5z"/>
			<path class="st5" d="M224.1,198.6c0,0,0.1,0,0.1,0C224.2,198.6,224.1,198.6,224.1,198.6z"/>
			<path class="st5" d="M141.6,229.8C141.6,229.8,141.6,229.8,141.6,229.8c0.2,0,0.4,0.1,0.6,0.1C142,229.9,142,229.8,141.6,229.8
				C141.6,229.8,141.6,229.8,141.6,229.8z"/>
			<path class="st5" d="M229.6,206.4c0.1,0,0.3,0,0.4,0.1C229.9,206.4,229.7,206.4,229.6,206.4z"/>
			<path class="st5" d="M229.5,206.4C229.5,206.4,229.5,206.4,229.5,206.4C229.5,206.4,229.5,206.4,229.5,206.4z"/>
			<path class="st5" d="M225.9,199.7c0,0.2,0,0.3,0.1,0.5C225.9,200,225.9,199.9,225.9,199.7z"/>
			<path class="st5" d="M222.3,200.3c0.2-0.2,0.4-1,0.8-1.4C222.6,199.4,222.4,200.2,222.3,200.3c-1.1,1.2-2.3,2.3-3.4,3.4
				C220,202.7,221.2,201.5,222.3,200.3z"/>
			<path class="st5" d="M217.7,189.6c0-0.1,0.1-0.1,0.1-0.1C217.8,189.5,217.7,189.5,217.7,189.6c-1.8,2.4-3.7,4.6-5.8,6.7
				C214,194.2,215.9,191.9,217.7,189.6z"/>
			<path class="st5" d="M204.7,210.3c0.1-0.1,0.2-0.2,0.3-0.3c2.1-1.4,4.1-2.9,5.9-4.6c-1.8,1.7-3.8,3.2-5.9,4.6
				C204.9,210.1,204.8,210.2,204.7,210.3z"/>
			<path class="st5" d="M150.6,231.5c0.9,0.1,1.9,0.2,2.8,0.3c-0.7-0.1-1.5-0.1-2.3-0.2C151.1,231.5,150.9,231.5,150.6,231.5z"/>
			<path class="st5" d="M198.1,201.9c-0.4,0.2-0.6,0.4-0.8,0.5C197.4,202.3,197.7,202.1,198.1,201.9c2.9-1.9,5.6-4.3,7.9-6.9
				C203.6,197.6,201,199.9,198.1,201.9z"/>
			<path class="st5" d="M244.3,213.5c-0.1,0-0.2-0.1-0.3-0.1c0.1,0,0.1,0,0.2,0.1C244.2,213.5,244.3,213.5,244.3,213.5z"/>
			<path class="st5" d="M211.7,216.9c-0.5,0.4-0.6,0.7-0.2,1.2c0.9,1.5,1.3,2,1.9,1.9c-0.7,0.1-1-0.5-1.9-1.9
				C211.2,217.6,211.3,217.3,211.7,216.9c5.1-4.2,9.8-8.9,14.1-13.9c0.4-0.5,1-0.9,1-1.4c-0.1,0.5-0.6,0.9-1,1.4
				C221.5,208.1,216.8,212.7,211.7,216.9z"/>
			<path class="st5" d="M257.1,213.5C257.1,213.5,257.1,213.5,257.1,213.5c-1.1,0.2-1.9,0.3-2.4,0.4
				C255.5,213.8,256.3,213.7,257.1,213.5C257.1,213.5,257.1,213.5,257.1,213.5z"/>
			<path class="st5" d="M230.6,206.9c0,0-0.1-0.1-0.1-0.1c-0.1-0.1-0.3-0.2-0.4-0.3c0.1,0.1,0.3,0.2,0.4,0.3
				C230.5,206.8,230.5,206.9,230.6,206.9z"/>
			<path class="st5" d="M241.9,212.8c-0.3-0.1-0.6-0.2-0.8-0.3c-0.1,0-0.2,0-0.2-0.1c0.1,0,0.1,0,0.2,0.1
				C241.3,212.7,241.6,212.8,241.9,212.8z"/>
			<path class="st7" d="M290.8,226.5c-1-2.4-2.8-3.5-5.1-3c-0.9,0.2-0.9-0.1-1.1-0.8c-1.3-5.2-4.5-8.7-9.7-10
				c-5.3-1.3-10.5-1.2-15.9-0.5c-2.1,0.3-4.3,0.6-6.5,0.6c-8.7-0.1-16.9-1.6-23.1-8.6c-1.6-1.7-2.6-3.8-3.1-6
				c-0.2-1.2-0.7-2.3-1.3-3.3c-1.2-2-2.7-3.9-4.4-5.6c-1.6-1.8-3.3-3.5-5.2-5c-2.9,3.8-6,7.4-9.4,10.7c-2.4,2.6-5.1,4.9-8,6.9
				c-0.3,0.2-0.6,0.4-0.8,0.5c-0.5,0.4-0.4,0.7,0.4,1.7l0.7,1c0.9,1.3,0.9,1.3,2.3,0.4c4.1-2.7,7.9-5.8,11.3-9.2
				c2.1-2.1,4-4.3,5.7-6.6c0.1-0.1,0.1-0.1,0.2-0.2c0.5-0.6,0.9-0.4,1.5,0c1,0.8,1.5,2.1,2.7,2.8c0.3,0.2,0,0.4,0,0.6
				c-0.3,0.8-0.8,1.6-1.5,2.2c-3,3.7-6.1,7.3-9.6,10.4c-1.8,1.7-3.8,3.2-5.9,4.6c-0.1,0.1-0.2,0.2-0.3,0.3c-0.2,0.3-0.1,0.6,0.2,0.9
				c0.4,0.5,0.8,1,1.1,1.6c0.5,1.1,1,0.9,1.8,0.3c3.9-2.9,7.6-6,11-9.4c1.1-1.1,2.3-2.2,3.4-3.4c0.2-0.2,0.4-1,0.9-1.5
				c0.2-0.2,0.4-0.3,0.6-0.4c0.1,0,0.3,0,0.4,0c0,0,0.1,0,0.1,0c0.6,0.1,1.2,0.4,1.6,1c0,0,0,0.1,0.1,0.1c0.1,0.2,0,0.3,0.1,0.5
				c0,0.1,0.1,0.2,0.3,0.3c0.5,0.4,0.6,0.7,0.6,1.1c0,0.5-0.6,0.9-1,1.4c-4.2,5.1-8.9,9.7-14,13.9c-0.5,0.4-0.6,0.7-0.2,1.2
				c0.9,1.4,1.3,2,1.9,1.9c0.4-0.1,0.9-0.3,1.7-0.8c5.4-3,10-7.1,13.6-12.1c0.3-0.4,0.5-0.6,0.7-0.7c0,0,0,0,0,0c0,0,0,0,0,0
				c0,0,0,0,0,0c0.1,0,0.3,0,0.4,0.1c0,0,0,0,0,0c0.1,0.1,0.2,0.1,0.4,0.3c0,0,0.1,0.1,0.1,0.1c0.6,0.5,1.2,0.9,1.7,1.5
				c0,0.1,0.1,0.1,0.2,0.2c0.4,0.3,0.9,0.6,1.4,0.9c0.6,0.3,1.4,0.7,2.5,1.3c1.5,0.7,3,1.3,4.5,1.8c0.1,0,0.2,0,0.2,0.1
				c0.3,0.1,0.5,0.2,0.8,0.3c0.6,0.2,1.3,0.3,2.1,0.6c0.1,0,0.2,0.1,0.3,0.1c1.4,0.3,2.8,0.4,4.1,0.4c1.7,0.2,3.4,0.2,5.1,0.2
				c0.4,0,0.7-0.1,1.1-0.1c0.6-0.1,1.3-0.2,2.4-0.4c0,0,0,0,0,0c2.5-0.5,5.1-0.8,7.6-0.9c2.1-0.1,4.2,0.1,6.2,0.5
				c1.7,0.3,3.4,0.8,5,1.5c1.7,0.6,3.2,1.6,4.5,2.8c1.6,1.6,2.6,3.6,3.1,5.7c0,0,0.8,3.5-0.4,5.8c-0.1,0.2-0.5,0.9-1,1.1
				c-0.4,0.1-0.8,0.3-1.2,0.6c-4.5,3.6-9.8,5.2-15.3,6.4c-2.9,0.7-5.9,1.2-8.9,1.6c-3.3,0.3-6.6,0.8-9.9,0.8c-3.1,0-6.2,0.5-9.3,0.4
				c-4.5-0.1-5.5-0.2-9.6-0.1c-3.4,0.1-3.4,0.3-7.1,0.5c-7.6,0.4-11.5,0.6-15.6-0.6c-2.9-0.8-4.4-1.4-7.8-2.5
				c-1.7-0.7-3.6-1.1-5.5-1.3c-0.5,0-1-0.1-1.4-0.4c-0.3-0.2-0.6-0.3-0.9-0.3c-5.2-0.8-14.2-1.9-14.2-1.9c-3.5,0.1-9.8-0.5-22-1.5
				c-0.9,0-1.9-0.1-2.8-0.3c-0.9-0.1-2.7-0.3-5.4-0.8c-2.4-0.4-2.9-0.6-3.1-0.7c-0.2,0-0.4-0.1-0.6-0.1c0,0,0,0,0,0
				c-0.4,0-0.9,0-1.3-0.3c-0.3-0.1-0.5-0.3-0.4-0.7c0.1-0.3,0.4-0.4,0.8-0.3c0.4,0,0.9,0.1,1.3,0.1c3.1,0.2,8.5,0.5,11.4,0.6
				c0.2,0,0.5,0,0.7,0c0.1,0,0.1,0,0.2,0c0.3,0,0.7,0,1,0c1,0,2.5-0.1,4.9-0.2c2.8-0.1,3.8-0.2,4.5-0.3c1.8-0.2,1.7-0.3,3.6-0.5
				c1.4-0.1,2-0.2,3-0.4c1-0.3,1.8-0.6,2.3-0.9c0.3-0.3,0.7-0.8,0.6-1.2c0-0.1-0.1-0.2-0.1-0.2c-0.6-0.7-0.3-2.7-0.3-2.7
				c0.6-3.8-1.5-9.1,0.9-14.8c0.3-0.8,1-2.1,0.8-3.9c-0.2-1.2-0.7-2.1-1-2.7c0,0-0.1-0.1-0.1-0.1c-0.1-0.1-0.2-0.1-0.4-0.1
				c-0.4,0-0.8,0.3-1.1,0.5c-0.8,0.5-1.1,0.7-2.2,1.5c-0.8,0.5-1.4,0.8-2.4,1.3c-0.2,0.1-1.1,0.5-2,0.9c-2.5,1.1-5.1,2.2-8,1.7
				c-0.3-0.1-0.1,0-1.5-0.4c0,0-7.6-2.1-8.4-3.3c-0.1-0.2-0.1-0.4-0.1-0.4c0-0.2,0.1-0.4,0.2-0.5c0.4-0.3,1-0.1,1.2-0.1
				c0.1,0,0.2,0,0.3,0.1c0.2,0,0.4,0.1,0.7,0.1c1.4,0.2,3.9,0.3,7.6,0.5c2,0.1,3.9-0.6,7.5-2.1c1.3-0.5,5.4-2.3,10.5-6.1
				c0.8-0.6,4.4-3.4,8.3-7.6c1.7-1.9,4.3-4.9,7.7-7.7c1-0.9,1.6-1.3,2.9-2.2c0.2-0.1,0.4-0.3,0.6-0.4c0.2-0.2,0.5-0.4,0.8-0.5
				c1.4-0.9,2.3-1.4,3.2-1.5c0.2,0,2.6-0.2,3.9,1c0.6,0.5,1.3,0.8,1.9,1.2c0.1,0,0.3,0.2,0.5,0.1c0.2-0.1,0.3-0.4,0.4-0.5
				c0,0,0,0,0.1,0c-0.3-0.4-0.6-0.7-1-1c-1-0.7-1.9-1.5-2.8-2.2c-2.1-0.3-3.9,0.6-5.6,1.6c-1.9,1.3-3.7,2.7-5.4,4.2
				c-0.5,0.7-1.5,0.8-2.1,0.2c-0.7-0.5-1.3-0.9-2-1.4c-0.2,0.2-0.5,0.4-0.7,0.7c-6.1,4.3-12.1,8.7-18.1,13c-0.5,0.3-1.1,0.5-1.7,0.4
				c-13.5-1-27-1.9-40.5-2.9c-0.7-0.1-0.9,0.1-0.9,0.8c-1.2,11.6-2.4,23.1-3.7,34.7c0,0.4-0.2,0.8,0.2,1c0.6,0.3,0.5,0.6,0.2,1.1
				c-0.4,0.7-0.7,1.5-0.8,2.3c-0.5,2.7-0.8,5.4-0.9,8.1c-0.1,0.7-0.3,1.4-0.8,2c-3.2,4.7-3.1,7.6,1.2,10.9c2.3,1.7,4.9,2.9,7.6,3.7
				c8.1,2.7,16.5,3.9,25,4.7c5.3,0.6,10.6,0.4,15.8-0.6c1.9-0.3,3.7-1.1,5.3-2.3c1.8-1.6,3.7-3,5.7-4.3c2.6-1.7,5.4-3.2,8.5-3.6
				c1.6-0.4,3.4,0.1,4.6,1.2c0.5,0.5,1.1,0.9,1.8,1.3c6,3.7,12.7,5.2,19.5,6.2c5.6,0.9,11.2,0.8,16.8,1c12.3,0.4,24.4-0.5,36.1-4.3
				c8.1-2.7,15.6-6.5,21.9-12.5c1.8-1.4,2.8-3.6,2.7-5.9C291.6,232,291.8,229.1,290.8,226.5z"/>
			<path class="st6" d="M205.4,176c-0.2-0.2-0.3-0.3-0.6-0.5c-0.3-0.3-0.6-0.5-0.8-0.7c-0.7-0.5-1.5-1.1-1.9-1.3
				c-1.9,0.5-3.1,1.1-3.8,1.4c-0.7,0.4-1.8,1.1-2.3,1.4c-0.3,0.2-0.8,0.5-0.8,0.5c-0.2,0.1-0.4,0.3-0.6,0.4c-0.9,0.6-1.4,1-2,1.5
				c0,0-0.4,0.3-0.9,0.7c-3.3,2.8-7.7,7.7-7.7,7.7c-3.4,3.9-6.7,6.4-8.3,7.6c-5.1,3.9-9.3,5.7-10.5,6.1c-3.6,1.5-5.4,2.2-7.5,2.1
				c-3.7-0.2-6.2-0.3-7.6-0.5c-0.3,0-0.5-0.1-0.7-0.1c-0.1,0-0.2,0-0.3-0.1c-0.2,0-0.8-0.3-1.2,0.1c-0.1,0.1-0.2,0.3-0.2,0.5
				c0,0,0,0.2,0.1,0.4c0.8,1.1,8.4,3.3,8.4,3.3c1.4,0.4,1.2,0.4,1.5,0.4c2.9,0.6,5.5-0.6,8-1.7c0.9-0.4,1.8-0.8,2-0.9
				c1-0.5,1.6-0.8,2.4-1.3c1.1-0.8,1.5-0.9,2.2-1.5c0.3-0.2,0.7-0.5,1.1-0.5c0.2,0,0.3,0,0.5,0.1c0,0,0,0.1,0.1,0.1
				c0.4,0.6,0.9,1.5,1,2.7c0.2,1.8-0.4,3.2-0.8,3.9c-2.4,5.7-0.4,11-0.9,14.8c0,0-0.3,2,0.3,2.7c0,0,0.1,0.1,0.1,0.2
				c0.1,0.4-0.2,0.8-0.6,1.2c-0.5,0.3-1.3,0.6-2.3,0.9c-1,0.2-1.6,0.3-3,0.4c-1.8,0.2-1.8,0.3-3.6,0.5c-0.8,0.1-1.8,0.2-4.5,0.3
				c-2.4,0.1-3.8,0.2-4.9,0.2c-0.4,0-0.7,0-0.9,0c0,0,0,0,0,0c0,0-0.1,0-0.2,0c-0.2,0-0.4,0-0.7,0c-2.8-0.1-8.3-0.3-11.4-0.6
				c-0.4,0-0.9-0.1-1.3-0.1c-0.4,0-0.7,0.1-0.7,0.3c0,0.1,0,0.2,0.1,0.4c0.1,0.1,0.2,0.2,0.3,0.3c0.4,0.2,1,0.3,1.3,0.3
				c0,0,0.1,0,0.1,0c0.4,0,0.4,0,0.5,0.1c0.2,0.1,0.6,0.3,3.1,0.7c2.7,0.5,4.5,0.7,5.4,0.8c0.3,0,0.5,0.1,0.5,0.1
				c0.8,0.1,1.5,0.1,2.3,0.2c12.2,1.1,18.5,1.6,22,1.5c0,0,9,1.2,14.2,1.9c0.3,0.1,0.6,0.2,0.9,0.3c0.4,0.2,0.9,0.4,1.4,0.4
				c1.9,0.1,3.7,0.6,5.5,1.3c3.4,1.1,4.9,1.7,7.8,2.5c4.1,1.1,8,0.9,15.6,0.6c3.7-0.2,3.8-0.4,7.1-0.5c4.2-0.1,5.1,0,9.6,0.1
				c3.1,0.1,6.2-0.4,9.3-0.4c3.3,0,6.6-0.5,9.9-0.8c3-0.3,6-0.9,8.9-1.6c5.5-1.2,10.8-2.8,15.3-6.4c0.3-0.3,0.7-0.5,1.2-0.6
				c0.5-0.2,0.9-0.8,1-1.1c1.2-2.3,0.4-5.8,0.4-5.8c-0.5-2.2-1.5-4.2-3.1-5.7c-1.3-1.2-2.8-2.2-4.5-2.8c-1.6-0.7-3.3-1.2-5-1.5
				c-2.1-0.4-4.1-0.5-6.2-0.5c-2.6,0.1-5.1,0.4-7.6,0.9c0,0,0,0,0,0c-0.8,0.2-1.6,0.3-2.4,0.4c-0.4,0-0.7,0.1-1.1,0.1
				c-1.7,0-3.4,0-5.1-0.2c-1.4,0-2.8-0.1-4.1-0.4c0,0-0.1,0-0.1,0c-0.1,0-0.1,0-0.2-0.1c-0.8-0.2-1.4-0.4-2.1-0.6
				c-0.3-0.1-0.6-0.2-0.9-0.3c-0.1,0-0.1,0-0.2-0.1c-1.5-0.5-3-1.1-4.5-1.8c-1.1-0.5-1.9-0.9-2.5-1.3c-0.6-0.3-1.1-0.6-1.4-0.9
				c-0.1-0.1-0.1-0.1-0.2-0.2c-0.6-0.5-1.1-1-1.7-1.5c0,0-0.1-0.1-0.1-0.1c-0.1-0.1-0.2-0.2-0.4-0.3c0,0,0,0,0,0
				c-0.1-0.1-0.3-0.1-0.4-0.1c0,0,0,0,0,0c0,0,0,0,0,0c0,0,0,0,0,0c-0.2,0.1-0.5,0.3-0.7,0.7c-3.6,5-8.2,9.2-13.6,12.1
				c-0.8,0.5-1.3,0.8-1.7,0.8c-0.7,0.1-1-0.5-1.9-1.9c-0.3-0.5-0.3-0.8,0.2-1.2c0.4-0.4,5-4.9,14.1-13.9c0.1-0.1,0.1-0.1,0.9-1
				c0.6-0.6,0.7-0.7,0.7-0.8c0.1-0.3,0-0.4-0.7-1.8c-0.1-0.3-0.2-0.4-0.2-0.6c-0.1-0.2-0.1-0.4-0.3-1.1c-0.1-0.5-0.1-0.6-0.2-0.7
				c-0.1-0.1-0.4-0.1-1.3,0.6c-0.8,0.6-1.3,0.9-1.7,1.4c-0.5,0.6-0.7,1.2-0.8,1.4c-0.7,1.6-2.4,2.5-3.4,3.4c-3.5,3.4-7.2,6.5-11,9.4
				c-0.8,0.6-1.3,0.8-1.8-0.3c-0.3-0.6-0.7-1.1-1.1-1.6c-0.3-0.4-0.4-0.7-0.2-0.9c0.1-0.1,0.2-0.2,0.3-0.3c2.1-1.4,4-2.9,5.9-4.6
				c3.5-3.2,6.6-6.7,9.6-10.4c0.2-0.2,0.5-0.6,0.9-1c0.9-1.2,1.4-1.8,1.3-2.5c0-0.6-0.4-0.5-1.9-2.4c-0.6-0.8-0.8-1.1-1.1-1.1
				c-0.7,0-1.4,0.9-1.9,1.4c-0.1,0.1-0.1,0.1-0.1,0.1c-1.8,2.4-3.7,4.6-5.8,6.7c-3.4,3.5-7.2,6.6-11.3,9.2c-1.4,0.9-1.4,0.9-2.3-0.4
				l-0.7-1c-0.7-1-0.9-1.3-0.4-1.7c0.2-0.1,0.4-0.3,0.8-0.5c2.9-2,5.6-4.3,7.9-6.9c3.4-3.4,6.5-7,9.4-10.7c0,0,0,0,0.1-0.1
				c-0.6-0.7-1.3-1.4-2.2-2.1c-0.9-0.7-1.7-1.4-2.5-1.9c-2.4,3.3-4.8,6-6.6,8c0,0-2.9,3.1-8.5,8c-2.4,2.1-2.5,1.8-2.9,2.4
				c-0.1,0.1-0.4,0.6-0.8,0.6c-0.2,0-0.4-0.2-0.5-0.4c-0.7-0.9-1.3-1.9-2-2.8c-0.4-0.6-0.3-0.9,0.2-1.2c6.3-4.1,11.2-9.6,15.7-15.6
				c0.5-0.7,0.9-1.3,1.4-2c-0.1-0.1-0.2-0.1-0.3-0.3c-0.3-0.2-0.4-0.3-0.6-0.4C205.7,176.3,205.7,176.3,205.4,176z"/>
		</g>
		<path class="st7" d="M210.7,180.3c-1.8,2.9-4,5.5-6.5,7.9c-3.7,3.8-7.7,7.2-11.6,10.7c-0.5,0.4-0.8,0.6-1.2-0.1
			c-0.6-1-1.3-1.9-2-2.8c-0.4-0.6-0.3-0.9,0.2-1.2c6.3-4.1,11.2-9.6,15.7-15.6l1.5-2L210.7,180.3z"/>
		<path class="st7" d="M202.2,173.6c-2.1-0.3-3.9,0.6-5.6,1.7c-1.9,1.3-3.7,2.7-5.4,4.2c-0.5,0.7-1.5,0.8-2.1,0.2
			c-0.6-0.5-1.3-0.9-2-1.4c-0.1-0.5,0-1.1,0.4-1.5c2.3-2.6,4.5-5.2,7.8-6.6S200.9,170.2,202.2,173.6z"/>
		<path class="st3" d="M224.7,197.4v-0.1V197.4z"/>
	</g>
</g>
</svg>
