<?xml version="1.0" encoding="UTF-8" standalone="no"?>
<svg
   xmlns:dc="http://purl.org/dc/elements/1.1/"
   xmlns:cc="http://creativecommons.org/ns#"
   xmlns:rdf="http://www.w3.org/1999/02/22-rdf-syntax-ns#"
   xmlns:svg="http://www.w3.org/2000/svg"
   xmlns="http://www.w3.org/2000/svg"
   xmlns:xlink="http://www.w3.org/1999/xlink"
   id="svg4598"
   version="1.1"
   viewBox="0 0 52.374732 17.853839"
   height="67.47908"
   width="197.95175">
  <defs
     id="defs4592">
    <linearGradient
       id="linearGradient3384">
      <stop
         id="stop3386"
         offset="0"
         style="stop-color:#0071b6;stop-opacity:1" />
      <stop
         id="stop3388"
         offset="1"
         style="stop-color:#ffffff;stop-opacity:1" />
    </linearGradient>
    <clipPath
       clipPathUnits="userSpaceOnUse"
       id="clipPath4231">
      <path
         d="M 2137.74,1588.57 H 660.602 c 192.527,140.5 452.458,226.66 738.548,226.66 286.13,0 546.1,-86.16 738.59,-226.66"
         id="path4229" />
    </clipPath>
    <clipPath
       clipPathUnits="userSpaceOnUse"
       id="clipPath4243">
      <path
         d="M 660.602,1588.57 H 2137.74 c -192.49,140.5 -452.46,226.66 -738.59,226.66 -286.09,0 -546.021,-86.16 -738.548,-226.66"
         id="path4241" />
    </clipPath>
    <linearGradient
       gradientTransform="translate(0.12673249,0.06336638)"
       gradientUnits="userSpaceOnUse"
       y2="191.90489"
       x2="69.789574"
       y1="185.06133"
       x1="69.726212"
       id="linearGradient3390"
       xlink:href="#linearGradient3384" />
  </defs>
  <metadata
     id="metadata4595">
    <rdf:RDF>
      <cc:Work
         rdf:about="">
        <dc:format>image/svg+xml</dc:format>
        <dc:type
           rdf:resource="http://purl.org/dc/dcmitype/StillImage" />
        <dc:title></dc:title>
      </cc:Work>
    </rdf:RDF>
  </metadata>
  <g
     transform="translate(-43.492544,-183.61937)"
     id="layer1">
    <path
       d="m 65.883635,193.16201 c -0.486482,0 -0.735895,0.39441 -0.800807,0.87701 -0.07126,0.53234 -0.351013,2.38054 -0.413102,2.84974 -0.03739,0.28116 -0.05821,0.57503 -0.330553,0.69603 -0.272697,0.1203 -0.604661,-0.0646 -0.887589,-0.30515 -0.283281,-0.2413 -4.473928,-3.80895 -4.473928,-3.80895 -0.240241,-0.21025 -0.542926,-0.30868 -0.831497,-0.30868 -0.632532,0 -1.240368,0.39229 -1.240368,1.35255 l 0,5.9496 c 0,0.46355 0.326674,0.75988 0.71755,0.75988 0.430743,0 0.710496,-0.2861 0.771879,-0.7052 0,0 0.460728,-2.83527 0.517525,-3.15172 0.06491,-0.36724 0.12312,-0.65581 0.477661,-0.76552 0.321381,-0.0998 0.624417,0.0864 1.077031,0.48224 0.445911,0.38947 4.219575,3.7973 4.219575,3.7973 0.288925,0.24377 0.499534,0.34255 0.90805,0.34255 0.37077,0 1.04387,-0.15169 1.04387,-1.28482 l 0,-5.92631 c 0,-0.55033 -0.340079,-0.85055 -0.755297,-0.85055"
       style="fill:#006eb5;fill-opacity:1;fill-rule:nonzero;stroke:none;stroke-width:0.03527778"
       id="path4257" />
    <path
       d="m 92.877838,199.50178 c -3.288241,0.70803 -7.050968,-0.0487 -7.050968,-2.37419 0,-1.75825 1.630892,-2.47368 2.915354,-2.57704 1.347258,-0.1076 2.400654,0.17568 2.943225,0.73836 0.338669,0.35137 0.244475,0.83115 -0.420511,0.8703 -0.612775,0.0367 -1.761418,0.0723 -2.717445,0.10901 -0.542928,0.0205 -0.832911,0.3108 -0.832911,0.70132 0,0.30974 0.233188,0.66499 0.85725,0.66781 0.89535,0.004 3.168298,0.018 4.296481,0.0212 0.745067,0.002 1.112309,-0.41522 1.112309,-1.27212 0,-1.35749 -1.230135,-3.41771 -4.83094,-3.41771 -3.262135,0 -5.622219,1.62454 -5.622219,4.28061 0,3.76696 5.543199,4.91631 9.60473,3.51649 0.384879,-0.13194 0.733777,-0.40852 0.621945,-0.83856 -0.09772,-0.3817 -0.40922,-0.52669 -0.8763,-0.42545"
       style="fill:#006eb5;fill-opacity:1;fill-rule:nonzero;stroke:none;stroke-width:0.03527778"
       id="path4259" />
    <path
       d="m 54.73014,199.50178 c -3.287853,0.70803 -7.050581,-0.0487 -7.050581,-2.37419 0,-1.75825 1.629798,-2.47368 2.915109,-2.57704 1.346906,-0.1076 2.400265,0.17568 2.942802,0.73836 0.338984,0.35137 0.244474,0.83115 -0.420158,0.8703 -0.612811,0.0367 -1.76142,0.0723 -2.717765,0.10901 -0.542961,0.0205 -0.833297,0.3108 -0.833297,0.70132 0,0.30974 0.233574,0.66499 0.85725,0.66781 0.895738,0.004 3.168933,0.018 4.297574,0.0212 0.744255,0.002 1.11192,-0.41522 1.11192,-1.27212 0,-1.35749 -1.230453,-3.41771 -4.830973,-3.41771 -3.262101,0 -5.622538,1.62454 -5.622538,4.28061 0,3.76696 5.543551,4.91631 9.605046,3.51649 0.384915,-0.13194 0.733459,-0.40852 0.621983,-0.83856 -0.09775,-0.3817 -0.409188,-0.52669 -0.876372,-0.42545"
       style="fill:#006eb5;fill-opacity:1;fill-rule:nonzero;stroke:none;stroke-width:0.03527778"
       id="path4261" />
    <path
       d="m 80.197947,195.88052 c 0.07197,2.05352 0.265641,3.75708 0.319616,4.35363 0.0702,0.77047 0.468488,0.98989 0.868186,0.98989 0.383823,0 0.790223,-0.20037 0.860777,-0.98283 0.05927,-0.65864 0.254,-2.69029 0.34925,-4.70006 0.0049,-0.10478 -0.06809,-0.14958 -0.151339,-0.13441 l -2.140305,0.34643 c -0.0628,0.0134 -0.108302,0.0653 -0.106185,0.12735"
       style="fill:#006eb5;fill-opacity:1;fill-rule:nonzero;stroke:none;stroke-width:0.03527778"
       id="path4263" />
    <path
       d="m 81.392099,192.96834 c -0.982134,0 -1.268236,0.76941 -1.256948,1.24107 0.0021,0.0875 0.0113,0.3302 0.02506,0.63218 0.0028,0.0684 0.06456,0.133 0.147108,0.12277 l 2.233438,-0.36266 c 0.07126,-0.0145 0.105127,-0.0663 0.108654,-0.12277 0.0053,-0.10513 0.0081,-0.21308 0.0099,-0.26352 0.01304,-0.45544 -0.279755,-1.24707 -1.26718,-1.24707"
       style="fill:#006eb5;fill-opacity:1;fill-rule:nonzero;stroke:none;stroke-width:0.03527778"
       id="path4265" />
    <path
       d="m 78.108797,196.24353 c -0.744715,0 -3.042357,0.0176 -4.513088,0.0215 -0.714021,0.002 -0.891821,0.38452 -0.891821,0.70202 0,0.27623 0.191204,0.63289 0.856896,0.66746 1.014238,0.0536 2.303992,0.11324 2.899481,0.14393 0.801865,0.0409 0.812448,0.45332 0.541867,0.80645 -0.544335,0.70838 -1.869017,1.17228 -3.242733,1.17228 -1.796347,0 -3.772253,-1.02164 -3.772253,-2.64124 0,-1.51906 1.691569,-3.193 6.716888,-2.48638 0.441679,0.0621 0.876654,-0.0176 0.985311,-0.42616 0.115356,-0.43427 -0.167219,-0.71402 -0.738365,-0.8643 -1.138063,-0.29986 -2.176288,-0.37042 -3.168298,-0.37042 -3.382433,0 -6.094589,1.61502 -6.094589,4.22381 0,2.78518 2.702631,4.14796 6.070954,4.14796 3.762023,0 5.593998,-2.04717 5.593998,-3.83752 0,-0.91157 -0.463905,-1.25941 -1.244248,-1.25941"
       style="fill:#006eb5;fill-opacity:1;fill-rule:nonzero;stroke:none;stroke-width:0.03527778"
       id="path4267" />
    <path
       id="path3382"
       d="m 43.70268,192.27949 c 1.006267,-1.77684 10.52103,-8.4827 25.453229,-8.42212 12.115596,0.0492 21.965214,4.13517 26.946844,8.48548 z"
       style="opacity:1;fill:url(#linearGradient3390);fill-opacity:1;fill-rule:evenodd;stroke:none;stroke-width:0.26458335px;stroke-linecap:butt;stroke-linejoin:miter;stroke-opacity:1" />
  </g>
</svg>
