<svg id="Layer_1" data-name="Layer 1" xmlns="http://www.w3.org/2000/svg" viewBox="0 0 49 50">
  <defs>
    <style>
      .cls-1 {
        fill: #0a0839;
      }
    </style>
  </defs>
  <title>2018</title>
  <path d="M40,23.87a8.63,8.63,0,0,1-2.77.43,8.45,8.45,0,0,1-3-.55,8.08,8.08,0,0,1-2.65-1.62,7.22,7.22,0,0,1-1.75-2.44,6.77,6.77,0,0,1-.58-2.76,6.63,6.63,0,0,1,.61-2.75,7.21,7.21,0,0,1,1.77-2.42,8.09,8.09,0,0,1,2.68-1.61,8.78,8.78,0,0,1,3-.52,8.59,8.59,0,0,1,3,.55A8.15,8.15,0,0,1,43,11.8l-3.22,2.92a3.61,3.61,0,0,0-2.47-1,3.68,3.68,0,0,0-2.47.93,3,3,0,0,0-1,2.25,3,3,0,0,0,1,2.26,3.6,3.6,0,0,0,2.46.95,3.68,3.68,0,0,0,2.48-.93,3,3,0,0,0,1-2.25l4.54,0a6.68,6.68,0,0,1-.61,2.76A7.34,7.34,0,0,1,43,22.18a8.19,8.19,0,0,1-2.67,1.6A1.84,1.84,0,0,1,40,23.87Z"/>
  <path d="M29,40.29a7.59,7.59,0,0,1-.85.24,8.78,8.78,0,0,1-3.11.12,8.55,8.55,0,0,1-2.93-.95,8,8,0,0,1-2.39-2,6.93,6.93,0,0,1-1.4-6.06l4.59,1a2.91,2.91,0,0,0,.59,2.54A3.42,3.42,0,0,0,25.7,36.4a3.63,3.63,0,0,0,2.53-.58,3.07,3.07,0,0,0,1.35-2,2.88,2.88,0,0,0-.64-2.31l0-.05c-.44-.51-1.06-.94-3.09-1.39a7.56,7.56,0,0,1-6-6.55s0-.09,0-.14a6.91,6.91,0,0,1,1-4,7.77,7.77,0,0,1,3.13-2.85l2.29,3.75a3.23,3.23,0,0,0-1.31,1.2,2.85,2.85,0,0,0-.43,1.7v.05a3.35,3.35,0,0,0,2.62,2.92,15.17,15.17,0,0,1,3.44,1,5.71,5.71,0,0,1,2.07,1.72l.09.11a7.26,7.26,0,0,1,1.37,2.66,6.49,6.49,0,0,1,.13,2.84,6.84,6.84,0,0,1-1,2.68A8.2,8.2,0,0,1,29,40.29Z"/>
  <path d="M15.1,20.42A8,8,0,0,0,10,17.59a8.34,8.34,0,0,0-3.82.35,8,8,0,0,0-2,1A7.07,7.07,0,0,0,1,23.62,6.68,6.68,0,0,0,2.47,29a8,8,0,0,0,5.15,2.83,8.39,8.39,0,0,0,5.83-1.33,7.14,7.14,0,0,0,3.11-4.7A6.7,6.7,0,0,0,15.1,20.42Z"/>
  <path d="M40.35,29.51c-.28,0-.45.12-.45.32s.17.32.45.32.46-.12.46-.32S40.64,29.51,40.35,29.51Z"/>
  <path d="M40.35,29.13c.25,0,.39-.1.39-.27s-.14-.28-.39-.28-.38.1-.38.28S40.11,29.13,40.35,29.13Z"/>
  <path d="M42.05,27.72a3.13,3.13,0,0,0-4.13-.57,2.55,2.55,0,0,0-.62,3.77,3.13,3.13,0,0,0,4.13.57A2.53,2.53,0,0,0,42.05,27.72ZM39,30.51H38.4V28.68h-.49v-.43H39Zm1.39,0c-.59,0-1-.25-1-.65a.63.63,0,0,1,.47-.58.55.55,0,0,1-.35-.49c0-.36.33-.58.85-.58s.85.23.85.6a.53.53,0,0,1-.32.47.61.61,0,0,1,.45.57C41.33,30.28,41,30.53,40.35,30.53Z"/>
  <path class="cls-1" d="M45.86,28.85a.48.48,0,0,1-.4.47.54.54,0,0,1,.49.54c0,.36-.34.59-.89.59H44V28.31H45C45.54,28.31,45.86,28.52,45.86,28.85Zm-.54.09c0-.15-.12-.23-.32-.23h-.52v.46H45C45.2,29.17,45.32,29.09,45.32,28.94Zm.08.86c0-.16-.15-.25-.4-.25h-.52v.51H45C45.25,30.06,45.4,30,45.4,29.8Z"/>
  <path class="cls-1" d="M48,28.31v.4H46.78v.47h1.13v.4H46.78v.47h1.29v.4H46.25V28.31Z"/>
</svg>
