<?xml version="1.0" encoding="UTF-8"?>
<svg width="24px" height="24px" viewBox="0 0 24 24" version="1.1" xmlns="http://www.w3.org/2000/svg" xmlns:xlink="http://www.w3.org/1999/xlink">
    <title>ico-video-green</title>
    <g id="Page-1" stroke="none" stroke-width="1" fill="none" fill-rule="evenodd">
        <g id="meet-us-copy-2" transform="translate(-16.000000, -10.000000)" fill="#008462">
            <g id="Group" transform="translate(16.000000, 10.000000)">
                <path d="M15.2276423,5 C16.5163067,5 17.5609756,6.04466892 17.5609756,7.33333333 L17.5609756,16.6666667 C17.5609756,17.9553311 16.5163067,19 15.2276423,19 L2.33333333,19 C1.04466892,19 4.1420138e-16,17.9553311 0,16.6666667 L0,7.33333333 C-1.57815875e-16,6.04466892 1.04466892,5 2.33333333,5 L15.2276423,5 Z M23.8839167,6.73255108 C23.9592784,6.83338335 24,6.95588889 24,7.08177185 L24,17.2098948 C24,17.5320609 23.7388328,17.7932282 23.4166667,17.7932282 C23.2907837,17.7932282 23.1682782,17.7525065 23.0674459,17.6771449 L19,14.6371528 L19,9.65451389 L23.0674459,6.61452177 C23.325501,6.42165247 23.6910474,6.47449599 23.8839167,6.73255108 Z" id="Rectangle-2"></path>
            </g>
        </g>
    </g>
</svg>