<svg id="Layer_1" xmlns="http://www.w3.org/2000/svg" viewBox="0 0 100 95.3"><style>.st0{fill:#00b492}.st1{fill:#fff}.st2{fill:#273744}</style><path class="st0" d="M99.2 40.1c-1.6-9-7.3-18.8-14.4-24.7C81 12.3 77.2 9 72.7 6.9 68.3 4.8 64.5 1.8 59.5.8 54.9-.1 50-.3 45.2.4c-.9.1-1.9.5-2.8.5-1.4.1-2.5-.3-3.9 0-2.4.5-5.1 1.7-7.4 2.7-9.1 3.8-15.5 10.5-21 18.5C4.3 30.4.6 39.5 0 49.7c-.5 10 4.6 19.4 10.8 26.9C23.6 92 47 99.1 66.1 92.4c21.7-7.5 37.3-28.8 33.1-52.3z"/><path class="st1" d="M83.1 47.2c-.5-4.4-7.3-6.3-6.4-.2.3 2.9 6.9 4.5 6.4.2zm-1.9 1s.2 0 0 0z"/><path class="st1" d="M75.2 36.9c-1.4-7.8-6.6-16.2-15-18-1.9-.4-3.6.3-5.4 0-.7-.1-2.6-.1-3.1-.5-.4-.3-.5-1-.9-1.5-1.5-1.8-2.9-.8-4.4.1-.3.3-.5.6-.6 1-.5-.4-1.1-.5-1.7-.6-1 0-1.9.5-2.5 1.4-1.7-2.2-5.3-.1-7 1.1-2.8 2.1-4.7 5-6.5 7.9-3.5 5.7-5.7 11.8-5.8 18.5-.3-2.4-2.9-2.5-4.6-1.6-1.9 1.1-2.4 3.8-2.1 5.8.3 2 2.2 3.3 4.1 2.3 2.1-1.1 2.2-3.8 2.5-5.9 0 8.9 2.3 18 9.9 23.5C35.5 73 39 75.5 42.8 77c2.1.8 4.3 1.4 6.5 1.8 2.3.4 3.8-.3 6-.8 1.9-.4 3.9.4 6-.1s4.1-1.5 5.7-3c3.2-2.8 4.7-7.1 6.2-10.9 3.7-8.9 3.7-17.7 2-27.1zM52.4 73c.3.1.1.2-.5.2.2 0 .4-.1.5-.2z"/><path class="st2" d="M46.5 57.2c2.4.6 7.5-1 8.5-3.3.6-1.4-.1-2.9-1.4-3.4-1.6-.6-2.8.5-4.2 1 .1-.7.1-1.4.2-2.1 0-.3.3-2.5.1-.8.2-1.6.4-3.1.7-4.7.3-1.3 1.1-2.9 1-4.2-.1-3.2-3.9-3.2-5.1-.7-1.4 3-1.7 7.1-2.1 10.4-.3 2.6-1.2 6.8 2.3 7.8zm2.8-5.7c.1-.1 0 0 0 0zm-11.2-4.3c4 0 3.9-6.1 0-6.1s-4 6.1 0 6.1zm23.1-7.4c-3.9 0-3.8 6 0 6s3.9-6 0-6zm-1.1 20.5c-1.6 0-2.3 1.4-3.4 2.3-1.3 1.1-2.8 1.8-4.4 2.1-3 .7-6.4.4-9.3-.5-1.2-.4-2.3-.7-3.1-1.6-.8-.9-.7-2-2.1-2.4-3.3-.9-3.6 2.9-2.5 5 3 5.4 12.3 6.1 17.6 5.1 3-.5 5.9-1.9 8.1-4.1 1.6-1.7 3-5.9-.9-5.9z"/><path class="st2" d="M85.6 42.7c-.7-1.3-2-2.6-3.4-3.3-.4-.2-2.3-.4-2.6-.7-.3-.3-.2-2.1-.3-2.5-.6-3.8-1.6-7-3.5-10.4-3.8-6.6-10.5-10.8-18-12.1-1.9-.3-3.8.1-5.7-.2-1.7-.3-3.2-.7-4.9-.6-3.8.2-7.9 1.1-11.4 2.7-7 3.1-12.2 8.8-15 15.9-.7 1.8-1.3 3.7-1.5 5.6-.1.5.1 2.1-.2 2.5-.3.4-2.1.8-2.5 1.1-2.8 1.9-3.9 5.4-3.6 8.6.3 3.5 2.3 7 5.9 7.7 0 0 2 .1 2.1.2.4.3.5 2.7.6 3.2.5 2.1 1.2 4.2 2 6.1 6.2 14.4 25.1 20.4 38.9 13.9 8.1-3.8 12.9-10.7 15.4-19.1.5-1.8.9-3.6 1.1-5.4.2-1.3 0-1 .9-1.6.9-.7 2.2-.9 3.2-1.6 3.1-2.3 4.2-6.6 2.5-10zm-66.3 8.7c-1.5-1.5-1.5-4.5-.4-6.1 0 2.1.2 4.3.7 6.3-.1-.1-.2-.2-.3-.2zm54.2 4.5c0 .2 0 .3-.1.5.1-.6.1-.7.1-.5zm.4-4.7c-.6 5.3-1.3 10.4-3.8 15.1-2.2 4.1-6.2 7.3-10.4 9.3-9.6 4.4-19.4 1.3-27-5.4-3.7-3.2-5.4-7.9-6.3-12.6-1-4.8-2.3-9.4-2.3-14.4.1-10 4.5-19 14-23.3.9 4.7 10.2 3.9 13.3 3.1 1.1-.3 2.3-.7 3.4-1.2s2.2-1.8 3.3-2.1c1.9-.5 5.4 1.5 7.1 2.5 9.5 6.1 9.8 18.9 8.7 29zm7-3.8c-.3.7-.5.8-1.1 1.1.1-1.5 0-3.1 0-4.6 1.4.8 1.6 2 1.1 3.5z"/></svg>