<svg id="Layer_1" data-name="Layer 1" xmlns="http://www.w3.org/2000/svg" viewBox="0 0 803.72 803.72"><defs><style>.cls-1{fill:#fff;}.cls-2{fill:#31468a;}.cls-3{fill:#eec230;}.cls-4{fill:#4d8740;}.cls-5{fill:#4c2a7c;}.cls-6{fill:#c63384;}.cls-7{fill:#82af3e;}.cls-8{fill:#6ba0d7;}.cls-9{fill:#3861a7;}.cls-10{fill:#c0101f;}.cls-11{fill:#c3cd35;}</style></defs><title>Artboard 1</title><g id="Layer_1-2" data-name="Layer 1-2"><path class="cls-1" d="M803.72,401.86a400.39,400.39,0,0,1-105,270.81,2577.68,2577.68,0,0,0-296.29-17l2.6-1.27a8.71,8.71,0,0,0,1.81-1.19l.12.24c11.75-5.88,23.23-12.33,34.35-19.34,2.78-1.76,5.58-3.49,8.29-5.35l4.09-2.75,2-1.38,2.05-1.45a135.77,135.77,0,0,0,15.95-13.06,84.11,84.11,0,0,0,7.21-8l.86-1.07.81-1.13,1.6-2.28c1-1.62,2-3.15,2.86-4.89a49.75,49.75,0,0,0,4.23-10.85L492,579c.21-1,.28-2,.42-3a40.09,40.09,0,0,0,.33-6,48.9,48.9,0,0,0-6.2-22.37c-.52-1-1.08-1.89-1.66-2.82a463.25,463.25,0,0,0,44.63-22.19l.74-.42q5.4-3.07,10.7-6.27h0a150.8,150.8,0,0,0,13-8.69,68.12,68.12,0,0,0,14.81-14.84,46.61,46.61,0,0,0,4.18-7.29c.12-.24.23-.48.34-.72.33-.73.61-1.47.89-2.23l.12-.33.42-1.11.48-1.61v-.05c.2-.68.39-1.37.55-2.07v-.1c.06-.25.12-.5.17-.75s.11-.62.17-.93.18-.91.26-1.37c.13-.85.24-1.7.32-2.55h0a38.55,38.55,0,0,0,.19-4.56,47.54,47.54,0,0,0-4-18,65.5,65.5,0,0,0-9-14.92c-1.77-2.22-3.64-4.33-5.59-6.35s-4-3.9-6.09-5.72a104,104,0,0,0-13.4-9.72c-1.19-.71-2.38-1.41-3.59-2.07s-2.37-1.25-3.56-1.87-2.35-1.24-3.55-1.82l-3.6-1.7c-2.87-1.34-5.78-2.59-8.71-3.78L522,389.34l.4-.14a8.63,8.63,0,0,0,1.9-1l.09.26c6.07-2.2,12.22-4.43,18.49-7.16A96,96,0,0,0,561.38,371a62.26,62.26,0,0,0,8.44-7.37,53.3,53.3,0,0,0,6.95-9.15,44.5,44.5,0,0,0,6.66-22.71,36.3,36.3,0,0,0-2.17-12.38,40,40,0,0,0-5.94-10.71,63,63,0,0,0-16.77-14.59c-3-1.87-6-3.55-8.93-5.12s-5.86-3-8.8-4.47c-5.85-2.9-11.76-5.73-17.72-8.4q-11.75-5.3-23.73-10l2-1.29,2-1.31,1-.67c1.54-1,3.07-2.11,4.58-3.19l.41-.29q6.24-4.5,12.18-9.48c2.46-2.06,4.85-4.22,7.21-6.41l3.49-3.36c1.18-1.19,2.39-2.45,3.58-3.83a38.4,38.4,0,0,0,5-7.26c.24-.46.48-.94.7-1.44a.64.64,0,0,1,.1-.23c.18-.42.37-.86.54-1.31a.23.23,0,0,1,.07-.2c.15-.41.29-.84.43-1.26a1.91,1.91,0,0,1,.13-.45c.12-.4.22-.81.32-1.23a2.22,2.22,0,0,1,.1-.41q.18-.83.3-1.68v-.18c.07-.53.13-1.07.16-1.62v-2.14a6.79,6.79,0,0,0-.1-1.44v-.35a8.19,8.19,0,0,0-.21-1.44v-.3q-.17-.79-.36-1.56a2.76,2.76,0,0,1-.08-.27,27.39,27.39,0,0,0-1.83-4.81,45,45,0,0,0-5.13-7.88c-.89-1.14-1.75-2.14-2.61-3.14l-2.6-3a187.8,187.8,0,0,0-22-21.23q34-12,67.71-24.8l1.06-.41h.11q8.88-3.39,17.73-6.83l9.12-3.56c3.95-1.55,7.91-3.11,11.85-4.68l6.94-2.76q8.31-3.33,16.6-6.69l.28-.13q13.11-5.36,26.2-10.8c3.71-1.55,6.62-2.67,8.94-3.47A400.83,400.83,0,0,1,803.72,401.86Z"/><path class="cls-1" d="M660.73,94.48l-1.06.44q-21.33,8.91-42.8,17.5l-7,2.77q-5.85,2.32-11.71,4.62l-9.1,3.56q-7.93,3.07-15.87,6.11l-1.75.67-1.17.44q-39,14.82-78.45,28.53A195.08,195.08,0,0,0,456.2,140.7l4.29-24.31L448.77,138q-4.74-1.62-9.56-3a97.28,97.28,0,0,0-16.36-3.42,50.9,50.9,0,0,0-18.24,1c-.78.22-1.53.41-2.33.68s-1.62.55-2.4.87-1.55.67-2.3,1l-2.21,1.19a36.06,36.06,0,0,0-7.87,6.2,32.52,32.52,0,0,0-5.9,8.56,27.24,27.24,0,0,0-2.6,10.78A26.64,26.64,0,0,0,381.16,173c.4.84.77,1.72,1.23,2.52s1,1.56,1.46,2.33c.28.39.58.75.87,1.13h0l.15.18.15.19.2.25a1.71,1.71,0,0,0,.21.26.44.44,0,0,0,.08.11,3.9,3.9,0,0,0,.33.38c.14.17.28.33.43.49.33.35.68.7,1,1.06h0c.6.59,1.2,1.15,1.82,1.69l.17.14c.4.35.81.69,1.22,1l.53.39.4.28c.35.26.7.5,1.06.75l1,.68c.32.22.79.5,1.19.73l.54.33,1.81,1,.66.32c.53.26,1.07.52,1.62.76l.15.07c.65.28,1.31.56,2,.81l2,.72.3.11.38.11,1.65.51.5.13,1.58.41.58.13c.51.12,1,.23,1.52.33l.6.12h.2c.6.12,1.2.22,1.81.31l1.19.15.57.07h0l.54.07h.2l.72.06,1.41.11h.92L394.8,237.08l-2.7-.47c-6.23-1-12.68-1.89-19.18-2.39h-.7a126.62,126.62,0,0,0-26.11.6l-3.38.57-1.69.29-1.7.39-3.38.8c-1.12.3-2.24.69-3.36,1a68.24,68.24,0,0,0-6.65,2.51,14.18,14.18,0,0,0-1.63.76l-1.61.83-1.61.83-.8.42-.77.49a52,52,0,0,0-6,4.2c-.95.78-1.94,1.5-2.83,2.35l-2.7,2.58c-.43.44-.87.86-1.29,1.32s-.84,1-1.23,1.45c-.8,1-1.58,2-2.3,3.07a39.52,39.52,0,0,0-3.82,6.92,33.24,33.24,0,0,0-2.27,8.06,27.07,27.07,0,0,0,.09,8.8,29.33,29.33,0,0,0,2.73,8.4c.34.64.72,1.25,1.08,1.88a19,19,0,0,0,1.16,1.8,34.13,34.13,0,0,0,2.63,3.24l.22.23a39.54,39.54,0,0,0,6.25,5.45,49.53,49.53,0,0,0,6.77,4,66.55,66.55,0,0,0,14.11,5c1.2.25,2.44.53,3.6.72l3.45.53c2.3.35,4.6.73,6.91.88l3.47.31c.91.08,1.82.15,2.73.19L318.8,376.58c-3,.07-6.07.14-9.11.25-16.32.63-33,2-49.53,6-2.07.46-4.12,1.07-6.17,1.62s-4.09,1.25-6.13,1.89a126.09,126.09,0,0,0-12,4.73l-3,1.35c-1.13.56-2.25,1.15-3.34,1.82A34.89,34.89,0,0,0,223.2,399a21.83,21.83,0,0,0-5.47,8.18,16.57,16.57,0,0,0,0,11.77,15.27,15.27,0,0,0,.84,1.84c.07.14.13.28.21.42l.12.2.29.49c.18.29.37.58.56.86a1.27,1.27,0,0,1,.13.19l.25.33.21.28c.13.17.26.34.4.5h0l.53.58c.28.32.57.61.86.89l.29.29,1.08,1,.25.19c.28.23.56.45.83.65l.41.31.74.51.43.29.9.56.28.17.59.34.93.52c.43.24.84.45,1.25.64l.68.33.67.32,1,.5,1.42.68c.9.43,1.8.86,2.71,1.25l.16.06.4.16,5.07,2,.7.28H243c2,.71,4.05,1.35,6.14,1.94l.27.09,1.35.35,1.81.47,1.64.4c.41.11.83.2,1.24.3q1.5.33,3,.63l3.39.63.73.13c.28.06.55.11.83.15a5.81,5.81,0,0,0,.58.09c.63.1,1.27.17,1.9.25.37.06.73.11,1.1.15H267c.38,0,.76.11,1.15.15h.49c.91.12,1.81.24,2.71.32l4.41.36c.73.05,1.47.12,2.2.16l2.19.08,2.18.08v.06H402.85L392.52,502l-1-.15c-1.65-.24-3.29-.5-5-.72-3.34-.37-6.66-.82-10-1s-6.76-.4-10.15-.52c-1.7-.06-3.42,0-5.12,0h-2.57c-.85,0-1.71.1-2.57.15a114.64,114.64,0,0,0-20.62,2.87l-5.1,1.32c-1.69.52-3.36,1.12-5,1.68-.83.29-1.68.55-2.5.88l-2.46,1.05-2.44,1c-.63.28-1.26.55-1.88.86l-.11,0-.37.19h-.06l-5.64,3a65.15,65.15,0,0,0-6,4,51.84,51.84,0,0,0-10.46,10.46A36.6,36.6,0,0,0,286.75,542a31,31,0,0,0-.47,4.31c0,.73-.06,1.46,0,2.19l.17,2.18a29.78,29.78,0,0,0,2.12,8.41,28.5,28.5,0,0,0,4.57,7.47,33,33,0,0,0,6.17,5.64A46.14,46.14,0,0,0,313,578.68a72.72,72.72,0,0,0,13.8,2.6,94,94,0,0,0,13.63.28h.26c1.19-.07,2.38-.15,3.57-.26a14.6,14.6,0,0,0,1.7-.17l1.65-.19,6.6-.74c4.4-.44,8.76-1.16,13.15-1.76q6-.88,12.06-2L366,652.8c-2.5,1-5,1.92-7.54,2.81l-1.32.48c-86.1,1.45-170.34,7.08-252.1,16.58A400.41,400.41,0,0,1,0,401.86C0,179.92,179.92,0,401.86,0A400.15,400.15,0,0,1,660.73,94.48Z"/><path class="cls-1" d="M566.31,331.82a27.08,27.08,0,0,1-4.2,13.84,35.86,35.86,0,0,1-4.71,6.19,45,45,0,0,1-6.08,5.29,81.33,81.33,0,0,1-16.51,9l3.19-5.86H417.53l10.35-58.7q5.58-2.07,11.06-4.31c8.22-3.4,16.27-7.11,24.21-10.95,5.82-2.83,11.61-5.78,17.35-8.91q18.08,6.57,35.62,14.48c5.78,2.58,11.48,5.31,17.15,8.12,2.79,1.43,5.7,2.84,8.41,4.28s5.33,2.91,7.8,4.46a46.35,46.35,0,0,1,12.29,10.5A20.3,20.3,0,0,1,566.31,331.82Z"/><path class="cls-1" d="M440.4,153.34,427.5,177c-1.12.06-2.23.11-3.33.13h-3.06a14.8,14.8,0,0,1-2-.09h-.28l-1.45-.11-.59-.05a5.14,5.14,0,0,1-.55-.06l-1.14-.14h0c-.43-.07-.86-.14-1.29-.23-.68-.12-1.36-.27-2-.44l-.57-.14-1-.28a26.88,26.88,0,0,1-2.77-1l-.82-.34c-.59-.25-1.18-.52-1.74-.81h0c-.36-.18-.71-.36-1.05-.56h0c-.15-.09-.28-.18-.43-.26l-.49-.31c-.26-.16-.51-.33-.76-.51a22.07,22.07,0,0,1-1.79-1.4l-.53-.49-.12-.11-.19-.18a2.13,2.13,0,0,0-.3-.3.08.08,0,0,0-.06-.07l-.26-.3a.49.49,0,0,1-.12-.13l-.19-.25-.13-.17h0l-.37-.47a10.4,10.4,0,0,0-.56-.9c-.19-.3-.27-.62-.44-.92a9.62,9.62,0,0,1-.75-3.78,12.23,12.23,0,0,1,3.73-7.89,18.79,18.79,0,0,1,4.09-3.23l1.15-.61,1.18-.53c.4-.17.8-.28,1.2-.44s.89-.25,1.33-.38a33.86,33.86,0,0,1,12.08-.61,80.77,80.77,0,0,1,13.49,2.87Z"/><path class="cls-1" d="M309.3,394.05l-17.51,32.17h-4.73a152.1,152.1,0,0,1-16.39-1h-.32l-.74-.1h-.32l-1-.13c-1.19-.17-2.38-.35-3.56-.55l-2.88-.54c-.87-.17-1.73-.35-2.6-.55-1.36-.3-2.71-.65-4.05-1l-1.3-.35-3.39-1.07-1.79-.56h0l-4.8-1.88-.45-.18c-.77-.32-1.52-.69-2.27-1.05s-1.53-.74-2.29-1.09l-.57-.27-.25-.12-.53-.26h-.05l-.44-.24-.29-.16-.17-.1-.33-.19-.56-.35a5.07,5.07,0,0,1-.54-.36l-.31-.22h0l-.05,0-.19-.14-.27-.24h0l-.26-.26L234,413h0a4.67,4.67,0,0,1,.33-.56,3.28,3.28,0,0,1,.42-.52,4.31,4.31,0,0,1,.56-.59,18,18,0,0,1,3.21-2.42c.63-.38,1.29-.73,1.95-1.06L243,406.7c3.37-1.56,6.88-2.85,10.42-4.09,1.8-.56,3.58-1.15,5.4-1.66s3.63-1,5.49-1.44C278.69,396,293.89,394.67,309.3,394.05Z"/><path class="cls-1" d="M386.07,253.1,361.61,298H360l-6.08-.17c-1,0-2-.1-3-.2l-3-.26c-2-.12-4-.47-6-.77l-3-.45c-1-.16-1.85-.37-2.78-.56A49.86,49.86,0,0,1,325.68,292c-.83-.36-1.55-.83-2.32-1.24s-1.44-.91-2.15-1.37a23,23,0,0,1-3.54-3.07h0a.64.64,0,0,0-.1-.13,14.74,14.74,0,0,1-1.28-1.56,4.76,4.76,0,0,1-.5-.81l-.49-.79a12,12,0,0,1-1.06-3.35,9.69,9.69,0,0,1-.05-3.52,15.54,15.54,0,0,1,1.1-3.83,23.27,23.27,0,0,1,2.16-3.91c.43-.65.92-1.27,1.41-1.89.25-.31.52-.6.78-.91s.59-.58.88-.88l1.77-1.77c.6-.59,1.3-1.06,1.94-1.6a35.57,35.57,0,0,1,4.13-2.89l.53-.35.58-.29,1.15-.59,1.14-.59a7,7,0,0,1,1.17-.55,48.13,48.13,0,0,1,4.94-1.86c.85-.25,1.68-.56,2.56-.79l2.64-.62,1.33-.31,1.36-.23,2.73-.46a111.24,111.24,0,0,1,22.49-.48C376,251.71,381,252.32,386.07,253.1Z"/><path class="cls-1" d="M457.74,269.74l-2.14,1.06c-7.69,3.72-15.42,7.28-23.24,10.52l-1,.39,3.27-18.56c3.42.89,6.83,1.8,10.23,2.76C449.18,267.12,453.47,268.41,457.74,269.74Z"/><path class="cls-1" d="M559.7,467a22.33,22.33,0,0,1-.11,2.71c-.05.52-.12,1-.2,1.55a4.42,4.42,0,0,1-.13.71l-.15.74v.12a2.82,2.82,0,0,1-.14.61c-.05.21-.17.63-.26.95s-.18.61-.28.91-.15.43-.23.65V476a2.32,2.32,0,0,1-.14.37,29.23,29.23,0,0,1-3.31,6.22,51.74,51.74,0,0,1-11.11,11L542,494.83c-.49.36-1,.72-1.5,1.07s-1.32.91-2,1.36c-1.08.72-2.19,1.44-3.32,2.15l-3,1.86-1.09.65-2,1.14-7.28,4.26-.5.29-.19.11L513.36,512l-.24.15a439.17,439.17,0,0,1-39.85,19c-.26-.22-.5-.45-.75-.67-.71-.6-1.4-1.21-2.13-1.78L468.14,527c-1.49-1-3-2.08-4.5-3a90.19,90.19,0,0,0-9.37-5.09l-2.14-1,55.46-101.82q4.95,1.94,9.76,4.18l3.27,1.53c1.08.52,2.13,1.1,3.2,1.64s2.16,1.1,3.15,1.66,2,1.13,3,1.72a84.64,84.64,0,0,1,11.12,8.06c6.9,5.93,12.8,13,16,20.66A30.23,30.23,0,0,1,559.7,467Z"/><path class="cls-1" d="M454.39,538.53q-7.49,2.75-15.06,5.25l-1.56.5,6.07-11.16c1,.44,2.07.88,3.08,1.35A72.81,72.81,0,0,1,454.39,538.53Z"/><path class="cls-1" d="M389.52,519.07l-6.93,39.31q-8.86,1.68-17.78,3c-4.22.57-8.42,1.27-12.66,1.69l-6.34.71-1.59.18c-.54.07-1.06.12-1.53.16-1,.09-1.95.15-2.93.21h-.22a66.71,66.71,0,0,1-21.65-2.19,29,29,0,0,1-8.62-4,13.41,13.41,0,0,1-4.85-5.74,12.88,12.88,0,0,1-.87-3.56,7.19,7.19,0,0,0-.09-.91,6.76,6.76,0,0,1,0-.9,16.33,16.33,0,0,1,.19-1.85,19.44,19.44,0,0,1,3.61-7.64,34.65,34.65,0,0,1,7-7,44.09,44.09,0,0,1,4.29-2.89l4.53-2.41.34-.19.15-.08c.48-.24,1-.43,1.46-.64l2-.85,2-.86c.67-.28,1.37-.47,2.05-.72,1.37-.45,2.73-1,4.12-1.37l4.23-1.09A97.19,97.19,0,0,1,357,517.06c.75,0,1.49-.11,2.24-.12h2.26c1.51,0,3-.07,4.53,0,3,.11,6.06.18,9.12.47s6.1.6,9.16.94c1.53.2,3.06.45,4.59.67Z"/><path class="cls-1" d="M470.62,166.44c-4.52,1.54-9,3.06-13.44,4.43q-3.31,1-6.6,1.95l2.6-14.77A179.05,179.05,0,0,1,470.62,166.44Z"/><path class="cls-1" d="M526.56,218h0v.1a2.39,2.39,0,0,1-.09.63l-.06.28a5.53,5.53,0,0,1-.24.79V220c0,.1-.09.2-.13.31s-.23.51-.37.79a21.82,21.82,0,0,1-2.81,4c-.81.94-1.71,1.89-2.7,2.87L517,231c-2.12,2-4.27,3.92-6.51,5.79-3.65,3.07-7.44,6-11.33,8.8l-.19.13c-1.39,1-2.79,2-4.22,2.95l-.92.63c-1.59,1.07-3.2,2.12-4.83,3.17l-.12.08q-2.26,1.42-4.56,2.82l-1.62,1-.56.33c-1.07.64-2.15,1.27-3.23,1.89q-14.54-5-29.34-9.21c-4-1.11-7.91-2.16-11.89-3.18l9.64-54.71c5.14-1.17,10.13-2.58,15-4.1,7.93-2.47,15.48-5.13,23.12-7.73l3.86-1.34c2.63,1.9,5.22,3.86,7.74,5.91a169.15,169.15,0,0,1,20.85,20l2.36,2.73c.79.91,1.58,1.83,2.24,2.68a27.72,27.72,0,0,1,3.17,4.78,10.32,10.32,0,0,1,.72,1.87h0a7.12,7.12,0,0,1,.17.9v.11A5.45,5.45,0,0,1,526.56,218Z"/><path class="cls-1" d="M432.17,619.55c2.66-1.69,5.33-3.34,7.92-5.12L444,611.8l1.95-1.32,1.89-1.33a119.08,119.08,0,0,0,13.9-11.35,66.79,66.79,0,0,0,5.7-6.31l.65-.82.59-.83,1.18-1.67c.66-1.15,1.46-2.26,2-3.43a32.06,32.06,0,0,0,2.77-7.07l.41-1.81c.14-.6.15-1.22.25-1.82a24.48,24.48,0,0,0,.21-3.63c-.11-6.44-2.71-13-6.87-18.84q-11.86,4.6-23.95,8.58-9.29,3-18.68,5.7L382.36,646l.66-.28,1.29-.57,3.56-1.63.69-.32h0c3-1.38,5.94-2.78,8.87-4.24a9.35,9.35,0,0,1,2-.65l-.12-.25Q416.19,629.62,432.17,619.55Z"/><path class="cls-2" d="M522.14,389.36l-6.25,11.49-8.3,15.24L452.13,517.91l-8.29,15.21-6.07,11.16A452.61,452.61,0,0,1,390,556.93c-2.46.51-4.92,1-7.38,1.45l6.93-39.31,3-17,10.33-58.62H291.11a243.7,243.7,0,0,0,27.39-2.12c8.18-1.05,16.27-2.37,24.26-3.81s15.94-3,23.89-4.56q23.84-4.81,47.44-10.7,17.32-4.29,34.49-9.2a.54.54,0,0,0,.34-.08l4.39-1.28,2.9-.83h0q8.44-2.46,16.84-5,9.84-3,19.62-6.28h.12l.54-.18,1.18-.39,4.89-1.64,1.27-.43,1.19-.41,1.1-.37,3.31-1.13,5-1.74,1.75-.61C516,391.56,519.1,390.47,522.14,389.36Z"/><path class="cls-2" d="M447.29,191.43l-9.64,54.71-3,17-3.27,18.56c-7.51,3.05-15.09,5.82-22.75,8.2a184.85,184.85,0,0,1-24.21,5.88A149.2,149.2,0,0,1,361.61,298l24.46-44.91,8.73-16,23.32-42.82h0c.33,0,.65.06,1,.07h5.29a96.53,96.53,0,0,0,13.15-1.11C440.88,192.79,444.11,192.16,447.29,191.43Z"/><path class="cls-2" d="M376.41,648.56l.67-.29q2.66-1.11,5.28-2.27L426,565.85q-16.14,4.56-32.56,7.95-7,1.46-14.06,2.68l-13.46,76.31,3.76-1.48C372,650.41,374.18,649.49,376.41,648.56Z"/><path class="cls-2" d="M538,360.25H417.53l10.35-58.7q-7,2.58-14.17,4.83a202.08,202.08,0,0,1-26.36,6.4A166.07,166.07,0,0,1,360,315.27l-6.93-.19h-.73l-33.49,61.49-9.54,17.51L291.8,426.25a231.49,231.49,0,0,0,24.53-2c7.78-1,15.57-2.27,23.4-3.69s15.69-2.9,23.51-4.48q23.46-4.74,46.7-10.53,11.93-3,23.77-6.22,6.6-1.81,13.18-3.68l4.5-1.31q10.47-3.06,20.87-6.32,8.43-2.65,16.83-5.43l4.76-1.59,2.56-.87,4.2-1.44,6.69-2.33q4.69-1.65,9.38-3.35a8,8,0,0,1,2.05-.45l-.09-.26c5.56-2,11-4,16.18-6.2Z"/><polygon class="cls-2" points="282.39 443.47 283.96 443.47 282.42 443.41 282.39 443.47"/><path class="cls-2" d="M460.53,116.39l-4.29,24.31V141l-2.7,15.31-.32,1.79-2.6,14.77A132.18,132.18,0,0,1,435,176.24c-2.53.4-5,.65-7.53.8l12.9-23.7,8.4-15.34Z"/><path class="cls-3" d="M575.8,477.06c-.16.7-.35,1.39-.55,2.07C575.45,478.44,575.64,477.76,575.8,477.06Z"/><path class="cls-3" d="M573,485.18c.66-1.43,1.25-2.9,1.77-4.39l.48-1.61A44.19,44.19,0,0,1,573,485.18Z"/><path class="cls-3" d="M576,476.21c.06-.31.11-.62.17-.93-.11.56-.2,1.12-.34,1.68C575.88,476.71,575.94,476.46,576,476.21Z"/><path class="cls-3" d="M576.74,471.32a9,9,0,0,0-2.46-7.29,7.33,7.33,0,0,0-6.36-2,10.86,10.86,0,0,0-5.78,3,7.64,7.64,0,0,0-2.55,4.68,22.33,22.33,0,0,0,.11-2.71,30.39,30.39,0,0,0-2.59-11.46c-3.24-7.62-9.14-14.73-16-20.66A85.21,85.21,0,0,0,530,426.82c-1-.59-2-1.17-3-1.72s-2.1-1.1-3.15-1.66-2.12-1.12-3.2-1.64l-3.27-1.53q-4.8-2.25-9.76-4.18l8.3-15.24c2.93,1.19,5.84,2.44,8.71,3.78l3.6,1.7c1.2.58,2.37,1.21,3.55,1.82s2.35,1.18,3.56,1.87,2.4,1.36,3.59,2.07a104,104,0,0,1,13.4,9.72c2.1,1.82,4.14,3.72,6.09,5.72s3.82,4.13,5.59,6.35a65.5,65.5,0,0,1,9,14.92,47.54,47.54,0,0,1,4,18A37.94,37.94,0,0,1,576.74,471.32Z"/><path class="cls-4" d="M513.08,512.09c2.67-1.44,5.32-2.89,7.95-4.38l-7.71,4.23Z"/><path class="cls-4" d="M559.14,472.6l.12-.63c-.06.29-.11.57-.18.86Z"/><path class="cls-4" d="M559.39,471.26c.08-.51.15-1,.2-1.55h0C559.54,470.24,559.47,470.75,559.39,471.26Z"/><path class="cls-4" d="M529.72,522.59l.54-.32c-.24.15-.49.29-.74.43Z"/><path class="cls-4" d="M558.41,475.34c.18-.63.37-1.27.53-1.9a24.93,24.93,0,0,1-.93,2.93,29.23,29.23,0,0,1-3.31,6.22,51.51,51.51,0,0,1-11.11,11A143.75,143.75,0,0,1,529,503.05l-7.28,4.26q5.21-3,10.32-6.05L541,516a150.8,150.8,0,0,0,13-8.69,68.12,68.12,0,0,0,14.81-14.84,46.61,46.61,0,0,0,4.18-7.29L557.34,478C557.79,477.13,558,476.22,558.41,475.34Z"/><path class="cls-4" d="M521.72,507.31l-.5.29-.19.11c-2.63,1.49-5.28,2.94-7.95,4.38a8.28,8.28,0,0,0-2.29,2,8.39,8.39,0,0,0-1.5,2.85,8.7,8.7,0,0,0,.61,6.54,8.46,8.46,0,0,0,11.62,3.63l8-4.4c.25-.14.5-.28.74-.43l7.54-4.41L541,516l-9-14.74Q526.92,504.37,521.72,507.31Z"/><path class="cls-4" d="M574.28,464a7.33,7.33,0,0,0-6.36-2,10.86,10.86,0,0,0-5.78,3,7.64,7.64,0,0,0-2.55,4.68c-.05.52-.12,1-.2,1.55a4.42,4.42,0,0,1-.13.71l-.12.63-.06.23a2.82,2.82,0,0,1-.14.61c-.16.63-.35,1.27-.53,1.9-.37.88-.62,1.79-1.07,2.64l15.65,7.2a44.19,44.19,0,0,0,2.25-6v0c.2-.68.39-1.37.55-2.07v-.1c.14-.56.23-1.12.34-1.68s.18-.91.26-1.37c.13-.85.24-1.7.32-2.56h0A9,9,0,0,0,574.28,464Z"/><path class="cls-4" d="M576.74,471.35c-.08.86-.19,1.71-.32,2.56C576.55,473.06,576.66,472.21,576.74,471.35Z"/><path class="cls-5" d="M219.9,423c.31.43.58.77.84,1.09-.3-.35-.58-.73-.86-1.11Z"/><path class="cls-5" d="M221.13,424.53l.17.18-.53-.58C220.89,424.26,221,424.4,221.13,424.53Z"/><path class="cls-5" d="M228.33,430.08c.76.43,1.46.8,2.14,1.11l.35.17c-.9-.42-1.85-.91-2.86-1.49Z"/><path class="cls-5" d="M223.59,426.9l.19.14-.25-.19Z"/><path class="cls-5" d="M234.8,413.8h0l-.09-.08Z"/><polygon class="cls-5" points="233.94 413.01 233.94 413.01 233.94 413.01 233.94 413.01 233.95 413.02 233.94 413.01"/><path class="cls-5" d="M268.24,442.35q-3.17-.39-6.35-.93l.73.13c1.47.31,2.94.42,4.41.64s2.94.41,4.41.54l4.41.36c.73.05,1.47.12,2.2.16l2.19.08,2.18.08h0C277.72,443.25,273,442.92,268.24,442.35Z"/><path class="cls-5" d="M218.78,421.24l.12.2q-.18-.31-.33-.63A2.46,2.46,0,0,0,218.78,421.24Z"/><path class="cls-5" d="M238.88,416.12c.77.35,1.53.72,2.29,1.09l-1.15-.55Z"/><path class="cls-5" d="M248.76,420.35c1.71.59,3.43,1.14,5.18,1.63l-3.39-1.07Z"/><path class="cls-5" d="M243.89,418.44l4.8,1.88h0l-1.76-.69Z"/><path class="cls-5" d="M236.66,434.11l.16.06c-1-.41-1.91-.86-2.86-1.31C234.85,433.29,235.75,433.72,236.66,434.11Z"/><path class="cls-5" d="M249.48,438.64l1.35.35c-.54-.15-1.08-.28-1.62-.44Z"/><polygon class="cls-5" points="240.89 435.77 242.29 436.31 237.22 434.33 240.89 435.77"/><path class="cls-5" d="M282.43,443.4h0l1.54.06h1.2Z"/><path class="cls-5" d="M282.43,443.4l9.09-16.69a7.81,7.81,0,0,0-2.62-.46h-4l-3.94-.14-2-.07c-.66,0-1.31-.1-2-.15l-3.9-.32c-1.3-.11-2.58-.32-3.87-.47a37.78,37.78,0,0,1-3.84-.56l-.68-.12-2.88-.54c-.87-.17-1.73-.35-2.6-.55L257.9,423l-2.66-.67c-.35-.09-.71-.17-1.05-.27l-.25-.08c-1.75-.49-3.47-1-5.18-1.63h0l-4.8-1.88-.45-.18c-.77-.32-1.52-.69-2.27-1.05s-1.52-.74-2.29-1.09l-.57-.27c-.58-.27-1.11-.54-1.56-.8l-.17-.1-.33-.19a13.2,13.2,0,0,1-1.41-.93h0l0-.05-.19-.14-.27-.24h0l-.26-.26L234,413h0a.3.3,0,0,1-.16.05,2.18,2.18,0,0,1-.51,0,4.62,4.62,0,0,1-1.81-.57,18.63,18.63,0,0,1-2.35-1.59,16.06,16.06,0,0,0-2.78-1.93,6.13,6.13,0,0,0-3.38-.74,5.63,5.63,0,0,0-3.45,1.88,8.34,8.34,0,0,0-2.06,4.78,10.27,10.27,0,0,0,1.16,5.89q.15.32.33.63l.29.49c.18.29.37.58.56.86a1.27,1.27,0,0,1,.13.19c.28.38.56.76.86,1.11h0l.53.58c.28.32.57.61.86.89l.29.29,1.08,1,.25.19c.28.23.56.45.83.65l.41.31.74.51.43.29.9.56.28.17.59.34c1,.58,2,1.07,2.86,1.49l.67.32,2.47,1.18c.95.45,1.9.9,2.86,1.31l.4.16,5.07,2,.7.28h.08l2.09.67,4.05,1.27c.54.16,1.08.29,1.62.44l3,.75c.56.16,1.12.29,1.68.42l3,.63,3.39.63q3.18.54,6.35.93C273,442.92,277.72,443.25,282.43,443.4Z"/><path class="cls-5" d="M232.53,432.18l1.43.68-2.47-1.18Z"/><path class="cls-5" d="M257.9,423l1.39.34c-1.36-.3-2.71-.65-4.05-1Z"/><path class="cls-5" d="M285.16,443.47h4.21a8,8,0,0,0,5.82-2.69,8.32,8.32,0,0,0,2.26-6.18,9,9,0,0,0-2.72-6,8.46,8.46,0,0,0-2.67-1.75c-.17-.07-.36-.13-.54-.19l-9.09,16.69Z"/><path class="cls-4" d="M402.47,655.69c-2.2,1.06-4.41,2.11-6.62,3.13a8.27,8.27,0,0,0,3.57-3.13Z"/><path class="cls-4" d="M406.88,653.23l-7.46-14.92a9.35,9.35,0,0,0-2,.65c-2.93,1.46-5.89,2.86-8.87,4.24a8.65,8.65,0,0,1,11.27,4.18,8.54,8.54,0,0,1-.43,8.31h3.05l2.6-1.27A8.16,8.16,0,0,0,406.88,653.23Z"/><path class="cls-4" d="M382.35,646l.67-.29-.66.28Z"/><path class="cls-4" d="M377.08,648.27l4.05-1.71,1.22-.55h0Q379.74,647.17,377.08,648.27Z"/><path class="cls-4" d="M373.62,649.74l2.79-1.18c-2.23.93-4.46,1.85-6.71,2.75Z"/><path class="cls-4" d="M399.42,655.69q-11.22,0-22.4.12l5.33-9.8h0l.15-.06.26-.11.25-.11,1.29-.57,3.56-1.63.71-.32a8.65,8.65,0,0,1,11.27,4.18A8.55,8.55,0,0,1,399.42,655.69Z"/><path class="cls-4" d="M365.39,655.94l-.94,5.33a8.85,8.85,0,0,1,.48-5.33Z"/><path class="cls-4" d="M365.62,654.64a7.87,7.87,0,0,0-.66,1.25v.05h.46Z"/><path class="cls-2" d="M399.42,655.69a8.27,8.27,0,0,1-3.57,3.13l-.37.17-4.18,1.91-1.29.57-1,.44-1,.44-.67.28-3.47,1.48-.83.35q-3.48,1.45-7,2.86l-.22.08a8.58,8.58,0,0,1-5.32.3l-1.18,2.3-9.46,17.37,2.62-14.87c-4.74,1.72-9.55,3.27-14.34,4.84L340,679.76l-.8.23-1.85.53a393.09,393.09,0,0,1-41.24,9.42l-2.93-17q17.1-3,33.89-7.47l2.72-.76,2.7-.75,1.48-.41,1.2-.35,7.8-2.36c4.72-1.56,9.45-3.08,14.12-4.78l7.85-.14a8.85,8.85,0,0,0-.48,5.33l.94-5.33,11.63-.13Q388.21,655.72,399.42,655.69Z"/><path class="cls-4" d="M382.35,646,377,655.8l-11.63.13.23-1.3c.13-.2.26-.39.4-.58s.3-.37.46-.55a3.89,3.89,0,0,1,.34-.36,9.83,9.83,0,0,1,.92-.79l.35-.24a5.9,5.9,0,0,1,.69-.4l.48-.23h.06l.14-.06.17-.06,3.92-1.57,2.79-1.18.67-.29,2.65-1.12,1.4-.59Z"/><path class="cls-4" d="M408.85,642.85a8.72,8.72,0,0,0-9.43-4.54l7.46,14.92A8.5,8.5,0,0,0,408.85,642.85Z"/><path class="cls-3" d="M497,184.17a169.15,169.15,0,0,1,20.85,20l2.36,2.73c.79.91,1.58,1.83,2.24,2.68a27.72,27.72,0,0,1,3.17,4.78,10,10,0,0,1,.73,1.91h0a8.61,8.61,0,0,1,.68-4.56,11,11,0,0,1,3.84-5.23,7.18,7.18,0,0,1,6.58-1.08,8.94,8.94,0,0,1,5.49,6.23,27.39,27.39,0,0,0-1.83-4.81,45,45,0,0,0-5.13-7.88c-.89-1.14-1.75-2.14-2.61-3.14l-2.6-3a187.8,187.8,0,0,0-22-21.23q-9.7,3.42-19.46,6.76C491.9,180.16,494.49,182.12,497,184.17Z"/><path class="cls-3" d="M491.86,159.12c-4,1.39-8,2.8-12,4.18l-9.2,3.14a179.05,179.05,0,0,0-17.44-8.39l.32-1.79a8.47,8.47,0,0,0,1.07-.37,8.88,8.88,0,0,0,4.63-4.63,8.39,8.39,0,0,0,.07-6.61,8.21,8.21,0,0,0-3.07-3.7v-.25A195.08,195.08,0,0,1,491.86,159.12Z"/><path class="cls-3" d="M526.13,219.94v0Z"/><path class="cls-3" d="M540.89,229.07a25.16,25.16,0,0,0,1.34-3C541.83,227.09,541.39,228.09,540.89,229.07Z"/><path class="cls-3" d="M543.81,217.89v.93C543.79,218.51,543.81,218.2,543.81,217.89Z"/><path class="cls-6" d="M253.94,422l.25.08c.34.1.7.18,1.05.27Z"/><path class="cls-6" d="M234,413l.05.06.26.26C234.2,413.22,234.1,413.11,234,413Z"/><path class="cls-6" d="M264.77,424.43l.68.12c1.26.28,2.56.37,3.84.56s2.57.36,3.87.47l3.9.32c.65.05,1.3.11,2,.15l2,.07,3.94.14h2.13a148.23,148.23,0,0,1-16.71-1C268.48,425,266.62,424.74,264.77,424.43Z"/><path class="cls-6" d="M243.49,418.28c-.78-.31-1.52-.7-2.32-1.07.75.36,1.5.73,2.27,1.05Z"/><path class="cls-6" d="M243.89,418.44l-.4-.16.09,0Z"/><path class="cls-6" d="M236.58,415l.17.1c.45.26,1,.53,1.56.8l.57.27-.25-.12C237.85,415.64,237.17,415.29,236.58,415Z"/><path class="cls-6" d="M234.56,413.61l.19.14a5.45,5.45,0,0,1-.46-.38Z"/><path class="cls-6" d="M236.25,414.76a13.2,13.2,0,0,1-1.41-.93Q235.43,414.27,236.25,414.76Z"/><polygon class="cls-6" points="236.82 434.17 237.22 434.33 236.83 434.17 236.82 434.17"/><polygon class="cls-6" points="227.74 429.75 227.96 429.87 227.37 429.53 227.74 429.75"/><path class="cls-6" d="M224.31,427.47l.3.22c-.27-.2-.55-.42-.83-.65C224,427.19,224.13,427.34,224.31,427.47Z"/><path class="cls-6" d="M250.83,439c1.56.42,3.12.81,4.69,1.17-.56-.13-1.12-.26-1.68-.42Z"/><path class="cls-6" d="M243.07,436.61c2,.71,4.05,1.35,6.14,1.94l-4.05-1.27Z"/><path class="cls-6" d="M318.84,376.54c-3,.07-6.07.14-9.1.19-16.32.66-33,2-49.53,6-2.07.46-4.11,1-6.17,1.62s-4.13,1.25-6.13,1.89c-4,1.41-8.07,2.91-12,4.73l-3,1.35c-1.13.56-2.25,1.15-3.34,1.82A35,35,0,0,0,223.2,399a21.8,21.8,0,0,0-5.39,8.18,16.57,16.57,0,0,0,0,11.77,15.27,15.27,0,0,0,.84,1.84,11.48,11.48,0,0,1-1-2.77,11.32,11.32,0,0,1-.16-3.13,8.34,8.34,0,0,1,2.06-4.78,5.63,5.63,0,0,1,3.45-1.88,6.13,6.13,0,0,1,3.38.74,16.06,16.06,0,0,1,2.78,1.93,18.63,18.63,0,0,0,2.35,1.59,4.79,4.79,0,0,0,1.81.57,2.18,2.18,0,0,0,.51,0A.3.3,0,0,0,234,413a2.43,2.43,0,0,1,.33-.56,5.33,5.33,0,0,1,.42-.52c.2-.19.32-.39.56-.59a18,18,0,0,1,3.21-2.42c.63-.38,1.29-.73,2-1.06L243,406.7c3.37-1.56,6.88-2.85,10.42-4.09,1.8-.56,3.57-1.22,5.4-1.66s3.63-1,5.49-1.44c14.39-3.46,29.59-4.84,45-5.46Z"/><polygon class="cls-6" points="230.86 431.38 231.49 431.68 230.82 431.36 230.86 431.38"/><path class="cls-6" d="M438.39,407a8.66,8.66,0,0,1,1-6.93,8.25,8.25,0,0,1,4.82-3.64l2.67-.77q-6.58,1.88-13.18,3.68-11.83,3.21-23.75,6.21l0-.08q-23.24,5.79-46.7,10.53c-7.82,1.58-15.68,3.06-23.51,4.48s-15.62,2.69-23.4,3.69a231.49,231.49,0,0,1-24.53,2l0,.05H288.9a7.8,7.8,0,0,1,2.62.49l0,0c.18.06.36.11.52.18a8.46,8.46,0,0,1,2.67,1.75,9,9,0,0,1,2.72,6,8.32,8.32,0,0,1-2.26,6.18,8,8,0,0,1-5.82,2.69h1.74a243.7,243.7,0,0,0,27.39-2.12c8.18-1.05,16.26-2.37,24.26-3.81s15.94-3,23.89-4.56q23.85-4.82,47.44-10.7,17.32-4.3,34.49-9.2A8.54,8.54,0,0,1,438.39,407Z"/><path class="cls-6" d="M410.73,193.41c.6.12,1.2.22,1.81.31l-2-.35Z"/><path class="cls-6" d="M397.09,188.8a20.36,20.36,0,0,1-1.81-1,8.88,8.88,0,0,0,1.72,1Z"/><path class="cls-6" d="M399.48,190c1.3.57,2.62,1.08,3.94,1.53C402.1,191.06,400.78,190.52,399.48,190Z"/><polygon class="cls-6" points="384.72 178.93 384.71 178.93 385.01 179.3 384.72 178.93"/><path class="cls-6" d="M391,185.11c-.59-.45-1.18-.93-1.75-1.42.4.31.81.69,1.22,1Z"/><path class="cls-6" d="M411.14,175.86a31.71,31.71,0,0,1-3.79-1.25c.65.23,1.19.46,1.79.66S410.48,175.68,411.14,175.86Z"/><path class="cls-6" d="M417.34,176.92a5.44,5.44,0,0,1-.82-.07h.06Z"/><path class="cls-6" d="M416.2,176.81l-1.14-.14,1.46.18Z"/><path class="cls-6" d="M420,177.13c-.29,0-.57-.06-.85-.06a18.17,18.17,0,0,0,2.38.1h.67l-.51,0Z"/><path class="cls-6" d="M660.73,94.48l-1.06.44q-21.33,8.91-42.8,17.5,8.25-3.3,16.48-6.64a8.61,8.61,0,0,1,6.78,15.83q13.11-5.35,26.2-10.8c3.71-1.55,6.62-2.67,8.94-3.47Q668.16,100.74,660.73,94.48Z"/><path class="cls-6" d="M566.48,141.11a8.61,8.61,0,0,1,5-11l1.75-.67-2.92,1.11q-39,14.82-78.45,28.53a192.24,192.24,0,0,1,16,11.66l.85.72q34-12,67.71-24.8l1.06-.41A8.62,8.62,0,0,1,566.48,141.11Z"/><path class="cls-6" d="M403.27,172.62l.46.27C403.58,172.8,403.45,172.71,403.27,172.62Z"/><path class="cls-6" d="M398.8,169a4.61,4.61,0,0,1-.44-.55h0c.11.14.23.28.33.42A.49.49,0,0,0,398.8,169Z"/><path class="cls-6" d="M491.86,159.12c-4,1.39-8,2.8-12,4.18l-9.24,3.14c-4.52,1.54-9,3.06-13.44,4.43q-3.31,1-6.6,1.95A131.63,131.63,0,0,1,435,176.19c-2.53.4-5,.65-7.53.8h0c-1.11.1-2.21.15-3.3.17h-2a8,8,0,0,1,2.49.64,9.47,9.47,0,0,1,1.8,1.11l0,.07c.24.19.47.39.7.6a9.49,9.49,0,0,1,2.81,5.93,8,8,0,0,1-5,8.19,8.89,8.89,0,0,1-3.21.69h2.71a96.53,96.53,0,0,0,13.15-1.11c3.3-.5,6.53-1.13,9.71-1.86,5.14-1.17,10.13-2.58,15-4.1,7.93-2.47,15.48-5.14,23.12-7.73l3.86-1.34q9.75-3.36,19.46-6.76l-.87-.72A192.24,192.24,0,0,0,491.86,159.12Z"/><path class="cls-7" d="M370.54,667.7,369.32,670q3.27-1.25,6.54-2.55A8.58,8.58,0,0,1,370.54,667.7Z"/><path class="cls-7" d="M380.17,665.68l2.88-1.22c-2.31,1-4.64,1.92-7,2.86Z"/><path class="cls-7" d="M328,665.22c.59-.15,1.19-.3,1.74-.49Z"/><path class="cls-7" d="M327.06,665.49l1-.27-.74.19Z"/><path class="cls-7" d="M365.94,652.79c-2.5,1-5,1.92-7.51,2.81l-1.32.48,7.85-.14v-.05a7.87,7.87,0,0,1,.66-1.25,8.15,8.15,0,0,1,3.84-3.24Z"/><path class="cls-7" d="M369.53,651.37l-.07,0,.24-.09Z"/><path class="cls-7" d="M492.66,399.56l-.12,0,.16,0Z"/><path class="cls-7" d="M492.54,399.6a8.58,8.58,0,0,1-10.84-9.48h0a8.46,8.46,0,0,1,5.71-6.94l1.7-.57q-8.4,2.77-16.83,5.43h0q-10.39,3.27-20.86,6.32l2.27,7.77h0l-2.27-7.76-4.5,1.31-2.67.77a8.25,8.25,0,0,0-4.82,3.64,8.66,8.66,0,0,0-1,6.93,8.53,8.53,0,0,0,10.2,6.08l.2-.06.13,0,3.68-1.07.72-.21.65-.19,2.24-.64h0v-.05q8.42-2.4,16.8-5c-1.37-.31-2.76-.61-4.15-.9,1.4.29,2.8.59,4.19.9Q482.82,402.8,492.54,399.6Z"/><path class="cls-8" d="M518.25,528.12a8.59,8.59,0,0,1-8.35-4.63,8.7,8.7,0,0,1-.61-6.54,8.39,8.39,0,0,1,1.5-2.85,8.28,8.28,0,0,1,2.29-2q-19.44,10.49-39.85,19a67.62,67.62,0,0,1,7,7.26,64.46,64.46,0,0,1,4.64,6.5,464.4,464.4,0,0,0,44.63-22.19l-8,4.4A8.51,8.51,0,0,1,518.25,528.12Z"/><polygon class="cls-8" points="521.72 507.31 521.03 507.71 521.22 507.6 521.72 507.31"/><path class="cls-8" d="M537.8,517.86l-7.54,4.41q5.4-3.06,10.7-6.27Z"/><path class="cls-8" d="M461.22,543.5c-.53-.43-1-.89-1.58-1.31L458,541c-1.14-.8-2.3-1.62-3.51-2.36l-.11-.06q-7.49,2.74-15.06,5.25l-1.56.5L426,565.85q9.39-2.65,18.68-5.7,12.1-4,24-8.58A45.89,45.89,0,0,0,461.22,543.5Z"/><path class="cls-8" d="M390,556.93c-2.46.51-4.91,1-7.37,1.45v0q-8.86,1.73-17.78,3.06c-4.22.57-8.42,1.27-12.66,1.69l-6.34.71-1.59.18c-.54.07-1.06.12-1.53.16-1,.09-1.95.15-2.93.21a8.73,8.73,0,0,1,6.83,14.16,8.28,8.28,0,0,1-5.92,3c1.19-.07,2.38-.15,3.57-.26a14.6,14.6,0,0,0,1.7-.17l1.65-.19,6.6-.74c4.4-.44,8.76-1.16,13.15-1.76q6-.89,12.05-2v.05q7.06-1.22,14.06-2.68,16.43-3.39,32.56-7.95l11.77-21.57A453.5,453.5,0,0,1,390,556.93Z"/><path class="cls-8" d="M481.56,257l1.11-.66q-1.89,1.13-3.79,2.22l.6.22A8.06,8.06,0,0,1,481.56,257Z"/><path class="cls-8" d="M349.54,314.86c.91.08,1.82.15,2.73.19l9.28-17c-.49-.05-1-.05-1.55-.05l-6.08-.17c-1,0-2-.1-3-.2l-3-.26c-2-.12-4-.47-6-.77l-3-.45c-1-.16-1.85-.37-2.78-.56A49.54,49.54,0,0,1,325.68,292c-.83-.36-1.55-.83-2.32-1.24s-1.44-.91-2.15-1.37a23,23,0,0,1-3.54-3.07,5.54,5.54,0,0,1,.58.85,5.37,5.37,0,0,1,.53,1.14,10.92,10.92,0,0,1,.51,2.77,12.83,12.83,0,0,1-.27,3.15,10,10,0,0,1-1.29,3.16,7.76,7.76,0,0,1-2.41,2.43,6.89,6.89,0,0,1-3.26,1.07,7.86,7.86,0,0,1-3.71-.61,11.69,11.69,0,0,1-1.84-1A10.87,10.87,0,0,1,305,298a43.54,43.54,0,0,0,13,9.42,66.55,66.55,0,0,0,14.11,5c1.2.25,2.44.53,3.6.72l3.45.53c2.3.35,4.6.73,6.91.88Z"/><path class="cls-8" d="M353.07,315.08l6.93.19a166.07,166.07,0,0,0,27.35-2.49,202.08,202.08,0,0,0,26.36-6.4q7.17-2.25,14.17-4.83v0c3.72-1.37,7.39-2.8,11-4.29,8.24-3.4,16.29-7.11,24.23-10.95,5.8-2.82,11.58-5.76,17.31-8.89l0,0c2.07-1.13,4.15-2.28,6.21-3.46,1.12-.64,2.23-1.31,3.34-2a8.44,8.44,0,0,1-11.47-3.34h0a8.76,8.76,0,0,1,.91-9.86l-.6-.22-.74.47c-6.61,3.79-13.43,7.35-20.35,10.76l-.05,0-2.14,1.06c-7.69,3.72-15.42,7.28-23.24,10.52l-1,.39h0q-11.25,4.57-22.72,8.26a184.85,184.85,0,0,1-24.21,5.88,149.2,149.2,0,0,1-22.81,2.22l-9.28,17Z"/><path class="cls-9" d="M315.94,509.62l-.37.19h0l7.63,15.45.3-.15a7.6,7.6,0,0,0,4-4.5,10.8,10.8,0,0,0,.61-3.18,9,9,0,0,0-.54-3.36,8.28,8.28,0,0,0-1.81-2.92A7.12,7.12,0,0,0,323,509.3a9.14,9.14,0,0,0-6.91.27l-.48.24h0l.48-.24Z"/><path class="cls-9" d="M345.15,566.23a8.76,8.76,0,0,0-5.39-1.88v0l-.22,0a66.65,66.65,0,0,1-21.64-2.19,29,29,0,0,1-8.63-4,13.41,13.41,0,0,1-4.85-5.74,12.88,12.88,0,0,1-.87-3.56,7.19,7.19,0,0,0-.09-.91,6.76,6.76,0,0,1,0-.9,16.33,16.33,0,0,1,.19-1.85,19.44,19.44,0,0,1,3.61-7.64,34.65,34.65,0,0,1,7-7,44.09,44.09,0,0,1,4.29-2.89l4.53-2.41-7.63-15.45-5.64,3a65.15,65.15,0,0,0-6,4,51.84,51.84,0,0,0-10.46,10.46,36.65,36.65,0,0,0-6.6,14.73,31,31,0,0,0-.47,4.31c0,.73-.06,1.46,0,2.19l.17,2.18a30.21,30.21,0,0,0,2.12,8.41,28.5,28.5,0,0,0,4.57,7.47,33,33,0,0,0,6.17,5.64A46.14,46.14,0,0,0,313,578.68a72.72,72.72,0,0,0,13.8,2.6,94,94,0,0,0,13.63.28h.26v0a8.26,8.26,0,0,0,5.9-3A8.75,8.75,0,0,0,345.15,566.23Z"/><path class="cls-9" d="M346.09,234.77l-3.38.57-1.69.29-1.7.39-3.38.8c-1.12.3-2.24.69-3.36,1a68.24,68.24,0,0,0-6.65,2.51,14.18,14.18,0,0,0-1.63.76l-1.61.83-1.61.83-.8.42-.77.49a52,52,0,0,0-6,4.2c-.95.78-1.94,1.5-2.83,2.35l-2.62,2.6c-.43.45-.87.86-1.29,1.33s-.84,1-1.23,1.45c-.8,1-1.58,2-2.3,3.07a39.52,39.52,0,0,0-3.82,6.92,33.24,33.24,0,0,0-2.27,8.06,27.07,27.07,0,0,0,.09,8.8,29.33,29.33,0,0,0,2.73,8.4c.34.64.72,1.25,1.08,1.88a19,19,0,0,0,1.16,1.8,34.13,34.13,0,0,0,2.63,3.24l.2.2,0,0a8.39,8.39,0,0,0,3.34,2.27,7.86,7.86,0,0,0,3.71.61,6.89,6.89,0,0,0,3.26-1.07,7.76,7.76,0,0,0,2.41-2.43,10,10,0,0,0,1.29-3.16,12.83,12.83,0,0,0,.27-3.15,10.92,10.92,0,0,0-.51-2.77,5.37,5.37,0,0,0-.53-1.14,5.54,5.54,0,0,0-.58-.85l-.46.43.48-.45-.12-.11a14.74,14.74,0,0,1-1.28-1.56,4.76,4.76,0,0,1-.5-.81l-.49-.79a12,12,0,0,1-1.06-3.35,9.69,9.69,0,0,1-.05-3.52,15.54,15.54,0,0,1,1.1-3.83,23.27,23.27,0,0,1,2.16-3.91c.43-.65.92-1.27,1.41-1.89.25-.31.52-.6.78-.91s.59-.58.88-.88l1.77-1.77c.6-.59,1.3-1.06,1.94-1.6a36.92,36.92,0,0,1,4.13-2.9l.53-.34.58-.29,1.15-.59,1.14-.59a7,7,0,0,1,1.17-.55,48.13,48.13,0,0,1,4.94-1.86c.85-.26,1.68-.56,2.56-.79l2.64-.62,1.33-.31,1.36-.23,2.73-.46a111.24,111.24,0,0,1,22.49-.48l1.23-17.18A126.62,126.62,0,0,0,346.09,234.77Z"/><path class="cls-9" d="M378.73,237.23a8.67,8.67,0,0,0-5.74-3l-.26,0-.08,0h-.13l-.23,0v0h0L371,251.34h.4a8.13,8.13,0,0,0,6-2,8.93,8.93,0,0,0,3.14-5.76A8.39,8.39,0,0,0,378.73,237.23Z"/><path class="cls-4" d="M522.8,225.08c-.81.94-1.71,1.89-2.7,2.87L517,231c-2.12,2-4.27,3.92-6.51,5.79q-5.57,4.68-11.52,8.93l.38-.26,10.07,14q6.24-4.5,12.18-9.48c2.46-2.06,4.85-4.22,7.21-6.41l3.49-3.36c1.18-1.19,2.39-2.45,3.58-3.83a38.4,38.4,0,0,0,5-7.26l-15.28-8A21.48,21.48,0,0,1,522.8,225.08Z"/><path class="cls-4" d="M543,211.71v-.15a2.76,2.76,0,0,0,.08.27Z"/><path class="cls-4" d="M526.58,217.78a4.69,4.69,0,0,0,0-.53,4.45,4.45,0,0,1,0,.73A.67.67,0,0,1,526.58,217.78Z"/><path class="cls-4" d="M543.77,219v-.16a1,1,0,0,1,0,.24Z"/><path class="cls-4" d="M542.26,226v-.11a.25.25,0,0,1-.07.2Z"/><path class="cls-4" d="M499.49,266.16c1.33-.85,2.65-1.72,3.94-2.6l-3.95,2.59Z"/><path class="cls-4" d="M498.94,245.69c-1.39,1-2.79,2-4.22,2.95l-.92.63c-1.59,1.07-3.2,2.12-4.83,3.17l-.12.08q-2.27,1.42-4.56,2.82l-1.62,1-1.11.66a8.06,8.06,0,0,0-2.08,1.78q10.08,3.5,20,7.4,2-1.28,3.95-2.59l1-.67c1.54-1,3.07-2.11,4.58-3.19l.41-.29-10.07-14Z"/><path class="cls-4" d="M537.45,205.33a7.18,7.18,0,0,0-6.58,1.08,11,11,0,0,0-3.84,5.23,8.61,8.61,0,0,0-.68,4.56h0a7.12,7.12,0,0,1,.17.9v.11a4.69,4.69,0,0,1,0,.53v.36a2.39,2.39,0,0,1-.09.63l-.06.28a5.53,5.53,0,0,1-.24.79V220c0,.1-.09.2-.13.31s-.23.51-.37.79l15.28,8c.5-1,.94-2,1.34-3a.23.23,0,0,1,.07-.2c.15-.41.29-.84.43-1.26a1.91,1.91,0,0,1,.13-.45c.12-.4.22-.81.32-1.23a2.22,2.22,0,0,1,.1-.41q.18-.83.3-1.68v-.18c.07-.53.13-1.07.16-1.62V216.9a6.79,6.79,0,0,0-.1-1.44v-.35c-.06-.49-.14-1-.22-1.44v-.3q-.16-.8-.36-1.56a2.76,2.76,0,0,1-.08-.27A8.93,8.93,0,0,0,537.45,205.33Z"/><path class="cls-4" d="M490.33,271.81l1.2-.72-1.48.87Z"/><path class="cls-4" d="M498.22,267l1.27-.82h0Z"/><path class="cls-4" d="M478.57,268.61A8.45,8.45,0,0,0,490,272h0l1.48-.87,1.69-1,4.89-3,.11-.07,1.26-.83q-9.93-3.9-20-7.4A8.78,8.78,0,0,0,478.57,268.61Z"/><path class="cls-10" d="M415.06,176.67l-1.29-.23.07,0C414.25,176.55,414.65,176.61,415.06,176.67Z"/><path class="cls-10" d="M402.09,171.81a22.24,22.24,0,0,1-2.32-1.89,17.57,17.57,0,0,0,1.32,1.21C401.4,171.36,401.73,171.59,402.09,171.81Z"/><path class="cls-10" d="M422.85,131.6a50.9,50.9,0,0,0-18.24,1c-.78.22-1.53.4-2.33.68s-1.63.56-2.4.87-1.55.64-2.3,1l-2.21,1.19a36.06,36.06,0,0,0-7.87,6.2,32.52,32.52,0,0,0-5.9,8.56,27.24,27.24,0,0,0-2.6,10.78A26.81,26.81,0,0,0,381.17,173c.4.84.77,1.74,1.23,2.52s1,1.56,1.46,2.33c.28.39.58.75.87,1.13l13.63-10.52-.37-.47a10.4,10.4,0,0,0-.56-.9c-.19-.3-.27-.62-.44-.92a9.62,9.62,0,0,1-.75-3.78,12.23,12.23,0,0,1,3.73-7.89,18.79,18.79,0,0,1,4.09-3.23l1.15-.61,1.18-.53c.4-.17.8-.3,1.2-.44s.89-.25,1.33-.38a33.86,33.86,0,0,1,12.08-.61,80.52,80.52,0,0,1,13.48,2.9c2,.58,3.92,1.19,5.92,1.82L448.77,138q-4.77-1.65-9.56-3A97.28,97.28,0,0,0,422.85,131.6Z"/><polygon class="cls-10" points="419.11 177.04 418.29 176.98 417.38 176.93 418.83 177.04 419.11 177.04"/><path class="cls-10" d="M459.27,144.7a8.21,8.21,0,0,0-3.07-3.7l-2.7,15.26a8.47,8.47,0,0,0,1.07-.37,8.88,8.88,0,0,0,4.63-4.63A8.39,8.39,0,0,0,459.27,144.7Z"/><path class="cls-10" d="M399.73,169.92c-.21-.2-.42-.4-.6-.59l.37.37C399.57,169.77,399.66,169.84,399.73,169.92Z"/><path class="cls-10" d="M427.14,179.6c-.23-.21-.46-.41-.7-.6l-8.22,15.27h0L426.44,179a9.72,9.72,0,0,0-1.84-1.14,8,8,0,0,0-3-.68h-1.69a4,4,0,0,1-.85-.06h-.28l-1.45-.11-.76-.06-1.52-.19c-.41-.06-.81-.12-1.22-.21h-.07c-.68-.12-1.36-.27-2-.44l-.57-.14c-.69-.18-1.36-.37-2-.59s-1.18-.43-1.76-.66l-.82-.34c-.59-.25-1.18-.52-1.74-.81-.36-.18-.71-.36-1.05-.56-.15-.09-.28-.18-.43-.26l-.49-.31c-.26-.16-.51-.33-.76-.51l-1-.68c-.48-.4-.93-.81-1.36-1.21-.07-.08-.16-.15-.23-.22l-.37-.37a.23.23,0,0,0-.07-.07l-.26-.3a.49.49,0,0,1-.12-.13c-.1-.14-.22-.28-.33-.42l-13.63,10.52.29.37c.27.34.54.68.82,1s.28.33.43.49c.33.37.67.72,1,1.07.6.59,1.2,1.15,1.82,1.69l.17.14c.57.49,1.16,1,1.75,1.42l.4.28c.35.26.7.5,1.06.75l1,.68c.32.22.79.5,1.19.73l.54.33,1.81,1,.66.32c.53.26,1.07.52,1.62.76l.15.07c1.3.57,2.62,1.07,3.94,1.53l.68.22q.82.27,1.65.51l.5.13,1.58.41.58.13c.51.12,1,.23,1.52.33l.6.12,2,.35,1.19.15.6.08c.51.06,1,.1,1.46.14l1.41.11.92.06.08-.15h0l-.06.11,1.13.07h2.43a8.89,8.89,0,0,0,3.21-.69,8.09,8.09,0,0,0,2.87-2,8,8,0,0,0,2.15-6.23A9.49,9.49,0,0,0,427.14,179.6Z"/><path class="cls-5" d="M639.85,121.74l.28-.13q-8.43,3.44-16.88,6.82Q631.56,125.1,639.85,121.74Z"/><path class="cls-5" d="M577.61,146.26q8.88-3.39,17.73-6.83-8.91,3.45-17.84,6.86Z"/><path class="cls-5" d="M566.59,141.21a8.56,8.56,0,0,0,10.91,5.08q8.94-3.39,17.84-6.86l9.12-3.56,11.85-4.68,6.94-2.76q8.46-3.39,16.88-6.82a8.61,8.61,0,0,0-6.78-15.83h0q-8.24,3.34-16.48,6.64l-7,2.77q-5.85,2.32-11.71,4.62l-9.1,3.56q-7.93,3.07-15.87,6.11l-1.75.67A8.57,8.57,0,0,0,566.59,141.21Z"/><path class="cls-5" d="M573.23,129.48q7.95-3,15.87-6.11Q581.17,126.45,573.23,129.48Z"/><path class="cls-4" d="M522.14,389.36l.4-.14a8.63,8.63,0,0,0,1.9-1l-.68-1.85Z"/><path class="cls-4" d="M523.76,386.39l-1.62,3c-3,1.11-6.1,2.2-9.15,3.27a8.51,8.51,0,0,0,5.19-10.86l0-.14a8.6,8.6,0,0,0-10.84-5.29q4.69-1.65,9.38-3.35a8,8,0,0,1,2.05-.45Z"/><path class="cls-4" d="M493.32,399.34h0l-.54.18h-.12Z"/><path class="cls-4" d="M494.5,399l-1.18.39h0Z"/><path class="cls-4" d="M513,392.63l-1.75.61c-1.65.59-3.32,1.16-5,1.74L503,396.11l-6.24-2-.28-.1-1.21-.35-.23-.07h0c-4.42-1.29-8.87-2.46-13.32-3.52a8.46,8.46,0,0,1,5.71-6.95l1.7-.57,4.76-1.59,2.56-.87,4.2-1.44,6.69-2.33a8.6,8.6,0,0,1,10.84,5.29,8.51,8.51,0,0,1-5,10.95Z"/><path class="cls-4" d="M495,393.63h0l.23.06Z"/><path class="cls-4" d="M503,396.11l-1.1.37-1.19.41a8.49,8.49,0,0,0-4-2.74C498.8,394.78,500.9,395.44,503,396.11Z"/><path class="cls-4" d="M495,393.64c-4.42-1.29-8.87-2.46-13.32-3.52a8.6,8.6,0,0,0,11,9.44l.66-.22Z"/><path class="cls-4" d="M496.43,394.05l-1.21-.35,1.49.45Z"/><path class="cls-4" d="M500.66,396.89l-1.27.43L494.5,399l-1.18.38,1.67-5.7.23.06,1.49.45A8.46,8.46,0,0,1,500.66,396.89Z"/><path class="cls-4" d="M527.83,378.93l-4.07,7.46.68,1.85A8.53,8.53,0,0,0,527.83,378.93Z"/><path class="cls-4" d="M527.83,378.93q-.11-.36-.24-.72a8.64,8.64,0,0,0-8.87-5.64l5,13.82Z"/><path class="cls-11" d="M408.84,642.85a8.49,8.49,0,0,1-2,10.38l.12.24c11.75-5.88,23.23-12.33,34.35-19.34,2.78-1.76,5.58-3.49,8.29-5.35l4.09-2.75,2-1.38,2.05-1.45a135.77,135.77,0,0,0,15.95-13.06,84.11,84.11,0,0,0,7.21-8l.86-1.07.81-1.13,1.6-2.28c1-1.62,2-3.15,2.86-4.89a48.57,48.57,0,0,0,4.23-10.85L492,579c.21-1,.28-2,.42-3a40.09,40.09,0,0,0,.33-6,48.9,48.9,0,0,0-6.2-22.37c-.52-1-1.08-1.89-1.66-2.82h0a62.9,62.9,0,0,0-4.62-6.48,67.8,67.8,0,0,0-7-7.26c-.23-.22-.5-.45-.75-.67-.71-.6-1.4-1.21-2.13-1.78L468.14,527c-1.5-1-3-2.06-4.5-3a90.19,90.19,0,0,0-9.37-5.09c-.71-.36-1.43-.68-2.14-1l-8.29,15.21c1.08.44,2.08.88,3.08,1.35a72.81,72.81,0,0,1,7.47,4.06l.11.06c1.21.74,2.37,1.56,3.51,2.36l1.63,1.24c.54.42,1.05.88,1.58,1.31a45.89,45.89,0,0,1,7.43,8.07h0c4.15,5.82,6.74,12.45,6.85,18.85a24.48,24.48,0,0,1-.21,3.63c-.1.6-.11,1.22-.25,1.82l-.41,1.81a32.06,32.06,0,0,1-2.77,7.07c-.55,1.17-1.35,2.28-2,3.43l-1.18,1.67-.59.83-.65.82a66.79,66.79,0,0,1-5.7,6.31,119.08,119.08,0,0,1-13.9,11.35L446,610.48l-2,1.32-3.92,2.63c-2.59,1.78-5.26,3.43-7.92,5.12q-16,10.05-32.87,18.51l.12.25A8.72,8.72,0,0,1,408.84,642.85Z"/><path class="cls-11" d="M323,509.3a7,7,0,0,1,2.69,1.83,8.28,8.28,0,0,1,1.81,2.92,9,9,0,0,1,.54,3.36,10.8,10.8,0,0,1-.61,3.18,7.59,7.59,0,0,1-3.84,4.42c.46-.24,1-.43,1.46-.64l2-.85,2-.86c.67-.28,1.37-.47,2.05-.72,1.37-.45,2.73-1,4.12-1.37l4.23-1.09A97.06,97.06,0,0,1,357,517c.75,0,1.49-.12,2.24-.12h2.26c1.53,0,3-.06,4.53,0,3,.11,6.08.28,9.12.47s6.1.6,9.16.94c1.53.2,3.06.45,4.59.67l.62.09,3-17-1-.09c-1.7-.24-3.34-.5-5-.72-3.31-.34-6.64-.69-10-1s-6.76-.4-10.15-.52c-1.7-.07-3.42,0-5.12,0h-2.57c-.85,0-1.71.1-2.57.15a114.64,114.64,0,0,0-20.62,2.87l-5.1,1.32c-1.65.52-3.32,1.12-5,1.68-.83.29-1.68.55-2.5.88l-2.46,1-2.44,1c-.63.28-1.26.55-1.88.86A9.14,9.14,0,0,1,323,509.3Z"/><path class="cls-11" d="M533.27,300c2.79,1.43,5.7,2.84,8.41,4.28s5.33,2.91,7.8,4.46a46.35,46.35,0,0,1,12.29,10.5,20.24,20.24,0,0,1,4.54,12.6,27.08,27.08,0,0,1-4.2,13.84,35.86,35.86,0,0,1-4.71,6.19,45,45,0,0,1-6.08,5.29,82.31,82.31,0,0,1-16.51,9l-7,12.82a8.53,8.53,0,0,1-3.39,9.31l.09.26c6.07-2.2,12.22-4.43,18.49-7.16a96,96,0,0,0,18.48-10.29,62.26,62.26,0,0,0,8.44-7.37,53.3,53.3,0,0,0,7-9.15,44.5,44.5,0,0,0,6.66-22.71,36.3,36.3,0,0,0-2.17-12.38,40,40,0,0,0-5.94-10.71,63,63,0,0,0-16.77-14.59c-3-1.87-6-3.55-8.93-5.12s-5.86-3-8.8-4.47c-5.85-2.9-11.76-5.73-17.72-8.4q-11.75-5.3-23.73-10l-1.27.82-.09.05-4.89,3-1.69,1-1.2.72-.28.15c-1.11.65-2.22,1.32-3.34,2-2.06,1.18-4.14,2.33-6.21,3.46q18.08,6.57,35.63,14.48C521.9,294.44,527.6,297.17,533.27,300Z"/><path class="cls-11" d="M394.8,237.08l-2.66-.48c-6.23-1-12.68-1.89-19.18-2.39a8.67,8.67,0,0,1,5.74,3,8.39,8.39,0,0,1,1.81,6.36,8.93,8.93,0,0,1-3.14,5.76,8.13,8.13,0,0,1-6,2H371c5,.36,10,1,15.1,1.75Z"/><path class="cls-11" d="M457.74,269.74c6.94-3.41,13.77-7,20.4-10.78l.74-.43q-14.53-5-29.34-9.2c-4-1.11-7.89-2.18-11.89-3.18l-3,17c3.42.89,6.83,1.76,10.23,2.76C449.18,267.12,453.47,268.41,457.74,269.74Z"/><path class="cls-11" d="M527.57,378.21q.13.36.24.72l7-12.82c-5.16,2.19-10.62,4.18-16.2,6.2l.09.26A8.64,8.64,0,0,1,527.57,378.21Z"/><path class="cls-11" d="M105,672.67a401.85,401.85,0,0,0,593.8,0A2603,2603,0,0,0,105,672.67Z"/></g></svg>