<svg xmlns="http://www.w3.org/2000/svg" xmlns:xlink="http://www.w3.org/1999/xlink" viewBox="0 0 405.28 413.82"><defs><style>.cls-1{fill:none;}.cls-2{isolation:isolate;}.cls-3{fill:#f9d35b;}.cls-4{clip-path:url(#clip-path);}.cls-5{fill:#7325f3;}.cls-6{fill:#d81e5b;}.cls-7{fill:#503d20;}.cls-8{fill:#dc5c5d;}.cls-9{fill:#fff;}.cls-10{fill:#63a2e8;}.cls-11{fill:#b9dcfc;}.cls-12{fill:#7ed34e;}.cls-13{fill:#e6e7e8;mix-blend-mode:multiply;}</style><clipPath id="clip-path" transform="translate(-0.6 13.24)"><circle class="cls-1" cx="200.37" cy="200.22" r="200"/></clipPath></defs><title>aosifgoiaug</title><g class="cls-2"><g id="Your_design" data-name="Your design"><circle class="cls-3" cx="200" cy="213.82" r="200"/></g><g id="Layer_6" data-name="Layer 6"><g class="cls-4"><path class="cls-5" d="M405.88-13.24H166.76l-20.1,30.31a38.5,38.5,0,0,0-10.15,24.32h0a51.8,51.8,0,0,1-18.65,37.47h0a103.67,103.67,0,0,0-32,46.78L74.89,158.21l29.21,33,14.45.57a67,67,0,0,0,50.12-19.68h0A31,31,0,0,1,205,166.56h0a39.91,39.91,0,0,0,31.08,2.58l1-.34a37.6,37.6,0,0,1,37.66,8.47l1.85,1.76a150.6,150.6,0,0,0,38.16,26.44l5.57,2.7a117.73,117.73,0,0,1,46,39.68l36.75,54Z" transform="translate(-0.6 13.24)"/></g></g><g id="Layer_3" data-name="Layer 3"><path class="cls-6" d="M77.36,156.18l27.81,32.46c5.51,6.47,4.56,16.4-2.13,22.13l-16.36,14c.46,1,.94,2,1.44,3.13,4.57,10,10.83,23.68,23.59,38.56s25.35,23.23,34.53,29.3c1,.64,1.91,1.26,2.8,1.86l11-9.41,5.4-4.62c6.7-5.74,16.65-5.14,22.19,1.32l27.81,32.46c5.52,6.45,4.57,16.38-2.13,22.13l-9.2,7.83-.22-.25a49.42,49.42,0,0,1-12.88,6,51.49,51.49,0,0,1-12.76,2.15c-33.3,1.42-62.29-16-100-60.06C26,234.28,33.81,189,34.17,187.09a51.28,51.28,0,0,1,4.13-12.31A49.18,49.18,0,0,1,46.22,163l-.15-.2,9.09-7.95C61.87,149.13,71.82,149.73,77.36,156.18Z" transform="translate(-0.6 13.24)"/></g><g id="Layer_5" data-name="Layer 5"><circle class="cls-3" cx="104.49" cy="147.53" r="8.44"/><path class="cls-7" d="M105.1,141.64a6.32,6.32,0,0,0,5.64-3.49,1.7,1.7,0,0,0-1.81-2.42l-1.35.21a15.35,15.35,0,0,1-5,0l-1.35-.21a1.7,1.7,0,0,0-1.81,2.42A6.32,6.32,0,0,0,105.1,141.64Z" transform="translate(-0.6 13.24)"/><path class="cls-8" d="M108,141a1.11,1.11,0,0,0,0-.19c0-.8-1.29-1.45-2.87-1.45s-2.88.65-2.88,1.45a1.11,1.11,0,0,0,0,.19,6.33,6.33,0,0,0,5.71,0Z" transform="translate(-0.6 13.24)"/><path class="cls-9" d="M108.93,135.73l-1.35.21a15.35,15.35,0,0,1-5,0l-1.35-.21a1.14,1.14,0,0,0-.26,0v.3c0,1.39,1.84,2.52,4.1,2.52s4.09-1.13,4.09-2.52v-.3A1.14,1.14,0,0,0,108.93,135.73Z" transform="translate(-0.6 13.24)"/><path class="cls-9" d="M104.2,131.86a2.09,2.09,0,1,1-2.09-2.08A2.09,2.09,0,0,1,104.2,131.86Z" transform="translate(-0.6 13.24)"/><path class="cls-7" d="M103.4,131.86a1.29,1.29,0,1,1-2.57,0,1.29,1.29,0,0,1,2.57,0Z" transform="translate(-0.6 13.24)"/><path class="cls-9" d="M110.16,131.86a2.09,2.09,0,1,1-2.08-2.08A2.08,2.08,0,0,1,110.16,131.86Z" transform="translate(-0.6 13.24)"/><path class="cls-7" d="M109.36,131.86a1.29,1.29,0,1,1-1.28-1.28A1.28,1.28,0,0,1,109.36,131.86Z" transform="translate(-0.6 13.24)"/><circle class="cls-3" cx="106.95" cy="173.43" r="7.57"/><path class="cls-7" d="M106.21,158.61a2.31,2.31,0,0,0-4.4,0,.3.3,0,0,0,.52.3,1.74,1.74,0,0,1,3.36,0,.3.3,0,0,0,.52-.3Z" transform="translate(-0.6 13.24)"/><path class="cls-7" d="M113.3,158.61a2.31,2.31,0,0,0-4.4,0,.3.3,0,0,0,.52.3,1.74,1.74,0,0,1,3.36,0,.3.3,0,0,0,.52-.3Z" transform="translate(-0.6 13.24)"/><path class="cls-7" d="M107.56,166.28a5.65,5.65,0,0,0,5.06-3.13A1.53,1.53,0,0,0,111,161l-1.21.2a14.57,14.57,0,0,1-4.47,0l-1.21-.2a1.53,1.53,0,0,0-1.62,2.17A5.66,5.66,0,0,0,107.56,166.28Z" transform="translate(-0.6 13.24)"/><path class="cls-9" d="M111,161l-1.21.2a14.57,14.57,0,0,1-4.47,0l-1.21-.2-.23,0v.28c0,1.24,1.65,2.25,3.68,2.25s3.67-1,3.67-2.25V161Z" transform="translate(-0.6 13.24)"/><path class="cls-10" d="M113.72,160.13l-.13-.08-1.79-1-.3,2c0,.06,0,.11,0,.16a1.48,1.48,0,1,0,2.8-.49A1.5,1.5,0,0,0,113.72,160.13Z" transform="translate(-0.6 13.24)"/><path class="cls-10" d="M101.39,160.13l.12-.08,1.8-1,.3,2c0,.06,0,.11,0,.16a1.48,1.48,0,1,1-2.8-.49A1.5,1.5,0,0,1,101.39,160.13Z" transform="translate(-0.6 13.24)"/><path class="cls-11" d="M101.91,161.2c-.24.24-.56.3-.73.13s-.1-.49.14-.73.56-.3.73-.14A.56.56,0,0,1,101.91,161.2Z" transform="translate(-0.6 13.24)"/><path class="cls-11" d="M113.2,161.2c.24.24.56.3.73.13s.1-.49-.14-.73-.56-.3-.73-.14A.56.56,0,0,0,113.2,161.2Z" transform="translate(-0.6 13.24)"/><circle class="cls-3" cx="136.51" cy="167.54" r="11.58"/><path class="cls-7" d="M135.06,151.82a3.54,3.54,0,0,0-6.73,0,.46.46,0,0,0,.79.46,3.3,3.3,0,0,1,2.58-2c1.18,0,2,1,2.57,2a.46.46,0,0,0,.79-.46Z" transform="translate(-0.6 13.24)"/><path class="cls-7" d="M145.91,151.82a3.53,3.53,0,0,0-6.72,0,.46.46,0,0,0,.79.46,2.66,2.66,0,0,1,5.14,0,.46.46,0,0,0,.79-.46Z" transform="translate(-0.6 13.24)"/><path class="cls-9" d="M141.8,155.54l-1.09.14a28.67,28.67,0,0,1-7.17,0l-1.09-.14a3.3,3.3,0,0,0-3.72,3.27h0a3.3,3.3,0,0,0,2.89,3.27l1.92.25a28.67,28.67,0,0,0,7.17,0l1.92-.25a3.29,3.29,0,0,0,2.88-3.27h0A3.29,3.29,0,0,0,141.8,155.54Z" transform="translate(-0.6 13.24)"/><path class="cls-7" d="M141.8,155.11a35.72,35.72,0,0,1-4.84.37c-1.6,0-3.16-.31-4.74-.39a3.76,3.76,0,0,0-3.24,5.85,4,4,0,0,0,3,1.61,42.09,42.09,0,0,0,4.49.42,34,34,0,0,0,5-.32,5.59,5.59,0,0,0,3.08-1,3.75,3.75,0,0,0-2.79-6.57c-.54,0-.55.9,0,.85a2.88,2.88,0,0,1,1.4,5.55,10.88,10.88,0,0,1-2.35.38,29.09,29.09,0,0,1-4.38.23,35.86,35.86,0,0,1-3.73-.32,4.2,4.2,0,0,1-2.73-1,2.9,2.9,0,0,1-.3-3.73,3.15,3.15,0,0,1,3.2-1.1,34.8,34.8,0,0,0,8.89-.06C142.33,155.89,142.34,155,141.8,155.11Z" transform="translate(-0.6 13.24)"/><rect class="cls-7" x="130.85" y="168.86" width="0.44" height="6.39"/><rect class="cls-7" x="134.62" y="169.11" width="0.44" height="6.69"/><rect class="cls-7" x="138.38" y="169.11" width="0.44" height="6.69"/><rect class="cls-7" x="142.15" y="168.9" width="0.44" height="6.35"/><path class="cls-3" d="M144.77,107.79a16.13,16.13,0,1,1-16.13-16.12A16.13,16.13,0,0,1,144.77,107.79Z" transform="translate(-0.6 13.24)"/><path class="cls-7" d="M128.66,120.32a12.06,12.06,0,0,0,10.78-6.67A3.25,3.25,0,0,0,136,109l-2.58.41a30.33,30.33,0,0,1-9.51,0l-2.58-.41a3.24,3.24,0,0,0-3.44,4.62A12,12,0,0,0,128.66,120.32Z" transform="translate(-0.6 13.24)"/><path class="cls-8" d="M134.1,119a1.41,1.41,0,0,0,.05-.35c0-1.54-2.46-2.78-5.49-2.78s-5.49,1.24-5.49,2.78a1.39,1.39,0,0,0,0,.35,12.05,12.05,0,0,0,10.89,0Z" transform="translate(-0.6 13.24)"/><path class="cls-9" d="M136,109l-2.58.42a30.33,30.33,0,0,1-9.51,0l-2.58-.42a3.88,3.88,0,0,0-.48,0v.59c0,2.65,3.5,4.81,7.82,4.81s7.82-2.16,7.82-4.81V109A4.22,4.22,0,0,0,136,109Z" transform="translate(-0.6 13.24)"/><path class="cls-7" d="M125.79,104.74c-1-1.71-2.56-3.39-4.69-3.39s-3.7,1.68-4.68,3.39a.64.64,0,0,0,1.1.65c.75-1.31,1.93-2.77,3.58-2.77s2.84,1.46,3.58,2.77a.64.64,0,0,0,1.11-.65Z" transform="translate(-0.6 13.24)"/><path class="cls-7" d="M140.89,104.74c-1-1.71-2.56-3.39-4.68-3.39s-3.7,1.68-4.68,3.39a.64.64,0,0,0,1.1.65c.75-1.31,1.93-2.77,3.58-2.77s2.84,1.46,3.58,2.77a.64.64,0,0,0,1.1-.65Z" transform="translate(-0.6 13.24)"/><circle class="cls-3" cx="175.27" cy="158.88" r="13.44"/><path class="cls-7" d="M184.46,151.74a10.45,10.45,0,0,0-17.15,0,1.05,1.05,0,0,0,0,1.45,1,1,0,0,0,1.44,0,8.48,8.48,0,0,1,14.26,0,1,1,0,0,0,1.45,0,1.05,1.05,0,0,0,0-1.45Z" transform="translate(-0.6 13.24)"/><path class="cls-7" d="M173.39,142a2.16,2.16,0,1,1-2.16-2.16A2.16,2.16,0,0,1,173.39,142Z" transform="translate(-0.6 13.24)"/><path class="cls-7" d="M182.7,142a2.16,2.16,0,1,1-2.16-2.16A2.16,2.16,0,0,1,182.7,142Z" transform="translate(-0.6 13.24)"/><path class="cls-3" d="M187,99.86a15.8,15.8,0,1,1-15.8-15.8A15.8,15.8,0,0,1,187,99.86Z" transform="translate(-0.6 13.24)"/><path class="cls-7" d="M178,109.7a8.23,8.23,0,0,0-13.54,0,.82.82,0,0,0,0,1.14.81.81,0,0,0,1.14,0,6.7,6.7,0,0,1,11.26,0,.81.81,0,0,0,1.14,0,.82.82,0,0,0,0-1.14Z" transform="translate(-0.6 13.24)"/><path class="cls-7" d="M169.52,97.46c-.86,1.51-2.25,3-4.11,3s-3.26-1.48-4.12-3a.56.56,0,0,1,1-.56c.65,1.15,1.69,2.43,3.15,2.43s2.49-1.28,3.14-2.43a.56.56,0,0,1,1,.56Z" transform="translate(-0.6 13.24)"/><path class="cls-7" d="M181.17,97.46c-.86,1.51-2.25,3-4.11,3s-3.26-1.48-4.12-3a.56.56,0,0,1,1-.56c.66,1.15,1.69,2.43,3.15,2.43s2.49-1.28,3.14-2.43a.56.56,0,0,1,1,.56Z" transform="translate(-0.6 13.24)"/><path class="cls-7" d="M183.56,94.09a4.79,4.79,0,0,0-6.06-2.8c-.58.19-.25,1.09.33.89a3.83,3.83,0,0,1,4.84,2.24c.23.57,1.12.24.89-.33Z" transform="translate(-0.6 13.24)"/><path class="cls-7" d="M158.9,94.09a4.79,4.79,0,0,1,6.06-2.8c.58.19.25,1.09-.33.89a3.83,3.83,0,0,0-4.84,2.24c-.22.57-1.12.24-.89-.33Z" transform="translate(-0.6 13.24)"/><path class="cls-3" d="M166.44,66.91a13.11,13.11,0,1,1-13.1-13.11A13.09,13.09,0,0,1,166.44,66.91Z" transform="translate(-0.6 13.24)"/><path class="cls-9" d="M152,63.14a3.24,3.24,0,1,1-3.24-3.23A3.24,3.24,0,0,1,152,63.14Z" transform="translate(-0.6 13.24)"/><circle class="cls-7" cx="148.12" cy="75.14" r="2"/><path class="cls-9" d="M161.22,63.14A3.24,3.24,0,1,1,158,59.91,3.24,3.24,0,0,1,161.22,63.14Z" transform="translate(-0.6 13.24)"/><circle class="cls-7" cx="157.38" cy="75.14" r="2"/><path class="cls-7" d="M148.5,73.28h9.7a.48.48,0,0,0,0-1h-9.7a.48.48,0,0,0,0,1Z" transform="translate(-0.6 13.24)"/><path class="cls-3" d="M204.82,37a18.1,18.1,0,1,1-18.09-18.09A18.09,18.09,0,0,1,204.82,37Z" transform="translate(-0.6 13.24)"/><path class="cls-7" d="M184.43,36.9,179.82,30c-.58-.85-1.82.14-1.25,1l3.52,5.25-8.54-1.61c-1-.19-1.19,1.39-.19,1.58l10.35,1.95C184.45,38.33,184.78,37.43,184.43,36.9Z" transform="translate(-0.6 13.24)"/><path class="cls-7" d="M189.06,36.9,193.68,30c.57-.85,1.81.14,1.24,1l-3.52,5.25,8.54-1.61c1-.19,1.19,1.39.19,1.58l-10.35,1.95C189,38.33,188.71,37.43,189.06,36.9Z" transform="translate(-0.6 13.24)"/><path class="cls-7" d="M194.74,45.13h0a5.71,5.71,0,0,0-2.27.39,4.74,4.74,0,0,1-1.79.42,5.33,5.33,0,0,1-1.93-.4,5.57,5.57,0,0,0-4.19,0,4.33,4.33,0,0,1-1.82.46,4.57,4.57,0,0,1-1.8-.43,5.63,5.63,0,0,0-2.16-.44h0A.8.8,0,0,0,178,46a.89.89,0,0,0,.19.55.83.83,0,0,0,.62.29,6.15,6.15,0,0,1,1.79.4,6.67,6.67,0,0,0,2.18.47h.06a5,5,0,0,0,2.06-.43,4.45,4.45,0,0,1,1.8-.44,5.1,5.1,0,0,1,1.8.42,6.62,6.62,0,0,0,2.25.39,5.83,5.83,0,0,0,2.11-.42,4.57,4.57,0,0,1,1.89-.39.81.81,0,0,0,.84-.8A.82.82,0,0,0,194.74,45.13Z" transform="translate(-0.6 13.24)"/><path class="cls-7" d="M180.43,26.58a5.49,5.49,0,0,1-6.94,3.21c-.67-.22-.29-1.24.37-1a4.38,4.38,0,0,0,5.55-2.57.54.54,0,0,1,1,.38Z" transform="translate(-0.6 13.24)"/><path class="cls-7" d="M193.06,26.58A5.49,5.49,0,0,0,200,29.79c.67-.22.29-1.24-.37-1a4.38,4.38,0,0,1-5.55-2.57.54.54,0,0,0-1,.38Z" transform="translate(-0.6 13.24)"/><circle class="cls-3" cx="210.63" cy="88.63" r="15.39"/><path class="cls-7" d="M208.5,72.16c-.93-1.64-2.44-3.24-4.47-3.24s-3.53,1.6-4.46,3.24a.61.61,0,0,0,1.05.62c.71-1.25,1.83-2.64,3.41-2.64s2.71,1.39,3.42,2.64a.61.61,0,0,0,1.05-.62Z" transform="translate(-0.6 13.24)"/><path class="cls-7" d="M222.92,72.16c-.93-1.64-2.44-3.24-4.47-3.24s-3.53,1.6-4.47,3.24a.61.61,0,0,0,1.06.62c.71-1.25,1.83-2.64,3.41-2.64s2.71,1.39,3.42,2.64a.61.61,0,0,0,1-.62Z" transform="translate(-0.6 13.24)"/><path class="cls-7" d="M211.24,87.77a11.49,11.49,0,0,0,10.29-6.36A3.09,3.09,0,0,0,218.24,77l-2.46.39a28.74,28.74,0,0,1-9.07,0L204.24,77A3.1,3.1,0,0,0,201,81.41,11.51,11.51,0,0,0,211.24,87.77Z" transform="translate(-0.6 13.24)"/><path class="cls-9" d="M218.24,77l-2.46.4a28.74,28.74,0,0,1-9.07,0l-2.47-.4-.46,0v.56c0,2.54,3.34,4.59,7.46,4.59s7.47-2,7.47-4.59V77Z" transform="translate(-0.6 13.24)"/><path class="cls-10" d="M223.78,75.26l-.25-.16-3.65-2-.62,4.12,0,.32a3,3,0,0,0,.5,2,3,3,0,0,0,5.19-3A2.94,2.94,0,0,0,223.78,75.26Z" transform="translate(-0.6 13.24)"/><path class="cls-10" d="M198.71,75.26l.25-.16,3.65-2,.62,4.12c0,.11,0,.21,0,.32a3,3,0,0,1-.5,2,3,3,0,1,1-4-4.27Z" transform="translate(-0.6 13.24)"/><path class="cls-11" d="M199.77,77.43a.92.92,0,1,1-1.21-1.21c.49-.49,1.15-.61,1.49-.28S200.26,76.94,199.77,77.43Z" transform="translate(-0.6 13.24)"/><path class="cls-11" d="M222.71,77.43c.49.49,1.16.61,1.5.28a1.11,1.11,0,0,0-.28-1.49c-.49-.49-1.16-.61-1.49-.28S222.23,76.94,222.71,77.43Z" transform="translate(-0.6 13.24)"/><path class="cls-3" d="M231.68,132.65a16.13,16.13,0,1,1-16.13-16.12A16.13,16.13,0,0,1,231.68,132.65Z" transform="translate(-0.6 13.24)"/><path class="cls-7" d="M215.57,145.18a12,12,0,0,0,10.78-6.67,3.24,3.24,0,0,0-3.45-4.62l-2.58.41a30.27,30.27,0,0,1-9.5,0l-2.58-.41a3.24,3.24,0,0,0-3.45,4.62A12,12,0,0,0,215.57,145.18Z" transform="translate(-0.6 13.24)"/><path class="cls-8" d="M221,143.88a2.09,2.09,0,0,0,0-.35c0-1.54-2.46-2.78-5.49-2.78s-5.49,1.24-5.49,2.78a1.39,1.39,0,0,0,0,.35,12.07,12.07,0,0,0,10.9,0Z" transform="translate(-0.6 13.24)"/><path class="cls-9" d="M222.9,133.89l-2.58.41a30.27,30.27,0,0,1-9.5,0l-2.58-.41a4.28,4.28,0,0,0-.49,0v.59c0,2.65,3.5,4.81,7.82,4.81s7.82-2.16,7.82-4.81v-.59A4.28,4.28,0,0,0,222.9,133.89Z" transform="translate(-0.6 13.24)"/><path class="cls-7" d="M212.7,129.6c-1-1.71-2.56-3.39-4.69-3.39s-3.7,1.68-4.68,3.39c-.4.72.7,1.36,1.1.65.75-1.31,1.93-2.77,3.58-2.77s2.84,1.46,3.59,2.77c.4.71,1.5.07,1.1-.65Z" transform="translate(-0.6 13.24)"/><path class="cls-7" d="M227.8,129.6c-1-1.71-2.55-3.39-4.68-3.39s-3.7,1.68-4.68,3.39a.64.64,0,0,0,1.1.65c.75-1.31,1.93-2.77,3.58-2.77s2.84,1.46,3.58,2.77a.64.64,0,0,0,1.1-.65Z" transform="translate(-0.6 13.24)"/><path class="cls-3" d="M270.43,98.34A18.36,18.36,0,1,1,252.07,80,18.36,18.36,0,0,1,270.43,98.34Z" transform="translate(-0.6 13.24)"/><path class="cls-7" d="M245.69,86.16a5.57,5.57,0,0,1-7.05,3.25c-.67-.22-.29-1.26.38-1a4.45,4.45,0,0,0,5.63-2.6.55.55,0,0,1,1,.38Z" transform="translate(-0.6 13.24)"/><path class="cls-7" d="M258.5,86.16a5.56,5.56,0,0,0,7,3.25c.67-.22.29-1.26-.38-1a4.46,4.46,0,0,1-5.63-2.6c-.26-.66-1.3-.29-1,.38Z" transform="translate(-0.6 13.24)"/><path class="cls-7" d="M256.94,106.28c0,3.13-2.17,5.67-4.85,5.67s-4.85-2.54-4.85-5.67,2.17-5.66,4.85-5.66S256.94,103.15,256.94,106.28Z" transform="translate(-0.6 13.24)"/><path class="cls-9" d="M249,95.17a4.53,4.53,0,1,1-4.53-4.53A4.53,4.53,0,0,1,249,95.17Z" transform="translate(-0.6 13.24)"/><circle class="cls-7" cx="243.85" cy="108.41" r="1.4"/><path class="cls-9" d="M264.26,95.17a4.53,4.53,0,1,1-4.53-4.53A4.53,4.53,0,0,1,264.26,95.17Z" transform="translate(-0.6 13.24)"/><circle class="cls-7" cx="259.13" cy="108.41" r="1.4"/><path class="cls-3" d="M300.53,142a20.44,20.44,0,1,1-20.44-20.43A20.44,20.44,0,0,1,300.53,142Z" transform="translate(-0.6 13.24)"/><path class="cls-7" d="M275.87,141a3.28,3.28,0,1,1-3.28-3.27A3.28,3.28,0,0,1,275.87,141Z" transform="translate(-0.6 13.24)"/><path class="cls-7" d="M284.36,141a3.28,3.28,0,1,0,3.27-3.27A3.27,3.27,0,0,0,284.36,141Z" transform="translate(-0.6 13.24)"/><path class="cls-7" d="M274.27,132a6.19,6.19,0,0,0-8.39,1.89c-.43.66.6,1.31,1,.66a4.92,4.92,0,0,1,6.7-1.51c.67.4,1.33-.63.65-1Z" transform="translate(-0.6 13.24)"/><path class="cls-7" d="M286,132a6.19,6.19,0,0,1,8.39,1.89c.44.66-.6,1.31-1,.66a4.91,4.91,0,0,0-6.69-1.51c-.68.4-1.34-.63-.66-1Z" transform="translate(-0.6 13.24)"/><path class="cls-7" d="M287.57,151.2h0a5.18,5.18,0,0,0-2.12.36,4.48,4.48,0,0,1-1.67.39,4.88,4.88,0,0,1-1.82-.37,5.16,5.16,0,0,0-3.92,0,4,4,0,0,1-1.7.43,4.35,4.35,0,0,1-1.69-.41,5.48,5.48,0,0,0-2-.41h0a.8.8,0,0,0-.58.26.78.78,0,0,0-.19.51.76.76,0,0,0,.77.79,5.1,5.1,0,0,1,1.67.38,6.61,6.61,0,0,0,2,.44h.05a4.76,4.76,0,0,0,1.94-.41,4,4,0,0,1,1.68-.41,4.81,4.81,0,0,1,1.68.39,6.08,6.08,0,0,0,2.11.36,5.24,5.24,0,0,0,2-.39,4.38,4.38,0,0,1,1.78-.36.78.78,0,1,0,0-1.55Z" transform="translate(-0.6 13.24)"/><path class="cls-3" d="M250.94,29.68a16.36,16.36,0,1,1-16.36-16.36A16.35,16.35,0,0,1,250.94,29.68Z" transform="translate(-0.6 13.24)"/><path class="cls-7" d="M238.93,36.76c0,2.78-1.94,5.05-4.33,5.05s-4.32-2.27-4.32-5.05,1.93-5,4.32-5S238.93,34,238.93,36.76Z" transform="translate(-0.6 13.24)"/><path class="cls-7" d="M228.48,25.61l3-3a.6.6,0,0,0-.85-.84l-3,3-3-3a.59.59,0,0,0-.84.84l3,3-3,3a.6.6,0,0,0,.84.85l3-3c1,1,2,2,3,3,.54.54,1.39-.31.85-.85C230.5,27.64,229.49,26.62,228.48,25.61Z" transform="translate(-0.6 13.24)"/><path class="cls-7" d="M245.46,28.65l-3-3,3-3a.6.6,0,0,0-.85-.84l-3,3-3-3a.59.59,0,0,0-.84.84q1.51,1.53,3,3l-3,3a.6.6,0,0,0,.84.85l3-3q1.53,1.51,3,3A.6.6,0,0,0,245.46,28.65Z" transform="translate(-0.6 13.24)"/><path class="cls-3" d="M299.84,55.51A21.5,21.5,0,1,1,278.35,34,21.5,21.5,0,0,1,299.84,55.51Z" transform="translate(-0.6 13.24)"/><path class="cls-7" d="M272.45,48.45h-8.61a.79.79,0,0,0,0,1.58h5.49a3.4,3.4,0,0,0-.56,1.87,3.45,3.45,0,1,0,3.68-3.44Z" transform="translate(-0.6 13.24)"/><path class="cls-7" d="M290.4,48.45h-8.61a.79.79,0,0,0,0,1.58h5.48a3.39,3.39,0,0,0-.55,1.87,3.45,3.45,0,1,0,3.68-3.44Z" transform="translate(-0.6 13.24)"/><path class="cls-7" d="M287.56,66.58a11.22,11.22,0,0,0-18.43,0,1.13,1.13,0,0,0,0,1.55,1.09,1.09,0,0,0,1.55,0,9.12,9.12,0,0,1,15.32,0,1.11,1.11,0,0,0,1.56,0,1.13,1.13,0,0,0,0-1.55Z" transform="translate(-0.6 13.24)"/><path class="cls-3" d="M312.77,101.08a14.66,14.66,0,1,1-14.66-14.65A14.66,14.66,0,0,1,312.77,101.08Z" transform="translate(-0.6 13.24)"/><path class="cls-7" d="M291.83,108.2a7.64,7.64,0,0,0,12.56,0,.76.76,0,0,0,0-1.06.75.75,0,0,0-1.06,0,6.21,6.21,0,0,1-10.44,0,.75.75,0,0,0-1.06,0,.76.76,0,0,0,0,1.06Z" transform="translate(-0.6 13.24)"/><path class="cls-7" d="M296.53,98.86c-.8,1.4-2.09,2.77-3.82,2.77s-3-1.37-3.82-2.77a.52.52,0,0,1,.9-.52c.61,1.07,1.57,2.25,2.92,2.25s2.31-1.19,2.92-2.25a.52.52,0,0,1,.9.52Z" transform="translate(-0.6 13.24)"/><path class="cls-7" d="M307.33,98.86c-.8,1.4-2.08,2.77-3.81,2.77s-3-1.37-3.82-2.77a.52.52,0,0,1,.9-.52c.61,1.07,1.57,2.25,2.92,2.25s2.31-1.19,2.91-2.25a.52.52,0,0,1,.9.52Z" transform="translate(-0.6 13.24)"/><path class="cls-8" d="M304,91.73a2,2,0,0,0-3.14-2.08,2,2,0,0,0-1.41-1.52,2,2,0,0,0-2.34,1.08,2,2,0,0,0,.06,1.77c.16.31.33.62.47,1l1.3,3,2.91-1.42c.31-.15.64-.29,1-.42A1.94,1.94,0,0,0,304,91.73Z" transform="translate(-0.6 13.24)"/><path class="cls-8" d="M297.15,82.83a2.61,2.61,0,0,0-4.92.51A2.6,2.6,0,0,0,288.08,86a2.53,2.53,0,0,0,1.53,1.75c.42.18.85.36,1.26.57l3.78,1.9,1.76-3.85c.19-.42.41-.82.64-1.23A2.58,2.58,0,0,0,297.15,82.83Z" transform="translate(-0.6 13.24)"/><path class="cls-3" d="M351.67,182.86a15.82,15.82,0,1,1-15.81-15.81A15.81,15.81,0,0,1,351.67,182.86Z" transform="translate(-0.6 13.24)"/><path class="cls-7" d="M335.87,186.86a9.16,9.16,0,0,0-8.2,5.08,2.47,2.47,0,0,0,2.62,3.52l2-.32a23.13,23.13,0,0,1,7.24,0l2,.32a2.48,2.48,0,0,0,2.63-3.52A9.19,9.19,0,0,0,335.87,186.86Z" transform="translate(-0.6 13.24)"/><path class="cls-8" d="M335.87,192.51c-2.56,0-4.64,1.19-4.64,2.66,0,0,0,.09,0,.13l1-.16a23.13,23.13,0,0,1,7.24,0l1,.16a.57.57,0,0,0,0-.13C340.51,193.7,338.43,192.51,335.87,192.51Z" transform="translate(-0.6 13.24)"/><path class="cls-7" d="M330,178.31l2.94-2.94c.53-.52-.29-1.34-.82-.82l-2.94,2.94-2.94-2.94c-.52-.52-1.34.3-.81.82l2.93,2.94-2.93,2.94c-.53.52.29,1.34.81.82l2.94-2.94,2.94,2.94a.58.58,0,0,0,.82-.82Z" transform="translate(-0.6 13.24)"/><path class="cls-7" d="M346.37,181.25l-2.94-2.94,2.94-2.94a.58.58,0,0,0-.82-.82l-2.94,2.94-2.94-2.94c-.52-.52-1.34.3-.82.82l2.94,2.94-2.94,2.94c-.52.52.3,1.34.82.82l2.94-2.94,2.94,2.94A.58.58,0,0,0,346.37,181.25Z" transform="translate(-0.6 13.24)"/><path class="cls-3" d="M354.86,133.6a18.67,18.67,0,1,1-18.67-18.67A18.66,18.66,0,0,1,354.86,133.6Z" transform="translate(-0.6 13.24)"/><path class="cls-7" d="M331.07,127.46h-7.48a.69.69,0,0,0,0,1.37h4.77a3,3,0,0,0-.49,1.63,3,3,0,1,0,3.2-3Z" transform="translate(-0.6 13.24)"/><path class="cls-7" d="M346.66,127.46h-7.48a.69.69,0,0,0,0,1.37h4.76a3,3,0,0,0-.48,1.63,3,3,0,1,0,3.2-3Z" transform="translate(-0.6 13.24)"/><path class="cls-7" d="M344.19,143.21a9.73,9.73,0,0,0-16,0,1,1,0,0,0,1.35,1.35,7.91,7.91,0,0,1,13.3,0,1,1,0,0,0,1.35,0,1,1,0,0,0,0-1.35Z" transform="translate(-0.6 13.24)"/><path class="cls-3" d="M348.24,84.78a13.12,13.12,0,1,1-13.12-13.12A13.13,13.13,0,0,1,348.24,84.78Z" transform="translate(-0.6 13.24)"/><path class="cls-7" d="M335.13,95.14a11.27,11.27,0,0,0,9.14-4.68A2.45,2.45,0,0,0,341,86.93l-2.12,1.21a7.6,7.6,0,0,1-7.58,0l-2.12-1.21A2.45,2.45,0,0,0,326,90.46,11.27,11.27,0,0,0,335.13,95.14Z" transform="translate(-0.6 13.24)"/><path class="cls-12" d="M339.48,91.89a1.56,1.56,0,0,0-1.47-1h-5.76a1.56,1.56,0,0,0-1.47,1,16,16,0,0,0-.93,5.13c0,4.23,2.36,6,5.28,6s5.29-1.81,5.29-6A16,16,0,0,0,339.48,91.89Z" transform="translate(-0.6 13.24)"/><path class="cls-7" d="M335.39,95.8c0-.3,0-.6,0-.89s0-.56,0-.83,0-.51-.05-.74c-.06-.92-.24-.92-.3,0,0,.23,0,.48-.05.74l0,.83c0,.29,0,.59,0,.89s0,.61,0,.92,0,.61,0,.92,0,.6,0,.88c0,.58.05,1.12.08,1.58.06.92.24.92.3,0,0-.46.07-1,.08-1.58,0-.28,0-.58,0-.88s0-.61,0-.92S335.39,96.11,335.39,95.8Z" transform="translate(-0.6 13.24)"/><path class="cls-13" d="M330.15,94.21c.72,1.07,2.68,1.54,5,1.54s4.26-.47,5-1.54a17,17,0,0,0-.64-2.32,1.56,1.56,0,0,0-1.47-1h-5.76a1.56,1.56,0,0,0-1.47,1A16.92,16.92,0,0,0,330.15,94.21Z" transform="translate(-0.6 13.24)"/><path class="cls-7" d="M331,80.49c-.91-.38-1.3-.65-1.3-1.2s.31-.9,1.12-.9a2.54,2.54,0,0,1,1,.19.37.37,0,0,0,.48-.21.38.38,0,0,0-.2-.48,2.91,2.91,0,0,0-1-.2V77a.32.32,0,0,0-.33-.32.32.32,0,0,0-.32.32v.74a1.73,1.73,0,0,0-1.59,1.69c0,.91.66,1.39,1.73,1.81.78.32,1.19.68,1.19,1.25s-.51,1-1.25,1a2.9,2.9,0,0,1-1.16-.25.37.37,0,1,0-.3.68,3.35,3.35,0,0,0,1.3.29V85a.33.33,0,1,0,.66,0V84.2a1.83,1.83,0,0,0,1.66-1.79C332.64,81.48,332.1,80.93,331,80.49Z" transform="translate(-0.6 13.24)"/><path class="cls-7" d="M339.84,80.49c-.92-.38-1.3-.65-1.3-1.2s.3-.9,1.11-.9a2.5,2.5,0,0,1,1,.19.37.37,0,1,0,.28-.69,2.91,2.91,0,0,0-1-.2V77a.32.32,0,0,0-.33-.32.32.32,0,0,0-.32.32v.74a1.73,1.73,0,0,0-1.59,1.69c0,.91.66,1.39,1.74,1.81.77.32,1.18.68,1.18,1.25s-.5,1-1.25,1a2.81,2.81,0,0,1-1.15-.25.37.37,0,1,0-.31.68,3.35,3.35,0,0,0,1.3.29V85a.34.34,0,0,0,.67,0V84.2a1.83,1.83,0,0,0,1.66-1.79C341.47,81.48,340.92,80.93,339.84,80.49Z" transform="translate(-0.6 13.24)"/><path class="cls-3" d="M392.63,204.21a17.37,17.37,0,1,1-17.37-17.37A17.37,17.37,0,0,1,392.63,204.21Z" transform="translate(-0.6 13.24)"/><path class="cls-9" d="M373.43,199.21a4.29,4.29,0,1,1-4.29-4.28A4.29,4.29,0,0,1,373.43,199.21Z" transform="translate(-0.6 13.24)"/><circle class="cls-7" cx="368.54" cy="210.81" r="2.65"/><path class="cls-9" d="M385.7,199.21a4.29,4.29,0,1,1-4.28-4.28A4.29,4.29,0,0,1,385.7,199.21Z" transform="translate(-0.6 13.24)"/><circle class="cls-7" cx="380.82" cy="210.81" r="2.65"/><path class="cls-7" d="M368.85,212.65h12.86a.64.64,0,0,0,0-1.27H368.85a.64.64,0,0,0,0,1.27Z" transform="translate(-0.6 13.24)"/><path class="cls-3" d="M386.52,162a10.82,10.82,0,1,1-10.82-10.82A10.82,10.82,0,0,1,386.52,162Z" transform="translate(-0.6 13.24)"/><path class="cls-9" d="M374.56,160.52a2.68,2.68,0,1,1-2.68-2.67A2.67,2.67,0,0,1,374.56,160.52Z" transform="translate(-0.6 13.24)"/><path class="cls-7" d="M373.53,160.52a1.65,1.65,0,1,1-1.65-1.65A1.65,1.65,0,0,1,373.53,160.52Z" transform="translate(-0.6 13.24)"/><circle class="cls-9" cx="379.53" cy="160.52" r="2.67" transform="translate(209.84 549.55) rotate(-88.7)"/><path class="cls-7" d="M381.18,160.52a1.65,1.65,0,1,1-1.65-1.65A1.65,1.65,0,0,1,381.18,160.52Z" transform="translate(-0.6 13.24)"/><path class="cls-7" d="M378.57,169a2.89,2.89,0,1,1-2.86-3.34A3.13,3.13,0,0,1,378.57,169Z" transform="translate(-0.6 13.24)"/><path class="cls-7" d="M384.15,156.86a3.29,3.29,0,0,0-4.15-1.92.33.33,0,0,0,.23.61,2.61,2.61,0,0,1,3.31,1.54c.16.39.77.16.61-.23Z" transform="translate(-0.6 13.24)"/><path class="cls-7" d="M367.26,156.86a3.3,3.3,0,0,1,4.16-1.92.33.33,0,0,1-.23.61,2.61,2.61,0,0,0-3.31,1.54.33.33,0,0,1-.62-.23Z" transform="translate(-0.6 13.24)"/></g></g></svg>