<?xml version="1.0" encoding="UTF-8"?>
<svg id="Layer_1" data-name="Layer 1" xmlns="http://www.w3.org/2000/svg" version="1.1" viewBox="0 0 2589.6 1638.3">
  <defs>
    <style>
      .cls-1 {
        fill: #1d52c9;
      }

      .cls-1, .cls-2, .cls-3, .cls-4, .cls-5, .cls-6, .cls-7, .cls-8, .cls-9, .cls-10, .cls-11, .cls-12, .cls-13, .cls-14, .cls-15 {
        stroke-width: 0px;
      }

      .cls-2 {
        fill: #1b52cb;
      }

      .cls-3 {
        fill: #1b53cb;
      }

      .cls-4 {
        fill: #29cfc9;
      }

      .cls-5 {
        fill: #f9b601;
      }

      .cls-6 {
        fill: #3eb7eb;
      }

      .cls-7 {
        fill: #029ddf;
      }

      .cls-8 {
        fill: #1c52cb;
      }

      .cls-9 {
        fill: #f85707;
      }

      .cls-10 {
        fill: #fafdfe;
      }

      .cls-11 {
        fill: #5a0fc4;
      }

      .cls-12 {
        fill: #049ee0;
      }

      .cls-13 {
        fill: #019de0;
      }

      .cls-14 {
        fill: #039ddf;
      }

      .cls-15 {
        fill: #009de0;
      }
    </style>
  </defs>
  <path class="cls-7" d="M2.7,1241c30.6,0,61.3,0,91.9.4,17.3.2,34.7.4,51.9,1.7,30.1,2.4,58.9,9.9,86.2,23.2,37,18.1,60.9,47,71.1,86.6,13.9,53.9,13.8,108.1-.4,162-11.6,44.2-39.7,74.5-80.7,93.5-27.6,12.8-56.8,19.3-87,20-42.6.9-85.3.3-127.9.3s-2-.3-3-.4c0-26.9,0-53.9,0-80.8,0-97.1,0-194.3,0-291.4,0-3.8-1.3-7.5-2-11.2,0-1.2,0-2.5,0-3.9h0ZM97.2,1308.6v253.5c17.6.5,34.6,1.5,51.4-1.8,30.3-5.9,51-23.2,60.5-53.1,1.2-3.8,2.6-7.6,3.4-11.5,7.4-34.6,7.9-69.4,3.5-104.4-2.1-16.9-6.7-33.3-15.7-48.1-9.4-15.6-22.7-25.7-40.3-30.7-20.6-5.7-41.5-3.9-62.8-3.9Z"/>
  <path class="cls-6" d="M1124.7-3c0,.6,0,1.2.3,1.8-2,.1-4,.3-6,.3-42.3,0-84.6,0-126.9,0-84.3,0-168.6.1-252.9.1-7.4-.2-14.9-.3-22.3-.5,0-.6,0-1.1,0-1.6h407.9ZM2.7,1245c.7,3.7,2,7.5,2,11.2,0,97.1,0,194.3,0,291.4s0,53.9,0,80.8c-.7.2-1.4.4-2.2.5,0,0,0-383.9,0-383.9ZM2210.7-3c-.4.6-.4,1.2-.3,1.8-1,.1-2,.3-3,.3-52.7,0-105.4-.2-158.1-.2s-7.7,1-11.6,1.5C2032.7,0,2027.7-.5,2022.6-.9c0-.7,0-1.3,0-2,62.7,0,125.4,0,188,0h0ZM1810.7-3h176c0,.7.2,1.4.3,2-4,.3-8,.6-11.9,1-3.3-.4-6.5-1.1-9.8-1.2-13-.1-26-.1-39-.1l-101.9.3c-4.9-.3-9.8-.6-14.6-.9v-.9c0,0,.9-.2.9-.2ZM638.7,1639v-2h45.9c0,.7,0,1.4,0,2.1-15.3,0-30.6,0-46,0ZM1634.7,1639v-2c13.9,0,27.9,0,41.8,0,0,.7,0,1.4.2,2.1h-42ZM986.5,1636.9c0,.7.2,1.4.2,2.1h-38v-2c12.6,0,25.2,0,37.8,0ZM1940.6,1636.9c0,.7,0,1.4.2,2.1h-38c0-.7,0-1.4,0-2.1,12.5,0,25.1,0,37.7,0h0Z"/>
  <path class="cls-9" d="M1987-.9c0-.7-.2-1.4-.3-2h36c0,.7,0,1.3,0,2-11.8-.1-23.7,0-35.6,0Z"/>
  <path class="cls-10" d="M1810.7-3l-.8.3v.9c-5.8.2-11.5.3-17.2.5v-1.6c6,0,12,0,18,0Z"/>
  <path class="cls-2" d="M2546.9,721c.2,3.6.5,7.3.5,10.9,0,177.6.1,355.1,0,532.7,0,170.6-120.1,318-287.4,352.8-27.9,5.8-55,8.4-72.3,7-.3-.2-.5-.4-.8-.6-.2-.2-.4-.5-.5-.8-.2-2.7-.4-5.3-.4-8,0-177.2,0-354.5-.1-531.7.1-3,.4-6,.4-9v-321.4c0-2.7-.3-5.3-.4-8,.3-8,.5-16,.8-24,120.2,0,240.2,0,360.2,0Z"/>
  <path class="cls-3" d="M1462.6,746c-1.2,9.2-2.2,18.4-3.5,27.5-19.2,134.9-114.8,248.8-244.3,291.2-33.1,10.8-67.1,16.6-101.9,18-4,.2-8-.2-11.9-.4,0-109.3-.2-218.6-.2-327.9v-33.4c.2-3.3.5-6.6.5-10v-341.6c0-3.3-.3-6.6-.5-10,3.7-.1,7.3-.3,11-.3h340.5c3.7,0,7.3.3,11,.4,0,3.3-.3,6.7-.3,10v342.5c0,3,.2,6,.2,9-.3,8.3-.5,16.7-.6,25h0Z"/>
  <path class="cls-4" d="M1462.6,746c0-8.4.3-16.7.4-25.1,12.6-.5,25.2-1,37.8-1.4,3.2.5,6.4,1.4,9.7,1.4,104.8,0,209.6,0,314.4,0h333c9.3,0,18.7,0,28-.2.4,0,.7,0,1.1.3-.3,8-.5,16-.8,24-.5,1.5-1.2,3.1-1.4,4.6-1.5,12.5-2.2,25.1-4.5,37.5-9,47.6-26.7,91.8-53.2,132.3-22.5,34.5-50.4,64.3-83.2,89.3-38.8,29.6-82,50.5-129.3,62.5-14.5,3.7-29.3,6.2-43.9,9.2.5.6,1.1,1.3,1.8,2.1-68.2,3.3-135.1-2.3-197.8-32.2-105.2-50.1-172.9-131.6-201.7-244.6-4.3-17-5.8-34.7-8.6-52.1-.4-2.5-1.2-5-1.8-7.6h0Z"/>
  <path class="cls-15" d="M2546.9,721h-360c-.3-.2-.7-.2-1.1-.3.1-3,.4-6,.4-9v-343.1c0-3-.2-6-.3-9,3.6-.2,7.3-.5,10.9-.5h350.1c.2,3.3.5,6.6.5,9.9v342.1c0,3.3-.3,6.6-.5,9.9h0Z"/>
  <path class="cls-8" d="M2547,359.1h-350.1c-3.6,0-7.3.4-10.9.5-46.5-.1-93-.1-139.5-.2-6,0-11.9-.3-17.9-.5,2.2-.6,4.4-1.4,6.7-1.8,88.4-14.6,154.1-93.2,151-182.6-2.1-61.9-29.4-110.9-80.5-146.3-20.8-14.2-43.8-22.5-68.1-27.8,3.9-.5,7.7-1.5,11.6-1.5,52.7,0,105.4.1,158.1.2,1,0,2-.2,3-.3,55.8,3.5,108.2,18.9,156.2,47.4,95.6,56.7,154.1,140.1,175.4,249.3,4.2,21,6.5,42.2,5,63.6Z"/>
  <path class="cls-9" d="M1100.7,721v33.4c-1.9,11.5-3.6,23-5.7,34.4-24.2,131.1-121.9,239.8-249.9,278.5-25.9,7.8-52.4,12.2-79.2,15.1-8.8,0-17.5,0-26.3,0,0-4-.2-8-.2-12v-337.9c0-3.7-.2-7.3-.3-11,.5,0,.9-.4,1.3-.7,2.3,0,4.7.2,7,.2,117.7,0,235.5,0,353.3,0Z"/>
  <path class="cls-4" d="M378.7,565v-49.9c.6-1.1,1.5-2.2,1.8-3.4,2.5-10.3,3.9-20.9,7.6-30.7,11.8-31.9,29.8-59.8,56.9-81.2,23.6-18.6,49.7-31.5,79.4-36.8,5.5-1,10.9-2.2,16.3-3.4h37.9c10.2,2.4,20.5,4.6,30.7,7.3,28.2,7.3,52.6,21.9,73.6,41.7,29.2,27.7,47.9,61.4,54.1,101.5.2,1,1.6,1.9,2.4,2.8v56.2c-.9,1.6-2.2,3-2.7,4.7-2.9,9.8-4.9,20-8.4,29.6-10,27.3-25.9,50.7-47.4,70.3-20.2,18.3-43.1,32-69.4,39.4-10.7,3-21.7,5-32.6,7.5h-40.4c-4.2-.7-8.4-1.2-12.5-2.2-27.1-6.2-52.4-16.3-75-33.1-33.7-25.2-55.9-58-66.7-98.5-1.9-7.3-3.7-14.5-5.6-21.8h0Z"/>
  <path class="cls-11" d="M538.5,720.6h40.4c3.3,0,6.6.4,9.9.4h138.3c4,0,7.9.3,11.9.5,0,3.7.3,7.3.3,11v337.9c0,4,0,8,.2,12-32.6,1-64.4-3.8-95.7-12.5-132-36.8-230.2-141.5-258.4-275.5-5.1-24.1-8.3-48.6-6.7-73.4h130.8c9.7,0,19.4-.2,29-.4h0Z"/>
  <path class="cls-2" d="M578.7,359.6h-37.9c-2-.1-4-.4-5.9-.4-52,0-104.1,0-156.1.1-1.4-27.8,2.5-55.1,8.8-82.1C419.4,140.9,526.4,35.7,663.5,6c17.5-3.8,35.5-5,53.3-7.4,7.4.2,14.9.3,22.3.5,0,1.7-.3,3.3-.3,5,0,118.3,0,236.6,0,354.8-49.4.1-98.9.1-148.3.2-4,.1-7.9.3-11.9.5h0Z"/>
  <path class="cls-7" d="M684.6,1637h-45.9c-37.9-3.4-71.5-16.9-101.3-42.6,14.6-16.4,28.7-32.1,43-48.1,3.7,2.5,6.7,4.5,9.7,6.5,22.5,15,47,23.7,74.3,21.9,8.1-.5,16.7-2.3,24-5.8,18.5-9,19.5-34.3,1.8-44.7-8.2-4.8-17.6-7.9-26.7-11.1-12.6-4.3-25.5-7.7-38.1-11.9-13.7-4.5-26.3-11.2-38.2-19.3-45.8-31.4-48.9-102.8,2-136.4,19-12.6,40.1-19.6,62.6-21.8,36.2-3.6,71.2.9,103.9,17.9,9.1,4.7,17.6,10.6,27.4,16.6-11.3,17.3-21.9,33.6-32.8,50.3-3.6-1.9-6.5-3.5-9.4-5-20.9-11.4-42.9-18.4-66.9-17.2-7.2.4-14.8,1.6-21.2,4.5-14.3,6.5-16.1,24.9-3.5,34.3,5.5,4.1,12,7.2,18.5,9.6,12.5,4.6,25.5,7.8,37.9,12.5,15.2,5.8,30.5,11.6,45,18.9,57,28.9,54.9,109.5,9.6,143-18.1,13.4-38.2,21.4-60,25.8-5.1,1.1-10.4,1.4-15.7,2.1h0Z"/>
  <path class="cls-12" d="M986.5,1636.9c-12.6,0-25.2,0-37.8,0-40.1-3.2-67.7-28.5-75.7-70.2-2.2-11.4-3.2-23.1-3.3-34.7-.4-42-.2-84-.2-125.9v-11.8c-14-2.1-27.6.3-41.5-1.5v-60.8h41.3v-64.3c30.1-3.4,59-6.7,88.8-10.1v73.9h68.2c-3.3,21.3-6.4,41.3-9.6,62h-58.4v10.7c0,41.6,0,83.3,0,124.9,0,6,.2,12.1,1.5,17.9,3.3,15.8,13.7,23.5,29.7,21.1,9.4-1.4,18.5-4.9,29-7.8,9.1,17.1,18.7,35.2,28.9,54.3-18.4,13.2-39,19.6-61,22.2h0Z"/>
  <path class="cls-7" d="M1940.6,1636.9h-37.7c-41.3-3.8-69.4-30.7-75.9-73.6-1.8-11.5-2.4-23.2-2.5-34.8-.3-41,0-82,0-123v-11.8h-41.2v-61.6h40.9c.5-11.5.2-22,.3-32.5v-31.9c29.5-3.4,58.4-6.7,88.3-10.1v73.9h68.3c-3.3,21.3-6.4,41.2-9.6,61.9h-58c-.2,3.7-.6,6.6-.6,9.5,0,41,0,82,0,123,0,7,.5,14,1.8,20.8,3,15.8,13.5,23.6,29.6,21.2,9.4-1.4,18.5-4.8,28.5-7.5.2.2,1.3,1,1.8,2.1,9.1,17,18.1,34.1,27.6,51.9-19,13.5-39.6,20-61.6,22.5h0ZM1676.6,1636.9c-13.9,0-27.9,0-41.8,0-52.1-5.5-90.8-31.3-111.1-79.6-23.2-55.1-21.3-111,6.9-164.1,24.2-45.5,64.2-67.9,115.4-70.6,36.8-1.9,70.8,6.2,100.7,28.5,2.9,2.2,5.7,4.5,9.6,7.6-12.6,17.5-25,34.6-37.8,52.3-3.2-2-5.9-3.7-8.6-5.4-15.8-10-32.7-16.2-51.8-15.3-22.7,1.1-38.7,12-46.8,33-4,10.4-6.7,21.7-7.8,32.9-2,19.9-2.3,39.9,1.2,59.8,0,.3,0,.7,0,1,7.6,47,41.9,57.5,76.6,48.3,10.4-2.8,20-8.9,29.9-13.5,2.1-1,4.1-2,6.6-3.3,12.7,17.9,25.1,35.6,38.3,54.4-23.7,19-49.7,30.8-79.6,33.9h0Z"/>
  <path class="cls-12" d="M1099.6,1628.4v-296.1c25.2-1,50.4-.2,76.7-.5,2.4,17.7,4.7,34.9,7.3,54.4,2.3-4.4,3.7-6.8,4.9-9.4,5.1-11.7,11.9-22.3,21-31.4,22.7-22.7,49.7-26,80.5-17.9-4.6,28.4-9.2,56.5-13.8,85.2-6.6-1.1-12.4-2-18.2-2.9-24.6-3.6-43.4,5.4-54.8,27.4-9.7,18.8-15.8,38.5-15.4,60.2.6,40,.2,80,.2,119.9v10.9c-30.2.2-59,.2-88.4.2h0Z"/>
  <path class="cls-13" d="M1872.5,1082.5c-.6-.8-1.3-1.5-1.8-2.1,14.6-3,29.4-5.5,43.9-9.2,47.3-12,90.5-32.9,129.3-62.5,32.8-25,60.7-54.7,83.2-89.3,26.4-40.5,44.2-84.7,53.2-132.3,2.3-12.3,3-25,4.5-37.5.2-1.6.9-3.1,1.4-4.6.1,2.7.4,5.3.4,8v321.4c0,3-.3,6-.4,9-4.3-.2-8.6-.5-13-.5h-288.7c-4,0-8-.3-12-.4h0Z"/>
  <path class="cls-14" d="M765.9,1082.3c26.8-2.9,53.3-7.3,79.2-15.1,128-38.7,225.6-147.4,249.9-278.5,2.1-11.4,3.8-22.9,5.7-34.4,0,109.3.2,218.6.2,327.9-3.3.2-6.6.5-9.9.5h-303.2c-7.3,0-14.6-.2-21.9-.4h0Z"/>
  <path class="cls-7" d="M1346.8,1332.4h86.9v296.3c-28.6.7-57.4,0-86,.3-2.3-7.4-3.1-282-.9-296.6ZM389.6,1332.5h87.1v294.9c-6.9,1.9-71.1,2.5-87.1.8v-295.7Z"/>
  <path class="cls-12" d="M1387.8,1175.4c37.3,0,60.9,29.5,52.8,63.6-6.1,25.8-31.9,41.2-61.4,36.5-21.6-3.4-37-18.3-40.9-39.4-4.2-22.6,4.8-43,23.5-53.8,8.6-5,18-6.7,26-6.9h0ZM380.7,1225.9c0-29.7,21.8-50.8,52.4-50.5,30.2.2,51.9,21.1,52,50.1.1,29.7-21.3,50.8-52.1,50.9-30.7.2-52.3-20.6-52.3-50.5Z"/>
  <path class="cls-13" d="M378.7,359.2c52,0,104.1-.1,156.1-.1s4,.3,5.9.4c-5.4,1.1-10.9,2.4-16.3,3.4-29.7,5.3-55.9,18.2-79.4,36.8-27.1,21.4-45.1,49.2-56.9,81.2-3.6,9.8-5,20.5-7.6,30.7-.3,1.2-1.2,2.3-1.8,3.4-.1-13-.4-26-.4-39-.1-35.3,0-70.6,0-106s.3-7.1.4-10.8h0Z"/>
  <path class="cls-7" d="M538.5,720.6c-9.6,0-19.3.4-28.9.4h-130.8c-.2-2-.5-3.9-.5-5.9v-144.2c0-2,.2-4,.4-5.9,1.9,7.3,3.7,14.6,5.6,21.8,10.8,40.6,33,73.3,66.7,98.5,22.5,16.8,47.8,27,75,33.1,4.1,1,8.4,1.5,12.5,2.2Z"/>
  <path class="cls-15" d="M738.9,359c0-118.3,0-236.6,0-354.8,0-1.7.2-3.3.3-5,84.3,0,168.6-.1,252.9-.1s84.6.1,126.9.1,4-.2,6-.3c44.4,2.4,87,12.7,127,32,114.1,55.1,182.8,145.3,206.2,269.8,2,10.4,2.8,21,5.1,31.5,1.7-12.1,3.1-24.3,5.2-36.4,23-137.3,130.5-253.2,266.3-286.5,19-4.7,38.6-7.1,57.9-10.6,5.7-.2,11.4-.3,17.1-.5,4.9.3,9.8.6,14.6.9,0,36.8,0,73.7.2,110.5,0,15.9.2,31.8.3,47.8,0,13.8,0,27.7,0,41.5,0,53.4,0,106.8,0,160.1v.9c-4-.2-8-.6-11.9-.6h-214.9c-45,0-89.9.1-134.9.1-3.7-.1-7.3-.4-11-.4h-340.5c-3.7,0-7.3.2-11,.3h-353.5c-2,0-4-.2-6-.3-.5.1-1.2.1-2,0h0Z"/>
  <path class="cls-9" d="M1824.8,199c0-13.8,0-27.7,0-41.5.5-1.6,1.2-3.1,1.4-4.7,6.3-42.9,25.7-78.8,57.5-108,26-23.9,56.8-38,91.2-44.6,4-.3,7.9-.6,11.9-1,11.9,0,23.8,0,35.7-.1,5,.5,10.1.9,15.1,1.3,24.2,5.3,47.3,13.6,67.8,27.9,51.1,35.4,78.4,84.4,80.5,146.3,3.1,89.5-62.6,168.1-151,182.6-2.3.4-4.5,1.2-6.7,1.8-15,0-30,0-44.9.1-2.2-.6-4.5-1.3-6.7-1.7-75.4-14.6-124.1-58.7-146.2-132.1-2.5-8.7-3.8-17.6-5.7-26.3h0Z"/>
  <path class="cls-1" d="M1975.1,0c-34.4,6.7-65.3,20.8-91.2,44.6-31.8,29.2-51.3,65.1-57.5,108-.2,1.6-.9,3.1-1.4,4.7l-.3-47.8c0-36.8,0-73.7-.2-110.5l101.9-.3c13,0,26-.1,39,.1,3.2.1,6.4.8,9.7,1.2Z"/>
  <path class="cls-5" d="M1463,359.5c45-.1,89.9-.1,134.9-.1h214.9c4,0,8,.4,11.9.6,0,8.7-.3,17.4-.4,26.2-.6,6.1-1.2,12.1-1.9,18.1-.5,1.9-1.2,3.8-1.5,5.7-14.4,96.4-60,174.9-136.4,235.2-53.9,42.5-115.7,66.3-183.8,74.3-12.6.5-25.2,1-37.8,1.4,0-3-.2-6-.2-9v-342.5c0-3.2.3-6.5.3-9.9Z"/>
  <path class="cls-7" d="M1824.3,412.8c0,4,.3,8,.3,12v283.2c0,4.3.2,8.6.3,12.9-104.8,0-209.6,0-314.4,0-3.2,0-6.4-.9-9.7-1.4,68-8,129.9-31.8,183.8-74.3,76.4-60.3,122-138.7,136.4-235.2.3-1.9,1-3.8,1.5-5.7.6,2.8,1.2,5.7,1.8,8.5h0ZM739.5,569.1c.2,3.6.5,7.3.5,10.9v129.8c0,3.7.2,7.3.3,11-.4.3-.8.6-1.3.7-4-.2-7.9-.5-11.9-.5h-138.3c-3.3,0-6.6-.2-9.9-.4,10.9-2.5,21.9-4.5,32.6-7.5,26.3-7.4,49.3-21,69.4-39.4,21.5-19.6,37.4-43,47.4-70.3,3.5-9.6,5.5-19.7,8.4-29.6.6-1.6,1.8-3.1,2.8-4.7Z"/>
  <path class="cls-13" d="M741.1,359.2c-.4,3.9-1.1,7.9-1.1,11.8,0,43.7,0,87.3,0,131,0,3.6-.4,7.3-.5,10.9-.8-.9-2.3-1.8-2.4-2.8-6.2-40.2-24.9-73.9-54.1-101.5-20.9-19.8-45.3-34.4-73.6-41.7-10.2-2.6-20.4-4.9-30.7-7.3,4-.1,7.9-.4,11.9-.4,49.4-.1,98.9-.1,148.3-.2.9.1,1.6.1,2.3.2h0Z"/>
  <path class="cls-1" d="M1983.5,359c-31.6.2-63.2.4-94.9.5-21.3,0-42.6-.3-63.9-.4,0-53.4,0-106.8,0-160.1,1.9,8.7,3.2,17.7,5.7,26.2,22.1,73.4,70.8,117.5,146.2,132.1,2.3.4,4.6,1.1,6.8,1.7h0Z"/>
  <path class="cls-4" d="M1824.3,412.8c-.6-2.8-1.2-5.7-1.8-8.5.6-6,1.2-12.1,1.9-18.1,0,8.8,0,17.7,0,26.6Z"/>
</svg>