<?xml version="1.0" encoding="UTF-8"?>
<svg width="942px" height="262px" viewBox="0 0 942 262" version="1.1" xmlns="http://www.w3.org/2000/svg" xmlns:xlink="http://www.w3.org/1999/xlink">
    <title>Artboard</title>
    <g id="Artboard" stroke="none" stroke-width="1" fill="none" fill-rule="evenodd">
        <g id="Group" transform="translate(-0.000000, 0.000000)" fill-rule="nonzero">
            <path d="M162.31,99.18 C168.955964,105.828323 173.321967,114.413279 174.78,123.7 L193.88,104.6 L241.69,56.79 L204.69,19.79 L156.89,67.62 L156.89,0 L104.59,0 L104.59,94.63 C122.337053,81.7676316 146.797472,83.6958178 162.31,99.18 Z" id="Path" fill="#5933F5"></path>
            <path d="M174.78,137.8 C172.360759,153.110986 162.153494,166.062206 147.831811,171.992501 C133.510127,177.922796 117.135055,175.97874 104.6,166.86 L104.6,261.49 L156.89,261.49 L156.89,193.88 L204.71,241.69 L241.71,204.69 L193.89,156.87 L174.78,137.8 Z" id="Path" fill="#5933F5"></path>
            <path d="M99.18,162.31 C81.7473246,144.877052 81.7473246,116.612948 99.18,99.18 C100.862008,97.5246699 102.670852,96.0033685 104.59,94.63 L104.59,67.63 L56.79,19.8 L19.79,56.8 L67.62,104.6 L-4.97379915e-14,104.6 L-4.97379915e-14,156.89 L67.62,156.89 L19.8,204.71 L56.8,241.71 L104.61,193.9 L104.61,166.9 C102.680709,165.516975 100.864938,163.982097 99.18,162.31 Z" id="Path" fill="#D2D3D4"></path>
            <path d="M174.78,137.8 C171.722811,156.878821 156.73301,171.822053 137.644768,174.819862 C118.556527,177.817671 99.7076757,168.1888 90.9492566,150.96562 C82.1908376,133.742441 85.5132137,112.838945 99.18,99.18 C100.862008,97.5246699 102.670852,96.0033685 104.59,94.63 C117.126745,85.5060083 133.506919,83.5601957 147.832297,89.4932166 C162.157674,95.4262374 172.36546,108.383761 174.78,123.7 L193.88,104.6 L241.69,56.79 L204.69,19.79 L156.89,67.62 L156.89,0 L104.59,0 L104.59,67.62 L56.79,19.8 L19.79,56.8 L67.62,104.6 L1.42108547e-14,104.6 L1.42108547e-14,156.89 L67.62,156.89 L19.8,204.71 L56.8,241.71 L104.61,193.9 L104.61,261.51 L156.9,261.51 L156.9,193.88 L204.72,241.69 L241.72,204.69 L193.9,156.87 L174.78,137.8 Z M164,74.67 L204.76,33.91 L227.63,56.79 L186.82,97.54 L179.07,105.3 C176.517143,100.444739 173.243316,96.0043373 169.36,92.13 C165.484032,88.254545 161.051991,84.978542 156.21,82.41 L164,74.67 Z M147,9.97 L147,78.57 C136.460491,75.3270131 125.189509,75.3270131 114.65,78.57 L114.65,10 L147,9.97 Z M34,56.79 L56.79,33.91 L94.62,71.75 L94.62,89.81 C93.74,90.58 92.91,91.35 92.13,92.13 C88.2483878,96.0030203 84.9686818,100.435511 82.4,105.28 L74.67,97.54 L34,56.79 Z M10,146.92 L10,114.57 L78.56,114.57 C75.3170131,125.109509 75.3170131,136.380491 78.56,146.92 L10,146.92 Z M94.65,189.74 L56.79,227.58 L33.91,204.71 L74.67,164 L82.4,156.26 C84.9662101,161.100459 88.2425094,165.52953 92.12,169.4 C92.91,170.19 93.74,170.96 94.62,171.73 L94.65,189.74 Z M146.95,193.88 L146.95,251.52 L114.57,251.52 L114.57,182.88 C125.109509,186.122987 136.380491,186.122987 146.92,182.88 L146.95,193.88 Z M204.74,227.58 L164,186.82 L156.26,179.08 C166.005335,173.918199 173.970984,165.942096 179.12,156.19 L186.87,163.94 L227.63,204.71 L204.74,227.58 Z" id="Shape" fill="#000000"></path>
            <path d="M312.443,112.688 C317.144333,112.688 321.43,111.8925 325.3,110.3015 C329.17,108.7105 332.481,106.496 335.233,103.658 C337.985,100.82 340.120667,97.4588333 341.64,93.5745 C343.159333,89.6901667 343.919,85.469 343.919,80.911 C343.919,76.353 343.159333,72.1318333 341.64,68.2475 C340.120667,64.3631667 337.985,61.0091667 335.233,58.1855 C332.481,55.3618333 329.17,53.1473333 325.3,51.542 C321.43,49.9366667 317.144333,49.134 312.443,49.134 C307.741667,49.134 303.448833,49.9295 299.5645,51.5205 C295.680167,53.1115 292.354833,55.326 289.5885,58.164 C286.822167,61.002 284.679333,64.3631667 283.16,68.2475 C281.640667,72.1318333 280.881,76.353 280.881,80.911 C280.881,85.469 281.640667,89.6901667 283.16,93.5745 C284.679333,97.4588333 286.822167,100.82 289.5885,103.658 C292.354833,106.496 295.680167,108.7105 299.5645,110.3015 C303.448833,111.8925 307.741667,112.688 312.443,112.688 Z M312.443,102.798 C309.404333,102.798 306.666667,102.296333 304.23,101.293 C301.793333,100.289667 299.722167,98.8491667 298.0165,96.9715 C296.310833,95.0938333 294.999333,92.8005 294.082,90.0915 C293.164667,87.3825 292.706,84.3223333 292.706,80.911 C292.706,77.4996667 293.164667,74.4395 294.082,71.7305 C294.999333,69.0215 296.310833,66.721 298.0165,64.829 C299.722167,62.937 301.793333,61.4893333 304.23,60.486 C306.666667,59.4826667 309.404333,58.981 312.443,58.981 C315.481667,58.981 318.212167,59.4826667 320.6345,60.486 C323.056833,61.4893333 325.113667,62.937 326.805,64.829 C328.496333,66.721 329.7935,69.0215 330.6965,71.7305 C331.5995,74.4395 332.051,77.4996667 332.051,80.911 C332.051,84.3223333 331.5995,87.3825 330.6965,90.0915 C329.7935,92.8005 328.496333,95.0938333 326.805,96.9715 C325.113667,98.8491667 323.056833,100.289667 320.6345,101.293 C318.212167,102.296333 315.481667,102.798 312.443,102.798 Z M363.054,126.405 L363.054,108.345 C364.43,109.692333 365.985167,110.745833 367.7195,111.5055 C369.453833,112.265167 371.568,112.645 374.062,112.645 C376.957333,112.645 379.573167,112.0645 381.9095,110.9035 C384.245833,109.7425 386.238167,108.13 387.8865,106.066 C389.534833,104.002 390.803333,101.565333 391.692,98.756 C392.580667,95.9466667 393.025,92.8936667 393.025,89.597 C393.025,85.985 392.630833,82.7815 391.8425,79.9865 C391.054167,77.1915 389.936167,74.8408333 388.4885,72.9345 C387.040833,71.0281667 385.320833,69.5733333 383.3285,68.57 C381.336167,67.5666667 379.136,67.065 376.728,67.065 C373.632,67.065 370.930167,67.6956667 368.6225,68.957 C366.314833,70.2183333 364.272333,71.8666667 362.495,73.902 L362.495,73.902 L361.635,69.817 C361.491667,69.1576667 361.176333,68.6703333 360.689,68.355 C360.201667,68.0396667 359.614,67.882 358.926,67.882 L358.926,67.882 L352.433,67.882 L352.433,126.405 L363.054,126.405 Z M371.568,104.561 C369.934,104.561 368.4075,104.267167 366.9885,103.6795 C365.5695,103.091833 364.258,102.052667 363.054,100.562 L363.054,100.562 L363.054,80.782 C364.401333,79.0906667 365.856167,77.7791667 367.4185,76.8475 C368.980833,75.9158333 370.865667,75.45 373.073,75.45 C374.477667,75.45 375.731833,75.708 376.8355,76.224 C377.939167,76.74 378.878,77.557 379.652,78.675 C380.426,79.793 381.020833,81.2478333 381.4365,83.0395 C381.852167,84.8311667 382.06,87.017 382.06,89.597 C382.06,92.1483333 381.816333,94.3628333 381.329,96.2405 C380.841667,98.1181667 380.1465,99.6733333 379.2435,100.906 C378.3405,102.138667 377.236833,103.056 375.9325,103.658 C374.628167,104.26 373.173333,104.561 371.568,104.561 Z M419.814,112.645 C421.362,112.645 422.960167,112.530333 424.6085,112.301 C426.256833,112.071667 427.8765,111.6775 429.4675,111.1185 C431.0585,110.5595 432.585,109.814167 434.047,108.8825 C435.509,107.950833 436.827667,106.797 438.003,105.421 L438.003,105.421 L434.907,101.551 C434.677667,101.235667 434.405333,100.992 434.09,100.82 C433.774667,100.648 433.402,100.562 432.972,100.562 C432.312667,100.562 431.631833,100.762667 430.9295,101.164 C430.227167,101.565333 429.410167,102.009667 428.4785,102.497 C427.546833,102.984333 426.4575,103.428667 425.2105,103.83 C423.9635,104.231333 422.48,104.432 420.76,104.432 C417.262667,104.432 414.453333,103.371333 412.332,101.25 C410.210667,99.1286667 408.992333,95.8033333 408.677,91.274 L408.677,91.274 L435.939,91.274 C436.426333,91.274 436.827667,91.2095 437.143,91.0805 C437.458333,90.9515 437.709167,90.7365 437.8955,90.4355 C438.081833,90.1345 438.210833,89.7188333 438.2825,89.1885 C438.354167,88.6581667 438.39,87.9916667 438.39,87.189 C438.39,84.007 437.917,81.1761667 436.971,78.6965 C436.025,76.2168333 434.706333,74.1241667 433.015,72.4185 C431.323667,70.7128333 429.309833,69.4156667 426.9735,68.527 C424.637167,67.6383333 422.078667,67.194 419.298,67.194 C416.001333,67.194 413.0415,67.7673333 410.4185,68.914 C407.7955,70.0606667 405.573833,71.6158333 403.7535,73.5795 C401.933167,75.5431667 400.535667,77.8508333 399.561,80.5025 C398.586333,83.1541667 398.099,85.985 398.099,88.995 C398.099,92.865 398.658,96.2691667 399.776,99.2075 C400.894,102.145833 402.427667,104.611167 404.377,106.6035 C406.326333,108.595833 408.619667,110.100833 411.257,111.1185 C413.894333,112.136167 416.746667,112.645 419.814,112.645 Z M428.844,84.867 L408.892,84.867 C409.379333,81.6563333 410.497333,79.1766667 412.246,77.428 C413.994667,75.6793333 416.417,74.805 419.513,74.805 C421.089667,74.805 422.465667,75.0701667 423.641,75.6005 C424.816333,76.1308333 425.791,76.8546667 426.565,77.772 C427.339,78.6893333 427.912333,79.7571667 428.285,80.9755 C428.657667,82.1938333 428.844,83.491 428.844,84.867 L428.844,84.867 Z M457.654,112 L457.654,80.094 C459.087333,78.6606667 460.606667,77.5283333 462.212,76.697 C463.817333,75.8656667 465.537333,75.45 467.372,75.45 C469.866,75.45 471.7365,76.1881667 472.9835,77.6645 C474.2305,79.1408333 474.854,81.2263333 474.854,83.921 L474.854,83.921 L474.854,112 L485.475,112 L485.475,83.921 C485.475,81.4556667 485.1525,79.1981667 484.5075,77.1485 C483.8625,75.0988333 482.9165,73.3358333 481.6695,71.8595 C480.4225,70.3831667 478.867333,69.2365 477.004,68.4195 C475.140667,67.6025 473.005,67.194 470.597,67.194 C469.106333,67.194 467.730333,67.3373333 466.469,67.624 C465.207667,67.9106667 464.025167,68.3263333 462.9215,68.871 C461.817833,69.4156667 460.7715,70.0606667 459.7825,70.806 C458.7935,71.5513333 457.854667,72.3826667 456.966,73.3 L456.966,73.3 L456.235,69.817 C455.805,68.527 454.902,67.882 453.526,67.882 L453.526,67.882 L447.033,67.882 L447.033,112 L457.654,112 Z M525.078,112 L525.078,84.652 L528.733,84.652 C530.051667,84.652 531.069333,84.8168333 531.786,85.1465 C532.502667,85.4761667 533.147667,86.0136667 533.721,86.759 L533.721,86.759 L551.308,109.721 C551.766667,110.466333 552.332833,111.0325 553.0065,111.4195 C553.680167,111.8065 554.705,112 556.081,112 L556.081,112 L566.315,112 L544.729,82.889 C544.012333,81.9143333 543.274167,81.1116667 542.5145,80.481 C541.754833,79.8503333 540.902,79.363 539.956,79.019 C540.644,78.675 541.289,78.2306667 541.891,77.686 C542.493,77.1413333 543.123667,76.4676667 543.783,75.665 L543.783,75.665 L564.724,49.822 L554.748,49.822 C553.544,49.822 552.547833,50.0011667 551.7595,50.3595 C550.971167,50.7178333 550.218667,51.3556667 549.502,52.273 L549.502,52.273 L532.345,73.988 C531.829,74.6473333 531.212667,75.1275 530.496,75.4285 C529.779333,75.7295 528.876333,75.88 527.787,75.88 L527.787,75.88 L525.078,75.88 L525.078,49.779 L513.511,49.779 L513.511,112 L525.078,112 Z M583.171,112 L583.171,80.094 C584.604333,78.6606667 586.123667,77.5283333 587.729,76.697 C589.334333,75.8656667 591.054333,75.45 592.889,75.45 C595.383,75.45 597.2535,76.1881667 598.5005,77.6645 C599.7475,79.1408333 600.371,81.2263333 600.371,83.921 L600.371,83.921 L600.371,112 L610.992,112 L610.992,83.921 C610.992,81.4556667 610.6695,79.1981667 610.0245,77.1485 C609.3795,75.0988333 608.4335,73.3358333 607.1865,71.8595 C605.9395,70.3831667 604.384333,69.2365 602.521,68.4195 C600.657667,67.6025 598.522,67.194 596.114,67.194 C594.623333,67.194 593.247333,67.3373333 591.986,67.624 C590.724667,67.9106667 589.542167,68.3263333 588.4385,68.871 C587.334833,69.4156667 586.2885,70.0606667 585.2995,70.806 C584.3105,71.5513333 583.371667,72.3826667 582.483,73.3 L582.483,73.3 L581.752,69.817 C581.322,68.527 580.419,67.882 579.043,67.882 L579.043,67.882 L572.55,67.882 L572.55,112 L583.171,112 Z M640.275,112.645 C643.571667,112.645 646.560167,112.114667 649.2405,111.054 C651.920833,109.993333 654.207,108.474 656.099,106.496 C657.991,104.518 659.453,102.124333 660.485,99.315 C661.517,96.5056667 662.033,93.3523333 662.033,89.855 C662.033,86.3863333 661.517,83.2473333 660.485,80.438 C659.453,77.6286667 657.991,75.2493333 656.099,73.3 C654.207,71.3506667 651.920833,69.8456667 649.2405,68.785 C646.560167,67.7243333 643.571667,67.194 640.275,67.194 C636.978333,67.194 633.982667,67.7243333 631.288,68.785 C628.593333,69.8456667 626.292833,71.3506667 624.3865,73.3 C622.480167,75.2493333 621.003833,77.6286667 619.9575,80.438 C618.911167,83.2473333 618.388,86.3863333 618.388,89.855 C618.388,93.3523333 618.911167,96.5056667 619.9575,99.315 C621.003833,102.124333 622.480167,104.518 624.3865,106.496 C626.292833,108.474 628.593333,109.993333 631.288,111.054 C633.982667,112.114667 636.978333,112.645 640.275,112.645 Z M640.275,104.475 C636.548333,104.475 633.796333,103.235167 632.019,100.7555 C630.241667,98.2758333 629.353,94.671 629.353,89.941 C629.353,85.211 630.241667,81.5918333 632.019,79.0835 C633.796333,76.5751667 636.548333,75.321 640.275,75.321 C643.944333,75.321 646.6605,76.568 648.4235,79.062 C650.1865,81.556 651.068,85.1823333 651.068,89.941 C651.068,94.6996667 650.1865,98.3116667 648.4235,100.777 C646.6605,103.242333 643.944333,104.475 640.275,104.475 Z M687.059,112 C688.205667,112 688.979667,111.369333 689.381,110.108 L689.381,110.108 L697.422,84.695 C697.68,83.835 697.909333,82.9821667 698.11,82.1365 C698.310667,81.2908333 698.497,80.438 698.669,79.578 C698.812333,80.4093333 698.9915,81.2478333 699.2065,82.0935 C699.4215,82.9391667 699.658,83.7776667 699.916,84.609 L699.916,84.609 L707.871,110.108 C708.272333,111.369333 708.931667,112 709.849,112 L709.849,112 L718.406,112 L732.381,67.882 L724.34,67.882 C723.623333,67.882 722.992667,68.0683333 722.448,68.441 C721.903333,68.8136667 721.559333,69.2866667 721.416,69.86 L721.416,69.86 L714.88,93.424 C714.507333,94.7426667 714.199167,96.0183333 713.9555,97.251 C713.711833,98.4836667 713.489667,99.7163333 713.289,100.949 C713.002333,99.7736667 712.7085,98.6055 712.4075,97.4445 C712.1065,96.2835 711.769667,95.0866667 711.397,93.854 L711.397,93.854 L704.173,69.774 C704.001,69.2006667 703.657,68.7276667 703.141,68.355 C702.625,67.9823333 701.98,67.796 701.206,67.796 L701.206,67.796 L696.519,67.796 C695.831,67.796 695.229,67.9823333 694.713,68.355 C694.197,68.7276667 693.853,69.2006667 693.681,69.774 L693.681,69.774 L686.371,93.424 C685.969667,94.714 685.589833,95.9753333 685.2315,97.208 C684.873167,98.4406667 684.536333,99.6733333 684.221,100.906 C684.020333,99.6733333 683.8125,98.4406667 683.5975,97.208 C683.3825,95.9753333 683.103,94.714 682.759,93.424 L682.759,93.424 L676.438,69.86 C676.294667,69.2866667 675.950667,68.8136667 675.406,68.441 C674.861333,68.0683333 674.187667,67.882 673.385,67.882 L673.385,67.882 L664.957,67.882 L678.932,112 L687.059,112 Z M749.667,112 L749.667,48.102 L739.046,48.102 L739.046,112 L749.667,112 Z M780.412,112.645 C781.96,112.645 783.558167,112.530333 785.2065,112.301 C786.854833,112.071667 788.4745,111.6775 790.0655,111.1185 C791.6565,110.5595 793.183,109.814167 794.645,108.8825 C796.107,107.950833 797.425667,106.797 798.601,105.421 L798.601,105.421 L795.505,101.551 C795.275667,101.235667 795.003333,100.992 794.688,100.82 C794.372667,100.648 794,100.562 793.57,100.562 C792.910667,100.562 792.229833,100.762667 791.5275,101.164 C790.825167,101.565333 790.008167,102.009667 789.0765,102.497 C788.144833,102.984333 787.0555,103.428667 785.8085,103.83 C784.5615,104.231333 783.078,104.432 781.358,104.432 C777.860667,104.432 775.051333,103.371333 772.93,101.25 C770.808667,99.1286667 769.590333,95.8033333 769.275,91.274 L769.275,91.274 L796.537,91.274 C797.024333,91.274 797.425667,91.2095 797.741,91.0805 C798.056333,90.9515 798.307167,90.7365 798.4935,90.4355 C798.679833,90.1345 798.808833,89.7188333 798.8805,89.1885 C798.952167,88.6581667 798.988,87.9916667 798.988,87.189 C798.988,84.007 798.515,81.1761667 797.569,78.6965 C796.623,76.2168333 795.304333,74.1241667 793.613,72.4185 C791.921667,70.7128333 789.907833,69.4156667 787.5715,68.527 C785.235167,67.6383333 782.676667,67.194 779.896,67.194 C776.599333,67.194 773.6395,67.7673333 771.0165,68.914 C768.3935,70.0606667 766.171833,71.6158333 764.3515,73.5795 C762.531167,75.5431667 761.133667,77.8508333 760.159,80.5025 C759.184333,83.1541667 758.697,85.985 758.697,88.995 C758.697,92.865 759.256,96.2691667 760.374,99.2075 C761.492,102.145833 763.025667,104.611167 764.975,106.6035 C766.924333,108.595833 769.217667,110.100833 771.855,111.1185 C774.492333,112.136167 777.344667,112.645 780.412,112.645 Z M789.442,84.867 L769.49,84.867 C769.977333,81.6563333 771.095333,79.1766667 772.844,77.428 C774.592667,75.6793333 777.015,74.805 780.111,74.805 C781.687667,74.805 783.063667,75.0701667 784.239,75.6005 C785.414333,76.1308333 786.389,76.8546667 787.163,77.772 C787.937,78.6893333 788.510333,79.7571667 788.883,80.9755 C789.255667,82.1938333 789.442,83.491 789.442,84.867 L789.442,84.867 Z M820.918,112.645 C822.466,112.645 823.9065,112.480167 825.2395,112.1505 C826.5725,111.820833 827.8195,111.355 828.9805,110.753 C830.1415,110.151 831.223667,109.434333 832.227,108.603 C833.230333,107.771667 834.190667,106.84 835.108,105.808 L835.108,105.808 L835.968,110.065 C836.398,111.355 837.301,112 838.677,112 L838.677,112 L845.17,112 L845.17,48.102 L834.549,48.102 L834.549,71.408 C833.173,70.0893333 831.610667,69.0358333 829.862,68.2475 C828.113333,67.4591667 826.006333,67.065 823.541,67.065 C820.645667,67.065 818.037,67.6455 815.715,68.8065 C813.393,69.9675 811.400667,71.58 809.738,73.644 C808.075333,75.708 806.799667,78.1446667 805.911,80.954 C805.022333,83.7633333 804.578,86.802 804.578,90.07 C804.578,93.682 804.972167,96.8926667 805.7605,99.702 C806.548833,102.511333 807.666833,104.869167 809.1145,106.7755 C810.562167,108.681833 812.289333,110.136667 814.296,111.14 C816.302667,112.143333 818.51,112.645 820.918,112.645 Z M824.53,104.217 C823.154,104.217 821.907,103.966167 820.789,103.4645 C819.671,102.962833 818.725,102.145833 817.951,101.0135 C817.177,99.8811667 816.582167,98.4191667 816.1665,96.6275 C815.750833,94.8358333 815.543,92.65 815.543,90.07 C815.543,87.5186667 815.786667,85.3041667 816.274,83.4265 C816.761333,81.5488333 817.4565,80.0008333 818.3595,78.7825 C819.2625,77.5641667 820.366167,76.654 821.6705,76.052 C822.974833,75.45 824.429667,75.149 826.035,75.149 C827.669,75.149 829.1955,75.45 830.6145,76.052 C832.0335,76.654 833.345,77.686 834.549,79.148 L834.549,79.148 L834.549,98.928 C833.173,100.619333 831.711,101.923667 830.163,102.841 C828.615,103.758333 826.737333,104.217 824.53,104.217 Z M872.045,127.523 C875.427667,127.523 878.437667,127.085833 881.075,126.2115 C883.712333,125.337167 885.941167,124.183333 887.7615,122.75 C889.581833,121.316667 890.972167,119.682667 891.9325,117.848 C892.892833,116.013333 893.373,114.121333 893.373,112.172 C893.373,110.079333 892.9645,108.3665 892.1475,107.0335 C891.3305,105.7005 890.2555,104.647 888.9225,103.873 C887.5895,103.099 886.077333,102.532833 884.386,102.1745 C882.694667,101.816167 880.960333,101.565333 879.183,101.422 C877.405667,101.278667 875.671333,101.1855 873.98,101.1425 C872.288667,101.0995 870.7765,100.992 869.4435,100.82 C868.1105,100.648 867.0355,100.354167 866.2185,99.9385 C865.4015,99.5228333 864.993,98.8706667 864.993,97.982 C864.993,96.95 865.681,96.0183333 867.057,95.187 C868.633667,95.5023333 870.253333,95.66 871.916,95.66 C874.381333,95.66 876.6675,95.3231667 878.7745,94.6495 C880.8815,93.9758333 882.701833,93.0226667 884.2355,91.79 C885.769167,90.5573333 886.973167,89.0595 887.8475,87.2965 C888.721833,85.5335 889.159,83.5626667 889.159,81.384 C889.159,80.4666667 889.080167,79.5923333 888.9225,78.761 C888.764833,77.9296667 888.542667,77.1413333 888.256,76.396 L888.256,76.396 L892.212,75.665 C893.043333,75.5216667 893.631,75.2636667 893.975,74.891 C894.319,74.5183333 894.491,74.0023333 894.491,73.343 L894.491,73.343 L894.491,69.387 L881.806,69.387 C880.43,68.6416667 878.910667,68.0755 877.248,67.6885 C875.585333,67.3015 873.808,67.108 871.916,67.108 C869.393333,67.108 867.064167,67.4376667 864.9285,68.097 C862.792833,68.7563333 860.943833,69.7095 859.3815,70.9565 C857.819167,72.2035 856.600833,73.7085 855.7265,75.4715 C854.852167,77.2345 854.415,79.2053333 854.415,81.384 C854.415,84.0786667 855.052833,86.4293333 856.3285,88.436 C857.604167,90.4426667 859.36,92.048 861.596,93.252 C860.621333,93.7393333 859.775667,94.2911667 859.059,94.9075 C858.342333,95.5238333 857.7475,96.176 857.2745,96.864 C856.8015,97.552 856.450333,98.2471667 856.221,98.9495 C855.991667,99.6518333 855.877,100.332667 855.877,100.992 C855.877,102.597333 856.206667,103.901667 856.866,104.905 C857.525333,105.908333 858.399667,106.711 859.489,107.313 C857.253,108.144333 855.504333,109.262333 854.243,110.667 C852.981667,112.071667 852.351,113.806 852.351,115.87 C852.351,117.389333 852.752333,118.851333 853.555,120.256 C854.357667,121.660667 855.568833,122.9005 857.1885,123.9755 C858.808167,125.0505 860.850667,125.9105 863.316,126.5555 C865.781333,127.2005 868.691,127.523 872.045,127.523 Z M871.916,88.866 C870.626,88.866 869.4865,88.6868333 868.4975,88.3285 C867.5085,87.9701667 866.6915,87.4685 866.0465,86.8235 C865.4015,86.1785 864.914167,85.4116667 864.5845,84.523 C864.254833,83.6343333 864.09,82.674 864.09,81.642 C864.09,79.4633333 864.742167,77.7361667 866.0465,76.4605 C867.350833,75.1848333 869.307333,74.547 871.916,74.547 C874.524667,74.547 876.481167,75.1848333 877.7855,76.4605 C879.089833,77.7361667 879.742,79.4633333 879.742,81.642 C879.742,82.7026667 879.577167,83.6773333 879.2475,84.566 C878.917833,85.4546667 878.4305,86.2143333 877.7855,86.845 C877.1405,87.4756667 876.330667,87.9701667 875.356,88.3285 C874.381333,88.6868333 873.234667,88.866 871.916,88.866 Z M872.217,119.955 C870.267667,119.955 868.619333,119.818833 867.272,119.5465 C865.924667,119.274167 864.828167,118.894333 863.9825,118.407 C863.136833,117.919667 862.5205,117.339167 862.1335,116.6655 C861.7465,115.991833 861.553,115.268 861.553,114.494 C861.553,113.318667 861.9185,112.2795 862.6495,111.3765 C863.3805,110.4735 864.348,109.692333 865.552,109.033 C866.870667,109.205 868.2395,109.326833 869.6585,109.3985 C871.0775,109.470167 872.4535,109.541833 873.7865,109.6135 C875.1195,109.685167 876.380833,109.792667 877.5705,109.936 C878.760167,110.079333 879.799333,110.3015 880.688,110.6025 C881.576667,110.9035 882.279,111.326333 882.795,111.871 C883.311,112.415667 883.569,113.118 883.569,113.978 C883.569,114.838 883.354,115.6335 882.924,116.3645 C882.494,117.0955 881.813167,117.726167 880.8815,118.2565 C879.949833,118.786833 878.767333,119.2025 877.334,119.5035 C875.900667,119.8045 874.195,119.955 872.217,119.955 Z M919.904,112.645 C921.452,112.645 923.050167,112.530333 924.6985,112.301 C926.346833,112.071667 927.9665,111.6775 929.5575,111.1185 C931.1485,110.5595 932.675,109.814167 934.137,108.8825 C935.599,107.950833 936.917667,106.797 938.093,105.421 L938.093,105.421 L934.997,101.551 C934.767667,101.235667 934.495333,100.992 934.18,100.82 C933.864667,100.648 933.492,100.562 933.062,100.562 C932.402667,100.562 931.721833,100.762667 931.0195,101.164 C930.317167,101.565333 929.500167,102.009667 928.5685,102.497 C927.636833,102.984333 926.5475,103.428667 925.3005,103.83 C924.0535,104.231333 922.57,104.432 920.85,104.432 C917.352667,104.432 914.543333,103.371333 912.422,101.25 C910.300667,99.1286667 909.082333,95.8033333 908.767,91.274 L908.767,91.274 L936.029,91.274 C936.516333,91.274 936.917667,91.2095 937.233,91.0805 C937.548333,90.9515 937.799167,90.7365 937.9855,90.4355 C938.171833,90.1345 938.300833,89.7188333 938.3725,89.1885 C938.444167,88.6581667 938.48,87.9916667 938.48,87.189 C938.48,84.007 938.007,81.1761667 937.061,78.6965 C936.115,76.2168333 934.796333,74.1241667 933.105,72.4185 C931.413667,70.7128333 929.399833,69.4156667 927.0635,68.527 C924.727167,67.6383333 922.168667,67.194 919.388,67.194 C916.091333,67.194 913.1315,67.7673333 910.5085,68.914 C907.8855,70.0606667 905.663833,71.6158333 903.8435,73.5795 C902.023167,75.5431667 900.625667,77.8508333 899.651,80.5025 C898.676333,83.1541667 898.189,85.985 898.189,88.995 C898.189,92.865 898.748,96.2691667 899.866,99.2075 C900.984,102.145833 902.517667,104.611167 904.467,106.6035 C906.416333,108.595833 908.709667,110.100833 911.347,111.1185 C913.984333,112.136167 916.836667,112.645 919.904,112.645 Z M928.934,84.867 L908.982,84.867 C909.469333,81.6563333 910.587333,79.1766667 912.336,77.428 C914.084667,75.6793333 916.507,74.805 919.603,74.805 C921.179667,74.805 922.555667,75.0701667 923.731,75.6005 C924.906333,76.1308333 925.881,76.8546667 926.655,77.772 C927.429,78.6893333 928.002333,79.7571667 928.375,80.9755 C928.747667,82.1938333 928.934,83.491 928.934,84.867 L928.934,84.867 Z M307.283,206 C310.723,206 313.783167,205.577167 316.4635,204.7315 C319.143833,203.885833 321.4085,202.689 323.2575,201.141 C325.1065,199.593 326.511167,197.744 327.4715,195.594 C328.431833,193.444 328.912,191.064667 328.912,188.456 C328.912,184.614667 327.765333,181.518667 325.472,179.168 C323.178667,176.817333 319.781667,175.197667 315.281,174.309 C317.230333,173.707 318.928833,172.933 320.3765,171.987 C321.824167,171.041 323.028167,169.966 323.9885,168.762 C324.948833,167.558 325.6655,166.253667 326.1385,164.849 C326.6115,163.444333 326.848,161.982333 326.848,160.463 C326.848,157.969 326.425167,155.725833 325.5795,153.7335 C324.733833,151.741167 323.4295,150.057 321.6665,148.681 C319.9035,147.305 317.653167,146.244333 314.9155,145.499 C312.177833,144.753667 308.917,144.381 305.133,144.381 L305.133,144.381 L285.482,144.381 L285.482,206 L307.283,206 Z M304.832,171.987 L293.824,171.987 L293.824,150.96 L305.133,150.96 C309.719667,150.96 313.102333,151.805667 315.281,153.497 C317.459667,155.188333 318.549,157.84 318.549,161.452 C318.549,163 318.276667,164.426167 317.732,165.7305 C317.187333,167.034833 316.348833,168.145667 315.2165,169.063 C314.084167,169.980333 312.658,170.697 310.938,171.213 C309.218,171.729 307.182667,171.987 304.832,171.987 L304.832,171.987 Z M307.154,199.378 L293.824,199.378 L293.824,177.921 L307.111,177.921 C311.669,177.921 315.073167,178.8455 317.3235,180.6945 C319.573833,182.5435 320.699,185.059 320.699,188.241 C320.699,189.875 320.441,191.372833 319.925,192.7345 C319.409,194.096167 318.599167,195.2715 317.4955,196.2605 C316.391833,197.2495 314.987167,198.016333 313.2815,198.561 C311.575833,199.105667 309.533333,199.378 307.154,199.378 L307.154,199.378 Z M357.593,206.602 C359.169667,206.602 360.760667,206.465833 362.366,206.1935 C363.971333,205.921167 365.5265,205.512667 367.0315,204.968 C368.5365,204.423333 369.948333,203.728167 371.267,202.8825 C372.585667,202.036833 373.718,201.040667 374.664,199.894 L374.664,199.894 L372.514,197.099 C372.17,196.611667 371.682667,196.368 371.052,196.368 C370.564667,196.368 369.984167,196.590167 369.3105,197.0345 C368.636833,197.478833 367.798333,197.959 366.795,198.475 C365.791667,198.991 364.594833,199.471167 363.2045,199.9155 C361.814167,200.359833 360.158667,200.582 358.238,200.582 C356.174,200.582 354.310667,200.245167 352.648,199.5715 C350.985333,198.897833 349.552,197.880167 348.348,196.5185 C347.144,195.156833 346.198,193.458333 345.51,191.423 C344.822,189.387667 344.449333,186.994 344.392,184.242 L344.392,184.242 L373.374,184.242 C374.090667,184.242 374.578,184.041333 374.836,183.64 C375.094,183.238667 375.223,182.436 375.223,181.232 C375.223,178.136 374.7715,175.376833 373.8685,172.9545 C372.9655,170.532167 371.711333,168.496833 370.106,166.8485 C368.500667,165.200167 366.594333,163.938833 364.387,163.0645 C362.179667,162.190167 359.771667,161.753 357.163,161.753 C354.009667,161.753 351.171667,162.304833 348.649,163.4085 C346.126333,164.512167 343.990667,166.0315 342.242,167.9665 C340.493333,169.9015 339.153167,172.187667 338.2215,174.825 C337.289833,177.462333 336.824,180.300333 336.824,183.339 C336.824,187.094333 337.34,190.419667 338.372,193.315 C339.404,196.210333 340.8445,198.639833 342.6935,200.6035 C344.5425,202.567167 346.7355,204.057833 349.2725,205.0755 C351.8095,206.093167 354.583,206.602 357.593,206.602 Z M368.343,179.469 L344.65,179.469 C345.166,175.685 346.484667,172.725167 348.606,170.5895 C350.727333,168.453833 353.637,167.386 357.335,167.386 C359.083667,167.386 360.638833,167.679833 362.0005,168.2675 C363.362167,168.855167 364.516,169.6865 365.462,170.7615 C366.408,171.8365 367.124667,173.112167 367.612,174.5885 C368.099333,176.064833 368.343,177.691667 368.343,179.469 L368.343,179.469 Z M393.498,206 L393.498,142.661 L385.844,142.661 L385.844,206 L393.498,206 Z M421.921,221.695 C425.103,221.695 427.955333,221.2865 430.478,220.4695 C433.000667,219.6525 435.136333,218.563167 436.885,217.2015 C438.633667,215.839833 439.973833,214.284667 440.9055,212.536 C441.837167,210.787333 442.303,208.981333 442.303,207.118 C442.303,205.111333 441.887333,203.477333 441.056,202.216 C440.224667,200.954667 439.121,199.965667 437.745,199.249 C436.369,198.532333 434.806667,198.016333 433.058,197.701 C431.309333,197.385667 429.524833,197.1635 427.7045,197.0345 C425.884167,196.9055 424.099667,196.812333 422.351,196.755 C420.602333,196.697667 419.04,196.554333 417.664,196.325 C416.288,196.095667 415.184333,195.715833 414.353,195.1855 C413.521667,194.655167 413.106,193.874 413.106,192.842 C413.106,192.211333 413.3425,191.566333 413.8155,190.907 C414.2885,190.247667 414.983667,189.631333 415.901,189.058 C417.707,189.545333 419.627667,189.789 421.663,189.789 C424.042333,189.789 426.228167,189.459333 428.2205,188.8 C430.212833,188.140667 431.932833,187.194667 433.3805,185.962 C434.828167,184.729333 435.9605,183.245833 436.7775,181.5115 C437.5945,179.777167 438.003,177.849333 438.003,175.728 C438.003,173.434667 437.515667,171.356333 436.541,169.493 L436.541,169.493 L441.486,168.805 C442.69,168.547 443.292,167.945 443.292,166.999 L443.292,166.999 L443.292,164.161 L431.467,164.161 C430.119667,163.358333 428.621833,162.749167 426.9735,162.3335 C425.325167,161.917833 423.555,161.71 421.663,161.71 C419.255,161.71 417.0405,162.039667 415.0195,162.699 C412.9985,163.358333 411.257,164.297167 409.795,165.5155 C408.333,166.733833 407.1935,168.210167 406.3765,169.9445 C405.5595,171.678833 405.151,173.606667 405.151,175.728 C405.151,178.394 405.760167,180.723167 406.9785,182.7155 C408.196833,184.707833 409.881,186.306 412.031,187.51 C411.113667,187.968667 410.311,188.499 409.623,189.101 C408.935,189.703 408.3545,190.333667 407.8815,190.993 C407.4085,191.652333 407.057333,192.318833 406.828,192.9925 C406.598667,193.666167 406.484,194.318333 406.484,194.949 C406.484,196.554333 406.8495,197.837167 407.5805,198.7975 C408.3115,199.757833 409.293333,200.524667 410.526,201.098 C408.146667,201.986667 406.276167,203.1835 404.9145,204.6885 C403.552833,206.1935 402.872,208.021 402.872,210.171 C402.872,211.690333 403.266167,213.145167 404.0545,214.5355 C404.842833,215.925833 406.025333,217.151333 407.602,218.212 C409.178667,219.272667 411.163833,220.118333 413.5575,220.749 C415.951167,221.379667 418.739,221.695 421.921,221.695 Z M421.663,184.715 C420.143667,184.715 418.796333,184.5 417.621,184.07 C416.445667,183.64 415.456667,183.038 414.654,182.264 C413.851333,181.49 413.242167,180.5655 412.8265,179.4905 C412.410833,178.4155 412.203,177.233 412.203,175.943 C412.203,173.277 413.012833,171.155667 414.6325,169.579 C416.252167,168.002333 418.595667,167.214 421.663,167.214 C424.759,167.214 427.116833,168.002333 428.7365,169.579 C430.356167,171.155667 431.166,173.277 431.166,175.943 C431.166,177.233 430.965333,178.4155 430.564,179.4905 C430.162667,180.5655 429.560667,181.49 428.758,182.264 C427.955333,183.038 426.959167,183.64 425.7695,184.07 C424.579833,184.5 423.211,184.715 421.663,184.715 Z M422.05,216.105 C419.928667,216.105 418.086833,215.925833 416.5245,215.5675 C414.962167,215.209167 413.665,214.721833 412.633,214.1055 C411.601,213.489167 410.834167,212.758167 410.3325,211.9125 C409.830833,211.066833 409.58,210.156667 409.58,209.182 C409.58,207.634 410.088833,206.301 411.1065,205.183 C412.124167,204.065 413.45,203.119 415.084,202.345 C416.488667,202.574333 417.965,202.732 419.513,202.818 C421.061,202.904 422.580333,202.982833 424.071,203.0545 C425.561667,203.126167 426.980667,203.248 428.328,203.42 C429.675333,203.592 430.865,203.857167 431.897,204.2155 C432.929,204.573833 433.746,205.082667 434.348,205.742 C434.95,206.401333 435.251,207.275667 435.251,208.365 C435.251,209.511667 434.95,210.558 434.348,211.504 C433.746,212.45 432.878833,213.267 431.7465,213.955 C430.614167,214.643 429.231,215.173333 427.597,215.546 C425.963,215.918667 424.114,216.105 422.05,216.105 Z M455.676,154.185 C456.421333,154.185 457.123667,154.041667 457.783,153.755 C458.442333,153.468333 459.022833,153.074167 459.5245,152.5725 C460.026167,152.070833 460.4275,151.4975 460.7285,150.8525 C461.0295,150.2075 461.18,149.512333 461.18,148.767 C461.18,148.021667 461.0295,147.312167 460.7285,146.6385 C460.4275,145.964833 460.026167,145.377167 459.5245,144.8755 C459.022833,144.373833 458.442333,143.979667 457.783,143.693 C457.123667,143.406333 456.421333,143.263 455.676,143.263 C454.930667,143.263 454.2355,143.406333 453.5905,143.693 C452.9455,143.979667 452.372167,144.373833 451.8705,144.8755 C451.368833,145.377167 450.974667,145.964833 450.688,146.6385 C450.401333,147.312167 450.258,148.021667 450.258,148.767 C450.258,149.512333 450.401333,150.2075 450.688,150.8525 C450.974667,151.4975 451.368833,152.070833 451.8705,152.5725 C452.372167,153.074167 452.9455,153.468333 453.5905,153.755 C454.2355,154.041667 454.930667,154.185 455.676,154.185 Z M459.46,206 L459.46,162.441 L451.806,162.441 L451.806,206 L459.46,206 Z M486.507,206.688 C489.545667,206.688 492.240333,206.050167 494.591,204.7745 C496.941667,203.498833 499.063,201.814667 500.955,199.722 L500.955,199.722 L501.557,204.409 C501.843667,205.469667 502.531667,206 503.621,206 L503.621,206 L508.179,206 L508.179,162.441 L500.525,162.441 L500.525,194.562 C498.862333,196.454 497.042,197.930333 495.064,198.991 C493.086,200.051667 490.979,200.582 488.743,200.582 C485.675667,200.582 483.382333,199.679 481.863,197.873 C480.343667,196.067 479.584,193.515667 479.584,190.219 L479.584,190.219 L479.584,162.441 L471.93,162.441 L471.93,190.219 C471.93,192.684333 472.238167,194.934667 472.8545,196.97 C473.470833,199.005333 474.395333,200.739667 475.628,202.173 C476.860667,203.606333 478.387167,204.717167 480.2075,205.5055 C482.027833,206.293833 484.127667,206.688 486.507,206.688 Z M528.432,206 L528.432,173.535 C529.779333,171.786333 531.262833,170.403167 532.8825,169.3855 C534.502167,168.367833 536.258,167.859 538.15,167.859 C540.844667,167.859 542.894333,168.719 544.299,170.439 C545.703667,172.159 546.406,174.767667 546.406,178.265 L546.406,178.265 L546.406,206 L554.06,206 L554.06,178.265 C554.06,176.545 554.310833,175.032833 554.8125,173.7285 C555.314167,172.424167 555.995,171.342 556.855,170.482 C557.715,169.622 558.711167,168.969833 559.8435,168.5255 C560.975833,168.081167 562.172667,167.859 563.434,167.859 C566.272,167.859 568.436333,168.7405 569.927,170.5035 C571.417667,172.2665 572.163,174.853667 572.163,178.265 L572.163,178.265 L572.163,206 L579.817,206 L579.817,178.265 C579.817,175.627667 579.487333,173.284167 578.828,171.2345 C578.168667,169.184833 577.2155,167.457667 575.9685,166.053 C574.7215,164.648333 573.202167,163.5805 571.4105,162.8495 C569.618833,162.1185 567.576333,161.753 565.283,161.753 C563.849667,161.753 562.437833,161.925 561.0475,162.269 C559.657167,162.613 558.345667,163.157667 557.113,163.903 C555.880333,164.648333 554.7695,165.594333 553.7805,166.741 C552.7915,167.887667 551.996,169.249333 551.394,170.826 C550.591333,168.045333 549.279833,165.838 547.4595,164.204 C545.639167,162.57 543.252667,161.753 540.3,161.753 C537.662667,161.753 535.347833,162.383667 533.3555,163.645 C531.363167,164.906333 529.564333,166.526 527.959,168.504 L527.959,168.504 L527.4,164.032 C527.113333,162.971333 526.425333,162.441 525.336,162.441 L525.336,162.441 L520.778,162.441 L520.778,206 L528.432,206 Z" id="OpenKnowledgeBelgium" fill="#000000"></path>
        </g>
    </g>
</svg>