<?xml version="1.0" encoding="UTF-8"?>
<svg id="Layer_1" data-name="Layer 1" xmlns="http://www.w3.org/2000/svg" version="1.1" viewBox="0 0 395.19 164.34">
  <defs>
    <style>
      .cls-1 {
        fill: #4880fe;
      }

      .cls-1, .cls-2, .cls-3, .cls-4, .cls-5, .cls-6, .cls-7, .cls-8, .cls-9, .cls-10, .cls-11, .cls-12, .cls-13, .cls-14 {
        stroke-width: 0px;
      }

      .cls-2 {
        fill: #fdfdfd;
      }

      .cls-3 {
        fill: #1441fe;
      }

      .cls-4 {
        fill: #483945;
      }

      .cls-5 {
        fill: #fe7145;
      }

      .cls-6 {
        fill: #001842;
      }

      .cls-7 {
        fill: #fefefe;
      }

      .cls-8 {
        fill: #487f7b;
      }

      .cls-9 {
        fill: #fefa7b;
      }

      .cls-10 {
        fill: #00fe79;
      }

      .cls-11 {
        fill: #fcfdfd;
      }

      .cls-12 {
        fill: #011942;
      }

      .cls-13 {
        fill: #4881fe;
      }

      .cls-14 {
        fill: #fcfcfc;
      }
    </style>
  </defs>
  <path class="cls-10" d="M113,86.17c2.89,1.66,5.76,3.35,8.66,4.97,6.69,3.75,13.39,7.47,20.09,11.19.81.45,1.68.82,2.47,1.3,2.87,1.72,4.17,4.91,3.09,8.09-1.04,3.09-3.48,5.45-6.92,5.46-1.59,0-2.98-.47-4.3-1.2-5.68-3.15-11.33-6.34-17-9.51-4.73-2.65-9.46-5.3-14.21-7.93-.36-.2-.8-.25-1.2-.37-2.45-1.1-4.68-2.61-7.06-3.85-1.71-.89-3.38-1.85-5.06-2.8-1.36-.93-2.89-1.56-4.28-2.44-1.01-.6-2.12-1.02-3.1-1.67-3.3-1.9-6.63-3.73-9.97-5.55-1.62-.99-3.33-1.84-4.98-2.79-4.52-2.49-9.11-4.86-13.49-7.6-1.94-1.12-3.87-2.25-5.83-3.34-4.03-2.26-8.06-4.5-12.1-6.74-4.36-2.42-8.81-4.71-13.08-7.28-2.91-1.75-4.18-5.1-2.89-8.57.86-2.31,2.16-4.27,4.87-4.84,1.86-.39,3.63-.28,5.28.63,5.56,3.08,11.09,6.19,16.65,9.28,4.4,2.44,8.81,4.87,13.23,7.28,1.04.57,2.13,1.04,3.19,1.56.61-.14,1.05.26,1.51.53,3.62,2.1,7.32,4.05,10.95,6.13,1.42.84,2.85,1.66,4.35,2.37.97.67,2.04,1.15,3.04,1.77,3.32,1.86,6.66,3.67,9.97,5.54,1.69.89,3.3,1.92,5.04,2.71,3.68,2.12,7.41,4.15,11.12,6.21.71.4,1.54.65,1.94,1.47Z"/>
  <path class="cls-1" d="M77.39,66.41c-3.8-2.09-7.6-4.18-11.39-6.28-.33-.18-.61-.46-.91-.69-.8-1.61-1.55-3.24-2.4-4.82-1.43-2.64-2.95-5.24-4.4-7.87-3.66-6.61-7.32-13.23-10.95-19.85-.42-.76-.67-1.61-1-2.43-.16-.99-.14-1.97,0-2.96.34-2.84,2.29-4.28,4.67-5.32.45-.19.94-.28,1.41-.42.88-.19,1.75-.15,2.63-.02,2.78.62,4.32,2.58,5.61,4.94,5.27,9.6,10.59,19.16,15.89,28.74.02.04.09.06.14.08,1.09-.22.51-1.09.51-1.6.04-10.25.03-20.5.04-30.75,0-1.11-.09-2.21.07-3.32.51-4.98,5.22-6.69,9.03-5.84,3.03.67,4.67,2.65,5.47,5.51.19,1.43.08,2.87.08,4.31.01,10.08,0,20.15,0,30.23,0,.72-.08,1.44.18,2.13.11.69-.18,1.3-.5,1.88-1.97,3.56-3.93,7.13-5.95,10.66-.29.5-.47,1.32-1.39,1.06-2.42-3.82-4.55-7.79-6.4-11.36.05,3.54.02,7.66.01,11.79,0,.75.17,1.57-.46,2.2Z"/>
  <path class="cls-1" d="M91.75,91.19c3.63,2,7.27,3.99,10.89,6.01.41.23.72.64,1.07.97,3.41,6.15,6.81,12.31,10.22,18.46,2.77,5,5.67,9.93,8.28,15.02,1.62,3.17.55,7.02-2.66,8.85-1,.57-2.11.93-3.16,1.39-.65.15-1.3.12-1.96.02-3.27-.16-4.72-2.53-6.1-5.01-2.12-3.81-4.27-7.59-6.39-11.4-1.38-2.48-2.7-4.98-4.06-7.46-1.76-3.2-3.53-6.38-5.3-9.58-.1-.19-.17-.4-.26-.6-.82.34-.39,1.05-.4,1.56-.03,10.97-.02,21.93-.03,32.9,0,.61.08,1.22-.08,1.82-.59,1.87-1.37,3.63-3.2,4.6-.76.4-1.57.76-2.4.94-3.61.82-6.82-.66-8.38-3.86-.3-.61-.35-1.35-.51-2.03-.17-3.71-.06-7.42-.07-11.13-.02-7.64,0-15.29,0-22.93,0-.66.07-1.33-.2-1.96-.15-.82.16-1.54.54-2.21,2.04-3.57,3.95-7.2,6.03-10.74.27-.47.41-1.24,1.29-.96,2.28,3.22,3.87,6.83,5.88,10.21.33.56.78,1.1.52,1.76-.05-4.1-.03-8.26-.02-12.43,0-.76-.16-1.57.47-2.21Z"/>
  <path class="cls-9" d="M84.69,93.78c-2.46,4.45-4.93,8.9-7.39,13.35-.14.37-.23.78-.61,1-1.78,3.15-3.57,6.31-5.35,9.47-3.18,5.66-6.35,11.33-9.51,17-.72,1.3-1.39,2.63-2.14,3.91-1.11,1.92-2.75,3.11-5,3.37-.65.15-1.31.17-1.96-.01-2.55-.25-6.19-2.54-6.4-5.74-.17-.99-.17-1.97,0-2.96.34-.86.6-1.75,1.03-2.56,1.92-3.59,3.88-7.17,5.85-10.73,2.46-4.42,4.99-8.81,7.42-13.24,1.54-2.79,2.96-5.64,4.44-8.47.07-.55.49-.81.88-1.1,5.62-3.25,11.34-6.32,17-9.49.44-.24.9-.45,1.42-.43,1,.56,2,1.11,2.99,1.67-.36,1.95-1.31,3.57-2.69,4.96Z"/>
  <path class="cls-9" d="M84.45,63.87c2.45-4.38,4.9-8.76,7.35-13.14.15-.33.18-.73.54-.94,1.52-2.87,3.01-5.75,4.57-8.6,1.94-3.52,3.94-7.01,5.9-10.51,2.21-3.94,4.35-7.93,6.63-11.83,1.01-1.72,2.56-2.87,4.64-3.08.88-.17,1.76-.19,2.63.01,1.6.63,3.17,1.26,4.39,2.57,1.79,1.91,2.38,4.98,1.18,7.33-1.57,3.05-3.23,6.05-4.88,9.05-1.87,3.39-3.79,6.75-5.66,10.13-2.76,4.99-5.5,10-8.25,15,0,.27-.14.46-.33.63-5.63,3.37-11.46,6.38-17.15,9.64-.39.22-.8.37-1.26.33-.98-.55-1.97-1.1-2.95-1.65.35-1.94,1.32-3.53,2.66-4.93Z"/>
  <path class="cls-13" d="M66.05,97.38c-.32.27-.63.53-.95.8-1.41.69-2.86,1.32-4.23,2.07-3.45,1.9-6.86,3.86-10.3,5.78-5.73,3.21-11.46,6.44-17.21,9.62-1.64.91-3.31,1.58-5.32,1.55-3.87-.06-6.47-4.2-6.61-6.93-.18-3.57,1.55-5.82,4.57-7.45,5.53-2.99,10.98-6.13,16.48-9.19,3.5-1.95,7.03-3.85,10.54-5.79.94-.52,1.84-1.11,2.75-1.66.3-.36.71-.45,1.14-.47,4.87-.06,9.74-.22,14.61.07.87.26.75.89.44,1.45-1.9,3.42-3.46,7.05-5.91,10.16Z"/>
  <path class="cls-13" d="M103.1,60.25l.39-.39c3.45-1.88,6.91-3.74,10.35-5.65,5.9-3.29,11.77-6.63,17.66-9.94,1.74-.98,3.45-2.03,5.24-2.91,5.59-2.75,10.59,1.13,10.94,6.62.17,2.63-1.21,4.78-3.56,6.1-5.43,3.04-10.9,6.01-16.33,9.05-4.95,2.76-9.87,5.56-14.8,8.35-.21.27-.5.38-.82.43-4.85.14-9.71.24-14.56-.04-.75-.21-.77-.77-.47-1.3,1.94-3.47,3.53-7.14,5.98-10.31Z"/>
  <path class="cls-5" d="M56.73,86.03c-.32.05-.65.1-.97.14-1.55-.02-3.11-.06-4.66-.06-10.16,0-20.33-.03-30.49.01-3.09.01-5.19-1.42-6.52-4.11-.23-.47-.29-1.03-.43-1.54-.15-1.1-.15-2.2,0-3.3.38-3.43,3.46-5.64,6.54-5.64,6.04,0,12.08,0,18.11,0,5.82-.01,11.63-.04,17.45-.06.32.07.68.07.95.22,4.23,2.36,8.46,4.75,12.68,7.13-.04.36-.25.64-.54.8-3.84,2.06-7.5,4.44-11.49,6.22-.2.09-.41.16-.63.2Z"/>
  <path class="cls-5" d="M112.4,71.61c.19-.05.39-.1.58-.15,2.55.02,5.09.06,7.64.06,8.97,0,17.94.07,26.91-.03,3.93-.04,6.74,1.56,7.92,5.33.21,1.21.13,2.42.04,3.63-.96,3.54-3.46,5.7-7.45,5.67-11.07-.07-22.14-.03-33.21-.02-.61,0-1.21.04-1.82.06-4.41-2.46-8.83-4.92-13.24-7.37-.14-.52.27-.7.59-.87,3.52-1.87,6.95-3.91,10.48-5.77.5-.26,1.04-.38,1.56-.55Z"/>
  <path class="cls-6" d="M304.63,79.83c.13-2.24.93-4.25,2.28-6.01,2.46-3.21,8.55-3.48,10.99-.67.13.15.33.25.47.36.16-.1.31-.14.32-.2q.21-1.82,2.11-1.82c.94,0,1.89.06,2.83-.02.89-.07,1.12.25,1.1,1.11-.05,3-.02,5.99-.02,8.99s.09,6.22-.03,9.32c-.11,2.98-.87,5.75-3.49,7.65-.24.17-.36.74-.29,1.07.59,2.42.19,3.32-2.21,4.6-.66.16-1.33.17-1.99,0-1.53-.38-2.39-1.4-2.51-3.03-.04-.61-.23-.67-.87-.79-1.45-.27-2.94-.71-4.24-1.41-2.16-1.15-3.42-3.06-3.72-5.54-.02-.16-.14-.3-.28-.61,1.81,0,3.55-.03,5.28.02.32,0,.73.24.93.5,1.59,1.96,4.17,2.54,6.02.99.77-.64,1.09-1.92,1.38-2.98.21-.76.04-1.64.04-2.65-.43.23-.76.32-.95.53-2.75,3.02-9.4,2.48-11.53-1.71-.83-1.64-1.47-3.25-1.65-5.05-.12-.88-.12-1.76,0-2.64Z"/>
  <path class="cls-6" d="M277.47,48.48c-.5,2.71-1.46,5.14-3.77,6.87-1.94,1.46-5.95,2.25-8.76.38-.47-.31-.74-.92-1.1-1.39-.13.07-.25.13-.38.2-.04.34-.11.68-.11,1.02,0,3-.04,5.99.01,8.99.01.91-.22,1.3-1.2,1.24-1.27-.08-2.55-.04-3.83-.01-.62.01-.95-.2-.89-.86.01-.11,0-.22,0-.33,0-8.77.01-17.53-.02-26.3,0-.84.18-1.2,1.09-1.15,1.16.07,2.34.1,3.49,0,1.13-.1,1.49.34,1.33,1.39-.02.16.03.33.06.64,1.19-1.03,2.38-1.76,3.91-2.11,4.04-.92,8.22,1.64,9.41,5.43.28.88.5,1.79.75,2.68.13,1.1.13,2.21,0,3.31Z"/>
  <path class="cls-6" d="M218.3,114.5c.13-1.94.79-3.69,1.78-5.36,1.39-2.35,5.03-3.61,7.54-3.16,1.5.27,2.87.7,3.97,1.81.17.17.47.22.85.39,0-2.47.04-4.79-.02-7.11-.02-.94.26-1.28,1.21-1.22,1.16.07,2.34.09,3.49,0,1.06-.09,1.29.31,1.28,1.3-.04,6.77-.02,13.54-.02,20.31,0,1-.05,2,.01,3,.05.78-.17,1.09-1,1.04-1.22-.07-2.44-.07-3.66,0-.96.06-1.51-.14-1.31-1.25.04-.21-.03-.44-.04-.59-1.31.62-2.55,1.44-3.92,1.83-4.14,1.16-7.54-.7-9.06-4.29-.54-1.28-.76-2.7-1.12-4.06-.12-.88-.12-1.76,0-2.64Z"/>
  <path class="cls-6" d="M276.97,114.5c.12-2.24.93-4.24,2.27-6,2.41-3.16,8.48-3.53,10.99-.69.16.18.42.26.68.41q.38-2.06,2.55-2.06c.89,0,1.78.04,2.66-.01.7-.04.96.16.96.91-.03,5.82-.03,11.65,0,17.47,0,.86-.32,1.01-1.06.98-1.16-.05-2.34-.1-3.49,0-1.2.11-1.6-.34-1.42-1.47.02-.14-.06-.3-.12-.56-.5.34-.94.64-1.37.95-3.57,2.61-9.53,1.73-11.53-3.22-.52-1.29-.75-2.7-1.12-4.06-.12-.88-.12-1.76,0-2.64Z"/>
  <path class="cls-6" d="M300.3,45.5c.13-2.25.93-4.25,2.28-6.01,2.46-3.2,8.56-3.48,11-.66.13.15.33.24.47.35.16-.11.3-.16.31-.22q.19-1.8,1.96-1.8c1,0,2.01.07,3-.02.93-.08,1.08.32,1.08,1.14-.03,5.72-.04,11.44,0,17.17,0,.94-.35,1.1-1.15,1.06-1.16-.05-2.34-.09-3.5,0-1.14.1-1.49-.36-1.33-1.4.02-.16-.04-.33-.05-.47-1.25.62-2.42,1.45-3.73,1.82-4.45,1.24-7.82-.72-9.44-4.69-.47-1.14-.61-2.41-.9-3.62-.12-.88-.12-1.76,0-2.64Z"/>
  <path class="cls-6" d="M199.97,79.83c.14-1.94.79-3.69,1.78-5.36,1.43-2.39,5.04-3.6,7.53-3.17,1.61.27,3.08.74,4.17,2.06.08.09.3.07.45.1.4-1.98.4-1.99,2.53-1.97,1.15,0,2.72-.36,3.34.23.6.58.27,2.17.27,3.31.02,4.77.01,9.54,0,14.31,0,1.66.2,1.46-1.53,1.47-1,0-2.01-.08-2.99.02-1.19.13-1.61-.33-1.43-1.47.02-.14-.06-.3-.11-.57-.5.34-.94.63-1.37.95-3.57,2.61-9.53,1.74-11.53-3.22-.52-1.29-.75-2.7-1.12-4.06-.12-.88-.12-1.76,0-2.64Z"/>
  <path class="cls-6" d="M191.39,66.42c2.18.49,4.24,1.2,5.57,3.15,2.77,4.06,1.4,10.38-4,11.91-.42.12-.83.27-1.24.4-1.84.32-3.71-.19-5.55.27-.04,2.76-.08,5.52-.13,8.28-1.99.34-3.98.34-5.97,0,0-7.96,0-15.92,0-23.87.93-.48,1.93-.22,2.9-.22,2.8.01,5.61-.14,8.41.08Z"/>
  <path class="cls-6" d="M327.98,79.83c.23-2.52,1.04-4.81,3.08-6.43.93-.74,2.04-1.39,3.17-1.7,3.53-.99,6.92-.67,9.79,1.85,2.51,2.2,3.19,5.15,3,8.36-.05.82-.67.75-1.22.75-2.83,0-5.66,0-8.49,0-1.16,0-2.31,0-3.5,0,.57,2.67,1.77,3.7,3.86,3.56,1.12-.08,1.7-.9,2.42-1.56,1.78-.75,3.65-.17,5.47-.32.37-.03.91-.28,1.13.34-.7,1.15-1.31,2.36-2.12,3.42-2.48,3.27-8.75,4.21-12.53,1.64-2.14-1.45-3.67-3.53-3.92-6.29-.03-.33-.1-.66-.15-.98-.13-.88-.13-1.76,0-2.65Z"/>
  <path class="cls-6" d="M279.7,84.68c-.7,1.15-1.31,2.36-2.12,3.42-2.48,3.27-8.75,4.21-12.53,1.64-2.14-1.45-3.67-3.53-3.92-6.29-.03-.33-.1-.66-.15-.98-.13-.88-.13-1.76,0-2.65.23-2.52,1.04-4.81,3.08-6.43.93-.74,2.04-1.39,3.17-1.7,3.53-.99,6.92-.67,9.79,1.85,2.51,2.2,3.19,5.15,3,8.36-.05.82-.67.75-1.22.75-2.83,0-5.66,0-8.49,0-1.16,0-2.31,0-3.5,0,.57,2.67,1.77,3.7,3.86,3.56,1.12-.08,1.7-.9,2.42-1.56,1.78-.75,3.65-.17,5.47-.32.37-.03.91-.28,1.13.34Z"/>
  <path class="cls-6" d="M298.03,50.35c-.7,1.15-1.31,2.36-2.12,3.42-2.48,3.27-8.75,4.21-12.53,1.64-2.14-1.45-3.67-3.53-3.92-6.29-.03-.33-.1-.66-.15-.98-.13-.88-.13-1.76,0-2.65.23-2.52,1.04-4.81,3.08-6.43.93-.74,2.04-1.39,3.17-1.7,3.53-.99,6.92-.67,9.79,1.85,2.51,2.2,3.19,5.15,3,8.36-.05.82-.67.75-1.22.75-2.83,0-5.66,0-8.49,0-1.16,0-2.31,0-3.5,0,.57,2.67,1.77,3.7,3.86,3.56,1.12-.08,1.7-.9,2.42-1.56,1.78-.75,3.65-.17,5.47-.32.37-.03.91-.28,1.13.34Z"/>
  <path class="cls-6" d="M241.31,114.49c.24-2.52,1.03-4.81,3.07-6.42.93-.74,2.04-1.39,3.17-1.71,3.52-.99,6.9-.68,9.78,1.83,2.52,2.2,3.19,5.14,3.03,8.34-.04.81-.62.79-1.19.79-2.11,0-4.21,0-6.32,0-1.88,0-3.75,0-5.65,0,.4,2.55,1.65,3.67,3.75,3.56,1.13-.06,1.72-.85,2.43-1.52,1.99-.79,4.06-.23,6.09-.32.37-.02.44.41.32.76-.56.92-1.02,1.93-1.7,2.76-1.99,2.46-4.71,3.22-7.76,3.26-4.55.05-7.46-2.87-8.8-6.73-.21-.61-.16-1.3-.23-1.96-.13-.88-.13-1.77,0-2.65Z"/>
  <path class="cls-6" d="M234.66,45.5c.25-1.24.42-2.46.98-3.66,1.98-4.23,6.88-5.33,10.29-4.86,3.66.51,6.42,2.35,7.73,5.87,1.43,3.87.95,7.58-1.71,10.83-1.53,1.87-3.71,2.74-6.03,3.04-3.32.43-6.45-.16-8.83-2.74-1.48-1.61-2.38-3.57-2.43-5.82-.13-.88-.14-1.77,0-2.65Z"/>
  <path class="cls-6" d="M323.65,114.49c.09-1.29.45-2.46.99-3.66,1.94-4.25,6.89-5.34,10.3-4.86,3.66.52,6.42,2.36,7.72,5.89,1.42,3.88.93,7.59-1.73,10.82-1.61,1.96-3.92,2.8-6.38,3.06-3.2.35-6.18-.26-8.46-2.76-1.5-1.64-2.35-3.59-2.44-5.85-.13-.88-.14-1.77,0-2.65Z"/>
  <path class="cls-6" d="M216.13,119.81c-.56.92-1.02,1.93-1.7,2.76-1.99,2.46-4.71,3.22-7.76,3.26-4.55.05-7.46-2.87-8.8-6.73-.21-.61-.16-1.3-.23-1.96-.13-.88-.13-1.77,0-2.65.24-2.51,1.07-4.75,3.05-6.44.44-.38.87-.81,1.39-1.06,4.22-2.03,10.14-1.33,12.86,2.56,1.14,1.63,1.6,3.46,1.77,5.39.06.71,0,1.44,0,2.15-.95.44-1.96.17-2.93.2-3.37.12-6.75-.18-10.12.16.03,1.58.73,2.78,2.04,3.21,1.25.41,2.47.38,3.43-.74.18-.21.39-.38.59-.58,1.99-.79,4.06-.23,6.09-.32.37-.02.44.41.32.76Z"/>
  <path class="cls-6" d="M330.43,39.33c1.95-2.2,4.28-2.52,6.9-2.22,2.74.31,5.09,2.65,5.7,5.24.19.8.34,1.63.35,2.45.04,3.55,0,7.1.03,10.66,0,.76-.14,1.1-.99,1.05-1.22-.07-2.44-.07-3.66,0-.93.06-1.25-.22-1.23-1.19.06-2.83.05-5.66.01-8.49-.02-1.36-.24-2.64-1.28-3.73-1.12-1.19-2.42-1.33-3.77-.86-1.35.48-2.07,1.65-2.09,3.09-.06,3-.05,5.99-.06,8.99,0,2.17,0,2.19-2.2,2.16-1.2-.02-2.4-.13-3.59-.19-.03-1.16-.09-2.31-.1-3.47-.01-4.77.03-9.55-.03-14.32-.01-1.11.3-1.46,1.39-1.36,1.05.09,2.11.08,3.16,0,1.05-.08,1.58.21,1.38,1.35-.03.2.04.41.08.85Z"/>
  <path class="cls-6" d="M289.1,73.67c1.94-2.22,4.29-2.59,6.9-2.2,3.03.45,4.77,2.29,5.66,5.06.26.83.38,1.74.39,2.61.04,3.55,0,7.1.04,10.66,0,.77-.16,1.09-1,1.05-1.22-.07-2.44-.08-3.66,0-.94.06-1.24-.24-1.22-1.2.06-2.83.05-5.66,0-8.49-.02-1.36-.24-2.64-1.28-3.73-1.13-1.19-2.43-1.33-3.77-.85-1.35.48-2.06,1.65-2.09,3.1-.06,3-.05,5.99-.06,8.99,0,2.16,0,2.19-2.2,2.16-1.2-.02-2.39-.13-3.59-.2-.03-1.16-.09-2.31-.09-3.47-.01-4.77.03-9.55-.03-14.32-.02-1.12.32-1.45,1.39-1.36,1.05.09,2.11.09,3.16,0,1.06-.09,1.56.23,1.37,1.35-.03.19.04.41.09.85Z"/>
  <path class="cls-6" d="M180.07,56.1c0-7.96,0-15.92,0-23.87.3-.36.72-.23,1.09-.23,4.11,0,8.22.03,12.32-.03,1.07-.01,1.54.26,1.4,1.39-.14,1.14.19,2.32-.19,3.46-2.59,0-5.18.02-7.77,0-.69,0-1.01.16-.95.91.09,1.25.12,2.51.18,3.76,2.09.4,4.19.12,6.29.15,1.01.01,1.47.17,1.46,1.35-.02,3.33.04,3.3-3.29,3.34-1.48.02-2.98-.21-4.45.16-.05,1.47-.11,2.95-.16,4.42-.03.83.6.62,1.05.62,2.53,0,5.06-.01,7.6-.03.5,1.34.12,2.73.22,4.09.04.47-.22.72-.7.71-4.7-.12-9.41.27-14.1-.21Z"/>
  <path class="cls-6" d="M359.41,115.09c-.11-2.57-1.51-4-3.89-3.95-1.9.04-3.07,1.17-3.12,3.26-.08,3.16-.05,6.33-.06,9.49,0,1.8.17,1.58-1.6,1.6-1.11,0-2.22-.03-3.33.01-.69.03-.98-.17-.97-.92.03-5.83.03-11.65,0-17.48,0-.73.23-.98.95-.95,1.22.04,2.44.07,3.66,0,.96-.06,1.51.15,1.3,1.25-.04.21.02.44.03.65,1-.56,1.92-1.32,2.97-1.64,4.24-1.3,8.28.4,9.53,4.56.31,1.04.48,2.15.5,3.24.06,3.33-.03,6.66.05,9.99.03,1.16-.38,1.38-1.4,1.32-1.44-.08-2.88-.02-4.33-.01-.29-2.87-.04-5.74-.13-8.61-.02-.6.14-1.22-.14-1.8Z"/>
  <path class="cls-6" d="M217.09,56.49c-1.9,0-3.79,0-5.69,0-.56-.42.39-1.46-.69-1.66-1.74,1.28-3.62,2.14-5.85,1.97-2.19-.17-4.02-.91-5.21-2.91-.76-1.27-1.23-2.6-1.35-4.07-.06-4.22-.25-8.44.1-12.65h5.64c.38,2.41.07,4.84.18,7.26.07,1.48-.18,2.97.15,4.45.26,1.71,1.06,2.55,2.77,2.91,1.12.23,2.86-.68,3.62-1.94.16-.27.22-.59.33-.89.31-3.33.04-6.68.14-10.01.02-.59-.17-1.21.17-1.77,1.9,0,3.79,0,5.69,0,.28,3.25.11,6.5.11,9.76,0,3.2.17,6.4-.11,9.59Z"/>
  <path class="cls-6" d="M374.4,77.88c-.94-1.84-2.11-2.52-3.72-2.04-.4.12-.88.54-.97.91-.1.38.09,1.02.39,1.29.41.38,1.02.59,1.58.77,1.5.48,3.05.84,4.53,1.36,2.22.79,3.6,2.36,3.66,4.77.06,2.41-1,4.23-3.14,5.16-3.66,1.6-7.26,1.52-10.7-.66-1.45-.92-2.16-2.36-2.52-3.99-.15-.69.04-1.02.82-.99,1.11.05,2.22.02,3.33,0,.87,0,1.53-.05,2.05,1.05.68,1.43,3.01,1.56,3.99.5.79-.86.69-1.49-.45-1.92-1.37-.52-2.79-.88-4.17-1.37-1.08-.38-2.23-.69-3.17-1.3-3.03-1.96-2.31-7.79.97-9.21,2.66-1.15,5.39-1.37,8.16-.5,2.82.89,4.2,3.01,4.79,5.77-.05.44-.36.49-.7.48-1.57-.05-3.14.13-4.71-.1Z"/>
  <path class="cls-6" d="M253.07,77.88c-.94-1.84-2.11-2.52-3.72-2.04-.4.12-.88.54-.97.91-.1.38.09,1.02.39,1.29.41.38,1.02.59,1.58.77,1.5.48,3.05.84,4.53,1.36,2.22.79,3.6,2.36,3.66,4.77.06,2.41-1,4.23-3.14,5.16-3.66,1.6-7.26,1.52-10.7-.66-1.45-.92-2.16-2.36-2.52-3.99-.15-.69.04-1.02.82-.99,1.11.05,2.22.02,3.33,0,.87,0,1.53-.05,2.05,1.05.68,1.43,3.01,1.56,3.99.5.79-.86.69-1.49-.45-1.92-1.37-.52-2.79-.88-4.17-1.37-1.08-.38-2.23-.69-3.17-1.3-3.03-1.96-2.31-7.79.97-9.21,2.66-1.15,5.39-1.37,8.16-.5,2.82.89,4.2,3.01,4.79,5.77-.05.44-.36.49-.7.48-1.57-.05-3.14.13-4.71-.1Z"/>
  <path class="cls-6" d="M234.4,77.88c-.94-1.84-2.11-2.52-3.72-2.04-.4.12-.87.55-.97.92-.1.38.1,1.02.39,1.29.41.38,1.02.59,1.58.77,1.5.48,3.05.84,4.54,1.36,2.23.79,3.59,2.38,3.65,4.79.06,2.27-.9,4.1-3.02,5.09-3.75,1.74-7.46,1.57-10.95-.67-1.37-.88-2.06-2.32-2.39-3.91-.14-.68.02-1.04.81-1,1.11.05,2.22.02,3.33.01.86,0,1.58-.11,2.05,1.05.48,1.18,2.22,1.61,3.26,1,.48-.28.96-.93,1.02-1.47.04-.35-.6-.97-1.05-1.14-1.3-.48-2.69-.74-4-1.19-1.08-.37-2.21-.76-3.14-1.4-2.9-1.98-2.31-8,1.67-9.38,2.44-.85,4.94-1.03,7.42-.29,2.87.86,4.37,2.98,4.95,5.83-.05.44-.36.49-.7.48-1.57-.05-3.14.13-4.71-.1Z"/>
  <path class="cls-6" d="M195.72,101.17c0,1.22-.04,2.43.02,3.65.04.8-.21,1.04-1.02,1.02-2.49-.05-4.98.03-7.46-.04-1.02-.03-1.38.23-1.28,1.28.12,1.2.09,2.41.12,3.62,1.19.06,2.39.15,3.58.18,1.1.02,2.21-.02,3.31-.03.47,1.34.12,2.72.2,4.08.05.87-.64.71-1.17.74-1.97.1-3.96-.21-5.92.17-.02,3.09-.05,6.19-.07,9.28-1.99.34-3.98.34-5.97,0,0-7.96,0-15.92,0-23.87.04-.03.08-.1.13-.1,5.17-.19,10.34-.28,15.51.04Z"/>
  <path class="cls-6" d="M311.72,120.5c0,1.33-.05,2.67.02,4,.04.83-.25,1.05-1.04,1-1.27-.08-2.56.01-3.83-.09-2.78-.23-4.61-2.38-4.73-4.85-.13-2.71-.12-5.44-.06-8.16.02-1.04-.26-1.44-1.28-1.25-.89.16-1.16-.23-1.09-1.1.07-.94.08-1.89,0-2.83-.08-.9.28-1.23,1.12-1.07,1.08.2,1.35-.28,1.25-1.28-.08-.82.03-1.67-.03-2.5-.06-.77.27-.93.96-.91,1.28.04,2.56.07,3.83,0,.94-.06,1.17.36,1.07,1.16-.01.11,0,.22,0,.33.02,1-.34,2.33.17,2.9.46.52,1.85.28,2.83.28.67,0,.89.24.83.87-.04.39,0,.78,0,1.17-.03.93.29,2.19-.19,2.71-.45.49-1.74.26-2.67.26-.67,0-1,.14-.98.91.04,2.16-.01,4.33.04,6.49.01.61-.12,1.4.8,1.61.96.46,2.04-.12,3,.35Z"/>
  <path class="cls-6" d="M355.67,73.66c1.44-1.28,2.96-2.06,4.8-2.29.86-.11,1.24.09,1.21,1.01-.05,1.38-.06,2.77,0,4.16.04.91-.36,1.16-1.18,1.14-.6-.02-1.22.02-1.82.1-1.82.23-2.89,1.3-2.94,3.13-.08,2.82-.07,5.65-.07,8.48,0,1.71-.05,1.43-1.43,1.44-1.11,0-2.22-.06-3.32.02-1.01.08-1.16-.37-1.16-1.25.03-5.6.05-11.2-.01-16.79-.01-1.16.39-1.4,1.42-1.33,1.05.08,2.11.09,3.16,0,1.1-.1,1.53.28,1.35,1.37-.04.27,0,.55,0,.82Z"/>
  <path class="cls-6" d="M227.4,39.64c1.37-1.42,2.75-2.37,4.56-2.54,1.28-.12,1.36-.12,1.38,1.08.02,1.39-.02,2.77.02,4.16.02.73-.29.99-.98.99-.61,0-1.22.01-1.82.08-2.11.24-3.09,1.27-3.15,3.46-.07,2.71-.05,5.43-.06,8.15,0,1.6.11,1.46-1.4,1.47-1.22,0-2.44-.02-3.66,0-.66.02-.85-.24-.85-.88.02-5.88.02-11.75,0-17.63,0-.66.24-.86.87-.85,1.27.03,2.55.06,3.82,0,.91-.05,1.35.19,1.22,1.17-.05.35.02.72.05,1.33Z"/>
  <path class="cls-6" d="M272.68,112.47c-2.14.12-3.22,1.12-3.28,3.27-.08,2.83-.1,5.66-.04,8.49.02,1.05-.3,1.35-1.31,1.28-1.21-.08-2.44-.05-3.66,0-.7.02-.97-.18-.97-.93.03-5.83.03-11.65,0-17.48,0-.73.23-.97.95-.95,1.22.04,2.44.07,3.66,0,.97-.06,1.5.16,1.3,1.26-.06.32,0,.66,0,1.21,1.39-1.19,2.62-2.29,4.38-2.46,1.61-.16,1.61-.23,1.62,1.31.02,1.55.03,3.11.04,4.66-.84.54-1.84-.08-2.69.37Z"/>
  <path class="cls-12" d="M314.78,115.71c0-2.78.03-5.55-.02-8.33-.01-.88.14-1.32,1.16-1.25,1.27.09,2.55.05,3.83,0,.73-.03.94.24.94.96-.02,5.83-.03,11.66,0,17.49,0,.77-.31.93-.99.91-1.28-.04-2.56-.06-3.83,0-.88.05-1.13-.26-1.11-1.13.05-2.89.02-5.77.02-8.66Z"/>
  <path class="cls-12" d="M382.05,71.3c0-1.27.02-2.55,0-3.82-.02-.65.22-.87.87-.85,1.55.04,3.1.03,4.65,0,.81-.01.96.29.66,1-1.05,2.51-2.07,5.04-3.12,7.54-.3.71-2.31,1.19-2.85.68-.16-.15-.19-.49-.19-.75-.02-1.27,0-2.54,0-3.82Z"/>
  <path class="cls-14" d="M92.33,49.79c-.18.31-.36.63-.54.94,0-12.41,0-24.81.01-37.22.09.58.24,1.17.25,1.75.01,10.93,0,21.86.02,32.79,0,.58.17,1.16.26,1.74Z"/>
  <path class="cls-14" d="M91.81,144.13c-.01-12-.03-23.99-.03-35.99,0-.23.18-.47.28-.7l.25.41c-.08.58-.24,1.17-.24,1.75-.01,10.93,0,21.85-.02,32.78,0,.58-.16,1.17-.25,1.75Z"/>
  <path class="cls-14" d="M77.31,13.85c.02,8.7.03,17.39.05,26.09,0,3.42,0,6.83-.22,10.32l-.45-.75c.12-.62.35-1.23.35-1.85.02-10.69.01-21.37.03-32.06,0-.58.15-1.17.24-1.75Z"/>
  <path class="cls-14" d="M76.7,108.13l.61-1c.02,3.76.05,7.52.05,11.28,0,8.46-.03,16.92-.04,25.38-.08-.58-.23-1.17-.24-1.75-.01-10.69,0-21.37-.03-32.06,0-.62-.23-1.24-.35-1.85Z"/>
  <path class="cls-14" d="M186.17,46.49c2.02-.06,4.05-.14,6.07-.17,1.74-.03,1.54.08,1.53-1.5,0-.98.3-2.4-.21-2.84-.62-.53-1.95-.26-2.98-.31-1.47-.07-2.94-.12-4.41-.18,2.15,0,4.31.05,6.46-.02,1.04-.03,1.55.22,1.44,1.37-.11,1.14.3,2.7-.3,3.32-.58.61-2.15.3-3.29.33-1.44.04-2.87,0-4.31,0Z"/>
  <path class="cls-14" d="M194.71,36.82c.02-1.27.03-2.54.07-3.81.02-.57-.07-.93-.79-.92-4.64.06-9.28.09-13.92.14.38-.14.76-.39,1.14-.39,4.19-.03,8.38.01,12.57-.04,1.06-.01,1.38.38,1.27,1.35-.14,1.22-.24,2.45-.35,3.67Z"/>
  <path class="cls-14" d="M180.07,56.1c.37.07.75.2,1.12.2,4.13.01,8.27-.02,12.4.03.93.01,1.27-.26,1.2-1.2-.09-1.2-.1-2.41-.14-3.62.86,1.48.27,3.07.31,4.61,0,.11-.42.34-.65.34-4.63,0-9.27-.01-13.9-.04-.11,0-.23-.21-.34-.32Z"/>
  <path class="cls-14" d="M217.09,56.49c.04-.88.12-1.75.12-2.63.01-5.02,0-10.05,0-15.07,0-.55-.08-1.09-.12-1.64.1.41.29.81.29,1.22.02,5.63.02,11.27,0,16.9,0,.41-.19.82-.29,1.22Z"/>
  <path class="cls-14" d="M195.72,101.17c-5.21.02-10.43.04-15.64.06.33-.14.65-.39.98-.39,4.6-.03,9.2-.02,13.8,0,.29,0,.57.22.86.33Z"/>
  <path class="cls-14" d="M203.66,117.46c2.76-.05,5.51-.09,8.27-.16,1.59-.04,3.19-.13,4.78-.2-.39.13-.77.37-1.16.37-3.97.02-7.93,0-11.9,0Z"/>
  <path class="cls-14" d="M198.41,37.16c-.03,4.22-.07,8.43-.1,12.65-.08-.36-.23-.72-.24-1.08-.02-3.46-.02-6.92,0-10.39,0-.4.22-.79.33-1.18Z"/>
  <path class="cls-14" d="M186.12,115.82c.5-.09,1-.26,1.5-.27,1.55-.04,3.1-.04,4.65,0,.7.02,1.01-.2.95-.94-.1-1.26-.15-2.52-.22-3.78.8,1.44.27,2.99.3,4.49,0,.16-.67.47-1.03.47-2.05.05-4.1.02-6.16.02Z"/>
  <path class="cls-14" d="M211.41,37.16c-.02,3.34-.03,6.69-.08,10.03,0,.58-.15,1.17-.23,1.75-.01-3.59-.04-7.17-.03-10.76,0-.34.22-.68.33-1.02Z"/>
  <path class="cls-14" d="M204.38,48.86c-.09-.59-.25-1.18-.25-1.77-.05-3.31-.06-6.63-.08-9.94.12.45.33.9.33,1.34.02,3.45,0,6.91,0,10.36Z"/>
  <path class="cls-14" d="M191.39,66.42c-3.16,0-6.32,0-9.49.01-.61,0-1.21.08-1.82.12.27-.14.54-.39.81-.39,3.31-.03,6.61-.02,9.92,0,.19,0,.38.17.57.26Z"/>
  <path class="cls-14" d="M359.41,115.09c.05,2.09.1,4.18.15,6.27.04,1.38.08,2.75.12,4.13-.1-.4-.29-.81-.29-1.21-.02-3.06,0-6.13.01-9.19Z"/>
  <path class="cls-14" d="M216.13,119.81c-.09-.22-.19-.64-.28-.64-2.04.04-4.09.12-6.13.19.23-.18.46-.51.69-.52,1.71-.05,3.43-.03,5.14-.02.73,0,1.1.24.58.99Z"/>
  <path class="cls-14" d="M259.8,119.81c-.09-.22-.19-.64-.28-.64-2.04.04-4.09.12-6.13.19.23-.18.46-.51.69-.52,1.71-.05,3.43-.03,5.14-.02.73,0,1.1.24.58.99Z"/>
  <path class="cls-2" d="M279.7,84.68c-2.2,0-4.4-.01-6.6-.02.19-.17.37-.47.56-.47,1.83-.03,3.66-.03,5.49,0,.19,0,.37.32.55.49Z"/>
  <path class="cls-2" d="M346.7,84.68c-2.2,0-4.4-.01-6.6-.02.19-.17.37-.47.56-.47,1.83-.03,3.66-.03,5.49,0,.19,0,.37.32.55.49Z"/>
  <path class="cls-2" d="M298.03,50.35c-2.2,0-4.4-.01-6.6-.02.19-.17.37-.47.56-.47,1.83-.03,3.66-.03,5.49,0,.19,0,.37.32.55.49Z"/>
  <path class="cls-2" d="M374.4,77.88c1.42,0,2.85.02,4.27-.02.38-.01.76-.23,1.14-.36-.04.21-.09.59-.12.59-1.76-.05-3.53-.13-5.29-.21Z"/>
  <path class="cls-2" d="M253.07,77.88c1.42,0,2.85.02,4.27-.02.38-.01.76-.23,1.14-.36-.04.21-.09.59-.12.59-1.76-.05-3.53-.13-5.29-.21Z"/>
  <path class="cls-14" d="M180.07,90.43c1.99,0,3.98,0,5.97,0-.28.13-.55.36-.83.37-1.44.04-2.88.04-4.31,0-.28,0-.55-.24-.83-.37Z"/>
  <path class="cls-14" d="M180.07,125.1h5.97c-.28.13-.55.36-.83.37-1.44.04-2.88.04-4.31,0-.28,0-.55-.24-.83-.37Z"/>
  <path class="cls-2" d="M234.4,77.88c1.42,0,2.85.02,4.27-.02.38-.01.76-.23,1.14-.36-.04.21-.09.59-.12.59-1.76-.05-3.53-.13-5.29-.21Z"/>
  <path class="cls-14" d="M186.17,82.16c1.85-.09,3.7-.18,5.55-.27-1.24.09-2.48.19-3.72.26-.61.03-1.21,0-1.82,0Z"/>
  <path class="cls-14" d="M155.48,80.46c-.01-1.21-.03-2.42-.04-3.63.01,1.21.03,2.42.04,3.63Z"/>
  <path class="cls-14" d="M13.67,77.17c0,1.1,0,2.2,0,3.3,0-1.1,0-2.2,0-3.3Z"/>
  <path class="cls-2" d="M277.47,48.48v-3.31,3.31Z"/>
  <path class="cls-14" d="M46.32,21.51c0,.99,0,1.97,0,2.96,0-.99,0-1.97,0-2.96Z"/>
  <path class="cls-2" d="M311.72,120.5c-1-.12-2-.23-3-.35,1,.12,2,.23,3,.35Z"/>
  <path class="cls-14" d="M46.35,133.17c0,.99,0,1.97,0,2.96,0-.99,0-1.97,0-2.96Z"/>
  <path class="cls-2" d="M327.98,79.83c0,.88,0,1.76,0,2.65,0-.88,0-1.76,0-2.65Z"/>
  <path class="cls-2" d="M304.63,79.83c0,.88,0,1.76,0,2.64,0-.88,0-1.76,0-2.64Z"/>
  <path class="cls-2" d="M260.98,79.83c0,.88,0,1.76,0,2.65,0-.88,0-1.76,0-2.65Z"/>
  <path class="cls-14" d="M199.97,79.83c0,.88,0,1.76,0,2.64,0-.88,0-1.76,0-2.64Z"/>
  <path class="cls-14" d="M210.72,54.82c.2-.03.41-.07.61-.1.02.59.05,1.18.07,1.77-.23-.55-.46-1.11-.69-1.66Z"/>
  <path class="cls-14" d="M272.68,112.47c.9-.12,1.8-.25,2.69-.37-.9.12-1.8.25-2.69.37Z"/>
  <path class="cls-14" d="M197.65,114.49c0,.88,0,1.77,0,2.65,0-.88,0-1.77,0-2.65Z"/>
  <path class="cls-14" d="M218.3,114.5c0,.88,0,1.76,0,2.64,0-.88,0-1.76,0-2.64Z"/>
  <path class="cls-14" d="M241.31,114.49c0,.88,0,1.77,0,2.65,0-.88,0-1.77,0-2.65Z"/>
  <path class="cls-14" d="M276.97,114.5c0,.88,0,1.76,0,2.64,0-.88,0-1.76,0-2.64Z"/>
  <path class="cls-14" d="M323.65,114.49c0,.88,0,1.77,0,2.65,0-.88,0-1.77,0-2.65Z"/>
  <path class="cls-2" d="M300.3,45.5c0,.88,0,1.76,0,2.64,0-.88,0-1.76,0-2.64Z"/>
  <path class="cls-2" d="M279.31,45.5c0,.88,0,1.76,0,2.65,0-.88,0-1.76,0-2.65Z"/>
  <path class="cls-2" d="M234.66,45.5c0,.88,0,1.77,0,2.65,0-.88,0-1.77,0-2.65Z"/>
  <path class="cls-14" d="M116.72,15.78c-.88,0-1.76,0-2.63-.01.88,0,1.76,0,2.63.01Z"/>
  <path class="cls-14" d="M55.05,15.74c-.88,0-1.75.02-2.63.02.88,0,1.75-.02,2.63-.02Z"/>
  <path class="cls-2" d="M316.73,104.2c.66,0,1.32,0,1.99,0-.66,0-1.32,0-1.99,0Z"/>
  <path class="cls-14" d="M52.75,141.87c.65,0,1.31,0,1.96.01-.65,0-1.31,0-1.96-.01Z"/>
  <path class="cls-14" d="M114.42,141.91c.65,0,1.31-.01,1.96-.02-.65,0-1.31.01-1.96.02Z"/>
  <path class="cls-8" d="M103.1,60.25c-1.54,2.87-3.09,5.75-4.63,8.62-.47.88-.94,1.75-1.41,2.63-.26,1.79-1.44,3.12-2.33,4.59-3.33-1.88-6.66-3.75-10-5.63,4.13-2.32,8.26-4.66,12.4-6.97,1.97-1.1,3.97-2.16,5.96-3.24Z"/>
  <path class="cls-8" d="M66.05,97.38c1.41-2.63,2.82-5.25,4.23-7.88.6-1.12,1.19-2.24,1.79-3.36.25-1.81,1.52-3.1,2.34-4.62,3.33,1.88,6.66,3.75,9.99,5.63-4.37,2.46-8.74,4.93-13.12,7.38-1.73.97-3.49,1.9-5.23,2.85Z"/>
  <path class="cls-4" d="M74.41,81.52c-.78,1.54-1.56,3.08-2.34,4.62-4.51,0-9.02-.01-13.53-.03-.6,0-1.2-.06-1.81-.08,3.6-2.04,7.21-4.07,10.81-6.12.62-.35,1.23-.73,1.85-1.1,1.67.9,3.34,1.8,5.01,2.71Z"/>
  <path class="cls-4" d="M94.74,76.09c.78-1.53,1.55-3.06,2.33-4.59,4.51,0,9.02.01,13.53.02.6,0,1.2.06,1.81.08-3.6,2.03-7.2,4.06-10.8,6.1-.62.35-1.22.72-1.84,1.09l-5.03-2.71Z"/>
  <path class="cls-3" d="M84.45,63.87c-.89,1.64-1.77,3.29-2.66,4.93l-4.4-2.4v-14.96c.08-.04.15-.07.23-.11.83,1.45,1.68,2.89,2.48,4.36,1.47,2.72,2.91,5.45,4.36,8.18Z"/>
  <path class="cls-3" d="M84.69,93.78c.9-1.65,1.8-3.31,2.69-4.96,1.45.79,2.9,1.59,4.36,2.38v15.33c-.64-1.03-1.14-1.77-1.57-2.54-1.75-3.14-3.48-6.28-5.21-9.43-.13-.24-.18-.52-.27-.78Z"/>
  <path class="cls-7" d="M310.67,81.15c0-2.95,1.78-4.86,4.39-4.66.38.03.77.13,1.12.27,2.09.84,3.13,3.37,2.47,5.91-.56,2.15-2.33,3.41-4.45,3.16-2.14-.24-3.53-2.09-3.53-4.69Z"/>
  <path class="cls-7" d="M263.34,46.61c0-2.74,1.87-4.69,4.52-4.45,1.63.15,3.08,1.43,3.49,3.1.59,2.36-.19,4.69-1.91,5.74-1.46.89-3.31.73-4.62-.42-1.12-.98-1.5-2.27-1.48-3.97Z"/>
  <path class="cls-7" d="M224.3,115.37c.1-.43.16-1.24.48-1.91.73-1.51,1.98-2.35,3.72-2.3,1.76.05,3.05.95,3.51,2.55.35,1.22.4,2.65.14,3.89-.43,2.02-2.09,3.06-4.06,2.94-1.85-.11-3.37-1.54-3.69-3.49-.07-.44-.06-.89-.11-1.67Z"/>
  <path class="cls-7" d="M282.73,115.57c.45-1.04.71-2.23,1.39-3.08,1.74-2.19,5.3-1.66,6.5.92.76,1.63.73,3.36-.06,4.99-.76,1.57-2.41,2.36-4.16,2.1-1.66-.25-3.05-1.69-3.33-3.49-.07-.44-.06-.89-.09-1.33-.09-.04-.17-.08-.26-.12Z"/>
  <path class="cls-7" d="M314.44,46.84c0,2.94-1.8,4.87-4.39,4.69-.17-.01-.33-.02-.5-.05-2.3-.45-3.6-2.85-3.17-5.8.32-2.17,2.14-3.66,4.32-3.52,2.22.14,3.73,2.04,3.74,4.69Z"/>
  <path class="cls-7" d="M206.01,81.07c.02-2.86,1.76-4.71,4.3-4.59.17,0,.33,0,.5.03,2.25.4,3.62,2.75,3.27,5.59-.3,2.41-2.15,3.96-4.45,3.75-2.21-.21-3.63-2.09-3.62-4.78Z"/>
  <path class="cls-2" d="M186.01,74.11q0-3.29,3.62-2.9c2.05.22,3.19,1.93,2.64,3.92-.3,1.06-.97,1.8-2.04,1.93-1.2.16-2.43.13-3.64.09-.2,0-.53-.46-.56-.74-.08-.77-.03-1.55-.03-2.32Z"/>
  <path class="cls-11" d="M334.01,79.11c.52-2.16,1.62-3.04,3.61-3.01,1.95.03,2.91.87,3.35,3.01h-6.96Z"/>
  <path class="cls-11" d="M267,79.11c.54-2.18,1.63-3.05,3.63-3.01,1.95.04,2.91.88,3.34,3.01h-6.96Z"/>
  <path class="cls-11" d="M292.3,44.79h-6.88c.24-1.9,1.38-2.96,3.23-3.02,2.16-.07,3.23.79,3.65,3.02Z"/>
  <path class="cls-11" d="M254.36,113.87c-2.16,0-4.19-.02-6.22.01-.85.02-.91-.35-.66-1,.55-1.42,1.96-2.22,3.74-2.11,1.72.11,2.59.92,3.13,3.1Z"/>
  <path class="cls-7" d="M240.67,47.11c.01-3.21,1.49-5.01,3.84-5,.22,0,.44.01.66.05,2.33.4,3.7,2.98,3.15,5.93-.45,2.42-2.36,3.82-4.66,3.41-1.38-.24-2.59-1.51-2.89-3.09-.1-.54-.09-1.1-.11-1.3Z"/>
  <path class="cls-7" d="M329.67,116.12c.01-3.22,1.49-5.02,3.83-5.01.22,0,.44.01.66.05,2.33.39,3.71,2.96,3.17,5.92-.44,2.42-2.35,3.83-4.65,3.43-1.38-.24-2.6-1.5-2.9-3.08-.1-.54-.09-1.1-.11-1.3Z"/>
  <path class="cls-11" d="M210.6,113.79h-6.88c.37-2.11,1.58-3.09,3.65-3.03,1.92.06,2.94.99,3.23,3.03Z"/>
</svg>