<?xml version="1.0" encoding="UTF-8"?>
<svg id="Layer_1" data-name="Layer 1" xmlns="http://www.w3.org/2000/svg" version="1.1" viewBox="0 0 155 43">
  <defs>
    <style>
      .cls-1 {
        fill: #0978f2;
      }

      .cls-1, .cls-2 {
        stroke-width: 0px;
      }

      .cls-2 {
        fill: #fff;
      }
    </style>
  </defs>
  <g>
    <path class="cls-2" d="M79.2,25.1c0-2.1-.5-3.8-1.4-5-1-1.2-2.3-1.9-3.9-1.9s-3,.6-3.9,1.9c-1,1.2-1.4,2.9-1.4,5s.5,3.8,1.4,5c1,1.2,2.3,1.9,3.9,1.9s3-.6,3.9-1.9c1-1.2,1.4-2.9,1.4-5ZM82.8,25.1c0,1.5-.2,2.8-.7,4s-1.1,2.2-1.8,3.1c-.8.9-1.7,1.5-2.8,2-1.1.5-2.3.7-3.6.7s-2.5-.2-3.6-.7c-1.1-.5-2-1.1-2.8-2-.8-.9-1.4-1.9-1.8-3.1-.4-1.2-.7-2.5-.7-4s.2-2.8.7-4c.4-1.2,1.1-2.2,1.8-3.1.8-.9,1.7-1.5,2.8-2,1.1-.5,2.3-.7,3.6-.7s2.5.2,3.6.7c1.1.5,2,1.1,2.8,2,.8.9,1.4,1.9,1.8,3.1.4,1.2.7,2.5.7,4ZM98.4,19.7c-.4-.3-1-.7-1.8-1-.8-.3-1.7-.5-2.6-.5-1,0-1.8.2-2.5.5-.7.3-1.3.8-1.7,1.4-.4.6-.8,1.3-.9,2.2-.2.8-.3,1.7-.3,2.7,0,2.2.5,3.9,1.6,5.1,1.1,1.2,2.6,1.8,4.4,1.8s1.7,0,2.3-.1c.6,0,1.1-.2,1.4-.3,0,0,0-11.8,0-11.8ZM98.4,8.5l3.4-.6v25.9c-.8.2-1.8.4-3,.6-1.2.2-2.6.3-4.2.3s-2.8-.2-3.9-.7c-1.2-.5-2.2-1.1-3-1.9-.8-.8-1.5-1.9-1.9-3.1-.4-1.2-.7-2.6-.7-4.1s.2-2.8.6-4c.4-1.2.9-2.2,1.7-3.1.7-.9,1.6-1.6,2.7-2,1.1-.5,2.3-.7,3.6-.7s2.1.1,2.9.4,1.5.6,1.9.8c0,0,0-8,0-8ZM106.8,34.4h3.4V15.7h-3.4v18.7ZM108.4,12.3c-.6,0-1.1-.2-1.5-.6-.4-.4-.6-.9-.6-1.6s.2-1.2.6-1.6c.4-.4.9-.6,1.5-.6s1.1.2,1.5.6c.4.4.6.9.6,1.6s-.2,1.2-.6,1.6c-.4.4-.9.6-1.5.6ZM135.4,34.8c-2.1,0-3.6-.5-4.4-1.3-.9-.8-1.3-2.1-1.3-3.9V9l3.4.5v19.4c0,.6,0,1,.1,1.4,0,.4.3.6.5.9.2.2.5.4.9.5.4.1.8.2,1.3.3l-.5,2.8h0ZM122.9,7.9c.8,0,1.6,0,2.2.2.6.1,1,.2,1.3.3l-.5,2.9c-.4-.1-.7-.2-1.1-.3-.5-.1-1-.2-1.7-.2-1.6,0-2.7.4-3.3,1.3-.6.9-.9,2-.9,3.4v.2h6.3l-.4,2.8h-5.9v15.9h-3.4V15.4c0-2.4.6-4.3,1.8-5.6,1.2-1.3,3.1-2,5.6-2h0ZM150.7,15.7c-.6,2.6-1.2,5.1-1.9,7.6-.7,2.5-1.5,5-2.4,7.5-.6-1.3-1.2-2.5-1.7-3.8-.5-1.3-1-2.6-1.5-4-.5-1.3-.9-2.6-1.3-3.9-.4-1.2-.7-2.3-1-3.5h-3.6c.9,3.3,2,6.6,3.3,9.8,1.3,3.2,2.8,6.3,4.3,9.2-.6,1.3-1.3,2.3-2,2.9-.8.6-1.8.9-3.1.9s-.8,0-1.3-.2c-.2,0-.3,0-.5-.1l-.5,2.7c.4.1.9.2,1.4.3.3,0,.6,0,.8,0,1,0,1.9-.1,2.7-.4.8-.2,1.5-.6,2.1-1.1.6-.5,1.2-1.1,1.7-1.9.5-.8,1-1.7,1.5-2.8,1.3-3,2.5-6,3.5-9.1,1.1-3.4,2.1-6.7,2.9-10.2,0,0-3.5,0-3.5,0ZM61,18.4c-.8-.2-1.6-.3-2.4-.3-1.1,0-2.1.2-2.8.5-.8.3-1.4.8-1.9,1.4-.5.6-.9,1.3-1.1,2.2-.2.8-.3,1.8-.3,2.8,0,2.3.5,4,1.5,5.1,1,1.2,2.5,1.8,4.4,1.8s1.5,0,2.1-.2c.6-.1,1.3-.3,1.8-.6l.5,2.9c-.7.2-1.4.4-2.1.6-.8.1-1.8.3-2.7.3-1.4,0-2.6-.2-3.8-.7-1.1-.5-2.1-1.2-2.9-2.1-.8-.9-1.4-1.9-1.8-3.1-.4-1.2-.6-2.5-.6-4s.2-2.8.6-3.9c.4-1.2,1-2.2,1.8-3.1.8-.9,1.8-1.5,2.9-2,1.2-.5,2.5-.7,4-.7s1,0,1.5,0c.5,0,1,.1,1.5.2.4,0,.7.1,1,.2v3c-.3-.1-.7-.2-1.1-.3"/>
    <g>
      <path class="cls-2" d="M9,34.5c0,2.9.2,5.7.8,8.4.9-4.3,2.5-8.4,4.7-12.1-1.7-.7-3.3-1.6-4.9-2.5-.4,2.1-.6,4.2-.6,6.3M41.9,12.2c-3.7-1.1-7.2-2.8-10.5-5-2-1.4-3.9-2.9-5.7-4.6h0c-3.3,2.3-6.1,5.1-8.5,8.3,3.4,2.3,7.2,4.1,11.1,5.4-.9-2.3-1.6-4.6-2-7.1,5.3.5,10.5,1.5,15.6,3"/>
      <path class="cls-2" d="M17.6,13.7c-2.5-1.3-4.9-2.8-7.1-4.6C7.3,6.5,4.4,3.4,2,0,1.4,2,1,4,.6,6c.2,1.1.5,2.1,1,3.1.2.4.4.8.7,1.2,1.1,1.7,2.8,3.1,4.8,4h0s-.1,0-.1,0c-2.6-1.2-4.9-2.9-6.8-5.1,0,.4-.1,1.5-.1,1.6C0,12.2,0,13.6,0,15c3.6,6.2,8.9,11.2,15.3,14.5,3.2-4.9,7.5-9.1,12.5-12.1-3.5-.8-6.9-2.1-10.1-3.7"/>
    </g>
  </g>
  <g>
    <path class="cls-1" d="M79.2,25.1c0-2.1-.5-3.8-1.4-5-1-1.2-2.3-1.9-3.9-1.9s-3,.6-3.9,1.9c-1,1.2-1.4,2.9-1.4,5s.5,3.8,1.4,5c1,1.2,2.3,1.9,3.9,1.9s3-.6,3.9-1.9c1-1.2,1.4-2.9,1.4-5ZM82.8,25.1c0,1.5-.2,2.8-.7,4s-1.1,2.2-1.8,3.1c-.8.9-1.7,1.5-2.8,2-1.1.5-2.3.7-3.6.7s-2.5-.2-3.6-.7c-1.1-.5-2-1.1-2.8-2-.8-.9-1.4-1.9-1.8-3.1-.4-1.2-.7-2.5-.7-4s.2-2.8.7-4c.4-1.2,1.1-2.2,1.8-3.1.8-.9,1.7-1.5,2.8-2,1.1-.5,2.3-.7,3.6-.7s2.5.2,3.6.7c1.1.5,2,1.1,2.8,2,.8.9,1.4,1.9,1.8,3.1.4,1.2.7,2.5.7,4ZM98.4,19.7c-.4-.3-1-.7-1.8-1-.8-.3-1.7-.5-2.6-.5-1,0-1.8.2-2.5.5-.7.3-1.3.8-1.7,1.4-.4.6-.8,1.3-.9,2.2-.2.8-.3,1.7-.3,2.7,0,2.2.5,3.9,1.6,5.1,1.1,1.2,2.6,1.8,4.4,1.8s1.7,0,2.3-.1c.6,0,1.1-.2,1.4-.3,0,0,0-11.8,0-11.8ZM98.4,8.5l3.4-.6v25.9c-.8.2-1.8.4-3,.6-1.2.2-2.6.3-4.2.3s-2.8-.2-3.9-.7c-1.2-.5-2.2-1.1-3-1.9-.8-.8-1.5-1.9-1.9-3.1-.4-1.2-.7-2.6-.7-4.1s.2-2.8.6-4c.4-1.2.9-2.2,1.7-3.1.7-.9,1.6-1.6,2.7-2,1.1-.5,2.3-.7,3.6-.7s2.1.1,2.9.4,1.5.6,1.9.8c0,0,0-8,0-8ZM106.8,34.4h3.4V15.7h-3.4v18.7ZM108.4,12.3c-.6,0-1.1-.2-1.5-.6-.4-.4-.6-.9-.6-1.6s.2-1.2.6-1.6c.4-.4.9-.6,1.5-.6s1.1.2,1.5.6c.4.4.6.9.6,1.6s-.2,1.2-.6,1.6c-.4.4-.9.6-1.5.6ZM135.4,34.8c-2.1,0-3.6-.5-4.4-1.3-.9-.8-1.3-2.1-1.3-3.9V9l3.4.5v19.4c0,.6,0,1,.1,1.4,0,.4.3.6.5.9.2.2.5.4.9.5.4.1.8.2,1.3.3l-.5,2.8h0ZM122.9,7.9c.8,0,1.6,0,2.2.2.6.1,1,.2,1.3.3l-.5,2.9c-.4-.1-.7-.2-1.1-.3-.5-.1-1-.2-1.7-.2-1.6,0-2.7.4-3.3,1.3-.6.9-.9,2-.9,3.4v.2h6.3l-.4,2.8h-5.9v15.9h-3.4V15.4c0-2.4.6-4.3,1.8-5.6,1.2-1.3,3.1-2,5.6-2h0ZM150.7,15.7c-.6,2.6-1.2,5.1-1.9,7.6-.7,2.5-1.5,5-2.4,7.5-.6-1.3-1.2-2.5-1.7-3.8-.5-1.3-1-2.6-1.5-4-.5-1.3-.9-2.6-1.3-3.9-.4-1.2-.7-2.3-1-3.5h-3.6c.9,3.3,2,6.6,3.3,9.8,1.3,3.2,2.8,6.3,4.3,9.2-.6,1.3-1.3,2.3-2,2.9-.8.6-1.8.9-3.1.9s-.8,0-1.3-.2c-.2,0-.3,0-.5-.1l-.5,2.7c.4.1.9.2,1.4.3.3,0,.6,0,.8,0,1,0,1.9-.1,2.7-.4.8-.2,1.5-.6,2.1-1.1.6-.5,1.2-1.1,1.7-1.9.5-.8,1-1.7,1.5-2.8,1.3-3,2.5-6,3.5-9.1,1.1-3.4,2.1-6.7,2.9-10.2,0,0-3.5,0-3.5,0ZM61,18.4c-.8-.2-1.6-.3-2.4-.3-1.1,0-2.1.2-2.8.5-.8.3-1.4.8-1.9,1.4-.5.6-.9,1.3-1.1,2.2-.2.8-.3,1.8-.3,2.8,0,2.3.5,4,1.5,5.1,1,1.2,2.5,1.8,4.4,1.8s1.5,0,2.1-.2c.6-.1,1.3-.3,1.8-.6l.5,2.9c-.7.2-1.4.4-2.1.6-.8.1-1.8.3-2.7.3-1.4,0-2.6-.2-3.8-.7-1.1-.5-2.1-1.2-2.9-2.1-.8-.9-1.4-1.9-1.8-3.1-.4-1.2-.6-2.5-.6-4s.2-2.8.6-3.9c.4-1.2,1-2.2,1.8-3.1.8-.9,1.8-1.5,2.9-2,1.2-.5,2.5-.7,4-.7s1,0,1.5,0c.5,0,1,.1,1.5.2.4,0,.7.1,1,.2v3c-.3-.1-.7-.2-1.1-.3"/>
    <g>
      <path class="cls-1" d="M9,34.5c0,2.9.2,5.7.8,8.4.9-4.3,2.5-8.4,4.7-12.1-1.7-.7-3.3-1.6-4.9-2.5-.4,2.1-.6,4.2-.6,6.3M41.9,12.2c-3.7-1.1-7.2-2.8-10.5-5-2-1.4-3.9-2.9-5.7-4.6h0c-3.3,2.3-6.1,5.1-8.5,8.3,3.4,2.3,7.2,4.1,11.1,5.4-.9-2.3-1.6-4.6-2-7.1,5.3.5,10.5,1.5,15.6,3"/>
      <path class="cls-1" d="M17.6,13.7c-2.5-1.3-4.9-2.8-7.1-4.6C7.3,6.5,4.4,3.4,2,0,1.4,2,1,4,.6,6c.2,1.1.5,2.1,1,3.1.2.4.4.8.7,1.2,1.1,1.7,2.8,3.1,4.8,4h0s-.1,0-.1,0c-2.6-1.2-4.9-2.9-6.8-5.1,0,.4-.1,1.5-.1,1.6C0,12.2,0,13.6,0,15c3.6,6.2,8.9,11.2,15.3,14.5,3.2-4.9,7.5-9.1,12.5-12.1-3.5-.8-6.9-2.1-10.1-3.7"/>
    </g>
  </g>
</svg>