<?xml version="1.0" encoding="utf-8"?>
<!-- Generator: Adobe Illustrator 22.0.1, SVG Export Plug-In . SVG Version: 6.00 Build 0)  -->
<svg version="1.1" id="Laag_1" xmlns="http://www.w3.org/2000/svg" xmlns:xlink="http://www.w3.org/1999/xlink" x="0px" y="0px"
	 viewBox="0 0 396.9 280.9" style="enable-background:new 0 0 396.9 280.9;" xml:space="preserve">
<style type="text/css">
	.st0{fill:#009DE0;}
	.st1{fill:#FFFFFF;}
</style>
<g>
	<path class="st0" d="M370.5,280.6H26.4C11.9,280.6,0,268.8,0,254.3V26.4C0,11.9,11.9,0,26.4,0h344.1c14.5,0,26.4,11.9,26.4,26.4
		v227.9C396.9,268.8,385,280.6,370.5,280.6z"/>
	<g>
		<g>
			<path class="st1" d="M76,129.8c10.5,2.6,16.4,7.7,18.2,17.7c2.7,15.4-7.7,28.8-27.9,32.3c-3.4,0.6-6.5,0.8-9.4,0.6
				c-1.6,1.5-2.4,3.7-2.1,5.8c0.5,2.7,2.3,5,10,3.6l12.1-2.1c17.9-3.2,31.1,4.4,33.4,17.5c2.8,16-9.4,28.1-35.8,32.8
				c-29,5.1-38.5-2.9-41.3-18.7l19-3.3c1.3,7.5,5.2,10.2,20.3,7.5c14.6-2.6,17.8-7.3,16.8-13c-0.9-5.4-5.6-8-13.9-6.5l-11.6,2.1
				c-16.6,2.9-24.7-3-26.2-11.4c-1-5.7,1.6-11.8,6.6-16.4c-10.8-3.6-16.2-9.9-18-20.1c-3.1-17.5,8.8-31.1,28.7-34.6
				c18.3-2.8,26.7-9,35.3-16.1l8.1,15.4C92.9,126.1,85.6,128.2,76,129.8z M47.3,154.1c1.6,9.1,7.6,13.6,15.7,12.2
				c8.5-1.5,12.1-7.4,10.4-17.1c-1.7-9.4-6.8-13.1-15.6-11.6C49.8,139.1,45.8,145.5,47.3,154.1z"/>
			<path class="st1" d="M180.4,151.3L131,160c4.2,15,12.1,18.2,22.3,16.4c6.7-1.2,12-4.3,18-10.3l10.9,10.4
				c-6.7,7.6-15.7,13.9-28.1,16c-25.4,4.5-41.6-9.9-46-34.7c-4.2-23.9,5.4-44.7,28.5-48.8c22.4-4,38.3,8.6,42.8,33.9
				C179.8,145.7,180.1,149.1,180.4,151.3z M157.2,140.8c-2.1-11.9-7.5-19-17.7-17.2c-8.4,1.5-12.6,8.1-11,23.2l28.8-5.1L157.2,140.8
				z"/>
			<path class="st1" d="M258.5,112.3l10.2,57.6l-21.2,3.7l-9.5-54.1c-1.6-9.1-5.3-11.1-10.7-10.1c-6.1,1.1-10.2,6-13.3,13.7
				l9.6,54.6l-21.2,3.7l-14-79.1l18.4-3.2l3.4,9.7c5-9,11.9-14.9,22-16.7C246,89.9,255.8,97.4,258.5,112.3z"/>
			<path class="st1" d="M316,164.1c-16.5,2.7-26.5-5.2-29.6-22.8l-7-39.4l-11.8,2.1L265,89l11.8-2.1l-3.1-17.3l20.8-6.3l3.5,19.9
				l18.2-3.2l0.5,15.3l-16.1,2.8l6.9,39c1.4,7.8,4.4,10.3,9.8,9.4c2.8-0.5,5.5-1.9,8.5-4.4l9.7,12.3
				C330.4,159.4,323,162.8,316,164.1z"/>
		</g>
		<path class="st1" d="M361.2,84.9c1.2,7-3.4,13.8-10.6,15.1c-7,1.2-13.7-3.6-15-10.6c-1.2-6.9,3.4-13.7,10.5-14.9
			C353.3,73.2,360,78,361.2,84.9z"/>
		<path class="st1" d="M369.6,138.8c1.2,7-3.4,13.8-10.6,15.1c-7,1.2-13.7-3.6-15-10.6c-1.2-6.9,3.4-13.7,10.5-14.9
			C361.7,127.1,368.4,131.9,369.6,138.8z"/>
	</g>
</g>
</svg>
