<svg id="Layer_1" data-name="Layer 1" xmlns="http://www.w3.org/2000/svg" xmlns:xlink="http://www.w3.org/1999/xlink" viewBox="0 0 401 400"><defs><style>.cls-1{fill:none;}.cls-2{clip-path:url(#clip-path);}.cls-3{fill:#fff;}.cls-4{fill:#beda7a;}.cls-5,.cls-6,.cls-7{fill:#fffee9;}.cls-6,.cls-7{stroke:#bfdb79;}.cls-6{stroke-miterlimit:10;}.cls-7{stroke-linejoin:round;stroke-width:2px;}</style><clipPath id="clip-path"><rect class="cls-1" width="400" height="400"/></clipPath></defs><title>crest - the ideation barn</title><g class="cls-2"><rect class="cls-3" width="400" height="400"/><circle class="cls-4" cx="201" cy="200" r="200"/><path class="cls-5" d="M190.5,186.51A3.43,3.43,0,0,0,194,190l.51,0a4,4,0,0,0,.54-.07,1.9,1.9,0,0,0,.46-.15v4a3.9,3.9,0,0,1-.71.24,5.85,5.85,0,0,1-1.78.24,7.13,7.13,0,0,1-2.78-.53,7,7,0,0,1-2.22-1.56,7.15,7.15,0,0,1-1.49-2.42,9.5,9.5,0,0,1-.51-3.22V175.74h-4v-4.25h1.76a3,3,0,0,0,2.15-.83,2.92,2.92,0,0,0,.85-2.15v-3h3.74v6h5v4.25h-5Zm21.24-15.26a8.43,8.43,0,0,1,3.49.73,8.9,8.9,0,0,1,4.81,5.08,10.6,10.6,0,0,1,.71,3.95v13h-4.5V181a5.07,5.07,0,0,0-.44-2.1,5.62,5.62,0,0,0-1.14-1.76A5.32,5.32,0,0,0,213,176a4.52,4.52,0,0,0-2-.47,5,5,0,0,0-2.15.47,5.64,5.64,0,0,0-1.76,1.19,5.79,5.79,0,0,0-1.2,1.76,5.42,5.42,0,0,0-.41,2.1v13H201V162.51h4.5v11.25a9.3,9.3,0,0,1,1.61-1.27,12.31,12.31,0,0,1,2-.83A7.82,7.82,0,0,1,211.74,171.25ZM246,187.51a13.21,13.21,0,0,1-1.42,2.61,9.71,9.71,0,0,1-2,2.15,9.53,9.53,0,0,1-2.78,1.46,11.27,11.27,0,0,1-3.51.51,10.58,10.58,0,0,1-4.21-.83,10.69,10.69,0,0,1-3.41-2.36,11.28,11.28,0,0,1-2.3-3.64,12.69,12.69,0,0,1-.83-4.67,12.55,12.55,0,0,1,.83-4.63,11.55,11.55,0,0,1,2.25-3.62,10.09,10.09,0,0,1,14.84,0,11.2,11.2,0,0,1,2.25,3.62,12.55,12.55,0,0,1,.83,4.63,6.84,6.84,0,0,1,0,.79c0,.24-.06.45-.1.63a6,6,0,0,1-.1.59h-16a5.16,5.16,0,0,0,.61,2,6.58,6.58,0,0,0,1.27,1.68,6.09,6.09,0,0,0,1.85,1.15,6.23,6.23,0,0,0,2.28.42,5.41,5.41,0,0,0,3.24-.88,8.17,8.17,0,0,0,1.76-1.61Zm-10-12a5.24,5.24,0,0,0-3.81,1.54,7.06,7.06,0,0,0-1.95,4h12a6.84,6.84,0,0,0-2-4A5.87,5.87,0,0,0,236,175.49ZM188.49,233H184V210.49h4.49Zm-2.24-26a2.72,2.72,0,0,1-2.76-2.76,2.58,2.58,0,0,1,.81-1.93,2.62,2.62,0,0,1,1.95-.8,2.65,2.65,0,0,1,1.95.8,2.58,2.58,0,0,1,.81,1.93,2.63,2.63,0,0,1-.81,1.95A2.66,2.66,0,0,1,186.25,207ZM204,233.24a10.5,10.5,0,0,1-4.2-.83,11,11,0,0,1-3.44-2.36,11.28,11.28,0,0,1-2.3-3.64,12.9,12.9,0,0,1-.8-4.67,12.75,12.75,0,0,1,.8-4.63,11,11,0,0,1,2.3-3.62,10.81,10.81,0,0,1,3.44-2.39,10.34,10.34,0,0,1,4.2-.85,8.11,8.11,0,0,1,2.76.41,13.12,13.12,0,0,1,2,.83,7.51,7.51,0,0,1,1.54,1.27V201.51h4.49V233h-3.25l-1-2.25A7,7,0,0,1,209,232a9.67,9.67,0,0,1-2,.88A10.47,10.47,0,0,1,204,233.24Zm.24-18.75a5.8,5.8,0,0,0-2.46.54,6.08,6.08,0,0,0-2.08,1.49,7.58,7.58,0,0,0-1.44,2.32,8,8,0,0,0-.51,2.9,8.1,8.1,0,0,0,.51,2.94A7.67,7.67,0,0,0,199.7,227a6.28,6.28,0,0,0,2.08,1.51,6.1,6.1,0,0,0,4.93,0,6,6,0,0,0,2.07-1.51,7.25,7.25,0,0,0,1.42-2.29,7.7,7.7,0,0,0,.54-2.94,7.59,7.59,0,0,0-.54-2.92,7.18,7.18,0,0,0-1.42-2.3,5.78,5.78,0,0,0-2.07-1.49A5.85,5.85,0,0,0,204.24,214.49Zm36.28,12a12.71,12.71,0,0,1-1.42,2.61,9.71,9.71,0,0,1-2,2.15,9.53,9.53,0,0,1-2.78,1.46,11.27,11.27,0,0,1-3.51.51,10.5,10.5,0,0,1-4.2-.83,10.84,10.84,0,0,1-3.42-2.36,11.28,11.28,0,0,1-2.3-3.64,12.69,12.69,0,0,1-.83-4.67,12.55,12.55,0,0,1,.83-4.63,11.55,11.55,0,0,1,2.25-3.62,10.15,10.15,0,0,1,11.5-2.39,10,10,0,0,1,3.34,2.39,11.2,11.2,0,0,1,2.25,3.62,12.55,12.55,0,0,1,.83,4.63,6.84,6.84,0,0,1,0,.79c0,.24-.06.45-.1.63s-.06.42-.09.59h-16a5.34,5.34,0,0,0,.61,2,6.82,6.82,0,0,0,1.27,1.68,6,6,0,0,0,1.86,1.15,6.14,6.14,0,0,0,2.27.42,5.39,5.39,0,0,0,3.24-.88,8.17,8.17,0,0,0,1.76-1.61Zm-10-12A5.24,5.24,0,0,0,226.7,216a7.12,7.12,0,0,0-1.95,4h12a6.84,6.84,0,0,0-2-4A5.87,5.87,0,0,0,230.51,214.49Zm24-4.24a9.77,9.77,0,0,1,3.57.63,8.26,8.26,0,0,1,2.78,1.69,7.54,7.54,0,0,1,1.78,2.53,7.84,7.84,0,0,1,.63,3.15V233H260l-1-2.25a6.75,6.75,0,0,1-1.57,1.25,9.67,9.67,0,0,1-2,.88,10.42,10.42,0,0,1-2.93.36,8.14,8.14,0,0,1-5.76-1.85,6.44,6.44,0,0,1-2-4.88,7.28,7.28,0,0,1,.63-3.08,5.48,5.48,0,0,1,2.23-2.34,12.88,12.88,0,0,1,4.27-1.52,35.06,35.06,0,0,1,6.86-.56v-.76a3.59,3.59,0,0,0-1.08-2.73,4.43,4.43,0,0,0-3.17-1,5.27,5.27,0,0,0-3.27.81,3.13,3.13,0,0,0-1.22,1.95h-4.49a6.94,6.94,0,0,1,2.51-5A9.56,9.56,0,0,1,254.51,210.25Zm-1.73,19a6.23,6.23,0,0,0,4.42-1.47,4.69,4.69,0,0,0,1.56-3.56V223a33.23,33.23,0,0,0-4.86.29A10.56,10.56,0,0,0,251,224a2.81,2.81,0,0,0-1.42,1.17,3.52,3.52,0,0,0-.34,1.54,2.27,2.27,0,0,0,.9,1.73A4,4,0,0,0,252.78,229.24ZM275,225.51a3.34,3.34,0,0,0,1,2.48,3.39,3.39,0,0,0,2.49,1l.51,0a4,4,0,0,0,.54-.07,1.77,1.77,0,0,0,.46-.15v4a4.06,4.06,0,0,1-.7.24,6,6,0,0,1-1.79.24,7.13,7.13,0,0,1-2.78-.53,7,7,0,0,1-2.22-1.56,7.15,7.15,0,0,1-1.49-2.42,9.5,9.5,0,0,1-.51-3.22V214.74h-4v-4.25h1.76a3,3,0,0,0,2.15-.83,2.92,2.92,0,0,0,.85-2.15v-3H275v6h5v4.25h-5ZM289.77,233h-4.5V210.49h4.5Zm-2.25-26a2.72,2.72,0,0,1-2.76-2.76,2.58,2.58,0,0,1,.81-1.93,2.62,2.62,0,0,1,1.95-.8,2.65,2.65,0,0,1,2,.8,2.58,2.58,0,0,1,.81,1.93,2.63,2.63,0,0,1-.81,1.95A2.66,2.66,0,0,1,287.52,207Zm24,14.74a8,8,0,0,0-1.91-5.22,5.7,5.7,0,0,0-2-1.49,5.41,5.41,0,0,0-2.34-.54,5.49,5.49,0,0,0-2.35.54,5.79,5.79,0,0,0-2,1.49,8.08,8.08,0,0,0-1.39,2.32,8,8,0,0,0-.51,2.9,8.1,8.1,0,0,0,.51,2.94,8.2,8.2,0,0,0,1.39,2.29,6,6,0,0,0,2,1.51,5.77,5.77,0,0,0,2.35.52,5.69,5.69,0,0,0,2.34-.52,5.88,5.88,0,0,0,2-1.51,8,8,0,0,0,1.91-5.23Zm4.49,0a12.8,12.8,0,0,1-.83,4.67,10.51,10.51,0,0,1-5.71,6,11,11,0,0,1-8.4,0,10.51,10.51,0,0,1-5.74-6,12.9,12.9,0,0,1-.81-4.67,12.75,12.75,0,0,1,.81-4.63,10.73,10.73,0,0,1,5.74-6,10.8,10.8,0,0,1,8.4,0,10.61,10.61,0,0,1,3.42,2.39,10.5,10.5,0,0,1,2.29,3.62A12.55,12.55,0,0,1,316,221.74Zm15.5-11.49A8.4,8.4,0,0,1,335,211a9,9,0,0,1,2.89,2,9.25,9.25,0,0,1,1.92,3.08,10.41,10.41,0,0,1,.71,3.95v13H336V220a5.24,5.24,0,0,0-.44-2.1,5.57,5.57,0,0,0-2.83-2.95,4.52,4.52,0,0,0-2-.47,5,5,0,0,0-2.15.47,5.64,5.64,0,0,0-1.76,1.19,5.88,5.88,0,0,0-1.17,1.76,5.25,5.25,0,0,0-.42,2.1v13h-4.49V210.49H324l1,2.27a8.08,8.08,0,0,1,1.54-1.27,11.79,11.79,0,0,1,2-.83A9.09,9.09,0,0,1,331.51,210.25ZM195,272.24a10.42,10.42,0,0,1-2.93-.36,8.15,8.15,0,0,1-3.57-2.13l-1,2.25h-3.24V240.51h4.49v11.25a7.92,7.92,0,0,1,1.56-1.27,12.83,12.83,0,0,1,2-.83,7.93,7.93,0,0,1,2.73-.41,10.34,10.34,0,0,1,4.2.85,10.61,10.61,0,0,1,3.42,2.39,10.87,10.87,0,0,1,2.32,3.62,12.55,12.55,0,0,1,.83,4.63,12.8,12.8,0,0,1-.83,4.67,11.16,11.16,0,0,1-2.32,3.64,10.84,10.84,0,0,1-3.42,2.36A10.5,10.5,0,0,1,195,272.24Zm-.25-18.75a5.8,5.8,0,0,0-2.46.54,6.28,6.28,0,0,0-2.08,1.49,7.58,7.58,0,0,0-1.44,2.32,8.59,8.59,0,0,0,0,5.83,7.6,7.6,0,0,0,1.44,2.3,6.49,6.49,0,0,0,2.08,1.51,6.1,6.1,0,0,0,4.93,0,6.08,6.08,0,0,0,2.08-1.51,7.16,7.16,0,0,0,1.41-2.3,8.19,8.19,0,0,0,0-5.85,7.16,7.16,0,0,0-1.41-2.3,5.9,5.9,0,0,0-2.08-1.49A5.81,5.81,0,0,0,194.74,253.49Zm24.52-4.24a9.68,9.68,0,0,1,3.56.63,8.16,8.16,0,0,1,2.78,1.69,7.57,7.57,0,0,1,1.79,2.53,7.81,7.81,0,0,1,.63,3.15V272h-3.25l-1-2.25a6.91,6.91,0,0,1-1.56,1.25,9.27,9.27,0,0,1-2,.88,10.4,10.4,0,0,1-2.92.36,8.18,8.18,0,0,1-5.77-1.85,6.45,6.45,0,0,1-2-4.88,7.28,7.28,0,0,1,.63-3.08,5.51,5.51,0,0,1,2.22-2.34,12.94,12.94,0,0,1,4.28-1.52,35,35,0,0,1,6.86-.56v-.76a3.58,3.58,0,0,0-1.08-2.73,4.44,4.44,0,0,0-3.17-1,5.27,5.27,0,0,0-3.27.81,3.15,3.15,0,0,0-1.23,1.95h-4.49a7,7,0,0,1,2.52-5A9.54,9.54,0,0,1,219.26,249.25Zm-1.74,19a6.19,6.19,0,0,0,4.42-1.47,4.7,4.7,0,0,0,1.57-3.56V262a33,33,0,0,0-4.86.29,10.46,10.46,0,0,0-2.88.76,2.76,2.76,0,0,0-1.42,1.17,3.38,3.38,0,0,0-.34,1.54,2.26,2.26,0,0,0,.9,1.73A3.93,3.93,0,0,0,217.52,268.24Zm26.22-19a3.67,3.67,0,0,1,.64,0l.49.1.39.1V254a3.8,3.8,0,0,0-.47-.1l-.51-.1a2,2,0,0,0-.54-.07,5,5,0,0,0-2.14.46,5.5,5.5,0,0,0-1.76,1.2,5.76,5.76,0,0,0-1.17,1.76,5.32,5.32,0,0,0-.42,2.1V272h-4.49V249.49H237l1,2.27a7.12,7.12,0,0,1,1.44-1.27,9.64,9.64,0,0,1,1.78-.83A6.88,6.88,0,0,1,243.74,249.25Zm16.24,0a8.4,8.4,0,0,1,3.49.73,8.87,8.87,0,0,1,2.88,2,9.12,9.12,0,0,1,1.93,3.08A10.6,10.6,0,0,1,269,259v13H264.5V259a5.24,5.24,0,0,0-.44-2.1,5.57,5.57,0,0,0-2.83-3,4.56,4.56,0,0,0-2-.47,5.07,5.07,0,0,0-2.15.47,5.71,5.71,0,0,0-1.75,1.19,5.88,5.88,0,0,0-1.17,1.76,5.25,5.25,0,0,0-.42,2.1v13h-4.49V249.49h3.24l1,2.27a8.33,8.33,0,0,1,1.53-1.27,12.28,12.28,0,0,1,2-.83A9,9,0,0,1,260,249.25Z"/><path class="cls-5" d="M208.82,113.83l-37,39c-6,6.69-26.61,9.9-35.51,8.53l-5.52-.85c2.34,10.12-5.35,25.8-15.74,25.8L66,187.82l61.8-70a5,5,0,0,1,3.37-1.67l76.06-5.58A2,2,0,0,1,208.82,113.83Z"/><path class="cls-5" d="M156.25,194.6H74.55a3.57,3.57,0,0,0-3.67,3.45v63.33a3.53,3.53,0,0,0,3.41,3.44L156,270.4a3.59,3.59,0,0,0,4-3.44V198.05A3.59,3.59,0,0,0,156.25,194.6Zm-55.36,46.11a.94.94,0,0,1-1,.91L86.77,241a.94.94,0,0,1-.93-.91V221.45a.94.94,0,0,1,1-.9h13.1a.94.94,0,0,1,1,.9v19.26Zm36.3,2.39a1,1,0,0,1-1,.91l-14.32-.7a1,1,0,0,1-.91-.91V222.15a.94.94,0,0,1,1-.91h14.31a1,1,0,0,1,1,.91V243.1Z"/><path class="cls-6" d="M190.12,108.28l-10.84,0a1.86,1.86,0,0,1-1.86-1.67,1.64,1.64,0,0,1,1-1.66,1.81,1.81,0,0,0,1.14-1.68V94.91a2.06,2.06,0,0,0-.54-1.29,1.48,1.48,0,0,0-.58-.37,1.74,1.74,0,0,1-1-1.69A1.71,1.71,0,0,1,179.23,90h10.82a1.84,1.84,0,0,1,1.88,1.64,1.73,1.73,0,0,1-1.09,1.74,1.88,1.88,0,0,0-1,1.67v8.24A1.84,1.84,0,0,0,191,105a1.63,1.63,0,0,1,1,1.69A1.76,1.76,0,0,1,190.12,108.28Z"/><path class="cls-7" d="M183.74,120.29a1,1,0,0,0,1.91,0l3-10a1,1,0,0,0-.16-.9,1,1,0,0,0-.83-.39l-6.05.21a1,1,0,0,0-.78.42,1,1,0,0,0-.14.87Z"/></g></svg>