<svg width="400" height="400" viewBox="0 0 400 400" fill="none" xmlns="http://www.w3.org/2000/svg">
<circle cx="200" cy="200" r="200" fill="#A0F0D8"/>
<mask id="mask0" mask-type="alpha" maskUnits="userSpaceOnUse" x="0" y="0" width="401" height="400">
<circle cx="200" cy="200" r="200" fill="#A0F0D8"/>
</mask>
<g mask="url(#mask0)">
<line x1="163.697" y1="-10.6383" x2="163.697" y2="412.057" stroke="#8FD9C1" stroke-width="3"/>
<line x1="412.165" y1="165.805" x2="-14.3112" y2="165.805" stroke="#8FD9C1" stroke-width="3"/>
<line x1="300.414" y1="-10.6383" x2="300.414" y2="412.057" stroke="#8FD9C1" stroke-width="3"/>
<line x1="412.165" y1="301.31" x2="-14.3112" y2="301.31" stroke="#8FD9C1" stroke-width="3"/>
<line x1="96.3583" y1="-10.6383" x2="96.3583" y2="412.057" stroke="#8FD9C1" stroke-width="3"/>
<line x1="412.165" y1="99.0635" x2="-14.3112" y2="99.0634" stroke="#8FD9C1" stroke-width="3"/>
<line x1="234.436" y1="-10.6383" x2="234.436" y2="412.057" stroke="#8FD9C1" stroke-width="3"/>
<line x1="412.165" y1="235.917" x2="-14.3112" y2="235.917" stroke="#8FD9C1" stroke-width="3"/>
<line x1="30.3804" y1="-10.6383" x2="30.3804" y2="412.057" stroke="#8FD9C1" stroke-width="3"/>
<line x1="412.165" y1="33.6705" x2="-14.3112" y2="33.6705" stroke="#8FD9C1" stroke-width="3"/>
<line x1="370.473" y1="-10.6383" x2="370.473" y2="412.057" stroke="#8FD9C1" stroke-width="3"/>
<line x1="412.165" y1="370.748" x2="-14.3112" y2="370.748" stroke="#8FD9C1" stroke-width="3"/>
<ellipse cx="97.2629" cy="164.939" rx="21.413" ry="20.2585" fill="#AE9AF8"/>
<path d="M97.2506 199.186C97.2506 199.186 115.315 181.21 117.617 171.012C119.919 160.814 74.9456 161.159 76.8841 171.012C78.8226 180.864 97.2506 199.186 97.2506 199.186Z" fill="#AE9AF8"/>
<ellipse cx="97.2628" cy="162.828" rx="8.37899" ry="8.30471" fill="#A0F0D8"/>
<path d="M65.9038 222.236C65.9513 221.999 66.0287 221.815 66.1791 221.634C71.2833 215.495 123.178 211.321 126.854 221.069C130.085 229.636 122.458 261.293 120.358 269.616C120.054 270.82 119.038 271.631 117.875 271.631L76.5182 271.631C75.3314 271.631 74.2996 270.785 74.011 269.549C72.01 260.98 64.6304 228.589 65.9038 222.236Z" fill="#AE9AF8"/>
<path d="M73.6134 203.546C54.6395 203.546 52.2363 220.288 52.2363 227.264C53.5364 238.168 135.701 236.194 141.422 230.334C142.982 211.08 132.116 203.546 125.792 203.546H73.6134Z" fill="#AE9AF8"/>
<path d="M52.2363 228.659C52.2363 226.81 53.6332 225.311 55.3565 225.311H62.6369C64.3601 225.311 65.7571 226.81 65.7571 228.659V267.725C65.7571 269.574 64.3601 271.073 62.6369 271.073H55.3565C53.6332 271.073 52.2363 269.574 52.2363 267.725V228.659Z" fill="#AE9AF8"/>
<path d="M128.161 228.659C128.161 226.81 129.558 225.311 131.281 225.311H138.562C140.285 225.311 141.682 226.81 141.682 228.659V267.725C141.682 269.574 140.285 271.073 138.562 271.073H131.281C129.558 271.073 128.161 269.574 128.161 267.725V228.659Z" fill="#AE9AF8"/>
<path d="M274.133 226.491C274.18 226.254 274.258 226.07 274.408 225.889C279.512 219.75 331.408 215.576 335.083 225.324C338.314 233.891 330.687 265.548 328.587 273.871C328.283 275.076 327.267 275.887 326.104 275.886L284.747 275.886C283.56 275.886 282.529 275.04 282.24 273.805C280.239 265.236 272.859 232.844 274.133 226.491Z" fill="#AE9AF8"/>
<path d="M281.843 207.801C262.869 207.801 260.465 224.544 260.465 231.52C261.766 242.424 343.93 240.449 349.651 234.589C351.211 215.335 340.345 207.801 334.021 207.801H281.843Z" fill="#AE9AF8"/>
<path d="M260.465 232.915C260.465 231.065 261.862 229.566 263.586 229.566H270.866C272.589 229.566 273.986 231.065 273.986 232.915V271.98C273.986 273.829 272.589 275.328 270.866 275.328H263.586C261.862 275.328 260.465 273.829 260.465 271.98V232.915Z" fill="#AE9AF8"/>
<path d="M336.39 232.915C336.39 231.065 337.787 229.566 339.51 229.566H346.791C348.514 229.566 349.911 231.065 349.911 232.915V271.98C349.911 273.829 348.514 275.328 346.791 275.328H339.51C337.787 275.328 336.39 273.829 336.39 271.98V232.915Z" fill="#AE9AF8"/>
<ellipse cx="304.776" cy="169.195" rx="21.413" ry="20.2585" fill="#AE9AF8"/>
<path d="M304.764 203.441C304.764 203.441 322.828 185.465 325.131 175.267C327.433 165.069 282.459 165.415 284.398 175.267C286.336 185.119 304.764 203.441 304.764 203.441Z" fill="#AE9AF8"/>
<ellipse cx="305.087" cy="167.391" rx="8.68932" ry="8.61229" fill="#A0F0D8"/>
<mask id="path-23-outside-1" maskUnits="userSpaceOnUse" x="113.939" y="178.071" width="174" height="136" fill="black">
<rect fill="white" x="113.939" y="178.071" width="174" height="136"/>
<path d="M148.768 220.782C148.847 220.393 148.976 220.09 149.228 219.793C157.753 209.705 244.433 202.846 250.572 218.865C255.968 232.942 243.228 284.962 239.721 298.638C239.213 300.617 237.516 301.949 235.574 301.949L166.497 301.949C164.515 301.949 162.791 300.559 162.309 298.528C158.967 284.448 146.641 231.222 148.768 220.782Z"/>
<path d="M161.645 190.071C129.953 190.071 125.939 217.582 125.939 229.045C128.111 246.963 265.349 243.718 274.904 234.089C277.51 202.451 259.361 190.071 248.798 190.071H161.645Z"/>
<path d="M125.939 231.338C125.939 228.299 128.273 225.835 131.151 225.835H143.311C146.189 225.835 148.523 228.299 148.523 231.338V263.434V295.53C148.523 298.569 146.189 301.032 143.311 301.032H131.151C128.273 301.032 125.939 298.569 125.939 295.53V231.338Z"/>
<path d="M252.755 231.338C252.755 228.299 255.088 225.835 257.966 225.835H270.127C273.005 225.835 275.338 228.299 275.338 231.338V295.53C275.338 298.569 273.005 301.032 270.127 301.032H257.966C255.088 301.032 252.755 298.569 252.755 295.53V263.434V231.338Z"/>
</mask>
<path d="M148.768 220.782C148.847 220.393 148.976 220.09 149.228 219.793C157.753 209.705 244.433 202.846 250.572 218.865C255.968 232.942 243.228 284.962 239.721 298.638C239.213 300.617 237.516 301.949 235.574 301.949L166.497 301.949C164.515 301.949 162.791 300.559 162.309 298.528C158.967 284.448 146.641 231.222 148.768 220.782Z" fill="#5A50B9"/>
<path d="M161.645 190.071C129.953 190.071 125.939 217.582 125.939 229.045C128.111 246.963 265.349 243.718 274.904 234.089C277.51 202.451 259.361 190.071 248.798 190.071H161.645Z" fill="#5A50B9"/>
<path d="M125.939 231.338C125.939 228.299 128.273 225.835 131.151 225.835H143.311C146.189 225.835 148.523 228.299 148.523 231.338V263.434V295.53C148.523 298.569 146.189 301.032 143.311 301.032H131.151C128.273 301.032 125.939 298.569 125.939 295.53V231.338Z" fill="#5A50B9"/>
<path d="M252.755 231.338C252.755 228.299 255.088 225.835 257.966 225.835H270.127C273.005 225.835 275.338 228.299 275.338 231.338V295.53C275.338 298.569 273.005 301.032 270.127 301.032H257.966C255.088 301.032 252.755 298.569 252.755 295.53V263.434V231.338Z" fill="#5A50B9"/>
<path d="M148.768 220.782C148.847 220.393 148.976 220.09 149.228 219.793C157.753 209.705 244.433 202.846 250.572 218.865C255.968 232.942 243.228 284.962 239.721 298.638C239.213 300.617 237.516 301.949 235.574 301.949L166.497 301.949C164.515 301.949 162.791 300.559 162.309 298.528C158.967 284.448 146.641 231.222 148.768 220.782Z" stroke="#A0F0D8" stroke-width="24" mask="url(#path-23-outside-1)"/>
<path d="M161.645 190.071C129.953 190.071 125.939 217.582 125.939 229.045C128.111 246.963 265.349 243.718 274.904 234.089C277.51 202.451 259.361 190.071 248.798 190.071H161.645Z" stroke="#A0F0D8" stroke-width="24" mask="url(#path-23-outside-1)"/>
<path d="M125.939 231.338C125.939 228.299 128.273 225.835 131.151 225.835H143.311C146.189 225.835 148.523 228.299 148.523 231.338V263.434V295.53C148.523 298.569 146.189 301.032 143.311 301.032H131.151C128.273 301.032 125.939 298.569 125.939 295.53V231.338Z" stroke="#A0F0D8" stroke-width="24" mask="url(#path-23-outside-1)"/>
<path d="M252.755 231.338C252.755 228.299 255.088 225.835 257.966 225.835H270.127C273.005 225.835 275.338 228.299 275.338 231.338V295.53C275.338 298.569 273.005 301.032 270.127 301.032H257.966C255.088 301.032 252.755 298.569 252.755 295.53V263.434V231.338Z" stroke="#A0F0D8" stroke-width="24" mask="url(#path-23-outside-1)"/>
<ellipse cx="200.143" cy="118.591" rx="39.1411" ry="37.0308" fill="#5A50B9"/>
<path d="M200.12 181.191C200.12 181.191 233.141 148.332 237.349 129.691C241.557 111.05 159.349 111.682 162.892 129.691C166.436 147.7 200.12 181.191 200.12 181.191Z" fill="#5A50B9"/>
<ellipse cx="200.506" cy="115.86" rx="15.369" ry="15.2327" fill="#F8BB84"/>
</g>
</svg>
