<svg width="513" height="513" viewBox="0 0 513 513" fill="none" xmlns="http://www.w3.org/2000/svg">
<g filter="url(#filter0_dd)">
<path d="M509 252.5C509 391.952 395.952 505 256.5 505C117.048 505 4 391.952 4 252.5C4 113.048 117.048 0 256.5 0C395.952 0 509 113.048 509 252.5Z" fill="#006994"/>
<path d="M102.149 321.153C102.177 318.965 102.197 317.225 101.995 315.449C102.261 312.223 102.832 308.267 103.409 304.214C104.206 300.478 105.319 296.927 106.637 293.515C107.718 291.036 109.005 288.579 110.304 286.626C112.366 283.647 114.518 280.893 116.948 278.443C119.078 275.985 121.483 273.825 123.831 271.894C126.333 269.654 129.299 267.738 132.166 266.236C134.358 264.823 136.678 263.624 139.234 262.948C142.098 261.759 145.196 261.109 148.274 260.653C150.451 260.387 152.622 260.221 154.717 260.474C155.467 260.49 155.829 261.035 155.969 261.768C155.958 262.601 155.97 263.011 155.589 263.524C155.051 264.555 154.507 265.472 154.122 266.298L142.031 285.72L185.768 281.678C189.221 281.23 192.605 281.279 196.038 282.395C198.878 282.976 201.549 283.998 204.223 285.827C207.269 287.872 210.832 290.434 214.247 293.008L228.325 243.09C232.466 241.614 236.831 240.021 240.975 238.338C240.069 238.84 244.58 236.636 249.255 234.443C254.157 232.046 257.473 230.157 260.723 228.037C267.071 223.899 273.219 219.215 279.285 213.82C282.317 211.175 285.648 208.017 289.063 204.754C291.114 202.609 293.304 200.149 295.663 197.385L302.478 188.572C305.907 184.163 309.195 178.935 311.812 173.57C310.545 173.022 309.252 172.453 308.06 171.907C307.688 171.69 307.171 171.372 306.574 171.151C303.593 169.836 301.436 169.052 299.426 167.967C298.012 167.207 296.608 166.465 295.194 165.705C291.924 163.55 288.721 161.815 285.676 159.665C284.487 158.91 283.23 158.122 281.969 157.053C281.45 156.624 280.685 156.099 280.167 155.566C280.171 155.254 280.041 155.274 280.043 155.066C280.043 155.066 279.819 154.831 279.823 154.518C279.676 154.307 279.667 154.017 279.667 154.017C279.676 153.288 280.066 152.741 280.369 152.539C282.551 151.856 284.878 151.396 287.054 151.234C290.511 150.474 293.741 149.614 296.976 148.641C300.285 147.774 303.53 146.259 306.621 144.866C308.728 144.181 311.149 143.019 313.26 142.022C315.297 141.023 317.244 140.122 319.051 139.431C319.58 139.129 319.969 138.931 319.975 138.41C319.982 137.889 319.614 137.678 319.464 137.675C319.315 137.672 319.302 137.672 319.302 137.672L271.105 131.846C270.581 131.835 270.072 131.598 269.547 131.587C268.648 131.568 267.744 131.775 266.845 131.755C263.767 132.211 260.84 133.172 258.121 134.781C254.495 136.997 251.372 139.929 248.48 143.307C245.887 146.796 243.54 150.325 241.541 154.244C239.694 157.957 238.359 161.995 237.256 166.141C236.084 169.869 235.348 174.115 234.921 178.171C234.505 181.394 234.315 184.821 234.272 188.156C222.265 189.359 210.534 191.102 198.817 193.145C181.079 197.04 163.541 205.092 147.051 216.832C142.514 219.967 137.948 223.092 133.557 226.542C130.681 228.67 127.426 231.414 124.313 234.579C121.576 237.544 119.014 240.429 116.655 243.193C114.066 246.369 111.548 250.058 109.098 254.071C104.734 261.17 101.542 269.651 99.4744 278.884C98.6714 283.037 98.1012 287.312 97.5188 291.782C97.4987 293.345 97.2522 294.8 97.2293 296.572C97.2037 298.552 97.3821 300.838 97.5064 302.821C97.9784 306.896 98.6978 310.676 99.6983 314.45C100.419 316.654 101.278 318.945 102.149 321.153ZM282.641 198.283C279.269 198.211 276.546 194.171 276.608 189.377C276.671 184.479 279.496 180.662 282.867 180.734C286.239 180.806 288.963 184.742 288.9 189.64C288.838 194.433 286.012 198.355 282.641 198.283Z" fill="white"/>
<path d="M144.312 160.127C162.559 145.715 182.616 136.344 203.575 132.518L218.132 131.161L232.983 130.228L248.639 130.771C244.473 134.226 240.673 138.314 237.314 143.037L234.025 148.179C231.266 152.915 229.029 157.871 227.534 163.364C226.814 166.892 226.172 170.11 225.604 173.538L224.601 181.543L208.987 183.503L196.746 185.43L188.482 187.026C183.745 188.176 179.077 189.848 174.331 191.727L159.174 198.909L147.392 205.954L135.373 213.932L124.099 222.239L115.226 230.284L103.876 244.531L95.3544 260.193L95.9569 254.16C98.3813 234.719 103.868 216.073 111.802 199.46C117.196 188.005 123.99 178.456 131.804 171.117L135.977 167.141L144.312 160.127Z" fill="white"/>
<path d="M117.008 348.581C120.411 352.094 123.967 355.193 127.906 357.779L192.009 396.466L193.048 397.218C193.273 397.222 193.42 397.434 193.645 397.439C193.795 397.442 194.172 397.242 194.326 396.932C194.706 396.523 194.713 396.002 194.72 395.481C194.726 394.96 194.733 394.439 194.361 394.223L176.799 361.325L172.925 353.737C172.058 351.217 171.716 348.708 171.598 346.203C171.602 345.891 171.605 345.682 171.608 345.474C171.637 343.181 172.044 340.688 172.598 338.407L174.62 332.717L176.467 329.004C172.558 329.962 168.949 330.824 165.117 331.576C160.231 332.722 155.049 333.55 149.651 333.747C145.152 333.859 140.954 333.978 136.683 333.887C133.464 333.61 129.871 333.325 126.281 332.727C123.89 332.154 121.799 331.589 119.636 330.813C117.997 330.048 116.364 328.762 114.957 327.481C112.664 325.139 110.905 322.079 109.9 318.617C109.037 315.784 108.48 312.541 108.369 309.516C107.583 312.313 107.249 315.016 107.21 318.039C107.203 318.56 107.2 318.768 107.194 319.289C107.295 323.044 107.624 326.595 108.25 330.361C109.322 334.345 110.698 338.127 112.304 341.393C113.695 343.924 115.239 346.25 116.862 348.266C116.858 348.578 117.008 348.581 117.008 348.581Z" fill="white"/>
<path d="M167.085 138.462C163.688 140.37 160.438 142.49 157.334 144.925C156.962 144.709 156.438 144.698 156.063 144.69C153.89 144.643 151.715 144.805 149.61 145.281C143.307 145.876 136.997 146.993 130.833 148.424C137.582 142.314 143.963 135.675 149.827 128.503C154.923 122.671 159.504 116.201 164.081 109.941C165.355 109.968 166.397 110.511 167.291 110.947C171.23 113.533 174.791 116.319 178.348 119.418C181.76 122.201 184.715 125.496 187.214 129.302C185.252 130.302 183.217 131.197 181.259 131.989C176.367 133.553 171.692 135.746 167.085 138.462Z" fill="white"/>
<path d="M240.15 330.3C240.15 335.229 237.487 339.224 234.203 339.224C230.918 339.224 228.255 335.229 228.255 330.3C228.255 325.372 230.918 321.377 234.203 321.377C237.487 321.377 240.15 325.372 240.15 330.3Z" fill="white"/>
<path d="M412.966 194.283C412.966 196.472 412.969 198.211 413.193 199.983C412.969 203.214 412.449 207.182 411.925 211.247C411.176 214.999 410.109 218.574 408.835 222.013C407.786 224.515 406.531 226.999 405.258 228.98C403.234 232.002 401.118 234.802 398.72 237.303C396.622 239.806 394.246 242.018 391.923 243.998C389.45 246.291 386.509 248.27 383.662 249.834C381.489 251.293 379.184 252.542 376.637 253.272C373.789 254.522 370.7 255.239 367.628 255.76C365.455 256.072 363.286 256.285 361.188 256.076C360.439 256.076 360.069 255.539 359.92 254.81C359.92 253.976 359.903 253.567 360.277 253.046C360.802 252.003 361.334 251.075 361.708 250.241L373.547 230.563L329.868 235.539C326.421 236.06 323.037 236.084 319.59 235.041C316.743 234.52 314.059 233.556 311.362 231.784C308.289 229.804 304.694 227.319 301.247 224.818L287.814 275.03C283.693 276.594 279.349 278.28 275.228 280.052C276.127 279.531 271.645 281.83 266.999 284.123C262.129 286.624 258.838 288.584 255.616 290.773C249.321 295.046 243.235 299.86 237.24 305.384C234.243 308.094 230.953 311.322 227.581 314.658C225.557 316.846 223.399 319.353 221.076 322.167L214.376 331.124C211.004 335.605 207.785 340.904 205.237 346.323C206.511 346.844 207.811 347.385 209.009 347.907C209.384 348.115 209.906 348.422 210.506 348.63C213.503 349.881 215.67 350.619 217.693 351.661C219.117 352.391 220.53 353.103 221.954 353.833C225.251 355.917 228.476 357.584 231.548 359.668C232.747 360.398 234.015 361.159 235.289 362.201C235.813 362.618 236.585 363.128 237.11 363.649C237.11 363.962 237.24 363.938 237.24 364.146C237.24 364.146 237.468 364.377 237.468 364.689C237.618 364.898 237.63 365.187 237.63 365.187C237.63 365.916 237.247 366.471 236.947 366.68C234.774 367.409 232.453 367.919 230.28 368.127C226.833 368.961 223.615 369.89 220.393 370.932C217.096 371.87 213.871 373.454 210.798 374.913C208.7 375.642 206.294 376.856 204.196 377.898C202.173 378.941 200.238 379.883 198.439 380.613C197.915 380.925 197.529 381.132 197.529 381.653C197.529 382.174 197.899 382.377 198.049 382.377C198.199 382.377 198.212 382.377 198.212 382.377L246.477 387.172C247.001 387.172 247.513 387.398 248.038 387.398C248.937 387.398 249.838 387.172 250.737 387.172C253.81 386.651 256.724 385.628 259.421 383.96C263.018 381.667 266.103 378.669 268.951 375.229C271.498 371.686 273.8 368.107 275.748 364.146C277.547 360.394 278.83 356.328 279.879 352.159C281.003 348.407 281.683 344.145 282.058 340.081C282.432 336.85 282.578 333.419 282.578 330.083C294.568 328.624 306.274 326.631 317.964 324.338C335.648 320.065 353.081 311.639 369.416 299.549C373.913 296.318 378.437 293.095 382.784 289.551C385.631 287.363 388.851 284.549 391.923 281.318C394.621 278.296 397.145 275.357 399.468 272.542C402.016 269.312 404.486 265.57 406.884 261.505C411.155 254.313 414.237 245.765 416.186 236.489C416.935 232.32 417.45 228.033 417.974 223.551C417.974 221.988 418.202 220.528 418.202 218.756C418.202 216.776 417.994 214.494 417.844 212.514C417.32 208.449 416.552 204.685 415.503 200.933C414.753 198.744 413.865 196.472 412.966 194.283ZM234.085 320.991C237.457 320.991 240.232 324.972 240.232 329.767C240.232 334.665 237.457 338.543 234.085 338.543C230.713 338.543 227.938 334.665 227.938 329.767C227.938 324.972 230.713 320.991 234.085 320.991Z" fill="black"/>
<path d="M372.888 356.186C354.829 370.986 334.896 380.783 313.989 385.056L299.452 386.724L284.615 387.975L268.954 387.766C273.075 384.223 276.822 380.054 280.119 375.259L283.341 370.048C286.039 365.254 288.212 360.251 289.635 354.727C290.31 351.183 290.909 347.952 291.434 344.513L292.333 336.488L307.92 334.195L320.134 332.006L328.377 330.234C333.098 328.983 337.744 327.212 342.464 325.231L357.526 317.727L369.216 310.431L381.131 302.198L392.296 293.651L401.063 285.417L412.229 270.93L420.546 255.088L420.022 261.133C417.849 280.623 412.603 299.383 404.885 316.164C399.639 327.733 392.97 337.426 385.252 344.93L381.131 348.995L372.888 356.186Z" fill="black"/>
<path d="M397.756 167.174C394.308 163.735 390.712 160.712 386.74 158.211L322.146 120.898L321.097 120.169C320.873 120.169 320.723 119.96 320.498 119.96C320.348 119.96 319.973 120.169 319.823 120.481C319.449 120.898 319.449 121.419 319.449 121.941C319.449 122.462 319.449 122.983 319.823 123.191L337.808 155.71L341.779 163.214C342.679 165.715 343.053 168.217 343.203 170.718C343.203 171.031 343.203 171.239 343.203 171.447C343.203 173.74 342.828 176.242 342.304 178.535L340.356 184.267L338.557 188.019C342.454 186.977 346.051 186.039 349.872 185.205C354.743 183.955 359.914 183.016 365.309 182.704C369.805 182.495 374.001 182.287 378.273 182.287C381.495 182.495 385.092 182.704 388.688 183.225C391.086 183.746 393.185 184.267 395.358 184.997C397.006 185.726 398.655 186.977 400.079 188.228C402.401 190.521 404.2 193.543 405.249 196.983C406.148 199.797 406.748 203.028 406.898 206.05C407.647 203.236 407.947 200.526 407.947 197.504C407.947 196.983 407.947 196.774 407.947 196.253C407.797 192.501 407.422 188.957 406.748 185.205C405.624 181.245 404.2 177.493 402.551 174.262C401.128 171.76 399.554 169.467 397.905 167.487C397.905 167.174 397.756 167.174 397.756 167.174Z" fill="black"/>
<path d="M350.397 378.334C353.769 376.354 356.991 374.165 360.063 371.664C360.438 371.872 360.963 371.872 361.337 371.872C363.51 371.872 365.684 371.664 367.782 371.143C374.076 370.413 380.371 369.162 386.515 367.599C379.846 373.852 373.552 380.627 367.782 387.923C362.761 393.864 358.265 400.43 353.769 406.788C352.495 406.788 351.446 406.266 350.547 405.849C346.575 403.348 342.978 400.638 339.381 397.616C335.934 394.906 332.937 391.675 330.389 387.923C332.338 386.881 334.361 385.943 336.309 385.109C341.18 383.441 345.826 381.148 350.397 378.334Z" fill="black"/>
<path d="M289.709 189.436C289.709 194.717 286.603 198.997 282.771 198.997C278.939 198.997 275.833 194.717 275.833 189.436C275.833 184.156 278.939 179.875 282.771 179.875C286.603 179.875 289.709 184.156 289.709 189.436Z" fill="black"/>
<path d="M221.104 482.128C220.421 482.128 220.08 481.573 220.08 480.464V475.728L219.888 471.824C219.504 464.827 219.312 459.685 219.312 456.4C219.312 454.608 219.077 449.019 218.608 439.632C218.523 437.584 218.459 436.283 218.416 435.728C218.373 435.131 218.352 434.811 218.352 434.768V434.32C218.352 434.021 218.565 433.829 218.992 433.744C219.248 433.659 219.995 433.616 221.232 433.616H222.64H224.432C224.773 433.616 225.029 433.765 225.2 434.064C225.371 434.32 225.456 434.661 225.456 435.088C225.456 435.515 225.072 435.728 224.304 435.728L222.832 435.664H221.168C220.827 435.664 220.613 435.728 220.528 435.856C220.443 435.984 220.4 436.325 220.4 436.88C220.4 437.733 220.549 440.848 220.848 446.224C221.147 451.6 221.296 454.736 221.296 455.632C221.808 455.632 222.533 455.504 223.472 455.248C224.453 454.992 225.179 454.864 225.648 454.864C225.904 454.864 226.117 455.013 226.288 455.312C226.501 455.611 226.608 455.888 226.608 456.144C226.608 456.613 226.267 456.933 225.584 457.104C224.901 457.232 223.92 457.339 222.64 457.424C221.744 457.552 221.296 457.808 221.296 458.192C221.296 460.112 221.509 463.696 221.936 468.944C222.32 473.723 222.512 477.328 222.512 479.76L222.32 480.08C222.448 480.379 222.512 480.656 222.512 480.912C222.512 481.723 222.043 482.128 221.104 482.128Z" fill="white"/>
<path d="M239.527 481.744C238.503 481.701 237.202 481.68 235.623 481.68C235.324 481.68 235.047 481.573 234.791 481.36C234.578 481.147 234.471 480.912 234.471 480.656C234.471 480.101 234.834 479.824 235.559 479.824H238.055C238.055 474.917 237.906 468.731 237.607 461.264C237.436 455.291 237.266 450.597 237.095 447.184L237.159 443.92V439.696C237.159 437.563 237.116 436.197 237.031 435.6H234.791C234.364 435.6 234.151 435.301 234.151 434.704C234.151 434.32 234.322 434.021 234.663 433.808C234.962 433.68 235.751 433.616 237.031 433.616H238.823C239.463 433.659 240.274 433.68 241.255 433.68C241.596 433.68 241.874 433.765 242.087 433.936C242.3 434.064 242.407 434.277 242.407 434.576C242.407 434.832 242.343 435.067 242.215 435.28C242.087 435.493 241.895 435.6 241.639 435.6C241.34 435.6 241.084 435.579 240.871 435.536H240.103H239.463C239.036 435.536 238.78 435.579 238.695 435.664L238.567 435.92C238.567 439.248 238.844 445.968 239.399 456.08C239.911 465.424 240.167 472.144 240.167 476.24V478.032C240.124 478.587 240.103 479.163 240.103 479.76H242.407C243.388 479.76 243.879 480.059 243.879 480.656C243.879 480.912 243.772 481.168 243.559 481.424C243.388 481.637 243.196 481.744 242.983 481.744H239.527Z" fill="white"/>
<path d="M254.985 483.408C254.217 483.408 253.62 483.365 253.193 483.28C252.809 483.237 252.382 483.109 251.913 482.896C251.401 482.64 251.017 482.277 250.761 481.808C250.761 481.296 250.996 481.04 251.465 481.04C251.934 481.04 252.532 481.189 253.257 481.488C253.94 481.829 254.516 482 254.985 482C255.924 482 256.777 481.616 257.545 480.848C258.356 480.08 258.974 479.077 259.401 477.84C260.254 475.408 260.681 473.253 260.681 471.376C260.681 469.285 260.382 467.173 259.785 465.04C259.188 462.907 258.398 460.901 257.417 459.024C257.204 458.555 256.841 457.851 256.329 456.912C255.262 454.779 254.452 453.115 253.897 451.92C253.342 450.725 252.852 449.403 252.425 447.952C251.828 446.032 251.529 443.963 251.529 441.744C251.529 440.336 251.742 438.992 252.169 437.712C252.638 436.389 253.364 435.259 254.345 434.32C255.412 433.339 256.606 432.848 257.929 432.848C258.441 432.848 259.06 433.061 259.785 433.488C260.51 433.872 260.873 434.256 260.873 434.64C260.873 434.981 260.745 435.152 260.489 435.152C260.233 435.152 259.892 435.045 259.465 434.832C259.081 434.619 258.718 434.512 258.377 434.512C257.396 434.512 256.521 434.875 255.753 435.6C255.028 436.325 254.494 437.221 254.153 438.288C253.854 439.184 253.705 440.165 253.705 441.232C253.705 442.896 253.918 444.624 254.345 446.416C254.772 448.165 255.348 449.808 256.073 451.344L258.313 456.016L258.953 457.36C259.849 459.195 260.532 460.709 261.001 461.904C261.513 463.099 261.94 464.443 262.281 465.936C262.75 467.941 262.985 469.861 262.985 471.696C262.985 474.171 262.345 476.688 261.065 479.248C260.425 480.485 259.572 481.488 258.505 482.256C257.438 483.024 256.265 483.408 254.985 483.408Z" fill="white"/>
<path d="M282.36 482.64C282.019 482.64 281.784 482.555 281.656 482.384C281.528 482.213 281.464 481.957 281.464 481.616V480.848C281.507 480.677 281.528 480.443 281.528 480.144C281.528 474.299 281.315 466.896 280.888 457.936H280.44H279.224H278.008C275.619 457.936 274.125 458 273.528 458.128C273.528 461.243 273.699 465.104 274.04 469.712C274.424 474.96 274.616 478.821 274.616 481.296C274.616 481.936 274.381 482.256 273.912 482.256C273.272 482.256 272.952 481.957 272.952 481.36C272.909 479.269 272.803 476.389 272.632 472.72C272.504 469.008 272.376 465.872 272.248 463.312C271.437 453.157 271.032 443.429 271.032 434.128C271.032 433.701 271.309 433.488 271.864 433.488C272.12 433.488 272.312 433.573 272.44 433.744C272.611 433.872 272.675 434.064 272.632 434.32V439.056C272.632 440.208 272.739 442.384 272.952 445.584L273.08 447.76C273.165 450.149 273.208 451.579 273.208 452.048V455.184C273.208 456.293 273.315 456.848 273.528 456.848L275.96 456.72L277.24 456.592C279.373 456.421 280.589 456.336 280.888 456.336L280.952 456.208C280.952 454.331 280.845 450.725 280.632 445.392C280.419 439.973 280.312 436.347 280.312 434.512C280.312 434 280.611 433.744 281.208 433.744C281.507 433.744 281.763 433.829 281.976 434C282.189 434.128 282.296 434.32 282.296 434.576C282.296 442.896 282.445 452.048 282.744 462.032C283.043 472.059 283.192 478.203 283.192 480.464V481.36C283.192 481.701 283.107 482 282.936 482.256C282.808 482.512 282.616 482.64 282.36 482.64Z" fill="white"/>
<path d="M101.205 167.523C100.483 168.781 99.5592 170.046 98.4346 171.32C97.347 172.614 96.5997 173.144 96.1927 172.911C94.4907 171.933 92.3213 170.442 89.6847 168.436C86.7363 166.202 84.5591 164.681 83.153 163.874C79.8969 162.004 75.4654 159.14 69.8584 155.281C64.0451 151.353 59.6214 148.517 56.5873 146.775C56.4023 146.669 56.1378 146.616 55.7938 146.615C55.3916 146.63 55.135 146.606 55.024 146.542L54.9953 145.049C55.6114 143.976 56.1398 143.099 56.5805 142.417C57.5468 140.906 58.3002 139.936 58.8409 139.509C59.1801 139.261 59.4793 139.211 59.7383 139.36C59.9233 139.466 60.0182 139.643 60.0229 139.892C60.049 140.104 59.9982 140.321 59.8708 140.543C59.6583 140.913 59.3054 141.399 58.812 142.001C58.2761 142.677 57.9231 143.164 57.7532 143.46C57.0946 144.607 57.1538 145.403 57.9308 145.849C60.0769 147.082 62.4977 148.521 65.1933 150.167C67.8889 151.813 70.1484 153.233 71.9717 154.428L79.9228 159.731L81.4686 160.766C84.3752 162.73 86.0875 163.861 86.6056 164.159C91.6158 167.429 94.3638 169.327 94.8496 169.852L96.1816 170.616L96.4663 171.149L97.6608 169.325C98.4146 168.184 99.0646 167.352 99.6108 166.829C100.184 166.174 100.711 165.984 101.192 166.261C101.562 166.473 101.566 166.894 101.205 167.523Z" fill="white"/>
<path d="M112.52 147.83C111.798 148.782 110.663 149.501 109.116 149.987C107.568 150.473 106.151 150.576 104.864 150.296C103.671 150.033 100.545 148.33 95.4849 145.187C90.4511 142.01 86.7785 139.544 84.4673 137.79L81.7653 135.74C80.9577 135.18 80.0781 134.54 79.1265 133.817C77.3591 132.476 75.6861 131.046 74.1074 129.527C73.3609 128.746 72.7591 128.021 72.3021 127.353C71.8708 126.651 71.5211 125.877 71.2528 125.03C70.6646 123.406 70.751 121.704 71.512 119.925C71.9013 118.988 72.457 118.044 73.1792 117.092C73.6693 116.447 74.3463 115.943 75.2102 115.581C76.0999 115.185 76.7997 115.18 77.3095 115.567C77.6834 115.851 77.664 116.264 77.2513 116.808C77.0965 117.012 76.681 117.313 76.0046 117.71C75.3798 118.039 74.9126 118.408 74.6031 118.816C73.8809 119.767 73.4272 120.789 73.2418 121.88C73.0482 122.911 73.1067 123.893 73.4172 124.825C73.6773 125.612 74.18 126.502 74.9253 127.496C75.6706 128.49 76.4933 129.382 77.3934 130.172C78.1658 130.919 79.1467 131.744 80.3363 132.647L83.23 134.762C84.0715 135.347 84.9681 136.001 85.9198 136.723C88.265 138.503 91.8953 140.883 96.8108 143.863C101.726 146.843 104.709 148.383 105.758 148.483C106.713 148.565 107.657 148.345 108.59 147.821C109.549 147.263 110.364 146.542 111.035 145.659C112.221 144.095 112.631 142.532 112.264 140.968C112.089 140.352 112.13 139.875 112.388 139.535C112.62 139.229 112.974 139.257 113.449 139.618C114.061 140.082 114.463 140.682 114.655 141.417C114.813 142.126 114.766 142.893 114.514 143.72C114.165 145.169 113.5 146.539 112.52 147.83Z" fill="white"/>
<path d="M126.122 130.404C125.372 131.102 124.442 132.012 123.332 133.135C123.122 133.347 122.851 133.469 122.519 133.501C122.217 133.503 121.976 133.414 121.794 133.234C121.399 132.844 121.457 132.391 121.967 131.875L123.722 130.1C120.232 126.651 115.728 122.407 110.208 117.37C105.84 113.292 102.383 110.114 99.8355 107.835L97.5593 105.495L94.5555 102.525C93.0384 101.025 92.0375 100.096 91.5527 99.7365L89.9779 101.329C89.6779 101.633 89.3155 101.575 88.8908 101.155C88.6177 100.885 88.5253 100.553 88.6136 100.161C88.7325 99.8581 89.2419 99.2518 90.1419 98.3416L91.4018 97.0672C91.8821 96.6421 92.4672 96.0806 93.1571 95.3828C93.3971 95.14 93.6528 95.0028 93.9241 94.9711C94.1651 94.9094 94.3918 94.9835 94.6042 95.1935C94.7863 95.3735 94.9081 95.584 94.9699 95.825C95.0316 96.066 94.9724 96.2775 94.7925 96.4596C94.5825 96.672 94.3873 96.839 94.207 96.9607L93.667 97.5069L93.2171 97.962C92.9171 98.2654 92.7675 98.4775 92.7682 98.5981L92.8602 98.8691C95.2269 101.209 100.201 105.736 107.782 112.451C114.786 118.656 119.745 123.199 122.658 126.079L123.932 127.339C124.297 127.759 124.691 128.179 125.116 128.599L126.736 126.961C127.426 126.263 127.983 126.124 128.408 126.544C128.59 126.724 128.697 126.98 128.729 127.311C128.761 127.583 128.702 127.794 128.552 127.946L126.122 130.404Z" fill="white"/>
<path d="M143.979 115.388C143.643 115.65 143.299 115.73 142.947 115.626C142.569 115.488 142.235 115.234 141.946 114.864L138.439 110.376L134.933 105.887L128.528 97.8963C125.617 94.3774 123.465 91.7269 122.073 89.9449L120.981 88.4429L118.42 85.1646C115.583 81.5333 114.131 79.7439 114.064 79.7964L108.365 84.2486C108.096 84.4587 107.791 84.5885 107.45 84.6378C107.144 84.661 106.898 84.5548 106.714 84.3195C106.504 84.0505 106.41 83.8261 106.432 83.6465C106.454 83.4668 106.658 83.1726 107.042 82.7639C107.434 82.2953 108.067 81.7196 108.942 81.0366L113.985 77.0967L119.493 72.7123C119.897 72.3971 120.218 72.2542 120.458 72.2836C120.731 72.2868 120.986 72.4397 121.222 72.7423C121.616 73.2466 121.494 73.7483 120.855 74.2474L118.586 76.0204L116.366 77.754L115.952 78.159L118.287 81.0448L121.361 84.9787L137.357 105.455L140.627 109.641L143.593 113.334L143.672 113.435C143.882 113.704 144.049 113.953 144.173 114.181C144.271 114.375 144.309 114.562 144.286 114.742C144.317 114.989 144.214 115.204 143.979 115.388Z" fill="white"/>
<path d="M169.724 98.0466C169.428 98.2168 169.116 98.2733 168.787 98.2161C168.496 98.1376 168.276 97.9689 168.127 97.7101L163.945 90.4434C163.69 89.9996 162.513 90.1355 160.414 90.851C158.315 91.5665 156.656 92.2754 155.435 92.9777C155.361 93.0202 155.391 93.3721 155.526 94.0332C155.697 94.673 155.82 95.1437 155.895 95.4451C156.521 97.6447 157.221 99.9738 157.996 102.432L158.421 103.812C158.517 104.151 158.418 104.405 158.122 104.575C157.826 104.746 157.495 104.813 157.13 104.777C156.802 104.72 156.563 104.561 156.414 104.303L156.406 104.16L156.374 104.104L155.388 100.98C154.832 98.9861 154.241 97.0616 153.616 95.2059C152.901 93.1071 152.476 91.7271 152.341 91.066C151.935 89.6754 150.771 86.284 148.849 80.8918L148.129 78.8697C145.813 72.6214 144.415 68.6512 143.933 66.9592C143.607 65.9653 143.185 64.4609 142.665 62.4462C142.424 61.6002 142.258 60.7116 142.165 59.7804C142.136 58.9602 142.232 58.4863 142.454 58.3586C143.046 58.0181 143.578 57.9583 144.049 58.1791C144.426 58.4056 145.757 60.0765 148.042 63.1919C150.364 66.2861 152.652 69.4492 154.905 72.6812L160.925 81.4744C161.84 83.0645 163.335 85.4044 165.408 88.4941C167.503 91.6207 169.007 93.979 169.922 95.5692L170.05 95.7911C170.284 96.1979 170.442 96.5996 170.522 96.9963C170.544 97.3773 170.278 97.7273 169.724 98.0466ZM161.344 88.6175C162.084 88.1919 162.347 87.7942 162.134 87.4244C160.815 85.1316 158.887 82.0812 156.351 78.2732C153.794 74.4283 151.495 71.0747 149.454 68.2126C148.635 66.9608 147.668 65.6222 146.552 64.1967L145.085 62.161C145.107 62.198 144.953 62.0159 144.623 61.6147L144.129 61.0129C144.302 61.9967 144.655 63.2948 145.189 64.9073C145.76 66.4985 146.462 68.3593 147.294 70.4895C149.577 76.5103 151.202 81.0884 152.17 84.2237L152.756 86.397C153.265 88.5653 153.797 90.1302 154.35 91.0917L154.541 91.4245C156.467 91.0059 158.483 90.19 160.591 88.977L160.924 88.7855C161.056 88.7586 161.196 88.7026 161.344 88.6175Z" fill="white"/>
<path d="M188.521 89.7752C188.125 89.9339 187.772 89.9143 187.463 89.7165C187.138 89.479 186.888 89.1425 186.714 88.7068L184.595 83.4197L182.476 78.1325L178.547 68.6751C176.73 64.4851 175.401 61.3406 174.559 59.2416L173.928 57.495L172.381 53.6336C170.666 49.3563 169.77 47.2336 169.69 47.2653L162.978 49.9558C162.661 50.0828 162.332 50.1227 161.991 50.0754C161.69 50.0122 161.484 49.842 161.373 49.5647C161.246 49.2479 161.218 49.0063 161.289 48.8398C161.36 48.6734 161.638 48.4474 162.121 48.1619C162.627 47.8208 163.396 47.444 164.425 47.0313L170.366 44.6503L176.877 41.9718C177.352 41.7813 177.701 41.7335 177.923 41.8285C178.184 41.9075 178.386 42.1253 178.529 42.4817C178.767 43.0758 178.51 43.5236 177.758 43.8252L175.084 44.8966L172.471 45.9442L171.96 46.2179L173.4 49.6397L175.257 54.2734L184.924 78.3923L186.9 83.323L188.721 87.6953L188.769 87.8141C188.896 88.1309 188.987 88.4161 189.043 88.6696C189.083 88.8835 189.067 89.0736 188.996 89.2401C188.956 89.4857 188.798 89.6641 188.521 89.7752Z" fill="white"/>
<path d="M210.659 81.8491C209.657 82.0644 208.392 82.3698 206.863 82.7653C206.574 82.8401 206.279 82.8064 205.978 82.664C205.718 82.5109 205.556 82.3104 205.491 82.0626C205.352 81.5256 205.634 81.1663 206.336 80.9845L208.753 80.3592C207.523 75.609 205.829 69.6571 203.669 62.5034C202.007 56.7634 200.666 52.2625 199.645 49.0009L198.889 45.8249L197.831 41.7357C197.296 39.6704 196.913 38.3593 196.681 37.8024L194.512 38.3637C194.099 38.4706 193.818 38.2349 193.668 37.6566C193.572 37.2848 193.662 36.9529 193.939 36.6609C194.196 36.4621 194.944 36.2024 196.184 35.8817L197.918 35.4327C198.549 35.3136 199.339 35.1312 200.289 34.8853C200.619 34.7998 200.909 34.8129 201.158 34.9247C201.397 34.9951 201.554 35.1749 201.629 35.4641C201.693 35.7119 201.69 35.9551 201.619 36.1937C201.549 36.4323 201.389 36.5837 201.142 36.6478C200.852 36.7227 200.599 36.7662 200.382 36.7783L199.639 36.9707L199.019 37.1311C198.606 37.238 198.369 37.3434 198.308 37.4474L198.248 37.7273C199.082 40.9492 201.034 47.3853 204.105 57.0358C206.941 65.9535 208.873 72.3949 209.899 76.3603L210.348 78.0951C210.446 78.6428 210.57 79.2058 210.719 79.784L212.95 79.2068C213.9 78.9609 214.45 79.1271 214.599 79.7054C214.664 79.9532 214.624 80.2278 214.482 80.529C214.37 80.7783 214.211 80.9297 214.005 80.9832L210.659 81.8491Z" fill="white"/>
<path d="M235.956 78.795C230.066 79.4902 225.919 69.6472 223.513 49.266L223.213 46.7237C222.793 43.1644 222.639 40.0462 222.753 37.3691C222.812 35.6865 222.991 34.2906 223.29 33.1813C223.631 32.0669 224.145 31.147 224.833 30.4214C225.468 29.616 226.358 29.1458 227.502 29.0108C228.519 28.8907 229.476 28.9926 230.374 29.3163C231.266 29.5976 232.025 30.0235 232.651 30.5941C233.187 31.1323 233.704 31.8662 234.2 32.7957C234.696 33.7253 235.103 34.6225 235.42 35.4873L236.281 38.4145C238.153 45.5402 239.419 51.8996 240.079 57.4928L240.102 57.6835C240.352 59.8021 240.54 61.7562 240.665 63.5459C240.83 65.6745 240.86 67.9266 240.754 70.3021C240.719 71.4661 240.582 72.4919 240.343 73.3794C240.147 74.2618 239.844 75.1568 239.436 76.0643C238.726 77.6947 237.566 78.605 235.956 78.795ZM235.873 77.0004C236.551 76.9203 237.12 76.4665 237.581 75.6387C238.037 74.7686 238.331 73.6169 238.462 72.1836C238.79 69.1375 238.871 66.185 238.706 63.326C238.52 61.0279 238.3 58.7984 238.045 56.6374L238.015 56.3831L237.201 50.0348C236.847 47.7566 236.242 44.8206 235.388 41.2265C234.744 38.6818 233.733 36.1161 232.353 33.5293C231.804 32.52 231.135 31.7612 230.344 31.253C229.596 30.7398 228.82 30.5308 228.015 30.6258C227.295 30.7108 226.699 31.1248 226.228 31.8678C225.757 32.6108 225.425 33.6167 225.231 34.8855C224.803 37.8145 224.69 40.4916 224.89 42.9168C225.008 45.0081 225.197 47.1554 225.457 49.3588L225.825 52.4731C226.16 55.3121 226.86 58.8813 227.926 63.1806C228.59 65.8948 229.297 68.2388 230.045 70.2127C230.794 72.1866 231.674 73.8226 232.687 75.1209C233.709 76.5039 234.771 77.1304 235.873 77.0004Z" fill="white"/>
<path d="M268.053 77.2963C267.755 77.2854 267.483 77.126 267.238 76.8182C266.993 76.5103 266.835 76.163 266.764 75.7761L266.617 74.5539C266.508 74.0376 266.455 73.7155 266.46 73.5876C262.31 56.315 260.038 46.6255 259.646 44.5191C259.318 42.9701 258.6 38.6743 257.491 31.6318C257.439 31.886 257.386 32.7593 257.331 34.2517L256.485 57.4042L256.278 66.5548L256.074 75.6414L255.672 76.139L254.2 76.0852L254.027 75.5665C254.128 75.1433 254.202 74.2921 254.249 73.0129L254.592 61.882L254.871 50.7488L255.177 42.3704L255.399 36.2944C255.422 34.5021 255.474 32.4973 255.555 30.2801C255.565 30.0243 255.552 29.789 255.517 29.5743L255.54 28.9347C255.559 28.423 255.7 28.0866 255.962 27.9254C256.268 27.7231 256.719 27.6329 257.316 27.6547C257.572 27.6641 257.845 27.8021 258.134 28.0689C258.466 28.3372 258.669 28.6221 258.743 28.9237L259.857 35.2406C260.345 38.2471 260.774 40.5257 261.144 42.0762C261.91 45.6479 263.233 51.5029 265.113 59.641C266.156 64.9734 267.116 69.0645 267.994 71.9145C268.273 71.2843 268.439 70.2656 268.49 68.8586C268.641 64.7227 268.82 61.0147 269.025 57.7347L269.56 46.6108C269.627 44.7774 269.709 43.1153 269.806 41.6245L269.986 36.6998L270.252 27.6795C270.487 27.0903 270.946 26.8082 271.628 26.8332C271.969 26.8457 272.117 27.4701 272.072 28.7067C272.052 29.261 272.014 29.7079 271.959 30.0474C271.946 30.3885 271.916 30.6436 271.867 30.8126C271.862 30.9405 271.859 31.0258 271.857 31.0684L271.708 35.1617C271.5 40.8325 271.294 45.8844 271.089 50.3172C270.883 54.7926 270.678 59.8232 270.474 65.4088C270.435 66.4747 270.309 68.1566 270.097 70.4544L269.784 75.5023C269.739 76.7388 269.162 77.3368 268.053 77.2963Z" fill="white"/>
<path d="M311.066 85.2808C310.779 85.1992 310.553 84.9797 310.388 84.6225C310.224 84.2652 310.153 83.8902 310.176 83.4975L310.323 82.2753C310.34 81.7479 310.366 81.4225 310.401 81.2994C310.479 63.5354 310.578 53.5838 310.698 51.4444C310.748 49.862 311.072 45.5187 311.671 38.4145C311.56 38.6491 311.3 39.4847 310.892 40.9212L304.562 63.2076L302.185 72.0463L299.825 80.8234L299.315 81.211L297.899 80.8088L297.854 80.2639C298.053 79.8767 298.327 79.0675 298.677 77.8363L301.658 67.1065L304.578 56.3593L306.869 48.2943L308.53 42.4457C308.979 40.7102 309.506 38.7754 310.112 36.6411C310.182 36.3949 310.226 36.1633 310.243 35.9464L310.418 35.3308C310.558 34.8383 310.774 34.5449 311.067 34.4507C311.413 34.3271 311.873 34.3469 312.447 34.5101C312.694 34.58 312.925 34.779 313.143 35.1068C313.401 35.4463 313.531 35.7714 313.531 36.082L313.11 42.4826C312.869 45.5188 312.743 47.834 312.734 49.4281C312.628 53.0795 312.52 59.0811 312.41 67.4328C312.155 72.8602 312.115 77.0624 312.289 80.0394C312.71 79.4937 313.113 78.5436 313.498 77.1892C314.629 73.208 315.684 69.6489 316.664 66.5119L319.83 55.8347C320.331 54.0698 320.806 52.475 321.255 51.0501L322.602 46.3096L325.006 37.6115C325.374 37.0952 325.887 36.9303 326.543 37.1169C326.872 37.2101 326.867 37.8519 326.529 39.0421C326.377 39.5757 326.234 40.0008 326.1 40.3175C326.007 40.6459 325.916 40.8863 325.829 41.0388C325.794 41.1619 325.77 41.244 325.759 41.2851L324.64 45.2252C323.089 50.6839 321.687 55.5417 320.434 59.7985C319.168 64.0964 317.772 68.9336 316.245 74.3103C315.954 75.3364 315.432 76.9401 314.679 79.1214L313.174 83.95C312.836 85.1403 312.134 85.5839 311.066 85.2808Z" fill="white"/>
<path d="M328.693 91.54C327.754 91.132 327.131 90.7451 326.825 90.3794C326.541 90.0698 326.509 89.6607 326.73 89.1519L327.215 88.0367C327.312 87.7066 327.445 87.3459 327.615 86.9546L327.666 86.8372L331.449 78.2928L341.924 54.025C343.012 51.5206 343.917 49.3318 344.638 47.4585C344.842 46.989 345.109 46.6402 345.441 46.4121C345.773 46.1841 346.095 46.1381 346.408 46.2741L350.048 47.8555C350.595 48.0935 350.989 48.3112 351.229 48.5085C351.57 48.7959 351.621 49.2136 351.383 49.7614C351.247 50.0745 351.019 50.2778 350.699 50.3714C350.379 50.4651 350.074 50.472 349.783 50.3921L348.785 49.9585L347.871 49.4917L346.958 49.0249C346.684 48.9059 346.462 48.8795 346.294 48.9459C346.182 48.9902 346.066 49.1493 345.947 49.4232C345.148 51.2624 344.445 52.934 343.838 54.438L341.67 59.4273L338.482 66.7646C338.448 66.8429 338.47 66.899 338.548 66.933L338.607 66.9585L338.665 66.984C339.678 67.3309 340.751 67.7508 341.886 68.2439C342.512 68.516 342.706 68.926 342.468 69.4738C342.298 69.8651 342.101 70.105 341.876 70.1935C341.708 70.2599 341.467 70.2251 341.154 70.0891L337.808 68.6352C337.652 68.5672 337.531 68.6311 337.446 68.8267L333.789 77.565C332.694 80.2991 331.381 83.4271 329.85 86.949L328.907 89.1208L331.431 90.2176L333.896 91.2888L334.424 91.5184C335.129 91.8245 335.37 92.2319 335.149 92.7406C334.877 93.3667 334.54 93.6619 334.136 93.6263C333.599 93.5788 332.606 93.2404 331.158 92.6113L328.693 91.54Z" fill="white"/>
<path d="M346.64 100.452C345.751 99.9433 345.174 99.4906 344.91 99.0936C344.661 98.7548 344.675 98.3446 344.95 97.8632L345.554 96.8076C345.686 96.4902 345.859 96.1463 346.07 95.7759L346.134 95.6648L350.829 87.5857L363.897 64.61C365.253 62.2397 366.391 60.163 367.313 58.38C367.567 57.9355 367.872 57.6181 368.226 57.4278C368.581 57.2374 368.907 57.227 369.203 57.3964L372.647 59.3666C373.166 59.6632 373.533 59.9226 373.75 60.145C374.057 60.4679 374.062 60.8887 373.766 61.4072C373.596 61.7035 373.347 61.8806 373.019 61.9387C372.691 61.9968 372.387 61.9702 372.106 61.8589L371.162 61.3187L370.305 60.7548L369.448 60.1908C369.188 60.0425 368.971 59.9921 368.797 60.0397C368.68 60.0714 368.548 60.2169 368.4 60.4761C367.404 62.2168 366.522 63.8014 365.754 65.23L363.053 69.9521L359.081 76.8964C359.039 76.9704 359.055 77.0287 359.129 77.071L359.184 77.1028L359.24 77.1346C360.208 77.5901 361.229 78.1251 362.303 78.7394C362.896 79.0783 363.044 79.5071 362.747 80.0256C362.536 80.3959 362.313 80.6128 362.08 80.6762C361.906 80.7238 361.67 80.6628 361.374 80.4934L358.207 78.6821C358.059 78.5974 357.932 78.6476 357.826 78.8328L353.234 87.1183C351.847 89.7162 350.2 92.6817 348.293 96.015L347.117 98.0705L349.506 99.4369L351.839 100.771L352.339 101.057C353.006 101.439 353.202 101.87 352.926 102.352C352.587 102.944 352.219 103.201 351.823 103.121C351.293 103.015 350.344 102.57 348.973 101.786L346.64 100.452Z" fill="white"/>
<path d="M363.639 110.971C363.232 110.66 362.903 110.247 362.652 109.733C362.401 109.219 362.379 108.826 362.586 108.555C362.742 108.351 363.136 108.116 363.77 107.849C364.378 107.615 364.756 107.367 364.904 107.104L368.172 102.513L378.428 88.3608L383.029 82.1309C385.872 78.3426 387.588 75.9221 388.178 74.8693C388.395 74.4446 388.584 73.9173 388.743 73.2873C388.998 72.4619 389.229 71.9136 389.437 71.6424C390.059 70.8289 391.658 71.4069 394.234 73.3763L394.488 73.5707C396.217 74.8923 397.255 76.6257 397.602 78.7708C397.885 80.4375 397.665 82.5518 396.942 85.1138C396.292 87.0876 395.364 89.1442 394.158 91.2836C393.516 92.4041 392.443 94.054 390.938 96.2333L389.733 97.8094C388.126 99.911 386.089 101.979 383.621 104.013C381.213 106.038 378.684 107.73 376.035 109.088C374.388 109.978 372.659 110.589 370.846 110.922C369.068 111.281 367.492 111.446 366.118 111.416C364.771 111.353 363.944 111.204 363.639 110.971ZM366.384 108.961C368.131 109.276 369.962 109.199 371.878 108.73C373.82 108.227 375.649 107.451 377.365 106.4C378.832 105.534 380.344 104.435 381.901 103.101C383.484 101.733 384.875 100.406 386.073 99.1197C387.107 97.9772 388.052 96.8467 388.907 95.7281C396.474 85.8306 397.529 78.7957 392.072 74.6236C391.36 74.0794 390.861 73.9938 390.576 74.3666C389.669 75.553 388.662 77.0115 387.554 78.7421C386.419 80.5067 385.412 81.9652 384.531 83.1176C383.105 84.9819 380.766 88.3226 377.513 93.1397C374.693 97.3208 372.349 100.632 370.484 103.072L366.13 108.767L366.384 108.961Z" fill="white"/>
<path d="M385.318 129.786C384.594 129.062 384.157 128.473 384.007 128.021C383.856 127.629 383.977 127.236 384.369 126.844L385.229 125.985C385.441 125.714 385.697 125.427 385.999 125.125L386.09 125.035L392.745 118.476L411.399 99.7498C413.331 97.8199 414.976 96.1161 416.335 94.6384C416.697 94.2765 417.074 94.0504 417.466 93.9601C417.859 93.8698 418.175 93.9454 418.417 94.1869L421.221 96.994C421.643 97.4166 421.93 97.7637 422.08 98.0353C422.291 98.4276 422.186 98.8348 421.763 99.257C421.521 99.4983 421.235 99.6037 420.903 99.5734C420.571 99.5431 420.285 99.4373 420.043 99.2562L419.274 98.4865L418.596 97.7168L417.917 96.9472C417.706 96.7359 417.51 96.6302 417.329 96.6301C417.209 96.63 417.043 96.7355 416.831 96.9466C415.413 98.3639 414.145 99.6606 413.028 100.837L409.179 104.682L403.52 110.336C403.46 110.396 403.46 110.456 403.52 110.517L403.565 110.562L403.61 110.607C404.425 111.302 405.269 112.086 406.143 112.962C406.626 113.445 406.656 113.897 406.233 114.319C405.931 114.621 405.66 114.772 405.418 114.772C405.237 114.771 405.026 114.651 404.785 114.409L402.207 111.828C402.086 111.708 401.95 111.723 401.799 111.873L395.189 118.658C393.167 120.8 390.797 123.227 388.08 125.941L386.405 127.615L388.35 129.562L390.25 131.463L390.657 131.871C391.2 132.414 391.275 132.882 390.883 133.274C390.4 133.756 389.977 133.907 389.615 133.726C389.133 133.484 388.334 132.805 387.218 131.688L385.318 129.786Z" fill="white"/>
<path d="M398.95 144.409C398.639 144.001 398.43 143.517 398.323 142.954C398.216 142.392 398.298 142.007 398.57 141.8C398.773 141.645 399.216 141.522 399.898 141.431C400.546 141.366 400.976 141.226 401.187 141.011L405.548 137.442L419.167 126.487L425.246 121.688C428.985 118.781 431.278 116.898 432.125 116.038C432.446 115.685 432.766 115.226 433.086 114.66C433.549 113.931 433.917 113.463 434.188 113.256C435.002 112.635 436.393 113.613 438.36 116.191L438.554 116.445C439.874 118.175 440.419 120.121 440.189 122.282C440.024 123.964 439.255 125.946 437.883 128.227C436.737 129.961 435.3 131.7 433.574 133.447C432.66 134.359 431.19 135.668 429.165 137.375L427.587 138.578C425.484 140.183 422.975 141.641 420.058 142.954C417.202 144.275 414.317 145.242 411.404 145.855C409.581 146.279 407.752 146.414 405.916 146.258C404.105 146.137 402.542 145.881 401.224 145.491C399.941 145.074 399.183 144.714 398.95 144.409ZM402.127 143.192C403.729 143.955 405.516 144.363 407.488 144.415C409.493 144.441 411.462 144.173 413.395 143.611C415.038 143.162 416.786 142.499 418.639 141.622C420.526 140.719 422.217 139.804 423.711 138.879C425.01 138.049 426.219 137.207 427.339 136.353C437.243 128.796 440.112 122.287 435.946 116.825C435.402 116.113 434.944 115.899 434.571 116.184C433.383 117.09 432.027 118.232 430.503 119.61C428.944 121.013 427.588 122.155 426.435 123.035C424.569 124.459 421.433 127.066 417.027 130.857C413.206 134.149 410.074 136.726 407.632 138.589L401.933 142.937L402.127 143.192Z" fill="white"/>
<path d="M412.031 167.995C411.672 167.365 411.677 166.944 412.048 166.732C412.529 166.457 413.066 166.667 413.659 167.36C414.204 167.885 414.862 168.737 415.634 169.918L416.76 171.633L417.078 171.157L418.412 170.395C418.82 169.819 422.78 167.117 430.292 162.289C437.804 157.461 443.927 153.599 448.659 150.701C449.364 150.299 450.425 149.62 451.844 148.663C453.337 147.663 454.509 146.921 455.362 146.434C455.769 146.201 456.005 145.969 456.069 145.736C456.19 145.519 456.146 145.225 455.934 144.855L454.935 143.362L453.935 141.869L453.777 141.591C453.269 140.702 453.201 140.151 453.571 139.94C453.794 139.813 454.103 139.882 454.5 140.147C455.039 140.576 455.79 141.547 456.753 143.061C457.192 143.744 457.718 144.623 458.331 145.697L458.298 147.19C458.187 147.253 457.931 147.277 457.528 147.261C457.126 147.245 456.851 147.279 456.703 147.364C453.961 148.929 449.717 151.694 443.973 155.66C438.616 159.356 434.362 162.103 431.212 163.901C429.915 164.641 427.557 166.233 424.136 168.676C421.235 170.823 418.877 172.415 417.061 173.451C416.653 173.684 415.907 173.151 414.823 171.854C413.702 170.578 412.771 169.292 412.031 167.995Z" fill="white"/>
</g>
<defs>
<filter id="filter0_dd" x="0" y="0" width="513" height="513" filterUnits="userSpaceOnUse" color-interpolation-filters="sRGB">
<feFlood flood-opacity="0" result="BackgroundImageFix"/>
<feColorMatrix in="SourceAlpha" type="matrix" values="0 0 0 0 0 0 0 0 0 0 0 0 0 0 0 0 0 0 127 0"/>
<feOffset dy="4"/>
<feGaussianBlur stdDeviation="2"/>
<feColorMatrix type="matrix" values="0 0 0 0 0 0 0 0 0 0 0 0 0 0 0 0 0 0 0.25 0"/>
<feBlend mode="normal" in2="BackgroundImageFix" result="effect1_dropShadow"/>
<feColorMatrix in="SourceAlpha" type="matrix" values="0 0 0 0 0 0 0 0 0 0 0 0 0 0 0 0 0 0 127 0"/>
<feOffset dy="4"/>
<feGaussianBlur stdDeviation="2"/>
<feColorMatrix type="matrix" values="0 0 0 0 0 0 0 0 0 0 0 0 0 0 0 0 0 0 0.25 0"/>
<feBlend mode="normal" in2="effect1_dropShadow" result="effect2_dropShadow"/>
<feBlend mode="normal" in="SourceGraphic" in2="effect2_dropShadow" result="shape"/>
</filter>
</defs>
</svg>
