<svg xmlns="http://www.w3.org/2000/svg" width="400" height="400" viewBox="0 0 400 400">
  <g id="Group_455" data-name="Group 455" transform="translate(-655.685 -538.598)">
    <circle id="Ellipse_201" data-name="Ellipse 201" cx="200" cy="200" r="200" transform="translate(655.685 538.598)" fill="#007668"/>
    <g id="Ellipse_202" data-name="Ellipse 202" transform="translate(666.675 549.381)" fill="none" stroke="#fff" stroke-width="8">
      <circle cx="189.217" cy="189.217" r="189.217" stroke="none"/>
      <circle cx="189.217" cy="189.217" r="185.217" fill="none"/>
    </g>
    <path id="Path_1025" data-name="Path 1025" d="M2963.621,3910.042H3269.8" transform="translate(-2261.862 -3070.64)" fill="none" stroke="#fff" stroke-linecap="round" stroke-width="8"/>
    <path id="Path_1028" data-name="Path 1028" d="M2963.621,3910.042h258.163" transform="translate(-2238.069 -3040.184)" fill="none" stroke="#fff" stroke-linecap="round" stroke-width="8"/>
    <path id="Path_1029" data-name="Path 1029" d="M8.211,0A8.211,8.211,0,1,1,0,8.211,8.211,8.211,0,0,1,8.211,0Z" transform="translate(844.681 880.81)" fill="#fff"/>
    <g id="Group_452" data-name="Group 452" transform="translate(714.458 669.517)">
      <g id="Group_449" data-name="Group 449">
        <path id="Path_967" data-name="Path 967" d="M258.595,34.572a1.9,1.9,0,0,1-1.761-1.185c-3.884-9.554-12.179-8.7-12.53-8.658a1.9,1.9,0,0,1-.474-3.773,15.857,15.857,0,0,1,14.765,7.575,15.859,15.859,0,0,1,14.765-7.575,1.9,1.9,0,0,1-.484,3.771c-.341-.04-8.635-.895-12.519,8.659A1.9,1.9,0,0,1,258.595,34.572Z" transform="translate(-242.175 -20.873)" fill="#fff"/>
        <path id="Path_968" data-name="Path 968" d="M329.353,55.538c-17.371,0-31.452,40.7-31.452,58.071A31.449,31.449,0,0,0,327.43,145V115.09l-9.749-8.491a1.9,1.9,0,1,1,2.5-2.868l7.252,6.316V78.993a1.9,1.9,0,1,1,3.8,0v12.6l7.332-6.386a1.9,1.9,0,0,1,2.5,2.868l-9.83,8.561v32.223l7.332-6.386a1.9,1.9,0,0,1,2.5,2.868l-9.83,8.561V145A31.45,31.45,0,0,0,360.8,113.609C360.805,96.238,346.724,55.538,329.353,55.538Z" transform="translate(-276.728 -42.367)" fill="#fff"/>
      </g>
      <path id="Path_969" data-name="Path 969" d="M350.629,354.441H337.666V290.991c-.622.036-3.166.035-3.8,0v63.453h-4.133a37.126,37.126,0,0,0-12.844-24.194,1.9,1.9,0,1,0-2.471,2.891,33.664,33.664,0,0,1,10.916,18.135c-3.677-3.173-9.3-7.428-14.21-8.666a1.9,1.9,0,1,0-.93,3.687c4.321,1.089,9.6,5.194,12.981,8.147H310.177a1.9,1.9,0,1,0,0,3.8h40.452a1.9,1.9,0,1,0,0-3.8Z" transform="translate(-283.161 -188.358)" fill="#fff"/>
    </g>
    <g id="Group_453" data-name="Group 453" transform="translate(772.954 592.764)">
      <g id="Group_449-2" data-name="Group 449" transform="translate(28.251 17.574)">
        <path id="Path_968-2" data-name="Path 968" d="M350.588,55.538c-29.1,0-52.687,68.179-52.687,97.278a52.683,52.683,0,0,0,49.466,52.58V155.3l-16.332-14.224a3.185,3.185,0,1,1,4.184-4.8l12.148,10.581V94.829a3.185,3.185,0,0,1,6.37,0v21.105l12.283-10.7a3.185,3.185,0,0,1,4.184,4.8l-16.467,14.342v53.978l12.283-10.7a3.185,3.185,0,0,1,4.184,4.8l-16.467,14.342V205.4a52.683,52.683,0,0,0,49.538-52.585C403.275,123.717,379.686,55.538,350.588,55.538Z" transform="translate(-297.901 -55.538)" fill="#fff"/>
      </g>
      <path id="Path_969-2" data-name="Path 969" d="M379.223,397.281H357.509V290.994c-1.043.061-5.3.059-6.37-.006V397.281h-6.924A62.191,62.191,0,0,0,322.7,356.753a3.185,3.185,0,1,0-4.14,4.842,56.391,56.391,0,0,1,18.285,30.379c-6.16-5.315-15.574-12.442-23.8-14.517a3.185,3.185,0,1,0-1.557,6.177c7.238,1.825,16.082,8.7,21.744,13.647H311.461a3.185,3.185,0,1,0,0,6.37h67.763a3.185,3.185,0,1,0,0-6.37Z" transform="translate(-273.422 -123.557)" fill="#fff"/>
    </g>
    <g id="Group_454" data-name="Group 454" transform="translate(900.466 683.083)">
      <g id="Group_449-3" data-name="Group 449" transform="translate(0 0)">
        <path id="Path_968-3" data-name="Path 968" d="M330.026,55.538c17.742,0,32.125,41.571,32.125,59.313a32.122,32.122,0,0,1-30.161,32.059V116.364l9.958-8.673a1.942,1.942,0,1,0-2.551-2.929l-7.407,6.451V79.5a1.942,1.942,0,1,0-3.884,0V92.364l-7.489-6.523a1.942,1.942,0,0,0-2.551,2.929l10.04,8.745v32.912l-7.489-6.523a1.942,1.942,0,0,0-2.551,2.929l10.04,8.745v11.336a32.123,32.123,0,0,1-30.2-32.063C297.9,97.109,312.284,55.538,330.026,55.538Z" transform="translate(-297.901 -55.538)" fill="#fff"/>
      </g>
      <path id="Path_969-3" data-name="Path 969" d="M310.219,355.8h13.24V290.991c.636.037,3.234.036,3.884,0V355.8h4.221a37.92,37.92,0,0,1,13.119-24.711,1.942,1.942,0,0,1,2.524,2.953,34.383,34.383,0,0,0-11.149,18.523c3.756-3.24,9.5-7.587,14.514-8.852a1.942,1.942,0,1,1,.95,3.766c-4.414,1.113-9.806,5.3-13.258,8.321h13.273a1.942,1.942,0,1,1,0,3.884H310.218a1.942,1.942,0,1,1,0-3.884Z" transform="translate(-293.254 -199.616)" fill="#fff"/>
    </g>
  </g>
</svg>
