<svg id="b3614396-2f3b-43fe-b4ab-7d2afe10fd41" data-name="Laag 1" xmlns="http://www.w3.org/2000/svg" width="400mm" height="400mm" viewBox="0 0 1133.85827 1133.85827">
  <defs>
    <style>
      .ebba388f-aae1-472b-86ee-1aacaa808774 {
        fill: #e94b3d;
      }

      .e8fe0d66-d186-475d-864e-a30421d9c54c {
        fill: #fab71b;
      }

      .a7246b2b-2a23-4714-99b3-dbe751d07bc7 {
        fill: #fff;
      }

      .b42c5a3b-05b4-47e1-bc9b-00f621dcb762 {
        fill: #191934;
      }

      .b777d5c9-033a-4564-a207-9575fd0be8ca {
        fill: #67bd9a;
      }
    </style>
  </defs>
  <rect class="ebba388f-aae1-472b-86ee-1aacaa808774" width="1133.85827" height="1133.85827" rx="10.24594"/>
  <path class="e8fe0d66-d186-475d-864e-a30421d9c54c" d="M402.437,25.54469c-49.8883,0-90.33075,28.02594-90.33075,62.59766a44.09479,44.09479,0,0,0,.50672,6.6449l-.00428-.003.00879.03015a45.28125,45.28125,0,0,0,1.90106,7.74652c1.71119,8.0202,3.647,20.59363,1.49823,29.61841-3.39514,14.25976-19.013,22.4082-19.013,22.4082s33.66285-16.33636,44.81641-14.25976c5.70636,1.06243,21.64215,5.27343,35.134,7.88214q2.705.55023,5.47718.98663a85.03262,85.03262,0,0,0,9.1123,1.09235l-.00549-.00385q5.36022.44677,10.8988.4549c49.88831,0,90.33075-28.02588,90.33075-62.5976S452.32527,25.54469,402.437,25.54469Z"/>
  <circle class="a7246b2b-2a23-4714-99b3-dbe751d07bc7" cx="372.65774" cy="90.06612" r="11.32533"/>
  <circle class="a7246b2b-2a23-4714-99b3-dbe751d07bc7" cx="401.86011" cy="90.06612" r="11.32533"/>
  <circle class="a7246b2b-2a23-4714-99b3-dbe751d07bc7" cx="432.31401" cy="90.06612" r="11.32533"/>
  <path class="e8fe0d66-d186-475d-864e-a30421d9c54c" d="M587.72934,0c-49.8883,0-90.33075,28.02594-90.33075,62.59766a44.09456,44.09456,0,0,0,.50672,6.64489l-.00428-.003.00879.03015a45.28159,45.28159,0,0,0,1.90106,7.74653c1.71119,8.0202,3.647,20.59362,1.49823,29.6184-3.39514,14.25977-19.013,22.40821-19.013,22.40821s33.66285-16.33637,44.81641-14.25977c5.70636,1.06244,21.64215,5.27344,35.134,7.88214q2.705.55023,5.47718.98664a85.03036,85.03036,0,0,0,9.1123,1.09234l-.00549-.00384q5.36022.44678,10.8988.45489c49.88831,0,90.33075-28.02588,90.33075-62.59759S637.61765,0,587.72934,0Z"/>
  <circle class="a7246b2b-2a23-4714-99b3-dbe751d07bc7" cx="557.95012" cy="64.52142" r="11.32533"/>
  <circle class="a7246b2b-2a23-4714-99b3-dbe751d07bc7" cx="587.15249" cy="64.52142" r="11.32533"/>
  <circle class="a7246b2b-2a23-4714-99b3-dbe751d07bc7" cx="617.60639" cy="64.52142" r="11.32533"/>
  <path class="e8fe0d66-d186-475d-864e-a30421d9c54c" d="M679.43637,225.11c-49.8883,0-90.33075,28.02594-90.33075,62.59766a44.09479,44.09479,0,0,0,.50672,6.6449l-.00428-.003.00879.03015a45.28125,45.28125,0,0,0,1.90106,7.74652c1.71119,8.0202,3.647,20.59363,1.49823,29.61841-3.39514,14.25976-19.013,22.4082-19.013,22.4082s33.66285-16.33636,44.81641-14.25976c5.70636,1.06243,21.64215,5.27343,35.134,7.88214q2.705.55023,5.47718.98663a85.03262,85.03262,0,0,0,9.1123,1.09235l-.00549-.00385q5.36022.44677,10.8988.4549c49.88831,0,90.33075-28.02588,90.33075-62.5976S729.32468,225.11,679.43637,225.11Z"/>
  <circle class="a7246b2b-2a23-4714-99b3-dbe751d07bc7" cx="649.65715" cy="291.63142" r="11.32533"/>
  <circle class="a7246b2b-2a23-4714-99b3-dbe751d07bc7" cx="678.85952" cy="291.63142" r="11.32533"/>
  <circle class="a7246b2b-2a23-4714-99b3-dbe751d07bc7" cx="709.31342" cy="291.63142" r="11.32533"/>
  <g>
    <path class="e8fe0d66-d186-475d-864e-a30421d9c54c" d="M528.44983,384.30374c-49.88831,0-90.33075,28.02594-90.33075,62.59765a44.09459,44.09459,0,0,0,.50671,6.6449l-.00427-.003.00879.03015a45.28031,45.28031,0,0,0,1.90106,7.74652c1.71118,8.02021,3.647,20.59363,1.49823,29.61841-3.39514,14.25977-19.013,22.4082-19.013,22.4082s33.66284-16.33636,44.81641-14.25976c5.70636,1.06244,21.64215,5.27344,35.134,7.88214q2.705.55023,5.47717.98663a85.03307,85.03307,0,0,0,9.11231,1.09235l-.0055-.00385q5.36023.44679,10.89881.4549c49.8883,0,90.33075-28.02588,90.33075-62.5976S578.33813,384.30374,528.44983,384.30374Z"/>
    <circle class="a7246b2b-2a23-4714-99b3-dbe751d07bc7" cx="498.67061" cy="448.82516" r="11.32533"/>
    <circle class="a7246b2b-2a23-4714-99b3-dbe751d07bc7" cx="527.87298" cy="448.82516" r="11.32533"/>
    <circle class="a7246b2b-2a23-4714-99b3-dbe751d07bc7" cx="558.32687" cy="448.82516" r="11.32533"/>
  </g>
  <g>
    <path class="e8fe0d66-d186-475d-864e-a30421d9c54c" d="M574.19,1131.92993a2.617,2.617,0,0,1-.01.28c.01.55005-.01,1.1001-.04,1.65a43.17532,43.17532,0,0,1-1.44,9.42H520.01a11.29606,11.29606,0,0,1-12.54,0H489.55a11.296,11.296,0,0,1-12.54,0H460.35a11.296,11.296,0,0,1-12.54,0H395.02a41.66973,41.66973,0,0,1-.98-4.67.10124.10124,0,0,0-.01-.03h.01a43.35256,43.35256,0,0,1-.47-4.72c-.03-.64-.04-1.28-.04-1.93006a46.118,46.118,0,0,1,6.54-23.40991c13.37-22.97,45.85-39.18,83.79-39.18C533.75,1069.34,574.19,1097.36,574.19,1131.92993Z"/>
    <path class="a7246b2b-2a23-4714-99b3-dbe751d07bc7" d="M465.41,1133.86A11.325,11.325,0,1,1,454.08,1122.53,11.28493,11.28493,0,0,1,465.41,1133.86Z"/>
    <path class="a7246b2b-2a23-4714-99b3-dbe751d07bc7" d="M494.61,1133.86a11.35061,11.35061,0,1,1-1.63-5.84h.01A11.23268,11.23268,0,0,1,494.61,1133.86Z"/>
    <path class="a7246b2b-2a23-4714-99b3-dbe751d07bc7" d="M525.06,1133.86a11.325,11.325,0,0,1-22.65,0,11.173,11.173,0,0,1,1.01-4.66A11.31726,11.31726,0,0,1,524.7,1131.03,10.9754,10.9754,0,0,1,525.06,1133.86Z"/>
  </g>
  <g>
    <path class="e8fe0d66-d186-475d-864e-a30421d9c54c" d="M807.2,1099.12c0,12.85-5.59,24.79992-15.18,34.74a74.74983,74.74983,0,0,1-11.14,9.42H630.41l.03-.12012a40.37528,40.37528,0,0,0,.95-9.29992c0-1.85-.08-3.73-.23-5.59a113.84734,113.84734,0,0,0-2.21-14.73,44.97059,44.97059,0,0,1-1.9-7.75.04942.04942,0,0,1-.01-.03,44.3775,44.3775,0,0,1-.51-6.64c0-34.56995,40.44995-62.6,90.33-62.6,39.95,0,73.84,17.97,85.76,42.87988A45.378,45.378,0,0,1,807.2,1099.12Z"/>
    <circle class="a7246b2b-2a23-4714-99b3-dbe751d07bc7" cx="687.08544" cy="1101.04513" r="11.32533"/>
    <circle class="a7246b2b-2a23-4714-99b3-dbe751d07bc7" cx="716.2878" cy="1101.04513" r="11.32533"/>
    <circle class="a7246b2b-2a23-4714-99b3-dbe751d07bc7" cx="746.7417" cy="1101.04513" r="11.32533"/>
  </g>
  <g>
    <path class="e8fe0d66-d186-475d-864e-a30421d9c54c" d="M914.27441,998.59226c-49.8883,0-90.33075,28.02594-90.33075,62.59765a44.09459,44.09459,0,0,0,.50672,6.6449l-.00428-.003.00879.03015a45.28127,45.28127,0,0,0,1.90107,7.74652c1.71118,8.02021,3.647,20.59363,1.49823,29.61841-3.39515,14.25977-19.013,22.4082-19.013,22.4082s33.66285-16.33636,44.81641-14.25976c5.70636,1.06244,21.64215,5.27344,35.134,7.88214q2.705.55023,5.47718.98663a85.03064,85.03064,0,0,0,9.1123,1.09235l-.00549-.00385q5.36022.44679,10.8988.4549c49.88831,0,90.33075-28.02588,90.33075-62.5976S964.16272,998.59226,914.27441,998.59226Z"/>
    <circle class="a7246b2b-2a23-4714-99b3-dbe751d07bc7" cx="884.49519" cy="1063.11368" r="11.32533"/>
    <circle class="a7246b2b-2a23-4714-99b3-dbe751d07bc7" cx="913.69756" cy="1063.11368" r="11.32533"/>
    <circle class="a7246b2b-2a23-4714-99b3-dbe751d07bc7" cx="944.15146" cy="1063.11368" r="11.32533"/>
  </g>
  <g>
    <path class="e8fe0d66-d186-475d-864e-a30421d9c54c" d="M93.91217,575.80891c-49.88831,0-90.33075,28.02594-90.33075,62.59766a44.09479,44.09479,0,0,0,.50671,6.6449l-.00427-.003.00879.03015a45.28031,45.28031,0,0,0,1.90106,7.74652c1.71118,8.0202,3.647,20.59363,1.49823,29.61841-3.39514,14.25976-19.013,22.4082-19.013,22.4082S22.14178,688.5154,33.29534,690.592c5.70636,1.06244,21.64216,5.27343,35.134,7.88214q2.705.55023,5.47717.98663a85.03307,85.03307,0,0,0,9.11231,1.09235l-.0055-.00385q5.36023.44678,10.89881.4549c49.8883,0,90.33075-28.02588,90.33075-62.5976S143.80047,575.80891,93.91217,575.80891Z"/>
    <circle class="a7246b2b-2a23-4714-99b3-dbe751d07bc7" cx="64.13295" cy="640.33034" r="11.32533"/>
    <circle class="a7246b2b-2a23-4714-99b3-dbe751d07bc7" cx="93.33531" cy="640.33034" r="11.32533"/>
    <circle class="a7246b2b-2a23-4714-99b3-dbe751d07bc7" cx="123.78921" cy="640.33034" r="11.32533"/>
  </g>
  <path class="e8fe0d66-d186-475d-864e-a30421d9c54c" d="M44.93,519.43c0,23.1-18.06,43.28-44.93,54.12-1.22.5-2.46.97-3.72,1.42-2.89,1.05-5.89,1.99-8.96,2.81V461.07A108.93552,108.93552,0,0,1,0,465.3q2.37.96,4.65,2.01C28.93,478.53,44.93,497.68,44.93,519.43Z"/>
  <g>
    <path class="e8fe0d66-d186-475d-864e-a30421d9c54c" d="M713.56248,356.60192c-49.88831,0-90.33075,28.02594-90.33075,62.59765a44.09479,44.09479,0,0,0,.50671,6.6449l-.00427-.003.00879.03015a45.28031,45.28031,0,0,0,1.90106,7.74652c1.71118,8.0202,3.647,20.59363,1.49823,29.61841-3.39514,14.25976-19.013,22.4082-19.013,22.4082s33.66284-16.33636,44.81641-14.25976c5.70636,1.06244,21.64215,5.27343,35.134,7.88214q2.705.55023,5.47717.98663a85.03307,85.03307,0,0,0,9.11231,1.09235l-.0055-.00385q5.36023.44678,10.89881.4549c49.8883,0,90.33075-28.02588,90.33075-62.5976S763.45078,356.60192,713.56248,356.60192Z"/>
    <circle class="a7246b2b-2a23-4714-99b3-dbe751d07bc7" cx="683.78326" cy="421.12334" r="11.32533"/>
    <circle class="a7246b2b-2a23-4714-99b3-dbe751d07bc7" cx="712.98562" cy="421.12334" r="11.32533"/>
    <circle class="a7246b2b-2a23-4714-99b3-dbe751d07bc7" cx="743.43952" cy="421.12334" r="11.32533"/>
  </g>
  <path class="e8fe0d66-d186-475d-864e-a30421d9c54c" d="M148.56843,444.82516c-49.88831,0-90.33075,28.02594-90.33075,62.59766a44.09586,44.09586,0,0,0,.50671,6.64489l-.00427-.003.00879.03016A45.28148,45.28148,0,0,0,60.65,521.8414c1.71118,8.0202,3.647,20.59362,1.49823,29.6184-3.39514,14.25977-19.013,22.40821-19.013,22.40821S76.798,557.53164,87.95161,559.60824c5.70636,1.06244,21.64215,5.27344,35.134,7.88214q2.705.55023,5.47718.98664a85.02976,85.02976,0,0,0,9.1123,1.09234l-.00549-.00384q5.36022.44678,10.8988.45489c49.88831,0,90.33075-28.02588,90.33075-62.59759S198.45674,444.82516,148.56843,444.82516Z"/>
  <circle class="a7246b2b-2a23-4714-99b3-dbe751d07bc7" cx="118.78921" cy="509.34658" r="11.32533"/>
  <circle class="a7246b2b-2a23-4714-99b3-dbe751d07bc7" cx="147.99158" cy="509.34658" r="11.32533"/>
  <circle class="a7246b2b-2a23-4714-99b3-dbe751d07bc7" cx="178.44548" cy="509.34658" r="11.32533"/>
  <path class="e8fe0d66-d186-475d-864e-a30421d9c54c" d="M338.0705,418.12334c-49.88831,0-90.33075,28.02594-90.33075,62.59766a44.09456,44.09456,0,0,0,.50671,6.64489l-.00427-.003.00879.03015a45.28031,45.28031,0,0,0,1.90106,7.74652c1.71118,8.02021,3.647,20.59363,1.49823,29.61841-3.39514,14.25977-19.013,22.40821-19.013,22.40821s33.66284-16.33637,44.81641-14.25977c5.70636,1.06244,21.64215,5.27344,35.134,7.88214q2.705.55023,5.47717.98663a85.02793,85.02793,0,0,0,9.11231,1.09235l-.00549-.00384q5.36022.44678,10.8988.45489c49.88831,0,90.33075-28.02588,90.33075-62.59759S387.95881,418.12334,338.0705,418.12334Z"/>
  <circle class="a7246b2b-2a23-4714-99b3-dbe751d07bc7" cx="308.29128" cy="482.64476" r="11.32533"/>
  <circle class="a7246b2b-2a23-4714-99b3-dbe751d07bc7" cx="337.49365" cy="482.64476" r="11.32533"/>
  <circle class="a7246b2b-2a23-4714-99b3-dbe751d07bc7" cx="367.94754" cy="482.64476" r="11.32533"/>
  <g>
    <path class="e8fe0d66-d186-475d-864e-a30421d9c54c" d="M728.19,90.06612c-49.8883,0-90.33075,28.02594-90.33075,62.59765a44.09459,44.09459,0,0,0,.50672,6.6449l-.00428-.003.00879.03015a45.28127,45.28127,0,0,0,1.90107,7.74652c1.71118,8.02021,3.647,20.59363,1.49823,29.61841-3.39515,14.25977-19.013,22.4082-19.013,22.4082s33.66284-16.33636,44.8164-14.25976c5.70636,1.06244,21.64215,5.27344,35.134,7.88214q2.705.55023,5.47717.98663a85.03321,85.03321,0,0,0,9.1123,1.09235l-.00549-.00385q5.36023.44679,10.8988.4549c49.88831,0,90.33075-28.02588,90.33075-62.5976S778.07829,90.06612,728.19,90.06612Z"/>
    <circle class="a7246b2b-2a23-4714-99b3-dbe751d07bc7" cx="698.41076" cy="154.58754" r="11.32533"/>
    <circle class="a7246b2b-2a23-4714-99b3-dbe751d07bc7" cx="727.61313" cy="154.58754" r="11.32533"/>
    <circle class="a7246b2b-2a23-4714-99b3-dbe751d07bc7" cx="758.06703" cy="154.58754" r="11.32533"/>
  </g>
  <g>
    <path class="e8fe0d66-d186-475d-864e-a30421d9c54c" d="M918.91491,69.45158c-49.88831,0-90.33075,28.02594-90.33075,62.59766a44.09609,44.09609,0,0,0,.50671,6.6449l-.00427-.003.00879.03015a45.28125,45.28125,0,0,0,1.90106,7.74652c1.71119,8.0202,3.647,20.59363,1.49823,29.61841-3.39514,14.25976-19.013,22.4082-19.013,22.4082s33.66284-16.33636,44.81641-14.25976c5.70636,1.06243,21.64215,5.27343,35.134,7.88214q2.705.55023,5.47718.98663a85.03262,85.03262,0,0,0,9.1123,1.09235l-.00549-.00385q5.36022.44678,10.8988.4549c49.88831,0,90.33075-28.02588,90.33075-62.5976S968.80322,69.45158,918.91491,69.45158Z"/>
    <circle class="a7246b2b-2a23-4714-99b3-dbe751d07bc7" cx="889.13569" cy="133.97301" r="11.32533"/>
    <circle class="a7246b2b-2a23-4714-99b3-dbe751d07bc7" cx="918.33806" cy="133.97301" r="11.32533"/>
    <circle class="a7246b2b-2a23-4714-99b3-dbe751d07bc7" cx="948.79196" cy="133.97301" r="11.32533"/>
  </g>
  <path class="e8fe0d66-d186-475d-864e-a30421d9c54c" d="M164.89376,184.79856c-49.88831,0-90.33075,28.02594-90.33075,62.59766a44.09456,44.09456,0,0,0,.50671,6.64489l-.00427-.003.00879.03015a45.28065,45.28065,0,0,0,1.90106,7.74653c1.71118,8.0202,3.647,20.59362,1.49823,29.6184-3.39514,14.25977-19.013,22.40821-19.013,22.40821s33.66284-16.33637,44.81641-14.25977c5.70636,1.06244,21.64215,5.27344,35.134,7.88214q2.705.55023,5.47717.98664a85.03021,85.03021,0,0,0,9.11231,1.09234l-.0055-.00384q5.36024.44677,10.89881.45489c49.8883,0,90.33075-28.02588,90.33075-62.59759S214.78206,184.79856,164.89376,184.79856Z"/>
  <circle class="a7246b2b-2a23-4714-99b3-dbe751d07bc7" cx="135.11454" cy="249.31998" r="11.32533"/>
  <circle class="a7246b2b-2a23-4714-99b3-dbe751d07bc7" cx="164.31691" cy="249.31998" r="11.32533"/>
  <circle class="a7246b2b-2a23-4714-99b3-dbe751d07bc7" cx="194.7708" cy="249.31998" r="11.32533"/>
  <path class="e8fe0d66-d186-475d-864e-a30421d9c54c" d="M532.80077,125.96952c-49.88831,0-90.33075,28.02594-90.33075,62.59766a44.09479,44.09479,0,0,0,.50671,6.6449l-.00427-.003.00879.03015a45.28031,45.28031,0,0,0,1.90106,7.74652c1.71118,8.0202,3.647,20.59363,1.49823,29.61841-3.39514,14.25976-19.013,22.4082-19.013,22.4082S461.03038,238.676,472.184,240.7526c5.70636,1.06244,21.64215,5.27344,35.134,7.88215q2.705.55023,5.47717.98663a85.03021,85.03021,0,0,0,9.11231,1.09234l-.00549-.00384q5.36022.44678,10.8988.45489c49.88831,0,90.33075-28.02587,90.33075-62.59759S582.68908,125.96952,532.80077,125.96952Z"/>
  <circle class="a7246b2b-2a23-4714-99b3-dbe751d07bc7" cx="503.02155" cy="190.49095" r="11.32533"/>
  <circle class="a7246b2b-2a23-4714-99b3-dbe751d07bc7" cx="532.22392" cy="190.49095" r="11.32533"/>
  <circle class="a7246b2b-2a23-4714-99b3-dbe751d07bc7" cx="562.67782" cy="190.49095" r="11.32533"/>
  <path class="e8fe0d66-d186-475d-864e-a30421d9c54c" d="M348.97315,154.58754c-49.8883,0-90.33075,28.02594-90.33075,62.59766a44.09456,44.09456,0,0,0,.50672,6.64489l-.00428-.003.00879.03016a45.28148,45.28148,0,0,0,1.90106,7.74652c1.71119,8.0202,3.647,20.59362,1.49823,29.6184-3.39514,14.25977-19.013,22.40821-19.013,22.40821s33.66285-16.33637,44.81641-14.25977c5.70636,1.06244,21.64215,5.27344,35.134,7.88214q2.705.55023,5.47718.98664a85.03036,85.03036,0,0,0,9.1123,1.09234l-.00549-.00384q5.36022.44678,10.8988.45489c49.88831,0,90.33075-28.02588,90.33075-62.59759S398.86146,154.58754,348.97315,154.58754Z"/>
  <circle class="a7246b2b-2a23-4714-99b3-dbe751d07bc7" cx="319.19393" cy="219.10896" r="11.32533"/>
  <circle class="a7246b2b-2a23-4714-99b3-dbe751d07bc7" cx="348.3963" cy="219.10896" r="11.32533"/>
  <circle class="a7246b2b-2a23-4714-99b3-dbe751d07bc7" cx="378.8502" cy="219.10896" r="11.32533"/>
  <path class="e8fe0d66-d186-475d-864e-a30421d9c54c" d="M213.64737,51.7218c-49.8883,0-90.33075,28.02594-90.33075,62.59765a44.09459,44.09459,0,0,0,.50672,6.6449l-.00428-.003.00879.03015a45.28125,45.28125,0,0,0,1.90106,7.74652c1.71119,8.02021,3.647,20.59363,1.49823,29.61841-3.39514,14.25977-19.013,22.40821-19.013,22.40821s33.66285-16.33637,44.81641-14.25977c5.70636,1.06244,21.64215,5.27344,35.134,7.88214q2.705.55023,5.47718.98663a85.02748,85.02748,0,0,0,9.1123,1.09235l-.00549-.00385q5.36022.44679,10.8988.4549c49.88831,0,90.33075-28.02588,90.33075-62.5976S263.53568,51.7218,213.64737,51.7218Z"/>
  <circle class="a7246b2b-2a23-4714-99b3-dbe751d07bc7" cx="183.86815" cy="116.24322" r="11.32533"/>
  <circle class="a7246b2b-2a23-4714-99b3-dbe751d07bc7" cx="213.07052" cy="116.24322" r="11.32533"/>
  <circle class="a7246b2b-2a23-4714-99b3-dbe751d07bc7" cx="243.52442" cy="116.24322" r="11.32533"/>
  <g>
    <path class="e8fe0d66-d186-475d-864e-a30421d9c54c" d="M278.12717,552.61629c49.8883,0,90.33075,28.02594,90.33075,62.59766a44.09456,44.09456,0,0,1-.50672,6.64489l.00427-.003-.00878.03015a45.28138,45.28138,0,0,1-1.90107,7.74653c-1.71118,8.0202-3.647,20.59362-1.49823,29.6184,3.39515,14.25977,19.013,22.40821,19.013,22.40821s-33.66284-16.33637-44.8164-14.25977c-5.70636,1.06244-21.64215,5.27344-35.134,7.88214q-2.705.55023-5.47717.98664a85.03036,85.03036,0,0,1-9.1123,1.09234l.00549-.00384q-5.36023.44678-10.8988.45489c-49.88831,0-90.33075-28.02588-90.33075-62.59759S228.23886,552.61629,278.12717,552.61629Z"/>
    <circle class="a7246b2b-2a23-4714-99b3-dbe751d07bc7" cx="307.90639" cy="617.13771" r="11.32533"/>
    <circle class="a7246b2b-2a23-4714-99b3-dbe751d07bc7" cx="278.70402" cy="617.13771" r="11.32533"/>
    <circle class="a7246b2b-2a23-4714-99b3-dbe751d07bc7" cx="248.25012" cy="617.13771" r="11.32533"/>
  </g>
  <g>
    <path class="e8fe0d66-d186-475d-864e-a30421d9c54c" d="M491.40893,520.67191c49.8883,0,90.33075,28.02594,90.33075,62.59766a44.09479,44.09479,0,0,1-.50672,6.6449l.00427-.003-.00878.03015a45.28127,45.28127,0,0,1-1.90107,7.74652c-1.71118,8.0202-3.647,20.59363-1.49823,29.61841,3.39515,14.25976,19.013,22.4082,19.013,22.4082s-33.66284-16.33637-44.8164-14.25977c-5.70636,1.06244-21.64215,5.27344-35.134,7.88214q-2.705.55025-5.47717.98664a85.03036,85.03036,0,0,1-9.1123,1.09234l.00549-.00384q-5.36023.44677-10.8988.45489c-49.88831,0-90.33075-28.02588-90.33075-62.59759S441.52062,520.67191,491.40893,520.67191Z"/>
    <circle class="a7246b2b-2a23-4714-99b3-dbe751d07bc7" cx="521.18815" cy="585.19334" r="11.32533"/>
    <circle class="a7246b2b-2a23-4714-99b3-dbe751d07bc7" cx="491.98578" cy="585.19334" r="11.32533"/>
    <circle class="a7246b2b-2a23-4714-99b3-dbe751d07bc7" cx="461.53188" cy="585.19334" r="11.32533"/>
  </g>
  <g>
    <path class="e8fe0d66-d186-475d-864e-a30421d9c54c" d="M1140.03,848.27V945.32a13.36617,13.36617,0,0,0-2.1001.18c-1.03992.19-2.41992.49-4.06994.87-7.38,1.67-20.03992,4.88-31.06995,7.01-1.80005.37-3.63013.7-5.47.99a86.909,86.909,0,0,1-9.11011,1.09c-3.56995.29-7.21.45-10.8999.45-32.49,0-60.97-11.88-76.87006-29.72-8.54-9.56-13.46-20.82-13.46-32.88,0-31.41,33.39-57.41,76.91-61.9a128.52772,128.52772,0,0,1,13.42-.69c21.40991,0,41.08,5.16,56.54993,13.78Q1137.07,846.285,1140.03,848.27Z"/>
    <circle class="a7246b2b-2a23-4714-99b3-dbe751d07bc7" cx="1107.08941" cy="895.23717" r="11.32533"/>
    <circle class="a7246b2b-2a23-4714-99b3-dbe751d07bc7" cx="1077.88705" cy="895.23717" r="11.32533"/>
    <circle class="a7246b2b-2a23-4714-99b3-dbe751d07bc7" cx="1047.43315" cy="895.23717" r="11.32533"/>
  </g>
  <g>
    <path class="e8fe0d66-d186-475d-864e-a30421d9c54c" d="M671.30828,485.34494c49.88831,0,90.33075,28.02594,90.33075,62.59766a44.09586,44.09586,0,0,1-.50671,6.64489l.00427-.003-.00879.03016a45.28125,45.28125,0,0,1-1.90106,7.74652c-1.71119,8.0202-3.647,20.59362-1.49823,29.6184,3.39514,14.25977,19.013,22.40821,19.013,22.40821S743.07867,598.05142,731.9251,600.128c-5.70636,1.06244-21.64215,5.27344-35.134,7.88214q-2.705.55023-5.47718.98664a85.02976,85.02976,0,0,1-9.1123,1.09234l.00549-.00384q-5.36022.44678-10.8988.45489c-49.88831,0-90.33075-28.02588-90.33075-62.59759S621.42,485.34494,671.30828,485.34494Z"/>
    <circle class="a7246b2b-2a23-4714-99b3-dbe751d07bc7" cx="701.0875" cy="549.86636" r="11.32533"/>
    <circle class="a7246b2b-2a23-4714-99b3-dbe751d07bc7" cx="671.88513" cy="549.86636" r="11.32533"/>
    <circle class="a7246b2b-2a23-4714-99b3-dbe751d07bc7" cx="641.43123" cy="549.86636" r="11.32533"/>
  </g>
  <path class="e8fe0d66-d186-475d-864e-a30421d9c54c" d="M480.50627,255.01237c49.88831,0,90.33075,28.02594,90.33075,62.59766a44.09456,44.09456,0,0,1-.50671,6.64489l.00427-.003-.00879.03015a45.28065,45.28065,0,0,1-1.90106,7.74653c-1.71118,8.0202-3.647,20.59362-1.49823,29.6184,3.39514,14.25977,19.013,22.40821,19.013,22.40821s-33.66284-16.33637-44.8164-14.25977c-5.70636,1.06244-21.64216,5.27344-35.134,7.88214q-2.705.55023-5.47717.98664a85.03036,85.03036,0,0,1-9.1123,1.09234l.00549-.00384q-5.36023.44678-10.89881.45489c-49.8883,0-90.33074-28.02588-90.33074-62.59759S430.618,255.01237,480.50627,255.01237Z"/>
  <circle class="a7246b2b-2a23-4714-99b3-dbe751d07bc7" cx="510.28549" cy="319.53379" r="11.32533"/>
  <circle class="a7246b2b-2a23-4714-99b3-dbe751d07bc7" cx="481.08313" cy="319.53379" r="11.32533"/>
  <circle class="a7246b2b-2a23-4714-99b3-dbe751d07bc7" cx="450.62923" cy="319.53379" r="11.32533"/>
  <g>
    <path class="e8fe0d66-d186-475d-864e-a30421d9c54c" d="M710.56248,614.01993c-49.88831,0-90.33075,28.02594-90.33075,62.59766a44.09479,44.09479,0,0,0,.50671,6.6449l-.00427-.003.00879.03015a45.28031,45.28031,0,0,0,1.90106,7.74652c1.71118,8.0202,3.647,20.59363,1.49823,29.61841-3.39514,14.25976-19.013,22.4082-19.013,22.4082s33.66284-16.33636,44.81641-14.25976c5.70636,1.06243,21.64215,5.27343,35.134,7.88214q2.705.55023,5.47717.98663a85.03307,85.03307,0,0,0,9.11231,1.09235l-.0055-.00385q5.36023.44677,10.89881.4549c49.8883,0,90.33075-28.02588,90.33075-62.5976S760.45078,614.01993,710.56248,614.01993Z"/>
    <circle class="a7246b2b-2a23-4714-99b3-dbe751d07bc7" cx="680.78326" cy="678.54136" r="11.32533"/>
    <circle class="a7246b2b-2a23-4714-99b3-dbe751d07bc7" cx="709.98562" cy="678.54136" r="11.32533"/>
    <circle class="a7246b2b-2a23-4714-99b3-dbe751d07bc7" cx="740.43952" cy="678.54136" r="11.32533"/>
  </g>
  <path class="e8fe0d66-d186-475d-864e-a30421d9c54c" d="M1140.03,462.86v53.33a60.10813,60.10813,0,0,1-6.17,7.63,66.18294,66.18294,0,0,1-4.98,4.75c-16.54992,14.36-42.03,23.55-70.59,23.55-3.69006,0-7.33008-.16-10.9-.45a87.20033,87.20033,0,0,1-9.11-1.09c-1.8501-.29-3.67-.62-5.48-.99-13.49005-2.61-29.42005-6.82-35.13007-7.88-10.8-2.01-42.7,13.24-44.72,14.21,1.34-.73,15.68-8.77,18.92-22.36,2.15-9.02.21-21.6-1.5-29.62a44.85983,44.85983,0,0,1-1.9-7.74.04964.04964,0,0,1-.01-.03,44.40039,44.40039,0,0,1-.5-6.65c0-34.57,40.44-62.59,90.33-62.59,22.18994,0,42.51,5.55,58.24,14.75a77.6108,77.6108,0,0,1,17.33,13.55A60.1032,60.1032,0,0,1,1140.03,462.86Z"/>
  <circle class="a7246b2b-2a23-4714-99b3-dbe751d07bc7" cx="1028.50735" cy="493.44769" r="11.32533"/>
  <circle class="a7246b2b-2a23-4714-99b3-dbe751d07bc7" cx="1057.70972" cy="493.44769" r="11.32533"/>
  <circle class="a7246b2b-2a23-4714-99b3-dbe751d07bc7" cx="1088.16361" cy="493.44769" r="11.32533"/>
  <g>
    <path class="e8fe0d66-d186-475d-864e-a30421d9c54c" d="M907.3,586.12c-49.88831,0-90.33075,28.02594-90.33075,62.59766a44.09479,44.09479,0,0,0,.50671,6.6449l-.00427-.003.00879.03015a45.28031,45.28031,0,0,0,1.90106,7.74652c1.71118,8.0202,3.647,20.59363,1.49823,29.61841-3.39514,14.25976-19.013,22.4082-19.013,22.4082s33.66284-16.33637,44.8164-14.25977c5.70636,1.06244,21.64216,5.27344,35.134,7.88214q2.705.55025,5.47717.98664a85.03036,85.03036,0,0,0,9.1123,1.09234l-.00549-.00384q5.36023.44678,10.89881.45489c49.8883,0,90.33074-28.02588,90.33074-62.59759S957.18833,586.12,907.3,586.12Z"/>
    <circle class="a7246b2b-2a23-4714-99b3-dbe751d07bc7" cx="877.52081" cy="650.64144" r="11.32533"/>
    <circle class="a7246b2b-2a23-4714-99b3-dbe751d07bc7" cx="906.72317" cy="650.64144" r="11.32533"/>
    <circle class="a7246b2b-2a23-4714-99b3-dbe751d07bc7" cx="937.17707" cy="650.64144" r="11.32533"/>
  </g>
  <g>
    <path class="e8fe0d66-d186-475d-864e-a30421d9c54c" d="M1140.03,567.82V674.21q-3,1.305-6.17,2.43a113.05817,113.05817,0,0,1-15.6,4.36,127.36179,127.36179,0,0,1-25.8501,2.61q-5.53491,0-10.8999-.45a84.15027,84.15027,0,0,1-9.1001-1.09q-2.77478-.43506-5.48-.99c-13.49-2.61-29.42993-6.82-35.12988-7.88C1020.99,671.19,989.1,686.44,987.08,687.41c1.34-.73,15.68-8.77,18.91-22.36,2.15-9.02.22-21.6-1.5-29.62a45.78938,45.78938,0,0,1-1.9-7.74.10083.10083,0,0,0-.01-.03h.01a44.36959,44.36959,0,0,1-.51-6.64c0-34.58,40.44-62.6,90.32989-62.6a124.40887,124.40887,0,0,1,37.65015,5.68c1.28.4,2.54993.83,3.79993,1.28Q1137.025,566.52,1140.03,567.82Z"/>
    <circle class="a7246b2b-2a23-4714-99b3-dbe751d07bc7" cx="1062.63345" cy="622.93961" r="11.32533"/>
    <circle class="a7246b2b-2a23-4714-99b3-dbe751d07bc7" cx="1091.83582" cy="622.93961" r="11.32533"/>
    <circle class="a7246b2b-2a23-4714-99b3-dbe751d07bc7" cx="1122.28972" cy="622.93961" r="11.32533"/>
  </g>
  <path class="e8fe0d66-d186-475d-864e-a30421d9c54c" d="M911.651,327.7858c-49.88831,0-90.33075,28.02594-90.33075,62.59765a44.09459,44.09459,0,0,0,.50671,6.6449l-.00427-.003.00879.03015a45.28031,45.28031,0,0,0,1.90106,7.74652c1.71118,8.02021,3.647,20.59363,1.49823,29.61841-3.39514,14.25977-19.013,22.4082-19.013,22.4082s33.66284-16.33636,44.81641-14.25976c5.70636,1.06244,21.64215,5.27344,35.134,7.88214q2.705.55023,5.47717.98663a85.03307,85.03307,0,0,0,9.11231,1.09235l-.0055-.00385q5.36023.44679,10.89881.4549c49.8883,0,90.33075-28.02588,90.33075-62.5976S961.53927,327.7858,911.651,327.7858Z"/>
  <circle class="a7246b2b-2a23-4714-99b3-dbe751d07bc7" cx="881.87175" cy="392.30722" r="11.32533"/>
  <circle class="a7246b2b-2a23-4714-99b3-dbe751d07bc7" cx="911.07411" cy="392.30722" r="11.32533"/>
  <circle class="a7246b2b-2a23-4714-99b3-dbe751d07bc7" cx="941.52801" cy="392.30722" r="11.32533"/>
  <path class="e8fe0d66-d186-475d-864e-a30421d9c54c" d="M1141.52,364.4a11.21754,11.21754,0,0,1-1.49,5.61005v49.5c-2.03.47-4.1001.94-6.17,1.38995-2.68006.58-5.37,1.15-7.96,1.65-1.80993.37-3.63.7-5.4801.99-2.94995.48-5.66992.84-7.99,1.02-.38989.03-.76.05-1.11987.07v-.01c-3.57007.3-7.21008.46-10.90015.46-49.88989,0-90.32989-28.03-90.32989-62.6,0-26.27,23.35992-48.77,56.47-58.05a128.382,128.382,0,0,1,67.30994-.12q3.15.87,6.17,1.91V358.8A11.18014,11.18014,0,0,1,1141.52,364.4Z"/>
  <path class="a7246b2b-2a23-4714-99b3-dbe751d07bc7" d="M1141.52,364.4a11.346,11.346,0,1,1-1.49-5.6A11.21754,11.21754,0,0,1,1141.52,364.4Z"/>
  <circle class="a7246b2b-2a23-4714-99b3-dbe751d07bc7" cx="1100.99" cy="364.40485" r="11.32533"/>
  <circle class="a7246b2b-2a23-4714-99b3-dbe751d07bc7" cx="1070.53611" cy="364.40485" r="11.32533"/>
  <g>
    <path class="e8fe0d66-d186-475d-864e-a30421d9c54c" d="M870.25912,722.48819c49.88831,0,90.33075,28.02594,90.33075,62.59765a44.09469,44.09469,0,0,1-.50671,6.6449l.00427-.003-.00879.03015a45.28031,45.28031,0,0,1-1.90106,7.74652c-1.71118,8.02021-3.647,20.59363-1.49823,29.61841,3.39514,14.25977,19.013,22.4082,19.013,22.4082s-33.66284-16.33636-44.81641-14.25976c-5.70635,1.06244-21.64215,5.27344-35.134,7.88214q-2.705.55023-5.47717.98663a85.03307,85.03307,0,0,1-9.11231,1.09235l.0055-.00385q-5.36023.44679-10.89881.4549c-49.8883,0-90.33075-28.02588-90.33075-62.5976S820.37082,722.48819,870.25912,722.48819Z"/>
    <circle class="a7246b2b-2a23-4714-99b3-dbe751d07bc7" cx="900.03834" cy="787.00961" r="11.32533"/>
    <circle class="a7246b2b-2a23-4714-99b3-dbe751d07bc7" cx="870.83598" cy="787.00961" r="11.32533"/>
    <circle class="a7246b2b-2a23-4714-99b3-dbe751d07bc7" cx="840.38208" cy="787.00961" r="11.32533"/>
  </g>
  <g>
    <path class="e8fe0d66-d186-475d-864e-a30421d9c54c" d="M1140.03,756.03c-.01.12-.03.25-.05.37h.01a.10083.10083,0,0,0-.01.03,44.96734,44.96734,0,0,1-1.8999,7.75c-1.71008,8.02-3.65015,20.59-1.5,29.62a27.14628,27.14628,0,0,0,3.44995,8.07v7.48c-1.99-.8-4.07007-1.61-6.17-2.39-8.86-3.26-18.16-5.93-23.08-5.02-5.71,1.07-21.65,5.28-35.14,7.89q-.4649.09007-.93005.18c-1.5.29-3.02.56-4.55.8a84.57917,84.57917,0,0,1-9.10986,1.1l.01-.01c-3.58008.30005-7.21008.46-10.90015.46-49.88989,0-90.32989-28.03-90.32989-62.6,0-34.57,40.44-62.6,90.32989-62.6,24.33008,0,46.43018,6.67,62.66016,17.52,9.02991,6.02,16.26,13.34,21.03992,21.52a47.08082,47.08082,0,0,1,6.17,17.24,42.8379,42.8379,0,0,1,.46,6.32A42.165,42.165,0,0,1,1140.03,756.03Z"/>
    <circle class="a7246b2b-2a23-4714-99b3-dbe751d07bc7" cx="1079.9377" cy="751.68264" r="11.32533"/>
    <circle class="a7246b2b-2a23-4714-99b3-dbe751d07bc7" cx="1050.73533" cy="751.68264" r="11.32533"/>
    <circle class="a7246b2b-2a23-4714-99b3-dbe751d07bc7" cx="1020.28143" cy="751.68264" r="11.32533"/>
  </g>
  <path class="e8fe0d66-d186-475d-864e-a30421d9c54c" d="M859.35647,456.82864c49.88831,0,90.33075,28.02594,90.33075,62.59766a44.09479,44.09479,0,0,1-.50671,6.6449l.00427-.003-.00879.03015a45.28031,45.28031,0,0,1-1.90106,7.74652c-1.71118,8.0202-3.647,20.59363-1.49823,29.61841,3.39514,14.25976,19.013,22.4082,19.013,22.4082s-33.66284-16.33636-44.81641-14.25976c-5.70636,1.06243-21.64215,5.27343-35.134,7.88214q-2.705.55023-5.47717.98663a85.03307,85.03307,0,0,1-9.11231,1.09235l.0055-.00385q-5.36023.44678-10.89881.4549c-49.8883,0-90.33075-28.02588-90.33075-62.5976S809.46817,456.82864,859.35647,456.82864Z"/>
  <circle class="a7246b2b-2a23-4714-99b3-dbe751d07bc7" cx="889.13569" cy="521.35007" r="11.32533"/>
  <circle class="a7246b2b-2a23-4714-99b3-dbe751d07bc7" cx="859.93332" cy="521.35007" r="11.32533"/>
  <circle class="a7246b2b-2a23-4714-99b3-dbe751d07bc7" cx="829.47943" cy="521.35007" r="11.32533"/>
  <path class="e8fe0d66-d186-475d-864e-a30421d9c54c" d="M116.238,313.84141c49.88831,0,90.33075,28.02594,90.33075,62.59765a44.09479,44.09479,0,0,1-.50671,6.6449l.00427-.003-.00879.03015a45.28031,45.28031,0,0,1-1.90106,7.74652c-1.71118,8.0202-3.647,20.59363-1.49823,29.61841,3.39514,14.25977,19.013,22.4082,19.013,22.4082s-33.66284-16.33636-44.81641-14.25976c-5.70636,1.06244-21.64215,5.27343-35.134,7.88214q-2.705.55023-5.47717.98663a85.03307,85.03307,0,0,1-9.11231,1.09235l.0055-.00385q-5.36024.44678-10.89881.4549c-49.8883,0-90.33075-28.02588-90.33075-62.5976S66.34967,313.84141,116.238,313.84141Z"/>
  <circle class="a7246b2b-2a23-4714-99b3-dbe751d07bc7" cx="146.01719" cy="378.36283" r="11.32533"/>
  <circle class="a7246b2b-2a23-4714-99b3-dbe751d07bc7" cx="116.81482" cy="378.36283" r="11.32533"/>
  <circle class="a7246b2b-2a23-4714-99b3-dbe751d07bc7" cx="86.36093" cy="378.36283" r="11.32533"/>
  <g>
    <path class="e8fe0d66-d186-475d-864e-a30421d9c54c" d="M877.41992,198.743c49.88831,0,90.33075,28.02594,90.33075,62.59766a44.09479,44.09479,0,0,1-.50671,6.6449l.00427-.003-.00879.03016a45.28031,45.28031,0,0,1-1.90106,7.74652c-1.71118,8.0202-3.647,20.59362-1.49823,29.6184,3.39514,14.25977,19.013,22.40821,19.013,22.40821s-33.66284-16.33637-44.81641-14.25977c-5.70636,1.06244-21.64215,5.27344-35.134,7.88214q-2.705.55023-5.47717.98664a85.03021,85.03021,0,0,1-9.11231,1.09234l.00549-.00384q-5.36022.44677-10.8988.45489c-49.88831,0-90.33075-28.02588-90.33075-62.59759S827.53161,198.743,877.41992,198.743Z"/>
    <circle class="a7246b2b-2a23-4714-99b3-dbe751d07bc7" cx="907.19914" cy="263.26437" r="11.32533"/>
    <circle class="a7246b2b-2a23-4714-99b3-dbe751d07bc7" cx="877.99677" cy="263.26437" r="11.32533"/>
    <circle class="a7246b2b-2a23-4714-99b3-dbe751d07bc7" cx="847.54287" cy="263.26437" r="11.32533"/>
  </g>
  <g>
    <path class="e8fe0d66-d186-475d-864e-a30421d9c54c" d="M1140.03,193.13v95.15a17.0453,17.0453,0,0,0-5.1001-.02c-.31994.06-.67993.13-1.06994.21-6.45008,1.32-21.35,5.21-34.06995,7.67-1.80005.37-3.63013.7-5.47.99a87.06324,87.06324,0,0,1-9.12012,1.09l.01-.01c-3.56995.3-7.21.46-10.8999.46-3.74,0-7.42-.16-11.04-.46-44.68-3.78-79.29-30.16-79.29-62.14,0-12.51,5.30005-24.16,14.42-33.94,16.08-17.25,44.07-28.66,75.91-28.66,22.81994,0,43.65991,5.86,59.54993,15.54Q1137.085,190.96,1140.03,193.13Z"/>
    <circle class="a7246b2b-2a23-4714-99b3-dbe751d07bc7" cx="1104.08941" cy="237.99465" r="11.32533"/>
    <circle class="a7246b2b-2a23-4714-99b3-dbe751d07bc7" cx="1074.88705" cy="237.99465" r="11.32533"/>
    <circle class="a7246b2b-2a23-4714-99b3-dbe751d07bc7" cx="1044.43315" cy="237.99465" r="11.32533"/>
  </g>
  <g>
    <path class="e8fe0d66-d186-475d-864e-a30421d9c54c" d="M698.46,895.23717c49.8883,0,90.33075,28.02594,90.33075,62.59766a44.09456,44.09456,0,0,1-.50672,6.64489l.00428-.003-.00879.03015a45.28136,45.28136,0,0,1-1.90106,7.74653c-1.71119,8.0202-3.647,20.59362-1.49823,29.6184,3.39514,14.25977,19.013,22.40821,19.013,22.40821s-33.66285-16.33637-44.81641-14.25977c-5.70636,1.06244-21.64215,5.27344-35.134,7.88214q-2.705.55023-5.47718.98664a85.03036,85.03036,0,0,1-9.1123,1.09234l.00549-.00384q-5.36022.44678-10.8988.45489c-49.88831,0-90.33075-28.02588-90.33075-62.59759S648.57169,895.23717,698.46,895.23717Z"/>
    <circle class="a7246b2b-2a23-4714-99b3-dbe751d07bc7" cx="728.23922" cy="959.75859" r="11.32533"/>
    <circle class="a7246b2b-2a23-4714-99b3-dbe751d07bc7" cx="699.03685" cy="959.75859" r="11.32533"/>
    <circle class="a7246b2b-2a23-4714-99b3-dbe751d07bc7" cx="668.58295" cy="959.75859" r="11.32533"/>
  </g>
  <path class="e8fe0d66-d186-475d-864e-a30421d9c54c" d="M296.42688,283.63039c49.88831,0,90.33075,28.02594,90.33075,62.59765a44.09459,44.09459,0,0,1-.50671,6.6449l.00427-.003-.00879.03015a45.28031,45.28031,0,0,1-1.90106,7.74652c-1.71118,8.02021-3.647,20.59363-1.49823,29.61841,3.39514,14.25977,19.013,22.4082,19.013,22.4082s-33.66284-16.33636-44.81641-14.25976c-5.70636,1.06244-21.64215,5.27344-35.134,7.88214q-2.705.55023-5.47717.98663a85.03307,85.03307,0,0,1-9.11231,1.09235l.0055-.00385q-5.36023.44679-10.89881.4549c-49.8883,0-90.33075-28.02588-90.33075-62.5976S246.53858,283.63039,296.42688,283.63039Z"/>
  <circle class="a7246b2b-2a23-4714-99b3-dbe751d07bc7" cx="326.2061" cy="348.15181" r="11.32533"/>
  <circle class="a7246b2b-2a23-4714-99b3-dbe751d07bc7" cx="297.00373" cy="348.15181" r="11.32533"/>
  <circle class="a7246b2b-2a23-4714-99b3-dbe751d07bc7" cx="266.54984" cy="348.15181" r="11.32533"/>
  <g>
    <path class="e8fe0d66-d186-475d-864e-a30421d9c54c" d="M319.67344,685.54417c-49.88831,0-90.33075,28.02594-90.33075,62.59766a44.09479,44.09479,0,0,0,.50671,6.6449l-.00427-.003.00879.03015a45.28031,45.28031,0,0,0,1.90106,7.74652c1.71118,8.0202,3.647,20.59363,1.49823,29.61841-3.39514,14.25976-19.013,22.4082-19.013,22.4082s33.66284-16.33637,44.8164-14.25977c5.70636,1.06244,21.64216,5.27344,35.134,7.88214q2.705.55025,5.47717.98664a85.03021,85.03021,0,0,0,9.11231,1.09234l-.0055-.00384q5.36023.44677,10.89881.45489c49.8883,0,90.33075-28.02587,90.33075-62.59759S369.56174,685.54417,319.67344,685.54417Z"/>
    <circle class="a7246b2b-2a23-4714-99b3-dbe751d07bc7" cx="289.89422" cy="750.0656" r="11.32533"/>
    <circle class="a7246b2b-2a23-4714-99b3-dbe751d07bc7" cx="319.09658" cy="750.0656" r="11.32533"/>
    <circle class="a7246b2b-2a23-4714-99b3-dbe751d07bc7" cx="349.55048" cy="750.0656" r="11.32533"/>
  </g>
  <g>
    <path class="e8fe0d66-d186-475d-864e-a30421d9c54c" d="M303.42437,818.47205c-49.88831,0-90.33075,28.02594-90.33075,62.59766a44.09479,44.09479,0,0,0,.50671,6.6449l-.00427-.003.00879.03015a45.28031,45.28031,0,0,0,1.90106,7.74652c1.71118,8.0202,3.647,20.59363,1.49823,29.61841-3.39514,14.25976-19.013,22.4082-19.013,22.4082s33.66284-16.33636,44.81641-14.25976c5.70636,1.06243,21.64215,5.27343,35.134,7.88214q2.705.55023,5.47717.98663a85.03307,85.03307,0,0,0,9.11231,1.09235l-.00549-.00385q5.36022.44678,10.8988.4549c49.8883,0,90.33075-28.02588,90.33075-62.5976S353.31267,818.47205,303.42437,818.47205Z"/>
    <circle class="a7246b2b-2a23-4714-99b3-dbe751d07bc7" cx="273.64515" cy="884.99348" r="11.32533"/>
    <circle class="a7246b2b-2a23-4714-99b3-dbe751d07bc7" cx="302.84752" cy="884.99348" r="11.32533"/>
    <circle class="a7246b2b-2a23-4714-99b3-dbe751d07bc7" cx="333.30141" cy="884.99348" r="11.32533"/>
  </g>
  <g>
    <path class="e8fe0d66-d186-475d-864e-a30421d9c54c" d="M517.41406,650.64144c-49.88831,0-90.33075,28.02594-90.33075,62.59765a44.09479,44.09479,0,0,0,.50671,6.6449l-.00427-.003.00879.03015a45.28031,45.28031,0,0,0,1.90106,7.74652c1.71118,8.0202,3.647,20.59363,1.49823,29.61841-3.39514,14.25976-19.013,22.4082-19.013,22.4082s33.66284-16.33636,44.81641-14.25976c5.70636,1.06244,21.64215,5.27343,35.134,7.88214q2.705.55023,5.47717.98663a85.03307,85.03307,0,0,0,9.11231,1.09235l-.0055-.00385q5.36023.44677,10.89881.4549c49.8883,0,90.33075-28.02588,90.33075-62.5976S567.30236,650.64144,517.41406,650.64144Z"/>
    <circle class="a7246b2b-2a23-4714-99b3-dbe751d07bc7" cx="487.63484" cy="715.16286" r="11.32533"/>
    <circle class="a7246b2b-2a23-4714-99b3-dbe751d07bc7" cx="516.8372" cy="715.16286" r="11.32533"/>
    <circle class="a7246b2b-2a23-4714-99b3-dbe751d07bc7" cx="547.2911" cy="715.16286" r="11.32533"/>
  </g>
  <g>
    <path class="e8fe0d66-d186-475d-864e-a30421d9c54c" d="M315.32249,959.75859c-49.8883,0-90.33075,28.02594-90.33075,62.59766a44.09479,44.09479,0,0,0,.50672,6.6449l-.00427-.003.00879.03015a45.28031,45.28031,0,0,0,1.90106,7.74652c1.71118,8.0202,3.647,20.59363,1.49823,29.61841-3.39514,14.25976-19.013,22.4082-19.013,22.4082s33.66284-16.33636,44.8164-14.25977c5.70636,1.06244,21.64215,5.27344,35.134,7.88215q2.705.55023,5.47717.98663a85.03321,85.03321,0,0,0,9.1123,1.09235l-.00549-.00385q5.36023.44678,10.8988.4549c49.88831,0,90.33075-28.02588,90.33075-62.5976S365.2108,959.75859,315.32249,959.75859Z"/>
    <circle class="a7246b2b-2a23-4714-99b3-dbe751d07bc7" cx="285.54327" cy="1024.28002" r="11.32533"/>
    <circle class="a7246b2b-2a23-4714-99b3-dbe751d07bc7" cx="314.74564" cy="1024.28002" r="11.32533"/>
    <circle class="a7246b2b-2a23-4714-99b3-dbe751d07bc7" cx="345.19954" cy="1024.28002" r="11.32533"/>
  </g>
  <g>
    <path class="e8fe0d66-d186-475d-864e-a30421d9c54c" d="M124.36606,715.16286c-49.8883,0-90.33075,28.02594-90.33075,62.59766a44.09456,44.09456,0,0,0,.50672,6.64489l-.00427-.003.00878.03015a45.28127,45.28127,0,0,0,1.90107,7.74652c1.71118,8.02021,3.647,20.59363,1.49823,29.61841-3.39515,14.25977-19.013,22.40821-19.013,22.40821s33.66284-16.33637,44.8164-14.25977c5.70636,1.06244,21.64215,5.27344,35.134,7.88214q2.705.55023,5.47717.98663a85.02807,85.02807,0,0,0,9.1123,1.09235l-.00549-.00384q5.36024.44677,10.8988.45489c49.88831,0,90.33075-28.02588,90.33075-62.59759S174.25437,715.16286,124.36606,715.16286Z"/>
    <circle class="a7246b2b-2a23-4714-99b3-dbe751d07bc7" cx="94.58684" cy="779.68428" r="11.32533"/>
    <circle class="a7246b2b-2a23-4714-99b3-dbe751d07bc7" cx="123.78921" cy="779.68428" r="11.32533"/>
    <circle class="a7246b2b-2a23-4714-99b3-dbe751d07bc7" cx="154.24311" cy="779.68428" r="11.32533"/>
  </g>
  <g>
    <path class="e8fe0d66-d186-475d-864e-a30421d9c54c" d="M497.96064,787.00961c49.8883,0,90.33075,28.02594,90.33075,62.59766a44.09456,44.09456,0,0,1-.50672,6.64489l.00428-.003-.00879.03015a45.28138,45.28138,0,0,1-1.90107,7.74653c-1.71118,8.0202-3.647,20.59362-1.49823,29.6184,3.39515,14.25977,19.013,22.40821,19.013,22.40821s-33.66285-16.33637-44.81641-14.25977c-5.70636,1.06244-21.64215,5.27344-35.134,7.88214q-2.705.55023-5.47718.98664a85.03036,85.03036,0,0,1-9.1123,1.09234l.00549-.00384q-5.36023.44678-10.8988.45489c-49.88831,0-90.33075-28.02588-90.33075-62.59759S448.07233,787.00961,497.96064,787.00961Z"/>
    <circle class="a7246b2b-2a23-4714-99b3-dbe751d07bc7" cx="527.73986" cy="851.53103" r="11.32533"/>
    <circle class="a7246b2b-2a23-4714-99b3-dbe751d07bc7" cx="498.53749" cy="851.53103" r="11.32533"/>
    <circle class="a7246b2b-2a23-4714-99b3-dbe751d07bc7" cx="468.08359" cy="851.53103" r="11.32533"/>
  </g>
  <g>
    <path class="e8fe0d66-d186-475d-864e-a30421d9c54c" d="M508.86329,923.37779c49.88831,0,90.33075,28.02594,90.33075,62.59765a44.09479,44.09479,0,0,1-.50671,6.6449l.00427-.003-.00879.03015a45.28031,45.28031,0,0,1-1.90106,7.74652c-1.71118,8.0202-3.647,20.59363-1.49823,29.61841,3.39514,14.25976,19.013,22.4082,19.013,22.4082s-33.66284-16.33636-44.81641-14.25976c-5.70636,1.06244-21.64215,5.27343-35.134,7.88214q-2.705.55023-5.47717.98663a85.03307,85.03307,0,0,1-9.11231,1.09235l.00549-.00385q-5.36022.44677-10.8988.4549c-49.88831,0-90.33075-28.02588-90.33075-62.5976S458.975,923.37779,508.86329,923.37779Z"/>
    <circle class="a7246b2b-2a23-4714-99b3-dbe751d07bc7" cx="538.64251" cy="987.89921" r="11.32533"/>
    <circle class="a7246b2b-2a23-4714-99b3-dbe751d07bc7" cx="509.44014" cy="987.89921" r="11.32533"/>
    <circle class="a7246b2b-2a23-4714-99b3-dbe751d07bc7" cx="478.98624" cy="987.89921" r="11.32533"/>
  </g>
  <g>
    <path class="e8fe0d66-d186-475d-864e-a30421d9c54c" d="M884.39431,858.85636c49.8883,0,90.33075,28.02594,90.33075,62.59766a44.09479,44.09479,0,0,1-.50672,6.6449l.00427-.003-.00878.03015a45.28127,45.28127,0,0,1-1.90107,7.74652c-1.71118,8.0202-3.647,20.59363-1.49823,29.61841,3.39515,14.25976,19.013,22.4082,19.013,22.4082s-33.66284-16.33637-44.8164-14.25977c-5.70636,1.06244-21.64215,5.27344-35.134,7.88214q-2.705.55025-5.47717.98664a85.03036,85.03036,0,0,1-9.1123,1.09234l.00549-.00384q-5.36023.44678-10.8988.45489c-49.88831,0-90.33075-28.02588-90.33075-62.59759S834.506,858.85636,884.39431,858.85636Z"/>
    <circle class="a7246b2b-2a23-4714-99b3-dbe751d07bc7" cx="914.17353" cy="923.37779" r="11.32533"/>
    <circle class="a7246b2b-2a23-4714-99b3-dbe751d07bc7" cx="884.97116" cy="923.37779" r="11.32533"/>
    <circle class="a7246b2b-2a23-4714-99b3-dbe751d07bc7" cx="854.51726" cy="923.37779" r="11.32533"/>
  </g>
  <g>
    <path class="e8fe0d66-d186-475d-864e-a30421d9c54c" d="M682.21093,753.95063c49.88831,0,90.33075,28.02594,90.33075,62.59766a44.09479,44.09479,0,0,1-.50671,6.6449l.00427-.003-.00879.03016a45.28031,45.28031,0,0,1-1.90106,7.74652c-1.71118,8.0202-3.647,20.59362-1.49823,29.6184,3.39514,14.25977,19.013,22.40821,19.013,22.40821s-33.66284-16.33637-44.81641-14.25977c-5.70636,1.06244-21.64215,5.27344-35.134,7.88214q-2.705.55023-5.47717.98664a85.03021,85.03021,0,0,1-9.11231,1.09234l.0055-.00384q-5.36023.44677-10.89881.45489c-49.8883,0-90.33075-28.02588-90.33075-62.59759S632.32263,753.95063,682.21093,753.95063Z"/>
    <circle class="a7246b2b-2a23-4714-99b3-dbe751d07bc7" cx="711.99015" cy="818.47205" r="11.32533"/>
    <circle class="a7246b2b-2a23-4714-99b3-dbe751d07bc7" cx="682.78778" cy="818.47205" r="11.32533"/>
    <circle class="a7246b2b-2a23-4714-99b3-dbe751d07bc7" cx="652.33389" cy="818.47205" r="11.32533"/>
  </g>
  <g>
    <path class="e8fe0d66-d186-475d-864e-a30421d9c54c" d="M874.52,90.02c-.59-.28-3.7-1.77-8.09-3.69-.01,0-.01-.01-.02-.01a.00976.00976,0,0,1-.01-.01c-1.64-.72-3.46-1.5-5.39-2.3-10.66-4.4-24.73-9.41-31.2-8.2-5.71,1.06-21.65,5.27-35.14,7.88-1.8.37-3.63.7-5.47.99a87.04777,87.04777,0,0,1-9.12,1.09l.01-.01c-3.57.3-7.21.46-10.9.46-49.89,0-90.33-28.03-90.33-62.6a44.39577,44.39577,0,0,1,1.94-12.95A48.84132,48.84132,0,0,1,685.52,0a58.07106,58.07106,0,0,1,6.94-9.42H845.92A58.07113,58.07113,0,0,1,852.86,0a46.18384,46.18384,0,0,1,6.66,23.62,43.22145,43.22145,0,0,1-.51,6.65l.01-.00995a.10027.10027,0,0,0-.01.03,44.96653,44.96653,0,0,1-1.9,7.75c-1.71,8.02-3.65,20.59-1.5,29.62a31.30588,31.30588,0,0,0,8.66,14.55A47.72748,47.72748,0,0,0,874.52,90.02Z"/>
    <circle class="a7246b2b-2a23-4714-99b3-dbe751d07bc7" cx="798.96949" cy="25.54469" r="11.32533"/>
    <circle class="a7246b2b-2a23-4714-99b3-dbe751d07bc7" cx="769.76712" cy="25.54469" r="11.32533"/>
    <circle class="a7246b2b-2a23-4714-99b3-dbe751d07bc7" cx="739.31322" cy="25.54469" r="11.32533"/>
  </g>
  <g>
    <path class="e8fe0d66-d186-475d-864e-a30421d9c54c" d="M111.238,854.5168c49.88831,0,90.33075,28.02594,90.33075,62.59766a44.09479,44.09479,0,0,1-.50671,6.6449l.00427-.003-.00879.03015a45.28031,45.28031,0,0,1-1.90106,7.74652c-1.71118,8.0202-3.647,20.59363-1.49823,29.61841,3.39514,14.25976,19.013,22.4082,19.013,22.4082s-33.66284-16.33637-44.81641-14.25977c-5.70636,1.06244-21.64215,5.27344-35.134,7.88214q-2.705.55025-5.47717.98664a85.03021,85.03021,0,0,1-9.11231,1.09234l.0055-.00384q-5.36024.44678-10.89881.45489c-49.8883,0-90.33075-28.02587-90.33075-62.59759S61.34967,854.5168,111.238,854.5168Z"/>
    <circle class="a7246b2b-2a23-4714-99b3-dbe751d07bc7" cx="141.01719" cy="919.03823" r="11.32533"/>
    <circle class="a7246b2b-2a23-4714-99b3-dbe751d07bc7" cx="111.81482" cy="919.03823" r="11.32533"/>
    <circle class="a7246b2b-2a23-4714-99b3-dbe751d07bc7" cx="81.36093" cy="919.03823" r="11.32533"/>
  </g>
  <path class="a7246b2b-2a23-4714-99b3-dbe751d07bc7" d="M-12.68-9.42v1152.7H1140.03V-9.42Zm8.88,574.8A572.369,572.369,0,0,1,0,499.41q1.875-16.2,4.65-32.1a562.05689,562.05689,0,0,1,21.69-84.78q7.365-21.66,16.43-42.51a566.04723,566.04723,0,0,1,98.16-152.99q8.77506-9.825,18.05-19.22a563.0111,563.0111,0,0,1,47.01-42.73q8.55-6.975,17.37-13.57a565.98593,565.98593,0,0,1,112.5-65.67h.01q24.705-10.815,50.58-19.32h.03c.01,0,.01,0,.02-.00995A564.62447,564.62447,0,0,1,520.89,0q20.91-1.545,42.24-1.55,21.315,0,42.24,1.55A568.35326,568.35326,0,0,1,680.8,10.67q24.15,5.1,47.51,12.22,10.83,3.28492,21.46,7,6.75,2.34,13.41,4.86c1.79.67,3.57,1.36,5.35,2.05a564.311,564.311,0,0,1,93.39,46.69q2.25,1.395,4.48,2.82a.00976.00976,0,0,0,.01.01c.01,0,.01.01.02.01A560.82384,560.82384,0,0,1,917.32,122.7q6.21,4.95,12.28,10.11a568.9132,568.9132,0,0,1,48.64,46.44q10.395,11.175,20.16,22.88a566.13276,566.13276,0,0,1,64.87,96.08c1.12,2.07,2.22,4.14,3.28,6.22A560.18577,560.18577,0,0,1,1091.21,358.69v.01q3.1952,8.16,6.14,16.43,8.625,24.225,15.08,49.43,2.19012,8.505,4.1001,17.12a565.75641,565.75641,0,0,1,12.35,86.89q1.14,17.625,1.18006,35.53v1.28q0,24.165-1.99,47.82-.8551,10.275-2.07007,20.43v.01q-2.89489,24-7.74,47.36-2.46,11.93994-5.43994,23.68A563.04443,563.04443,0,0,1,1074.71,810.01q-5.18994,10.83-10.81995,21.4a567.27171,567.27171,0,0,1-63.45,94.78q-14.52,17.595-30.42,33.96-7.155,7.395-14.6,14.51-13.305,12.765-27.43,24.65a566.96012,566.96012,0,0,1-103.43,69.25006q-10.83,5.65485-21.94,10.83984-21.975,10.24512-44.96,18.65015-10.59,3.88494-21.37994,7.33c-4,1.28992-8.01,2.5199-12.04,3.72q-5.22,1.53-10.48,2.98a563.03081,563.03081,0,0,1-82.6,16.19006q-28.095,3.36-56.98,3.93994c-3.67.06006-7.36.1001-11.05.1001q-19.38,0-38.43-1.28-10.695-.72-21.28-1.83008c-3.49-.36-6.96-.76-10.43-1.17993h-.01q-8.76-1.095-17.43-2.43a561.85,561.85,0,0,1-142.38-41.86h-.01a568.96,568.96,0,0,1-210.5-161.42q-5.865-7.2-11.45-14.59A562.7559,562.7559,0,0,1,78,858.89q-8.67-14.28-16.5-29.12a562.51115,562.51115,0,0,1-50.35-134.5q-1.725-7.365-3.26-14.8Q2.895,656.275,0,631.35q-3.22494-27.795-3.72-56.38Q-3.795,570.185-3.8,565.38Z"/>
  <rect class="a7246b2b-2a23-4714-99b3-dbe751d07bc7" x="257.04226" y="257.04226" width="619.77375" height="619.77375" rx="79.04928"/>
  <path class="a7246b2b-2a23-4714-99b3-dbe751d07bc7" d="M267.015,584.96687s-11.79044,137.52132-9.97269,212.79986c1.93582,80.1682-59.41486,103.392-59.41486,103.392S357.1359,864.274,510.28549,873.66815c44.32552,2.71891-102.66056-137.03927-102.66056-137.03927Z"/>
  <g>
    <path class="b42c5a3b-05b4-47e1-bc9b-00f621dcb762" d="M759.48828,846.02832c-29.3291,0-51.04394-22.84277-51.04394-54.00488,0-31.02149,21.57324-54.00586,51.04394-54.00586S810.5332,761.002,810.5332,792.02344C810.5332,823.18555,788.81836,846.02832,759.48828,846.02832Zm0-84.88574c-18.7539,0-31.585,13.25488-31.585,30.88086,0,17.625,12.83106,30.87988,31.585,30.87988s31.58594-13.25488,31.58594-30.87988C791.07422,774.39746,778.24219,761.14258,759.48828,761.14258Z"/>
    <path class="b42c5a3b-05b4-47e1-bc9b-00f621dcb762" d="M799.11133,728.57617l-17.20313-7.75488c6.06348-8.31934,10.29395-20.72754,10.29395-32.57324,0-13.53614-4.5127-19.03516-10.5752-19.03516-18.47265,0-5.78125,57.38965-42.44336,57.38965-16.77929,0-30.73925-13.53711-30.73925-41.59668,0-12.40918,2.96093-25.09961,8.74218-34.26465l17.34375,7.04981a55.744,55.744,0,0,0-7.75488,27.35546c0,13.53711,5.07617,18.75391,11.28027,18.75391,18.19043,0,5.63965-57.38965,41.87891-57.38965,16.49707,0,30.59863,13.67774,30.59863,41.87891C810.5332,704.041,805.87988,719.834,799.11133,728.57617Z"/>
    <path class="b42c5a3b-05b4-47e1-bc9b-00f621dcb762" d="M759.48828,637.06934c-29.3291,0-51.04394-22.84278-51.04394-54.00489,0-31.02148,21.57324-54.00586,51.04394-54.00586S810.5332,552.043,810.5332,583.06445C810.5332,614.22656,788.81836,637.06934,759.48828,637.06934Zm0-84.88575c-18.7539,0-31.585,13.25489-31.585,30.88086,0,17.625,12.83106,30.87989,31.585,30.87989s31.58594-13.25489,31.58594-30.87989C791.07422,565.43848,778.24219,552.18359,759.48828,552.18359Z"/>
    <path class="b42c5a3b-05b4-47e1-bc9b-00f621dcb762" d="M759.48828,518.06641c-29.752,0-51.04394-22.84327-51.04394-53.583,0-17.06152,6.2041-31.30322,17.48535-40.60938l13.53613,14.66455c-7.61426,6.62745-11.5625,14.94678-11.5625,24.8169,0,18.47217,12.97168,31.58594,31.585,31.58594s31.58594-13.11377,31.58594-31.58594c0-9.87012-3.94824-18.18945-11.70313-24.8169L792.90723,423.874c11.42089,9.30616,17.626,23.54786,17.626,40.751C810.5332,495.22314,789.24023,518.06641,759.48828,518.06641Z"/>
    <path class="b42c5a3b-05b4-47e1-bc9b-00f621dcb762" d="M790.22852,341.53223h18.6123V416.125H794.03516l-35.957-38.07178c-8.31835-8.74267-13.39453-10.29345-18.18945-10.29345-7.75586,0-12.26758,5.35839-12.26758,15.79248,0,8.46045,3.24317,15.65185,9.8711,20.4458l-10.7168,16.63867c-11.13965-7.61426-18.33105-21.43262-18.33105-39.19922,0-21.99707,11.28027-36.66211,29.18847-36.66211,9.58789,0,18.33008,2.6792,31.16211,16.498l21.4336,22.70215Z"/>
    <path class="b42c5a3b-05b4-47e1-bc9b-00f621dcb762" d="M710.13672,294.01758h98.7041v22.84326h-80.374v19.74072H710.13672Z"/>
  </g>
  <path class="b777d5c9-033a-4564-a207-9575fd0be8ca" d="M632.52734,396.40576H663.333v25.82959H629.44629l-4.73926,37.915H597.92969l4.73926-37.915H567.83447l-4.73926,37.915H536.55469l4.73926-37.915H510.251V396.40576h34.12353l4.97656-38.38916h-31.043V332.187h34.12353l4.73926-37.915h26.54l-4.73926,37.915h34.835l4.73926-37.915h26.54l-4.73926,37.915h30.80566l.23731,25.82959h-34.123Zm-26.77832,0,4.97657-38.38916h-34.834L570.915,396.40576Z"/>
</svg>
