<?xml version="1.0" encoding="UTF-8"?>
<svg xmlns="http://www.w3.org/2000/svg" xmlns:xlink="http://www.w3.org/1999/xlink" width="375pt" height="374.999991pt" viewBox="0 0 375 374.999991" version="1.2">
<defs>
<clipPath id="clip1">
  <path d="M 90 80.046875 L 286 80.046875 L 286 295.296875 L 90 295.296875 Z M 90 80.046875 "/>
</clipPath>
<clipPath id="clip2">
  <path d="M 114.71875 203.867188 L 151.46875 203.867188 L 151.46875 240.617188 L 114.71875 240.617188 Z M 114.71875 203.867188 "/>
</clipPath>
<clipPath id="clip3">
  <path d="M 229 204.386719 L 260 204.386719 L 260 240.386719 L 229 240.386719 Z M 229 204.386719 "/>
</clipPath>
<clipPath id="clip4">
  <path d="M 160 140.5 L 215 140.5 L 215 211.75 L 160 211.75 Z M 160 140.5 "/>
</clipPath>
<clipPath id="clip5">
  <path d="M 169.015625 107 L 205.765625 107 L 205.765625 137 L 169.015625 137 Z M 169.015625 107 "/>
</clipPath>
</defs>
<g id="surface1">
<rect x="0" y="0" width="375" height="374.999991" style="fill:rgb(100%,100%,100%);fill-opacity:1;stroke:none;"/>
<rect x="0" y="0" width="375" height="374.999991" style="fill:rgb(100%,100%,100%);fill-opacity:1;stroke:none;"/>
<rect x="0" y="0" width="375" height="374.999991" style="fill:rgb(100%,100%,100%);fill-opacity:1;stroke:none;"/>
<path style=" stroke:none;fill-rule:nonzero;fill:rgb(11.369324%,11.759949%,11.759949%);fill-opacity:1;" d="M 187.5 0 C 184.429688 0 181.363281 0.0742188 178.300781 0.226562 C 175.234375 0.375 172.175781 0.601562 169.121094 0.902344 C 166.066406 1.203125 163.023438 1.578125 159.988281 2.03125 C 156.953125 2.480469 153.929688 3.003906 150.921875 3.601562 C 147.910156 4.203125 144.917969 4.875 141.941406 5.617188 C 138.964844 6.363281 136.007812 7.183594 133.070312 8.074219 C 130.136719 8.964844 127.222656 9.925781 124.332031 10.960938 C 121.445312 11.996094 118.582031 13.097656 115.746094 14.273438 C 112.910156 15.445312 110.105469 16.691406 107.332031 18.003906 C 104.558594 19.3125 101.820312 20.691406 99.113281 22.140625 C 96.40625 23.585938 93.738281 25.097656 91.105469 26.675781 C 88.472656 28.253906 85.882812 29.894531 83.332031 31.597656 C 80.777344 33.304688 78.269531 35.070312 75.804688 36.898438 C 73.339844 38.726562 70.921875 40.613281 68.550781 42.558594 C 66.179688 44.507812 63.855469 46.511719 61.582031 48.570312 C 59.308594 50.632812 57.085938 52.746094 54.917969 54.917969 C 52.746094 57.085938 50.632812 59.308594 48.570312 61.582031 C 46.511719 63.855469 44.507812 66.179688 42.558594 68.550781 C 40.613281 70.921875 38.726562 73.339844 36.898438 75.804688 C 35.070312 78.269531 33.304688 80.777344 31.597656 83.332031 C 29.894531 85.882812 28.253906 88.472656 26.675781 91.105469 C 25.097656 93.738281 23.585938 96.40625 22.140625 99.113281 C 20.691406 101.820312 19.3125 104.558594 18.003906 107.332031 C 16.691406 110.105469 15.445312 112.910156 14.273438 115.746094 C 13.097656 118.582031 11.996094 121.445312 10.960938 124.332031 C 9.925781 127.222656 8.964844 130.136719 8.074219 133.070312 C 7.183594 136.007812 6.363281 138.964844 5.621094 141.941406 C 4.875 144.917969 4.203125 147.910156 3.601562 150.921875 C 3.003906 153.929688 2.480469 156.953125 2.03125 159.988281 C 1.578125 163.023438 1.203125 166.066406 0.902344 169.121094 C 0.601562 172.175781 0.375 175.234375 0.226562 178.300781 C 0.0742188 181.363281 0 184.429688 0 187.5 C 0 190.570312 0.0742188 193.636719 0.226562 196.699219 C 0.375 199.765625 0.601562 202.824219 0.902344 205.878906 C 1.203125 208.933594 1.578125 211.976562 2.03125 215.011719 C 2.480469 218.046875 3.003906 221.070312 3.601562 224.078125 C 4.203125 227.089844 4.875 230.082031 5.621094 233.058594 C 6.363281 236.035156 7.183594 238.992188 8.074219 241.929688 C 8.964844 244.863281 9.925781 247.777344 10.960938 250.667969 C 11.996094 253.554688 13.097656 256.417969 14.273438 259.253906 C 15.445312 262.089844 16.691406 264.890625 18.003906 267.667969 C 19.3125 270.441406 20.691406 273.179688 22.140625 275.886719 C 23.585938 278.59375 25.097656 281.261719 26.675781 283.894531 C 28.253906 286.527344 29.894531 289.117188 31.597656 291.667969 C 33.304688 294.222656 35.070312 296.730469 36.898438 299.195312 C 38.726562 301.660156 40.613281 304.078125 42.558594 306.449219 C 44.507812 308.820312 46.511719 311.144531 48.570312 313.417969 C 50.632812 315.691406 52.746094 317.914062 54.917969 320.082031 C 57.085938 322.253906 59.308594 324.367188 61.582031 326.429688 C 63.855469 328.488281 66.179688 330.492188 68.550781 332.4375 C 70.921875 334.386719 73.339844 336.273438 75.804688 338.101562 C 78.269531 339.929688 80.777344 341.695312 83.332031 343.402344 C 85.882812 345.105469 88.472656 346.746094 91.105469 348.324219 C 93.738281 349.902344 96.40625 351.414062 99.113281 352.859375 C 101.820312 354.308594 104.558594 355.6875 107.332031 356.996094 C 110.105469 358.308594 112.910156 359.554688 115.746094 360.726562 C 118.582031 361.902344 121.445312 363.003906 124.332031 364.039062 C 127.222656 365.074219 130.136719 366.035156 133.070312 366.925781 C 136.007812 367.816406 138.964844 368.636719 141.941406 369.378906 C 144.917969 370.125 147.910156 370.796875 150.921875 371.398438 C 153.929688 371.996094 156.953125 372.519531 159.988281 372.96875 C 163.023438 373.421875 166.066406 373.796875 169.121094 374.097656 C 172.175781 374.398438 175.234375 374.625 178.300781 374.773438 C 181.363281 374.925781 184.429688 375 187.5 375 C 190.570312 375 193.636719 374.925781 196.699219 374.773438 C 199.765625 374.625 202.824219 374.398438 205.878906 374.097656 C 208.933594 373.796875 211.976562 373.421875 215.011719 372.96875 C 218.046875 372.519531 221.070312 371.996094 224.078125 371.398438 C 227.089844 370.796875 230.082031 370.125 233.058594 369.378906 C 236.035156 368.636719 238.992188 367.816406 241.929688 366.925781 C 244.863281 366.035156 247.777344 365.074219 250.667969 364.039062 C 253.554688 363.003906 256.417969 361.902344 259.253906 360.726562 C 262.089844 359.554688 264.890625 358.308594 267.667969 356.996094 C 270.441406 355.6875 273.179688 354.308594 275.886719 352.859375 C 278.59375 351.414062 281.261719 349.902344 283.894531 348.324219 C 286.527344 346.746094 289.117188 345.105469 291.667969 343.402344 C 294.222656 341.695312 296.730469 339.929688 299.195312 338.101562 C 301.660156 336.273438 304.078125 334.386719 306.449219 332.4375 C 308.820312 330.492188 311.144531 328.488281 313.417969 326.429688 C 315.691406 324.367188 317.914062 322.253906 320.082031 320.082031 C 322.253906 317.914062 324.367188 315.691406 326.429688 313.417969 C 328.488281 311.144531 330.492188 308.820312 332.4375 306.449219 C 334.386719 304.078125 336.273438 301.660156 338.101562 299.195312 C 339.929688 296.730469 341.695312 294.222656 343.402344 291.667969 C 345.105469 289.117188 346.746094 286.527344 348.324219 283.894531 C 349.902344 281.261719 351.414062 278.59375 352.859375 275.886719 C 354.308594 273.179688 355.6875 270.441406 356.996094 267.667969 C 358.308594 264.890625 359.554688 262.089844 360.726562 259.253906 C 361.902344 256.417969 363.003906 253.554688 364.039062 250.667969 C 365.074219 247.777344 366.035156 244.863281 366.925781 241.929688 C 367.816406 238.992188 368.636719 236.035156 369.378906 233.058594 C 370.125 230.082031 370.796875 227.089844 371.398438 224.078125 C 371.996094 221.070312 372.519531 218.046875 372.96875 215.011719 C 373.421875 211.976562 373.796875 208.933594 374.097656 205.878906 C 374.398438 202.824219 374.625 199.765625 374.773438 196.699219 C 374.925781 193.636719 375 190.570312 375 187.5 C 375 184.429688 374.925781 181.363281 374.773438 178.300781 C 374.625 175.234375 374.398438 172.175781 374.097656 169.121094 C 373.796875 166.066406 373.421875 163.023438 372.96875 159.988281 C 372.519531 156.953125 371.996094 153.929688 371.398438 150.921875 C 370.796875 147.910156 370.125 144.917969 369.378906 141.941406 C 368.636719 138.964844 367.816406 136.007812 366.925781 133.070312 C 366.035156 130.136719 365.074219 127.222656 364.039062 124.332031 C 363.003906 121.445312 361.902344 118.582031 360.726562 115.746094 C 359.554688 112.910156 358.308594 110.105469 356.996094 107.332031 C 355.6875 104.558594 354.308594 101.820312 352.859375 99.113281 C 351.414062 96.40625 349.902344 93.738281 348.324219 91.105469 C 346.746094 88.472656 345.105469 85.882812 343.402344 83.332031 C 341.695312 80.777344 339.929688 78.269531 338.101562 75.804688 C 336.273438 73.339844 334.386719 70.921875 332.4375 68.550781 C 330.492188 66.179688 328.488281 63.855469 326.429688 61.582031 C 324.367188 59.308594 322.253906 57.085938 320.082031 54.917969 C 317.914062 52.746094 315.691406 50.632812 313.417969 48.570312 C 311.144531 46.511719 308.820312 44.507812 306.449219 42.558594 C 304.078125 40.613281 301.660156 38.726562 299.195312 36.898438 C 296.730469 35.070312 294.222656 33.304688 291.667969 31.597656 C 289.117188 29.894531 286.527344 28.253906 283.894531 26.675781 C 281.261719 25.097656 278.59375 23.585938 275.886719 22.140625 C 273.179688 20.691406 270.441406 19.3125 267.667969 18.003906 C 264.890625 16.691406 262.089844 15.445312 259.253906 14.273438 C 256.417969 13.097656 253.554688 11.996094 250.667969 10.960938 C 247.777344 9.925781 244.863281 8.964844 241.929688 8.074219 C 238.992188 7.183594 236.035156 6.363281 233.058594 5.617188 C 230.082031 4.875 227.089844 4.203125 224.078125 3.601562 C 221.070312 3.003906 218.046875 2.480469 215.011719 2.03125 C 211.976562 1.578125 208.933594 1.203125 205.878906 0.902344 C 202.824219 0.601562 199.765625 0.375 196.699219 0.226562 C 193.636719 0.0742188 190.570312 0 187.5 0 Z M 187.5 0 "/>
<g clip-path="url(#clip1)" clip-rule="nonzero">
<path style=" stroke:none;fill-rule:nonzero;fill:rgb(100%,100%,100%);fill-opacity:1;" d="M 269.347656 122.3125 L 263.039062 118.667969 C 263.039062 118.667969 203.441406 84.257812 203.441406 84.257812 C 193.714844 78.644531 181.632812 78.644531 171.90625 84.257812 L 105.996094 122.3125 C 96.273438 127.925781 90.230469 138.390625 90.230469 149.621094 L 90.230469 225.726562 C 90.230469 236.957031 96.273438 247.417969 105.996094 253.035156 L 171.90625 291.085938 C 176.769531 293.894531 182.21875 295.296875 187.671875 295.296875 C 193.125 295.296875 198.578125 293.894531 203.441406 291.085938 L 269.347656 253.035156 C 279.074219 247.417969 285.113281 236.957031 285.113281 225.726562 L 285.113281 149.621094 C 285.113281 138.390625 279.074219 127.925781 269.347656 122.3125 Z M 178.210938 95.183594 C 181.128906 93.5 184.402344 92.65625 187.671875 92.65625 C 190.945312 92.65625 194.214844 93.5 197.132812 95.183594 L 256.730469 129.59375 C 259.578125 131.234375 259.886719 133.957031 259.886719 135.054688 C 259.886719 136.148438 259.578125 138.871094 256.730469 140.515625 C 256.730469 140.515625 197.078125 174.960938 197.050781 174.976562 C 191.257812 178.285156 184.089844 178.285156 178.292969 174.976562 C 178.265625 174.960938 118.613281 140.515625 118.613281 140.515625 C 115.765625 138.871094 115.460938 136.148438 115.460938 135.054688 C 115.460938 133.957031 115.769531 131.234375 118.613281 129.59375 C 118.613281 129.59375 178.210938 95.183594 178.210938 95.183594 Z M 102.84375 225.726562 L 102.84375 156.902344 C 102.84375 153.617188 105.050781 151.988281 105.996094 151.441406 C 106.945312 150.894531 109.457031 149.800781 112.304688 151.441406 C 112.304688 151.441406 171.957031 185.886719 171.984375 185.902344 C 177.773438 189.28125 181.367188 195.53125 181.367188 202.238281 L 181.367188 271.171875 C 181.367188 274.460938 179.15625 276.089844 178.207031 276.636719 C 177.378906 277.113281 175.351562 278.007812 172.953125 277.128906 L 112.304688 242.109375 C 106.46875 238.742188 102.84375 232.464844 102.84375 225.726562 Z M 272.5 225.726562 C 272.5 232.464844 268.875 238.742188 263.039062 242.109375 L 202.390625 277.128906 C 199.992188 278.007812 197.964844 277.113281 197.136719 276.636719 C 196.1875 276.089844 193.980469 274.460938 193.980469 271.171875 L 193.980469 202.238281 C 193.980469 195.53125 197.574219 189.28125 203.363281 185.902344 C 203.386719 185.886719 203.414062 185.871094 203.441406 185.855469 L 263.039062 151.441406 C 265.886719 149.800781 268.398438 150.894531 269.347656 151.441406 C 270.296875 151.988281 272.5 153.617188 272.5 156.902344 Z M 272.5 225.726562 "/>
</g>
<g clip-path="url(#clip2)" clip-rule="nonzero">
<path style=" stroke:none;fill-rule:nonzero;fill:rgb(100%,100%,100%);fill-opacity:1;" d="M 146.773438 203.867188 L 119.417969 203.867188 C 116.828125 203.867188 114.71875 205.972656 114.71875 208.5625 L 114.71875 235.921875 C 114.71875 238.507812 116.828125 240.617188 119.417969 240.617188 L 146.773438 240.617188 C 149.363281 240.617188 151.46875 238.507812 151.46875 235.921875 L 151.46875 208.5625 C 151.46875 205.972656 149.363281 203.867188 146.773438 203.867188 Z M 149.304688 235.921875 C 149.304688 237.316406 148.171875 238.453125 146.773438 238.453125 L 119.417969 238.453125 C 118.019531 238.453125 116.886719 237.316406 116.886719 235.921875 L 116.886719 231.972656 L 124.007812 225.910156 C 124.269531 225.6875 124.648438 225.6875 124.910156 225.90625 L 129.375 229.609375 C 129.804688 229.96875 130.433594 229.9375 130.832031 229.542969 L 141.433594 218.921875 C 141.625 218.730469 141.851562 218.710938 141.964844 218.71875 C 142.082031 218.722656 142.304688 218.765625 142.472656 218.976562 L 149.304688 227.386719 Z M 149.304688 223.953125 L 144.15625 217.613281 C 143.644531 216.980469 142.886719 216.597656 142.078125 216.554688 C 141.269531 216.515625 140.476562 216.820312 139.902344 217.394531 L 129.996094 227.316406 L 126.292969 224.238281 C 125.21875 223.347656 123.667969 223.355469 122.605469 224.261719 L 116.886719 229.128906 L 116.886719 208.5625 C 116.886719 207.167969 118.019531 206.03125 119.417969 206.03125 L 146.773438 206.03125 C 148.171875 206.03125 149.304688 207.167969 149.304688 208.5625 Z M 149.304688 223.953125 "/>
</g>
<path style=" stroke:none;fill-rule:nonzero;fill:rgb(100%,100%,100%);fill-opacity:1;" d="M 126.289062 208.386719 C 123.410156 208.386719 121.070312 210.730469 121.070312 213.605469 C 121.070312 216.484375 123.410156 218.824219 126.289062 218.824219 C 129.167969 218.824219 131.507812 216.484375 131.507812 213.605469 C 131.507812 210.730469 129.167969 208.386719 126.289062 208.386719 Z M 126.289062 216.660156 C 124.605469 216.660156 123.234375 215.292969 123.234375 213.605469 C 123.234375 211.921875 124.605469 210.550781 126.289062 210.550781 C 127.972656 210.550781 129.34375 211.921875 129.34375 213.605469 C 129.34375 215.292969 127.972656 216.660156 126.289062 216.660156 Z M 126.289062 216.660156 "/>
<path style=" stroke:none;fill-rule:nonzero;fill:rgb(100%,100%,100%);fill-opacity:1;" d="M 238.308594 230.1875 L 237.105469 230.1875 C 236.777344 230.1875 236.507812 230.457031 236.507812 230.789062 C 236.507812 231.121094 236.777344 231.386719 237.105469 231.386719 L 238.308594 231.386719 C 238.636719 231.386719 238.90625 231.121094 238.90625 230.789062 C 238.90625 230.457031 238.636719 230.1875 238.308594 230.1875 Z M 238.308594 230.1875 "/>
<path style=" stroke:none;fill-rule:nonzero;fill:rgb(100%,100%,100%);fill-opacity:1;" d="M 255.105469 230.1875 L 240.707031 230.1875 C 240.375 230.1875 240.105469 230.457031 240.105469 230.789062 C 240.105469 231.121094 240.375 231.386719 240.707031 231.386719 L 255.105469 231.386719 C 255.4375 231.386719 255.707031 231.121094 255.707031 230.789062 C 255.707031 230.457031 255.4375 230.1875 255.105469 230.1875 Z M 255.105469 230.1875 "/>
<path style=" stroke:none;fill-rule:nonzero;fill:rgb(100%,100%,100%);fill-opacity:1;" d="M 238.308594 226.589844 L 237.105469 226.589844 C 236.777344 226.589844 236.507812 226.855469 236.507812 227.1875 C 236.507812 227.519531 236.777344 227.789062 237.105469 227.789062 L 238.308594 227.789062 C 238.636719 227.789062 238.90625 227.519531 238.90625 227.1875 C 238.90625 226.855469 238.636719 226.589844 238.308594 226.589844 Z M 238.308594 226.589844 "/>
<path style=" stroke:none;fill-rule:nonzero;fill:rgb(100%,100%,100%);fill-opacity:1;" d="M 255.105469 226.589844 L 240.707031 226.589844 C 240.375 226.589844 240.105469 226.855469 240.105469 227.1875 C 240.105469 227.519531 240.375 227.789062 240.707031 227.789062 L 255.105469 227.789062 C 255.4375 227.789062 255.707031 227.519531 255.707031 227.1875 C 255.707031 226.855469 255.4375 226.589844 255.105469 226.589844 Z M 255.105469 226.589844 "/>
<path style=" stroke:none;fill-rule:nonzero;fill:rgb(100%,100%,100%);fill-opacity:1;" d="M 238.308594 222.988281 L 237.105469 222.988281 C 236.777344 222.988281 236.507812 223.257812 236.507812 223.589844 C 236.507812 223.917969 236.777344 224.1875 237.105469 224.1875 L 238.308594 224.1875 C 238.636719 224.1875 238.90625 223.917969 238.90625 223.589844 C 238.90625 223.257812 238.636719 222.988281 238.308594 222.988281 Z M 238.308594 222.988281 "/>
<path style=" stroke:none;fill-rule:nonzero;fill:rgb(100%,100%,100%);fill-opacity:1;" d="M 255.105469 222.988281 L 240.707031 222.988281 C 240.375 222.988281 240.105469 223.257812 240.105469 223.589844 C 240.105469 223.917969 240.375 224.1875 240.707031 224.1875 L 255.105469 224.1875 C 255.4375 224.1875 255.707031 223.917969 255.707031 223.589844 C 255.707031 223.257812 255.4375 222.988281 255.105469 222.988281 Z M 255.105469 222.988281 "/>
<path style=" stroke:none;fill-rule:nonzero;fill:rgb(100%,100%,100%);fill-opacity:1;" d="M 238.308594 219.386719 L 237.105469 219.386719 C 236.777344 219.386719 236.507812 219.65625 236.507812 219.988281 C 236.507812 220.320312 236.777344 220.589844 237.105469 220.589844 L 238.308594 220.589844 C 238.636719 220.589844 238.90625 220.320312 238.90625 219.988281 C 238.90625 219.65625 238.636719 219.386719 238.308594 219.386719 Z M 238.308594 219.386719 "/>
<path style=" stroke:none;fill-rule:nonzero;fill:rgb(100%,100%,100%);fill-opacity:1;" d="M 255.105469 219.386719 L 240.707031 219.386719 C 240.375 219.386719 240.105469 219.65625 240.105469 219.988281 C 240.105469 220.320312 240.375 220.589844 240.707031 220.589844 L 255.105469 220.589844 C 255.4375 220.589844 255.707031 220.320312 255.707031 219.988281 C 255.707031 219.65625 255.4375 219.386719 255.105469 219.386719 Z M 255.105469 219.386719 "/>
<path style=" stroke:none;fill-rule:nonzero;fill:rgb(100%,100%,100%);fill-opacity:1;" d="M 238.308594 215.789062 L 237.105469 215.789062 C 236.777344 215.789062 236.507812 216.058594 236.507812 216.386719 C 236.507812 216.71875 236.777344 216.988281 237.105469 216.988281 L 238.308594 216.988281 C 238.636719 216.988281 238.90625 216.71875 238.90625 216.386719 C 238.90625 216.058594 238.636719 215.789062 238.308594 215.789062 Z M 238.308594 215.789062 "/>
<path style=" stroke:none;fill-rule:nonzero;fill:rgb(100%,100%,100%);fill-opacity:1;" d="M 255.105469 215.789062 L 240.707031 215.789062 C 240.375 215.789062 240.105469 216.058594 240.105469 216.386719 C 240.105469 216.71875 240.375 216.988281 240.707031 216.988281 L 255.105469 216.988281 C 255.4375 216.988281 255.707031 216.71875 255.707031 216.386719 C 255.707031 216.058594 255.4375 215.789062 255.105469 215.789062 Z M 255.105469 215.789062 "/>
<g clip-path="url(#clip3)" clip-rule="nonzero">
<path style=" stroke:none;fill-rule:nonzero;fill:rgb(100%,100%,100%);fill-opacity:1;" d="M 259.300781 213.351562 C 259.296875 213.296875 259.285156 213.246094 259.269531 213.195312 C 259.261719 213.175781 259.257812 213.160156 259.25 213.140625 C 259.21875 213.074219 259.179688 213.015625 259.128906 212.964844 L 250.730469 204.5625 C 250.679688 204.515625 250.617188 204.472656 250.554688 204.445312 C 250.535156 204.4375 250.515625 204.429688 250.496094 204.425781 C 250.449219 204.40625 250.394531 204.398438 250.34375 204.394531 C 250.332031 204.394531 250.320312 204.386719 250.308594 204.386719 L 233.507812 204.386719 C 233.175781 204.386719 232.90625 204.65625 232.90625 204.988281 L 232.90625 206.789062 L 229.90625 206.789062 C 229.574219 206.789062 229.308594 207.058594 229.308594 207.386719 L 229.308594 239.789062 C 229.308594 240.121094 229.574219 240.386719 229.90625 240.386719 L 255.105469 240.386719 C 255.4375 240.386719 255.707031 240.121094 255.707031 239.789062 L 255.707031 236.789062 L 258.707031 236.789062 C 259.039062 236.789062 259.308594 236.519531 259.308594 236.1875 L 259.308594 213.386719 C 259.308594 213.375 259.300781 213.363281 259.300781 213.351562 Z M 250.90625 206.4375 L 257.257812 212.789062 L 250.90625 212.789062 Z M 254.507812 239.1875 L 230.507812 239.1875 L 230.507812 207.988281 L 232.90625 207.988281 L 232.90625 236.1875 C 232.90625 236.519531 233.175781 236.789062 233.507812 236.789062 L 254.507812 236.789062 Z M 258.105469 235.589844 L 234.105469 235.589844 L 234.105469 205.589844 L 249.707031 205.589844 L 249.707031 213.386719 C 249.707031 213.71875 249.976562 213.988281 250.308594 213.988281 L 258.105469 213.988281 Z M 258.105469 235.589844 "/>
</g>
<path style=" stroke:none;fill-rule:nonzero;fill:rgb(100%,100%,100%);fill-opacity:1;" d="M 240.707031 209.789062 L 237.105469 209.789062 C 236.777344 209.789062 236.507812 210.058594 236.507812 210.386719 L 236.507812 213.988281 C 236.507812 214.320312 236.777344 214.589844 237.105469 214.589844 L 240.707031 214.589844 C 241.039062 214.589844 241.308594 214.320312 241.308594 213.988281 L 241.308594 210.386719 C 241.308594 210.058594 241.039062 209.789062 240.707031 209.789062 Z M 240.105469 213.386719 L 237.707031 213.386719 L 237.707031 210.988281 L 240.105469 210.988281 Z M 240.105469 213.386719 "/>
<g clip-path="url(#clip4)" clip-rule="nonzero">
<path style=" stroke:none;fill-rule:nonzero;fill:rgb(36.079407%,88.238525%,90.19928%);fill-opacity:1;" d="M 207.359375 167.21875 L 205.132812 167.21875 L 205.132812 158.3125 C 205.132812 148.488281 197.144531 140.5 187.320312 140.5 C 177.496094 140.5 169.507812 148.488281 169.507812 158.3125 L 169.507812 167.21875 L 167.28125 167.21875 C 163.597656 167.21875 160.601562 170.214844 160.601562 173.898438 L 160.601562 205.070312 C 160.601562 208.753906 163.597656 211.75 167.28125 211.75 L 207.359375 211.75 C 211.039062 211.75 214.039062 208.753906 214.039062 205.070312 L 214.039062 173.898438 C 214.039062 170.214844 211.039062 167.21875 207.359375 167.21875 Z M 175.445312 158.3125 C 175.445312 151.761719 180.769531 146.4375 187.320312 146.4375 C 193.867188 146.4375 199.195312 151.761719 199.195312 158.3125 L 199.195312 167.21875 L 175.445312 167.21875 Z M 190.289062 190.140625 L 190.289062 196.90625 C 190.289062 198.542969 188.960938 199.875 187.320312 199.875 C 185.675781 199.875 184.351562 198.542969 184.351562 196.90625 L 184.351562 190.140625 C 182.582031 189.113281 181.382812 187.21875 181.382812 185.03125 C 181.382812 181.753906 184.042969 179.09375 187.320312 179.09375 C 190.59375 179.09375 193.257812 181.753906 193.257812 185.03125 C 193.257812 187.21875 192.054688 189.113281 190.289062 190.140625 Z M 190.289062 190.140625 "/>
</g>
<g clip-path="url(#clip5)" clip-rule="nonzero">
<path style=" stroke:none;fill-rule:nonzero;fill:rgb(100%,100%,100%);fill-opacity:1;" d="M 202.792969 110.683594 L 189.539062 110.683594 L 186.898438 107.558594 C 186.8125 107.453125 186.683594 107.394531 186.546875 107.394531 L 175.863281 107.394531 C 174.222656 107.394531 172.890625 108.726562 172.890625 110.367188 L 172.890625 111.234375 L 171.988281 111.234375 C 170.347656 111.234375 169.015625 112.5625 169.015625 114.203125 L 169.015625 133.4375 C 169.015625 135.078125 170.34375 136.410156 171.988281 136.410156 L 198.914062 136.410156 C 200.558594 136.410156 201.886719 135.078125 201.886719 133.4375 L 201.886719 132.570312 L 202.792969 132.570312 C 204.433594 132.570312 205.765625 131.238281 205.765625 129.597656 L 205.765625 113.65625 C 205.765625 112.015625 204.433594 110.683594 202.792969 110.683594 Z M 200.96875 131.675781 L 200.96875 133.457031 C 200.964844 134.589844 200.046875 135.511719 198.910156 135.511719 L 171.988281 135.511719 C 170.851562 135.511719 169.933594 134.589844 169.929688 133.457031 L 169.929688 114.222656 C 169.933594 113.085938 170.851562 112.167969 171.988281 112.167969 L 182.488281 112.167969 L 185.125 115.292969 C 185.214844 115.398438 185.34375 115.457031 185.476562 115.457031 L 198.941406 115.457031 C 200.058594 115.472656 200.957031 116.378906 200.96875 117.496094 Z M 204.84375 129.621094 C 204.84375 130.753906 203.921875 131.675781 202.789062 131.675781 L 201.882812 131.675781 L 201.882812 117.496094 C 201.882812 115.855469 200.554688 114.523438 198.910156 114.523438 L 185.664062 114.523438 L 183.023438 111.398438 C 182.933594 111.292969 182.804688 111.234375 182.671875 111.234375 L 173.8125 111.234375 L 173.8125 110.367188 C 173.8125 109.234375 174.734375 108.3125 175.867188 108.3125 L 186.351562 108.3125 L 188.992188 111.4375 C 189.078125 111.542969 189.207031 111.601562 189.34375 111.601562 L 202.808594 111.601562 C 203.941406 111.601562 204.859375 112.523438 204.863281 113.65625 Z M 204.84375 129.621094 "/>
</g>
<path style="fill:none;stroke-width:1;stroke-linecap:round;stroke-linejoin:miter;stroke:rgb(100%,100%,100%);stroke-opacity:1;stroke-miterlimit:4;" d="M 0.499296 0.000139739 L 13.378293 -0.000505266 " transform="matrix(3.092895,-2.082935,2.094727,3.110405,234.396844,107.418473)"/>
<path style=" stroke:none;fill-rule:nonzero;fill:rgb(100%,100%,100%);fill-opacity:1;" d="M 288.160156 47.925781 C 287.519531 47.925781 286.878906 47.957031 286.242188 48.019531 C 285.601562 48.085938 284.96875 48.179688 284.339844 48.304688 C 283.710938 48.429688 283.089844 48.585938 282.476562 48.769531 C 281.859375 48.957031 281.257812 49.171875 280.664062 49.417969 C 280.070312 49.664062 279.492188 49.9375 278.925781 50.238281 C 278.359375 50.542969 277.8125 50.871094 277.277344 51.226562 C 276.746094 51.585938 276.230469 51.964844 275.734375 52.375 C 275.238281 52.78125 274.761719 53.210938 274.308594 53.664062 C 273.855469 54.117188 273.425781 54.59375 273.019531 55.089844 C 272.609375 55.585938 272.230469 56.101562 271.875 56.632812 C 271.515625 57.167969 271.1875 57.714844 270.882812 58.28125 C 270.582031 58.847656 270.308594 59.425781 270.0625 60.019531 C 269.816406 60.613281 269.601562 61.214844 269.414062 61.828125 C 269.230469 62.445312 269.074219 63.066406 268.949219 63.695312 C 268.824219 64.324219 268.730469 64.957031 268.664062 65.597656 C 268.601562 66.234375 268.570312 66.875 268.570312 67.515625 C 268.570312 68.15625 268.601562 68.796875 268.664062 69.4375 C 268.730469 70.074219 268.824219 70.710938 268.949219 71.339844 C 269.074219 71.96875 269.230469 72.589844 269.414062 73.203125 C 269.601562 73.816406 269.816406 74.421875 270.0625 75.011719 C 270.308594 75.605469 270.582031 76.183594 270.882812 76.75 C 271.1875 77.316406 271.515625 77.867188 271.875 78.398438 C 272.230469 78.933594 272.609375 79.449219 273.019531 79.945312 C 273.425781 80.441406 273.855469 80.914062 274.308594 81.367188 C 274.761719 81.820312 275.238281 82.253906 275.734375 82.660156 C 276.230469 83.066406 276.746094 83.449219 277.277344 83.804688 C 277.8125 84.160156 278.359375 84.492188 278.925781 84.792969 C 279.492188 85.09375 280.070312 85.371094 280.664062 85.613281 C 281.257812 85.859375 281.859375 86.078125 282.476562 86.261719 C 283.089844 86.449219 283.710938 86.605469 284.339844 86.730469 C 284.96875 86.855469 285.601562 86.949219 286.242188 87.011719 C 286.878906 87.074219 287.519531 87.105469 288.160156 87.105469 C 288.804688 87.105469 289.441406 87.074219 290.082031 87.011719 C 290.71875 86.949219 291.355469 86.855469 291.984375 86.730469 C 292.613281 86.605469 293.234375 86.449219 293.847656 86.261719 C 294.460938 86.078125 295.066406 85.859375 295.65625 85.613281 C 296.25 85.371094 296.828125 85.09375 297.394531 84.792969 C 297.960938 84.492188 298.511719 84.160156 299.042969 83.804688 C 299.578125 83.449219 300.09375 83.066406 300.589844 82.660156 C 301.085938 82.253906 301.558594 81.820312 302.011719 81.367188 C 302.464844 80.914062 302.898438 80.441406 303.304688 79.945312 C 303.710938 79.449219 304.09375 78.933594 304.449219 78.398438 C 304.804688 77.867188 305.136719 77.316406 305.4375 76.75 C 305.738281 76.183594 306.015625 75.605469 306.257812 75.011719 C 306.503906 74.421875 306.722656 73.816406 306.90625 73.203125 C 307.09375 72.589844 307.25 71.96875 307.375 71.339844 C 307.5 70.710938 307.59375 70.074219 307.65625 69.4375 C 307.71875 68.796875 307.75 68.15625 307.75 67.515625 C 307.75 66.875 307.71875 66.234375 307.65625 65.597656 C 307.59375 64.957031 307.5 64.324219 307.375 63.695312 C 307.25 63.066406 307.09375 62.445312 306.90625 61.828125 C 306.722656 61.214844 306.503906 60.613281 306.257812 60.019531 C 306.015625 59.425781 305.738281 58.847656 305.4375 58.28125 C 305.136719 57.714844 304.804688 57.167969 304.449219 56.632812 C 304.09375 56.101562 303.710938 55.585938 303.304688 55.089844 C 302.898438 54.59375 302.464844 54.117188 302.011719 53.664062 C 301.558594 53.210938 301.085938 52.78125 300.589844 52.375 C 300.09375 51.964844 299.578125 51.585938 299.042969 51.226562 C 298.511719 50.871094 297.960938 50.542969 297.394531 50.238281 C 296.828125 49.9375 296.25 49.664062 295.65625 49.417969 C 295.066406 49.171875 294.460938 48.957031 293.847656 48.769531 C 293.234375 48.585938 292.613281 48.429688 291.984375 48.304688 C 291.355469 48.179688 290.71875 48.085938 290.082031 48.019531 C 289.441406 47.957031 288.804688 47.925781 288.160156 47.925781 Z M 288.160156 47.925781 "/>
<path style=" stroke:none;fill-rule:nonzero;fill:rgb(100%,100%,100%);fill-opacity:1;" d="M 87.808594 47.925781 C 87.167969 47.925781 86.527344 47.957031 85.890625 48.019531 C 85.25 48.085938 84.617188 48.179688 83.988281 48.304688 C 83.359375 48.429688 82.738281 48.585938 82.125 48.769531 C 81.507812 48.957031 80.90625 49.171875 80.3125 49.417969 C 79.71875 49.664062 79.140625 49.9375 78.574219 50.238281 C 78.007812 50.542969 77.460938 50.871094 76.925781 51.226562 C 76.394531 51.585938 75.878906 51.964844 75.382812 52.375 C 74.886719 52.78125 74.410156 53.210938 73.957031 53.664062 C 73.503906 54.117188 73.074219 54.59375 72.667969 55.089844 C 72.261719 55.585938 71.878906 56.101562 71.523438 56.632812 C 71.164062 57.167969 70.835938 57.714844 70.535156 58.28125 C 70.230469 58.847656 69.957031 59.425781 69.710938 60.019531 C 69.464844 60.613281 69.25 61.214844 69.0625 61.828125 C 68.878906 62.445312 68.722656 63.066406 68.597656 63.695312 C 68.472656 64.324219 68.378906 64.957031 68.316406 65.597656 C 68.25 66.234375 68.21875 66.875 68.21875 67.515625 C 68.21875 68.15625 68.25 68.796875 68.316406 69.4375 C 68.378906 70.074219 68.472656 70.710938 68.597656 71.339844 C 68.722656 71.96875 68.878906 72.589844 69.0625 73.203125 C 69.25 73.816406 69.464844 74.421875 69.710938 75.011719 C 69.957031 75.605469 70.230469 76.183594 70.535156 76.75 C 70.835938 77.316406 71.164062 77.867188 71.523438 78.398438 C 71.878906 78.933594 72.261719 79.449219 72.667969 79.945312 C 73.074219 80.441406 73.503906 80.914062 73.957031 81.367188 C 74.410156 81.820312 74.886719 82.253906 75.382812 82.660156 C 75.878906 83.066406 76.394531 83.449219 76.925781 83.804688 C 77.460938 84.160156 78.007812 84.492188 78.574219 84.792969 C 79.140625 85.09375 79.71875 85.371094 80.3125 85.613281 C 80.90625 85.859375 81.507812 86.078125 82.125 86.261719 C 82.738281 86.449219 83.359375 86.605469 83.988281 86.730469 C 84.617188 86.855469 85.25 86.949219 85.890625 87.011719 C 86.527344 87.074219 87.167969 87.105469 87.808594 87.105469 C 88.453125 87.105469 89.089844 87.074219 89.730469 87.011719 C 90.367188 86.949219 91.003906 86.855469 91.632812 86.730469 C 92.261719 86.605469 92.882812 86.449219 93.496094 86.261719 C 94.109375 86.078125 94.714844 85.859375 95.304688 85.613281 C 95.898438 85.371094 96.480469 85.09375 97.042969 84.792969 C 97.609375 84.492188 98.160156 84.160156 98.691406 83.804688 C 99.226562 83.449219 99.742188 83.066406 100.238281 82.660156 C 100.734375 82.253906 101.207031 81.820312 101.660156 81.367188 C 102.117188 80.914062 102.546875 80.441406 102.953125 79.945312 C 103.359375 79.449219 103.742188 78.933594 104.097656 78.398438 C 104.453125 77.867188 104.785156 77.316406 105.085938 76.75 C 105.390625 76.183594 105.664062 75.605469 105.910156 75.011719 C 106.152344 74.421875 106.371094 73.816406 106.554688 73.203125 C 106.742188 72.589844 106.898438 71.96875 107.023438 71.339844 C 107.148438 70.710938 107.242188 70.074219 107.304688 69.4375 C 107.367188 68.796875 107.398438 68.15625 107.398438 67.515625 C 107.398438 66.875 107.367188 66.234375 107.304688 65.597656 C 107.242188 64.957031 107.148438 64.324219 107.023438 63.695312 C 106.898438 63.066406 106.742188 62.445312 106.554688 61.828125 C 106.371094 61.214844 106.152344 60.613281 105.910156 60.019531 C 105.664062 59.425781 105.390625 58.847656 105.085938 58.28125 C 104.785156 57.714844 104.453125 57.167969 104.097656 56.632812 C 103.742188 56.101562 103.359375 55.585938 102.953125 55.089844 C 102.546875 54.59375 102.117188 54.117188 101.660156 53.664062 C 101.207031 53.210938 100.734375 52.78125 100.238281 52.375 C 99.742188 51.964844 99.226562 51.585938 98.691406 51.226562 C 98.160156 50.871094 97.609375 50.542969 97.042969 50.238281 C 96.480469 49.9375 95.898438 49.664062 95.304688 49.417969 C 94.714844 49.171875 94.109375 48.957031 93.496094 48.769531 C 92.882812 48.585938 92.261719 48.429688 91.632812 48.304688 C 91.003906 48.179688 90.367188 48.085938 89.730469 48.019531 C 89.089844 47.957031 88.453125 47.925781 87.808594 47.925781 Z M 87.808594 47.925781 "/>
<path style=" stroke:none;fill-rule:nonzero;fill:rgb(0%,0%,0%);fill-opacity:1;" d="M 87.808594 53.921875 C 86.917969 53.921875 86.035156 54.011719 85.15625 54.183594 C 84.28125 54.359375 83.433594 54.617188 82.609375 54.957031 C 81.785156 55.300781 81 55.71875 80.257812 56.214844 C 79.515625 56.710938 78.828125 57.273438 78.199219 57.902344 C 77.566406 58.535156 77.003906 59.222656 76.507812 59.964844 C 76.011719 60.707031 75.59375 61.488281 75.25 62.3125 C 74.910156 63.140625 74.652344 63.988281 74.476562 64.863281 C 74.304688 65.738281 74.214844 66.625 74.214844 67.515625 C 74.214844 68.410156 74.304688 69.292969 74.476562 70.167969 C 74.652344 71.042969 74.910156 71.894531 75.25 72.71875 C 75.59375 73.542969 76.011719 74.328125 76.507812 75.070312 C 77.003906 75.8125 77.566406 76.496094 78.199219 77.128906 C 78.828125 77.761719 79.515625 78.324219 80.257812 78.820312 C 81 79.316406 81.785156 79.734375 82.609375 80.074219 C 83.433594 80.417969 84.28125 80.675781 85.15625 80.847656 C 86.035156 81.023438 86.917969 81.109375 87.808594 81.109375 C 88.703125 81.109375 89.585938 81.023438 90.460938 80.847656 C 91.335938 80.675781 92.1875 80.417969 93.011719 80.074219 C 93.835938 79.734375 94.621094 79.316406 95.363281 78.820312 C 96.105469 78.324219 96.792969 77.761719 97.421875 77.128906 C 98.054688 76.496094 98.617188 75.8125 99.113281 75.070312 C 99.609375 74.328125 100.027344 73.542969 100.367188 72.71875 C 100.710938 71.894531 100.96875 71.042969 101.140625 70.167969 C 101.316406 69.292969 101.402344 68.410156 101.402344 67.515625 C 101.402344 66.625 101.316406 65.738281 101.140625 64.863281 C 100.96875 63.988281 100.710938 63.140625 100.367188 62.3125 C 100.027344 61.488281 99.609375 60.707031 99.113281 59.964844 C 98.617188 59.222656 98.054688 58.535156 97.421875 57.902344 C 96.792969 57.273438 96.105469 56.710938 95.363281 56.214844 C 94.621094 55.71875 93.835938 55.300781 93.011719 54.957031 C 92.1875 54.617188 91.335938 54.359375 90.460938 54.183594 C 89.585938 54.011719 88.703125 53.921875 87.808594 53.921875 Z M 87.808594 53.921875 "/>
<path style=" stroke:none;fill-rule:nonzero;fill:rgb(0%,0%,0%);fill-opacity:1;" d="M 288.160156 53.921875 C 287.269531 53.921875 286.382812 54.011719 285.507812 54.183594 C 284.632812 54.359375 283.785156 54.617188 282.960938 54.957031 C 282.132812 55.300781 281.351562 55.71875 280.609375 56.214844 C 279.867188 56.710938 279.179688 57.273438 278.550781 57.902344 C 277.917969 58.535156 277.355469 59.222656 276.859375 59.964844 C 276.363281 60.707031 275.945312 61.488281 275.601562 62.3125 C 275.261719 63.140625 275.003906 63.988281 274.828125 64.863281 C 274.65625 65.738281 274.566406 66.625 274.566406 67.515625 C 274.566406 68.410156 274.65625 69.292969 274.828125 70.167969 C 275.003906 71.042969 275.261719 71.894531 275.601562 72.71875 C 275.945312 73.542969 276.363281 74.328125 276.859375 75.070312 C 277.355469 75.8125 277.917969 76.496094 278.550781 77.128906 C 279.179688 77.761719 279.867188 78.324219 280.609375 78.820312 C 281.351562 79.316406 282.132812 79.734375 282.960938 80.074219 C 283.785156 80.417969 284.632812 80.675781 285.507812 80.847656 C 286.382812 81.023438 287.269531 81.109375 288.160156 81.109375 C 289.054688 81.109375 289.9375 81.023438 290.8125 80.847656 C 291.6875 80.675781 292.539062 80.417969 293.363281 80.074219 C 294.1875 79.734375 294.972656 79.316406 295.714844 78.820312 C 296.457031 78.324219 297.140625 77.761719 297.773438 77.128906 C 298.40625 76.496094 298.96875 75.8125 299.464844 75.070312 C 299.960938 74.328125 300.378906 73.542969 300.71875 72.71875 C 301.0625 71.894531 301.320312 71.042969 301.492188 70.167969 C 301.667969 69.292969 301.753906 68.410156 301.753906 67.515625 C 301.753906 66.625 301.667969 65.738281 301.492188 64.863281 C 301.320312 63.988281 301.0625 63.140625 300.71875 62.3125 C 300.378906 61.488281 299.960938 60.707031 299.464844 59.964844 C 298.96875 59.222656 298.40625 58.535156 297.773438 57.902344 C 297.140625 57.273438 296.457031 56.710938 295.714844 56.214844 C 294.972656 55.71875 294.1875 55.300781 293.363281 54.957031 C 292.539062 54.617188 291.6875 54.359375 290.8125 54.183594 C 289.9375 54.011719 289.054688 53.921875 288.160156 53.921875 Z M 288.160156 53.921875 "/>
<path style="fill:none;stroke-width:1;stroke-linecap:round;stroke-linejoin:miter;stroke:rgb(100%,100%,100%);stroke-opacity:1;stroke-miterlimit:4;" d="M 0.500597 0.00016936 L 13.71942 -0.0000762769 " transform="matrix(-3.157451,-2.013936,2.016596,-3.16162,144.888861,105.344643)"/>
<path style=" stroke:none;fill-rule:nonzero;fill:rgb(100%,100%,100%);fill-opacity:1;" d="M 187.5 326.925781 C 186.859375 326.925781 186.21875 326.957031 185.578125 327.019531 C 184.941406 327.085938 184.308594 327.179688 183.679688 327.304688 C 183.050781 327.429688 182.425781 327.585938 181.8125 327.769531 C 181.199219 327.957031 180.597656 328.171875 180.003906 328.417969 C 179.410156 328.664062 178.832031 328.9375 178.265625 329.238281 C 177.699219 329.542969 177.148438 329.871094 176.617188 330.226562 C 176.082031 330.585938 175.570312 330.964844 175.074219 331.375 C 174.578125 331.78125 174.101562 332.210938 173.648438 332.664062 C 173.195312 333.117188 172.765625 333.59375 172.355469 334.089844 C 171.949219 334.585938 171.566406 335.101562 171.210938 335.632812 C 170.855469 336.167969 170.527344 336.714844 170.222656 337.28125 C 169.921875 337.847656 169.648438 338.425781 169.402344 339.019531 C 169.15625 339.613281 168.941406 340.214844 168.753906 340.828125 C 168.566406 341.445312 168.410156 342.066406 168.285156 342.695312 C 168.160156 343.324219 168.066406 343.957031 168.003906 344.597656 C 167.941406 345.234375 167.910156 345.875 167.910156 346.515625 C 167.910156 347.15625 167.941406 347.796875 168.003906 348.4375 C 168.066406 349.074219 168.160156 349.710938 168.285156 350.339844 C 168.410156 350.96875 168.566406 351.589844 168.753906 352.203125 C 168.941406 352.816406 169.15625 353.421875 169.402344 354.011719 C 169.648438 354.605469 169.921875 355.183594 170.222656 355.75 C 170.527344 356.316406 170.855469 356.867188 171.210938 357.398438 C 171.566406 357.933594 171.949219 358.449219 172.355469 358.945312 C 172.765625 359.441406 173.195312 359.914062 173.648438 360.367188 C 174.101562 360.820312 174.578125 361.253906 175.074219 361.660156 C 175.570312 362.066406 176.082031 362.449219 176.617188 362.804688 C 177.148438 363.160156 177.699219 363.492188 178.265625 363.792969 C 178.832031 364.09375 179.410156 364.371094 180.003906 364.613281 C 180.597656 364.859375 181.199219 365.078125 181.8125 365.261719 C 182.425781 365.449219 183.050781 365.605469 183.679688 365.730469 C 184.308594 365.855469 184.941406 365.949219 185.578125 366.011719 C 186.21875 366.074219 186.859375 366.105469 187.5 366.105469 C 188.140625 366.105469 188.78125 366.074219 189.421875 366.011719 C 190.058594 365.949219 190.691406 365.855469 191.320312 365.730469 C 191.949219 365.605469 192.574219 365.449219 193.1875 365.261719 C 193.800781 365.078125 194.402344 364.859375 194.996094 364.613281 C 195.589844 364.371094 196.167969 364.09375 196.734375 363.792969 C 197.300781 363.492188 197.851562 363.160156 198.382812 362.804688 C 198.917969 362.449219 199.429688 362.066406 199.925781 361.660156 C 200.421875 361.253906 200.898438 360.820312 201.351562 360.367188 C 201.804688 359.914062 202.234375 359.441406 202.644531 358.945312 C 203.050781 358.449219 203.433594 357.933594 203.789062 357.398438 C 204.144531 356.867188 204.472656 356.316406 204.777344 355.75 C 205.078125 355.183594 205.351562 354.605469 205.597656 354.011719 C 205.84375 353.421875 206.058594 352.816406 206.246094 352.203125 C 206.433594 351.589844 206.589844 350.96875 206.714844 350.339844 C 206.839844 349.710938 206.933594 349.074219 206.996094 348.4375 C 207.058594 347.796875 207.089844 347.15625 207.089844 346.515625 C 207.089844 345.875 207.058594 345.234375 206.996094 344.597656 C 206.933594 343.957031 206.839844 343.324219 206.714844 342.695312 C 206.589844 342.066406 206.433594 341.445312 206.246094 340.828125 C 206.058594 340.214844 205.84375 339.613281 205.597656 339.019531 C 205.351562 338.425781 205.078125 337.847656 204.777344 337.28125 C 204.472656 336.714844 204.144531 336.167969 203.789062 335.632812 C 203.433594 335.101562 203.050781 334.585938 202.644531 334.089844 C 202.234375 333.59375 201.804688 333.117188 201.351562 332.664062 C 200.898438 332.210938 200.421875 331.78125 199.925781 331.375 C 199.429688 330.964844 198.917969 330.585938 198.382812 330.226562 C 197.851562 329.871094 197.300781 329.542969 196.734375 329.238281 C 196.167969 328.9375 195.589844 328.664062 194.996094 328.417969 C 194.402344 328.171875 193.800781 327.957031 193.1875 327.769531 C 192.574219 327.585938 191.949219 327.429688 191.320312 327.304688 C 190.691406 327.179688 190.058594 327.085938 189.421875 327.019531 C 188.78125 326.957031 188.140625 326.925781 187.5 326.925781 Z M 187.5 326.925781 "/>
<path style="fill:none;stroke-width:1;stroke-linecap:round;stroke-linejoin:miter;stroke:rgb(100%,100%,100%);stroke-opacity:1;stroke-miterlimit:4;" d="M 0.4996 0.000322083 L 10.744673 0.000322083 " transform="matrix(0.000000000000000229,-3.735408,3.75,0.00000000000000023,187.498792,330.780271)"/>
<path style=" stroke:none;fill-rule:nonzero;fill:rgb(0%,0%,0%);fill-opacity:1;" d="M 187.5 332.921875 C 186.605469 332.921875 185.722656 333.011719 184.847656 333.183594 C 183.972656 333.359375 183.121094 333.617188 182.296875 333.957031 C 181.472656 334.300781 180.691406 334.71875 179.949219 335.214844 C 179.207031 335.710938 178.519531 336.273438 177.886719 336.902344 C 177.257812 337.535156 176.691406 338.222656 176.195312 338.964844 C 175.703125 339.707031 175.28125 340.488281 174.941406 341.3125 C 174.597656 342.140625 174.339844 342.988281 174.167969 343.863281 C 173.992188 344.738281 173.90625 345.625 173.90625 346.515625 C 173.90625 347.410156 173.992188 348.292969 174.167969 349.167969 C 174.339844 350.042969 174.597656 350.894531 174.941406 351.71875 C 175.28125 352.542969 175.703125 353.328125 176.195312 354.070312 C 176.691406 354.8125 177.257812 355.496094 177.886719 356.128906 C 178.519531 356.761719 179.207031 357.324219 179.949219 357.820312 C 180.691406 358.316406 181.472656 358.734375 182.296875 359.074219 C 183.121094 359.417969 183.972656 359.675781 184.847656 359.847656 C 185.722656 360.023438 186.605469 360.109375 187.5 360.109375 C 188.390625 360.109375 189.277344 360.023438 190.152344 359.847656 C 191.027344 359.675781 191.878906 359.417969 192.703125 359.074219 C 193.527344 358.734375 194.308594 358.316406 195.050781 357.820312 C 195.792969 357.324219 196.480469 356.761719 197.113281 356.128906 C 197.742188 355.496094 198.308594 354.8125 198.804688 354.070312 C 199.296875 353.328125 199.71875 352.542969 200.058594 351.71875 C 200.402344 350.894531 200.660156 350.042969 200.832031 349.167969 C 201.007812 348.292969 201.09375 347.410156 201.09375 346.515625 C 201.09375 345.625 201.007812 344.738281 200.832031 343.863281 C 200.660156 342.988281 200.402344 342.140625 200.058594 341.3125 C 199.71875 340.488281 199.296875 339.707031 198.804688 338.964844 C 198.308594 338.222656 197.742188 337.535156 197.113281 336.902344 C 196.480469 336.273438 195.792969 335.710938 195.050781 335.214844 C 194.308594 334.71875 193.527344 334.300781 192.703125 333.957031 C 191.878906 333.617188 191.027344 333.359375 190.152344 333.183594 C 189.277344 333.011719 188.390625 332.921875 187.5 332.921875 Z M 187.5 332.921875 "/>
</g>
</svg>
