<svg id="V1" xmlns="http://www.w3.org/2000/svg" viewBox="0 0 400 400"><defs><style>.cls-1{fill:#d0dcea;}.cls-2{fill:#0e6fd7;}.cls-3,.cls-4{fill:none;stroke-miterlimit:10;}.cls-3{stroke:#fff;stroke-width:10px;stroke-dasharray:51.59 51.59;}.cls-4{stroke:#0e6fd7;stroke-width:5px;}.cls-5{fill:#e6e8eb;}</style></defs><circle class="cls-1" cx="200" cy="200" r="180"/><path class="cls-2" d="M200,40A160,160,0,0,1,313.14,313.14,160,160,0,0,1,86.86,86.86,159,159,0,0,1,200,40m0-40C89.54,0,0,89.54,0,200S89.54,400,200,400s200-89.54,200-200S310.46,0,200,0Z"/><circle class="cls-3" cx="200" cy="200" r="180.64"/><polyline class="cls-4" points="131.34 99.19 257.54 120.64 306.03 230.34 200.25 304.81 114.71 228.26"/><path class="cls-4" d="M257.54,120.64,114.86,228.15s0,.11,0,.12L306,230.34"/><line class="cls-4" x1="200.25" y1="304.82" x2="133.4" y2="100.83"/><circle class="cls-5" cx="257.54" cy="120.64" r="26.77"/><path class="cls-2" d="M267.9,118.46c-.24,0-1-.72-1-.72a18.45,18.45,0,0,0-15-3.94c-2.88.43-6.3,3.22-6.3,3.22s-2.69.91-3.94,1.3-1.21,2.21-1.21,2.21a23.3,23.3,0,0,0-.38,3.47c0,1.44,1.25,1.25,1.25,1.25h1.11v-.34a3.8,3.8,0,1,1,7.6,0v.34h14.86v-.34a3.81,3.81,0,0,1,7.61,0v.34h2.11c.39,0,.43-.77.43-.77v-3C275,118.7,268.15,118.46,267.9,118.46Zm-20.2-.14c-1.25,0-.43-.77-.43-.77C249.86,115,255,115,255,115l.34,3.37Zm16.6.24c-1.35,0-7.46-.24-7.46-.24L256.5,115s5,.14,8.28,2.89C264.78,117.89,265.64,118.56,264.3,118.56Z"/><circle class="cls-2" cx="246.25" cy="124.81" r="2.93"/><circle class="cls-2" cx="268.72" cy="124.81" r="2.93"/><circle class="cls-5" cx="200.25" cy="304.82" r="26.77"/><path class="cls-1" d="M197.68,290.88a4,4,0,0,0-2.53.82,4,4,0,0,1,2.36,1.41.34.34,0,1,1-.52.43,3.4,3.4,0,0,0-5.8,3.37,3.56,3.56,0,0,0-2.85,4.16,3.73,3.73,0,0,0,.43,1.15,3.13,3.13,0,0,0-1.43,4.19,3.38,3.38,0,0,0,.24.41,4.49,4.49,0,0,1,3.63-1.57,2.6,2.6,0,0,1,2.46-2.73,2.81,2.81,0,0,1,.65,0,.35.35,0,0,1,.26.41.35.35,0,0,1-.39.26,1.93,1.93,0,0,0-2.28,1.51,2,2,0,0,0,0,.6,4.41,4.41,0,0,1,2.62,1.62.33.33,0,1,1-.52.42h0a3.81,3.81,0,1,0-3.82,6.07,3.33,3.33,0,0,0,3,3.64,4.34,4.34,0,0,0,6.1.74,4.5,4.5,0,0,0,.7-.68v-5a3.59,3.59,0,0,0-4.19-2.29.33.33,0,0,1-.4-.25.33.33,0,0,1,.25-.4h0a4.26,4.26,0,0,1,4.34,1.55v-11.5a3.53,3.53,0,0,0-4.75-1.54,3.49,3.49,0,0,0-1.59,1.65.34.34,0,0,1-.61-.29,4.2,4.2,0,0,1,6.95-1v-6.43a4.07,4.07,0,0,0-2.24-.76Zm-4.33,20.44a.34.34,0,0,1,.33.34.22.22,0,0,1,0,.11,1.84,1.84,0,0,0,3,2,.34.34,0,0,1,.46.5,2.51,2.51,0,0,1-3.55-.15,2.48,2.48,0,0,1-.49-2.6.33.33,0,0,1,.31-.21Z"/><path class="cls-2" d="M197.57,290.88a4,4,0,0,0-2.42.82,4.1,4.1,0,0,1,2.36,1.41.35.35,0,0,1,0,.48.33.33,0,0,1-.21.07.34.34,0,0,1-.26-.12,3.4,3.4,0,0,0-5.8,3.37,3.56,3.56,0,0,0-2.85,4.16,3.73,3.73,0,0,0,.43,1.15,3.13,3.13,0,0,0-1.43,4.19,3.38,3.38,0,0,0,.24.41,4.49,4.49,0,0,1,3.41-1.57h.22a2.6,2.6,0,0,1,2.46-2.73h.14a2.94,2.94,0,0,1,.51.05.36.36,0,0,1,.26.41.35.35,0,0,1-.33.26h-.06a1.72,1.72,0,0,0-.39,0,1.93,1.93,0,0,0-1.89,1.55,2,2,0,0,0,0,.6,4.41,4.41,0,0,1,2.62,1.62.33.33,0,0,1,0,.47.34.34,0,0,1-.21.08.33.33,0,0,1-.26-.13h0a3.81,3.81,0,0,0-3-1.45,3.76,3.76,0,0,0-2.35.82,3.8,3.8,0,0,0,1.52,6.7,3.33,3.33,0,0,0,3,3.64,4.37,4.37,0,0,0,3.43,1.67,4.28,4.28,0,0,0,2.67-.93,4.5,4.5,0,0,0,.7-.68v-5a3.59,3.59,0,0,0-3.37-2.38,3.81,3.81,0,0,0-.82.09h-.07a.32.32,0,0,1-.33-.26.33.33,0,0,1,.25-.4,3.93,3.93,0,0,1,1-.11,4.27,4.27,0,0,1,3.38,1.66v-11.5a3.52,3.52,0,0,0-4.75-1.54,3.49,3.49,0,0,0-1.59,1.65.34.34,0,0,1-.31.19.35.35,0,0,1-.14,0,.34.34,0,0,1-.16-.45,4.2,4.2,0,0,1,3.81-2.42,4.19,4.19,0,0,1,3.14,1.41v-6.43a4.07,4.07,0,0,0-2.24-.76Zm-2.19,24.06a2.5,2.5,0,0,1-2.34-3.41.33.33,0,0,1,.31-.21h0a.34.34,0,0,1,.33.34.22.22,0,0,1,0,.11,1.84,1.84,0,0,0,3,2,.31.31,0,0,1,.22-.09.3.3,0,0,1,.25.12.33.33,0,0,1,0,.47,2.55,2.55,0,0,1-1.7.66Z"/><path class="cls-1" d="M202.82,290.88a4.07,4.07,0,0,0-2.23.76v2.54a2.37,2.37,0,0,1,1.88-.19.34.34,0,0,1-.2.64,1.74,1.74,0,0,0-1.68.38v18.31a2.79,2.79,0,0,1,2.8-.8.33.33,0,0,1,.22.42.34.34,0,0,1-.39.23,2.12,2.12,0,0,0-2.61,1.47s0,.06,0,.08v2.42a4.35,4.35,0,0,0,6.12.63,4,4,0,0,0,.68-.69,3.32,3.32,0,0,0,2.91-2.7,4.7,4.7,0,0,1-5.45-2.61.34.34,0,0,1,.18-.44.33.33,0,0,1,.43.16,4,4,0,1,0,7.36-3.35,3.34,3.34,0,0,0-.43-.73,3.13,3.13,0,0,0,.34-4.42,3.23,3.23,0,0,0-1-.77,3.57,3.57,0,0,0-6.19-3.56h0a.34.34,0,0,1-.45.16.35.35,0,0,1-.15-.46l0,0a4.23,4.23,0,0,1,4.52-2.08,3.39,3.39,0,0,0-2.8-3.9,3.25,3.25,0,0,0-.7,0,4,4,0,0,0-3.17-1.43Zm.39,10.24a2.74,2.74,0,0,1,2.81,2.66v.08a4.47,4.47,0,0,1,4.25,4.67,2.07,2.07,0,0,1,0,.35.34.34,0,0,1-.36.31.34.34,0,0,1-.31-.37v0a3.79,3.79,0,0,0-6.48-3.11.34.34,0,0,1-.48,0,.33.33,0,0,1,0-.47l0,0a4.43,4.43,0,0,1,2.73-1.33,2.06,2.06,0,0,0-2-2.09,2.42,2.42,0,0,0-.47,0,.34.34,0,0,1-.4-.26.36.36,0,0,1,.25-.4A4.6,4.6,0,0,1,203.21,301.12Z"/><path class="cls-2" d="M202.94,290.88h-.12a4.07,4.07,0,0,0-2.23.76v2.54a2.4,2.4,0,0,1,1.17-.3,2.45,2.45,0,0,1,.71.11.33.33,0,0,1,.2.43.34.34,0,0,1-.31.23l-.09,0a1.79,1.79,0,0,0-.51-.07,1.75,1.75,0,0,0-1.17.45v18.31a2.82,2.82,0,0,1,2.06-.9,2.64,2.64,0,0,1,.74.1.33.33,0,0,1,.22.42.34.34,0,0,1-.32.24h-.07a2.24,2.24,0,0,0-.57-.08,2.12,2.12,0,0,0-2,1.55s0,.06,0,.08v2.42a4.34,4.34,0,0,0,6.12.63,4,4,0,0,0,.68-.69,3.32,3.32,0,0,0,2.91-2.7,4.56,4.56,0,0,1-1.16.15,4.72,4.72,0,0,1-4.29-2.76.34.34,0,0,1,.18-.44.31.31,0,0,1,.13,0,.33.33,0,0,1,.3.19,4.05,4.05,0,0,0,3.69,2.37,4.12,4.12,0,0,0,1.67-.36,4,4,0,0,0,2-5.36,3.59,3.59,0,0,0-.43-.73,3.13,3.13,0,0,0,.34-4.42,3.23,3.23,0,0,0-1-.77,3.57,3.57,0,0,0-6.19-3.56.34.34,0,0,1-.3.19l-.15,0a.35.35,0,0,1-.15-.46l0,0a4.24,4.24,0,0,1,3.69-2.16,4.58,4.58,0,0,1,.83.08,3.39,3.39,0,0,0-2.8-3.9,3.31,3.31,0,0,0-.55-.05H206a4,4,0,0,0-3.05-1.43Zm-.17,11a.33.33,0,0,1-.33-.27.36.36,0,0,1,.25-.4,4.6,4.6,0,0,1,.52-.06h.08a2.74,2.74,0,0,1,2.73,2.66v.08a4.47,4.47,0,0,1,4.25,4.67,2.07,2.07,0,0,1,0,.35.34.34,0,0,1-.33.31h0a.34.34,0,0,1-.31-.37v0a3.79,3.79,0,0,0-3.29-4.23,3.71,3.71,0,0,0-.47,0,3.79,3.79,0,0,0-2.72,1.15.33.33,0,0,1-.25.12.35.35,0,0,1-.23-.09.33.33,0,0,1,0-.47l0,0a4.43,4.43,0,0,1,2.73-1.33,2.06,2.06,0,0,0-2-2.09h0a2.12,2.12,0,0,0-.44,0Z"/><circle class="cls-5" cx="114.71" cy="228.26" r="26.77"/><path class="cls-1" d="M125.47,225.37a5.66,5.66,0,0,0-1.5.18l-2.06-5.36h3.39a1,1,0,0,0,0-2h-4.81a1,1,0,0,0-.9,1.32l1.12,2.92c-2.44,2.57-6.9,3.09-8.49,3.21l-2.44-5.31,1.84-.22a.65.65,0,0,0,.6-.64V219a.66.66,0,0,0-.6-.65l-5.83-.64a.62.62,0,0,0-.64.34.65.65,0,0,0,0,.73l1.25,1.63a.6.6,0,0,0,.51.26H107l.68-.09,1,2.19-2.1,3.17a6.43,6.43,0,0,0-2.7-.56,6.73,6.73,0,1,0,6.69,7.42h1.2a2.44,2.44,0,0,0,1.71,1.46V235H113a.64.64,0,1,0,0,1.28h2.27a.64.64,0,1,0,0-1.28h-.47v-.77a2.58,2.58,0,0,0,1.89-2.45,2.28,2.28,0,0,0-.35-1.24l5.19-6,.64,1.71a6.72,6.72,0,1,0,3.35-.9Zm-15.82-.51,2.44,5.36a6.28,6.28,0,0,0-.38.6h-1.29a6.71,6.71,0,0,0-2.23-3.82Zm-2.53,3.77a4.88,4.88,0,0,1,1.29,2.14h-2.75Zm-3.26,8.19a4.76,4.76,0,0,1,0-9.52,4,4,0,0,1,1.59.3l-2.4,3.65a1,1,0,0,0,0,1,1,1,0,0,0,.85.51h4.68A4.73,4.73,0,0,1,103.86,236.82Zm10.2-3.82a1.24,1.24,0,1,1,1.25-1.24A1.24,1.24,0,0,1,114.06,233Zm.69-3.68a2.82,2.82,0,0,0-.64-.09.59.59,0,0,0-.26,0l-.77-1.71a19.18,19.18,0,0,0,3.9-.77Zm10.72,7.5a4.77,4.77,0,0,1-4.76-4.76,4.65,4.65,0,0,1,2.14-3.94l1.67,4.33a1,1,0,0,0,.9.64.47.47,0,0,0,.35-.09,1,1,0,0,0,.55-1.28l-1.62-4.33a4.91,4.91,0,0,1,.77-.09,4.76,4.76,0,0,1,0,9.52Z"/><path class="cls-2" d="M105.69,217.69a.61.61,0,0,0-.54.35.65.65,0,0,0,0,.73l1.25,1.63a.6.6,0,0,0,.51.26H107l.68-.09,1,2.19-2.1,3.17a6.43,6.43,0,0,0-2.7-.56,6.73,6.73,0,1,0,6.69,7.42h1.2a2.44,2.44,0,0,0,1.71,1.46V235H113a.64.64,0,1,0,0,1.28h2.27a.64.64,0,1,0,0-1.28h-.47v-.77a2.58,2.58,0,0,0,1.89-2.45,2.28,2.28,0,0,0-.35-1.24l5.19-6,.64,1.71a6.72,6.72,0,1,0,3.35-.9,5.66,5.66,0,0,0-1.5.18l-2.06-5.36h3.39a1,1,0,0,0,0-2h-4.81a1,1,0,0,0-.9,1.32l1.12,2.92c-2.44,2.57-6.9,3.09-8.49,3.21l-2.44-5.31,1.84-.22a.65.65,0,0,0,.6-.64V219a.66.66,0,0,0-.6-.65l-5.83-.64Zm4.73,13.13a6.71,6.71,0,0,0-2.23-3.82l1.46-2.14,2.44,5.36a6.28,6.28,0,0,0-.38.6Zm3.43-1.55-.77-1.71a19.05,19.05,0,0,0,3.9-.77l-2.23,2.53a2.82,2.82,0,0,0-.64-.09.59.59,0,0,0-.26,0Zm11.57,3.82a.47.47,0,0,0,.35-.09,1,1,0,0,0,.55-1.28l-1.62-4.33a4.91,4.91,0,0,1,.77-.09,4.76,4.76,0,1,1-4.76,4.76,4.65,4.65,0,0,1,2.14-3.94l1.67,4.33a1,1,0,0,0,.9.64Zm-21.56,3.73a4.76,4.76,0,0,1,0-9.52,4,4,0,0,1,1.59.3l-2.4,3.65a1,1,0,0,0,0,1,1,1,0,0,0,.85.51h4.68a4.73,4.73,0,0,1-4.68,4Zm1.8-6,1.46-2.14a4.88,4.88,0,0,1,1.29,2.14Zm8.41,2.23a1.24,1.24,0,1,1,1.24-1.24,1.24,1.24,0,0,1-1.24,1.24Z"/><circle class="cls-5" cx="133.16" cy="99.19" r="26.77"/><circle class="cls-1" cx="133.16" cy="87.93" r="2.67"/><path class="cls-2" d="M133.16,85.26a2.67,2.67,0,1,0,2.66,2.67,2.67,2.67,0,0,0-2.66-2.67Z"/><path class="cls-1" d="M141.23,99.08c-1.24-.57-3.8-1.38-4.5-2.58-.94-1.6-1.73-5.32-5-5.3-1.43,0-3.76,2.38-5.41,3.44-.77.5-.74,1.84-.88,2.64-.17,1-.35,2.09-.53,3.14s.7,1.51,1.56,1a2,2,0,0,0,.76-1.39c.21-1.26.5-2.24.71-3.49l1.51-1.23c-.51,3.07-1,4.89-1.45,9a8.67,8.67,0,0,1-.59,2.86c-.94,1.21-1.65,2.41-2.6,3.62-1.34,1.71,1,3,2.27,1.46l2.52-3.21c1.19-1.52,1.14-4,1.45-5.85q1.42,3,2.83,6.1c.43.94.87,1.88,1.31,2.82.81,1.76,3.32.85,2.47-1-1.22-2.62-2.18-5.25-3.4-7.87a4.65,4.65,0,0,1-.84-2.5l.63-4.38a11.22,11.22,0,0,0,1.13,1.93c.33.57,1.59.93,2.17,1.2l2.7,1.24C141.47,101.49,142.76,99.79,141.23,99.08Z"/><path class="cls-2" d="M131.74,91.2h0c-1.43,0-3.76,2.38-5.41,3.44-.77.5-.74,1.84-.88,2.64-.17,1-.35,2.09-.53,3.14a.94.94,0,0,0,.9,1.23,1.4,1.4,0,0,0,.66-.18,2,2,0,0,0,.76-1.39c.21-1.26.5-2.24.71-3.49l1.51-1.23c-.51,3.07-1,4.89-1.45,9a8.67,8.67,0,0,1-.59,2.86c-.94,1.21-1.65,2.41-2.6,3.62a1.24,1.24,0,0,0,.92,2.16,1.7,1.7,0,0,0,1.35-.7l2.52-3.21c1.19-1.52,1.14-4,1.45-5.85q1.42,3,2.83,6.1c.43.94.87,1.88,1.31,2.82a1.5,1.5,0,0,0,1.36,1,1.27,1.27,0,0,0,1.11-1.94c-1.22-2.62-2.18-5.25-3.4-7.87a4.65,4.65,0,0,1-.84-2.5l.63-4.38a11.22,11.22,0,0,0,1.13,1.93c.33.57,1.59.93,2.17,1.2l2.7,1.24a1.65,1.65,0,0,0,.66.15c1.12,0,1.83-1.29.54-1.89s-3.8-1.38-4.5-2.58c-.93-1.59-1.73-5.3-5-5.3Z"/><circle class="cls-5" cx="306.03" cy="230.34" r="26.77"/><path class="cls-2" d="M321.46,243.78V216.91a2,2,0,0,0-2-2H292.6a2,2,0,0,0-2,2v26.87a2,2,0,0,0,2,2h26.87A2,2,0,0,0,321.46,243.78Z"/><path class="cls-2" d="M319.47,214.92H292.6a2,2,0,0,0-2,2v26.87a2,2,0,0,0,2,2h26.87a2,2,0,0,0,2-2V216.91a2,2,0,0,0-2-2Z"/><polygon class="cls-5" points="306.03 220.84 301.04 225.81 304.03 225.81 304.03 239.85 308.04 239.85 308.04 225.81 311.03 225.81 306.03 220.84"/><path class="cls-5" d="M319.07,215.87a1.44,1.44,0,0,1,1.43,1.44v26.07a1.44,1.44,0,0,1-1.43,1.44H293a1.46,1.46,0,0,1-1.44-1.44V217.31a1.46,1.46,0,0,1,1.44-1.44h26.07m0-.5H293a2,2,0,0,0-1.94,1.94v26.07a2,2,0,0,0,1.94,1.94h26.07a1.94,1.94,0,0,0,1.93-1.94V217.31a1.94,1.94,0,0,0-1.93-1.94Z"/></svg>