<svg width="400" height="400" viewBox="0 0 400 400" fill="none" xmlns="http://www.w3.org/2000/svg">
<path d="M400 200C400 310.457 310.457 400 200 400C89.5431 400 0 310.457 0 200C0 89.5431 89.5431 0 200 0C310.457 0 400 89.5431 400 200Z" fill="#2B2E4A"/>
<path d="M400 200C400 310.457 310.457 400 200 400C89.5431 400 0 310.457 0 200C0 89.5431 89.5431 0 200 0C310.457 0 400 89.5431 400 200Z" fill="#2B2E4A"/>
<rect x="48" y="125" width="30" height="130" rx="3" fill="#FEFFE4"/>
<rect x="92" y="150" width="30" height="80" rx="3" fill="#FEFFE4"/>
<rect x="136" y="165" width="30" height="50" rx="3" fill="#FEFFE4"/>
<rect x="181" y="132" width="38" height="137" rx="3" fill="#2B2E4A"/>
<rect x="278" y="150" width="30" height="80" rx="3" fill="#FEFFE4"/>
<rect x="234" y="166" width="30" height="50" rx="3" fill="#FEFFE4"/>
<rect x="322" y="125" width="30" height="130" rx="3" fill="#FEFFE4"/>
<circle cx="200" cy="190" r="20" fill="#FFDE7D"/>
<circle cx="200" cy="143" r="20" fill="#00B8A9"/>
<circle cx="200" cy="236" r="20" fill="#F6416C"/>
<path d="M130.662 75.5859C130.662 73.8477 130.994 72.2168 131.658 70.6934C132.322 69.1699 133.221 67.8418 134.354 66.709C135.506 65.5566 136.844 64.6484 138.367 63.9844C139.891 63.3203 141.521 62.9883 143.26 62.9883H162.537V71.3965H143.26C142.674 71.3965 142.127 71.5039 141.619 71.7188C141.111 71.9336 140.662 72.2363 140.271 72.627C139.9 72.998 139.607 73.4375 139.393 73.9453C139.178 74.4531 139.07 75 139.07 75.5859C139.07 76.1719 139.178 76.7285 139.393 77.2559C139.607 77.7637 139.9 78.2129 140.271 78.6035C140.662 78.9746 141.111 79.2676 141.619 79.4824C142.127 79.6973 142.674 79.8047 143.26 79.8047H151.668C153.406 79.8047 155.037 80.1367 156.561 80.8008C158.104 81.4453 159.441 82.3438 160.574 83.4961C161.727 84.6289 162.625 85.9668 163.27 87.5098C163.934 89.0332 164.266 90.6641 164.266 92.4023C164.266 94.1406 163.934 95.7715 163.27 97.2949C162.625 98.8184 161.727 100.156 160.574 101.309C159.441 102.441 158.104 103.34 156.561 104.004C155.037 104.668 153.406 105 151.668 105H133.006V96.5918H151.668C152.254 96.5918 152.801 96.4844 153.309 96.2695C153.816 96.0547 154.256 95.7617 154.627 95.3906C155.018 95 155.32 94.5508 155.535 94.043C155.75 93.5352 155.857 92.9883 155.857 92.4023C155.857 91.8164 155.75 91.2695 155.535 90.7617C155.32 90.2539 155.018 89.8145 154.627 89.4434C154.256 89.0527 153.816 88.75 153.309 88.5352C152.801 88.3203 152.254 88.2129 151.668 88.2129H143.26C141.521 88.2129 139.891 87.8809 138.367 87.2168C136.844 86.5527 135.506 85.6543 134.354 84.5215C133.221 83.3691 132.322 82.0312 131.658 80.5078C130.994 78.9648 130.662 77.3242 130.662 75.5859ZM194.529 88.2129V79.8047C194.529 78.6523 194.305 77.5684 193.855 76.5527C193.426 75.5176 192.83 74.6191 192.068 73.8574C191.307 73.0957 190.408 72.5 189.373 72.0703C188.357 71.6211 187.273 71.3965 186.121 71.3965C184.969 71.3965 183.875 71.6211 182.84 72.0703C181.824 72.5 180.936 73.0957 180.174 73.8574C179.412 74.6191 178.807 75.5176 178.357 76.5527C177.928 77.5684 177.713 78.6523 177.713 79.8047V88.2129H194.529ZM202.938 105H194.529V96.5918H177.713V105H169.334V79.8047C169.334 77.4805 169.773 75.3027 170.652 73.2715C171.531 71.2207 172.723 69.4336 174.227 67.9102C175.75 66.3867 177.527 65.1855 179.559 64.3066C181.609 63.4277 183.797 62.9883 186.121 62.9883C188.445 62.9883 190.623 63.4277 192.654 64.3066C194.705 65.1855 196.492 66.3867 198.016 67.9102C199.539 69.4336 200.74 71.2207 201.619 73.2715C202.498 75.3027 202.938 77.4805 202.938 79.8047V105ZM218.641 105H210.232V62.9883H239.646V71.3965H218.641V79.8047H231.238V88.2129H218.641V105ZM272.781 105H243.982V62.9883H272.781V71.3965H252.391V79.8047H266.189V88.2129H252.391V96.5918H272.781V105Z" fill="#FEFFE4"/>
<path d="M89.8438 312.693C87.8906 314.373 85.7031 315.662 83.2812 316.561C80.8594 317.459 78.3496 317.908 75.752 317.908C73.7598 317.908 71.8359 317.645 69.9805 317.117C68.1445 316.609 66.416 315.887 64.7949 314.949C63.1934 313.992 61.7285 312.85 60.4004 311.521C59.0723 310.193 57.9297 308.729 56.9727 307.127C56.0352 305.506 55.3027 303.777 54.7754 301.941C54.2676 300.086 54.0137 298.162 54.0137 296.17C54.0137 294.178 54.2676 292.254 54.7754 290.398C55.3027 288.543 56.0352 286.814 56.9727 285.213C57.9297 283.592 59.0723 282.117 60.4004 280.789C61.7285 279.461 63.1934 278.328 64.7949 277.391C66.416 276.434 68.1445 275.701 69.9805 275.193C71.8359 274.666 73.7598 274.402 75.752 274.402C78.3496 274.402 80.8594 274.852 83.2812 275.75C85.7031 276.629 87.8906 277.918 89.8438 279.617L85.3906 286.941C84.1602 285.613 82.7051 284.598 81.0254 283.895C79.3457 283.172 77.5879 282.811 75.752 282.811C73.8965 282.811 72.1582 283.162 70.5371 283.865C68.916 284.568 67.5 285.525 66.2891 286.736C65.0781 287.928 64.1211 289.344 63.418 290.984C62.7148 292.605 62.3633 294.334 62.3633 296.17C62.3633 298.006 62.7148 299.734 63.418 301.355C64.1211 302.957 65.0781 304.363 66.2891 305.574C67.5 306.785 68.916 307.742 70.5371 308.445C72.1582 309.148 73.8965 309.5 75.752 309.5C77.5879 309.5 79.3457 309.148 81.0254 308.445C82.7051 307.723 84.1602 306.697 85.3906 305.369L89.8438 312.693ZM103.145 283.396V300.213H111.553C112.705 300.213 113.789 299.998 114.805 299.568C115.82 299.119 116.709 298.514 117.471 297.752C118.232 296.99 118.828 296.102 119.258 295.086C119.707 294.051 119.932 292.957 119.932 291.805C119.932 290.652 119.707 289.568 119.258 288.553C118.828 287.518 118.232 286.619 117.471 285.857C116.709 285.096 115.82 284.5 114.805 284.07C113.789 283.621 112.705 283.396 111.553 283.396H103.145ZM103.145 317H94.7363V274.988H111.553C113.096 274.988 114.58 275.193 116.006 275.604C117.432 275.994 118.76 276.561 119.99 277.303C121.24 278.025 122.373 278.904 123.389 279.939C124.424 280.955 125.303 282.088 126.025 283.338C126.768 284.588 127.334 285.926 127.725 287.352C128.135 288.777 128.34 290.262 128.34 291.805C128.34 293.25 128.154 294.656 127.783 296.023C127.432 297.391 126.914 298.689 126.23 299.92C125.566 301.15 124.746 302.283 123.77 303.318C122.793 304.354 121.699 305.252 120.488 306.014L125.146 317H116.211L112.549 308.533L103.145 308.592V317ZM175.039 296.17C175.039 298.162 174.775 300.086 174.248 301.941C173.74 303.777 173.018 305.506 172.08 307.127C171.143 308.729 170.01 310.193 168.682 311.521C167.354 312.85 165.889 313.992 164.287 314.949C162.686 315.887 160.957 316.609 159.102 317.117C157.246 317.645 155.322 317.908 153.33 317.908C151.338 317.908 149.414 317.645 147.559 317.117C145.723 316.609 143.994 315.887 142.373 314.949C140.771 313.992 139.307 312.85 137.979 311.521C136.65 310.193 135.508 308.729 134.551 307.127C133.613 305.506 132.881 303.777 132.354 301.941C131.846 300.086 131.592 298.162 131.592 296.17C131.592 294.178 131.846 292.254 132.354 290.398C132.881 288.543 133.613 286.814 134.551 285.213C135.508 283.611 136.65 282.146 137.979 280.818C139.307 279.49 140.771 278.357 142.373 277.42C143.994 276.482 145.723 275.76 147.559 275.252C149.414 274.725 151.338 274.461 153.33 274.461C155.322 274.461 157.246 274.725 159.102 275.252C160.957 275.76 162.686 276.482 164.287 277.42C165.889 278.357 167.354 279.49 168.682 280.818C170.01 282.146 171.143 283.611 172.08 285.213C173.018 286.814 173.74 288.543 174.248 290.398C174.775 292.254 175.039 294.178 175.039 296.17ZM166.689 296.17C166.689 294.334 166.338 292.605 165.635 290.984C164.932 289.344 163.975 287.928 162.764 286.736C161.572 285.525 160.156 284.568 158.516 283.865C156.895 283.162 155.166 282.811 153.33 282.811C151.475 282.811 149.736 283.162 148.115 283.865C146.494 284.568 145.078 285.525 143.867 286.736C142.656 287.928 141.699 289.344 140.996 290.984C140.293 292.605 139.941 294.334 139.941 296.17C139.941 298.006 140.293 299.734 140.996 301.355C141.699 302.957 142.656 304.363 143.867 305.574C145.078 306.785 146.494 307.742 148.115 308.445C149.736 309.148 151.475 309.5 153.33 309.5C155.166 309.5 156.895 309.148 158.516 308.445C160.156 307.742 161.572 306.785 162.764 305.574C163.975 304.363 164.932 302.957 165.635 301.355C166.338 299.734 166.689 298.006 166.689 296.17ZM178.115 287.586C178.115 285.848 178.447 284.217 179.111 282.693C179.775 281.17 180.674 279.842 181.807 278.709C182.959 277.557 184.297 276.648 185.82 275.984C187.344 275.32 188.975 274.988 190.713 274.988H209.99V283.396H190.713C190.127 283.396 189.58 283.504 189.072 283.719C188.564 283.934 188.115 284.236 187.725 284.627C187.354 284.998 187.061 285.438 186.846 285.945C186.631 286.453 186.523 287 186.523 287.586C186.523 288.172 186.631 288.729 186.846 289.256C187.061 289.764 187.354 290.213 187.725 290.604C188.115 290.975 188.564 291.268 189.072 291.482C189.58 291.697 190.127 291.805 190.713 291.805H199.121C200.859 291.805 202.49 292.137 204.014 292.801C205.557 293.445 206.895 294.344 208.027 295.496C209.18 296.629 210.078 297.967 210.723 299.51C211.387 301.033 211.719 302.664 211.719 304.402C211.719 306.141 211.387 307.771 210.723 309.295C210.078 310.818 209.18 312.156 208.027 313.309C206.895 314.441 205.557 315.34 204.014 316.004C202.49 316.668 200.859 317 199.121 317H180.459V308.592H199.121C199.707 308.592 200.254 308.484 200.762 308.27C201.27 308.055 201.709 307.762 202.08 307.391C202.471 307 202.773 306.551 202.988 306.043C203.203 305.535 203.311 304.988 203.311 304.402C203.311 303.816 203.203 303.27 202.988 302.762C202.773 302.254 202.471 301.814 202.08 301.443C201.709 301.053 201.27 300.75 200.762 300.535C200.254 300.32 199.707 300.213 199.121 300.213H190.713C188.975 300.213 187.344 299.881 185.82 299.217C184.297 298.553 182.959 297.654 181.807 296.521C180.674 295.369 179.775 294.031 179.111 292.508C178.447 290.965 178.115 289.324 178.115 287.586ZM214.795 287.586C214.795 285.848 215.127 284.217 215.791 282.693C216.455 281.17 217.354 279.842 218.486 278.709C219.639 277.557 220.977 276.648 222.5 275.984C224.023 275.32 225.654 274.988 227.393 274.988H246.67V283.396H227.393C226.807 283.396 226.26 283.504 225.752 283.719C225.244 283.934 224.795 284.236 224.404 284.627C224.033 284.998 223.74 285.438 223.525 285.945C223.311 286.453 223.203 287 223.203 287.586C223.203 288.172 223.311 288.729 223.525 289.256C223.74 289.764 224.033 290.213 224.404 290.604C224.795 290.975 225.244 291.268 225.752 291.482C226.26 291.697 226.807 291.805 227.393 291.805H235.801C237.539 291.805 239.17 292.137 240.693 292.801C242.236 293.445 243.574 294.344 244.707 295.496C245.859 296.629 246.758 297.967 247.402 299.51C248.066 301.033 248.398 302.664 248.398 304.402C248.398 306.141 248.066 307.771 247.402 309.295C246.758 310.818 245.859 312.156 244.707 313.309C243.574 314.441 242.236 315.34 240.693 316.004C239.17 316.668 237.539 317 235.801 317H217.139V308.592H235.801C236.387 308.592 236.934 308.484 237.441 308.27C237.949 308.055 238.389 307.762 238.76 307.391C239.15 307 239.453 306.551 239.668 306.043C239.883 305.535 239.99 304.988 239.99 304.402C239.99 303.816 239.883 303.27 239.668 302.762C239.453 302.254 239.15 301.814 238.76 301.443C238.389 301.053 237.949 300.75 237.441 300.535C236.934 300.32 236.387 300.213 235.801 300.213H227.393C225.654 300.213 224.023 299.881 222.5 299.217C220.977 298.553 219.639 297.654 218.486 296.521C217.354 295.369 216.455 294.031 215.791 292.508C215.127 290.965 214.795 289.324 214.795 287.586ZM262.344 317H253.936V274.988H262.344V317ZM303.77 317H294.775L278.574 289.344V317H270.166V274.988H279.16L295.361 302.674V274.988H303.77V317ZM345.02 312.752C343.066 314.412 340.889 315.691 338.486 316.59C336.084 317.469 333.584 317.908 330.986 317.908C328.994 317.908 327.07 317.645 325.215 317.117C323.379 316.609 321.66 315.887 320.059 314.949C318.457 313.992 316.992 312.859 315.664 311.551C314.336 310.223 313.203 308.758 312.266 307.156C311.328 305.535 310.596 303.797 310.068 301.941C309.561 300.086 309.307 298.162 309.307 296.17C309.307 294.178 309.561 292.264 310.068 290.428C310.596 288.592 311.328 286.873 312.266 285.271C313.203 283.65 314.336 282.186 315.664 280.877C316.992 279.549 318.457 278.416 320.059 277.479C321.66 276.541 323.379 275.818 325.215 275.311C327.07 274.783 328.994 274.52 330.986 274.52C333.584 274.52 336.084 274.969 338.486 275.867C340.889 276.746 343.066 278.016 345.02 279.676L340.625 287C339.355 285.711 337.891 284.705 336.23 283.982C334.57 283.24 332.822 282.869 330.986 282.869C329.15 282.869 327.422 283.221 325.801 283.924C324.199 284.627 322.793 285.584 321.582 286.795C320.371 287.986 319.414 289.393 318.711 291.014C318.008 292.615 317.656 294.334 317.656 296.17C317.656 298.025 318.008 299.764 318.711 301.385C319.414 303.006 320.371 304.422 321.582 305.633C322.793 306.844 324.199 307.801 325.801 308.504C327.422 309.207 329.15 309.559 330.986 309.559C332.041 309.559 333.066 309.432 334.062 309.178C335.059 308.924 336.006 308.572 336.904 308.123V296.17H345.02V312.752Z" fill="#FEFFE4"/>
</svg>
