<svg width="400" height="400" viewBox="0 0 400 400" fill="none" xmlns="http://www.w3.org/2000/svg">
<g clip-path="url(#clip0)">
<rect width="400" height="400" fill="white"/>
<circle cx="200" cy="200" r="200" fill="#F14A3B"/>
<path d="M94.8247 370.145L179.472 328C180.781 326.314 182.612 320.806 179.472 312.263C176.333 303.72 180.78 297.837 183.397 295.964C184.518 286.784 182.5 269.66 165.456 274.606L165.152 274.694C143.917 280.857 119.549 287.929 133.499 253.248C133.395 253.071 133.291 252.89 133.185 252.707C129.271 245.939 123.525 236.003 107.148 263.365C108.082 267.861 108.605 278.765 103.223 286.409C97.8409 294.053 97.2429 301.584 97.6167 304.394C91.4494 318.071 74.0691 339.69 53.8856 316.759C47.6062 299.223 44.9151 290.718 44.3544 288.657C43.2331 285.285 44.1302 278.315 56.6888 277.416C72.3872 276.292 78.5544 276.292 77.4331 288.657C76.3118 301.022 80.2363 316.197 88.0855 290.905C88.0855 276.292 89.2068 270.11 94.8134 261.679C96.4953 253.248 106.026 235.825 121.725 236.387C127.331 233.015 131.5 217.278 126.21 215.591C125.649 214.093 122.398 212.332 113.876 217.278C113.508 217.139 113.115 217.005 112.707 216.866C108.144 215.309 101.899 213.178 112.194 198.73L112.274 198.557C119.507 182.939 122.871 175.676 129.574 172.876C129.07 171.487 129.104 170.099 129.135 168.818C129.242 164.398 129.318 161.269 107.148 163.883C78.5544 167.256 77.4331 165.008 94.8134 150.394C112.194 135.781 122.846 123.416 124.528 107.679C126.21 91.942 159.289 62.7157 167.138 61.5916C163.774 55.9712 151.44 31.2413 197.974 49.7887C211.909 53.196 223.578 53.5049 231.731 53.7207C237.027 53.8609 240.839 53.9618 242.826 54.8471C244.007 55.3731 245.126 55.6837 246.169 55.9733C249.586 56.9216 252.19 57.6445 253.479 64.9639C253.966 67.7293 257.411 69.9769 262.089 73.0283C273.575 80.5198 292.488 92.8568 293.285 129.599C294.224 172.894 300.666 180.726 308.332 190.047C309.822 191.858 311.358 193.725 312.908 195.92C313.75 197.111 314.53 198.201 315.244 199.199C322.614 209.495 322.884 209.872 310.105 208.847C307.41 207.609 304.873 206.258 302.489 204.989C292.967 199.919 285.883 196.148 280.951 206.037C276.017 215.929 272.167 221.399 270.859 222.898C266.748 227.956 262.001 238.523 275.905 240.321C289.361 245.38 310.666 281.912 307.302 292.029C307.302 300.572 317.767 319.195 323 327.438L341.798 341.044C305.576 377.459 255.42 400 200 400C161.414 400 125.381 389.073 94.8247 370.145Z" fill="#0A0839"/>
<path fill-rule="evenodd" clip-rule="evenodd" d="M163.381 19.2366C162.323 20.5136 164.369 23.9389 166.189 23.9389C167.491 23.9389 169.55 21.2539 169.345 19.8226C169.209 18.8693 168.758 18.674 166.568 18.6159C165.074 18.5766 163.708 18.8427 163.381 19.2366ZM101.087 30.5986C99.2627 31.3322 98.5838 33.5408 99.5041 35.7467C100.274 37.5919 105.031 42.1967 106.168 42.1967C106.945 42.1967 111.09 37.9526 111.941 36.2856C114.103 32.0514 110.352 28.2571 106.605 30.8863C105.493 31.6658 105.26 31.6658 104.148 30.8863C102.76 29.9114 102.787 29.9142 101.087 30.5986ZM141.04 33.2205C139.89 34.3719 142.109 38.3239 143.904 38.3239C144.912 38.3239 146.871 35.4347 146.695 34.207C146.559 33.2554 146.106 33.0551 143.94 32.9904C142.514 32.9477 141.209 33.0512 141.04 33.2205ZM120.802 46.027C119.47 47.3615 119.187 48.1045 119.187 50.2783C119.187 53.9492 120.904 57.1483 124.738 60.6228C129.791 65.2027 130.207 65.335 133.16 63.3C136.196 61.2076 140.062 56.9247 141.081 54.5247C141.497 53.5454 141.837 51.5968 141.837 50.1942C141.837 45.0798 136.855 42.7113 132.431 45.7227L130.502 47.0351L128.589 45.7227C125.836 43.8327 122.877 43.9489 120.802 46.027ZM175.175 48.691C174.502 48.8083 173.702 49.5856 173.332 50.4808C172.462 52.5838 173.772 55.4132 176.685 57.7242C179.168 59.6938 179.768 59.5306 182.934 56.0213C184.644 54.1258 184.96 53.4026 184.819 51.7174C184.596 49.0407 182.731 47.9607 180.409 49.1635C179.094 49.844 178.659 49.854 177.608 49.226C176.924 48.8171 175.829 48.5765 175.175 48.691ZM90.4747 56.5679C87.2999 59.7475 89.4378 65.4229 95.3593 69.5326L97.5966 71.0851L99.5146 69.8983C101.975 68.3752 104.741 65.216 105.767 62.7567C107.923 57.587 103.287 53.3218 99.0981 56.6221L97.6424 57.7685L96.1868 56.6221C94.3505 55.1753 91.8884 55.1521 90.4747 56.5679ZM50.6069 77.171C49.0391 77.6944 47.9237 79.648 47.9237 81.871C47.9237 84.0974 50.3677 87.77 53.5232 90.2868C56.3146 92.5126 56.408 92.5419 57.8128 91.6501C60.0065 90.2564 61.7262 88.6098 63.4669 86.2369C65.3496 83.6692 65.6214 80.0956 64.0779 78.1874C62.7918 76.5968 59.9474 76.5315 57.9017 78.0463C56.3781 79.1744 56.303 79.1789 55.4086 78.1891C54.27 76.9287 52.4735 76.548 50.6069 77.171ZM84.6333 87.609C84.1206 88.4389 84.8432 90.05 86.3723 91.4885L87.7888 92.8208L89.4328 90.9784C91.8104 88.3133 91.389 87.3108 87.8379 87.1891C86.2513 87.1348 84.8089 87.3235 84.6333 87.609ZM99.06 97.9042C98.6904 98.8697 99.3478 100.214 100.859 101.585C101.909 102.536 102.045 102.539 103.403 101.649C104.841 100.705 105.761 98.5941 105.159 97.6187C104.617 96.7407 99.4124 96.9841 99.06 97.9042ZM156.2 99.7366C155.592 100.345 155.095 101.374 155.095 102.023C155.095 103.701 156.996 106.562 159.259 108.29L161.196 109.77L163.286 108.112C167.38 104.864 168.371 100.477 165.322 99.086C164.251 98.5974 163.692 98.6616 162.562 99.403C161.279 100.246 161.03 100.253 159.931 99.4816C158.322 98.3535 157.527 98.4077 156.2 99.7366ZM44.8119 102.377C41.1719 105.33 41.6608 111.081 45.9902 116.234C46.7791 117.172 48.9247 119.071 50.7593 120.452L54.0944 122.962L56.3953 121.374C60.0037 118.883 64.2055 114.092 65.3004 111.22C66.6489 107.684 66.1821 104.929 63.884 102.855C62.3626 101.481 61.8035 101.307 59.6872 101.546C58.2691 101.706 56.725 102.312 56.0019 102.992C54.4507 104.452 54.4767 104.453 52.0145 102.78C49.6175 101.15 46.536 100.978 44.8119 102.377ZM79.7277 116.651C79.2504 117.129 78.8598 118.419 78.8598 119.519C78.8598 121.195 79.3089 121.951 81.6435 124.204L84.4267 126.892L86.0193 125.756C88.9671 123.654 90.4609 121.397 90.4609 119.047C90.4609 117.232 90.2184 116.754 89.0218 116.207C87.8523 115.674 87.301 115.713 86.0757 116.418C84.7935 117.155 84.414 117.172 83.5417 116.533C82.1854 115.54 80.7944 115.582 79.7277 116.651ZM28.0108 122.175C27.2065 123.145 28.7257 126.087 30.2868 126.583C31.9104 127.099 34.2185 124.867 33.9997 122.992C33.8522 121.725 33.5876 121.585 31.2221 121.523C29.6731 121.483 28.3638 121.748 28.0108 122.175ZM153.7 124.002C152.509 125.195 155.11 129.22 156.899 128.951C158.468 128.716 160.27 126.144 159.832 124.764C159.54 123.841 159.018 123.663 156.722 123.697C155.205 123.72 153.845 123.857 153.7 124.002ZM18.7172 137.241C17.0561 138.601 16.6666 141.731 17.8488 144.226C18.8824 146.408 24.3758 151.764 25.5801 151.764C25.9878 151.764 27.3909 150.947 28.698 149.949C34.1555 145.78 36 140.307 32.8594 137.601C30.9757 135.979 29.2234 135.912 27.3445 137.392L25.9237 138.512L24.094 137.394C21.8434 136.02 20.264 135.975 18.7172 137.241ZM57.4255 134.703C55.6964 136.435 57.3471 140.927 60.5965 143.333C62.6134 144.826 63.3675 144.554 66.3395 141.259C68.4653 138.902 69.0558 136.06 67.7007 134.703C66.84 133.841 64.3547 133.849 63.4884 134.717C62.9542 135.252 62.583 135.252 61.7284 134.717C60.3473 133.853 58.2807 133.847 57.4255 134.703ZM42.0647 141.327C40.9046 143.207 44.1794 146.777 46.1134 145.74C47.4376 145.03 48.7109 142.642 48.3154 141.61C47.9635 140.691 42.606 140.449 42.0647 141.327ZM111.822 143.814C111 144.637 111.538 146.899 112.874 148.238L114.295 149.661L115.912 148.109C116.802 147.256 117.53 146.008 117.53 145.337C117.53 143.969 116.072 143.144 115.094 143.957C114.698 144.286 114.146 144.293 113.644 143.975C112.671 143.359 112.308 143.326 111.822 143.814ZM49.1822 156.862C47.3503 159.232 48.269 162.151 51.7985 165.177L54.1601 167.202L56.3068 165.499C59.817 162.715 61.1108 158.944 59.2093 157.039C58.1349 155.964 56.7499 155.929 55.3639 156.945C54.4568 157.608 54.148 157.608 53.2017 156.945C51.8316 155.984 49.8909 155.944 49.1822 156.862ZM13.1609 164.82C11.7081 166.67 11.713 168.472 13.1775 171.503C14.22 173.659 19.6498 178.854 20.8607 178.854C21.7208 178.854 27.5374 173.163 28.4152 171.462C29.5935 169.181 29.5394 165.827 28.3019 164.457C27.0739 163.098 24.1079 163.014 22.1716 164.285C20.8585 165.147 20.6618 165.147 19.2056 164.285C16.8484 162.891 14.5138 163.097 13.1609 164.82ZM71.3435 170.097C70.7446 171.067 71.6882 173.302 73.0825 174.217C74.3824 175.07 74.5398 175.062 75.6104 174.092C78.6736 171.316 78.2069 169.576 74.3989 169.576C72.8952 169.576 71.5202 169.81 71.3435 170.097ZM69.2315 188.022C68.0377 189.218 68.1449 191.37 69.5077 193.579C70.7612 195.61 73.3184 197.665 74.5934 197.665C75.7154 197.665 79.8487 193.064 80.2829 191.331C81.0557 188.248 77.8108 186.053 75.2514 187.928C74.3443 188.591 74.0355 188.591 73.0891 187.928C71.644 186.914 70.306 186.947 69.2315 188.022ZM37.98 192.629C37.98 193.523 38.5291 194.669 39.3091 195.403C40.4024 196.432 40.841 196.545 41.7824 196.04C43.1286 195.319 44.0567 193.755 44.0567 192.208C44.0567 191.239 43.6855 191.105 41.0183 191.105C38.0711 191.105 37.98 191.15 37.98 192.629ZM62.5847 213.043C61.4655 214.164 63.6636 218.136 65.4026 218.136C66.5263 218.136 68.4542 215.476 68.2708 214.18C68.1095 213.04 67.7709 212.874 65.4849 212.814C64.053 212.776 62.7482 212.879 62.5847 213.043ZM32.6164 216.854C32.2192 217.891 33.3147 219.929 34.7516 220.828C35.7007 221.421 36.0503 221.374 36.9933 220.525C38.265 219.38 39.0534 217.605 38.7015 216.678C38.3363 215.717 32.9932 215.871 32.6164 216.854ZM51.6018 252.706C50.534 253.776 51.0212 255.507 52.7801 256.892L54.1861 258L55.7506 256.499C57.4001 254.916 57.8222 252.752 56.5742 252.273C56.1671 252.116 55.497 252.196 55.0849 252.451C54.6722 252.707 53.906 252.684 53.3779 252.401C52.7111 252.044 52.1714 252.137 51.6018 252.706Z" fill="#0A0839"/>
<path d="M28.2202 125.812C26.757 124.137 26.5918 122.267 27.8219 121.307C28.4046 120.852 29.4461 120.908 30.2562 121.438C31.0883 121.982 31.0795 121.982 31.6038 121.507C31.8482 121.286 32.37 121.089 32.8493 121.037C33.5645 120.959 33.7535 121.016 34.2677 121.462C35.0443 122.137 35.2021 123.033 34.7464 124.182C34.3763 125.116 32.9563 126.674 31.7367 127.484L30.9591 128L29.832 127.184C29.2119 126.735 28.4868 126.118 28.2202 125.812Z" fill="#0A0839"/>
<path d="M38.2202 194.812C36.757 193.137 36.5918 191.267 37.8219 190.307C38.4046 189.852 39.4461 189.908 40.2562 190.438C41.0883 190.982 41.0795 190.982 41.6038 190.507C41.8482 190.286 42.37 190.089 42.8493 190.037C43.5645 189.959 43.7535 190.016 44.2677 190.462C45.0443 191.137 45.2021 192.033 44.7464 193.182C44.3763 194.116 42.9563 195.674 41.7367 196.484L40.9591 197L39.832 196.184C39.2119 195.735 38.4868 195.118 38.2202 194.812Z" fill="#0A0839"/>
<path d="M32.2202 219.812C30.757 218.137 30.5918 216.267 31.8219 215.307C32.4046 214.852 33.4461 214.908 34.2562 215.438C35.0883 215.982 35.0795 215.982 35.6038 215.507C35.8482 215.286 36.37 215.089 36.8493 215.037C37.5645 214.959 37.7535 215.016 38.2677 215.462C39.0443 216.137 39.2021 217.033 38.7464 218.182C38.3763 219.116 36.9563 220.674 35.7367 221.484L34.9591 222L33.832 221.184C33.2119 220.735 32.4868 220.118 32.2202 219.812Z" fill="#0A0839"/>
<path d="M62.2202 216.812C60.757 215.137 60.5918 213.267 61.8219 212.307C62.4046 211.852 63.4461 211.908 64.2562 212.438C65.0883 212.982 65.0795 212.982 65.6038 212.507C65.8482 212.286 66.37 212.089 66.8493 212.037C67.5645 211.959 67.7535 212.016 68.2677 212.462C69.0443 213.137 69.2021 214.033 68.7464 215.182C68.3763 216.116 66.9563 217.674 65.7367 218.484L64.9591 219L63.832 218.184C63.2119 217.735 62.4868 217.118 62.2202 216.812Z" fill="#0A0839"/>
<path d="M71.2202 173.812C69.757 172.137 69.5918 170.267 70.8219 169.307C71.4046 168.852 72.4461 168.908 73.2562 169.438C74.0883 169.982 74.0795 169.982 74.6038 169.507C74.8482 169.286 75.37 169.089 75.8493 169.037C76.5645 168.959 76.7535 169.016 77.2677 169.462C78.0443 170.137 78.2021 171.033 77.7464 172.182C77.3763 173.116 75.9563 174.674 74.7367 175.484L73.9591 176L72.832 175.184C72.2119 174.735 71.4868 174.118 71.2202 173.812Z" fill="#0A0839"/>
<path d="M141.22 36.8124C139.757 35.137 139.592 33.2673 140.822 32.307C141.405 31.8523 142.446 31.9082 143.256 32.438C144.088 32.982 144.08 32.9816 144.604 32.5071C144.848 32.286 145.37 32.089 145.849 32.0369C146.565 31.9593 146.753 32.0158 147.268 32.4625C148.044 33.1368 148.202 34.0327 147.746 35.1823C147.376 36.1161 145.956 37.6737 144.737 38.4835L143.959 39L142.832 38.1837C142.212 37.7347 141.487 37.1175 141.22 36.8124Z" fill="#0A0839"/>
<path d="M163.22 22.8124C161.757 21.137 161.592 19.2673 162.822 18.307C163.405 17.8523 164.446 17.9082 165.256 18.438C166.088 18.982 166.08 18.9816 166.604 18.5071C166.848 18.286 167.37 18.089 167.849 18.0369C168.565 17.9593 168.753 18.0158 169.268 18.4625C170.044 19.1368 170.202 20.0327 169.746 21.1823C169.376 22.1161 167.956 23.6737 166.737 24.4835L165.959 25L164.832 24.1837C164.212 23.7347 163.487 23.1175 163.22 22.8124Z" fill="#0A0839"/>
<path d="M85.2202 90.8124C83.757 89.137 83.5918 87.2673 84.8219 86.307C85.4046 85.8523 86.4461 85.9082 87.2562 86.438C88.0883 86.982 88.0795 86.9816 88.6038 86.5071C88.8482 86.286 89.37 86.089 89.8493 86.0369C90.5645 85.9593 90.7535 86.0158 91.2677 86.4625C92.0443 87.1368 92.2021 88.0327 91.7464 89.1823C91.3763 90.1161 89.9563 91.6737 88.7367 92.4835L87.9591 93L86.832 92.1837C86.2119 91.7347 85.4868 91.1175 85.2202 90.8124Z" fill="#0A0839"/>
<path d="M99.2202 100.812C97.757 99.137 97.5918 97.2673 98.8219 96.307C99.4046 95.8523 100.446 95.9082 101.256 96.438C102.088 96.982 102.08 96.9816 102.604 96.5071C102.848 96.286 103.37 96.089 103.849 96.0369C104.565 95.9593 104.753 96.0158 105.268 96.4625C106.044 97.1368 106.202 98.0327 105.746 99.1823C105.376 100.116 103.956 101.674 102.737 102.484L101.959 103L100.832 102.184C100.212 101.735 99.4868 101.118 99.2202 100.812Z" fill="#0A0839"/>
<path d="M42.2202 144.812C40.757 143.137 40.5918 141.267 41.8219 140.307C42.4046 139.852 43.4461 139.908 44.2562 140.438C45.0883 140.982 45.0795 140.982 45.6038 140.507C45.8482 140.286 46.37 140.089 46.8493 140.037C47.5645 139.959 47.7535 140.016 48.2677 140.462C49.0443 141.137 49.2021 142.033 48.7464 143.182C48.3763 144.116 46.9563 145.674 45.7367 146.484L44.9591 147L43.832 146.184C43.2119 145.735 42.4868 145.118 42.2202 144.812Z" fill="#0A0839"/>
</g>
<defs>
<clipPath id="clip0">
<rect width="400" height="400" fill="white"/>
</clipPath>
</defs>
</svg>
