<?xml version="1.0" encoding="UTF-8" standalone="no"?>
<!-- Created with Inkscape (http://www.inkscape.org/) -->

<svg
   version="1.1"
   id="svg2"
   xml:space="preserve"
   width="4705.3335"
   height="925.33331"
   viewBox="0 0 4705.3335 925.33331"
   sodipodi:docname="DalbergDataInsights.eps"
   xmlns:inkscape="http://www.inkscape.org/namespaces/inkscape"
   xmlns:sodipodi="http://sodipodi.sourceforge.net/DTD/sodipodi-0.dtd"
   xmlns="http://www.w3.org/2000/svg"
   xmlns:svg="http://www.w3.org/2000/svg"><defs
     id="defs6" /><sodipodi:namedview
     id="namedview4"
     pagecolor="#ffffff"
     bordercolor="#666666"
     borderopacity="1.0"
     inkscape:pageshadow="2"
     inkscape:pageopacity="0.0"
     inkscape:pagecheckerboard="0" /><g
     id="g8"
     inkscape:groupmode="layer"
     inkscape:label="ink_ext_XXXXXX"
     transform="matrix(1.3333333,0,0,-1.3333333,0,925.33333)"><g
       id="g10"
       transform="scale(0.1)"><path
         d="m 18100.5,3534.23 c -226.9,0 -538.9,-42.56 -538.9,-333.28 0,-241.09 219.8,-361.66 439.6,-361.66 297.9,0 560.2,219.84 560.2,468.02 v 173.73 c -46,14.18 -244.6,53.19 -460.9,53.19 z m 28.4,982.09 c 450.3,0 709.1,-184.36 709.1,-599.18 v -946.65 c 0,-63.82 46.1,-78.01 99.3,-78.01 35.4,0 99.2,7.1 138.2,10.64 v -226.91 c -17.7,-10.64 -170.2,-39 -258.8,-39 -120.5,0 -230.4,53.18 -230.4,230.46 v 56.73 c -120.6,-234.01 -361.7,-322.65 -613.4,-322.65 -379.4,0 -680.8,198.56 -680.8,599.2 3.6,389.99 358.1,563.72 780.1,563.72 198.5,0 429,-38.99 489.2,-49.63 v 163.09 c 0,315.56 -202.1,393.55 -478.6,393.55 -163.1,0 -404.2,-31.9 -553.1,-74.44 l -60.3,209.18 c 166.7,56.72 411.3,109.9 659.5,109.9"
         style="fill:#851542;fill-opacity:1;fill-rule:nonzero;stroke:none"
         id="path12" /><path
         d="m 18100.5,3534.23 c -226.9,0 -538.9,-42.56 -538.9,-333.28 0,-241.09 219.8,-361.66 439.6,-361.66 297.9,0 560.2,219.84 560.2,468.02 v 173.73 c -46,14.18 -244.6,53.19 -460.9,53.19 z m 28.4,982.09 c 450.3,0 709.1,-184.36 709.1,-599.18 v -946.65 c 0,-63.82 46.1,-78.01 99.3,-78.01 35.4,0 99.2,7.1 138.2,10.64 v -226.91 c -17.7,-10.64 -170.2,-39 -258.8,-39 -120.5,0 -230.4,53.18 -230.4,230.46 v 56.73 c -120.6,-234.01 -361.7,-322.65 -613.4,-322.65 -379.4,0 -680.8,198.56 -680.8,599.2 3.6,389.99 358.1,563.72 780.1,563.72 198.5,0 429,-38.99 489.2,-49.63 v 163.09 c 0,315.56 -202.1,393.55 -478.6,393.55 -163.1,0 -404.2,-31.9 -553.1,-74.44 l -60.3,209.18 c 166.7,56.72 411.3,109.9 659.5,109.9 z"
         style="fill:none;stroke:#851542;stroke-width:8;stroke-linecap:butt;stroke-linejoin:miter;stroke-miterlimit:10;stroke-dasharray:none;stroke-opacity:1"
         id="path14" /><path
         d="m 19655.2,5012.7 v -531.84 h 461 V 4257.5 h -461 V 3229.31 c 0,-209.19 67.4,-343.91 273,-343.91 71,0 148.9,10.63 234,24.81 l 46.1,-209.19 c -88.6,-35.45 -216.2,-63.81 -326.1,-63.81 -393.6,0 -517.7,212.73 -517.7,616.92 V 4257.5 H 19095 v 180.83 l 269.5,39 46.1,535.37 h 244.6"
         style="fill:#851542;fill-opacity:1;fill-rule:nonzero;stroke:none"
         id="path16" /><path
         d="m 19655.2,5012.7 v -531.84 h 461 V 4257.5 h -461 V 3229.31 c 0,-209.19 67.4,-343.91 273,-343.91 71,0 148.9,10.63 234,24.81 l 46.1,-209.19 c -88.6,-35.45 -216.2,-63.81 -326.1,-63.81 -393.6,0 -517.7,212.73 -517.7,616.92 V 4257.5 H 19095 v 180.83 l 269.5,39 46.1,535.37 z"
         style="fill:none;stroke:#851542;stroke-width:8;stroke-linecap:butt;stroke-linejoin:miter;stroke-miterlimit:10;stroke-dasharray:none;stroke-opacity:1"
         id="path18" /><path
         d="m 21102.5,3534.23 c -226.9,0 -538.9,-42.56 -538.9,-333.28 0,-241.09 219.8,-361.66 439.6,-361.66 297.8,0 560.2,219.84 560.2,468.02 v 173.73 c -46.1,14.18 -244.6,53.19 -460.9,53.19 z m 28.4,982.09 c 450.3,0 709.1,-184.36 709.1,-599.18 v -946.65 c 0,-63.82 46.1,-78.01 99.2,-78.01 35.5,0 99.3,7.1 138.3,10.64 v -226.91 c -17.7,-10.64 -170.2,-39 -258.8,-39 -120.5,0 -230.4,53.18 -230.4,230.46 v 56.73 c -120.6,-234.01 -361.7,-322.65 -613.4,-322.65 -379.4,0 -680.8,198.56 -680.8,599.2 3.6,389.99 358.1,563.72 780.1,563.72 198.5,0 428.9,-38.99 489.2,-49.63 v 163.09 c 0,315.56 -202.1,393.55 -478.6,393.55 -163.1,0 -404.2,-31.9 -553.1,-74.44 l -60.3,209.18 c 166.7,56.72 411.3,109.9 659.5,109.9"
         style="fill:#851542;fill-opacity:1;fill-rule:nonzero;stroke:none"
         id="path20" /><path
         d="m 21102.5,3534.23 c -226.9,0 -538.9,-42.56 -538.9,-333.28 0,-241.09 219.8,-361.66 439.6,-361.66 297.8,0 560.2,219.84 560.2,468.02 v 173.73 c -46.1,14.18 -244.6,53.19 -460.9,53.19 z m 28.4,982.09 c 450.3,0 709.1,-184.36 709.1,-599.18 v -946.65 c 0,-63.82 46.1,-78.01 99.2,-78.01 35.5,0 99.3,7.1 138.3,10.64 v -226.91 c -17.7,-10.64 -170.2,-39 -258.8,-39 -120.5,0 -230.4,53.18 -230.4,230.46 v 56.73 c -120.6,-234.01 -361.7,-322.65 -613.4,-322.65 -379.4,0 -680.8,198.56 -680.8,599.2 3.6,389.99 358.1,563.72 780.1,563.72 198.5,0 428.9,-38.99 489.2,-49.63 v 163.09 c 0,315.56 -202.1,393.55 -478.6,393.55 -163.1,0 -404.2,-31.9 -553.1,-74.44 l -60.3,209.18 c 166.7,56.72 411.3,109.9 659.5,109.9 z"
         style="fill:none;stroke:#851542;stroke-width:8;stroke-linecap:butt;stroke-linejoin:miter;stroke-miterlimit:10;stroke-dasharray:none;stroke-opacity:1"
         id="path22" /><path
         d="m 15402,2934.25 h 523.9 c 114.4,0 302.6,22.82 505.6,140.75 295.2,175 398.5,524.98 398.5,893.97 0,380.41 -110.7,711.37 -398.5,886.36 -206.6,125.53 -424.4,140.75 -505.6,140.75 H 15402 Z m -310,-300.52 v 2662.88 h 885.6 c 158.7,0 380.1,-41.85 590.4,-167.38 413.3,-251.08 568.3,-703.76 572,-1164.06 0,-460.3 -162.4,-920.6 -572,-1164.07 -217.7,-125.53 -450.2,-167.37 -590.4,-167.37 H 15092"
         style="fill:#851542;fill-opacity:1;fill-rule:nonzero;stroke:none"
         id="path24" /><path
         d="m 23832.7,4480.86 49.6,-319.08 c 35.5,85.09 227,354.54 631.2,354.54 411.2,0 698.4,-255.27 698.4,-787.1 V 2637.21 h -294.3 v 1084.92 c 0,319.11 -173.7,514.1 -468,514.1 -372.2,0 -546,-312.01 -546,-574.37 V 2637.21 h -294.2 v 1843.65 h 223.3"
         style="fill:#851542;fill-opacity:1;fill-rule:nonzero;stroke:none"
         id="path26" /><path
         d="m 23832.7,4480.86 49.6,-319.08 c 35.5,85.09 227,354.54 631.2,354.54 411.2,0 698.4,-255.27 698.4,-787.1 V 2637.21 h -294.3 v 1084.92 c 0,319.11 -173.7,514.1 -468,514.1 -372.2,0 -546,-312.01 -546,-574.37 V 2637.21 h -294.2 v 1843.65 z"
         style="fill:none;stroke:#851542;stroke-width:8;stroke-linecap:butt;stroke-linejoin:miter;stroke-miterlimit:10;stroke-dasharray:none;stroke-opacity:1"
         id="path28" /><path
         d="m 25500.5,2757.75 78,226.91 c 85.1,-39 326.2,-134.72 574.4,-134.72 297.8,0 436.1,113.45 436.1,276.55 0,432.55 -1074.3,195 -1074.3,865.1 0,315.55 248.2,524.73 663,524.73 258.9,0 500,-77.99 609.9,-131.17 l -85.1,-230.47 c 0,0 -251.8,113.47 -507,113.47 -251.8,0 -407.8,-102.84 -407.8,-269.47 0,-425.47 1077.9,-198.55 1077.9,-868.65 0,-326.19 -269.5,-528.28 -702.1,-528.28 -329.7,0 -570.8,113.46 -663,156"
         style="fill:#851542;fill-opacity:1;fill-rule:nonzero;stroke:none"
         id="path30" /><path
         d="m 25500.5,2757.75 78,226.91 c 85.1,-39 326.2,-134.72 574.4,-134.72 297.8,0 436.1,113.45 436.1,276.55 0,432.55 -1074.3,195 -1074.3,865.1 0,315.55 248.2,524.73 663,524.73 258.9,0 500,-77.99 609.9,-131.17 l -85.1,-230.47 c 0,0 -251.8,113.47 -507,113.47 -251.8,0 -407.8,-102.84 -407.8,-269.47 0,-425.47 1077.9,-198.55 1077.9,-868.65 0,-326.19 -269.5,-528.28 -702.1,-528.28 -329.7,0 -570.8,113.46 -663,156 z"
         style="fill:none;stroke:#851542;stroke-width:8;stroke-linecap:butt;stroke-linejoin:miter;stroke-miterlimit:10;stroke-dasharray:none;stroke-opacity:1"
         id="path32" /><path
         d="m 27507.3,4977.25 c 0,-109.92 -92.2,-198.56 -198.6,-198.56 -109.9,0 -191.4,88.64 -191.4,195.01 0,106.36 81.5,195 191.4,195 106.4,0 198.6,-88.64 198.6,-191.45 z m -14.2,-496.39 V 2637.21 h -294.3 V 4218.5 l -191.4,56.73 v 205.63 h 485.7"
         style="fill:#851542;fill-opacity:1;fill-rule:nonzero;stroke:none"
         id="path34" /><path
         d="m 27507.3,4977.25 c 0,-109.92 -92.2,-198.56 -198.6,-198.56 -109.9,0 -191.4,88.64 -191.4,195.01 0,106.36 81.5,195 191.4,195 106.4,0 198.6,-88.64 198.6,-191.45 z m -14.2,-496.39 V 2637.21 h -294.3 V 4218.5 l -191.4,56.73 v 205.63 z"
         style="fill:none;stroke:#851542;stroke-width:8;stroke-linecap:butt;stroke-linejoin:miter;stroke-miterlimit:10;stroke-dasharray:none;stroke-opacity:1"
         id="path36" /><path
         d="m 28165.4,3895.86 c 0,-230.45 159.5,-386.46 439.6,-386.46 280.1,0 432.5,152.46 432.5,382.91 0,241.1 -163,397.1 -432.5,397.1 -269.5,0 -439.6,-156 -439.6,-393.55 z m 102.8,-1081.38 c -81.6,-46.1 -166.7,-138.27 -166.7,-262.37 0,-226.9 283.7,-294.27 514.1,-294.27 227,0 517.7,63.82 517.7,297.82 0,152.46 -120.6,223.37 -375.8,226.92 -223.4,0 -319.1,0 -489.3,31.9 z m 1173.5,1460.75 -276.5,-46.08 c 92.2,-78.01 152.4,-184.38 152.4,-351.02 0,-329.72 -241,-588.55 -702,-588.55 -131.1,0 -301.3,21.26 -407.7,78 -35.4,-17.73 -106.4,-74.46 -106.4,-163.08 0,-198.56 361.7,-198.56 578,-198.56 475.1,0 730.3,-102.82 730.3,-446.74 0,-446.73 -464.4,-524.72 -787.1,-524.72 -351,0 -797.7,106.35 -797.7,503.46 0,163.08 74.5,269.45 219.8,365.18 -124.1,81.54 -170.2,177.28 -170.2,283.65 0,156 99.3,244.62 170.2,297.81 -117,102.83 -159.5,273.01 -159.5,418.36 0,375.84 287.2,613.38 712.6,613.38 74.5,0 159.6,-14.18 226.9,-35.46 h 616.9 v -205.63"
         style="fill:#851542;fill-opacity:1;fill-rule:nonzero;stroke:none"
         id="path38" /><path
         d="m 28165.4,3895.86 c 0,-230.45 159.5,-386.46 439.6,-386.46 280.1,0 432.5,152.46 432.5,382.91 0,241.1 -163,397.1 -432.5,397.1 -269.5,0 -439.6,-156 -439.6,-393.55 z m 102.8,-1081.38 c -81.6,-46.1 -166.7,-138.27 -166.7,-262.37 0,-226.9 283.7,-294.27 514.1,-294.27 227,0 517.7,63.82 517.7,297.82 0,152.46 -120.6,223.37 -375.8,226.92 -223.4,0 -319.1,0 -489.3,31.9 z m 1173.5,1460.75 -276.5,-46.08 c 92.2,-78.01 152.4,-184.38 152.4,-351.02 0,-329.72 -241,-588.55 -702,-588.55 -131.1,0 -301.3,21.26 -407.7,78 -35.4,-17.73 -106.4,-74.46 -106.4,-163.08 0,-198.56 361.7,-198.56 578,-198.56 475.1,0 730.3,-102.82 730.3,-446.74 0,-446.73 -464.4,-524.72 -787.1,-524.72 -351,0 -797.7,106.35 -797.7,503.46 0,163.08 74.5,269.45 219.8,365.18 -124.1,81.54 -170.2,177.28 -170.2,283.65 0,156 99.3,244.62 170.2,297.81 -117,102.83 -159.5,273.01 -159.5,418.36 0,375.84 287.2,613.38 712.6,613.38 74.5,0 159.6,-14.18 226.9,-35.46 h 616.9 z"
         style="fill:none;stroke:#851542;stroke-width:8;stroke-linecap:butt;stroke-linejoin:miter;stroke-miterlimit:10;stroke-dasharray:none;stroke-opacity:1"
         id="path40" /><path
         d="M 30010,5232.51 V 4200.77 c 63.9,109.91 255.3,315.55 609.9,315.55 411.3,0 698.4,-255.27 698.4,-787.1 V 2637.21 h -294.2 v 1084.92 c 0,319.11 -173.8,514.1 -468,514.1 -372.3,0 -546.1,-312.01 -546.1,-574.37 V 2637.21 h -294.2 v 2595.3 h 294.2"
         style="fill:#851542;fill-opacity:1;fill-rule:nonzero;stroke:none"
         id="path42" /><path
         d="M 30010,5232.51 V 4200.77 c 63.9,109.91 255.3,315.55 609.9,315.55 411.3,0 698.4,-255.27 698.4,-787.1 V 2637.21 h -294.2 v 1084.92 c 0,319.11 -173.8,514.1 -468,514.1 -372.3,0 -546.1,-312.01 -546.1,-574.37 V 2637.21 h -294.2 v 2595.3 z"
         style="fill:none;stroke:#851542;stroke-width:8;stroke-linecap:butt;stroke-linejoin:miter;stroke-miterlimit:10;stroke-dasharray:none;stroke-opacity:1"
         id="path44" /><path
         d="m 32002.6,5012.7 v -531.84 h 460.9 V 4257.5 h -460.9 V 3229.31 c 0,-209.19 67.4,-343.91 273,-343.91 70.9,0 148.9,10.63 234,24.81 l 46.1,-209.19 c -88.6,-35.45 -216.3,-63.81 -326.2,-63.81 -393.5,0 -517.6,212.73 -517.6,616.92 V 4257.5 h -269.5 v 180.83 l 269.5,39 46.1,535.37 h 244.6"
         style="fill:#851542;fill-opacity:1;fill-rule:nonzero;stroke:none"
         id="path46" /><path
         d="m 32002.6,5012.7 v -531.84 h 460.9 V 4257.5 h -460.9 V 3229.31 c 0,-209.19 67.4,-343.91 273,-343.91 70.9,0 148.9,10.63 234,24.81 l 46.1,-209.19 c -88.6,-35.45 -216.3,-63.81 -326.2,-63.81 -393.5,0 -517.6,212.73 -517.6,616.92 V 4257.5 h -269.5 v 180.83 l 269.5,39 46.1,535.37 z"
         style="fill:none;stroke:#851542;stroke-width:8;stroke-linecap:butt;stroke-linejoin:miter;stroke-miterlimit:10;stroke-dasharray:none;stroke-opacity:1"
         id="path48" /><path
         d="m 32707.5,2757.75 78,226.91 c 85.1,-39 326.2,-134.72 574.3,-134.72 297.9,0 436.1,113.45 436.1,276.55 0,432.55 -1074.2,195 -1074.2,865.1 0,315.55 248.1,524.73 663,524.73 258.8,0 499.9,-77.99 609.8,-131.17 l -85.1,-230.47 c 0,0 -251.7,113.47 -507,113.47 -251.7,0 -407.7,-102.84 -407.7,-269.47 0,-425.47 1077.8,-198.55 1077.8,-868.65 0,-326.19 -269.5,-528.28 -702,-528.28 -329.8,0 -570.8,113.46 -663,156"
         style="fill:#851542;fill-opacity:1;fill-rule:nonzero;stroke:none"
         id="path50" /><path
         d="m 32707.5,2757.75 78,226.91 c 85.1,-39 326.2,-134.72 574.3,-134.72 297.9,0 436.1,113.45 436.1,276.55 0,432.55 -1074.2,195 -1074.2,865.1 0,315.55 248.1,524.73 663,524.73 258.8,0 499.9,-77.99 609.8,-131.17 l -85.1,-230.47 c 0,0 -251.7,113.47 -507,113.47 -251.7,0 -407.7,-102.84 -407.7,-269.47 0,-425.47 1077.8,-198.55 1077.8,-868.65 0,-326.19 -269.5,-528.28 -702,-528.28 -329.8,0 -570.8,113.46 -663,156 z"
         style="fill:none;stroke:#851542;stroke-width:8;stroke-linecap:butt;stroke-linejoin:miter;stroke-miterlimit:10;stroke-dasharray:none;stroke-opacity:1"
         id="path52" /><path
         d="M 23262.7,5296.61 V 2633.73 h -319.5 v 2662.88 h 319.5"
         style="fill:#851542;fill-opacity:1;fill-rule:nonzero;stroke:none"
         id="path54" /><path
         d="m 1702.81,3128.18 h 302.52 c 190.28,0 342.51,30.45 502.35,117.99 243.57,137 324.13,445.27 324.13,715.48 0,296.84 -91.97,567.05 -324.13,707.87 -163.63,98.94 -372.96,117.96 -502.35,117.96 H 1702.81 Z M 1170,2625.83 v 2664.02 h 957.75 c 270.22,0 479.52,-76.12 635.56,-167.46 433.86,-254.98 597.5,-704.06 601.31,-1164.55 0,-460.49 -178.87,-924.79 -601.31,-1164.56 -167.45,-95.14 -395.8,-167.45 -635.56,-167.45 H 1170"
         style="fill:#851542;fill-opacity:1;fill-rule:nonzero;stroke:none"
         id="path56" /><path
         d="m 4366.65,3500.22 c -171.26,0 -433.85,-6.4 -433.85,-238.54 0,-175.06 134.5,-264.62 305.75,-264.62 197.9,0 426.25,177.94 426.25,368.58 v 134.58 z m 24.15,1150.55 c 490.92,0 768.75,-228.35 768.75,-658.39 v -811.27 c 0,-63.16 41.39,-110.87 98.47,-110.87 h 161.94 v -415.11 c 0,0 -176.69,-21.4 -317.51,-21.4 -125.58,0 -334.9,75.68 -334.9,292.6 v -0.78 c -110.37,-194.09 -342.51,-329.88 -616.53,-329.88 -361.55,0 -715.49,224.54 -715.49,643.18 0,426.23 365.37,631.74 818.26,631.74 h 411.01 v 30.45 c 0,289.24 -197.9,327.29 -357.74,327.29 -171.26,0 -439.14,-57.3 -587.58,-91.57 l -105.07,384.62 c 178.87,60.89 509.98,129.39 776.39,129.39"
         style="fill:#851542;fill-opacity:1;fill-rule:nonzero;stroke:none"
         id="path58" /><path
         d="M 6105.21,5420.72 V 3181.11 c 0,-61.5 34.69,-110.87 89.53,-110.87 h 163.27 v -415.11 c 0,0 -218.73,-21.4 -378.56,-21.4 -262.59,0 -392,171.25 -392,403.41 v 2383.58 h 517.76"
         style="fill:#851542;fill-opacity:1;fill-rule:nonzero;stroke:none"
         id="path60" /><path
         d="m 7026.07,3624.41 c 0,-312.07 201.71,-570.86 525.19,-570.86 293.05,0 513.78,213.12 513.78,574.67 0,353.93 -213.12,567.07 -509.97,567.07 -327.29,0 -529,-258.81 -529,-570.88 z m 57.1,1796.31 v -1004.7 c 125.58,163.63 334.89,235.95 589.88,235.95 548.03,0 909.58,-487.14 909.58,-1023.75 0,-544.21 -369.17,-1031.35 -940.03,-1031.35 -232.14,0 -460.49,97.65 -597.5,306.97 l -82.42,-270.11 h -390.69 v 2786.99 h 511.18"
         style="fill:#851542;fill-opacity:1;fill-rule:nonzero;stroke:none"
         id="path62" /><path
         d="m 10120.1,3788.07 c -11.4,216.92 -112.9,424.95 -402.11,424.95 -247.38,0 -426.25,-158.55 -475.73,-424.95 z m -414.84,863.9 c 612.74,0 909.54,-475.73 909.54,-1000.92 0,-133.19 -19,-228.34 -19,-228.34 H 9249.88 c 22.83,-281.63 284.13,-388.18 520.1,-388.18 224.52,0 416.72,60.89 546.12,117.98 l 175.1,-384.39 c -197.9,-114.17 -466.2,-171.25 -732.65,-171.25 -597.5,0 -1035.16,403.41 -1035.16,1008.52 0,608.92 395.8,1046.58 981.87,1046.58"
         style="fill:#851542;fill-opacity:1;fill-rule:nonzero;stroke:none"
         id="path64" /><path
         d="m 11209.5,4594.87 65.2,-296.79 c 121.8,251.16 377.9,331 680.7,331 v -504.86 c -213.5,0 -680.7,-3.52 -680.7,-606.36 v -884.13 h -478.4 v 1961.14 h 413.2"
         style="fill:#851542;fill-opacity:1;fill-rule:nonzero;stroke:none"
         id="path66" /><path
         d="m 12330.8,2453.4 -131.1,-436.65 h 1488.7 v -497.47 h 424.4 v 497.47 418.92 17.73 h -1782"
         style="fill:#851542;fill-opacity:1;fill-rule:nonzero;stroke:none"
         id="path68" /><path
         d="m 6571.99,2633.73 v 2786.99 h 511.18 v -1004.7"
         style="fill:#851542;fill-opacity:1;fill-rule:nonzero;stroke:none"
         id="path70" /><path
         d="m 13004.6,3053.55 c -300.7,0 -506.2,243.57 -506.2,570.86 0,338.72 205.5,570.88 506.2,570.88 293,0 506.2,-232.16 506.2,-570.88 0,-327.29 -217,-570.86 -506.2,-570.86 z m 1214.1,1575.53 c -234.6,0 -440.8,-48.3 -578.6,-186.58 -172.4,133.9 -392.2,209.47 -635.5,209.47 -574.7,0 -1013.6,-418.63 -1013.6,-1027.56 0,-608.91 442.7,-1027.54 1013.6,-1027.54 567,0 1013.6,418.63 1013.6,1027.54 0,173.5 -35.5,331.08 -99.4,467.92 109.1,31.34 220.7,31.9 299.9,31.9 v 504.85"
         style="fill:#851542;fill-opacity:1;fill-rule:nonzero;stroke:none"
         id="path72" /></g></g></svg>
