<?xml version="1.0" encoding="UTF-8"?>
<svg width="457px" height="149px" viewBox="0 0 457 149" version="1.1" xmlns="http://www.w3.org/2000/svg" xmlns:xlink="http://www.w3.org/1999/xlink">
    <title>Group</title>
    <defs>
        <polygon id="path-1" points="-1.99840144e-15 2.22044605e-16 -1.99840144e-15 66.964 74.084 66.964 74.084 2.22044605e-16"></polygon>
        <polygon id="path-3" points="-1.99840144e-15 2.22044605e-16 -1.99840144e-15 66.964 74.084 66.964 74.084 2.22044605e-16"></polygon>
    </defs>
    <g id="Page-1" stroke="none" stroke-width="1" fill="none" fill-rule="evenodd">
        <g id="Group" transform="translate(0.923731, 0.052000)">
            <polyline id="Fill-1" fill="#000106" fill-rule="nonzero" points="122.124269 37.612 139.144269 37.612 139.144269 42.324 127.024269 42.324 127.024269 49.128 138.724269 49.128 138.724269 53.84 127.024269 53.84 127.024269 65.204 122.124269 65.204 122.124269 37.612"></polyline>
            <path d="M147.760269,42.324 L147.760269,52.248 L150.860269,52.248 C153.708269,52.248 155.548269,51.768 156.680269,50.928 C157.812269,50.092 158.208269,48.896 158.208269,47.412 C158.208269,45.904 157.812269,44.648 156.680269,43.748 C155.548269,42.848 153.708269,42.324 150.860269,42.324 L147.760269,42.324 L147.760269,42.324 Z M142.860269,65.204 L142.860269,37.612 L150.776269,37.612 C152.596269,37.612 154.564269,37.844 156.408269,38.432 C158.248269,39.016 159.904269,39.98 161.140269,41.464 C162.372269,42.952 163.128269,44.9 163.128269,47.556 C163.128269,49.484 162.648269,51.052 161.808269,52.332 C160.972269,53.608 159.800269,54.612 158.396269,55.344 C158.960269,56.604 160.072269,58.068 161.348269,59.324 C162.624269,60.6 164.088269,61.688 165.344269,62.128 L165.344269,62.36 L163.168269,65.624 C161.808269,65.624 160.408269,65.02 159.108269,64.076 C157.812269,63.156 156.616269,61.896 155.656269,60.58 C154.692269,59.26 153.956269,57.9 153.560269,56.788 C152.660269,56.936 151.716269,56.956 150.776269,56.956 L147.760269,56.956 L147.760269,65.204 L142.860269,65.204 L142.860269,65.204 Z" id="Fill-2" fill="#000106" fill-rule="nonzero"></path>
            <polygon id="Fill-3" fill="#000106" fill-rule="nonzero" points="168.448269 65.204 173.348269 65.204 173.348269 37.612 168.448269 37.612"></polygon>
            <g id="Group-7" transform="translate(121.316269, 37.192000)">
                <g id="Fill-4-Clipped">
                    <mask id="mask-2" fill="white">
                        <use xlink:href="#path-1"></use>
                    </mask>
                    <g id="path-1"></g>
                    <path d="M70.9,5.068 C69.624,4.796 67.72,4.608 65.876,4.608 C64.264,4.608 62.924,4.752 62.024,5.152 C61.124,5.552 60.62,6.16 60.62,7.14 C60.62,8.148 61.228,8.984 62.148,9.696 C63.072,10.408 64.304,11.036 65.52,11.536 C66.128,11.812 66.712,12.04 67.28,12.268 C68.432,12.712 69.54,13.168 70.816,14.072 C72.092,14.992 73.08,16.184 73.664,17.652 C73.936,18.384 74.084,19.2 74.084,20.08 C74.084,22.908 72.492,24.98 70.232,26.36 C67.968,27.744 65.016,28.432 62.316,28.432 C60.16,28.432 58.004,28.036 56.164,27.22 L56.164,22.612 L56.224,22.592 C57,22.908 58.048,23.2 59.176,23.428 C60.308,23.68 61.544,23.828 62.736,23.828 C64.64,23.828 66.212,23.428 67.32,22.8 C68.408,22.172 69.036,21.292 69.036,20.268 C69.036,19.264 68.432,18.404 67.528,17.692 C66.608,16.98 65.416,16.396 64.2,15.892 C63.592,15.64 62.988,15.412 62.4,15.18 C61.228,14.74 60.16,14.28 58.904,13.4 C57.648,12.52 56.624,11.372 56.036,9.864 C55.724,9.108 55.576,8.272 55.576,7.352 C55.576,4.692 56.936,2.848 58.904,1.676 C60.872,0.504 63.468,2.22044605e-16 66.004,2.22044605e-16 C67.78,2.22044605e-16 69.456,0.252 70.964,0.652 L70.9,5.068" id="Fill-4" fill="#000106" fill-rule="nonzero" mask="url(#mask-2)"></path>
                </g>
                <g id="Fill-6-Clipped">
                    <mask id="mask-4" fill="white">
                        <use xlink:href="#path-3"></use>
                    </mask>
                    <g id="path-1"></g>
                    <path d="M2.984,52.476 C2.984,55.72 3.864,58.568 5.516,60.62 C7.172,62.672 9.62,63.948 12.72,63.948 C15.736,63.948 18.1,62.776 19.692,60.832 C21.28,58.884 22.14,56.14 22.14,52.98 C22.14,49.736 21.304,46.864 19.692,44.816 C18.08,42.76 15.712,41.548 12.616,41.548 C9.6,41.548 7.192,42.72 5.54,44.668 C3.864,46.616 2.984,49.356 2.984,52.476 L2.984,52.476 Z M-0.24,52.728 C-0.24,48.708 1.08,45.168 3.36,42.616 C5.644,40.064 8.868,38.532 12.7,38.532 C16.528,38.532 19.692,40.064 21.912,42.616 C24.128,45.168 25.364,48.708 25.364,52.728 C25.364,56.748 24.044,60.284 21.784,62.84 C19.524,65.392 16.3,66.964 12.468,66.964 C8.636,66.964 5.476,65.416 3.26,62.86 C1.036,60.308 -0.24,56.748 -0.24,52.728 L-0.24,52.728 Z" id="Fill-6" fill="#000106" fill-rule="nonzero" mask="url(#mask-4)"></path>
                </g>
            </g>
            <path d="M151.664269,82.008 L153.840269,82.008 L154.448269,84.016 C155.348269,83.432 156.436269,82.824 157.588269,82.36 C158.740269,81.9 159.932269,81.588 160.960269,81.588 C163.032269,81.588 164.936269,82.112 166.360269,83.408 C167.764269,84.708 168.644269,86.76 168.644269,89.836 L168.644269,103.736 L165.396269,103.736 L165.396269,90.024 C165.396269,87.932 164.852269,86.572 164.016269,85.732 C163.160269,84.896 161.964269,84.58 160.644269,84.58 C159.640269,84.58 158.616269,84.856 157.632269,85.252 C156.648269,85.648 155.744269,86.172 154.908269,86.676 L154.908269,103.736 L151.664269,103.736 L151.664269,82.008" id="Fill-8" fill="#000106" fill-rule="nonzero"></path>
            <path d="M188.392269,85.42 C186.924269,84.856 185.500269,84.56 184.144269,84.56 C181.964269,84.56 180.100269,85.252 178.784269,86.632 C177.444269,88.016 176.668269,90.088 176.668269,92.832 C176.668269,95.008 177.148269,97.08 178.216269,98.608 C179.284269,100.136 180.916269,101.14 183.244269,101.14 C185.416269,101.14 187.240269,100.388 188.392269,98.776 L188.392269,85.42 L188.392269,85.42 Z M191.636269,103.76 L189.584269,103.76 L188.916269,101.832 C187.260269,103.256 185.316269,104.156 182.804269,104.156 C179.956269,104.156 177.608269,102.836 175.976269,100.724 C174.344269,98.628 173.424269,95.74 173.424269,92.556 C173.424269,89.48 174.304269,86.76 176.104269,84.772 C177.904269,82.78 180.624269,81.588 184.372269,81.588 C185.796269,81.588 187.116269,81.776 188.392269,82.028 L188.392269,73.844 L191.428269,73.424 L191.636269,73.424 L191.636269,103.76 L191.636269,103.76 Z" id="Fill-9" fill="#000106" fill-rule="nonzero"></path>
            <path d="M210.216269,90.756 C210.172269,87.364 209.292269,84.604 205.900269,84.604 C202.492269,84.604 200.520269,87.28 199.996269,90.756 L210.216269,90.756 L210.216269,90.756 Z M213.396269,93.688 L199.852269,93.688 C200.144269,98.232 202.888269,101.14 207.032269,101.14 C208.980269,101.14 210.904269,100.596 212.896269,99.592 L212.956269,99.612 L212.956269,102.608 C210.696269,103.716 208.728269,104.156 206.720269,104.156 C200.416269,104.156 196.628269,99.696 196.628269,92.6 C196.628269,86.296 199.560269,81.588 205.964269,81.588 C211.532269,81.588 213.396269,85.756 213.396269,90.756 L213.396269,93.688 L213.396269,93.688 Z" id="Fill-10" fill="#000106" fill-rule="nonzero"></path>
            <path d="M218.288269,82.008 L220.464269,82.008 L221.220269,84.476 C222.828269,82.612 224.548269,81.588 226.556269,81.588 C227.080269,81.588 227.728269,81.652 228.376269,81.776 C229.028269,81.9 229.656269,82.112 230.160269,82.34 L229.028269,85.252 C228.212269,84.856 226.932269,84.58 226.032269,84.58 C224.128269,84.58 222.644269,85.796 221.532269,87.492 L221.532269,103.736 L218.288269,103.736 L218.288269,82.008" id="Fill-11" fill="#000106" fill-rule="nonzero"></path>
            <polyline id="Fill-12" fill="#000106" fill-rule="nonzero" points="232.020269 103.632 243.448269 85.02 232.352269 85.02 232.352269 82.008 248.892269 82.008 248.996269 82.132 237.568269 100.724 248.932269 100.724 248.932269 103.736 232.124269 103.736 232.020269 103.632"></polyline>
            <path d="M254.016269,92.768 C254.016269,95.028 254.580269,97.144 255.732269,98.648 C256.884269,100.18 258.580269,101.14 260.840269,101.14 C263.016269,101.14 264.672269,100.264 265.780269,98.816 C266.892269,97.372 267.456269,95.32 267.456269,92.996 C267.456269,90.716 266.892269,88.6 265.780269,87.072 C264.672269,85.544 262.996269,84.604 260.736269,84.604 C258.560269,84.604 256.884269,85.48 255.752269,86.948 C254.624269,88.412 254.016269,90.484 254.016269,92.768 L254.016269,92.768 Z M250.772269,92.936 C250.772269,89.776 251.816269,86.948 253.596269,84.896 C255.356269,82.844 257.868269,81.588 260.820269,81.588 C263.772269,81.588 266.284269,82.864 268.000269,84.896 C269.716269,86.928 270.700269,89.732 270.700269,92.832 C270.700269,95.992 269.676269,98.796 267.916269,100.848 C266.136269,102.9 263.604269,104.156 260.652269,104.156 C257.660269,104.156 255.208269,102.88 253.492269,100.848 C251.776269,98.84 250.772269,96.032 250.772269,92.936 L250.772269,92.936 Z" id="Fill-13" fill="#000106" fill-rule="nonzero"></path>
            <path d="M287.604269,90.756 C287.564269,87.364 286.680269,84.604 283.292269,84.604 C279.880269,84.604 277.908269,87.28 277.388269,90.756 L287.604269,90.756 L287.604269,90.756 Z M290.784269,93.688 L277.240269,93.688 C277.532269,98.232 280.276269,101.14 284.420269,101.14 C286.368269,101.14 288.296269,100.596 290.284269,99.592 L290.344269,99.612 L290.344269,102.608 C288.084269,103.716 286.116269,104.156 284.108269,104.156 C277.808269,104.156 274.016269,99.696 274.016269,92.6 C274.016269,86.296 276.948269,81.588 283.352269,81.588 C288.920269,81.588 290.784269,85.756 290.784269,90.756 L290.784269,93.688 L290.784269,93.688 Z" id="Fill-14" fill="#000106" fill-rule="nonzero"></path>
            <path d="M310.792269,104.156 C309.704269,104.092 308.424269,103.404 307.148269,102.396 C305.872269,101.412 304.532269,100.072 303.360269,98.712 C302.164269,97.372 301.076269,95.992 300.304269,94.88 C299.904269,94.336 299.588269,93.876 299.360269,93.48 C299.108269,93.08 298.964269,92.832 298.920269,92.704 L298.920269,103.736 L295.676269,103.736 L295.676269,73.988 L298.712269,73.424 L298.920269,73.424 L298.920269,92.308 L307.548269,82.008 L311.692269,82.008 L302.856269,92.516 C302.960269,92.996 303.652269,94.004 304.656269,95.176 C305.660269,96.368 306.960269,97.728 308.300269,98.88 C309.640269,100.032 311.020269,100.952 312.132269,101.288 L310.792269,104.156" id="Fill-15" fill="#000106" fill-rule="nonzero"></path>
            <path d="M314.384269,100.136 L314.508269,100.032 C315.892269,100.576 317.944269,101.12 319.512269,101.12 C321.796269,101.12 324.976269,100.072 324.976269,97.604 C324.976269,96.452 324.328269,95.696 323.344269,95.092 C322.048269,94.276 319.784269,93.624 317.796269,92.556 C315.512269,91.344 314.468269,89.584 314.468269,87.304 C314.468269,83.156 317.900269,81.588 321.856269,81.588 C323.448269,81.588 324.996269,81.84 326.276269,82.192 L326.276269,85.124 L326.148269,85.188 C324.996269,84.872 322.864269,84.496 321.356269,84.496 C319.448269,84.496 317.668269,85.064 317.668269,87.028 C317.668269,88.224 318.360269,89.04 319.368269,89.668 C320.728269,90.568 323.324269,91.324 325.416269,92.388 C327.636269,93.54 328.224269,94.86 328.224269,97.184 C328.224269,99.528 327.072269,101.288 325.396269,102.44 C323.700269,103.592 321.480269,104.156 319.324269,104.156 C317.484269,104.156 315.808269,103.776 314.384269,103.172 L314.384269,100.136" id="Fill-16" fill="#000106" fill-rule="nonzero"></path>
            <path d="M336.464269,100.348 C337.888269,100.932 339.292269,101.184 340.716269,101.184 C342.892269,101.184 344.756269,100.364 346.096269,98.86 C347.412269,97.372 348.188269,95.196 348.188269,92.452 C348.188269,90.296 347.708269,88.352 346.640269,86.928 C345.572269,85.504 343.940269,84.604 341.616269,84.604 C339.436269,84.604 337.576269,85.356 336.464269,86.948 L336.464269,100.348 L336.464269,100.348 Z M333.220269,82.008 L335.400269,82.008 L335.984269,83.892 C337.640269,82.468 339.564269,81.588 342.056269,81.588 C344.904269,81.588 347.248269,82.78 348.880269,84.772 C350.512269,86.78 351.432269,89.564 351.432269,92.724 C351.432269,95.804 350.576269,98.648 348.776269,100.744 C346.976269,102.836 344.232269,104.156 340.484269,104.156 C339.064269,104.156 337.724269,103.988 336.464269,103.716 L336.464269,113.324 L333.220269,113.324 L333.220269,82.008 L333.220269,82.008 Z" id="Fill-17" fill="#000106" fill-rule="nonzero"></path>
            <path d="M357.996269,92.768 C357.996269,95.028 358.560269,97.144 359.712269,98.648 C360.864269,100.18 362.560269,101.14 364.820269,101.14 C366.996269,101.14 368.652269,100.264 369.760269,98.816 C370.872269,97.372 371.436269,95.32 371.436269,92.996 C371.436269,90.716 370.872269,88.6 369.760269,87.072 C368.652269,85.544 366.976269,84.604 364.716269,84.604 C362.540269,84.604 360.864269,85.48 359.736269,86.948 C358.604269,88.412 357.996269,90.484 357.996269,92.768 L357.996269,92.768 Z M354.752269,92.936 C354.752269,89.776 355.796269,86.948 357.580269,84.896 C359.336269,82.844 361.848269,81.588 364.800269,81.588 C367.752269,81.588 370.264269,82.864 371.980269,84.896 C373.696269,86.928 374.680269,89.732 374.680269,92.832 C374.680269,95.992 373.656269,98.796 371.896269,100.848 C370.116269,102.9 367.584269,104.156 364.632269,104.156 C361.640269,104.156 359.188269,102.88 357.472269,100.848 C355.756269,98.84 354.752269,96.032 354.752269,92.936 L354.752269,92.936 Z" id="Fill-18" fill="#000106" fill-rule="nonzero"></path>
            <path d="M378.000269,82.008 L380.176269,82.008 L380.932269,84.476 C382.544269,82.612 384.260269,81.588 386.268269,81.588 C386.792269,81.588 387.440269,81.652 388.088269,81.776 C388.740269,81.9 389.368269,82.112 389.872269,82.34 L388.740269,85.252 C387.924269,84.856 386.648269,84.58 385.748269,84.58 C383.840269,84.58 382.352269,85.796 381.244269,87.492 L381.244269,103.736 L378.000269,103.736 L378.000269,82.008" id="Fill-19" fill="#000106" fill-rule="nonzero"></path>
            <path d="M391.208269,82.008 L393.616269,82.008 L393.616269,78.112 L396.652269,77.548 L396.860269,77.548 L396.860269,82.008 L402.892269,82.008 L402.892269,85.02 L396.860269,85.02 L396.860269,95.696 C396.860269,97.688 397.300269,99.028 397.992269,99.904 C398.680269,100.784 399.664269,101.164 400.776269,101.164 C402.032269,101.164 403.436269,100.68 404.856269,99.864 L405.736269,102.836 C403.896269,103.676 402.072269,104.156 400.380269,104.156 C398.472269,104.156 396.820269,103.568 395.584269,102.208 C394.348269,100.868 393.616269,98.732 393.616269,95.696 L393.616269,85.02 L391.208269,85.02 L391.208269,82.008" id="Fill-20" fill="#000106" fill-rule="nonzero"></path>
            <path d="M420.264269,94.172 C417.272269,94.148 414.904269,94.108 413.292269,94.504 C411.680269,94.924 410.800269,95.76 410.800269,97.456 C410.800269,99.78 412.624269,101.14 414.400269,101.14 C417.648269,101.14 420.264269,99.8 420.264269,95.928 L420.264269,94.172 L420.264269,94.172 Z M424.640269,104.156 C423.112269,103.652 422.044269,102.544 421.352269,101.12 C419.700269,103.028 417.352269,104.156 414.656269,104.156 C413.208269,104.156 411.452269,103.844 410.048269,102.836 C408.624269,101.832 407.600269,100.156 407.600269,97.456 C407.600269,92.872 410.696269,91.176 415.888269,91.176 C417.060269,91.176 418.336269,91.26 420.264269,91.428 L420.264269,88.728 C420.264269,85.756 418.860269,84.58 416.160269,84.58 C413.836269,84.58 411.828269,85.02 409.628269,86.132 L408.792269,83.304 C411.744269,82.112 413.416269,81.588 416.728269,81.588 C421.040269,81.588 423.488269,83.808 423.488269,88.728 L423.488269,95.636 C423.488269,98.208 423.888269,100.304 426.484269,101.12 L424.640269,104.156 L424.640269,104.156 Z" id="Fill-21" fill="#000106" fill-rule="nonzero"></path>
            <path d="M441.628269,94.172 C438.636269,94.148 436.268269,94.108 434.660269,94.504 C433.048269,94.924 432.164269,95.76 432.164269,97.456 C432.164269,99.78 433.988269,101.14 435.768269,101.14 C439.012269,101.14 441.628269,99.8 441.628269,95.928 L441.628269,94.172 L441.628269,94.172 Z M446.004269,104.156 C444.476269,103.652 443.408269,102.544 442.720269,101.12 C441.064269,103.028 438.720269,104.156 436.020269,104.156 C434.572269,104.156 432.816269,103.844 431.416269,102.836 C429.992269,101.832 428.964269,100.156 428.964269,97.456 C428.964269,92.872 432.064269,91.176 437.252269,91.176 C438.424269,91.176 439.704269,91.26 441.628269,91.428 L441.628269,88.728 C441.628269,85.756 440.228269,84.58 437.524269,84.58 C435.204269,84.58 433.192269,85.02 430.992269,86.132 L430.156269,83.304 C433.108269,82.112 434.784269,81.588 438.092269,81.588 C442.404269,81.588 444.852269,83.808 444.852269,88.728 L444.852269,95.636 C444.852269,98.208 445.252269,100.304 447.848269,101.12 L446.004269,104.156 L446.004269,104.156 Z" id="Fill-22" fill="#000106" fill-rule="nonzero"></path>
            <polyline id="Fill-23" fill="#000106" fill-rule="nonzero" points="455.016269 73.424 455.228269 73.424 455.228269 103.736 452.004269 103.736 452.004269 73.844 455.016269 73.424"></polyline>
            <polyline id="lijn" fill="#386A7C" fill-rule="nonzero" points="115.284269 148.584 64.8362685 0.252 65.5562685 0 116.004269 148.34 115.284269 148.584"></polyline>
            <g id="leeuw" transform="translate(0.000000, 20.136000)" fill="#000106" fill-rule="nonzero">
                <path d="M65.8562685,53.852 C62.2162685,51.08 60.5082685,53.868 58.2322685,53.68 C56.2842685,53.536 54.4722685,50.404 52.9762685,51.152 C50.1162685,52.604 54.1162685,57.752 55.8562685,58.804 C57.4122685,59.732 59.3602685,60.584 59.8322685,60.808 C62.1242685,61.88 63.0362685,63.508 63.3322685,66.048 C63.4082685,66.624 63.3322685,67.96 63.1842685,68.576 C62.1322685,73.032 54.3402685,77.072 49.8562685,74.012 C47.7442685,72.568 45.8282685,70.704 45.1522685,67.392 C43.9442685,61.548 39.7322685,57.244 38.3762685,51.516 C37.5442685,48.044 36.9482685,44.372 36.0362685,40.876 C35.1082685,37.244 34.1522685,33.668 33.4042685,30.376 C32.7122685,27.316 31.2562685,22.752 30.2122685,19.968 C25.9242685,8.8 23.9962685,9.612 23.9962685,9.612 C23.9962685,9.612 25.5522685,12.712 31.2162685,40.092 C31.4482685,41.216 33.5162685,53.268 35.0122685,57.24 C35.5522685,58.664 36.4882685,61.7 37.1042685,63.052 C38.9042685,66.964 43.6682685,72.92 43.9802685,78.272 C44.1602685,81.368 44.5202685,83.94 44.5922685,86.288 C44.6362685,86.964 44.9442685,89.764 45.3802685,91.012 C46.5522685,94.28 55.9322685,104.824 65.8842685,104.824 L65.8842685,96.836 C55.9842685,96.836 46.6602685,91.288 46.4322685,90.704 C46.2922685,90.44 46.9522685,86.66 47.6162685,84.984 C48.9282685,81.724 51.3682685,78.744 55.6602685,78.432 C60.4522685,78.084 63.3442685,79.484 65.8842685,79.484 L65.8562685,53.852" id="Fill-46"></path>
                <path d="M22.8882685,24.828 C22.5282685,30.828 13.2642685,39.012 10.3642685,44.264 C8.94026852,46.836 7.20026852,51.28 6.75226852,53.852 C5.52026852,60.98 7.08426852,65.416 8.82426852,69.608 C11.8882685,76.952 8.40826852,79.652 10.8082685,78.168 C13.7722685,75.748 13.3242685,70.1 13.1042685,66.58 C12.9322685,63.72 12.7442685,60.468 13.1762685,57.068 C13.9962685,50.704 17.8602685,43.868 21.1482685,39.076 C25.0522685,33.376 23.6362685,27.48 22.8882685,24.828" id="Fill-47"></path>
                <path d="M24.7642685,41.848 C24.7642685,41.848 25.7442685,46.592 21.5642685,58.772 C10.6202685,90.672 31.5242685,93.7 37.4682685,101.196 C37.4682685,101.196 39.7802685,97.948 30.2962685,87.552 C26.8362685,83.748 23.7122685,75.376 26.4362685,63.42 C30.3642685,46.1 24.7642685,41.848 24.7642685,41.848" id="Fill-48"></path>
                <path d="M4.06826852,20.932 C3.57226852,19.048 3.41626852,17.356 3.52426852,15.848 C4.02826852,8.364 10.8322685,5.328 12.5242685,4.208 C12.5242685,4.208 15.5922685,2.124 15.9842685,-2.3869795e-15 C15.9842685,-2.3869795e-15 19.1162685,7.88 11.9362685,12.404 C8.29626852,14.696 5.80426852,17.38 4.06826852,20.932" id="Fill-49"></path>
                <path d="M21.2282685,13.688 C21.6162685,14.448 24.4402685,18.576 12.8922685,28.108 C1.35626852,37.632 4.95226852,44.444 4.95226852,44.444 C4.95226852,44.444 -7.35173148,37.596 6.82826852,25.756 C21.0042685,13.948 18.0922685,11.552 18.0922685,11.552 C18.0922685,11.552 20.1242685,11.452 21.2282685,13.688" id="Fill-50"></path>
                <path d="M42.4482685,20.132 C42.6082685,19.692 42.8602685,20.048 43.3602685,19.724 C43.8962685,19.224 44.4522685,18.384 45.3282685,18.092 C45.9562685,17.912 46.8162685,18.008 47.4042685,18.236 C47.7922685,18.332 47.5642685,19.332 47.2682685,19.596 C46.6402685,20.048 44.8002685,19.296 44.8002685,20.676 C44.8722685,22.944 47.8642685,20.6 49.4202685,20.664 C50.1842685,26.196 41.0962685,24.684 42.4482685,20.132 L42.4482685,20.132 Z M36.2282685,17.336 C38.2242685,17.596 39.4922685,23.816 44.1082685,25.172 C47.5122685,26.164 51.1122685,25.632 51.9242685,27.668 C50.3562685,28.504 51.5842685,31.232 53.1482685,30.784 C54.4482685,27.148 55.0962685,13.088 36.2282685,17.336 L36.2282685,17.336 Z" id="Fill-51"></path>
            </g>
        </g>
    </g>
</svg>