<svg width="1149" height="376" viewBox="0 0 1149 376" xmlns="http://www.w3.org/2000/svg"><path d="M894.851 206.696C917.689 206.696 937.318 218.964 941.658 240.292L944.678 240.292 941.847 209.715 973.933 209.715 973.933 292.761C973.933 326.923 948.264 341.834 911.083 341.834 890.699 341.834 875.033 339.191 860.312 335.039L860.312 307.483C868.05 312.201 886.169 316.165 905.61 316.165 932.787 316.165 941.281 307.105 942.602 283.135L942.791 276.152C937.506 295.026 919.01 304.84 896.55 304.84 866.729 304.84 846.345 286.721 846.345 256.146 846.345 226.513 866.917 206.696 894.851 206.696ZM339.58 168.947C382.801 168.947 410.357 187.821 410.546 215.189L377.517 215.189C377.705 203.864 364.116 196.504 339.769 196.504 315.61 196.504 301.266 200.656 301.266 209.715 301.266 238.781 413.755 201.788 413.755 264.6393 413.755 292.9493 386.01 307.1053 339.014 307.1053 293.15 307.1053 264.839 287.8543 265.026129 260.6753L299.379 260.6753C299.19 272.1883 312.779 279.5493 338.636 279.5493 366.381 279.5493 381.103 275.3973 381.103 265.5823 381.103 234.441 268.425 275.0193 268.425 211.414 268.425 184.424 297.868 168.947 339.58 168.947ZM490.007 206.696C524.358 206.696 537.192 224.437 537.192 250.861L537.192 304.085 506.05 304.085 510.202 272.188 508.503 272.188C502.464 296.159 488.686 307.105 459.809 307.105 445.842 307.105 424.704 304.085 424.704 282.192 424.704 257.844 463.961 251.239 504.729 248.408 504.729 238.215 496.991 233.875 482.457 233.875 467.736 233.875 449.24 238.404 436.594 243.877L436.594 216.888C452.448 211.037 473.398 206.696 490.007 206.696ZM587.775 209.716 587.775 304.0858 555.311 304.0858 555.311 209.716 587.775 209.716ZM690.258 209.716 690.258 304.0858 657.795 304.0858 657.795 209.716 690.258 209.716ZM789.912 206.695C816.524 207.073 828.603 219.153 828.603 263.1283L828.603 304.0853 796.14 304.0853 796.14 266.3373C796.14 239.725 789.157 231.043 772.171 231.043 754.429 231.043 742.538 249.1623 742.538 275.2083L742.538 304.0853 710.075 304.0853 710.075 209.715 745.18 209.715 741.406 248.5963 742.916 248.5963C747.445 220.662 760.846 206.695 789.912 206.695ZM640.055 171.9678 640.055 304.0848 607.592 304.0848 607.592 171.9678 640.055 171.9678ZM504.54 262.563C503.2377 262.6536 501.925208 262.745557 500.608436 262.840625L499.290457 262.936794C499.070629 262.953016 498.850736 262.969342 498.630807 262.985778L497.31101 263.085787C477.733966 264.590905 458.299 267.1018 458.299 276.34 458.299 281.814 464.905 284.834 474.153 284.834 488.875 284.834 504.729 277.85 504.54 262.563ZM907.496 232.365C891.454 232.365 877.676 240.292 877.676 256.523 877.676 272.943 891.454 281.437 907.496 281.437 922.973 281.437 937.884 272.943 937.884 256.523 937.884 240.292 923.162 232.365 907.496 232.365ZM571.166 163.097C583.434 163.097 590.795 168.193 590.795 180.462 590.795 192.729 583.811 197.636 571.166 197.636 558.898 197.636 551.916 192.729 551.916 180.462 551.916 168.193 558.898 163.097 571.166 163.097ZM673.648 163.097C685.918 163.097 693.277 168.193 693.277 180.462 693.277 192.729 686.294 197.636 673.648 197.636 661.381 197.636 654.397 192.729 654.397 180.462 654.397 168.193 661.381 163.097 673.648 163.097ZM843.89 37.749C879.939 37.749 903.72 57.755 903.72 87.953 903.72 118.151 879.939 138.158 843.89 138.158 807.841 138.158 784.06 118.151 784.06 87.953 784.06 57.755 807.841 37.749 843.89 37.749ZM339.58 0C382.801 0 410.357 18.874 410.546 46.242L377.517 46.242C377.705 34.917 364.116 27.556 339.769 27.556 315.61 27.556 301.266 31.708 301.266 40.768 301.266 69.833 413.755 32.841 413.755 95.691 413.755 124.002 386.01 138.158 339.014 138.158 293.15 138.158 264.839 118.906 265.026129 91.728L299.379 91.728C299.19 103.241 312.779 110.601 338.636 110.601 366.381 110.601 381.103 106.45 381.103 96.635 381.103 65.493 268.425 106.072 268.425 42.466 268.425 15.477 297.868 0 339.58 0ZM712.904 37.749C748.953 37.749 772.734 57.755 772.734 87.953 772.734 118.151 748.953 138.158 712.904 138.158 676.854 138.158 653.074 118.151 653.074 87.953 653.074 57.755 676.854 37.749 712.904 37.749ZM956.943 14.345 956.943 40.769 979.969 40.769 979.969 64.361 956.943 64.361 956.943113 96.4180298C956.948662 111.143459 957.22612 115.132 971.099 115.132 973.552 115.132 976.572 114.943 979.969 114.754L979.969 133.251C971.099 135.893 962.983 137.025 952.791 137.025 928.255 137.025 924.48 128.154 924.48 101.165L924.48 64.361 912.401 64.361 912.401 40.769 927.123 40.769 927.123 18.12 956.943 14.345ZM598.53 37.748C625.142 38.125 637.221 50.205 637.221 94.181L637.221 135.137 604.758 135.137 604.758 97.39C604.758 70.588 597.775 62.095 580.788 62.095 563.046 62.095 551.156 80.214 551.156 106.26L551.156 135.137 518.693 135.137 518.693 97.39C518.693 70.588 511.71 62.095 494.723 62.095 476.982 62.095 465.091 80.214 465.091 106.26L465.091 135.137 432.628 135.137 432.628 40.768 467.733 40.768 463.959 79.648 465.468 79.648C469.998 51.715 483.399 37.748 512.464 37.748 535.679 38.125 547.381 47.373 550.023 79.648L551.534 79.648C556.063 51.715 569.463 37.748 598.53 37.748ZM1031.87 3.02 1028.1 79.648 1029.61 79.648C1034.14 51.715 1047.54 37.749 1076.6 37.749 1103.22 38.125 1115.3 50.205 1115.3 94.181L1115.3 135.137 1082.83 135.137 1082.83 97.39C1082.83 70.778 1075.85 62.095 1058.86 62.095 1041.12 62.095 1029.23 80.214 1029.23 106.26L1029.23 135.137 996.768 135.137 996.768 3.02 1031.87 3.02ZM712.904 63.417C695.351 63.417 683.649 73.231 683.649 87.953 683.649 102.675 695.351 112.489 712.904 112.489 730.457 112.489 742.159 102.675 742.159 87.953 742.159 73.231 730.457 63.417 712.904 63.417ZM843.89 63.417C826.337 63.417 814.635 73.231 814.635 87.953 814.635 102.675 826.337 112.489 843.89 112.489 861.443 112.489 873.145 102.675 873.145 87.953 873.145 73.231 861.443 63.417 843.89 63.417ZM117.075 270.98C117.075 206.329 64.651 153.905 0 153.905 64.651 153.905 117.075 101.498 117.075 36.83 117.075 101.498 169.499 153.905 234.15 153.905 169.499 153.905 117.075 206.329 117.075 270.98" transform="translate(15 19)" fill="#ECACBF"/></svg>