<?xml version="1.0" encoding="UTF-8" standalone="no"?>
<svg
   xmlns:dc="http://purl.org/dc/elements/1.1/"
   xmlns:cc="http://creativecommons.org/ns#"
   xmlns:rdf="http://www.w3.org/1999/02/22-rdf-syntax-ns#"
   xmlns:svg="http://www.w3.org/2000/svg"
   xmlns="http://www.w3.org/2000/svg"
   xmlns:sodipodi="http://sodipodi.sourceforge.net/DTD/sodipodi-0.dtd"
   xmlns:inkscape="http://www.inkscape.org/namespaces/inkscape"
   width="2000"
   height="2000"
   viewBox="0 0 529.16667 529.16667"
   version="1.1"
   id="svg8"
   inkscape:version="1.0.2 (e86c8708, 2021-01-15)"
   sodipodi:docname="circl-compact.svg">
  <defs
     id="defs2">
    <clipPath
       clipPathUnits="userSpaceOnUse"
       id="clipPath84">
      <path
         d="M 0,0.08001882 H 594.96 V 842.00002 H 0 Z"
         id="path82" />
    </clipPath>
    <clipPath
       clipPathUnits="userSpaceOnUse"
       id="clipPath122">
      <path
         d="M 238.7083,659.5404 H 356.5418 V 767.0738 H 238.7083 Z"
         id="path120" />
    </clipPath>
    <clipPath
       clipPathUnits="userSpaceOnUse"
       id="clipPath146">
      <path
         d="M 433.7447,464.5168 H 551.5782 V 572.0502 H 433.7447 Z"
         id="path144" />
    </clipPath>
    <clipPath
       clipPathUnits="userSpaceOnUse"
       id="clipPath170">
      <path
         d="m 43.98094,74.46956 h 117.8335 v 107.5334 H 43.98094 Z"
         id="path168" />
    </clipPath>
    <clipPath
       clipPathUnits="userSpaceOnUse"
       id="clipPath194">
      <path
         d="M 433.7008,660.0589 H 551.6221 V 766.5553 H 433.7008 Z"
         id="path192" />
    </clipPath>
    <clipPath
       clipPathUnits="userSpaceOnUse"
       id="clipPath218">
      <path
         d="m 43.93701,270.0117 h 117.9213 V 376.5081 H 43.93701 Z"
         id="path216" />
    </clipPath>
    <clipPath
       clipPathUnits="userSpaceOnUse"
       id="clipPath242">
      <path
         d="m 238.6643,74.98807 h 117.9213 v 106.4964 H 238.6643 Z"
         id="path240" />
    </clipPath>
    <clipPath
       clipPathUnits="userSpaceOnUse"
       id="clipPath266">
      <path
         d="m 32.0315,493.2718 h 141.7323 v 50.02323 H 32.0315 Z"
         id="path264" />
    </clipPath>
    <clipPath
       clipPathUnits="userSpaceOnUse"
       id="clipPath292">
      <path
         d="m 226.7588,298.2482 h 141.7323 v 50.02323 H 226.7588 Z"
         id="path290" />
    </clipPath>
    <clipPath
       clipPathUnits="userSpaceOnUse"
       id="clipPath318">
      <path
         d="m 421.7953,103.2246 h 141.7323 v 50.02323 H 421.7953 Z"
         id="path316" />
    </clipPath>
    <clipPath
       clipPathUnits="userSpaceOnUse"
       id="clipPath344">
      <path
         d="m 32.0315,688.2955 h 141.7323 v 50.02315 H 32.0315 Z"
         id="path342" />
    </clipPath>
    <clipPath
       clipPathUnits="userSpaceOnUse"
       id="clipPath368">
      <path
         d="m 226.7588,493.2719 h 141.7323 v 50.02315 H 226.7588 Z"
         id="path366" />
    </clipPath>
    <clipPath
       clipPathUnits="userSpaceOnUse"
       id="clipPath392">
      <path
         d="m 421.7953,298.2483 h 141.7323 v 50.02315 H 421.7953 Z"
         id="path390" />
    </clipPath>
    <clipPath
       clipPathUnits="userSpaceOnUse"
       id="clipEmfPath1">
      <path
         d="M 0,0 H 377.9172 V 343.91745 H 0 Z"
         id="path965" />
    </clipPath>
    <pattern
       id="EMFhbasepattern"
       patternUnits="userSpaceOnUse"
       width="6"
       height="6"
       x="0"
       y="0" />
  </defs>
  <sodipodi:namedview
     id="base"
     pagecolor="#ffffff"
     bordercolor="#666666"
     borderopacity="1.0"
     inkscape:pageopacity="0.0"
     inkscape:pageshadow="2"
     inkscape:zoom="0.14774111"
     inkscape:cx="782.28411"
     inkscape:cy="1317.8071"
     inkscape:document-units="mm"
     inkscape:current-layer="layer1"
     inkscape:document-rotation="0"
     showgrid="false"
     inkscape:window-width="1440"
     inkscape:window-height="769"
     inkscape:window-x="0"
     inkscape:window-y="25"
     inkscape:window-maximized="0"
     units="px" />
  <metadata
     id="metadata5">
    <rdf:RDF>
      <cc:Work
         rdf:about="">
        <dc:format>image/svg+xml</dc:format>
        <dc:type
           rdf:resource="http://purl.org/dc/dcmitype/StillImage" />
        <dc:title></dc:title>
      </cc:Work>
    </rdf:RDF>
  </metadata>
  <g
     inkscape:label="Layer 1"
     inkscape:groupmode="layer"
     id="layer1">
    <g
       id="g76"
       transform="matrix(0.26074878,0,0,-0.26074878,75.491434,203.65524)" />
    <rect
       style="fill:#005295;fill-opacity:1;stroke-width:7.43757;stroke-linecap:round;stroke-linejoin:round"
       id="rect945"
       width="529.16669"
       height="529.16669"
       x="0"
       y="0" />
    <g
       id="g1004"
       transform="matrix(1.4326181,0,0,1.4326181,-6.1213322,18.232153)">
      <path
         style="fill:#ffffff;fill-opacity:1;fill-rule:nonzero;stroke:none"
         clip-path="url(#clipEmfPath1)"
         d="M 177.11869,59.679558 V 148.0789 c 0,5.75996 -4.63997,10.31993 -10.31993,10.31993 v 0 c -5.75995,0 -10.31992,-4.55997 -10.31992,-10.31993 V 59.679558 Z"
         id="path971" />
      <path
         style="fill:#ffffff;fill-opacity:1;fill-rule:nonzero;stroke:none"
         clip-path="url(#clipEmfPath1)"
         d="m 232.87827,105.03922 c 0,0 -8.31993,0 -8.31993,-0.08 V 79.119414 c 0,-0.08 0,-0.08 0.08,-0.08 h 12.9599 c 8.55994,0 12.39991,5.519959 12.39991,12.719905 0,8.399941 -5.91996,13.279901 -17.11988,13.279901 z m 14.87989,13.9199 c 17.27988,-4.95996 22.95983,-17.43987 22.95983,-28.47979 0,-17.839868 -17.83986,-30.719773 -36.39973,-30.719773 h -30.39977 c 0,0 5.43996,0 0,0 V 148.0789 c 0,5.75996 4.63997,10.31993 10.31992,10.31993 5.67996,0 10.31993,-4.55997 10.31993,-10.31993 v -27.0398 h 0.87999 l 25.19981,33.11976 c 3.03998,4.07997 8.79994,5.51996 13.03991,2.71998 4.47996,-3.03998 5.43996,-9.03994 2.31998,-13.3599 0,0 -18.31986,-24.55982 -18.23987,-24.55982 z"
         id="path973" />
      <path
         style="fill:#ffffff;fill-opacity:1;fill-rule:nonzero;stroke:none"
         clip-path="url(#clipEmfPath1)"
         d="m 206.71847,265.51803 h -29.67978 v -80.1594 h -20.63985 v 88.39934 c 0,5.75996 4.63997,10.31993 10.31993,10.31993 h 39.9997 c 5.11996,0 9.27993,-4.15997 9.27993,-9.27994 0,-5.11996 -4.15997,-9.27993 -9.27993,-9.27993 z"
         id="path975" />
      <path
         style="fill:#ffffff;fill-opacity:1;fill-rule:nonzero;stroke:none"
         clip-path="url(#clipEmfPath1)"
         d="m 202.7985,197.51854 c 1.51999,0 2.55998,-0.64 2.55998,-1.83999 0,-1.43999 -1.19999,-1.83999 -2.87998,-1.83999 h -0.64 v 3.67998 z m 2.15998,1.99998 3.99997,4.87997 h -3.43997 l -3.43998,-4.55997 h -0.24 v 4.55997 h -2.79997 v -13.03991 h 3.83997 c 3.35997,0 5.35996,1.67999 5.35996,4.31997 0,1.91999 -1.51999,3.35998 -3.27998,3.83997 z m 8.23994,-1.51999 c 0,-5.43996 -4.31997,-9.83992 -9.83993,-9.83992 -5.51996,0 -9.83992,4.39996 -9.83992,9.83992 0,5.35996 4.31996,9.67993 9.83992,9.67993 5.51996,0 9.83993,-4.31997 9.83993,-9.67993 z m 2.79998,0 c 0,6.79995 -5.59996,12.47991 -12.63991,12.47991 -7.11994,0 -12.7199,-5.67996 -12.7199,-12.47991 0,-6.95995 5.59996,-12.6399 12.7199,-12.6399 7.03995,0 12.63991,5.67995 12.63991,12.6399 z"
         id="path977" />
      <path
         style="fill:#ffffff;fill-opacity:1;fill-rule:nonzero;stroke:none"
         clip-path="url(#clipEmfPath1)"
         d="m 112.55917,264.63804 c -18.239869,2.07998 -34.639747,-12.71991 -33.439756,-31.99976 0.799994,-12.23991 9.359931,-22.95983 21.119846,-26.47981 8.31994,-2.55998 16.55987,-1.35999 23.27983,2.39999 l 12.1599,-15.35989 c -10.63992,-6.87995 -24.07982,-9.67993 -37.759715,-6.55995 -22.239836,5.11996 -38.399716,25.43981 -38.239717,48.23964 0.159999,29.91978 26.239806,52.39961 55.119592,48.95964 5.91996,-0.64 11.43991,-2.39998 16.47988,-4.87997 4.79996,-2.39998 6.63995,-8.39993 3.75997,-13.4399 -2.71998,-4.63996 -8.07994,-5.91995 -13.2799,-3.51997 -2.79998,1.35999 -5.91996,2.23998 -9.19993,2.63998 z"
         id="path979" />
      <path
         style="fill:#ffffff;fill-opacity:1;fill-rule:nonzero;stroke:none"
         clip-path="url(#clipEmfPath1)"
         d="m 112.55917,138.95897 c -18.239869,2.07999 -34.639747,-12.71991 -33.439756,-31.99976 0.799994,-12.239912 9.359931,-22.959832 21.119846,-26.479806 8.31994,-2.559981 16.55987,-1.35999 23.27983,2.399982 L 135.67899,67.5195 C 125.03907,60.639551 111.59917,57.839572 97.919275,60.959548 75.679439,66.079511 59.519559,86.39936 59.679558,109.19919 c 0.159999,29.91978 26.239806,52.39961 55.119592,48.95964 5.91996,-0.64 11.43991,-2.39998 16.47988,-4.87997 4.79996,-2.39998 6.63995,-8.39993 3.75997,-13.4399 -2.71998,-4.63996 -8.07994,-5.91995 -13.2799,-3.51997 -2.79998,1.35999 -5.91996,2.23998 -9.19993,2.63998 z"
         id="path981" />
      <path
         style="fill:#ffffff;fill-opacity:1;fill-rule:nonzero;stroke:none"
         clip-path="url(#clipEmfPath1)"
         d="m 274.07797,255.9981 v 0 0 l -9.67993,9.75993 c -0.79999,0.8 -1.83998,1.19999 -2.95998,1.19999 -2.23998,0 -4.07997,-1.83998 -4.07997,-4.07997 0,-1.11999 0.4,-2.15998 1.19999,-2.95998 l 9.67993,-9.75992 v 0 0 l -11.27991,-11.35992 5.83995,-5.83996 11.35992,11.35992 5.11996,-5.11996 v -24.55982 l -5.11996,-5.11996 -16.47988,16.47988 -5.83996,-5.83996 22.31984,-22.31984 5.11996,5.11997 V 185.35863 H 229.6783 v 57.11957 4.15997 c 0,20.87985 19.91985,37.59972 44.23967,37.59972 1.83999,0 3.59997,-0.15999 5.35996,-0.31999 v -22.79983 z"
         id="path983" />
      <path
         style="fill:#11a9d8;fill-opacity:1;fill-rule:nonzero;stroke:none"
         clip-path="url(#clipEmfPath1)"
         d="m 281.43792,185.35863 h -2.15999 v 17.59987 l 17.11987,17.19987 -5.83995,5.83996 -11.27992,-11.35992 v 24.55982 l 6.15996,-6.23996 5.83995,5.83996 -11.35991,11.35992 9.75992,9.75992 c 0.8,0.72 1.2,1.75999 1.2,2.87998 0,2.31999 -1.83999,4.15997 -4.07997,4.15997 -1.12,0 -2.15999,-0.39999 -2.95998,-1.19999 l -4.55997,-4.63996 v 22.79983 c 0.72,-0.08 1.43999,-0.16 2.15999,-0.32 0.39999,0 0.71999,-0.08 1.11999,-0.08 20.23985,-3.35998 35.67973,-18.47986 35.67973,-36.87973 v -4.15997 -57.11957 z"
         id="path985" />
    </g>
  </g>
</svg>
