<?xml version="1.0" encoding="UTF-8"?>
<svg width="757px" height="332px" viewBox="0 0 757 332" version="1.1" xmlns="http://www.w3.org/2000/svg" xmlns:xlink="http://www.w3.org/1999/xlink">
    <title>boekentoren</title>
    <g id="Page-1" stroke="none" stroke-width="1" fill="none" fill-rule="evenodd">
        <g id="boekentoren" transform="translate(0.970000, 0.644000)" fill-rule="nonzero">
            <rect id="Rectangle" fill="#0064CC" x="446.44" y="57.228" width="8.624" height="55.981"></rect>
            <rect id="Rectangle" fill="#0064CC" x="429.2" y="57.228" width="8.623" height="55.981"></rect>
            <rect id="Rectangle" fill="#0064CC" x="411.95" y="57.228" width="8.624" height="55.981"></rect>
            <rect id="Rectangle" fill="#0064CC" x="394.7" y="57.228" width="8.624" height="55.981"></rect>
            <rect id="Rectangle" fill="#0064CC" x="463.69" y="57.228" width="8.623" height="55.981"></rect>
            <rect id="Rectangle" fill="#0064CC" x="480.94" y="57.228" width="8.624" height="55.981"></rect>
            <rect id="Rectangle" fill="#0064CC" x="498.18" y="57.228" width="8.624" height="55.981"></rect>
            <rect id="Rectangle" fill="#0064CC" x="385.87" y="121.833" width="129.764" height="8.63"></rect>
            <polygon id="Path" fill="#0064CC" points="506.81 48.604 394.7 48.604 386.08 39.981 515.43 39.981"></polygon>
            <rect id="Rectangle" fill="#0064CC" x="377.25" y="139.08" width="147.01" height="8.63"></rect>
            <polygon id="Path" fill="#0064CC" points="524.26 26.032 450.76 -3.55271368e-15 377.25 26.032 377.25 35.19 450.76 9.16 524.26 35.19"></polygon>
            <polygon id="Path" fill="#0064CC" points="448.62 215.508 430.04 215.508 430.04 243.181 421.41 243.181 421.41 182.207 430.04 182.207 430.04 208.193 448.62 208.193 448.62 182.207 457.25 182.207 457.25 243.181 448.62 243.181"></polygon>
            <path d="M637.6,274.503 C641.41,274.49 645,275.738 646.65,277.035 L646.65,269.263 C645,268.249 640.95,267.121 636.85,267.121 C625.4,267.121 619.1,273.631 619.1,283.073 C619.1,290.947 622.43,294.728 627.8,299.361 L632.71,303.602 C636.76,306.993 639.28,309.606 639.28,314.677 C639.28,320.607 635.36,322.956 629.48,322.956 C625.02,322.956 621.32,321.721 619.19,320.248 L619.19,328.157 C621.06,329.238 624.97,330.352 630.25,330.338131 C641.67,330.311 647.97,323.821 647.980022,314.387 C647.99,306.519 644.65,302.731 639.28,298.105 L634.37,293.857 C630.31,290.38 627.79,287.867 627.8,282.802 C627.82,276.846 631.71,274.517 637.6,274.503" id="Path" fill="#0064CC"></path>
            <path d="M584.61,275.563 L584.61,297.052 L589.21,297.052 C595.96,297.052 600.47,295.634 600.47,286.26 C600.47,276.968 595.96,275.563 589.21,275.563 L584.61,275.563 Z M575.98,268.242 L590.05,268.242 C601.31,268.242 609.37,272.47 609.37,286.26 C609.37,295.917 604.69,300.603 598.78,302.765 L611.72,329.223 L601.87,329.223 L590.42,304.359 L584.61,304.359 L584.61,329.223 L575.98,329.223 L575.98,268.242 Z" id="Shape" fill="#0064CC"></path>
            <path d="M377.25,310.835 L377.25,268.249 L385.88,268.249 L385.88,311.213 C385.88,320.222 388.98,322.842 395.26,322.842 C401.55,322.842 404.64,320.222 404.64,311.213 L404.64,268.249 L413.27,268.249 L413.27,310.835 C413.27,324.719 407.46,330.351 395.26,330.351 C382.88,330.351 377.25,324.909 377.25,310.835" id="Path" fill="#0064CC"></path>
            <path d="M424.43,268.249 L434.38,268.249 L453.61,316.839 C452.95,311.868 452.39,306.053 452.39,300.61 L452.39,268.249 L460.65,268.249 L460.65,329.224 L450.7,329.224 L431.28,280.446 C432.03,285.416 432.69,291.325 432.69,296.863 L432.69,329.224 L424.43,329.224 L424.43,268.249 Z" id="Path" fill="#0064CC"></path>
            <rect id="Rectangle" fill="#0064CC" x="472.86" y="268.249" width="8.631" height="60.974"></rect>
            <path d="M489.51,268.249 L498.52,268.249 L506.21,299.956 C507.34,304.744 508.74,312.807 509.59,319.188 C510.43,312.807 511.84,304.744 513.15,299.956 L520.75,268.249 L529.47,268.249 L514,329.224 L504.99,329.224 L489.51,268.249 Z" id="Path" fill="#0064CC"></path>
            <polygon id="Path" fill="#0064CC" points="537.49 268.249 566.01 268.249 566.01 275.57 546.12 275.57 546.12 294.235 562.16 294.235 562.16 301.455 546.12 301.455 546.12 321.91 566.01 321.91 566.01 329.224 537.49 329.224"></polygon>
            <rect id="Rectangle" fill="#0064CC" x="658.22" y="268.249" width="8.631" height="60.974"></rect>
            <path d="M375.38,212.698 C375.38,188.684 381.75,181.079 397.61,181.079 C402.11,181.079 406.89,182.302 408.96,183.524 L408.96,191.493 C406.71,190.183 402.39,188.772 398.26,188.772 C388.13,188.772 384.29,192.526 384.29,212.698 C384.29,232.674 387.01,236.8 395.83,236.8 C398.55,236.8 400.8,236.429 402.48,235.956 L402.48,215.601 L393.48,215.601 L393.48,208.288 L411.11,208.288 L411.11,241.21 C409.33,242.337 402.2,244.309 395.92,244.309 C379.41,244.309 375.38,235.679 375.38,212.698" id="Path" fill="#0064CC"></path>
            <polygon id="Path" fill="#0064CC" points="469.46 182.207 497.98 182.207 497.98 189.528 478.1 189.528 478.1 208.193 494.14 208.193 494.14 215.413 478.1 215.413 478.1 235.868 497.98 235.868 497.98 243.182 469.46 243.182"></polygon>
            <path d="M507.95,182.207 L517.9,182.207 L537.13,230.796 C536.47,225.826 535.91,220.011 535.91,214.568 L535.91,182.207 L544.16,182.207 L544.16,243.182 L534.22,243.182 L514.8,194.403 C515.55,199.374 516.21,205.283 516.21,210.82 L516.21,243.182 L507.95,243.182 L507.95,182.207 Z" id="Path" fill="#0064CC"></path>
            <polygon id="Path" fill="#0064CC" points="552.06 182.207 587.05 182.207 587.05 189.528 573.83 189.528 573.83 243.182 565.19 243.182 565.19 189.528 552.06 189.528"></polygon>
            <path d="M730.14,303.9 L713.44,268.249 L722.92,268.249 L730.14,284.666 C731.83,288.604 733.43,292.824 734.46,296.579 C735.58,292.824 737.27,288.604 738.96,284.666 L746.18,268.249 L755.38,268.249 L738.77,303.9 L738.77,329.224 L730.14,329.224 L730.14,303.9 Z" id="Path" fill="#0064CC"></path>
            <polygon id="Path" fill="#0064CC" points="675.05 268.249 710.04 268.249 710.04 275.57 696.81 275.57 696.81 329.224 688.18 329.224 688.18 275.57 675.05 275.57"></polygon>
            <path d="M81.1,311.192 L54.93,311.192 L54.93,287.035 C54.97,282.822 55.53,279.553 56.6,277.227 C58.5,273.06 62.01,270.974 67.12,270.974 C73.15,270.974 77.24,273.125 79.37,277.425 C80.52,279.795 81.1,283.108 81.1,287.364 L81.1,311.192 Z M38.68,311.192 L17.04,311.192 L17.04,289.842 C17.04,285.141 17.56,281.275 18.58,278.244 C20.04,274.729 23.06,272.972 27.63,272.972 C31.76,272.972 34.63,274.302 36.25,276.959 C37.87,279.617 38.68,283.076 38.68,287.338 L38.68,311.192 Z M91.89,261.587 C89.8,258.807 87.22,256.49 84.16,254.636 C79.54,251.724 74.33,250.267 68.51,250.267 C62.88,250.267 58.08,251.541 54.13,254.09 C50.18,256.639 47.3,260.419 45.47,265.427 C43.79,262.13 41.92,259.635 39.88,257.942 C36.24,254.912 31.43,253.396 25.43,253.396 C19.62,253.396 14.63,254.899 10.45,257.901 C3.66,262.891 0.18,271.37 2.27373675e-13,283.337 L2.27373675e-13,330.767 L98.14,330.767 L98.14,286.545 C98.14,281.558 97.7,276.936 96.81,272.676 C95.92,268.417 94.28,264.721 91.89,261.587" id="Shape" fill="#000000"></path>
            <polygon id="Path" fill="#000000" points="2.27373675e-13 154.75 2.27373675e-13 181.25 40.44 219.17 2.27373675e-13 219.17 2.27373675e-13 239.345 98.14 239.345 98.14 219.17 65.32 219.17 55.3 209.293 98.14 179.054 98.14 152.686 40.36 195.026"></polygon>
            <polygon id="Path" fill="#000000" points="78.33 0.429 78.33 20.257 118.79 20.257 118.79 330.767 138.63 330.767 138.63 20.257 179.09 20.257 179.09 0.429"></polygon>
            <rect id="Rectangle" fill="#0064CC" x="159.25" y="40.093" width="19.834" height="290.674"></rect>
            <polygon id="Path" fill="#000000" points="78.33 144.008 98.17 129.487 98.17 40.091 78.33 40.091"></polygon>
            <rect id="Rectangle" fill="#000000" x="275.5" y="0.428" width="3.457" height="330.342"></rect>
        </g>
    </g>
</svg>