<?xml version="1.0" encoding="UTF-8" standalone="no"?>
<svg
   xmlns:dc="http://purl.org/dc/elements/1.1/"
   xmlns:cc="http://creativecommons.org/ns#"
   xmlns:rdf="http://www.w3.org/1999/02/22-rdf-syntax-ns#"
   xmlns:svg="http://www.w3.org/2000/svg"
   xmlns="http://www.w3.org/2000/svg"
   version="1.1"
   id="svg2"
   xml:space="preserve"
   width="2261.4302"
   height="425.65292"
   viewBox="0 0 2261.4302 425.65292"><metadata
     id="metadata8"><rdf:RDF><cc:Work
         rdf:about=""><dc:format>image/svg+xml</dc:format><dc:type
           rdf:resource="http://purl.org/dc/dcmitype/StillImage" /><dc:title></dc:title></cc:Work></rdf:RDF></metadata><defs
     id="defs6"><clipPath
       clipPathUnits="userSpaceOnUse"
       id="clipPath38"><path
         d="M 0,617.67 H 2048.437 V 0 H 0 Z"
         id="path36" /></clipPath></defs><g
     id="g10"
     transform="matrix(1.3333333,0,0,-1.3333333,-234.90946,624.60652)"><g
       id="g12"
       transform="translate(270.3384,468.4549)"><path
         d="M 0,0 88.154,-152.685 176.309,0 Z"
         style="fill:#231f20;fill-opacity:1;fill-rule:nonzero;stroke:none"
         id="path14" /></g><g
       id="g16"
       transform="translate(176.1821,312.3011)"><path
         d="M 0,0 H 176.306 L 88.151,152.685 Z"
         style="fill:#231f20;fill-opacity:1;fill-rule:nonzero;stroke:none"
         id="path18" /></g><g
       id="g20"
       transform="translate(176.1821,305.3694)"><path
         d="M 0,0 88.151,-152.685 176.306,0 Z"
         style="fill:#ffde1b;fill-opacity:1;fill-rule:nonzero;stroke:none"
         id="path22" /></g><g
       id="g24"
       transform="translate(270.3384,149.2152)"><path
         d="M 0,0 H 176.309 L 88.154,152.685 Z"
         style="fill:#ffde1b;fill-opacity:1;fill-rule:nonzero;stroke:none"
         id="path26" /></g><g
       id="g28"
       transform="translate(364.4971,305.3685)"><path
         d="M 0,0 88.154,-152.686 176.309,0 Z"
         style="fill:#ef492f;fill-opacity:1;fill-rule:nonzero;stroke:none"
         id="path30" /></g><g
       id="g32"><g
         id="g34"
         clip-path="url(#clipPath38)"><g
           id="g40"
           transform="translate(581.2993,362.7606)"><path
             d="m 0,0 h 13.568 l 46.563,-70.987 c 3.428,-5.284 7.427,-13.139 7.427,-13.139 h 0.286 V 0 h 11.998 v -102.124 h -13.14 l -46.849,71.13 c -3.285,4.999 -7.57,12.712 -7.57,12.712 h -0.285 v -83.842 H 0 Z"
             style="fill:#000000;fill-opacity:1;fill-rule:nonzero;stroke:none"
             id="path42" /></g><g
           id="g44"
           transform="translate(724.1338,287.9183)"><path
             d="M 0,0 V 12.569 C -3.857,10.141 -10.57,8.283 -16.854,7.142 -28.423,4.999 -37.708,2.999 -37.708,-7.855 c 0,-9.856 7.714,-11.999 15.283,-11.999 C -6.999,-19.854 0,-8.57 0,0 m -0.286,-16.997 h -0.143 c -4.427,-5.713 -11.997,-11.712 -24.566,-11.712 -13.998,0 -24.996,6.57 -24.996,20.567 0,17.425 13.712,20.996 32.137,23.853 10.427,1.571 17.711,2.571 17.711,10.57 0,8.283 -5.999,12.997 -16.568,12.997 -11.998,0 -17.997,-5.142 -18.425,-16.283 h -11.141 c 0.428,14.283 9.856,24.995 29.423,24.995 15.711,0 27.28,-5.855 27.28,-23.424 v -35.135 c 0,-5.999 1.428,-9.285 7.856,-7.857 h 0.428 v -8.427 c -1.428,-0.571 -3.285,-1.142 -6.284,-1.142 -7.571,0 -11.57,3.428 -12.712,10.998"
             style="fill:#000000;fill-opacity:1;fill-rule:nonzero;stroke:none"
             id="path46" /></g><g
           id="g48"
           transform="translate(745.2769,334.4808)"><path
             d="M 0,0 H 10.712 V 23.281 H 22.281 V 0 H 36.564 V -9.427 H 22.281 v -47.991 c 0,-5.142 2.714,-6.855 7.427,-6.855 2.286,0 4.857,0.571 6.142,0.999 h 0.428 v -9.997 c -2.714,-0.573 -5.856,-1 -9.283,-1 -9.427,0 -16.283,3.855 -16.283,14.282 V -9.427 H 0 Z"
             style="fill:#000000;fill-opacity:1;fill-rule:nonzero;stroke:none"
             id="path50" /></g><path
           d="m 793.84,334.481 h 11.568 V 260.637 H 793.84 Z m 0,28.28 h 11.568 V 348.478 H 793.84 Z"
           style="fill:#000000;fill-opacity:1;fill-rule:nonzero;stroke:none"
           id="path52" /><g
           id="g54"
           transform="translate(876.396,297.4876)"><path
             d="m 0,0 c 0,16.283 -7.999,29.28 -23.709,29.28 -15.712,0 -23.854,-12.997 -23.854,-29.28 0,-16.282 8.142,-29.137 23.854,-29.137 C -7.999,-29.137 0,-16.282 0,0 m -59.417,0 c 0,21.424 13.711,38.85 35.708,38.85 22.138,0 35.564,-17.426 35.564,-38.85 0,-21.425 -13.426,-38.85 -35.564,-38.85 -21.997,0 -35.708,17.425 -35.708,38.85"
             style="fill:#000000;fill-opacity:1;fill-rule:nonzero;stroke:none"
             id="path56" /></g><g
           id="g58"
           transform="translate(911.3931,324.7679)"><path
             d="M 0,0 H 0.286 C 5.57,6.999 12.998,11.427 23.709,11.427 39.135,11.427 48.562,3 48.562,-12.283 V -64.131 H 36.993 v 50.848 c 0,9.57 -6.285,14.997 -16.711,14.997 C 8.57,1.714 0,-6.57 0,-18.711 v -45.42 H -11.569 V 9.713 H 0 Z"
             style="fill:#000000;fill-opacity:1;fill-rule:nonzero;stroke:none"
             id="path60" /></g><g
           id="g62"
           transform="translate(1020.8057,287.9183)"><path
             d="M 0,0 V 12.569 C -3.857,10.141 -10.57,8.283 -16.854,7.142 -28.424,4.999 -37.708,2.999 -37.708,-7.855 c 0,-9.856 7.713,-11.999 15.283,-11.999 C -6.999,-19.854 0,-8.57 0,0 m -0.286,-16.997 h -0.143 c -4.427,-5.713 -11.998,-11.712 -24.567,-11.712 -13.997,0 -24.995,6.57 -24.995,20.567 0,17.425 13.712,20.996 32.137,23.853 10.426,1.571 17.71,2.571 17.71,10.57 0,8.283 -5.999,12.997 -16.568,12.997 -11.997,0 -17.996,-5.142 -18.425,-16.283 h -11.14 c 0.428,14.283 9.855,24.995 29.423,24.995 15.71,0 27.28,-5.855 27.28,-23.424 v -35.135 c 0,-5.999 1.428,-9.285 7.856,-7.857 h 0.428 v -8.427 c -1.428,-0.571 -3.285,-1.142 -6.284,-1.142 -7.57,0 -11.57,3.428 -12.712,10.998"
             style="fill:#000000;fill-opacity:1;fill-rule:nonzero;stroke:none"
             id="path64" /></g><path
           d="m 1048.518,362.761 h 11.569 V 260.637 h -11.569 z"
           style="fill:#000000;fill-opacity:1;fill-rule:nonzero;stroke:none"
           id="path66" /><g
           id="g68"
           transform="translate(1096.7959,311.7708)"><path
             d="m 0,0 c 0,29.994 17.996,53.275 48.419,53.275 23.852,0 38.278,-13.712 40.992,-32.565 H 76.842 C 74.413,33.422 64.272,42.134 48.133,42.134 25.709,42.134 13.14,23.995 13.14,0 c 0,-24.995 13.854,-41.85 35.135,-41.85 19.283,0 28.424,13.141 29.708,28.138 H 90.696 C 90.554,-23.853 85.697,-35.279 78.412,-42.421 71.271,-49.42 60.845,-53.133 47.847,-53.133 18.853,-53.133 0,-30.994 0,0"
             style="fill:#000000;fill-opacity:1;fill-rule:nonzero;stroke:none"
             id="path70" /></g><g
           id="g72"
           transform="translate(1211.7793,322.1971)"><path
             d="m 0,0 h 0.286 c 4.428,7.142 12.14,13.14 21.995,13.14 2.143,0 3.285,-0.286 4.714,-0.856 V 1.143 H 26.566 C 24.852,1.714 23.71,1.856 21.424,1.856 9.998,1.856 0,-6.713 0,-20.568 V -61.56 H -11.569 V 12.284 H 0 Z"
             style="fill:#000000;fill-opacity:1;fill-rule:nonzero;stroke:none"
             id="path74" /></g><path
           d="m 1249.201,334.481 h 11.569 v -73.844 h -11.569 z m 0,28.28 h 11.569 v -14.283 h -11.569 z"
           style="fill:#000000;fill-opacity:1;fill-rule:nonzero;stroke:none"
           id="path76" /><g
           id="g78"
           transform="translate(1271.7695,284.6331)"><path
             d="m 0,0 h 11.855 c 1.571,-12.855 10.14,-16.426 21.139,-16.426 12.14,0 17.139,5.284 17.139,12.141 0,8.284 -5.712,10.427 -19.281,13.283 -14.569,2.999 -27.566,5.999 -27.566,22.139 0,12.283 9.427,20.281 26.566,20.281 18.282,0 27.28,-8.712 28.994,-23.138 H 46.991 c -1.142,9.713 -6.428,13.997 -17.425,13.997 -10.57,0 -14.854,-4.713 -14.854,-10.569 0,-7.999 7.142,-9.569 19.853,-12.141 14.854,-3 27.281,-6.284 27.281,-23.281 0,-14.854 -12.142,-22.424 -29.138,-22.424 C 12.427,-26.138 1.143,-16.568 0,0"
             style="fill:#000000;fill-opacity:1;fill-rule:nonzero;stroke:none"
             id="path80" /></g><path
           d="m 1344.759,334.481 h 11.569 v -73.844 h -11.569 z m 0,28.28 h 11.569 v -14.283 h -11.569 z"
           style="fill:#000000;fill-opacity:1;fill-rule:nonzero;stroke:none"
           id="path82" /><g
           id="g84"
           transform="translate(1367.3271,284.6331)"><path
             d="m 0,0 h 11.855 c 1.571,-12.855 10.14,-16.426 21.139,-16.426 12.14,0 17.139,5.284 17.139,12.141 0,8.284 -5.712,10.427 -19.281,13.283 -14.569,2.999 -27.566,5.999 -27.566,22.139 0,12.283 9.427,20.281 26.566,20.281 18.282,0 27.28,-8.712 28.994,-23.138 H 46.991 c -1.142,9.713 -6.428,13.997 -17.425,13.997 -10.57,0 -14.854,-4.713 -14.854,-10.569 0,-7.999 7.142,-9.569 19.853,-12.141 14.854,-3 27.281,-6.284 27.281,-23.281 0,-14.854 -12.142,-22.424 -29.138,-22.424 C 12.427,-26.138 1.143,-16.568 0,0"
             style="fill:#000000;fill-opacity:1;fill-rule:nonzero;stroke:none"
             id="path86" /></g><g
           id="g88"
           transform="translate(1460.8857,311.7708)"><path
             d="m 0,0 c 0,29.994 17.996,53.275 48.419,53.275 23.852,0 38.278,-13.712 40.992,-32.565 H 76.842 C 74.413,33.422 64.273,42.134 48.133,42.134 25.709,42.134 13.14,23.995 13.14,0 c 0,-24.995 13.854,-41.85 35.135,-41.85 19.283,0 28.424,13.141 29.71,28.138 H 90.696 C 90.554,-23.853 85.697,-35.279 78.413,-42.421 71.271,-49.42 60.845,-53.133 47.848,-53.133 18.854,-53.133 0,-30.994 0,0"
             style="fill:#000000;fill-opacity:1;fill-rule:nonzero;stroke:none"
             id="path90" /></g><g
           id="g92"
           transform="translate(1572.2988,303.4866)"><path
             d="M 0,0 H 44.42 C 43.705,14.711 36.136,23.709 22.853,23.709 9.142,23.709 1.713,13.426 0,0 m -12.142,-5.999 c 0,21.424 13.998,38.85 34.995,38.85 22.138,0 33.993,-17.14 33.993,-41.564 H -0.286 c 0.856,-14.997 8.999,-26.423 23.852,-26.423 10.712,0 17.854,5.141 20.425,15.14 h 11.283 c -3.427,-15.855 -14.996,-24.853 -31.708,-24.853 -22.567,0 -35.708,17.425 -35.708,38.85"
             style="fill:#000000;fill-opacity:1;fill-rule:nonzero;stroke:none"
             id="path94" /></g><g
           id="g96"
           transform="translate(1652.001,324.7679)"><path
             d="M 0,0 H 0.285 C 5.57,6.999 12.997,11.427 23.71,11.427 39.135,11.427 48.562,3 48.562,-12.283 V -64.131 H 36.993 v 50.848 c 0,9.57 -6.285,14.997 -16.712,14.997 C 8.569,1.714 0,-6.57 0,-18.711 v -45.42 H -11.57 V 9.713 H 0 Z"
             style="fill:#000000;fill-opacity:1;fill-rule:nonzero;stroke:none"
             id="path98" /></g><g
           id="g100"
           transform="translate(1709.708,334.4808)"><path
             d="M 0,0 H 10.713 V 23.281 H 22.281 V 0 H 36.564 V -9.427 H 22.281 v -47.991 c 0,-5.142 2.715,-6.855 7.428,-6.855 2.285,0 4.856,0.571 6.142,0.999 h 0.427 v -9.997 c -2.713,-0.573 -5.854,-1 -9.283,-1 -9.427,0 -16.282,3.855 -16.282,14.282 V -9.427 H 0 Z"
             style="fill:#000000;fill-opacity:1;fill-rule:nonzero;stroke:none"
             id="path102" /></g><g
           id="g104"
           transform="translate(1765.5586,303.4866)"><path
             d="M 0,0 H 44.419 C 43.705,14.711 36.136,23.709 22.853,23.709 9.141,23.709 1.713,13.426 0,0 m -12.142,-5.999 c 0,21.424 13.997,38.85 34.995,38.85 22.138,0 33.993,-17.14 33.993,-41.564 H -0.286 c 0.856,-14.997 8.998,-26.423 23.851,-26.423 10.713,0 17.854,5.141 20.426,15.14 h 11.282 c -3.427,-15.855 -14.996,-24.853 -31.708,-24.853 -22.567,0 -35.707,17.425 -35.707,38.85"
             style="fill:#000000;fill-opacity:1;fill-rule:nonzero;stroke:none"
             id="path106" /></g><g
           id="g108"
           transform="translate(1845.2598,322.1971)"><path
             d="m 0,0 h 0.286 c 4.428,7.142 12.14,13.14 21.995,13.14 2.143,0 3.285,-0.286 4.714,-0.856 V 1.143 H 26.566 C 24.852,1.714 23.71,1.856 21.425,1.856 9.999,1.856 0,-6.713 0,-20.568 V -61.56 H -11.569 V 12.284 H 0 Z"
             style="fill:#000000;fill-opacity:1;fill-rule:nonzero;stroke:none"
             id="path110" /></g></g></g></g></svg>
