<?xml version="1.0" encoding="UTF-8"?>
<svg width="673px" height="419px" viewBox="0 0 673 419" version="1.1" xmlns="http://www.w3.org/2000/svg" xmlns:xlink="http://www.w3.org/1999/xlink">
    <title>Group</title>
    <g id="Page-1" stroke="none" stroke-width="1" fill="none" fill-rule="evenodd">
        <g id="Group">
            <path d="M273.474058,115.653168 L273.47339,222.346138 C260.174807,208.507441 252,189.708385 252,169 C252,148.291268 260.175081,129.491929 273.474058,115.653168 Z" id="Combined-Shape" fill="#D4D4D4"></path>
            <path d="M382.055685,279.029321 L382.054077,337.183321 L273.054077,337.183321 L273.054077,288.261321 L360,288.261578 L360,288.261578 C371.712762,288.261578 378.853115,285.695015 382.055685,279.029321 Z" id="Combined-Shape" fill="#0061AE"></path>
            <path d="M382.056431,115.168837 C395.632249,129.051709 404,148.048658 404,169 C404,189.951711 395.631954,208.948961 382.055712,222.831898 Z" id="Combined-Shape" fill="#D4D4D4"></path>
            <polygon id="Path-Copy-8" fill="#D4D4D4" points="273.054077 337.183472 216.054077 337.183472 216.054077 288.261578 273.054077 288.261578"></polygon>
            <path d="M439.475098,87.1834717 L439.475098,292.080922 L439.475098,292.080922 C439.475098,315.256281 422.284467,337.183472 399.61088,337.183472 L382.054077,337.183472 L382.054077,337.183472 L382.055174,233.762767 C400.37743,218.171697 412,194.943147 412,169 C412,143.056853 400.37743,119.828303 382.055174,104.237233 L382.054077,87.1834717 L382.054077,87.1834717 L439.475098,87.1834717 Z" id="Combined-Shape" fill="#D4D4D4"></path>
            <path d="M329,92 C350.910851,92 370.6842,101.151738 384.706065,115.841233 C384.706065,115.841233 383.111971,222.703103 384.18137,222.703103 C370.193086,237.074004 350.638932,246 329,246 C307.197709,246 287.511792,236.938725 273.502777,222.376702 L273.502777,222.376702 L273.502392,214.176417 C273.502369,213.875389 273.502345,213.567321 273.50232,213.252426 L273.501399,204.493395 C273.501346,204.082922 273.501291,203.667329 273.501234,203.246829 L273.500441,197.978951 C273.500365,197.522609 273.500288,197.062214 273.500207,196.597978 L273.499415,192.321934 C273.499319,191.836578 273.49922,191.348021 273.499118,190.856477 L273.498474,187.873082 C273.49836,187.370444 273.498244,186.865247 273.498125,186.357703 L273.497372,183.285983 C273.489593,152.837383 273.470621,115.704944 273.424347,115.704944 C287.438268,101.095153 307.156991,92 329,92 Z M329,141 C313.536027,141 301,153.536027 301,169 C301,184.463973 313.536027,197 329,197 C344.463973,197 357,184.463973 357,169 C357,153.536027 344.463973,141 329,141 Z" id="Combined-Shape" fill="#0061AE"></path>
            <path d="M273.475098,0 L273.4747,104.640226 C255.423985,120.2271 244,143.279443 244,169 C244,194.720557 255.423985,217.7729 273.4747,233.359774 L273.475098,253.183472 L216.054077,253.183472 L216.054077,0 L273.475098,0 Z" id="Combined-Shape" fill="#D4D4D4"></path>
            <path d="M6.87077535,404 L6.87077535,384.169492 L14.528827,384.169492 L27.4115308,404 L36,404 L21.6143141,383.470339 C23.5228628,383.300847 25.2524851,382.845339 26.8031809,382.103814 C28.3538767,381.362288 29.666004,380.451271 30.7395626,379.370763 C31.8131213,378.290254 32.6361829,377.082627 33.2087475,375.747881 C33.7813121,374.413136 34.0675944,373.025424 34.0675944,371.584746 C34.0675944,370.186441 33.8290258,368.735169 33.3518887,367.230932 C32.8747515,365.726695 32.027833,364.370763 30.8111332,363.163136 C29.5944334,361.955508 27.9363817,360.959746 25.8369781,360.175847 C23.7375746,359.391949 21.0656064,359 17.8210736,359 L17.8210736,359 L0,359 L0,404 L6.87077535,404 Z M15.0647482,379 L6,379 L6,365 L15.0647482,365 C16.4076739,365 17.7386091,365.092105 19.057554,365.276316 C20.3764988,365.460526 21.5515588,365.798246 22.5827338,366.289474 C23.6139089,366.780702 24.441247,367.486842 25.0647482,368.407895 C25.6882494,369.328947 26,370.526316 26,372 C26,373.473684 25.6882494,374.671053 25.0647482,375.592105 C24.441247,376.513158 23.6139089,377.219298 22.5827338,377.710526 C21.5515588,378.201754 20.3764988,378.539474 19.057554,378.723684 C17.7386091,378.907895 16.4076739,379 15.0647482,379 L15.0647482,379 Z M56.4285714,405 C62.8571429,405 67.8571429,402.987282 71.4285714,398.961847 L71.4285714,398.961847 L66.5714286,395.7249 C65.3333333,397.052878 63.9761905,398.121486 62.5,398.930723 C61.0238095,399.73996 59.2857143,400.144578 57.2857143,400.144578 C55.8095238,400.144578 54.3809524,399.937082 53,399.522088 C51.6190476,399.107095 50.4047619,398.526104 49.3571429,397.779116 C48.3095238,397.032129 47.4642857,396.129518 46.8214286,395.071285 C46.1785714,394.013052 45.8571429,392.840696 45.8571429,391.554217 L45.8571429,391.554217 L73,391.554217 L73,389.562249 C73,387.65328 72.702381,385.775435 72.1071429,383.928715 C71.5119048,382.081995 70.547619,380.422021 69.2142857,378.948795 C67.8809524,377.475569 66.1785714,376.282463 64.1071429,375.369478 C62.0357143,374.456493 59.5,374 56.5,374 C53.9761905,374 51.6428571,374.394244 49.5,375.182731 C47.3571429,375.971218 45.5119048,377.060576 43.9642857,378.450803 C42.4166667,379.841031 41.202381,381.480254 40.3214286,383.368474 C39.4404762,385.256693 39,387.300535 39,389.5 C39,391.699465 39.4047619,393.743307 40.2142857,395.631526 C41.0238095,397.519746 42.1785714,399.158969 43.6785714,400.549197 C45.1785714,401.939424 47.0119048,403.028782 49.1785714,403.817269 C51.3452381,404.605756 53.7619048,405 56.4285714,405 Z M66,387 L46,387 C46,385.956522 46.2464789,384.902174 46.7394366,383.836957 C47.2323944,382.771739 47.9248826,381.804348 48.8169014,380.934783 C49.7089202,380.065217 50.8004695,379.358696 52.0915493,378.815217 C53.3826291,378.271739 54.8028169,378 56.3521127,378 C57.9483568,378 59.3450704,378.228261 60.5422535,378.684783 C61.7394366,379.141304 62.7370892,379.771739 63.5352113,380.576087 C64.3333333,381.380435 64.9319249,382.326087 65.3309859,383.413043 C65.7300469,384.5 65.9530516,385.695652 66,387 L66,387 Z M96.7971888,419 C99.5147256,419 101.997992,418.619835 104.246988,417.859504 C106.495984,417.099174 108.417001,416.032599 110.01004,414.65978 C111.603079,413.286961 112.832999,411.660698 113.699799,409.780992 C114.5666,407.901286 115,405.820937 115,403.539945 L115,403.539945 L115,373.760331 L108.674699,373.760331 L108.674699,378.068871 L108.534137,378.068871 C107.31593,376.463728 105.640897,375.217631 103.509036,374.330579 C101.377175,373.443526 99.186747,373 96.937751,373 C94.3607764,373 92.0297858,373.401286 89.9447791,374.203857 C87.8597724,375.006428 86.0793173,376.125803 84.6034137,377.561983 C83.12751,378.998163 81.9912985,380.677227 81.1947791,382.599174 C80.3982597,384.52112 80,386.580349 80,388.77686 C80,390.97337 80.4216867,393.011478 81.2650602,394.891185 C82.1084337,396.770891 83.2797858,398.397153 84.7791165,399.769972 C86.2784471,401.142792 88.0706158,402.219927 90.1556225,403.001377 C92.2406292,403.782828 94.5013387,404.173554 96.937751,404.173554 C99.2336011,404.173554 101.424029,403.740588 103.509036,402.874656 C105.594043,402.008724 107.245649,400.667585 108.463855,398.85124 L108.463855,398.85124 L108.674699,398.85124 L108.674699,403.286501 C108.674699,404.553719 108.487282,405.810376 108.11245,407.056474 C107.737617,408.302571 107.093373,409.411387 106.179719,410.38292 C105.266064,411.354454 104.036145,412.146465 102.48996,412.758953 C100.943775,413.371442 98.9993307,413.677686 96.6566265,413.677686 C94.2202142,413.677686 92.0414993,413.26584 90.1204819,412.442149 C88.1994645,411.618457 86.4190094,410.40404 84.7791165,408.798898 L84.7791165,408.798898 L80.4919679,413.614325 C82.8815261,415.599633 85.3999331,416.993572 88.0471888,417.796143 C90.6944444,418.598714 93.6111111,419 96.7971888,419 Z M97,399 C93.6153846,399 90.9358974,398.104938 88.9615385,396.314815 C86.9871795,394.524691 86,392.148148 86,389.185185 C86,387.703704 86.258547,386.335391 86.775641,385.080247 C87.292735,383.825103 88.0213675,382.755144 88.9615385,381.87037 C89.9017094,380.985597 91.0534188,380.286008 92.4166667,379.771605 C93.7799145,379.257202 95.3076923,379 97,379 C98.6923077,379 100.220085,379.257202 101.583333,379.771605 C102.946581,380.286008 104.098291,380.985597 105.038462,381.87037 C105.978632,382.755144 106.707265,383.825103 107.224359,385.080247 C107.741453,386.335391 108,387.703704 108,389.185185 C108,392.148148 107.012821,394.524691 105.038462,396.314815 C103.064103,398.104938 100.384615,399 97,399 Z M128.5,367 C129.727273,367 130.784091,366.606061 131.670455,365.818182 C132.556818,365.030303 133,364.090909 133,363 C133,361.909091 132.556818,360.969697 131.670455,360.181818 C130.784091,359.393939 129.727273,359 128.5,359 C127.272727,359 126.215909,359.393939 125.329545,360.181818 C124.443182,360.969697 124,361.909091 124,363 C124,364.090909 124.443182,365.030303 125.329545,365.818182 C126.215909,366.606061 127.272727,367 128.5,367 Z M131,404 L131,374 L125,374 L125,404 L131,404 Z M156.428571,405 C162.857143,405 167.857143,402.987282 171.428571,398.961847 L171.428571,398.961847 L166.571429,395.7249 C165.333333,397.052878 163.97619,398.121486 162.5,398.930723 C161.02381,399.73996 159.285714,400.144578 157.285714,400.144578 C155.809524,400.144578 154.380952,399.937082 153,399.522088 C151.619048,399.107095 150.404762,398.526104 149.357143,397.779116 C148.309524,397.032129 147.464286,396.129518 146.821429,395.071285 C146.178571,394.013052 145.857143,392.840696 145.857143,391.554217 L145.857143,391.554217 L173,391.554217 L173,389.562249 C173,387.65328 172.702381,385.775435 172.107143,383.928715 C171.511905,382.081995 170.547619,380.422021 169.214286,378.948795 C167.880952,377.475569 166.178571,376.282463 164.107143,375.369478 C162.035714,374.456493 159.5,374 156.5,374 C153.97619,374 151.642857,374.394244 149.5,375.182731 C147.357143,375.971218 145.511905,377.060576 143.964286,378.450803 C142.416667,379.841031 141.202381,381.480254 140.321429,383.368474 C139.440476,385.256693 139,387.300535 139,389.5 C139,391.699465 139.404762,393.743307 140.214286,395.631526 C141.02381,397.519746 142.178571,399.158969 143.678571,400.549197 C145.178571,401.939424 147.011905,403.028782 149.178571,403.817269 C151.345238,404.605756 153.761905,405 156.428571,405 Z M166,387 L146,387 C146,385.956522 146.246479,384.902174 146.739437,383.836957 C147.232394,382.771739 147.924883,381.804348 148.816901,380.934783 C149.70892,380.065217 150.800469,379.358696 152.091549,378.815217 C153.382629,378.271739 154.802817,378 156.352113,378 C157.948357,378 159.34507,378.228261 160.542254,378.684783 C161.739437,379.141304 162.737089,379.771739 163.535211,380.576087 C164.333333,381.380435 164.931925,382.326087 165.330986,383.413043 C165.730047,384.5 165.953052,385.695652 166,387 L166,387 Z M215.937751,405 C218.186747,405 220.377175,404.5625 222.509036,403.6875 C224.640897,402.8125 226.31593,401.583333 227.534137,400 L227.534137,400 L227.674699,400 L227.674699,404.25 L234,404.25 L234,357 L227.674699,357 L227.674699,378.875 L227.534137,378.875 C226.409639,377.333333 224.793173,376.114583 222.684739,375.21875 C220.576305,374.322917 218.327309,373.875 215.937751,373.875 C213.360776,373.875 211.029786,374.270833 208.944779,375.0625 C206.859772,375.854167 205.079317,376.947917 203.603414,378.34375 C202.12751,379.739583 200.991299,381.385417 200.194779,383.28125 C199.39826,385.177083 199,387.229167 199,389.4375 C199,391.645833 199.39826,393.6875 200.194779,395.5625 C200.991299,397.4375 202.12751,399.083333 203.603414,400.5 C205.079317,401.916667 206.859772,403.020833 208.944779,403.8125 C211.029786,404.604167 213.360776,405 215.937751,405 Z M217,400 C215.307692,400 213.779915,399.734848 212.416667,399.204545 C211.053419,398.674242 209.901709,397.95303 208.961538,397.040909 C208.021368,396.128788 207.292735,395.025758 206.775641,393.731818 C206.258547,392.437879 206,391.027273 206,389.5 C206,387.972727 206.258547,386.562121 206.775641,385.268182 C207.292735,383.974242 208.021368,382.871212 208.961538,381.959091 C209.901709,381.04697 211.053419,380.325758 212.416667,379.795455 C213.779915,379.265152 215.307692,379 217,379 C218.692308,379 220.220085,379.265152 221.583333,379.795455 C222.946581,380.325758 224.098291,381.04697 225.038462,381.959091 C225.978632,382.871212 226.707265,383.974242 227.224359,385.268182 C227.741453,386.562121 228,387.972727 228,389.5 C228,391.027273 227.741453,392.437879 227.224359,393.731818 C226.707265,395.025758 225.978632,396.128788 225.038462,397.040909 C224.098291,397.95303 222.946581,398.674242 221.583333,399.204545 C220.220085,399.734848 218.692308,400 217,400 Z M259.428571,405 C265.857143,405 270.857143,402.987282 274.428571,398.961847 L274.428571,398.961847 L269.571429,395.7249 C268.333333,397.052878 266.97619,398.121486 265.5,398.930723 C264.02381,399.73996 262.285714,400.144578 260.285714,400.144578 C258.809524,400.144578 257.380952,399.937082 256,399.522088 C254.619048,399.107095 253.404762,398.526104 252.357143,397.779116 C251.309524,397.032129 250.464286,396.129518 249.821429,395.071285 C249.178571,394.013052 248.857143,392.840696 248.857143,391.554217 L248.857143,391.554217 L276,391.554217 L276,389.562249 C276,387.65328 275.702381,385.775435 275.107143,383.928715 C274.511905,382.081995 273.547619,380.422021 272.214286,378.948795 C270.880952,377.475569 269.178571,376.282463 267.107143,375.369478 C265.035714,374.456493 262.5,374 259.5,374 C256.97619,374 254.642857,374.394244 252.5,375.182731 C250.357143,375.971218 248.511905,377.060576 246.964286,378.450803 C245.416667,379.841031 244.202381,381.480254 243.321429,383.368474 C242.440476,385.256693 242,387.300535 242,389.5 C242,391.699465 242.404762,393.743307 243.214286,395.631526 C244.02381,397.519746 245.178571,399.158969 246.678571,400.549197 C248.178571,401.939424 250.011905,403.028782 252.178571,403.817269 C254.345238,404.605756 256.761905,405 259.428571,405 Z M269,387 L249,387 C249,385.956522 249.246479,384.902174 249.739437,383.836957 C250.232394,382.771739 250.924883,381.804348 251.816901,380.934783 C252.70892,380.065217 253.800469,379.358696 255.091549,378.815217 C256.382629,378.271739 257.802817,378 259.352113,378 C260.948357,378 262.34507,378.228261 263.542254,378.684783 C264.739437,379.141304 265.737089,379.771739 266.535211,380.576087 C267.333333,381.380435 267.931925,382.326087 268.330986,383.413043 C268.730047,384.5 268.953052,385.695652 269,387 L269,387 Z M290.240876,404 L290.240876,388.81893 C290.240876,385.502058 291.049878,383.056927 292.667883,381.483539 C294.285888,379.910151 296.620438,379.123457 299.671533,379.123457 C300.180049,379.123457 300.688564,379.165981 301.19708,379.251029 C301.705596,379.336077 302.214112,379.442387 302.722628,379.569959 L302.722628,379.569959 L303,373.382716 C302.167883,373.127572 301.243309,373 300.226277,373 C299.209246,373 298.192214,373.138203 297.175182,373.414609 C296.158151,373.691015 295.222019,374.0631 294.366788,374.530864 C293.511557,374.998628 292.737226,375.562071 292.043796,376.221193 C291.350365,376.880316 290.79562,377.613855 290.379562,378.421811 L290.379562,378.421811 L290.240876,378.421811 L290.240876,373.765432 L284,373.765432 L284,404 L290.240876,404 Z M354.945904,405 C356.462648,405 358.086038,404.915771 359.816074,404.747312 C361.54611,404.578853 363.252447,404.315636 364.935085,403.957661 C366.617723,403.599686 368.241113,403.168011 369.805255,402.662634 C371.369397,402.157258 372.767646,401.567652 374,400.893817 L374,400.893817 L374,378.846774 L356.012365,378.846774 L356.012365,384.532258 L367.174652,384.532258 L367.174652,396.977151 C365.657908,397.735215 363.821226,398.314292 361.664606,398.714382 C359.507986,399.114471 357.22102,399.314516 354.803709,399.314516 C352.007213,399.314516 349.424008,398.861783 347.054096,397.956317 C344.684183,397.050851 342.62236,395.797939 340.868624,394.197581 C339.114889,392.597222 337.74034,390.71259 336.744977,388.543683 C335.749614,386.374776 335.251932,384.026882 335.251932,381.5 C335.251932,379.057348 335.702215,376.751568 336.602782,374.582661 C337.503349,372.413754 338.783101,370.529122 340.44204,368.928763 C342.100979,367.328405 344.091705,366.054435 346.414219,365.106855 C348.736734,364.159274 351.343637,363.685484 354.23493,363.685484 C356.794436,363.685484 359.235446,364.03293 361.55796,364.727823 C363.880474,365.422715 366.084493,366.65457 368.170015,368.423387 L368.170015,368.423387 L373.004637,363.811828 C371.01391,362.000896 368.549201,360.579525 365.61051,359.547715 C362.671819,358.515905 358.879959,358 354.23493,358 C350.395672,358 346.864503,358.600134 343.641422,359.800403 C340.418341,361.000672 337.657393,362.653674 335.358578,364.759409 C333.059763,366.865143 331.25863,369.34991 329.955178,372.21371 C328.651726,375.077509 328,378.172939 328,381.5 C328,384.658602 328.604328,387.659274 329.812983,390.502016 C331.021638,393.344758 332.775374,395.840054 335.074189,397.987903 C337.373004,400.135753 340.193199,401.841398 343.534776,403.104839 C346.876352,404.36828 350.680062,405 354.945904,405 Z M400.428571,405 C406.857143,405 411.857143,402.987282 415.428571,398.961847 L415.428571,398.961847 L410.571429,395.7249 C409.333333,397.052878 407.97619,398.121486 406.5,398.930723 C405.02381,399.73996 403.285714,400.144578 401.285714,400.144578 C399.809524,400.144578 398.380952,399.937082 397,399.522088 C395.619048,399.107095 394.404762,398.526104 393.357143,397.779116 C392.309524,397.032129 391.464286,396.129518 390.821429,395.071285 C390.178571,394.013052 389.857143,392.840696 389.857143,391.554217 L389.857143,391.554217 L417,391.554217 L417,389.562249 C417,387.65328 416.702381,385.775435 416.107143,383.928715 C415.511905,382.081995 414.547619,380.422021 413.214286,378.948795 C411.880952,377.475569 410.178571,376.282463 408.107143,375.369478 C406.035714,374.456493 403.5,374 400.5,374 C397.97619,374 395.642857,374.394244 393.5,375.182731 C391.357143,375.971218 389.511905,377.060576 387.964286,378.450803 C386.416667,379.841031 385.202381,381.480254 384.321429,383.368474 C383.440476,385.256693 383,387.300535 383,389.5 C383,391.699465 383.404762,393.743307 384.214286,395.631526 C385.02381,397.519746 386.178571,399.158969 387.678571,400.549197 C389.178571,401.939424 391.011905,403.028782 393.178571,403.817269 C395.345238,404.605756 397.761905,405 400.428571,405 Z M410,387 L390,387 C390,385.956522 390.246479,384.902174 390.739437,383.836957 C391.232394,382.771739 391.924883,381.804348 392.816901,380.934783 C393.70892,380.065217 394.800469,379.358696 396.091549,378.815217 C397.382629,378.271739 398.802817,378 400.352113,378 C401.948357,378 403.34507,378.228261 404.542254,378.684783 C405.739437,379.141304 406.737089,379.771739 407.535211,380.576087 C408.333333,381.380435 408.931925,382.326087 409.330986,383.413043 C409.730047,384.5 409.953052,385.695652 410,387 L410,387 Z M443.062249,405 C445.639224,405 447.970214,404.604167 450.055221,403.8125 C452.140228,403.020833 453.920683,401.916667 455.396586,400.5 C456.87249,399.083333 458.008701,397.4375 458.805221,395.5625 C459.60174,393.6875 460,391.645833 460,389.4375 C460,387.229167 459.60174,385.177083 458.805221,383.28125 C458.008701,381.385417 456.87249,379.739583 455.396586,378.34375 C453.920683,376.947917 452.140228,375.854167 450.055221,375.0625 C447.970214,374.270833 445.639224,373.875 443.062249,373.875 C440.672691,373.875 438.423695,374.322917 436.315261,375.21875 C434.206827,376.114583 432.590361,377.333333 431.465863,378.875 L431.465863,378.875 L431.325301,378.875 L431.325301,357 L425,357 L425,404.25 L431.325301,404.25 L431.325301,400 L431.465863,400 C432.68407,401.583333 434.359103,402.8125 436.490964,403.6875 C438.622825,404.5625 440.813253,405 443.062249,405 Z M442,400 C440.307692,400 438.779915,399.734848 437.416667,399.204545 C436.053419,398.674242 434.901709,397.95303 433.961538,397.040909 C433.021368,396.128788 432.292735,395.025758 431.775641,393.731818 C431.258547,392.437879 431,391.027273 431,389.5 C431,387.972727 431.258547,386.562121 431.775641,385.268182 C432.292735,383.974242 433.021368,382.871212 433.961538,381.959091 C434.901709,381.04697 436.053419,380.325758 437.416667,379.795455 C438.779915,379.265152 440.307692,379 442,379 C443.692308,379 445.220085,379.265152 446.583333,379.795455 C447.946581,380.325758 449.098291,381.04697 450.038462,381.959091 C450.978632,382.871212 451.707265,383.974242 452.224359,385.268182 C452.741453,386.562121 453,387.972727 453,389.5 C453,391.027273 452.741453,392.437879 452.224359,393.731818 C451.707265,395.025758 450.978632,396.128788 450.038462,397.040909 C449.098291,397.95303 447.946581,398.674242 446.583333,399.204545 C445.220085,399.734848 443.692308,400 442,400 Z M484,405 C486.52381,405 488.880952,404.595382 491.071429,403.786145 C493.261905,402.976908 495.166667,401.877175 496.785714,400.486948 C498.404762,399.09672 499.678571,397.457497 500.607143,395.569277 C501.535714,393.681058 502,391.657965 502,389.5 C502,387.342035 501.535714,385.329317 500.607143,383.461847 C499.678571,381.594378 498.404762,379.955154 496.785714,378.544177 C495.166667,377.133199 493.261905,376.023092 491.071429,375.213855 C488.880952,374.404618 486.52381,374 484,374 C481.47619,374 479.119048,374.404618 476.928571,375.213855 C474.738095,376.023092 472.833333,377.133199 471.214286,378.544177 C469.595238,379.955154 468.321429,381.594378 467.392857,383.461847 C466.464286,385.329317 466,387.342035 466,389.5 C466,391.657965 466.464286,393.681058 467.392857,395.569277 C468.321429,397.457497 469.595238,399.09672 471.214286,400.486948 C472.833333,401.877175 474.738095,402.976908 476.928571,403.786145 C479.119048,404.595382 481.47619,405 484,405 Z M484,400 C482.307692,400 480.779915,399.734848 479.416667,399.204545 C478.053419,398.674242 476.901709,397.95303 475.961538,397.040909 C475.021368,396.128788 474.292735,395.025758 473.775641,393.731818 C473.258547,392.437879 473,391.027273 473,389.5 C473,387.972727 473.258547,386.562121 473.775641,385.268182 C474.292735,383.974242 475.021368,382.871212 475.961538,381.959091 C476.901709,381.04697 478.053419,380.325758 479.416667,379.795455 C480.779915,379.265152 482.307692,379 484,379 C485.692308,379 487.220085,379.265152 488.583333,379.795455 C489.946581,380.325758 491.098291,381.04697 492.038462,381.959091 C492.978632,382.871212 493.707265,383.974242 494.224359,385.268182 C494.741453,386.562121 495,387.972727 495,389.5 C495,391.027273 494.741453,392.437879 494.224359,393.731818 C493.707265,395.025758 492.978632,396.128788 492.038462,397.040909 C491.098291,397.95303 489.946581,398.674242 488.583333,399.204545 C487.220085,399.734848 485.692308,400 484,400 Z M522.285714,405 C524.904762,405 527.214286,404.500343 529.214286,403.501029 C531.214286,402.501715 532.619048,401.194102 533.428571,399.578189 L533.428571,399.578189 L533.571429,399.578189 L533.571429,404.234568 L540,404.234568 L540,374 L533.571429,374 L533.571429,389.563786 C533.571429,391.30727 533.333333,392.816872 532.857143,394.092593 C532.380952,395.368313 531.714286,396.420782 530.857143,397.25 C530,398.079218 529,398.685185 527.857143,399.067901 C526.714286,399.450617 525.47619,399.641975 524.142857,399.641975 C523.142857,399.641975 522.178571,399.503772 521.25,399.227366 C520.321429,398.95096 519.5,398.504458 518.785714,397.88786 C518.071429,397.271262 517.5,396.463306 517.071429,395.463992 C516.642857,394.464678 516.428571,393.263374 516.428571,391.860082 L516.428571,391.860082 L516.428571,374 L510,374 L510,393.454733 C510,395.453361 510.333333,397.186214 511,398.653292 C511.666667,400.12037 512.559524,401.321674 513.678571,402.257202 C514.797619,403.19273 516.095238,403.883745 517.571429,404.330247 C519.047619,404.776749 520.619048,405 522.285714,405 Z M563.850746,404 L571.823609,381.594937 L571.964722,381.594937 L580.784261,404 L587.204885,404 L598,374 L591.297151,374 L584.100407,396.405063 L583.959294,396.405063 L575.492537,374 L568.789688,374 L560.816825,396.405063 L560.675712,396.405063 L553.126187,374 L546,374 L557.006784,404 L563.850746,404 Z M618.428571,405 C624.857143,405 629.857143,402.987282 633.428571,398.961847 L633.428571,398.961847 L628.571429,395.7249 C627.333333,397.052878 625.97619,398.121486 624.5,398.930723 C623.02381,399.73996 621.285714,400.144578 619.285714,400.144578 C617.809524,400.144578 616.380952,399.937082 615,399.522088 C613.619048,399.107095 612.404762,398.526104 611.357143,397.779116 C610.309524,397.032129 609.464286,396.129518 608.821429,395.071285 C608.178571,394.013052 607.857143,392.840696 607.857143,391.554217 L607.857143,391.554217 L635,391.554217 L635,389.562249 C635,387.65328 634.702381,385.775435 634.107143,383.928715 C633.511905,382.081995 632.547619,380.422021 631.214286,378.948795 C629.880952,377.475569 628.178571,376.282463 626.107143,375.369478 C624.035714,374.456493 621.5,374 618.5,374 C615.97619,374 613.642857,374.394244 611.5,375.182731 C609.357143,375.971218 607.511905,377.060576 605.964286,378.450803 C604.416667,379.841031 603.202381,381.480254 602.321429,383.368474 C601.440476,385.256693 601,387.300535 601,389.5 C601,391.699465 601.404762,393.743307 602.214286,395.631526 C603.02381,397.519746 604.178571,399.158969 605.678571,400.549197 C607.178571,401.939424 609.011905,403.028782 611.178571,403.817269 C613.345238,404.605756 615.761905,405 618.428571,405 Z M628,387 L608,387 C608,385.956522 608.246479,384.902174 608.739437,383.836957 C609.232394,382.771739 609.924883,381.804348 610.816901,380.934783 C611.70892,380.065217 612.800469,379.358696 614.091549,378.815217 C615.382629,378.271739 616.802817,378 618.352113,378 C619.948357,378 621.34507,378.228261 622.542254,378.684783 C623.739437,379.141304 624.737089,379.771739 625.535211,380.576087 C626.333333,381.380435 626.931925,382.326087 627.330986,383.413043 C627.730047,384.5 627.953052,385.695652 628,387 L628,387 Z M649.428571,404 L649.428571,388.436214 C649.428571,386.69273 649.666667,385.183128 650.142857,383.907407 C650.619048,382.631687 651.285714,381.579218 652.142857,380.75 C653,379.920782 654,379.314815 655.142857,378.932099 C656.285714,378.549383 657.52381,378.358025 658.857143,378.358025 C659.857143,378.358025 660.821429,378.496228 661.75,378.772634 C662.678571,379.04904 663.5,379.495542 664.214286,380.11214 C664.928571,380.728738 665.5,381.536694 665.928571,382.536008 C666.357143,383.535322 666.571429,384.736626 666.571429,386.139918 L666.571429,386.139918 L666.571429,404 L673,404 L673,384.545267 C673,382.546639 672.666667,380.813786 672,379.346708 C671.333333,377.87963 670.440476,376.678326 669.321429,375.742798 C668.202381,374.80727 666.892857,374.116255 665.392857,373.669753 C663.892857,373.223251 662.333333,373 660.714286,373 C658.095238,373 655.785714,373.499657 653.785714,374.498971 C651.785714,375.498285 650.380952,376.805898 649.571429,378.421811 L649.571429,378.421811 L649.428571,378.421811 L649.428571,373.765432 L643,373.765432 L643,404 L649.428571,404 Z" id="RegiederGebouwen" fill="#0061AE" fill-rule="nonzero"></path>
        </g>
    </g>
</svg>