<svg id="fr" xmlns="http://www.w3.org/2000/svg" viewBox="0 0 261.24 50.96">
    <defs>
        <style>
        .cls-1 {
            fill: #1d1d1b;
        }

        .cls-2 {
            fill: #d23416;
        }

        .cls-3 {
            fill: #fff;
        }

        .cls-4 {
            fill: #ed6b06;
        }
        </style>
    </defs>
    <title>economie_bil_263x52px</title>
    <path class="cls-1" d="M68.33,27.62c.1,5.76,3.73,8.13,8,8.13a16.17,16.17,0,0,0,6.49-1.16l.77,3a19,19,0,0,1-7.84,1.5c-7.16,0-11.51-4.79-11.51-11.8s4.21-12.68,11-12.68c7.64,0,9.63,6.73,9.63,11a10.56,10.56,0,0,1-.15,2Zm12.43-3c0-2.66-1.11-6.92-5.85-6.92-4.35,0-6.19,4-6.53,6.92Z" transform="translate(-0.88 -0.52)"/>
    <path class="cls-1" d="M106.84,37.78a16.47,16.47,0,0,1-6.73,1.36c-7.06,0-11.65-4.79-11.65-12S93.39,14.66,101,14.66a13.36,13.36,0,0,1,5.9,1.26l-1,3.24A10.5,10.5,0,0,0,101,18.05c-5.37,0-8.27,4-8.27,8.9,0,5.42,3.48,8.75,8.13,8.75a12.2,12.2,0,0,0,5.22-1.11Z" transform="translate(-0.88 -0.52)"/>
    <path class="cls-1" d="M121.06,39.14c-6.29,0-11.22-4.65-11.22-12,0-7.83,5.17-12.43,11.61-12.43,6.72,0,11.27,4.89,11.27,12,0,8.7-6,12.48-11.61,12.48Zm.15-3.19c4.06,0,7.11-3.83,7.11-9.15,0-4-2-8.95-7-8.95s-7.16,4.65-7.16,9.1c0,5.12,2.9,9,7,9Z" transform="translate(-0.88 -0.52)"/>
    <path class="cls-1" d="M138.09,21.53c0-2.47-.05-4.4-.2-6.34h3.78l.24,3.82h.1a8.68,8.68,0,0,1,7.74-4.35c3.24,0,8.27,1.93,8.27,10v14h-4.26V25.11c0-3.77-1.4-7-5.42-7a6.29,6.29,0,0,0-6,6.34V38.6h-4.25Z" transform="translate(-0.88 -0.52)"/>
    <path class="cls-1" d="M174.47,39.14c-6.29,0-11.23-4.65-11.23-12,0-7.83,5.18-12.43,11.61-12.43,6.73,0,11.27,4.89,11.27,12,0,8.7-6,12.48-11.61,12.48Zm.14-3.19c4.06,0,7.11-3.83,7.11-9.15,0-4-2-8.95-7-8.95s-7.16,4.65-7.16,9.1c0,5.12,2.9,9,7,9Z" transform="translate(-0.88 -0.52)"/>
    <path class="cls-1" d="M191.49,21.53c0-2.47-.09-4.4-.19-6.34H195l.2,3.77h.14a8.11,8.11,0,0,1,7.4-4.3,6.89,6.89,0,0,1,6.58,4.69h.1a9.21,9.21,0,0,1,2.66-3,7.81,7.81,0,0,1,5.13-1.65c3.14,0,7.74,2,7.74,10.16V38.6h-4.16V25.35c0-4.55-1.7-7.21-5.08-7.21A5.59,5.59,0,0,0,210.65,22a7.72,7.72,0,0,0-.34,2.13V38.6h-4.16v-14c0-3.78-1.64-6.44-4.89-6.44-2.61,0-4.59,2.13-5.27,4.26a5.9,5.9,0,0,0-.34,2.08V38.6h-4.16Z" transform="translate(-0.88 -0.52)"/>
    <path class="cls-1" d="M231.84,38.6V15.19h4.25V38.6Z" transform="translate(-0.88 -0.52)"/>
    <path class="cls-1" d="M245.58,27.62c.09,5.76,3.72,8.13,8,8.13A16.15,16.15,0,0,0,260,34.59l.77,3a19,19,0,0,1-7.83,1.5c-7.16,0-11.52-4.79-11.52-11.8s4.21-12.68,11-12.68c7.65,0,9.63,6.73,9.63,11a10.56,10.56,0,0,1-.15,2Zm12.43-3c.05-2.66-1.12-6.92-5.86-6.92-4.35,0-6.19,4-6.53,6.92Z" transform="translate(-0.88 -0.52)"/>
    <rect class="cls-2" x="230.96" y="6.14" width="4.26" height="4.26"/>
    <path class="cls-3" d="M36.68,17.56C25.36,19.75,18,27.86,17,35.38A57.58,57.58,0,0,0,.88,51.44v0H54v-4.3c-15.47,6.41-26.68-1.26-29-10.12-2.17.1-5.63.49-8,1.93a10.73,10.73,0,0,0,1.86,4.57,21.16,21.16,0,0,0,10,7.9H1A44.42,44.42,0,0,1,17,37.89l.08,0a35.36,35.36,0,0,1,7.62-3.18l.52-.16c10.33-3.33,21-3.72,28.83-3.29V20.84A25.13,25.13,0,0,0,36.68,17.56ZM24.94,31a12.94,12.94,0,0,1,6.79-8.4c9.75-5.31,15.61,3.3,15.42,3.3A57.53,57.53,0,0,0,24.94,31Z" transform="translate(-0.88 -0.52)"/>
    <path class="cls-4" d="M54.06,20.86V.52H54V20.84Z" transform="translate(-0.88 -0.52)"/>
    <path class="cls-2" d="M17,35.38c1-7.52,8.32-15.63,19.64-17.82A25.13,25.13,0,0,1,54,20.84V.52H.88V51.44A57.58,57.58,0,0,1,17,35.38Z" transform="translate(-0.88 -0.52)"/>
    <path class="cls-4" d="M54.06,47.16V31.23H54v16Z" transform="translate(-0.88 -0.52)"/>
    <path class="cls-2" d="M25.18,34.51l-.52.16A35.36,35.36,0,0,0,17,37.85l-.08,0A44.42,44.42,0,0,0,1,51.46H29a21.16,21.16,0,0,1-10-7.9A10.73,10.73,0,0,1,17.08,39c2.34-1.44,5.8-1.83,8-1.93,2.28,8.86,13.49,16.53,29,10.12v-16C46.18,30.79,35.51,31.18,25.18,34.51Z" transform="translate(-0.88 -0.52)"/>
    <path class="cls-2" d="M31.73,22.59A12.94,12.94,0,0,0,24.94,31a57.53,57.53,0,0,1,22.21-5.1C47.34,25.89,41.48,17.28,31.73,22.59Z" transform="translate(-0.88 -0.52)"/>
</svg>
