<?xml version="1.0" encoding="UTF-8"?>
<svg width="1579px" height="463px" viewBox="0 0 1579 463" version="1.1" xmlns="http://www.w3.org/2000/svg" xmlns:xlink="http://www.w3.org/1999/xlink">
    <title>Group</title>
    <g id="Page-1" stroke="none" stroke-width="1" fill="none" fill-rule="evenodd">
        <g id="Group" transform="translate(0.201594, 0.000000)">
            <polygon id="Triangle" fill="#000000" transform="translate(264.798406, 111.000000) rotate(180.000000) translate(-264.798406, -111.000000) " points="264.798406 -3.08086889e-14 389.798406 222 139.798406 222"></polygon>
            <polygon id="Triangle-Copy-2" fill="#FFE01D" transform="translate(264.798406, 346.000000) scale(1, -1) rotate(180.000000) translate(-264.798406, -346.000000) " points="264.798406 235 389.798406 457 139.798406 457"></polygon>
            <polygon id="Triangle-Copy-3" fill="#FFE01D" transform="translate(158.371412, 288.057918) scale(1, -1) rotate(120.000000) translate(-158.371412, -288.057918) " points="158.371412 177 282.75628 399.115835 33.9865441 399.115835"></polygon>
            <polygon id="Triangle-Copy-4" fill="#F14831" transform="translate(372.357956, 288.057918) scale(-1, -1) rotate(120.000000) translate(-372.357956, -288.057918) " points="372.357956 177 496.742824 399.115835 247.973088 399.115835"></polygon>
            <polygon id="Triangle-Copy" fill="#000000" transform="translate(158.371412, 169.057918) rotate(120.000000) translate(-158.371412, -169.057918) " points="158.371412 58 282.75628 280.115835 33.9865441 280.115835"></polygon>
            <path d="M632.859439,118 C646.437947,118 657.142172,114.285141 664.972115,106.855422 C672.802058,99.425703 677.410821,89.024096 678.798406,75.650602 L664.674775,75.650602 C664.377436,80.009371 663.485417,84.07095 661.998719,87.835341 C660.512021,91.599732 658.455422,94.844043 655.828922,97.568273 C653.202423,100.292503 650.080357,102.422356 646.462725,103.957831 C642.845094,105.493307 638.707118,106.261044 634.048797,106.261044 C627.705553,106.261044 622.254327,105.072289 617.69512,102.694779 C613.135913,100.317269 609.394389,97.12249 606.47055,93.110442 C603.546711,89.098394 601.390999,84.392905 600.003414,78.993976 C598.615829,73.595047 597.922037,67.874163 597.922037,61.831325 C597.922037,56.283802 598.615829,50.934404 600.003414,45.783133 C601.390999,40.631861 603.546711,36.050201 606.47055,32.0381526 C609.394389,28.0261044 613.111134,24.8313253 617.620785,22.4538153 C622.130435,20.0763052 627.556883,18.8875502 633.900127,18.8875502 C641.333617,18.8875502 647.751197,20.7697456 653.152866,24.5341365 C658.554535,28.2985274 662.048276,33.9451138 663.634087,41.473896 L677.757717,41.473896 C676.964812,35.827309 675.279887,30.8493976 672.702944,26.5401606 C670.126001,22.2309237 666.904822,18.6398929 663.039408,15.7670683 C659.173993,12.8942436 654.763456,10.7148594 649.807796,9.2289157 C644.852136,7.7429719 639.599136,7 634.048797,7 C625.921515,7 618.71103,8.461178 612.417342,11.3835341 C606.123654,14.3058902 600.870654,18.2931727 596.658343,23.3453815 C592.446032,28.3975904 589.249632,34.3166 587.069142,41.10241 C584.888651,47.88822 583.798406,55.144578 583.798406,62.871486 C583.798406,70.598394 584.814316,77.829987 586.846137,84.566265 C588.877957,91.302544 591.925688,97.147256 595.989329,102.100402 C600.05297,107.053548 605.1573,110.941767 611.302318,113.76506 C617.447337,116.588353 624.633043,118 632.859439,118 Z M703.610906,116 L703.610906,81.660288 C703.610906,76.683518 704.113357,72.279077 705.118259,68.446964 C706.123161,64.614852 707.731004,61.355067 709.941788,58.667612 C712.152573,55.980156 715.066788,53.93968 718.684435,52.546185 C722.302082,51.152689 726.673406,50.455941 731.798406,50.455941 L731.798406,37.018663 C724.864582,36.819592 719.136641,38.213088 714.614582,41.19915 C710.092524,44.185211 706.273896,48.813607 703.1587,55.084337 L702.85723,55.084337 L702.85723,38.8103 L690.798406,38.8103 L690.798406,116 L703.610906,116 Z M751.798406,25 L751.798406,10 L739.798406,10 L739.798406,25 L751.798406,25 Z M751.798406,115 L751.798406,38 L739.798406,38 L739.798406,115 L751.798406,115 Z M797.224374,117 C801.074032,117 804.948368,116.62963 808.847381,115.888889 C812.746394,115.148148 816.25057,113.839506 819.359909,111.962963 C822.469249,110.08642 824.986333,107.617284 826.911162,104.555556 C828.835991,101.493827 829.798406,97.641975 829.798406,93 C829.798406,89.345679 829.082764,86.283951 827.651481,83.814815 C826.220198,81.345679 824.344723,79.296296 822.025057,77.666667 C819.705392,76.037037 817.040244,74.728395 814.029613,73.740741 C811.018983,72.753086 807.934321,71.91358 804.775627,71.222222 C801.814351,70.530864 798.853076,69.864198 795.8918,69.222222 C792.930524,68.580247 790.265376,67.790123 787.896356,66.851852 C785.527335,65.91358 783.577829,64.728395 782.047837,63.296296 C780.517844,61.864198 779.752848,60.061728 779.752848,57.888889 C779.752848,55.91358 780.246394,54.308642 781.233486,53.074074 C782.220578,51.839506 783.503797,50.851852 785.083144,50.111111 C786.662491,49.37037 788.414579,48.851852 790.339408,48.555556 C792.264237,48.259259 794.164389,48.111111 796.039864,48.111111 C798.112757,48.111111 800.160972,48.333333 802.184511,48.777778 C804.208049,49.222222 806.058846,49.938272 807.736903,50.925926 C809.414959,51.91358 810.796887,53.222222 811.882688,54.851852 C812.96849,56.481481 813.610099,58.530864 813.807518,61 L826.392939,61 C826.096811,56.358025 825.10972,52.481481 823.431663,49.37037 C821.753607,46.259259 819.507973,43.790123 816.694761,41.962963 C813.88155,40.135802 810.648824,38.851852 806.996584,38.111111 C803.344344,37.37037 799.346622,37 795.003417,37 C791.647305,37 788.266515,37.419753 784.861048,38.259259 C781.455581,39.098765 778.395597,40.382716 775.681094,42.111111 C772.966591,43.839506 770.745635,46.08642 769.018224,48.851852 C767.290813,51.617284 766.427108,54.925926 766.427108,58.777778 C766.427108,63.716049 767.660972,67.567901 770.128702,70.333333 C772.596432,73.098765 775.681094,75.246914 779.382688,76.777778 C783.084283,78.308642 787.106682,79.493827 791.449887,80.333333 C795.793091,81.17284 799.81549,82.111111 803.517085,83.148148 C807.218679,84.185185 810.303341,85.54321 812.771071,87.222222 C815.238801,88.901235 816.472666,91.37037 816.472666,94.62963 C816.472666,97 815.880411,98.950617 814.6959,100.481481 C813.51139,102.012346 812.006075,103.17284 810.179955,103.962963 C808.353835,104.753086 806.354974,105.296296 804.183372,105.592593 C802.01177,105.888889 799.938877,106.037037 797.964693,106.037037 C795.398254,106.037037 792.905847,105.790123 790.487472,105.296296 C788.069097,104.802469 785.897495,103.987654 783.972666,102.851852 C782.047837,101.716049 780.493167,100.185185 779.308657,98.259259 C778.124146,96.333333 777.482537,93.987654 777.383827,91.222222 L764.798406,91.222222 C764.995824,95.962963 765.982916,99.987654 767.759682,103.296296 C769.536447,106.604938 771.905468,109.271605 774.866743,111.296296 C777.828019,113.320988 781.233486,114.777778 785.083144,115.666667 C788.932802,116.555556 792.979879,117 797.224374,117 Z M853.798406,25 L853.798406,10 L841.798406,10 L841.798406,25 L853.798406,25 Z M853.798406,115 L853.798406,38 L841.798406,38 L841.798406,115 L853.798406,115 Z M900.224374,117 C904.074032,117 907.948368,116.62963 911.847381,115.888889 C915.746394,115.148148 919.25057,113.839506 922.359909,111.962963 C925.469249,110.08642 927.986333,107.617284 929.911162,104.555556 C931.835991,101.493827 932.798406,97.641975 932.798406,93 C932.798406,89.345679 932.082764,86.283951 930.651481,83.814815 C929.220198,81.345679 927.344723,79.296296 925.025057,77.666667 C922.705392,76.037037 920.040244,74.728395 917.029613,73.740741 C914.018983,72.753086 910.934321,71.91358 907.775627,71.222222 C904.814351,70.530864 901.853076,69.864198 898.8918,69.222222 C895.930524,68.580247 893.265376,67.790123 890.896356,66.851852 C888.527335,65.91358 886.577829,64.728395 885.047837,63.296296 C883.517844,61.864198 882.752848,60.061728 882.752848,57.888889 C882.752848,55.91358 883.246394,54.308642 884.233486,53.074074 C885.220578,51.839506 886.503797,50.851852 888.083144,50.111111 C889.662491,49.37037 891.414579,48.851852 893.339408,48.555556 C895.264237,48.259259 897.164389,48.111111 899.039864,48.111111 C901.112757,48.111111 903.160972,48.333333 905.184511,48.777778 C907.208049,49.222222 909.058846,49.938272 910.736903,50.925926 C912.414959,51.91358 913.796887,53.222222 914.882688,54.851852 C915.96849,56.481481 916.610099,58.530864 916.807518,61 L929.392939,61 C929.096811,56.358025 928.10972,52.481481 926.431663,49.37037 C924.753607,46.259259 922.507973,43.790123 919.694761,41.962963 C916.88155,40.135802 913.648824,38.851852 909.996584,38.111111 C906.344344,37.37037 902.346622,37 898.003417,37 C894.647305,37 891.266515,37.419753 887.861048,38.259259 C884.455581,39.098765 881.395597,40.382716 878.681094,42.111111 C875.966591,43.839506 873.745635,46.08642 872.018224,48.851852 C870.290813,51.617284 869.427108,54.925926 869.427108,58.777778 C869.427108,63.716049 870.660972,67.567901 873.128702,70.333333 C875.596432,73.098765 878.681094,75.246914 882.382688,76.777778 C886.084283,78.308642 890.106682,79.493827 894.449887,80.333333 C898.793091,81.17284 902.81549,82.111111 906.517085,83.148148 C910.218679,84.185185 913.303341,85.54321 915.771071,87.222222 C918.238801,88.901235 919.472666,91.37037 919.472666,94.62963 C919.472666,97 918.880411,98.950617 917.6959,100.481481 C916.51139,102.012346 915.006075,103.17284 913.179955,103.962963 C911.353835,104.753086 909.354974,105.296296 907.183372,105.592593 C905.01177,105.888889 902.938877,106.037037 900.964693,106.037037 C898.398254,106.037037 895.905847,105.790123 893.487472,105.296296 C891.069097,104.802469 888.897495,103.987654 886.972666,102.851852 C885.047837,101.716049 883.493167,100.185185 882.308657,98.259259 C881.124146,96.333333 880.482537,93.987654 880.383827,91.222222 L867.798406,91.222222 C867.995824,95.962963 868.982916,99.987654 870.759682,103.296296 C872.536447,106.604938 874.905468,109.271605 877.866743,111.296296 C880.828019,113.320988 884.233486,114.777778 888.083144,115.666667 C891.932802,116.555556 895.979879,117 900.224374,117 Z M975.326066,117 C985.015427,117 992.673938,114.432099 998.301597,109.296296 C1003.92926,104.160494 1007.42819,96.851852 1008.79841,87.37037 L996.026066,87.37037 C995.243087,93.296296 993.114363,97.888889 989.639895,101.148148 C986.165427,104.407407 981.345215,106.037037 975.179257,106.037037 C971.264363,106.037037 967.887768,105.246914 965.04947,103.666667 C962.211172,102.08642 959.911172,99.987654 958.14947,97.37037 C956.387768,94.753086 955.090959,91.765432 954.259044,88.407407 C953.427129,85.049383 953.011172,81.592593 953.011172,78.037037 C953.011172,74.185185 953.402661,70.45679 954.18564,66.851852 C954.968619,63.246914 956.265427,60.061728 958.076066,57.296296 C959.886704,54.530864 962.309044,52.308642 965.343087,50.62963 C968.377129,48.950617 972.145215,48.111111 976.647342,48.111111 C981.932449,48.111111 986.140959,49.444444 989.272874,52.111111 C992.404789,54.777778 994.460108,58.530864 995.438832,63.37037 L1008.35798,63.37037 C1007.86862,58.82716 1006.69415,54.901235 1004.83458,51.592593 C1002.975,48.283951 1000.6016,45.54321 997.714363,43.37037 C994.827129,41.197531 991.49947,39.592593 987.731385,38.555556 C983.9633,37.518519 979.926066,37 975.619683,37 C969.64947,37 964.4133,38.061728 959.911172,40.185185 C955.409044,42.308642 951.665427,45.222222 948.680321,48.925926 C945.695215,52.62963 943.468619,56.975309 942.000534,61.962963 C940.532449,66.950617 939.798406,72.308642 939.798406,78.037037 C939.798406,83.765432 940.556917,89.024691 942.073938,93.814815 C943.590959,98.604938 945.842023,102.728395 948.827129,106.185185 C951.812236,109.641975 955.531385,112.308642 959.984576,114.185185 C964.437768,116.061728 969.551597,117 975.326066,117 Z M1053.6877,117 C1062.4142,117 1069.65323,114.82716 1075.4048,110.481481 C1081.15635,106.135802 1084.87503,99.666667 1086.56083,91.074074 L1074.06607,91.074074 C1072.97526,96.111111 1070.71926,99.864198 1067.29807,102.333333 C1063.87689,104.802469 1059.48884,106.037037 1054.13395,106.037037 C1049.96902,106.037037 1046.34951,105.345679 1043.2754,103.962963 C1040.20129,102.580247 1037.67259,100.728395 1035.6893,98.407407 C1033.706,96.08642 1032.26811,93.419753 1031.37563,90.407407 C1030.48315,87.395062 1030.08649,84.209877 1030.18565,80.851852 L1087.75081,80.851852 C1087.94914,76.209877 1087.52769,71.320988 1086.48646,66.185185 C1085.44523,61.049383 1083.5611,56.308642 1080.83407,51.962963 C1078.10704,47.617284 1074.48752,44.037037 1069.97552,41.222222 C1065.46352,38.407407 1059.78634,37 1052.94397,37 C1047.68823,37 1042.85395,37.987654 1038.44112,39.962963 C1034.02829,41.938272 1030.21044,44.703704 1026.98759,48.259259 C1023.76473,51.814815 1021.26082,56.012346 1019.47585,60.851852 C1017.69089,65.691358 1016.79841,71.024691 1016.79841,76.851852 C1016.99674,82.679012 1017.86443,88.061728 1019.40148,93 C1020.93854,97.938272 1023.24412,102.185185 1026.31822,105.740741 C1029.39233,109.296296 1033.18539,112.061728 1037.69738,114.037037 C1042.20938,116.012346 1047.53949,117 1053.6877,117 Z M1075.79841,70 L1030.79841,70 C1031.00043,66.986301 1031.65699,64.148402 1032.7681,61.486301 C1033.87921,58.824201 1035.39437,56.488584 1037.31356,54.479452 C1039.23275,52.47032 1041.53073,50.888128 1044.2075,49.732877 C1046.88426,48.577626 1049.88931,48 1053.22265,48 C1056.45497,48 1059.40952,48.577626 1062.08628,49.732877 C1064.76305,50.888128 1067.08628,52.445205 1069.05598,54.40411 C1071.02568,56.363014 1072.59134,58.69863 1073.75296,61.410959 C1074.91457,64.123288 1075.59639,66.986301 1075.79841,70 Z M1111.50869,116 L1111.50869,72.393195 C1111.50869,68.908633 1111.98221,65.697858 1112.92925,62.76087 C1113.87629,59.823882 1115.29685,57.260239 1117.19093,55.069943 C1119.08501,52.879647 1121.45262,51.187146 1124.29374,49.992439 C1127.13486,48.797732 1130.49934,48.200378 1134.3872,48.200378 C1139.27193,48.200378 1143.10994,49.594203 1145.90121,52.381853 C1148.69249,55.169502 1150.08813,58.952741 1150.08813,63.731569 L1150.08813,116 L1162.79841,116 L1162.79841,65.224953 C1162.79841,61.043478 1162.37473,57.23535 1161.52738,53.800567 C1160.68003,50.365784 1159.20962,47.403907 1157.11617,44.914934 C1155.02271,42.425961 1152.28128,40.484562 1148.89187,39.090737 C1145.50246,37.696912 1141.2657,37 1136.18159,37 C1124.71741,37 1116.34358,41.679269 1111.06009,51.037807 L1110.76103,51.037807 L1110.76103,38.79206 L1098.79841,38.79206 L1098.79841,116 L1111.50869,116 Z M1212.79841,116 L1212.79841,104.727679 L1207.00493,104.727679 C1205.02426,104.727679 1203.41496,104.65253 1202.17703,104.502232 C1200.93911,104.351935 1199.97353,104.02629 1199.28029,103.525298 C1198.58706,103.024306 1198.11665,102.322917 1197.86906,101.421131 C1197.62148,100.519345 1197.49769,99.316964 1197.49769,97.813988 L1197.49769,49.568452 L1212.79841,49.568452 L1212.79841,38.296131 L1197.49769,38.296131 L1197.49769,15 L1184.87087,15 L1184.87087,38.296131 L1171.79841,38.296131 L1171.79841,49.568452 L1184.87087,49.568452 L1184.87087,99.016369 C1184.87087,102.623512 1185.21749,105.529266 1185.91073,107.733631 C1186.60397,109.937996 1187.66858,111.641369 1189.10457,112.84375 C1190.54056,114.046131 1192.4222,114.872768 1194.7495,115.323661 C1197.07679,115.774554 1199.8745,116 1203.14261,116 L1212.79841,116 Z M1235.61091,116 L1235.61091,81.660288 C1235.61091,76.683518 1236.11336,72.279077 1237.11826,68.446964 C1238.12316,64.614852 1239.73101,61.355067 1241.94179,58.667612 C1244.15258,55.980156 1247.06679,53.93968 1250.68444,52.546185 C1254.30209,51.152689 1258.67341,50.455941 1263.79841,50.455941 L1263.79841,37.018663 C1256.86459,36.819592 1251.13665,38.213088 1246.61459,41.19915 C1242.09253,44.185211 1238.2739,48.813607 1235.1587,55.084337 L1234.85723,55.084337 L1234.85723,38.8103 L1222.79841,38.8103 L1222.79841,116 L1235.61091,116 Z M1297.41523,117 C1303.09748,117 1308.03205,115.877841 1312.21897,113.633523 C1316.40589,111.389205 1319.84514,107.873106 1322.53673,103.085227 L1322.83579,103.085227 L1322.83579,115.354167 L1334.79841,115.354167 L1334.79841,38 L1322.08813,38 L1322.08813,81.689394 C1322.08813,85.180556 1321.61461,88.397412 1320.66757,91.339962 C1319.72053,94.282513 1318.29997,96.85101 1316.40589,99.045455 C1314.51181,101.239899 1312.1442,102.935606 1309.30308,104.132576 C1306.46196,105.329545 1303.09748,105.92803 1299.20962,105.92803 C1294.32489,105.92803 1290.48688,104.531566 1287.69561,101.738636 C1284.90433,98.945707 1283.50869,95.155303 1283.50869,90.367424 L1283.50869,38 L1270.79841,38 L1270.79841,88.871212 C1270.79841,93.060606 1271.22209,96.875947 1272.06944,100.317235 C1272.91679,103.758523 1274.3872,106.72601 1276.48065,109.219697 C1278.57411,111.713384 1281.31554,113.633523 1284.70495,114.980114 C1288.09436,116.326705 1292.33112,117 1297.41523,117 Z M1363.34324,116 L1363.34324,67.913043 C1363.34324,66.41966 1363.7122,64.55293 1364.45013,62.312854 C1365.18807,60.072779 1366.36875,57.907372 1367.9922,55.816635 C1369.61565,53.725898 1371.73105,51.933837 1374.33841,50.440454 C1376.94577,48.94707 1380.06967,48.200378 1383.71013,48.200378 C1386.56347,48.200378 1388.90025,48.623503 1390.72048,49.469754 C1392.54071,50.316005 1393.99197,51.510712 1395.07427,53.053875 C1396.15657,54.597038 1396.9191,56.413989 1397.36186,58.504726 C1397.80462,60.595463 1398.026,62.885318 1398.026,65.374291 L1398.026,116 L1410.57082,116 L1410.57082,67.913043 C1410.57082,61.939509 1412.34186,57.160681 1415.88393,53.57656 C1419.426,49.992439 1424.29634,48.200378 1430.49496,48.200378 C1433.54508,48.200378 1436.02944,48.648393 1437.94807,49.544423 C1439.86669,50.440454 1441.36715,51.66005 1442.44944,53.203214 C1443.53174,54.746377 1444.26967,56.563327 1444.66324,58.654064 C1445.0568,60.744802 1445.25358,62.984877 1445.25358,65.374291 L1445.25358,116 L1457.79841,116 L1457.79841,59.400756 C1457.79841,55.418399 1457.18347,52.008507 1455.95358,49.171078 C1454.7237,46.333648 1453.00186,44.018904 1450.78807,42.226843 C1448.57427,40.434783 1445.91772,39.115627 1442.81841,38.269376 C1439.7191,37.423125 1436.25082,37 1432.41358,37 C1427.39565,37 1422.79588,38.144928 1418.61427,40.434783 C1414.43266,42.724638 1411.06278,45.960302 1408.50462,50.141777 C1406.93036,45.362949 1404.22462,41.977946 1400.38738,39.986767 C1396.55013,37.995589 1392.27013,37 1387.54738,37 C1376.82278,37 1368.60715,41.380592 1362.90048,50.141777 L1362.60531,50.141777 L1362.60531,38.79206 L1350.79841,38.79206 L1350.79841,116 L1363.34324,116 Z M632.859439,291 C646.437947,291 657.142172,287.285141 664.972115,279.855422 C672.802058,272.425703 677.410821,262.024096 678.798406,248.650602 L664.674775,248.650602 C664.377436,253.009371 663.485417,257.07095 661.998719,260.835341 C660.512021,264.599732 658.455422,267.844043 655.828922,270.568273 C653.202423,273.292503 650.080357,275.422356 646.462725,276.957831 C642.845094,278.493307 638.707118,279.261044 634.048797,279.261044 C627.705553,279.261044 622.254327,278.072289 617.69512,275.694779 C613.135913,273.317269 609.394389,270.12249 606.47055,266.110442 C603.546711,262.098394 601.390999,257.392905 600.003414,251.993976 C598.615829,246.595047 597.922037,240.874163 597.922037,234.831325 C597.922037,229.283802 598.615829,223.934404 600.003414,218.783133 C601.390999,213.631861 603.546711,209.050201 606.47055,205.038153 C609.394389,201.026104 613.111134,197.831325 617.620785,195.453815 C622.130435,193.076305 627.556883,191.88755 633.900127,191.88755 C641.333617,191.88755 647.751197,193.769746 653.152866,197.534137 C658.554535,201.298527 662.048276,206.945114 663.634087,214.473896 L677.757717,214.473896 C676.964812,208.827309 675.279887,203.849398 672.702944,199.540161 C670.126001,195.230924 666.904822,191.639893 663.039408,188.767068 C659.173993,185.894244 654.763456,183.714859 649.807796,182.228916 C644.852136,180.742972 639.599136,180 634.048797,180 C625.921515,180 618.71103,181.461178 612.417342,184.383534 C606.123654,187.30589 600.870654,191.293173 596.658343,196.345382 C592.446032,201.39759 589.249632,207.3166 587.069142,214.10241 C584.888651,220.88822 583.798406,228.144578 583.798406,235.871486 C583.798406,243.598394 584.814316,250.829987 586.846137,257.566265 C588.877957,264.302544 591.925688,270.147256 595.989329,275.100402 C600.05297,280.053548 605.1573,283.941767 611.302318,286.76506 C617.447337,289.588353 624.633043,291 632.859439,291 Z M723.687705,289 C732.414205,289 739.653234,286.82716 745.404792,282.481481 C751.156349,278.135802 754.875028,271.666667 756.56083,263.074074 L744.066067,263.074074 C742.975255,268.111111 740.719256,271.864198 737.298071,274.333333 C733.876886,276.802469 729.488844,278.037037 724.133946,278.037037 C719.969025,278.037037 716.349511,277.345679 713.275403,275.962963 C710.201294,274.580247 707.672592,272.728395 705.689297,270.407407 C703.706001,268.08642 702.268112,265.419753 701.375629,262.407407 C700.483146,259.395062 700.086487,256.209877 700.185651,252.851852 L757.750807,252.851852 C757.949136,248.209877 757.527686,243.320988 756.486456,238.185185 C755.445226,233.049383 753.561095,228.308642 750.834063,223.962963 C748.107032,219.617284 744.487517,216.037037 739.97552,213.222222 C735.463522,210.407407 729.786339,209 722.943969,209 C717.688235,209 712.853952,209.987654 708.441119,211.962963 C704.028287,213.938272 700.210443,216.703704 696.987587,220.259259 C693.764732,223.814815 691.260821,228.012346 689.475855,232.851852 C687.690889,237.691358 686.798406,243.024691 686.798406,248.851852 C686.996736,254.679012 687.864427,260.061728 689.401482,265 C690.938536,269.938272 693.244117,274.185185 696.318225,277.740741 C699.392333,281.296296 703.185386,284.061728 707.697384,286.037037 C712.209381,288.012346 717.539488,289 723.687705,289 Z M745.798406,242 L700.798406,242 C701.000426,238.986301 701.656992,236.148402 702.768103,233.486301 C703.879214,230.824201 705.394366,228.488584 707.313558,226.479452 C709.232749,224.47032 711.530729,222.888128 714.207497,221.732877 C716.884265,220.577626 719.889315,220 723.222648,220 C726.454972,220 729.409517,220.577626 732.086285,221.732877 C734.763052,222.888128 737.086285,224.445205 739.055982,226.40411 C741.025679,228.363014 742.591335,230.69863 743.752951,233.410959 C744.914568,236.123288 745.596386,238.986301 745.798406,242 Z M781.508686,288 L781.508686,244.393195 C781.508686,240.908633 781.982207,237.697858 782.929247,234.76087 C783.876288,231.823882 785.296848,229.260239 787.190929,227.069943 C789.08501,224.879647 791.452612,223.187146 794.293733,221.992439 C797.134855,220.797732 800.499341,220.200378 804.387191,220.200378 C809.271926,220.200378 813.109932,221.594203 815.90121,224.381853 C818.692487,227.169502 820.088126,230.952741 820.088126,235.731569 L820.088126,288 L832.798406,288 L832.798406,237.224953 C832.798406,233.043478 832.37473,229.23535 831.527378,225.800567 C830.680026,222.365784 829.209621,219.403907 827.116163,216.914934 C825.022705,214.425961 822.281272,212.484562 818.891864,211.090737 C815.502456,209.696912 811.265696,209 806.181584,209 C794.717409,209 786.343577,213.679269 781.060088,223.037807 L780.761023,223.037807 L780.761023,210.79206 L768.798406,210.79206 L768.798406,288 L781.508686,288 Z M882.798406,288 L882.798406,276.727679 L877.004928,276.727679 C875.024251,276.727679 873.414952,276.65253 872.177029,276.502232 C870.939106,276.351935 869.973527,276.02629 869.28029,275.525298 C868.587053,275.024306 868.116643,274.322917 867.869058,273.421131 C867.621474,272.519345 867.497681,271.316964 867.497681,269.813988 L867.497681,221.568452 L882.798406,221.568452 L882.798406,210.296131 L867.497681,210.296131 L867.497681,187 L854.87087,187 L854.87087,210.296131 L841.798406,210.296131 L841.798406,221.568452 L854.87087,221.568452 L854.87087,271.016369 C854.87087,274.623512 855.217488,277.529266 855.910725,279.733631 C856.603962,281.937996 857.668575,283.641369 859.104565,284.84375 C860.540556,286.046131 862.422198,286.872768 864.749493,287.323661 C867.076788,287.774554 869.874493,288 873.142609,288 L882.798406,288 Z M905.610906,288 L905.610906,253.660288 C905.610906,248.683518 906.113357,244.279077 907.118259,240.446964 C908.123161,236.614852 909.731004,233.355067 911.941788,230.667612 C914.152573,227.980156 917.066788,225.93968 920.684435,224.546185 C924.302082,223.152689 928.673406,222.455941 933.798406,222.455941 L933.798406,209.018663 C926.864582,208.819592 921.136641,210.213088 916.614582,213.19915 C912.092524,216.185211 908.273896,220.813607 905.1587,227.084337 L904.85723,227.084337 L904.85723,210.8103 L892.798406,210.8103 L892.798406,288 L905.610906,288 Z M970.687705,289 C979.414205,289 986.653234,286.82716 992.404792,282.481481 C998.156349,278.135802 1001.87503,271.666667 1003.56083,263.074074 L991.066067,263.074074 C989.975255,268.111111 987.719256,271.864198 984.298071,274.333333 C980.876886,276.802469 976.488844,278.037037 971.133946,278.037037 C966.969025,278.037037 963.349511,277.345679 960.275403,275.962963 C957.201294,274.580247 954.672592,272.728395 952.689297,270.407407 C950.706001,268.08642 949.268112,265.419753 948.375629,262.407407 C947.483146,259.395062 947.086487,256.209877 947.185651,252.851852 L1004.75081,252.851852 C1004.94914,248.209877 1004.52769,243.320988 1003.48646,238.185185 C1002.44523,233.049383 1000.56109,228.308642 997.834063,223.962963 C995.107032,219.617284 991.487517,216.037037 986.97552,213.222222 C982.463522,210.407407 976.786339,209 969.943969,209 C964.688235,209 959.853952,209.987654 955.441119,211.962963 C951.028287,213.938272 947.210443,216.703704 943.987587,220.259259 C940.764732,223.814815 938.260821,228.012346 936.475855,232.851852 C934.690889,237.691358 933.798406,243.024691 933.798406,248.851852 C933.996736,254.679012 934.864427,260.061728 936.401482,265 C937.938536,269.938272 940.244117,274.185185 943.318225,277.740741 C946.392333,281.296296 950.185386,284.061728 954.697384,286.037037 C959.209381,288.012346 964.539488,289 970.687705,289 Z M992.798406,242 L947.798406,242 C948.000426,238.986301 948.656992,236.148402 949.768103,233.486301 C950.879214,230.824201 952.394366,228.488584 954.313558,226.479452 C956.232749,224.47032 958.530729,222.888128 961.207497,221.732877 C963.884265,220.577626 966.889315,220 970.222648,220 C973.454972,220 976.409517,220.577626 979.086285,221.732877 C981.763052,222.888128 984.086285,224.445205 986.055982,226.40411 C988.025679,228.363014 989.591335,230.69863 990.752951,233.410959 C991.914568,236.123288 992.596386,238.986301 992.798406,242 Z M1086.25555,289 C1091.61882,289 1096.53514,288.065287 1101.00453,286.195862 C1105.47392,284.326437 1108.75147,281.276322 1110.83719,277.045517 L1111.13514,277.045517 L1111.13514,287.376552 L1123.79841,287.376552 L1123.79841,182 L1111.13514,182 L1111.13514,221.257931 L1110.83719,221.257931 C1109.44671,218.994943 1107.73344,217.10092 1105.69739,215.575862 C1103.66134,214.050805 1101.50113,212.82092 1099.21678,211.886207 C1096.93242,210.951494 1094.64807,210.287356 1092.36372,209.893793 C1090.07936,209.50023 1087.94399,209.303448 1085.95759,209.303448 C1080.09773,209.303448 1074.95793,210.361149 1070.5382,212.476552 C1066.11847,214.591954 1062.44364,217.445287 1059.51371,221.036552 C1056.58378,224.627816 1054.39875,228.834023 1052.95861,233.655172 C1051.51847,238.476322 1050.79841,243.592644 1050.79841,249.004138 C1050.79841,254.415632 1051.5433,259.531954 1053.0331,264.353103 C1054.5229,269.174253 1056.73276,273.405057 1059.66269,277.045517 C1062.59262,280.685977 1066.26745,283.588506 1070.68718,285.753103 C1075.10691,287.917701 1080.29637,289 1086.25555,289 Z M1086.94935,278 C1082.82357,278 1079.22608,277.208866 1076.1569,275.626598 C1073.08772,274.044331 1070.57199,271.918159 1068.60973,269.248082 C1066.64746,266.578005 1065.18834,263.537084 1064.23237,260.12532 C1063.27639,256.713555 1062.79841,253.227621 1062.79841,249.667519 C1062.79841,245.909633 1063.20092,242.250639 1064.00595,238.690537 C1064.81098,235.130435 1066.11916,231.965899 1067.93048,229.196931 C1069.7418,226.427962 1072.1569,224.202899 1075.17577,222.521739 C1078.19464,220.84058 1081.86759,220 1086.19464,220 C1090.62231,220 1094.39589,220.815857 1097.51539,222.44757 C1100.63489,224.079284 1103.17577,226.230179 1105.13803,228.900256 C1107.1003,231.570332 1108.53426,234.660699 1109.43992,238.171355 C1110.34558,241.682012 1110.79841,245.316283 1110.79841,249.074169 C1110.79841,252.634271 1110.37074,256.144928 1109.51539,259.606138 C1108.66005,263.067349 1107.2764,266.157715 1105.36445,268.877238 C1103.4525,271.59676 1100.98709,273.797101 1097.96822,275.478261 C1094.94935,277.15942 1091.2764,278 1086.94935,278 Z M1173.68771,289 C1182.41421,289 1189.65324,286.82716 1195.4048,282.481481 C1201.15635,278.135802 1204.87503,271.666667 1206.56083,263.074074 L1194.06607,263.074074 C1192.97526,268.111111 1190.71926,271.864198 1187.29807,274.333333 C1183.87689,276.802469 1179.48885,278.037037 1174.13395,278.037037 C1169.96903,278.037037 1166.34951,277.345679 1163.27541,275.962963 C1160.2013,274.580247 1157.6726,272.728395 1155.6893,270.407407 C1153.70601,268.08642 1152.26812,265.419753 1151.37563,262.407407 C1150.48315,259.395062 1150.08649,256.209877 1150.18566,252.851852 L1207.75081,252.851852 C1207.94914,248.209877 1207.52769,243.320988 1206.48646,238.185185 C1205.44523,233.049383 1203.5611,228.308642 1200.83407,223.962963 C1198.10704,219.617284 1194.48752,216.037037 1189.97552,213.222222 C1185.46353,210.407407 1179.78634,209 1172.94397,209 C1167.68824,209 1162.85396,209.987654 1158.44112,211.962963 C1154.02829,213.938272 1150.21045,216.703704 1146.98759,220.259259 C1143.76474,223.814815 1141.26083,228.012346 1139.47586,232.851852 C1137.69089,237.691358 1136.79841,243.024691 1136.79841,248.851852 C1136.99674,254.679012 1137.86443,260.061728 1139.40149,265 C1140.93854,269.938272 1143.24412,274.185185 1146.31823,277.740741 C1149.39234,281.296296 1153.18539,284.061728 1157.69739,286.037037 C1162.20939,288.012346 1167.53949,289 1173.68771,289 Z M1194.79841,242 L1149.79841,242 C1150.00043,238.986301 1150.657,236.148402 1151.76811,233.486301 C1152.87922,230.824201 1154.39437,228.488584 1156.31356,226.479452 C1158.23275,224.47032 1160.53073,222.888128 1163.2075,221.732877 C1165.88427,220.577626 1168.88932,220 1172.22265,220 C1175.45498,220 1178.40952,220.577626 1181.08629,221.732877 C1183.76306,222.888128 1186.08629,224.445205 1188.05599,226.40411 C1190.02568,228.363014 1191.59134,230.69863 1192.75296,233.410959 C1193.91457,236.123288 1194.59639,238.986301 1194.79841,242 Z M1302.85944,291 C1316.43795,291 1327.14218,287.285141 1334.97212,279.855422 C1342.80206,272.425703 1347.41083,262.024096 1348.79841,248.650602 L1334.67478,248.650602 C1334.37744,253.009371 1333.48542,257.07095 1331.99872,260.835341 C1330.51203,264.599732 1328.45543,267.844043 1325.82893,270.568273 C1323.20243,273.292503 1320.08036,275.422356 1316.46273,276.957831 C1312.8451,278.493307 1308.70712,279.261044 1304.0488,279.261044 C1297.70556,279.261044 1292.25433,278.072289 1287.69512,275.694779 C1283.13592,273.317269 1279.39439,270.12249 1276.47055,266.110442 C1273.54671,262.098394 1271.391,257.392905 1270.00342,251.993976 C1268.61583,246.595047 1267.92204,240.874163 1267.92204,234.831325 C1267.92204,229.283802 1268.61583,223.934404 1270.00342,218.783133 C1271.391,213.631861 1273.54671,209.050201 1276.47055,205.038153 C1279.39439,201.026104 1283.11114,197.831325 1287.62079,195.453815 C1292.13044,193.076305 1297.55689,191.88755 1303.90013,191.88755 C1311.33362,191.88755 1317.7512,193.769746 1323.15287,197.534137 C1328.55454,201.298527 1332.04828,206.945114 1333.63409,214.473896 L1347.75772,214.473896 C1346.96482,208.827309 1345.27989,203.849398 1342.70295,199.540161 C1340.12601,195.230924 1336.90483,191.639893 1333.03941,188.767068 C1329.174,185.894244 1324.76346,183.714859 1319.8078,182.228916 C1314.85214,180.742972 1309.59914,180 1304.0488,180 C1295.92152,180 1288.71103,181.461178 1282.41735,184.383534 C1276.12366,187.30589 1270.87066,191.293173 1266.65835,196.345382 C1262.44604,201.39759 1259.24964,207.3166 1257.06915,214.10241 C1254.88866,220.88822 1253.79841,228.144578 1253.79841,235.871486 C1253.79841,243.598394 1254.81432,250.829987 1256.84614,257.566265 C1258.87796,264.302544 1261.92569,270.147256 1265.98933,275.100402 C1270.05297,280.053548 1275.1573,283.941767 1281.30232,286.76506 C1287.44734,289.588353 1294.63305,291 1302.85944,291 Z M1374.61091,288 L1374.61091,253.660288 C1374.61091,248.683518 1375.11336,244.279077 1376.11826,240.446964 C1377.12316,236.614852 1378.73101,233.355067 1380.94179,230.667612 C1383.15258,227.980156 1386.06679,225.93968 1389.68444,224.546185 C1393.30209,223.152689 1397.67341,222.455941 1402.79841,222.455941 L1402.79841,209.018663 C1395.86459,208.819592 1390.13665,210.213088 1385.61459,213.19915 C1381.09253,216.185211 1377.2739,220.813607 1374.1587,227.084337 L1373.85723,227.084337 L1373.85723,210.8103 L1361.79841,210.8103 L1361.79841,288 L1374.61091,288 Z M1422.79841,197 L1422.79841,182 L1410.79841,182 L1410.79841,197 L1422.79841,197 Z M1422.79841,288 L1422.79841,211 L1410.79841,211 L1410.79841,288 L1422.79841,288 Z M1468.22438,289 C1472.07404,289 1475.94837,288.62963 1479.84738,287.888889 C1483.7464,287.148148 1487.25057,285.839506 1490.35991,283.962963 C1493.46925,282.08642 1495.98634,279.617284 1497.91117,276.555556 C1499.836,273.493827 1500.79841,269.641975 1500.79841,265 C1500.79841,261.345679 1500.08277,258.283951 1498.65149,255.814815 C1497.2202,253.345679 1495.34473,251.296296 1493.02506,249.666667 C1490.7054,248.037037 1488.04025,246.728395 1485.02962,245.740741 C1482.01899,244.753086 1478.93432,243.91358 1475.77563,243.222222 C1472.81436,242.530864 1469.85308,241.864198 1466.8918,241.222222 C1463.93053,240.580247 1461.26538,239.790123 1458.89636,238.851852 C1456.52734,237.91358 1454.57783,236.728395 1453.04784,235.296296 C1451.51785,233.864198 1450.75285,232.061728 1450.75285,229.888889 C1450.75285,227.91358 1451.2464,226.308642 1452.23349,225.074074 C1453.22058,223.839506 1454.5038,222.851852 1456.08315,222.111111 C1457.6625,221.37037 1459.41458,220.851852 1461.33941,220.555556 C1463.26424,220.259259 1465.16439,220.111111 1467.03987,220.111111 C1469.11276,220.111111 1471.16098,220.333333 1473.18451,220.777778 C1475.20805,221.222222 1477.05885,221.938272 1478.73691,222.925926 C1480.41496,223.91358 1481.79689,225.222222 1482.88269,226.851852 C1483.96849,228.481481 1484.6101,230.530864 1484.80752,233 L1497.39294,233 C1497.09682,228.358025 1496.10972,224.481481 1494.43167,221.37037 C1492.75361,218.259259 1490.50798,215.790123 1487.69477,213.962963 C1484.88155,212.135802 1481.64883,210.851852 1477.99659,210.111111 C1474.34435,209.37037 1470.34663,209 1466.00342,209 C1462.64731,209 1459.26652,209.419753 1455.86105,210.259259 C1452.45559,211.098765 1449.3956,212.382716 1446.6811,214.111111 C1443.9666,215.839506 1441.74564,218.08642 1440.01823,220.851852 C1438.29082,223.617284 1437.42711,226.925926 1437.42711,230.777778 C1437.42711,235.716049 1438.66098,239.567901 1441.12871,242.333333 C1443.59644,245.098765 1446.6811,247.246914 1450.38269,248.777778 C1454.08429,250.308642 1458.10669,251.493827 1462.44989,252.333333 C1466.79309,253.17284 1470.81549,254.111111 1474.51709,255.148148 C1478.21868,256.185185 1481.30335,257.54321 1483.77108,259.222222 C1486.2388,260.901235 1487.47267,263.37037 1487.47267,266.62963 C1487.47267,269 1486.88041,270.950617 1485.6959,272.481481 C1484.51139,274.012346 1483.00608,275.17284 1481.17996,275.962963 C1479.35384,276.753086 1477.35498,277.296296 1475.18338,277.592593 C1473.01177,277.888889 1470.93888,278.037037 1468.9647,278.037037 C1466.39826,278.037037 1463.90585,277.790123 1461.48748,277.296296 C1459.0691,276.802469 1456.8975,275.987654 1454.97267,274.851852 C1453.04784,273.716049 1451.49317,272.185185 1450.30866,270.259259 C1449.12415,268.333333 1448.48254,265.987654 1448.38383,263.222222 L1435.79841,263.222222 C1435.99583,267.962963 1436.98292,271.987654 1438.75969,275.296296 C1440.53645,278.604938 1442.90547,281.271605 1445.86675,283.296296 C1448.82802,285.320988 1452.23349,286.777778 1456.08315,287.666667 C1459.93281,288.555556 1463.97988,289 1468.22438,289 Z M1543.68771,289 C1552.41421,289 1559.65324,286.82716 1565.4048,282.481481 C1571.15635,278.135802 1574.87503,271.666667 1576.56083,263.074074 L1564.06607,263.074074 C1562.97526,268.111111 1560.71926,271.864198 1557.29807,274.333333 C1553.87689,276.802469 1549.48885,278.037037 1544.13395,278.037037 C1539.96903,278.037037 1536.34951,277.345679 1533.27541,275.962963 C1530.2013,274.580247 1527.6726,272.728395 1525.6893,270.407407 C1523.70601,268.08642 1522.26812,265.419753 1521.37563,262.407407 C1520.48315,259.395062 1520.08649,256.209877 1520.18566,252.851852 L1577.75081,252.851852 C1577.94914,248.209877 1577.52769,243.320988 1576.48646,238.185185 C1575.44523,233.049383 1573.5611,228.308642 1570.83407,223.962963 C1568.10704,219.617284 1564.48752,216.037037 1559.97552,213.222222 C1555.46353,210.407407 1549.78634,209 1542.94397,209 C1537.68824,209 1532.85396,209.987654 1528.44112,211.962963 C1524.02829,213.938272 1520.21045,216.703704 1516.98759,220.259259 C1513.76474,223.814815 1511.26083,228.012346 1509.47586,232.851852 C1507.69089,237.691358 1506.79841,243.024691 1506.79841,248.851852 C1506.99674,254.679012 1507.86443,260.061728 1509.40149,265 C1510.93854,269.938272 1513.24412,274.185185 1516.31823,277.740741 C1519.39234,281.296296 1523.18539,284.061728 1527.69739,286.037037 C1532.20939,288.012346 1537.53949,289 1543.68771,289 Z M1565.79841,242 L1520.79841,242 C1521.00043,238.986301 1521.657,236.148402 1522.76811,233.486301 C1523.87922,230.824201 1525.39437,228.488584 1527.31356,226.479452 C1529.23275,224.47032 1531.53073,222.888128 1534.2075,221.732877 C1536.88427,220.577626 1539.88932,220 1543.22265,220 C1546.45498,220 1549.40952,220.577626 1552.08629,221.732877 C1554.76306,222.888128 1557.08629,224.445205 1559.05599,226.40411 C1561.02568,228.363014 1562.59134,230.69863 1563.75296,233.410959 C1564.91457,236.123288 1565.59639,238.986301 1565.79841,242 Z M601.920028,461 L601.920028,423.885154 L619.609217,407.406162 L657.960568,461 L675.798406,461 L629.271379,397.756303 L674.014622,355 L655.730838,355 L601.920028,407.851541 L601.920028,355 L587.798406,355 L587.798406,461 L601.920028,461 Z M695.610906,461 L695.610906,426.660288 C695.610906,421.683518 696.113357,417.279077 697.118259,413.446964 C698.123161,409.614852 699.731004,406.355067 701.941788,403.667612 C704.152573,400.980156 707.066788,398.93968 710.684435,397.546185 C714.302082,396.152689 718.673406,395.455941 723.798406,395.455941 L723.798406,382.018663 C716.864582,381.819592 711.136641,383.213088 706.614582,386.19915 C702.092524,389.185211 698.273896,393.813607 695.1587,400.084337 L694.85723,400.084337 L694.85723,383.8103 L682.798406,383.8103 L682.798406,461 L695.610906,461 Z M743.798406,370 L743.798406,355 L731.798406,355 L731.798406,370 L743.798406,370 Z M743.798406,460 L743.798406,383 L731.798406,383 L731.798406,460 L743.798406,460 Z M788.224374,462 C792.074032,462 795.948368,461.62963 799.847381,460.888889 C803.746394,460.148148 807.25057,458.839506 810.359909,456.962963 C813.469249,455.08642 815.986333,452.617284 817.911162,449.555556 C819.835991,446.493827 820.798406,442.641975 820.798406,438 C820.798406,434.345679 820.082764,431.283951 818.651481,428.814815 C817.220198,426.345679 815.344723,424.296296 813.025057,422.666667 C810.705392,421.037037 808.040244,419.728395 805.029613,418.740741 C802.018983,417.753086 798.934321,416.91358 795.775627,416.222222 C792.814351,415.530864 789.853076,414.864198 786.8918,414.222222 C783.930524,413.580247 781.265376,412.790123 778.896356,411.851852 C776.527335,410.91358 774.577829,409.728395 773.047837,408.296296 C771.517844,406.864198 770.752848,405.061728 770.752848,402.888889 C770.752848,400.91358 771.246394,399.308642 772.233486,398.074074 C773.220578,396.839506 774.503797,395.851852 776.083144,395.111111 C777.662491,394.37037 779.414579,393.851852 781.339408,393.555556 C783.264237,393.259259 785.164389,393.111111 787.039864,393.111111 C789.112757,393.111111 791.160972,393.333333 793.184511,393.777778 C795.208049,394.222222 797.058846,394.938272 798.736903,395.925926 C800.414959,396.91358 801.796887,398.222222 802.882688,399.851852 C803.96849,401.481481 804.610099,403.530864 804.807518,406 L817.392939,406 C817.096811,401.358025 816.10972,397.481481 814.431663,394.37037 C812.753607,391.259259 810.507973,388.790123 807.694761,386.962963 C804.88155,385.135802 801.648824,383.851852 797.996584,383.111111 C794.344344,382.37037 790.346622,382 786.003417,382 C782.647305,382 779.266515,382.419753 775.861048,383.259259 C772.455581,384.098765 769.395597,385.382716 766.681094,387.111111 C763.966591,388.839506 761.745635,391.08642 760.018224,393.851852 C758.290813,396.617284 757.427108,399.925926 757.427108,403.777778 C757.427108,408.716049 758.660972,412.567901 761.128702,415.333333 C763.596432,418.098765 766.681094,420.246914 770.382688,421.777778 C774.084283,423.308642 778.106682,424.493827 782.449887,425.333333 C786.793091,426.17284 790.81549,427.111111 794.517085,428.148148 C798.218679,429.185185 801.303341,430.54321 803.771071,432.222222 C806.238801,433.901235 807.472666,436.37037 807.472666,439.62963 C807.472666,442 806.880411,443.950617 805.6959,445.481481 C804.51139,447.012346 803.006075,448.17284 801.179955,448.962963 C799.353835,449.753086 797.354974,450.296296 795.183372,450.592593 C793.01177,450.888889 790.938877,451.037037 788.964693,451.037037 C786.398254,451.037037 783.905847,450.790123 781.487472,450.296296 C779.069097,449.802469 776.897495,448.987654 774.972666,447.851852 C773.047837,446.716049 771.493167,445.185185 770.308657,443.259259 C769.124146,441.333333 768.482537,438.987654 768.383827,436.222222 L755.798406,436.222222 C755.995824,440.962963 756.982916,444.987654 758.759682,448.296296 C760.536447,451.604938 762.905468,454.271605 765.866743,456.296296 C768.828019,458.320988 772.233486,459.777778 776.083144,460.666667 C779.932802,461.555556 783.979879,462 788.224374,462 Z M866.687705,462 C875.414205,462 882.653234,459.82716 888.404792,455.481481 C894.156349,451.135802 897.875028,444.666667 899.56083,436.074074 L887.066067,436.074074 C885.975255,441.111111 883.719256,444.864198 880.298071,447.333333 C876.876886,449.802469 872.488844,451.037037 867.133946,451.037037 C862.969025,451.037037 859.349511,450.345679 856.275403,448.962963 C853.201294,447.580247 850.672592,445.728395 848.689297,443.407407 C846.706001,441.08642 845.268112,438.419753 844.375629,435.407407 C843.483146,432.395062 843.086487,429.209877 843.185651,425.851852 L900.750807,425.851852 C900.949136,421.209877 900.527686,416.320988 899.486456,411.185185 C898.445226,406.049383 896.561095,401.308642 893.834063,396.962963 C891.107032,392.617284 887.487517,389.037037 882.97552,386.222222 C878.463522,383.407407 872.786339,382 865.943969,382 C860.688235,382 855.853952,382.987654 851.441119,384.962963 C847.028287,386.938272 843.210443,389.703704 839.987587,393.259259 C836.764732,396.814815 834.260821,401.012346 832.475855,405.851852 C830.690889,410.691358 829.798406,416.024691 829.798406,421.851852 C829.996736,427.679012 830.864427,433.061728 832.401482,438 C833.938536,442.938272 836.244117,447.185185 839.318225,450.740741 C842.392333,454.296296 846.185386,457.061728 850.697384,459.037037 C855.209381,461.012346 860.539488,462 866.687705,462 Z M886.798406,415 L841.798406,415 C842.000426,411.986301 842.656992,409.148402 843.768103,406.486301 C844.879214,403.824201 846.394366,401.488584 848.313558,399.479452 C850.232749,397.47032 852.530729,395.888128 855.207497,394.732877 C857.884265,393.577626 860.889315,393 864.222648,393 C867.454972,393 870.409517,393.577626 873.086285,394.732877 C875.763052,395.888128 878.086285,397.445205 880.055982,399.40411 C882.025679,401.363014 883.591335,403.69863 884.752951,406.410959 C885.914568,409.123288 886.596386,411.986301 886.798406,415 Z M923.508686,461 L923.508686,417.393195 C923.508686,413.908633 923.982207,410.697858 924.929247,407.76087 C925.876288,404.823882 927.296848,402.260239 929.190929,400.069943 C931.08501,397.879647 933.452612,396.187146 936.293733,394.992439 C939.134855,393.797732 942.499341,393.200378 946.387191,393.200378 C951.271926,393.200378 955.109932,394.594203 957.90121,397.381853 C960.692487,400.169502 962.088126,403.952741 962.088126,408.731569 L962.088126,461 L974.798406,461 L974.798406,410.224953 C974.798406,406.043478 974.37473,402.23535 973.527378,398.800567 C972.680026,395.365784 971.209621,392.403907 969.116163,389.914934 C967.022705,387.425961 964.281272,385.484562 960.891864,384.090737 C957.502456,382.696912 953.265696,382 948.181584,382 C936.717409,382 928.343577,386.679269 923.060088,396.037807 L922.761023,396.037807 L922.761023,383.79206 L910.798406,383.79206 L910.798406,461 L923.508686,461 Z M1049.79841,460 L1049.79841,448.829787 L1000.60116,448.829787 L1047.71125,391.638298 L1047.71125,383 L987.780057,383 L987.780057,394.170213 L1031.31217,394.170213 L984.798406,450.319149 L984.798406,460 L1049.79841,460 Z M1092.68771,462 C1101.41421,462 1108.65324,459.82716 1114.4048,455.481481 C1120.15635,451.135802 1123.87503,444.666667 1125.56083,436.074074 L1113.06607,436.074074 C1111.97526,441.111111 1109.71926,444.864198 1106.29807,447.333333 C1102.87689,449.802469 1098.48885,451.037037 1093.13395,451.037037 C1088.96903,451.037037 1085.34951,450.345679 1082.27541,448.962963 C1079.2013,447.580247 1076.6726,445.728395 1074.6893,443.407407 C1072.70601,441.08642 1071.26812,438.419753 1070.37563,435.407407 C1069.48315,432.395062 1069.08649,429.209877 1069.18565,425.851852 L1126.75081,425.851852 C1126.94914,421.209877 1126.52769,416.320988 1125.48646,411.185185 C1124.44523,406.049383 1122.5611,401.308642 1119.83407,396.962963 C1117.10704,392.617284 1113.48752,389.037037 1108.97552,386.222222 C1104.46353,383.407407 1098.78634,382 1091.94397,382 C1086.68824,382 1081.85396,382.987654 1077.44112,384.962963 C1073.02829,386.938272 1069.21044,389.703704 1065.98759,393.259259 C1062.76473,396.814815 1060.26082,401.012346 1058.47585,405.851852 C1056.69089,410.691358 1055.79841,416.024691 1055.79841,421.851852 C1055.99674,427.679012 1056.86443,433.061728 1058.40148,438 C1059.93854,442.938272 1062.24412,447.185185 1065.31822,450.740741 C1068.39233,454.296296 1072.18539,457.061728 1076.69739,459.037037 C1081.20939,461.012346 1086.53949,462 1092.68771,462 Z M1113.79841,415 L1068.79841,415 C1069.00043,411.986301 1069.65699,409.148402 1070.7681,406.486301 C1071.87922,403.824201 1073.39437,401.488584 1075.31356,399.479452 C1077.23275,397.47032 1079.53073,395.888128 1082.2075,394.732877 C1084.88427,393.577626 1087.88932,393 1091.22265,393 C1094.45498,393 1097.40952,393.577626 1100.08629,394.732877 C1102.76306,395.888128 1105.08629,397.445205 1107.05599,399.40411 C1109.02568,401.363014 1110.59134,403.69863 1111.75296,406.410959 C1112.91457,409.123288 1113.59639,411.986301 1113.79841,415 Z M1150.50869,461 L1150.50869,417.393195 C1150.50869,413.908633 1150.98221,410.697858 1151.92925,407.76087 C1152.87629,404.823882 1154.29685,402.260239 1156.19093,400.069943 C1158.08501,397.879647 1160.45262,396.187146 1163.29374,394.992439 C1166.13486,393.797732 1169.49934,393.200378 1173.3872,393.200378 C1178.27193,393.200378 1182.10994,394.594203 1184.90121,397.381853 C1187.69249,400.169502 1189.08813,403.952741 1189.08813,408.731569 L1189.08813,461 L1201.79841,461 L1201.79841,410.224953 C1201.79841,406.043478 1201.37473,402.23535 1200.52738,398.800567 C1199.68003,395.365784 1198.20962,392.403907 1196.11617,389.914934 C1194.02271,387.425961 1191.28128,385.484562 1187.89187,384.090737 C1184.50246,382.696912 1180.2657,382 1175.18159,382 C1163.71741,382 1155.34358,386.679269 1150.06009,396.037807 L1149.76103,396.037807 L1149.76103,383.79206 L1137.79841,383.79206 L1137.79841,461 L1150.50869,461 Z M1250.79841,461 L1250.79841,449.727679 L1245.00493,449.727679 C1243.02426,449.727679 1241.41496,449.65253 1240.17703,449.502232 C1238.93911,449.351935 1237.97353,449.02629 1237.28029,448.525298 C1236.58706,448.024306 1236.11665,447.322917 1235.86906,446.421131 C1235.62148,445.519345 1235.49769,444.316964 1235.49769,442.813988 L1235.49769,394.568452 L1250.79841,394.568452 L1250.79841,383.296131 L1235.49769,383.296131 L1235.49769,360 L1222.87087,360 L1222.87087,383.296131 L1209.79841,383.296131 L1209.79841,394.568452 L1222.87087,394.568452 L1222.87087,444.016369 C1222.87087,447.623512 1223.21749,450.529266 1223.91073,452.733631 C1224.60397,454.937996 1225.66858,456.641369 1227.10457,457.84375 C1228.54056,459.046131 1230.4222,459.872768 1232.7495,460.323661 C1235.07679,460.774554 1237.8745,461 1241.14261,461 L1250.79841,461 Z M1274.61091,461 L1274.61091,426.660288 C1274.61091,421.683518 1275.11336,417.279077 1276.11826,413.446964 C1277.12316,409.614852 1278.73101,406.355067 1280.94179,403.667612 C1283.15258,400.980156 1286.06679,398.93968 1289.68444,397.546185 C1293.30209,396.152689 1297.67341,395.455941 1302.79841,395.455941 L1302.79841,382.018663 C1295.86459,381.819592 1290.13665,383.213088 1285.61459,386.19915 C1281.09253,389.185211 1277.2739,393.813607 1274.1587,400.084337 L1273.85723,400.084337 L1273.85723,383.8103 L1261.79841,383.8103 L1261.79841,461 L1274.61091,461 Z M1335.41523,462 C1341.09748,462 1346.03205,460.877841 1350.21897,458.633523 C1354.40589,456.389205 1357.84514,452.873106 1360.53673,448.085227 L1360.83579,448.085227 L1360.83579,460.354167 L1372.79841,460.354167 L1372.79841,383 L1360.08813,383 L1360.08813,426.689394 C1360.08813,430.180556 1359.61461,433.397412 1358.66757,436.339962 C1357.72053,439.282513 1356.29997,441.85101 1354.40589,444.045455 C1352.51181,446.239899 1350.1442,447.935606 1347.30308,449.132576 C1344.46196,450.329545 1341.09748,450.92803 1337.20962,450.92803 C1332.32489,450.92803 1328.48688,449.531566 1325.69561,446.738636 C1322.90433,443.945707 1321.50869,440.155303 1321.50869,435.367424 L1321.50869,383 L1308.79841,383 L1308.79841,433.871212 C1308.79841,438.060606 1309.22209,441.875947 1310.06944,445.317235 C1310.91679,448.758523 1312.3872,451.72601 1314.48065,454.219697 C1316.57411,456.713384 1319.31554,458.633523 1322.70495,459.980114 C1326.09436,461.326705 1330.33112,462 1335.41523,462 Z M1403.34324,461 L1403.34324,412.913043 C1403.34324,411.41966 1403.7122,409.55293 1404.45013,407.312854 C1405.18807,405.072779 1406.36875,402.907372 1407.9922,400.816635 C1409.61565,398.725898 1411.73105,396.933837 1414.33841,395.440454 C1416.94577,393.94707 1420.06967,393.200378 1423.71013,393.200378 C1426.56347,393.200378 1428.90025,393.623503 1430.72048,394.469754 C1432.54071,395.316005 1433.99197,396.510712 1435.07427,398.053875 C1436.15657,399.597038 1436.9191,401.413989 1437.36186,403.504726 C1437.80462,405.595463 1438.026,407.885318 1438.026,410.374291 L1438.026,461 L1450.57082,461 L1450.57082,412.913043 C1450.57082,406.939509 1452.34186,402.160681 1455.88393,398.57656 C1459.426,394.992439 1464.29634,393.200378 1470.49496,393.200378 C1473.54508,393.200378 1476.02944,393.648393 1477.94807,394.544423 C1479.86669,395.440454 1481.36715,396.66005 1482.44944,398.203214 C1483.53174,399.746377 1484.26967,401.563327 1484.66324,403.654064 C1485.0568,405.744802 1485.25358,407.984877 1485.25358,410.374291 L1485.25358,461 L1497.79841,461 L1497.79841,404.400756 C1497.79841,400.418399 1497.18347,397.008507 1495.95358,394.171078 C1494.7237,391.333648 1493.00186,389.018904 1490.78807,387.226843 C1488.57427,385.434783 1485.91772,384.115627 1482.81841,383.269376 C1479.7191,382.423125 1476.25082,382 1472.41358,382 C1467.39565,382 1462.79588,383.144928 1458.61427,385.434783 C1454.43266,387.724638 1451.06278,390.960302 1448.50462,395.141777 C1446.93036,390.362949 1444.22462,386.977946 1440.38738,384.986767 C1436.55013,382.995589 1432.27013,382 1427.54738,382 C1416.82278,382 1408.60715,386.380592 1402.90048,395.141777 L1402.60531,395.141777 L1402.60531,383.79206 L1390.79841,383.79206 L1390.79841,461 L1403.34324,461 Z" id="CrisiscentrumCentredeCriseKrisenzentrum" stroke="#000000" fill="#000000" fill-rule="nonzero"></path>
        </g>
    </g>
</svg>