<?xml version="1.0" encoding="UTF-8"?>
<svg width="755px" height="179px" viewBox="0 0 755 179" version="1.1" xmlns="http://www.w3.org/2000/svg" xmlns:xlink="http://www.w3.org/1999/xlink">
    <title>osoc-logo-ewi-fris-vlaanderen</title>
    <g id="Page-1" stroke="none" stroke-width="1" fill="none" fill-rule="evenodd">
        <g id="osoc-logo-ewi-fris-vlaanderen" fill="#176E8A" fill-rule="nonzero">
            <polygon id="Path" points="558.268437 77 550.318584 77 537 39 544.175516 39 554.5 67.8293333 564.824484 39 572 39"></polygon>
            <polygon id="Path" points="582 35.2022195 582 76 576 76 576 35.5561036 581.267176 35"></polygon>
            <path d="M612.099465,76.9436248 C609.477199,76.9661818 606.984383,75.8299397 605.314286,73.8508952 C604.253507,74.7285657 603.088307,75.4775978 601.844003,76.0817166 C600.377378,76.7170529 598.785873,77.0286261 597.182429,76.9943253 C594.88947,77.0665952 592.629243,76.4471083 590.708021,75.2198083 C588.182496,73.4631753 586.785942,70.5365649 587.030557,67.5133346 C586.825375,65.2541234 587.661054,63.0231721 589.309549,61.4292764 C591.72688,59.7805739 594.663867,59.0259104 597.596791,59.2998561 C599.202444,59.2998561 601.118869,59.2998561 603.812223,59.2998561 L603.812223,57.829542 C603.970862,56.198908 603.314919,54.593711 602.051184,53.5200008 C600.855284,52.6575642 599.390962,52.2275528 597.907563,52.3031892 C595.117897,52.4343243 592.385421,53.1245749 589.879297,54.3312086 L588.273644,48.5513533 C591.705726,46.9451952 595.450658,46.0806253 599.25424,46.0163291 C602.052016,45.8760829 604.819027,46.6423106 607.12712,48.1964499 C609.455922,50.015113 610.716107,52.8427872 610.493812,55.7508221 L610.493812,67.0063298 C610.423029,68.1615586 610.900859,69.2841114 611.788694,70.0483589 C612.71441,70.7782027 613.823554,71.2510081 615,71.417272 L612.099465,76.9436248 Z M604.019404,64.4206051 C601.579029,64.3063906 599.13309,64.4252536 596.716272,64.7755084 C595.154595,64.9099921 593.984697,66.2347966 594.074713,67.7668371 C594.051259,68.8416463 594.506386,69.8733277 595.321733,70.593576 C596.13708,71.3138243 597.232067,71.6514591 598.321925,71.5186729 C599.542117,71.5303662 600.742283,71.2147488 601.792208,70.6060642 C603.295278,69.6624093 604.150021,67.989056 604.019404,66.2458225 L604.019404,64.4206051 Z" id="Shape"></path>
            <path d="M641.938811,76.943432 C639.308763,76.9808533 636.805417,75.8398545 635.141934,73.8454878 C634.071516,74.7143502 632.905576,75.46383 631.665669,76.0800705 C630.194499,76.7102291 628.601673,77.022049 626.996059,76.994218 C624.682819,77.0672436 622.401956,76.4470857 620.458604,75.216709 C618.058957,73.3969264 616.768915,70.5079616 617.034224,67.5480273 C616.836031,65.2859624 617.672041,63.0542114 619.317144,61.4537108 C621.75653,59.7986354 624.716046,59.042935 627.670558,59.3207 C629.330864,59.3207 631.198708,59.3207 633.84482,59.3207 L633.84482,57.8479068 C634.003733,56.2145233 633.346659,54.6066198 632.080745,53.5310992 C630.880857,52.6709905 629.415418,52.2406674 627.929981,52.3122359 C625.119182,52.4452522 622.36538,53.1364045 619.83599,54.3436748 L618.279453,48.554074 C621.716364,46.9421869 625.468435,46.0760016 629.278979,46.0147755 C632.080703,45.8818497 634.850061,46.6486984 637.165432,48.1985722 C639.49089,50.0258189 640.751469,52.8542707 640.537928,55.765682 L640.537928,66.9893816 C640.442024,68.1505636 640.925168,69.2855587 641.835042,70.0365399 C642.745012,70.7636353 643.838317,71.2373105 645,71.4077611 L641.938811,76.943432 Z M633.585397,64.3992971 C631.140813,64.2822793 628.690397,64.4013553 626.269675,64.7547989 C624.705306,64.8895093 623.533391,66.2165475 623.623562,67.7511712 C623.602043,68.8178418 624.051032,69.8418841 624.855734,70.5614781 C625.660436,71.2810722 626.742843,71.6264592 627.826211,71.5093331 C629.064764,71.5200699 630.283439,71.20431 631.354361,70.5951856 C632.958995,69.6157026 633.831177,67.8090028 633.585397,65.9736622 L633.585397,64.3992971 Z" id="Shape"></path>
            <path d="M652.652391,46.5683363 L653.269016,48.6596677 C655.564995,46.9806354 658.330986,46.0535221 661.182363,46.0072474 C664.043607,45.890516 666.776943,47.189827 668.479087,49.475797 C671.005365,47.2935146 674.225906,46.0653292 677.574298,46.0072474 C680.033515,45.9158718 682.425071,46.8176225 684.203011,48.5066435 C686.16579,50.7025112 687.1646,53.5851352 686.977822,56.5149124 L686.977822,76 L680.246338,76 L680.246338,58.1471711 C680.374327,56.48227 679.839278,54.8339647 678.756162,53.5564436 C677.774659,52.6699147 676.48571,52.1946773 675.159185,52.2302335 C673.334294,52.2428815 671.551195,52.7738833 670.020648,53.760476 C670.079479,54.5585357 670.079479,55.3597962 670.020648,56.1578559 L670.020648,76 L663.289164,76 L663.289164,58.1471711 C663.406227,56.4835711 662.872468,54.8392409 661.798988,53.5564436 C660.883291,52.6642064 659.638472,52.1846891 658.356168,52.2302335 C656.51625,52.2911222 654.732677,52.8753798 653.21763,53.9135002 L653.21763,76 L647,76 L647,46.5683363 L652.652391,46.5683363 Z" id="Path"></path>
            <path d="M693.096463,68.6289053 C694.07641,69.2093328 695.111151,69.6767109 696.183285,70.0231791 C697.422474,70.4942092 698.726864,70.7386075 700.041813,70.7461359 C701.162535,70.7813116 702.2736,70.5149885 703.273329,69.9715393 C704.184387,69.4085943 704.738393,68.3606885 704.720277,67.2346315 C704.720277,65.32396 703.418024,64.4460839 701.681687,63.7231271 L698.836023,62.6903317 C696.849007,62.1138283 695.131188,60.7712086 694.012863,58.9206285 C693.370023,57.7131511 693.068427,56.3318254 693.144695,54.9443662 C693.024814,52.2791614 694.122042,49.7177966 696.086822,48.0762768 C698.070807,46.6264102 700.439315,45.9018748 702.839245,46.010686 C704.958165,46.0114751 707.06173,46.3955727 709.061121,47.1467609 L709.061121,53.2402538 L708.7235,53.2402538 C707.23045,52.4231061 705.57715,51.9982756 703.90034,52.0008993 C702.841908,51.9695319 701.789444,52.1808132 700.813518,52.6205765 C700.03854,52.9572425 699.513182,53.7406992 699.463034,54.6345276 C699.463034,56.0804411 700.765287,56.7517581 702.501624,57.4747149 L705.299056,58.5075103 C707.32461,59.2347636 709.037148,60.719939 710.122216,62.6903317 C710.749849,63.9972647 711.049041,65.4565656 710.990384,66.9247929 C711.121859,69.8915717 709.898741,72.7417617 707.710636,74.5674788 C705.531244,76.2248583 702.90684,77.0768781 700.234739,76.994548 C697.689841,77.047054 695.182568,76.3312024 693,74.9289572 L693,68.7838246 L693.096463,68.6289053 Z" id="Path"></path>
            <path d="M737.466621,68.681203 L737.466621,75.1980785 C734.84416,76.3917451 732.001166,77.0040187 729.127234,76.9940678 C725.240041,77.1021796 721.45375,75.7292716 718.513468,73.1455193 C715.457495,70.0843647 713.822868,65.8514452 714.015253,61.4972457 C713.837516,57.2528126 715.30752,53.1070786 718.109134,49.9516001 C720.479611,47.4235894 723.768762,45.9950658 727.206648,46.0002064 C728.68485,45.9918938 730.154025,46.2347162 731.553238,46.7188193 C733.574919,47.414709 735.338551,48.7218318 736.607412,50.4647399 C738.302099,53.15241 739.132201,56.3083704 738.982874,59.4960004 L738.982874,64.0116307 L721.141639,64.0116307 C721.503211,66.1182834 722.711678,67.9772712 724.477394,69.1430288 C726.084601,70.1529624 727.945066,70.6697346 729.834818,70.6311342 C732.418591,70.5859683 734.952127,69.8988612 737.213913,68.629889 L737.466621,68.681203 Z M732.917865,58.4184069 C732.890978,56.6391794 732.205304,54.9354442 730.997278,53.6462067 C730.022815,52.6917086 728.711869,52.1741068 727.358273,52.2094152 C725.924667,52.2011877 724.538642,52.7311731 723.466559,53.6975206 C722.157345,54.9558397 721.287897,56.6132145 720.990014,58.4184069 L732.917865,58.4184069 Z" id="Shape"></path>
            <path d="M541.004828,115.603699 C540.911179,111.496373 542.383543,107.509865 545.117227,104.469147 C547.839821,101.54852 551.657091,99.927066 555.626691,100.005064 C559.572453,99.896904 563.370224,101.525813 566.034614,104.469147 C568.656024,107.486272 570.068283,111.383916 569.994702,115.398454 C570.099536,119.482961 568.645163,123.451608 565.933073,126.481694 C563.207532,129.434659 559.367776,131.07648 555.372839,130.997089 C551.432156,131.078382 547.644897,129.453981 544.964916,126.533006 C542.321698,123.529014 540.906205,119.622443 541.004828,115.603699 L541.004828,115.603699 Z M547.808056,115.347142 C547.725722,117.6665 548.423713,119.945574 549.7881,121.812366 C551.21022,123.615618 553.397698,124.625718 555.677461,124.531865 C557.868512,124.638085 559.97915,123.685797 561.363741,121.9663 C562.641488,120.122113 563.283719,117.904442 563.191474,115.65501 C563.29479,113.340316 562.653549,111.05406 561.363741,109.138475 C559.973675,107.322834 557.79397,106.307571 555.52515,106.418976 C553.321136,106.320854 551.198534,107.270065 549.7881,108.984541 C548.431177,110.79641 547.732068,113.024784 547.808056,115.295831 L547.808056,115.347142 Z" id="Shape"></path>
            <polygon id="Path" points="571 100 578.282051 100 585 119.587629 585 119.587629 591.717949 100 599 100 588.74359 130 581.102564 130"></polygon>
            <path d="M624.353804,122.681466 L624.353804,129.198538 C621.632197,130.392241 618.681721,131.004533 615.699137,130.994582 C611.665796,131.097714 607.738146,129.725388 604.684105,127.145917 C601.512597,124.08467 599.816172,119.851622 600.01583,115.497291 C599.839938,111.244747 601.385455,107.095923 604.316938,103.951296 C606.780614,101.428257 610.191792,100.000662 613.758393,100 C615.291576,100.002546 616.814466,100.245084 618.269311,100.718417 C620.367424,101.414328 622.197732,102.721491 623.514564,104.464451 C625.283896,107.166685 626.145824,110.342308 625.979833,113.547301 L625.979833,118.011752 L607.6739,118.011752 C608.05512,120.116141 609.307834,121.973049 611.135767,123.143305 C612.803736,124.15327 614.734538,124.670057 616.695735,124.631456 C619.371073,124.589838 621.997198,123.921142 624.353804,122.681466 L624.353804,122.681466 Z M619.633076,112.674937 C619.59507,110.89769 618.884909,109.197338 617.63988,107.902592 C616.628576,106.948065 615.268068,106.430448 613.863298,106.465757 C612.39356,106.470114 610.976013,106.999295 609.876906,107.953908 C608.485109,109.208503 607.577482,110.893802 607.306732,112.726252 L619.633076,112.674937 Z" id="Shape"></path>
            <path d="M648.041237,107.943403 C646.580873,106.977077 644.879704,106.468589 643.14433,106.479693 C641.059975,106.515695 639.04565,107.26099 637.414948,108.599549 L637.414948,130 L631,130 L631,100.624852 L636.435567,100.624852 L637.072165,103.047545 C639.057145,101.181021 641.633154,100.122565 644.319588,100.069652 C645.280539,99.9767827 646.247812,99.9767827 647.208763,100.069652 C648.173825,100.244924 649.112301,100.550385 650,100.978162 L648.041237,107.943403 Z" id="Path"></path>
            <path d="M658.656273,89 L659.746014,89 L659.746014,102.683498 C662.503755,100.967224 665.709285,100.056038 668.982863,100.057882 C671.757639,99.9513919 674.480577,100.810685 676.66294,102.481527 C678.937603,104.525614 680.155493,107.451174 679.984055,110.45936 L679.984055,129.949507 L673.186149,129.949507 L673.186149,112.428571 C673.293859,110.646875 672.523026,108.921785 671.110452,107.783251 C669.7204,106.822415 668.039583,106.342438 666.33635,106.419951 C664.027299,106.434408 661.766271,107.062989 659.797906,108.237685 L659.797906,130 L653,130 L653,89.6059113 L658.656273,89 Z" id="Path"></path>
            <path d="M709.458582,122.681466 L709.458582,129.198538 C706.720632,130.399401 703.751244,131.011855 700.750745,130.994582 C696.717072,131.097714 692.789098,129.725388 689.734806,127.145917 C686.543798,124.093588 684.827702,119.859386 685.01369,115.497291 C684.843479,111.245617 686.38836,107.098842 689.315152,103.951296 C691.782574,101.433261 695.191742,100.006625 698.757385,100 C700.290547,100.004296 701.813281,100.246789 703.268674,100.718417 C705.36853,101.411366 707.199825,102.719125 708.514359,104.464451 C710.283837,107.166685 711.145836,110.342308 710.979831,113.547301 L710.979831,118.011752 L692.462563,118.011752 C692.873925,120.117872 694.142492,121.97006 695.977172,123.143305 C697.645278,124.15327 699.576239,124.670057 701.537598,124.631456 C704.213157,124.589838 706.839498,123.921142 709.196298,122.681466 L709.458582,122.681466 Z M704.737466,112.674937 C704.704466,110.896678 703.993538,109.194628 702.744105,107.902592 C701.745631,106.960805 700.406507,106.44419 699.019669,106.465757 C697.54981,106.470114 696.132146,106.999295 695.032948,107.953908 C693.64446,109.211075 692.737438,110.895109 692.462563,112.726252 L704.737466,112.674937 Z" id="Shape"></path>
            <path d="M715.000231,92.8880018 C715.000231,91.8568604 715.418927,90.8679518 716.16421,90.1388247 C716.909493,89.4096976 717.920314,89.0000782 718.974304,89.0000782 C720.047764,88.9935875 721.082641,89.3913329 721.864538,90.1109135 C722.592298,90.8603697 722.998667,91.8542689 723,92.8880018 C723.001492,93.9073456 722.59374,94.8864952 721.864538,95.6145976 C721.091744,96.3481199 720.050795,96.7481989 718.974304,96.7254329 C717.929052,96.7439292 716.921742,96.3424395 716.187292,95.6145976 C715.41911,94.9082372 714.98857,93.919317 715.000231,92.8880018 Z M722.380652,100.613357 L722.380652,130 L715.671178,130 L715.671178,100.562864 L722.380652,100.613357 Z" id="Shape"></path>
            <path d="M749.933497,130.479131 L748.705253,128.234258 C746.441811,130.041951 743.62174,131.015136 740.721672,130.98933 C737.020539,131.147652 733.465582,129.536718 731.151611,126.652643 C729.035194,123.81104 727.935977,120.343855 728.029826,116.805814 C727.755498,112.200861 729.382702,107.684471 732.533384,104.305952 C735.626775,101.495733 739.714204,100.027303 743.894634,100.224365 C745.365331,100.227347 746.834704,100.312513 748.295839,100.479464 L748.295839,89.6122381 L753.976464,89 L755,89 L755,130.428111 L749.933497,130.479131 Z M748.295839,107.061024 C746.740698,106.662349 745.142112,106.456712 743.536397,106.448786 C741.244225,106.337914 739.006486,107.167579 737.344004,108.744679 C735.684032,110.664364 734.839602,113.153282 734.989871,115.683377 C734.930435,117.868211 735.576254,120.014339 736.832236,121.805758 C737.97327,123.521254 739.885638,124.56983 741.949916,124.611849 C744.124,124.552467 746.243282,123.918632 748.091132,122.775135 L748.295839,107.061024 Z" id="Shape"></path>
            <polygon id="Path" points="534.148604 179 474 0.303818953 474.851396 0 535 178.696181"></polygon>
            <path d="M474.849398,90.1682697 C470.481928,86.8177819 468.473896,90.1682697 465.763052,90.1682697 C463.052209,90.1682697 461.295181,86.2086023 459.487952,87.1223717 C456.074297,88.8991455 460.843373,95.0924716 462.951807,96.3615957 C464.481251,97.2572702 466.056403,98.0706423 467.670683,98.7983142 C470.183379,99.8880036 471.819189,102.379259 471.837349,105.143935 C471.978133,106.154244 471.978133,107.179524 471.837349,108.189833 C470.582329,113.57092 461.295181,118.342827 455.923695,114.789279 C453.031393,113.019043 450.995284,110.114396 450.301205,106.768414 C448.845382,99.7120836 443.825301,94.483292 442.218876,87.5792564 C441.214859,83.3657641 440.512048,78.9492119 439.407631,74.7357196 C438.303213,70.5222273 437.148594,66.0041452 436.24498,62.0444778 C435.205906,57.7960245 433.932154,53.6098093 432.429719,49.5055308 C427.409639,36.0020495 425,37.0173489 425,37.0173489 C425,37.0173489 426.85743,40.7739565 433.634538,73.8219502 C434.751359,80.8069589 436.259815,87.7221428 438.15261,94.5340569 C438.75502,96.2600658 439.909639,99.9151435 440.61245,101.539622 C442.771084,106.260764 448.443775,113.46939 448.845382,119.916541 C448.845382,123.673148 449.497992,126.769811 449.548193,129.612649 C449.70169,131.53236 450.020843,133.434827 450.502008,135.298326 C451.85743,139.257993 463.10241,152 475,152 L475,142.100831 C466.711547,141.924586 458.646196,139.352719 451.757028,134.689146 C451.940928,132.333217 452.430399,130.011973 453.212851,127.785111 C454.536854,123.439728 458.32359,120.332187 462.801205,119.916541 C466.896775,119.970595 470.979337,120.395331 475,121.185665 L474.849398,90.1682697 Z" id="Path"></path>
            <path d="M423.089902,54.2498173 C422.633495,61.3945926 411.476885,71.0875046 407.876342,77.3329376 C405.919625,80.9243039 404.453191,84.7546844 403.515122,88.7246073 C402.323586,95.0769665 403.2115,101.638049 406.050715,107.460906 C409.701969,116.154549 405.543596,119.402174 408.434173,117.453599 C412.034715,114.555718 411.476885,107.860614 411.172613,103.663683 C410.819747,99.9077967 410.819747,96.1278265 411.172613,92.3719402 C412.741729,84.6148413 416.031985,77.2954267 420.807868,70.9376142 C424.115821,65.9120096 424.900875,59.6690188 422.937766,54" id="Path"></path>
            <path d="M424.850719,74.1529745 C424.850719,74.1529745 426.054015,79.9150142 420.874611,94.5495751 C407.272135,133.252125 433.273791,136.923513 440.702835,146 C440.702835,146 443.527965,142.073654 431.756592,129.427762 C427.414263,124.838527 423.595106,114.691218 426.943408,100.15864 C431.861226,79.2011331 424.903036,74 424.903036,74" id="Path"></path>
            <path d="M400.653497,49.896 C400.108817,47.865703 399.902324,45.7562747 400.042659,43.656 C400.983477,37.2377147 405.102809,31.7711198 410.935923,29.2 C410.935923,29.2 414.65185,26.6 415.109977,24 C417.365209,29.7722703 415.214158,36.364481 410.019667,39.6 C405.947327,42.076741 402.646532,45.6830756 400.500787,50" id="Path"></path>
            <path d="M422.294748,41.6086957 C422.762346,42.5294118 426.243356,47.5421995 411.903674,59.1534527 C397.563992,70.7647059 402.136064,79 402.136064,79 C402.136064,79 386.913141,70.713555 404.4221,56.2890026 C421.93106,41.8644501 418.34614,39 418.34614,39 C420.051222,39.0451676 421.573313,40.0641636 422.242792,41.6086957" id="Path"></path>
            <path d="M439,45.9296937 C441.375252,46.2798698 442.941907,53.6335694 448.45047,55.2843999 C452.543989,56.4349788 456.839657,55.8346768 457.799865,58.2358848 C455.929986,59.2363881 457.446104,62.488024 459.315983,61.9377472 C460.882639,57.5355324 461.691235,40.9271769 439,45.9296937 Z M446.428979,49.2813799 C446.428979,48.731103 446.934352,49.2813799 447.540799,48.7811282 C448.147246,48.2808765 448.854768,47.1302977 449.916051,46.8301467 C450.738812,46.5762533 451.620153,46.5762533 452.442914,46.8301467 C452.89775,46.8301467 452.442914,48.130801 452.442914,48.430952 C452.442914,48.731103 449.461215,48.0807758 449.461215,49.7316064 C449.461215,52.4329654 453.150436,49.7316064 455.020315,49.7316064 C455.778374,56.4349788 444.862323,54.5840476 446.479516,49.1813295 L446.428979,49.2813799 Z" id="Shape"></path>
            <path d="M3,5.00184394 L12.5006562,5.00184394 C17.0473036,4.93691921 21.4477915,6.58861249 24.8047848,9.62011515 C28.1373206,12.679115 30.0203617,16.9784986 29.9964003,21.4736779 C30.090236,25.9104068 28.3460818,30.1924232 25.1681979,33.3272407 C21.8993764,36.4050422 17.5335752,38.0831656 13.0198178,37.996826 L3,37.996826 L3,5.00184394 Z M6.94562773,34.4048373 L12.8640693,34.4048373 C16.4476179,34.4984492 19.9152864,33.1459933 22.4685579,30.6589062 C24.6503294,28.2561698 25.8041828,25.1106716 25.6873595,21.8841909 C25.7573312,18.2864781 24.3311005,14.8178941 21.7417317,12.2884496 C19.248246,9.94103764 15.9440801,8.62001961 12.5006562,8.59383266 L6.94562773,8.59383266 L6.94562773,34.4048373 Z" id="Shape"></path>
            <polygon id="Path" points="55 5 55 8.59253499 39.6025974 8.59253499 39.6025974 19.7293935 55 19.7293935 55 23.3219285 39.6025974 23.3219285 39.6025974 34.407465 55 34.407465 55 38 36 38 36 5"></polygon>
            <path d="M60,5.0509845 L66.5207769,5.0509845 C70.7800635,4.77247352 75.0361963,5.63876107 78.8378001,7.55797481 C81.6222295,9.33819237 83.2080605,12.4737492 82.9779759,15.7440656 C83.0973468,18.2681715 82.2678085,20.7466811 80.649127,22.7022428 C79.0480425,24.464604 76.9617615,25.7270154 74.645872,26.3348206 C71.9338886,27.080772 69.12856,27.442519 66.3137682,27.409245 L63.933167,27.409245 L63.933167,38 L60,38 L60,5.0509845 Z M63.933167,23.7255042 L67.0900511,23.7255042 C70.0918031,23.8963818 73.0911932,23.352461 75.8361726,22.1394491 C78.0082082,21.018021 79.2918626,18.7216599 79.096561,16.3068594 C79.2750991,13.7478151 77.889748,11.330908 75.5774116,10.1672913 C72.8933033,9.00053085 69.9639735,8.49153985 67.0382989,8.68356229 L63.8814148,8.68356229 L63.933167,23.7255042 Z" id="Shape"></path>
            <path d="M91.654479,30.3136646 L88.9926874,38 L85,38 L96.5173675,5 L101.636197,5 L113,38 L109.007313,38 L106.345521,30.3136646 L91.654479,30.3136646 Z M104.963437,26.7267081 L99.0767824,9.15062112 L93.0365631,26.6754658 L104.963437,26.7267081 Z" id="Shape"></path>
            <path d="M116.051896,5.08386519 L124.251497,5.08386519 C128.310046,4.7067426 132.385816,5.60808935 135.876248,7.6546506 C138.240964,9.6523131 139.460025,12.6407353 139.145709,15.6694522 C139.233082,17.766471 138.711567,19.8450918 137.640719,21.6679515 C136.651084,23.2087038 135.203408,24.4215075 133.489022,25.1460729 C134.030817,26.405523 134.709302,27.6052813 135.512974,28.7250095 C136.414577,30.0701524 137.458146,31.3203003 138.626747,32.4551687 C139.569973,33.4762106 140.717813,34.2995316 142,34.8747315 L139.820359,38 C138.24426,37.5156854 136.852864,36.5854433 135.824351,35.3283995 C134.462588,33.8997428 133.246032,32.3467045 132.191617,30.6909042 C131.263482,29.2745201 130.414613,27.8105778 129.648703,26.3054467 C127.250934,26.7172576 124.817794,26.902949 122.383234,26.8599299 L119.944112,26.8599299 L119.944112,37.4455169 L116,37.4455169 L116.051896,5.08386519 Z M119.996008,23.3314009 L123.369261,23.3314009 C126.346293,23.507549 129.322313,22.9709608 132.035928,21.7687666 C134.174212,20.6303319 135.431724,18.3844593 135.253493,16.0223051 C135.498616,13.6456701 134.304782,11.3461465 132.191617,10.1246209 C129.607733,8.98255928 126.772723,8.48031438 123.94012,8.66280174 L119.944112,8.66280174 L119.996008,23.3314009 Z" id="Shape"></path>
            <polygon id="Path" points="169 5 169 8.58695652 158.473684 8.58695652 158.473684 38 154.526316 38 154.526316 8.58695652 144 8.58695652 144 5"></polygon>
            <polygon id="Path" points="191 5 191 8.59253499 175.721649 8.59253499 175.721649 19.7293935 191 19.7293935 191 23.3219285 175.721649 23.3219285 175.721649 34.407465 191 34.407465 191 38 172 38 172 5"></polygon>
            <polygon id="Path" points="217.934334 5 223 5 223 38 219.04878 38 219.04878 10.1242236 209.981238 28.4689441 209.120075 28.4689441 199.697936 10.1242236 199.697936 38 196 38 196 5 201.065666 5 209.424015 21.6024845 209.424015 21.6024845"></polygon>
            <polygon id="Path" points="250 5 250 8.59253499 234.721649 8.59253499 234.721649 19.7293935 250 19.7293935 250 23.3219285 234.721649 23.3219285 234.721649 34.407465 250 34.407465 250 38 231 38 231 5"></polygon>
            <polygon id="Path" points="258.914163 38 255 38 255 5 259.06867 5 275.085837 30.621118 275.085837 5 279 5 279 38 275.085837 38 258.914163 12.378882"></polygon>
            <polygon id="Path" points="309 5 309 8.58695652 298.473684 8.58695652 298.473684 38 294.526316 38 294.526316 8.58695652 284 8.58695652 284 5"></polygon>
            <polygon id="Path" points="21 50 21 55.636646 7.67015707 55.636646 7.67015707 63.7841615 20.6518325 63.7841615 20.6518325 69.4208075 7.67015707 69.4208075 7.67015707 77.363354 21 77.363354 21 83 2 83 2 50"></polygon>
            <path d="M51,77.4265524 L51,82.9574552 C48.265599,83.6445373 45.4540948,83.9886727 42.6321927,83.9816965 C37.6767269,84.2069395 32.8578898,82.3449015 29.3788333,78.8604902 C26.3988835,75.4345455 24.8398678,71.0272239 25.0130208,66.518383 C24.9312699,62.2060132 26.5310306,58.0269601 29.4827812,54.8420326 C33.0327071,51.4971106 37.8322266,49.7538114 42.7361406,50.0280987 C45.5233978,50.0275463 48.2997087,50.3716485 51,51.0523399 L51,56.5832427 L51,56.5832427 C48.576983,55.9426733 46.0762652,55.632512 43.567724,55.6614256 C40.0339612,55.4682928 36.5811432,56.7510905 34.0564896,59.195058 C32.1135517,61.349013 31.0732456,64.1496128 31.1459479,67.0305036 C31.0654307,69.8972875 32.107634,72.6846568 34.0564896,74.8147372 C36.5702977,77.2753791 40.0309339,78.5610814 43.567724,78.3483695 C46.0460932,78.3327366 48.511032,77.9882253 50.8960521,77.3241283 L51,77.4265524 Z" id="Path"></path>
            <path d="M54.0065796,67 C53.9053317,62.6146175 55.4548966,58.3517887 58.3468925,55.0598668 C61.2238028,51.8354075 65.3365264,49.9948216 69.6518936,50.0004883 C73.9300092,49.9654716 78.0077389,51.8151692 80.8054883,55.0598668 C83.6131144,58.391451 85.1036258,62.6400307 84.994395,67 C85.100637,71.3862052 83.5504293,75.6508025 80.6540821,78.9401332 C77.7771718,82.1645925 73.6644482,84.0051784 69.349081,83.9995117 C65.0709654,84.0345284 60.9932357,82.1848308 58.1954863,78.9401332 C55.379517,75.613342 53.8878495,71.3614669 54.0065796,67 L54.0065796,67 Z M59.7600177,67 C59.6399447,69.9411573 60.5307414,72.8344885 62.2834554,75.1961931 C64.0880313,77.3917263 66.8168344,78.609614 69.6518936,78.4847891 C72.3989536,78.6219793 75.051448,77.4609788 76.8184567,75.3479745 C78.5133044,73.0776978 79.3695321,70.2880638 79.2409569,67.4553441 C79.4226265,64.2425945 78.31398,61.0906111 76.1623629,58.7026193 C74.3583336,56.8493297 71.8816627,55.8087416 69.2986123,55.8187017 C66.8260992,55.8179835 64.4588711,56.8219842 62.7376742,58.6014317 C60.7115178,60.8161883 59.6411487,63.7442619 59.7600177,66.7470311 L59.7600177,67 Z" id="Shape"></path>
            <polygon id="Path" points="94.9758065 83 89 83 89 50 94.9758065 50 109.024194 71.931677 109.024194 50 115 50 115 83 109.024194 83 94.9758065 61.068323"></polygon>
            <path d="M120.00658,67 C119.905332,62.6146175 121.454897,58.3517887 124.346893,55.0598668 C127.223803,51.8354075 131.336526,49.9948216 135.651894,50.0004883 C139.930009,49.9654716 144.007739,51.8151692 146.805488,55.0598668 C149.613114,58.391451 151.103626,62.6400307 150.994395,67 C151.100637,71.3862052 149.550429,75.6508025 146.654082,78.9401332 C143.777172,82.1645925 139.664448,84.0051784 135.349081,83.9995117 C131.070965,84.0345284 126.993236,82.1848308 124.195486,78.9401332 C121.379517,75.613342 119.88785,71.3614669 120.00658,67 Z M125.760018,67 C125.639945,69.9411573 126.530741,72.8344885 128.283455,75.1961931 C130.088031,77.3917263 132.816834,78.609614 135.651894,78.4847891 C138.398954,78.6219793 141.051448,77.4609788 142.818457,75.3479745 C144.513304,73.0776978 145.369532,70.2880638 145.240957,67.4553441 C145.47774,64.2707927 144.442961,61.1223682 142.364238,58.7026193 C140.52378,56.8109336 137.984501,55.7670669 135.349081,55.8187736 C132.876568,55.8179835 130.50934,56.8219842 128.788143,58.6014317 C126.743651,60.8081678 125.654793,63.7371736 125.760018,66.7470311 L125.760018,67 Z" id="Shape"></path>
            <polygon id="Path" points="177.196364 83 177.196364 62.5031056 172.105455 72.7515528 166.149091 72.7515528 161.058182 62.5031056 161.058182 83 155 83 155 50 160.803636 50 168.847273 65.3726708 177.196364 50 183 50 183 83"></polygon>
            <polygon id="Path" points="195 50 195 83 189 83 189 50"></polygon>
            <polygon id="Path" points="221 50 221 55.636646 207.670157 55.636646 207.670157 63.7841615 220.651832 63.7841615 220.651832 69.4208075 207.670157 69.4208075 207.670157 77.363354 221 77.363354 221 83 202 83 202 50"></polygon>
            <polygon id="Path" points="35.2990971 129 28.8487585 129 22.5 106.764165 16.1512415 129 9.70090293 129 0 96 6.14559819 96 12.8498871 118.892802 19.4018059 96 25.3950339 96 31.9469526 118.892802 38.8544018 96 45 96"></polygon>
            <polygon id="Path" points="68 96 68 101.636646 54.6701571 101.636646 54.6701571 109.784161 67.6518325 109.784161 67.6518325 115.420807 54.6701571 115.420807 54.6701571 123.363354 68 123.363354 68 129 49 129 49 96"></polygon>
            <polygon id="Path" points="96 96 96 101.636646 85.8039216 101.636646 85.8039216 129 80.1960784 129 80.1960784 101.636646 70 101.636646 70 96"></polygon>
            <polygon id="Path" points="120 96 120 101.636646 106.670157 101.636646 106.670157 109.784161 119.651832 109.784161 119.651832 115.420807 106.670157 115.420807 106.670157 123.363354 120 123.363354 120 129 101 129 101 96"></polygon>
            <polygon id="Path" points="130.975806 129 125 129 125 96 130.975806 96 145.024194 117.931677 145.024194 96 151 96 151 129 144.971774 129 130.923387 107.068323"></polygon>
            <path d="M173.000048,95.783927 L173.000048,100.949452 C170.978028,100.673349 168.933813,100.586867 166.895086,100.691176 C165.286855,100.612838 163.678384,100.840874 162.158477,101.362695 C161.114637,101.699697 160.412486,102.660344 160.421721,103.738836 C160.510935,105.01019 161.215418,106.162605 162.316364,106.838152 C163.600706,107.748566 164.997814,108.494947 166.474054,109.059328 L168.631842,109.937467 C170.180518,110.464939 171.649786,111.194668 173.000048,112.106988 C174.551011,113.181497 175.756296,114.66919 176.473561,116.394374 C176.827621,117.336865 177.005895,118.334225 177,119.338723 C176.784357,122.401165 174.945887,125.127461 172.157985,126.518804 C169.193558,128.177092 165.833537,129.032751 162.421622,128.998256 C159.82093,129.033265 157.240882,128.540871 154.843048,127.551909 L154.843048,122.283073 L154.843048,122.283073 C156.020385,122.731065 157.235515,123.07676 158.474448,123.316178 C159.909374,123.624103 161.373832,123.779962 162.842654,123.781075 C164.796496,123.843244 166.734345,123.416628 168.473956,122.541349 C169.697365,121.987422 170.507753,120.814215 170.579115,119.493689 C170.48562,118.236847 169.805742,117.092905 168.7371,116.394374 C167.469424,115.501057 166.089699,114.771873 164.63204,114.224853 L162.421622,113.346714 C160.889211,112.819662 159.437281,112.089749 158.106045,111.177193 C156.51632,110.13056 155.286946,108.635783 154.579903,106.889807 C154.181108,105.922173 153.984248,104.885819 154.000984,103.842147 C153.969718,100.996569 155.551371,98.3694474 158.106045,97.0236531 C160.804536,95.6059583 163.835963,94.9111183 166.895086,95.0090981 C168.9556,95.0079268 171.007613,95.268364 173.000048,95.783927 Z" id="Path"></path>
            <path d="M204.948347,122.475688 L204.948347,127.965248 C202.230822,128.647194 199.436669,128.988757 196.632183,128.981833 C191.707301,129.205393 186.918205,127.357273 183.46062,123.898907 C180.399477,120.448975 178.808348,115.970205 179.018446,111.39491 C178.937199,107.114775 180.527087,102.966959 183.46062,99.8058389 C186.988637,96.4859198 191.758535,94.7556517 196.632183,95.0278886 C199.436804,95.0187808 202.231235,95.3603779 204.948347,96.0444738 L204.948347,101.534034 L204.948347,101.534034 C202.578579,100.997519 200.146539,100.775289 197.7169,100.873253 C194.204947,100.681564 190.773439,101.954773 188.264367,104.380472 C186.33342,106.518327 185.299534,109.297992 185.371788,112.157349 C185.291768,115.002704 186.327539,117.769238 188.264367,119.883396 C190.76266,122.325645 194.201938,123.601737 197.7169,123.390615 C200.179974,123.375099 202.6297,123.033163 205,122.37403 L204.948347,122.475688 Z" id="Path"></path>
            <polygon id="Path" points="214.016097 96 214.016097 109.784161 228.036217 109.784161 228.036217 96 234 96 234 129 228.036217 129 228.036217 115.369565 214.016097 115.369565 214.016097 128.948758 208 128.948758 208 96"></polygon>
            <path d="M249.558219,96 L256.441781,96 L268,129 L261.784247,129 L259.421233,122.278714 L246.578767,122.278714 L244.215753,129 L238,129 L249.558219,96 Z M257.469178,116.719755 L253.05137,103.93415 L248.530822,116.719755 L257.469178,116.719755 Z" id="Shape"></path>
            <path d="M272,96.0011412 L281.401708,96.0011412 C283.653647,95.9786426 285.89668,96.2889135 288.059134,96.9220396 C290.203271,97.5182365 292.139398,98.7054263 293.649338,100.349828 C295.281233,102.324417 296.115719,104.844672 295.98706,107.410049 C296.101248,110.838986 294.373112,114.06433 291.464077,115.851618 C288.383111,117.651228 284.859798,118.537967 281.300068,118.409669 L277.742665,118.409669 L277.742665,129 L272,129 L272,96.0011412 Z M277.793485,112.730795 L281.452528,112.730795 C283.858781,112.953953 286.274365,112.417528 288.364054,111.195965 C289.613439,110.269742 290.304017,108.76345 290.193575,107.205405 C290.302551,105.633272 289.614097,104.112362 288.364054,103.163684 C286.268346,101.957748 283.857711,101.422422 281.452528,101.628854 L277.793485,101.628854 L277.793485,112.730795 Z" id="Shape"></path>
            <path d="M335.949051,128.994912 L332.105843,125.208311 C329.59563,127.696437 326.161668,129.064581 322.601694,128.994912 C319.842822,129.076815 317.147855,128.167475 315.019148,126.436398 C313.004539,124.63732 311.901634,122.051817 312.006904,119.374898 C311.978752,115.606129 313.947236,112.095651 317.200428,110.113076 C316.463515,109.235804 315.867951,108.252065 315.43463,107.19637 C314.825233,105.87863 314.506603,104.448473 314.499796,103.000406 C314.390773,100.824968 315.231268,98.707453 316.809249,97.1820494 C318.387229,95.6566458 320.552018,94.8690103 322.757499,95.017841 C324.86446,94.992664 326.929366,95.5994425 328.678117,96.7576308 C330.615436,98.0728076 331.732947,100.27491 331.638426,102.591044 C331.60122,104.452511 330.944313,106.250375 329.768757,107.708073 C328.688037,109.054926 327.323666,110.154788 325.769743,110.931801 L331.430685,116.509362 C332.409413,114.158074 333.106589,111.702381 333.508095,109.192011 L333.508095,109.192011 L338.286137,111.289993 C337.815879,114.436589 336.852238,117.492085 335.429699,120.347134 L340,124.850119 L335.949051,128.994912 Z M328.054894,121.165858 L320.991701,114.206699 C320.196153,114.697538 319.493226,115.320854 318.914291,116.04883 C318.25856,116.940922 317.912491,118.017675 317.927522,119.119047 C317.887337,120.425036 318.452249,121.678131 319.462673,122.524342 C320.473098,123.370552 321.819321,123.717996 323.121046,123.468521 C325.018302,123.407103 326.804779,122.57334 328.054894,121.165858 L328.054894,121.165858 Z M319.901061,102.949236 C320.022525,104.577196 320.742724,106.105547 321.926535,107.24754 C322.861628,106.926986 323.738385,106.460511 324.523298,105.865942 C325.460081,105.178789 326.017215,104.09986 326.02942,102.949236 C326.08946,102.06433 325.650335,101.218683 324.886844,100.748913 C324.223318,100.373926 323.470467,100.179655 322.705564,100.18604 C321.796498,100.088698 320.904312,100.479384 320.368478,101.209446 C320.015639,101.757976 319.851723,102.403983 319.901061,103.051576 L319.901061,102.949236 Z" id="Shape"></path>
            <polygon id="Path" points="8 142 8 175 2 175 2 142"></polygon>
            <polygon id="Path" points="19.766129 175 14 175 14 142 19.766129 142 33.8145161 163.931677 33.8145161 142 40 142 40 175 34.0241935 175 19.766129 153.068323"></polygon>
            <polygon id="Path" points="51.9758065 175 46 175 46 142 51.9758065 142 66.0241935 163.931677 66.0241935 142 72 142 72 175 66.0241935 175 51.9758065 153.068323"></polygon>
            <path d="M76.0065796,158 C75.9053317,153.614618 77.4548966,149.351789 80.3468925,146.059867 C83.2238028,142.835407 87.3365264,140.994822 91.6518936,141.000488 C95.9300092,140.965472 100.007739,142.815169 102.805488,146.059867 C105.613114,149.391451 107.103626,153.640031 106.994395,158 C107.100637,162.386205 105.550429,166.650803 102.654082,169.940133 C99.7771718,173.164593 95.6644482,175.005178 91.349081,174.999512 C87.0709654,175.034528 82.9932357,173.184831 80.1954863,169.940133 C77.379517,166.613342 75.8878495,162.361467 76.0065796,158 Z M81.7600177,158 C81.6399447,160.941157 82.5307414,163.834488 84.2834554,166.196193 C86.0880313,168.391726 88.8168344,169.609614 91.6518936,169.484789 C94.3989536,169.621979 97.051448,168.460979 98.8184567,166.347974 C100.558794,164.023411 101.417485,161.154017 101.240957,158.252969 C101.354822,155.102093 100.231351,152.03214 98.1118942,149.702619 C96.3569728,147.899051 93.9629117,146.86269 91.4500185,146.818773 C88.9775054,146.817983 86.6102774,147.821984 84.8890804,149.601432 C82.8445881,151.808168 81.7557307,154.737174 81.8609552,157.747031 L81.7600177,158 Z" id="Shape"></path>
            <polygon id="Path" points="125.441781 175 118.558219 175 107 142 113.215753 142 122 167.267994 130.784247 142 137 142"></polygon>
            <path d="M146.763699,141 L153.441781,141 L165,174 L158.784247,174 L156.421233,167.278714 L143.578767,167.278714 L141.215753,174 L135,174 L146.763699,141 Z M154.469178,161.719755 L150,148.93415 L145.530822,161.719755 L154.469178,161.719755 Z" id="Shape"></path>
            <polygon id="Path" points="188 142 188 147.636646 177.78389 147.636646 177.78389 175 172.21611 175 172.21611 147.636646 162 147.636646 162 142"></polygon>
            <polygon id="Path" points="198 142 198 175 192 175 192 142"></polygon>
            <polygon id="Path" points="224 142 224 147.636646 210.704961 147.636646 210.704961 155.784161 223.603133 155.784161 223.603133 161.420807 210.704961 161.420807 210.704961 169.363354 224 169.363354 224 175 205 175 205 142"></polygon>
        </g>
    </g>
</svg>