<?xml version="1.0" encoding="UTF-8" standalone="no"?>
<svg
   xmlns:dc="http://purl.org/dc/elements/1.1/"
   xmlns:cc="http://creativecommons.org/ns#"
   xmlns:rdf="http://www.w3.org/1999/02/22-rdf-syntax-ns#"
   xmlns:svg="http://www.w3.org/2000/svg"
   xmlns="http://www.w3.org/2000/svg"
   xmlns:sodipodi="http://sodipodi.sourceforge.net/DTD/sodipodi-0.dtd"
   xmlns:inkscape="http://www.inkscape.org/namespaces/inkscape"
   version="1.1"
   id="svg851"
   xml:space="preserve"
   width="2000"
   height="600"
   viewBox="0 0 2000 600"
   sodipodi:docname="vanhout.svg"
   inkscape:version="1.0.2 (e86c8708, 2021-01-15)"><metadata
     id="metadata857"><rdf:RDF><cc:Work
         rdf:about=""><dc:format>image/svg+xml</dc:format><dc:type
           rdf:resource="http://purl.org/dc/dcmitype/StillImage" /><dc:title></dc:title></cc:Work></rdf:RDF></metadata><defs
     id="defs855" /><sodipodi:namedview
     pagecolor="#ffffff"
     bordercolor="#666666"
     borderopacity="1"
     objecttolerance="10"
     gridtolerance="10"
     guidetolerance="10"
     inkscape:pageopacity="0"
     inkscape:pageshadow="2"
     inkscape:window-width="1440"
     inkscape:window-height="760"
     id="namedview853"
     showgrid="false"
     inkscape:zoom="0.29458675"
     inkscape:cx="627.461"
     inkscape:cy="15.24814"
     inkscape:window-x="0"
     inkscape:window-y="25"
     inkscape:window-maximized="0"
     inkscape:current-layer="g859" /><g
     id="g859"
     inkscape:groupmode="layer"
     inkscape:label="vanhout"
     transform="matrix(1.3333333,0,0,1.3333333,0,1.3793945e-5)"><g
       id="g861"
       transform="translate(-15.353481,-11.908005)"><path
         d="m 195.758,195.191 c 6.242,-2.839 13.054,-4.543 19.297,-6.246 30.086,-8.511 60.168,-15.324 91.386,-19.867 26.11,-3.973 52.219,-6.242 78.332,-7.945 21,-1.137 41.434,-1.703 62.434,-1.703 4.543,0 9.082,0 13.059,0 0,0 0,0 -0.571,0 -19.867,-2.836 -39.73,-5.11 -59.597,-6.813 -17.028,-1.699 -34.625,-2.836 -51.653,-3.402 -21.004,-0.57 -42.57,-0.57 -63.574,0.566 -20.433,1.137 -41.433,2.836 -61.867,5.676 -21.57,2.84 -42.57,7.379 -63.574,13.621 -11.918,2.84 -23.27,7.379 -34.625,11.356 -9.082,-9.082 -18.16,-18.164 -27.243,-27.246 1.133,-1.137 2.836,-2.27 4.54,-2.84 23.839,-16.461 49.382,-28.946 76.628,-38.028 26.676,-9.082 53.356,-15.894 81.168,-19.867 23.84,-3.406 48.247,-5.676 72.086,-6.246 18.731,-1.133 37.461,-0.566 55.625,0 20.434,1.137 40.868,2.84 61.301,5.676 17.598,1.703 35.192,5.109 52.223,7.949 17.594,3.973 35.191,8.512 52.785,13.055 1.703,1.136 3.977,1.703 5.676,1.703 0.57,0 1.136,0.566 1.703,0.566 0,0.567 -0.567,1.137 -1.133,1.703 -17.598,14.758 -29.516,33.489 -39.164,54.493 -9.082,19.863 -14.191,40.867 -17.031,63.003 -0.567,5.11 -1.703,10.215 -1.703,15.891 0,2.274 -0.567,2.84 -2.836,2.274 -6.813,-0.571 -13.625,-1.137 -19.868,-1.704 -13.054,-1.703 -25.542,-2.269 -38.031,-2.269 -1.133,0 -1.703,0 -2.836,0 0,-5.68 0.567,-10.785 1.133,-16.461 2.274,-18.164 6.246,-35.762 13.059,-52.789 0.566,-0.567 1.133,-1.703 0.566,-3.406 -3.406,0 -6.812,-0.567 -10.219,-0.567 -15.89,-1.703 -31.785,-2.269 -48.246,-2.269 -40.867,-1.137 -81.168,1.133 -121.468,6.808 -23.274,2.84 -46.543,7.379 -69.247,13.625 -2.839,0.567 -5.679,1.703 -8.515,1.703 z"
         style="fill:#e30613;fill-opacity:1;fill-rule:nonzero;stroke:none"
         id="path863" /><path
         d="m 124.805,180.434 c 11.355,-3.977 22.707,-8.516 34.625,-11.356 21.004,-6.242 42.004,-10.781 63.574,-13.621 20.434,-2.84 41.434,-4.539 61.867,-5.676 21.004,-1.136 42.57,-1.136 63.574,-0.566 17.028,0.566 34.625,1.703 51.653,3.402 19.867,1.703 39.73,3.977 59.597,6.813 0.571,0 0.571,0 0.571,0 -3.977,0 -8.516,0 -13.059,0 -14.758,-1.133 -28.945,-1.133 -43.703,-1.703 -22.707,0 -45.41,0 -68.113,1.136 -19.868,1.133 -39.168,2.27 -57.899,4.539 -26.676,3.407 -53.355,7.379 -78.898,14.192 -39.164,9.648 -76.059,23.273 -110.114,44.84 -2.273,1.136 -3.976,3.976 -6.246,3.976 -2.836,-0.57 -3.972,-3.406 -6.242,-5.68 -3.406,-2.835 -6.246,-6.242 -9.648,-9.078 0.566,-1.703 1.703,-2.273 2.836,-2.84 16.461,-10.785 33.488,-19.296 51.086,-26.675 1.703,-0.571 2.836,-1.137 4.539,-1.703 z m 318.429,-5.11 c 3.407,0 6.813,0.567 10.219,0.567 0.567,1.703 0,2.839 -0.566,3.406 -6.813,17.027 -10.785,34.625 -13.059,52.789 -0.566,5.676 -1.133,10.781 -1.133,16.461 -7.945,0 -16.461,0 -24.406,0.566 -68.113,3.973 -133.391,19.297 -195.258,48.813 -13.625,6.246 -27.246,13.625 -40.301,22.136 -1.703,1.137 -2.839,1.137 -3.976,-0.566 -21,-21 -42.57,-42.004 -63.57,-63.57 0,0 0,0 -0.567,-0.571 0.567,-0.566 1.703,-1.132 2.27,-1.703 12.488,-6.808 24.972,-13.054 37.461,-18.73 18.73,-9.082 38.031,-16.461 57.328,-23.27 23.84,-7.949 48.25,-14.757 72.656,-19.867 11.918,-2.84 23.84,-5.109 35.758,-6.812 12.488,-2.27 24.976,-3.973 38.031,-5.11 10.215,-1.133 19.867,-2.269 30.082,-2.836 9.082,-0.57 17.598,-1.703 26.109,-1.136 5.676,0 11.356,0.566 17.032,-0.567 1.133,-0.57 2.269,0 3.406,0 3.973,0.567 8.512,0.567 12.484,0 z m 964.938,94.789 v -58.461 c 0,-1.136 0,-1.703 0,-2.84 0,-1.703 0.57,-2.269 2.273,-2.269 11.352,0 22.137,0 33.489,0 1.703,0 2.269,0.566 2.269,2.269 0,7.379 0,14.192 0,21 0,1.137 0,2.274 0,2.84 0,2.27 0.567,2.836 2.27,2.836 6.812,0 13.625,0 19.867,0 1.137,0 2.269,0 2.836,0 2.273,-0.566 2.84,0.571 2.84,2.84 0,7.379 0,14.758 0,22.137 0,2.84 0,2.84 -2.84,2.84 -7.379,0.566 -14.758,0 -21.567,0.566 -3.406,0 -3.406,0 -3.406,2.836 0,18.734 0,37.465 0,56.195 0,10.215 3.406,13.621 13.621,13.621 3.973,0 7.379,0 11.352,0 1.703,0 2.84,0 2.84,2.274 0,7.945 0,15.891 0,23.84 0,1.699 -0.567,2.269 -2.27,2.269 -11.922,0.567 -24.406,2.27 -36.328,0.567 -3.406,-0.567 -6.813,-1.137 -10.215,-2.27 -7.379,-3.406 -12.488,-9.648 -14.758,-17.598 -1.703,-6.242 -2.273,-12.488 -2.273,-18.73 0,-18.73 0,-38.031 0,-56.762 m -511.984,-23.84 c 2.269,-0.566 2.839,-1.703 3.972,-2.835 14.758,-11.352 31.219,-14.192 49.383,-9.083 14.191,4.54 22.137,14.758 24.977,28.95 0.566,3.402 1.132,6.808 0.566,10.215 0,28.949 0,58.464 0,87.414 0,0.566 0,0.566 0,1.132 0,3.407 0,3.407 -2.836,3.407 -10.785,0 -21.004,0 -31.789,0 -3.406,0 -3.406,0 -3.406,-3.973 0,-20.434 0,-41.438 0,-61.871 0,-7.379 0.57,-14.758 -0.567,-22.137 0,-2.836 -0.566,-5.105 -1.703,-7.379 -1.703,-3.406 -4.539,-5.675 -8.512,-6.808 -5.109,-1.703 -9.652,-1.703 -14.757,0 -7.95,2.836 -12.489,9.082 -13.059,17.593 0,6.247 0,12.489 0,18.164 0,20.434 0,40.868 0,60.735 0,0.566 0,1.137 0,2.269 0,3.407 0,3.407 -3.402,3.407 -6.246,0 -11.922,0 -18.164,0 -4.543,0 -9.082,0 -13.625,0 -1.704,0 -2.836,-0.567 -2.836,-2.836 0,-0.571 0,-1.137 0,-2.274 0,-39.73 0,-80.031 0,-120.332 0,-5.109 -0.567,-4.543 4.539,-4.543 9.652,0 18.73,0 27.812,0 3.407,0 3.407,0 3.407,2.84 0,2.84 0,5.11 0,7.945 m 456.359,108.415 c -1.137,0 -1.703,0.57 -2.27,1.136 -11.922,10.785 -26.679,14.192 -42.57,12.488 -8.516,-1.136 -16.461,-4.542 -22.707,-10.218 -7.945,-7.946 -10.781,-17.028 -11.352,-27.813 -0.566,-1.703 -0.566,-2.84 -0.566,-4.543 0,-28.379 0,-57.328 0,-85.707 0,-5.109 -0.566,-4.543 4.539,-4.543 10.219,0 20.434,0 30.652,0 3.407,0 3.407,0 3.407,3.407 0,26.113 0,51.652 0,77.765 0,3.402 0,6.809 1.132,10.781 1.704,6.247 6.247,10.219 13.059,10.786 2.836,0.57 6.242,0.57 9.082,0 7.945,-1.704 14.188,-7.946 14.758,-15.891 0.566,-1.703 0.566,-3.977 0.566,-5.676 0,-24.976 0,-50.519 0,-75.492 0,-1.137 0,-1.703 0,-2.84 0,-2.84 0,-2.84 2.836,-2.84 8.516,0 16.461,0 24.977,0 2.836,0 5.676,0 7.945,0 1.703,0 2.84,0.571 2.27,2.274 0,0.566 0,1.133 0,2.269 0,40.301 0,80.602 0,120.903 0,4.539 0.57,4.539 -4.539,4.539 -9.082,0 -18.164,0 -26.676,0 -4.543,0 -3.977,-0.567 -3.977,-3.973 -0.566,-2.27 -0.566,-4.543 -0.566,-6.812 m -545.473,-3.407 c -1.136,0 -1.703,0.571 -2.269,1.137 -9.082,9.648 -20.434,14.191 -32.922,15.324 -8.516,0.57 -16.461,0 -24.406,-2.836 -15.329,-5.676 -23.84,-17.597 -24.411,-33.488 0,-17.598 7.95,-29.516 23.274,-37.465 9.082,-5.109 18.73,-7.379 28.949,-9.082 7.945,-1.133 16.461,-1.703 24.973,-1.703 3.406,-0.566 3.406,-0.566 3.406,-3.402 0,-2.84 0,-5.68 0,-8.516 0,-8.516 -5.109,-14.191 -13.621,-15.324 -3.406,-0.571 -6.246,-0.571 -9.652,0 -7.379,1.133 -11.918,5.676 -14.188,13.054 -1.137,3.973 -1.137,3.973 -5.109,3.973 -10.219,0 -19.868,0 -30.082,0 -3.407,0 -2.84,-0.566 -2.84,-3.406 1.136,-13.055 7.945,-22.703 19.301,-29.516 7.945,-4.543 17.027,-6.812 26.109,-7.379 12.484,-1.136 24.406,-1.136 36.894,2.27 17.028,4.543 26.676,15.894 29.516,33.488 0.566,3.406 0.566,7.379 0.566,11.356 0,27.242 0,53.922 0,81.168 0,4.539 0.567,4.539 -3.972,4.539 -8.516,0 -17.028,0 -24.977,0 -3.406,0 -3.406,0 -3.406,-3.407 -0.566,-3.406 -0.566,-6.808 -1.133,-10.785 m -10.785,-45.406 c -6.812,0 -13.621,0.566 -19.867,2.27 -3.973,1.136 -7.945,2.835 -10.785,6.242 -8.512,8.515 -5.676,22.136 6.246,25.543 3.406,0.566 6.808,0.566 10.215,0.566 11.351,-1.699 18.164,-7.945 21.004,-19.297 0.566,-2.269 0.566,-5.109 0.566,-7.945 -0.566,-2.274 1.137,-5.676 -1.137,-7.379 -1.133,-1.137 -4.539,0 -6.242,0 m 326.375,-4.543 c 0,-9.082 1.137,-17.594 3.406,-26.109 6.813,-19.297 19.301,-32.356 38.598,-38.598 17.027,-6.242 34.625,-6.242 52.219,-0.566 23.84,7.379 38.031,23.839 42.574,48.246 2.269,12.488 1.699,25.543 -1.137,37.461 -5.676,21.57 -19.301,36.328 -40.301,43.14 -17.597,5.676 -35.191,5.676 -52.218,0 -23.84,-7.379 -37.465,-24.41 -42.004,-48.816 -1.137,-5.11 -1.137,-10.215 -1.137,-14.758 m 99.898,-1.703 c 0,-3.973 0,-7.945 -1.132,-11.918 -2.27,-13.055 -9.649,-24.406 -25.543,-26.109 -13.621,-1.137 -26.11,3.972 -31.785,18.73 -4.543,13.055 -4.543,26.676 0,40.301 3.972,10.785 11.918,17.594 23.839,18.73 14.188,1.703 26.11,-3.972 31.219,-19.301 2.27,-6.242 3.402,-13.054 3.402,-20.433 m -189.011,-55.625 c 1.133,-0.566 2.269,-1.137 3.406,-2.27 15.324,-10.785 31.785,-13.054 49.383,-6.812 13.621,5.109 20.433,15.894 22.703,29.516 0.566,3.406 1.133,6.812 1.133,10.218 0,28.379 0,57.328 0,85.707 0,5.11 0.57,5.11 -5.106,5.11 -9.082,0 -18.73,0 -28.382,0 -5.11,0 -4.54,0.566 -4.54,-4.539 0,-20.438 0,-40.872 0,-61.305 0,-7.379 0.567,-14.758 -0.57,-22.137 -0.566,-2.269 -1.133,-4.539 -1.699,-6.242 -1.703,-4.543 -5.109,-7.379 -9.652,-8.516 -5.106,-1.132 -10.215,-0.566 -14.758,1.137 -7.379,2.836 -11.352,8.516 -11.918,16.461 0,1.133 0,2.27 0,3.406 v 76.059 c 0,1.137 0,1.703 0,2.84 0,1.699 -0.567,2.836 -2.84,2.836 -10.785,0 -22.137,0 -33.488,0 -1.703,0 -2.27,-0.567 -2.27,-2.27 0,-1.137 0,-2.269 0,-2.84 0,-55.058 0,-109.547 0,-164.039 0,-5.676 0,-5.109 5.109,-5.109 9.649,0 19.297,0 28.946,0 4.543,0 4.543,-0.567 4.543,4.543 0,14.758 0,29.515 0,44.273 0,1.137 -0.567,2.27 0,3.973 M 576.055,191.785 c 1.136,-0.57 2.84,-0.57 3.976,-0.57 13.055,0 25.539,0 38.598,0 5.105,0 4.539,-0.567 5.676,4.543 10.781,38.597 21.566,77.762 32.351,116.926 0,0.57 0,1.703 1.137,2.839 1.133,-0.566 1.133,-2.269 1.133,-3.406 9.652,-34.625 19.301,-69.816 28.949,-105.008 1.137,-4.539 2.84,-9.082 3.973,-13.621 0,-1.703 1.136,-2.273 2.84,-2.273 14.191,0 28.949,0 43.136,0 0,0 0.571,0 0.571,0.57 0.566,1.133 0,2.836 -0.571,3.973 -18.164,55.058 -35.758,110.117 -53.922,164.605 0,0.571 -0.566,1.137 -0.566,2.274 -0.57,2.269 -1.703,2.836 -3.973,2.836 -9.082,0 -18.164,0 -27.246,0 -5.676,0 -10.785,0 -16.461,0 -3.406,0 -3.406,0 -4.543,-3.407 -5.105,-17.027 -10.785,-34.054 -16.461,-51.086 -12.484,-38.593 -25.539,-77.191 -38.027,-115.222 -0.57,-1.703 -1.137,-2.84 -0.57,-3.973 z"
         style="fill:#28348b;fill-opacity:1;fill-rule:nonzero;stroke:none"
         id="path865" /><path
         d="m 443.234,175.324 c -3.972,0.567 -8.511,0.567 -12.484,0 -1.137,0 -2.273,-0.57 -3.406,0 -5.676,1.133 -11.356,0.567 -17.032,0.567 -8.511,-0.567 -17.027,0.566 -26.109,1.136 -10.215,0.567 -19.867,1.703 -30.082,2.836 -13.055,1.137 -25.543,2.84 -38.031,5.11 -11.918,1.703 -23.84,3.972 -35.758,6.812 -24.406,5.11 -48.816,11.918 -72.656,19.867 -19.297,6.809 -38.598,14.188 -57.328,23.27 -12.489,5.676 -24.973,11.922 -37.461,18.73 -0.567,0.571 -1.703,1.137 -2.27,1.703 -5.109,-4.539 -9.652,-9.648 -15.328,-14.757 1.703,-1.133 2.84,-2.27 3.977,-2.836 22.703,-14.758 47.109,-25.543 72.086,-34.625 6.242,-1.703 11.918,-3.973 17.593,-5.676 0.571,0 1.137,0 1.703,-0.566 0,0 0.567,0 0.567,0 0.57,0 1.703,0 2.273,-0.571 0.567,-0.566 1.703,0 2.27,-1.133 2.836,0 5.676,-1.136 8.515,-1.703 22.704,-6.246 45.973,-10.785 69.247,-13.625 40.3,-5.675 80.601,-7.945 121.468,-6.808 16.461,0 32.356,0.566 48.246,2.269 z m 110.684,-62.437 c -17.594,-4.543 -35.191,-9.082 -52.785,-13.055 -10.219,-2.84 -20.434,-5.109 -30.653,-7.379 -21,-3.973 -42.003,-7.949 -63.003,-10.785 -15.895,-2.27 -31.786,-3.973 -47.68,-5.109 -23.274,-2.27 -47.113,-2.836 -70.953,-2.27 -52.785,1.703 -104.438,9.649 -153.821,28.949 -19.3,7.379 -38.031,15.891 -55.625,26.676 -3.972,2.27 -2.839,2.27 -6.246,-1.133 -4.539,-4.543 -9.082,-9.082 -14.187,-14.191 -0.57,-0.567 -1.703,-1.137 -2.274,-2.84 1.137,-1.133 2.84,-2.27 4.543,-2.836 29.516,-17.598 60.735,-29.516 94.223,-38.031 22.137,-5.676 44.84,-9.082 68.113,-11.352 21,-2.269 42.004,-2.84 63.004,-2.84 24.977,0.571 49.949,2.274 74.926,5.11 51.086,6.246 101.035,17.027 149.848,33.488 13.054,4.543 26.679,9.082 39.168,14.758 1.699,0.57 3.402,1.703 4.539,2.273 z M 272.953,417.125 c -28.383,-28.949 -57.328,-57.328 -86.277,-85.707 1.703,-1.137 2.84,-2.273 4.539,-2.84 32.922,-22.703 68.683,-39.164 106.711,-51.086 26.679,-7.945 53.355,-14.187 80.601,-18.164 18.164,-2.269 36.895,-3.973 55.625,-5.105 5.11,-0.571 4.543,0 3.977,3.972 -0.57,18.731 0.566,36.895 3.402,55.059 0,0.566 0,1.133 0.571,1.703 0,1.703 -0.571,2.27 -2.274,2.27 -3.402,0.566 -6.808,1.132 -10.781,1.132 -14.758,1.703 -29.516,3.407 -44.274,6.246 -20.437,3.407 -40.871,8.512 -60.168,17.594 -11.921,5.68 -22.703,12.489 -31.785,21.571 -13.625,13.625 -19.867,30.082 -19.867,49.382 0,1.137 0.567,2.27 0.567,3.407 0,0 -0.567,0.566 -0.567,0.566 z"
         style="fill:#0093d6;fill-opacity:1;fill-rule:nonzero;stroke:none"
         id="path867" /><path
         d="m 553.918,112.887 1.137,-0.567 c 1.703,0.567 3.406,1.133 4.539,2.27 -1.699,0 -3.973,-0.567 -5.676,-1.703 z"
         style="fill:#0093d6;fill-opacity:1;fill-rule:nonzero;stroke:none"
         id="path869" /><path
         d="m 190.648,196.895 c -0.566,0.566 -1.132,0.566 -1.703,0.566 0.571,-0.566 1.137,-0.566 1.703,-0.566 z"
         style="fill:#e30613;fill-opacity:1;fill-rule:nonzero;stroke:none"
         id="path871" /><path
         d="m 193.488,196.324 c -0.57,0.571 -1.703,0.571 -2.273,0.571 0.57,-1.137 1.703,-0.571 2.273,-0.571 z"
         style="fill:#e30613;fill-opacity:1;fill-rule:nonzero;stroke:none"
         id="path873" /><path
         d="m 195.758,195.191 c -0.567,1.133 -1.703,0.567 -2.27,1.133 0.567,-1.133 1.133,-1.133 2.27,-1.133 z"
         style="fill:#e30613;fill-opacity:1;fill-rule:nonzero;stroke:none"
         id="path875" /><path
         d="m 561.297,115.156 c -0.567,0 -1.133,-0.566 -1.703,-0.566 0.57,0 1.136,0 1.703,0.566 z"
         style="fill:#0093d6;fill-opacity:1;fill-rule:nonzero;stroke:none"
         id="path877" /></g></g></svg>
