<?xml version="1.0" encoding="UTF-8"?><svg id="Layer_1" xmlns="http://www.w3.org/2000/svg" viewBox="0 0 224.9 237.13"><defs><style>.cls-1{fill:#fff;}.cls-2{fill:#46ae4d;}</style></defs><circle class="cls-1" cx="113.57" cy="98.7" r="75.57"/><g><path class="cls-2" d="M123.79,99.04c-.42-.53-.89-1.01-1.42-1.44-1.39-1.12-2.76-2.27-4.13-3.41-.36-.3-.74-.54-1.15-.76-4.68-2.5-9.61-3.29-14.83-2.27-12.27,2.38-20.14,14.67-17.18,26.81,2.76,11.35,13.58,18.48,25.12,16.56,10.56-1.76,18.4-11.03,18.41-21.76-.04-.54-.07-1.08-.11-1.62-.32-4.53-1.92-8.56-4.73-12.11Z"/><path class="cls-2" d="M113.57,17.63c-44.77,0-81.07,36.3-81.07,81.07s36.3,81.07,81.07,81.07,81.07-36.3,81.07-81.07S158.34,17.63,113.57,17.63Zm61.52,105.81c-1.24,.14-2.47,.23-3.71,.35-3.23,.31-6.46,.62-9.68,.92-2.56,.24-5.11,.47-7.67,.71-2.58,.24-5.16,.5-7.75,.75-1.75,.17-3.5,.36-5.25,.49-.52,.04-.71,.27-.92,.71-4.76,10.49-12.65,17.39-23.69,20.67-3.12,.93-6.62,1.38-9.92,1.38-17.24,0-31.97-11.79-35.71-28.67-3.26-14.73,2.77-29.69,14.99-38.1,.58-.4,.73-.78,.66-1.45-.35-3.33-.65-6.67-.97-10-.36-3.71-.72-7.42-1.07-11.13-.3-3.15-.58-6.3-.87-9.44-.09-1-.16-1.99-.3-2.98-.19-1.35,.66-2.25,2.02-2.36,3.29-.27,6.56-.61,9.85-.92,.59-.06,1.18-.12,1.78-.17,1.16-.1,1.99,.55,2.12,1.73,.22,2.07,.41,4.14,.61,6.21,.26,2.69,.52,5.38,.77,8.07,.24,2.53,.47,5.06,.71,7.59,.21,2.29,.45,4.57,.64,6.86,.04,.47,.23,.52,.62,.48,1.29-.13,2.58-.25,3.87-.37,2.66-.25,5.33-.51,7.99-.76,3.17-.3,6.35-.61,9.52-.92,2.37-.23,4.73-.45,7.1-.67,2.61-.24,5.22-.48,7.83-.71,1.36-.12,2.11,.45,2.26,1.82,.22,1.96,.37,3.93,.56,5.89,.3,3.2,.61,6.4,.92,9.6,.24,2.53,.47,5.06,.71,7.59,.25,2.61,.5,5.22,.75,7.83,.17,1.8,.36,3.6,.51,5.41,.05,.57,.13,.58,.64,.54,2.04-.19,4.09-.37,6.13-.57,2.64-.25,5.27-.5,7.91-.75,2.58-.25,5.16-.5,7.75-.74,2.31-.22,4.63-.45,6.94-.65,1.06-.09,1.88,.62,2,1.69,.17,1.53,.31,3.06,.46,4.6,.21,2.15,.41,4.3,.62,6.45,.03,.32,.05,.65,.07,.97,.04,1.22-.57,1.96-1.76,2.09Z"/></g><g><path class="cls-2" d="M33.8,181.13c-2.44,2.17-5.14,3.19-8.09,3.05-2.96-.13-5.55-1.45-7.77-3.94-2.24-2.51-3.26-5.25-3.07-8.22,.19-2.97,1.51-5.54,3.94-7.71l3.56-3.17c2.43-2.17,5.13-3.18,8.1-3.04s5.57,1.46,7.8,3.96c2.21,2.48,3.22,5.21,3.03,8.18-.2,2.97-1.51,5.54-3.94,7.71l-3.56,3.17Zm-.5-7.78c1.41-1.26,2.28-2.63,2.59-4.1s-.07-2.82-1.16-4.03c-1.11-1.24-2.4-1.79-3.89-1.64-1.49,.15-2.94,.85-4.36,2.12l-3.59,3.2c-1.43,1.28-2.3,2.65-2.62,4.12-.31,1.47,.08,2.83,1.19,4.07,1.07,1.21,2.36,1.73,3.85,1.59,1.5-.15,2.96-.86,4.39-2.13l3.59-3.2Z"/><path class="cls-2" d="M49.81,205.97l-5.06-3.47,1.42-19.24-.11-.03-9.4,13.73-5.08-3.48,14.98-21.87,5.08,3.48-1.41,19.23,.11,.03,9.39-13.71,5.06,3.47-14.98,21.87Z"/><path class="cls-2" d="M93.28,210.12l.11,.03,7.09-15.98,6.06,1.44-12.04,24.39-5.63-1.34-.56-16.96-.11-.03-8.09,14.9-5.63-1.34,.19-27.2,6.08,1.44-.86,17.48,.1,.04,8.36-15.72,4.52,1.07,.42,17.77Z"/><path class="cls-2" d="M131.57,221.15l-6.13,.28-.49-10.66-9.8,.45,.49,10.66-6.15,.28-1.21-26.48,6.15-.28,.51,11.09,9.8-.45-.51-11.09,6.13-.28,1.21,26.48Z"/><path class="cls-2" d="M151.31,204.62l-9.01,2.45,1.73,6.38,10.81-2.94,1.24,4.57-16.74,4.55-6.95-25.58,16.76-4.56,1.24,4.57-10.82,2.94,1.49,5.5,9.01-2.45,1.24,4.57Z"/><path class="cls-2" d="M171.16,195.59l-8.37,4.15,2.94,5.92,10.03-4.97,2.1,4.24-15.55,7.71-11.77-23.75,15.56-7.71,2.1,4.24-10.05,4.98,2.53,5.11,8.37-4.15,2.1,4.24Z"/><path class="cls-2" d="M185.5,193.8l9.01-6.95,2.89,3.75-13.88,10.7-16.18-21,4.87-3.76,13.29,17.25Z"/><path class="cls-2" d="M204.71,172.71c-.72-.61-1.47-.85-2.26-.71s-1.92,.65-3.41,1.51c-2.95,1.81-5.4,2.92-7.36,3.35-1.96,.43-3.79-.09-5.52-1.57-1.69-1.44-2.45-3.32-2.29-5.62,.16-2.3,1.18-4.54,3.04-6.72,1.96-2.3,4.08-3.69,6.35-4.17,2.27-.48,4.37,.13,6.29,1.85l.06,.1-3.88,4.54c-.95-.81-1.86-1.14-2.73-.99-.87,.15-1.75,.75-2.64,1.79-.73,.85-1.09,1.7-1.09,2.54,0,.84,.3,1.53,.91,2.05,.59,.5,1.28,.66,2.06,.46s2.03-.76,3.74-1.68c2.69-1.74,5.04-2.79,7.06-3.14,2.02-.35,3.9,.22,5.63,1.7,1.77,1.51,2.57,3.39,2.38,5.63-.18,2.24-1.25,4.5-3.21,6.79-1.95,2.28-4.13,3.75-6.56,4.42-2.43,.67-4.78-.01-7.04-2.03l-.06-.1,3.89-4.55c1.17,1,2.25,1.42,3.24,1.27,.99-.16,1.99-.83,3.01-2.02,.84-.98,1.27-1.87,1.29-2.68,.02-.81-.28-1.48-.91-2.02Z"/></g></svg>