<svg width="632" height="120" viewBox="0 0 632 120" fill="none" xmlns="http://www.w3.org/2000/svg">
<path d="M14.8321 44.117C16.8788 39.94 19.3433 36.6611 22.2254 34.2802C25.1075 31.8993 28.5744 30.7088 32.6261 30.7088C34.0045 30.7088 35.2994 30.8759 36.5107 31.2101C37.7638 31.5025 38.8498 31.9619 39.7688 32.5885L38.9543 41.7988C38.6619 42.9265 37.9727 43.4904 36.8866 43.4904C36.3019 43.4904 35.4247 43.386 34.2551 43.1772C33.0856 42.9265 31.8325 42.8012 30.4958 42.8012C28.5327 42.8012 26.7992 43.0936 25.2955 43.6784C23.7918 44.2214 22.4342 45.0568 21.2229 46.1846C20.0534 47.2706 19.0091 48.6281 18.0902 50.2572C17.1712 51.8444 16.315 53.6614 15.5213 55.7082V95.5567H3.30362V31.8993H10.321C11.6576 31.8993 12.5557 32.1499 13.0151 32.6511C13.5164 33.1106 13.8714 33.946 14.0803 35.1573L14.8321 44.117Z" fill="black"/>
<path d="M89.0351 56.648C89.0351 54.2253 88.6801 51.9906 87.97 49.9439C87.3016 47.8972 86.2992 46.122 84.9625 44.6182C83.6259 43.1145 81.9969 41.945 80.0755 41.1096C78.154 40.2742 75.9402 39.8565 73.434 39.8565C68.2963 39.8565 64.2446 41.3393 61.279 44.305C58.3551 47.2706 56.4963 51.385 55.7027 56.648H89.0351ZM99.1225 86.4717C97.6188 88.226 95.8854 89.7506 93.9222 91.0455C91.959 92.2986 89.8705 93.322 87.6567 94.1156C85.4429 94.9092 83.1455 95.494 80.7646 95.8699C78.4255 96.2459 76.1073 96.4338 73.81 96.4338C69.4241 96.4338 65.3515 95.7029 61.5922 94.2409C57.8747 92.7372 54.6376 90.5652 51.8807 87.7248C49.1657 84.8427 47.0354 81.2922 45.4899 77.0735C43.9862 72.8129 43.2344 67.9259 43.2344 62.4122C43.2344 57.9846 43.9236 53.8703 45.302 50.0692C46.6804 46.2264 48.6436 42.8848 51.1915 40.0444C53.7813 37.2041 56.9349 34.9694 60.6524 33.3404C64.37 31.7113 68.5469 30.8968 73.1834 30.8968C77.068 30.8968 80.6393 31.5442 83.8974 32.8391C87.1972 34.0922 90.0376 35.9301 92.4185 38.3527C94.7993 40.7754 96.6581 43.7619 97.9947 47.3124C99.3732 50.8628 100.062 54.9145 100.062 59.4674C100.062 61.3471 99.8535 62.6211 99.4358 63.2894C99.0181 63.9159 98.2454 64.2292 97.1176 64.2292H55.3894C55.5147 68.0303 56.0577 71.351 57.0184 74.1913C57.9792 76.9899 59.2949 79.329 60.9657 81.2087C62.6783 83.0883 64.7041 84.4876 67.0432 85.4066C69.3823 86.3255 71.993 86.785 74.8751 86.785C77.5901 86.785 79.9293 86.4717 81.8924 85.8452C83.8974 85.2186 85.61 84.5503 87.0301 83.8402C88.4921 83.0883 89.7034 82.3991 90.6641 81.7726C91.6666 81.146 92.5438 80.8328 93.2956 80.8328C94.2981 80.8328 95.0708 81.2087 95.6138 81.9606L99.1225 86.4717Z" fill="black"/>
<path d="M154.233 47.3124C152.228 44.6809 150.056 42.843 147.717 41.7988C145.42 40.7545 142.83 40.2324 139.948 40.2324C134.351 40.2324 130.007 42.2582 126.916 46.3099C123.867 50.3198 122.342 56.1885 122.342 63.9159C122.342 67.9676 122.676 71.4345 123.345 74.3167C124.055 77.157 125.057 79.4961 126.352 81.334C127.689 83.1301 129.318 84.4668 131.239 85.3439C133.16 86.1793 135.332 86.597 137.755 86.597C141.306 86.597 144.376 85.8034 146.965 84.2161C149.555 82.6289 151.978 80.3942 154.233 77.5121V47.3124ZM166.514 3.07803V95.5567H159.12C157.408 95.5567 156.343 94.7421 155.925 93.1131L154.86 85.7825C152.145 88.9988 149.054 91.5885 145.587 93.5517C142.162 95.4731 138.194 96.4338 133.683 96.4338C130.049 96.4338 126.749 95.7237 123.783 94.3036C120.859 92.8834 118.353 90.8158 116.265 88.1007C114.176 85.3439 112.568 81.9397 111.44 77.888C110.312 73.8363 109.748 69.179 109.748 63.9159C109.748 59.1959 110.375 54.8101 111.628 50.7584C112.881 46.7067 114.698 43.1981 117.079 40.2324C119.46 37.2667 122.342 34.9485 125.725 33.2777C129.109 31.5651 132.931 30.7088 137.191 30.7088C141.034 30.7088 144.292 31.3354 146.965 32.5885C149.68 33.8416 152.103 35.6168 154.233 37.9142V3.07803H166.514Z" fill="black"/>
<path d="M195.777 79.8929C197.781 82.5244 199.933 84.3623 202.23 85.4066C204.569 86.4508 207.18 86.973 210.062 86.973C215.659 86.973 219.982 84.968 223.031 80.9581C226.122 76.9064 227.668 71.0168 227.668 63.2894C227.668 59.2377 227.313 55.7917 226.603 52.9513C225.934 50.0692 224.932 47.7301 223.595 45.934C222.3 44.0961 220.692 42.7595 218.771 41.9241C216.849 41.0469 214.677 40.6083 212.255 40.6083C208.704 40.6083 205.613 41.4019 202.982 42.9892C200.392 44.5765 197.99 46.832 195.777 49.7559V79.8929ZM195.15 41.4228C196.487 39.8356 197.907 38.3945 199.41 37.0996C200.956 35.763 202.606 34.6352 204.36 33.7163C206.115 32.7556 207.973 32.0246 209.937 31.5234C211.941 30.9803 214.072 30.7088 216.327 30.7088C219.961 30.7088 223.24 31.4189 226.164 32.8391C229.13 34.2593 231.657 36.3478 233.745 39.1046C235.834 41.8614 237.442 45.2657 238.57 49.3173C239.739 53.369 240.324 58.0264 240.324 63.2894C240.324 68.0094 239.677 72.3952 238.382 76.4469C237.129 80.4568 235.312 83.9446 232.931 86.9103C230.592 89.876 227.71 92.2151 224.284 93.9276C220.901 95.5984 217.079 96.4338 212.819 96.4338C209.018 96.4338 205.76 95.8073 203.044 94.5542C200.329 93.3011 197.907 91.5468 195.777 89.2912V116.922H183.559V31.8993H190.889C192.602 31.8993 193.667 32.7138 194.085 34.3428L195.15 41.4228Z" fill="black"/>
<path d="M296.212 56.648C296.212 54.2253 295.857 51.9906 295.147 49.9439C294.479 47.8972 293.476 46.122 292.14 44.6182C290.803 43.1145 289.174 41.945 287.253 41.1096C285.331 40.2742 283.117 39.8565 280.611 39.8565C275.474 39.8565 271.422 41.3393 268.456 44.305C265.532 47.2706 263.674 51.385 262.88 56.648H296.212ZM306.3 86.4717C304.796 88.226 303.063 89.7506 301.099 91.0455C299.136 92.2986 297.048 93.322 294.834 94.1156C292.62 94.9092 290.323 95.494 287.942 95.8699C285.603 96.2459 283.285 96.4338 280.987 96.4338C276.601 96.4338 272.529 95.7029 268.769 94.2409C265.052 92.7372 261.815 90.5652 259.058 87.7248C256.343 84.8427 254.213 81.2922 252.667 77.0735C251.163 72.8129 250.412 67.9259 250.412 62.4122C250.412 57.9846 251.101 53.8703 252.479 50.0692C253.858 46.2264 255.821 42.8848 258.369 40.0444C260.958 37.2041 264.112 34.9694 267.83 33.3404C271.547 31.7113 275.724 30.8968 280.361 30.8968C284.245 30.8968 287.817 31.5442 291.075 32.8391C294.374 34.0922 297.215 35.9301 299.596 38.3527C301.977 40.7754 303.835 43.7619 305.172 47.3124C306.55 50.8628 307.24 54.9145 307.24 59.4674C307.24 61.3471 307.031 62.6211 306.613 63.2894C306.195 63.9159 305.423 64.2292 304.295 64.2292H262.567C262.692 68.0303 263.235 71.351 264.196 74.1913C265.156 76.9899 266.472 79.329 268.143 81.2087C269.855 83.0883 271.881 84.4876 274.22 85.4066C276.56 86.3255 279.17 86.785 282.052 86.785C284.767 86.785 287.106 86.4717 289.07 85.8452C291.075 85.2186 292.787 84.5503 294.207 83.8402C295.669 83.0883 296.881 82.3991 297.841 81.7726C298.844 81.146 299.721 80.8328 300.473 80.8328C301.475 80.8328 302.248 81.2087 302.791 81.9606L306.3 86.4717Z" fill="black"/>
<path d="M331.838 40.7336C333.216 39.2717 334.657 37.935 336.161 36.7237C337.664 35.5124 339.252 34.489 340.922 33.6536C342.635 32.7765 344.452 32.1081 346.373 31.6487C348.337 31.1474 350.425 30.8968 352.639 30.8968C356.148 30.8968 359.218 31.4816 361.849 32.6511C364.522 33.8207 366.757 35.4706 368.553 37.6009C370.349 39.6894 371.707 42.2165 372.626 45.1821C373.545 48.1478 374.004 51.4267 374.004 55.019V95.5567H361.724V55.019C361.724 50.466 360.68 46.9365 358.591 44.4303C356.503 41.8823 353.307 40.6083 349.005 40.6083C345.872 40.6083 342.927 41.3602 340.171 42.8639C337.456 44.3258 334.928 46.3308 332.589 48.8788V95.5567H320.372V31.8993H327.702C329.415 31.8993 330.48 32.7138 330.898 34.3428L331.838 40.7336Z" fill="black"/>
<path d="M435.102 43.8037C434.726 44.2632 434.35 44.6391 433.974 44.9315C433.64 45.1821 433.138 45.3074 432.47 45.3074C431.802 45.3074 431.092 45.0568 430.34 44.5556C429.63 44.0126 428.711 43.4487 427.583 42.8639C426.497 42.2373 425.16 41.6735 423.573 41.1722C422.028 40.6292 420.106 40.3577 417.809 40.3577C414.801 40.3577 412.149 40.9007 409.852 41.9867C407.554 43.0727 405.633 44.6182 404.087 46.6232C402.584 48.6282 401.435 51.0717 400.641 53.9538C399.848 56.8359 399.451 60.0731 399.451 63.6653C399.451 67.3828 399.869 70.7036 400.704 73.6274C401.539 76.5096 402.73 78.9531 404.275 80.9581C405.821 82.9213 407.7 84.425 409.914 85.4692C412.128 86.4717 414.593 86.973 417.308 86.973C419.939 86.973 422.111 86.6597 423.824 86.0331C425.536 85.3648 426.956 84.6547 428.084 83.9029C429.212 83.151 430.152 82.4618 430.904 81.8352C431.656 81.1669 432.428 80.8328 433.222 80.8328C434.224 80.8328 434.997 81.2087 435.54 81.9606L439.049 86.4717C437.587 88.2678 435.937 89.7924 434.099 91.0455C432.303 92.2986 430.382 93.322 428.335 94.1156C426.288 94.9092 424.137 95.494 421.881 95.8699C419.668 96.2459 417.412 96.4338 415.115 96.4338C411.147 96.4338 407.429 95.7029 403.962 94.2409C400.537 92.779 397.55 90.6487 395.002 87.8501C392.496 85.0515 390.512 81.6264 389.05 77.5747C387.588 73.4813 386.857 68.8448 386.857 63.6653C386.857 58.9453 387.505 54.5804 388.8 50.5704C390.136 46.5605 392.079 43.1145 394.626 40.2324C397.216 37.3085 400.391 35.032 404.15 33.403C407.909 31.7322 412.212 30.8968 417.057 30.8968C421.61 30.8968 425.62 31.6278 429.087 33.0897C432.554 34.5517 435.645 36.6193 438.36 39.2926L435.102 43.8037Z" fill="black"/>
<path d="M463.236 31.8993V95.5567H451.018V31.8993H463.236ZM465.554 12.2256C465.554 13.3534 465.324 14.4395 464.865 15.4837C464.405 16.4862 463.779 17.3842 462.985 18.1779C462.233 18.9297 461.335 19.5354 460.291 19.9949C459.247 20.4126 458.161 20.6214 457.033 20.6214C455.905 20.6214 454.84 20.4126 453.837 19.9949C452.835 19.5354 451.937 18.9297 451.143 18.1779C450.391 17.3842 449.786 16.4862 449.326 15.4837C448.909 14.4395 448.7 13.3534 448.7 12.2256C448.7 11.0561 448.909 9.97007 449.326 8.96759C449.786 7.92335 450.391 7.02529 451.143 6.27343C451.937 5.4798 452.835 4.87414 453.837 4.45644C454.84 3.99697 455.905 3.76724 457.033 3.76724C458.161 3.76724 459.247 3.99697 460.291 4.45644C461.335 4.87414 462.233 5.4798 462.985 6.27343C463.779 7.02529 464.405 7.92335 464.865 8.96759C465.324 9.97007 465.554 11.0561 465.554 12.2256Z" fill="black"/>
<path d="M493.456 3.07803V95.5567H481.175V3.07803H493.456Z" fill="black"/>
<path d="M508.901 88.2261C508.901 87.0983 509.11 86.0331 509.528 85.0306C509.945 84.0282 510.509 83.151 511.219 82.3991C511.971 81.6473 512.848 81.0625 513.851 80.6448C514.853 80.1853 515.939 79.9556 517.109 79.9556C518.237 79.9556 519.302 80.1853 520.304 80.6448C521.307 81.0625 522.184 81.6473 522.936 82.3991C523.688 83.151 524.273 84.0282 524.69 85.0306C525.15 86.0331 525.379 87.0983 525.379 88.2261C525.379 89.3956 525.15 90.4816 524.69 91.4841C524.273 92.4866 523.688 93.3637 522.936 94.1156C522.184 94.8675 521.307 95.4522 520.304 95.8699C519.302 96.2876 518.237 96.4965 517.109 96.4965C515.939 96.4965 514.853 96.2876 513.851 95.8699C512.848 95.4522 511.971 94.8675 511.219 94.1156C510.509 93.3637 509.945 92.4866 509.528 91.4841C509.11 90.4816 508.901 89.3956 508.901 88.2261Z" fill="black"/>
<path d="M553.302 31.8993V95.5567H541.084V31.8993H553.302ZM555.62 12.2256C555.62 13.3534 555.39 14.4395 554.931 15.4837C554.472 16.4862 553.845 17.3842 553.051 18.1779C552.3 18.9297 551.401 19.5354 550.357 19.9949C549.313 20.4126 548.227 20.6214 547.099 20.6214C545.971 20.6214 544.906 20.4126 543.904 19.9949C542.901 19.5354 542.003 18.9297 541.21 18.1779C540.458 17.3842 539.852 16.4862 539.393 15.4837C538.975 14.4395 538.766 13.3534 538.766 12.2256C538.766 11.0561 538.975 9.97007 539.393 8.96759C539.852 7.92335 540.458 7.02529 541.21 6.27343C542.003 5.4798 542.901 4.87414 543.904 4.45644C544.906 3.99697 545.971 3.76724 547.099 3.76724C548.227 3.76724 549.313 3.99697 550.357 4.45644C551.401 4.87414 552.3 5.4798 553.051 6.27343C553.845 7.02529 554.472 7.92335 554.931 8.96759C555.39 9.97007 555.62 11.0561 555.62 12.2256Z" fill="black"/>
<path d="M598.121 30.8968C602.799 30.8968 607.018 31.6696 610.777 33.215C614.578 34.7188 617.794 36.9117 620.426 39.7938C623.099 42.6342 625.146 46.0802 626.566 50.1319C627.986 54.1418 628.696 58.6529 628.696 63.6653C628.696 68.6777 627.986 73.2098 626.566 77.2614C625.146 81.3131 623.099 84.7591 620.426 87.5995C617.794 90.4398 614.578 92.6328 610.777 94.1783C607.018 95.682 602.799 96.4338 598.121 96.4338C593.401 96.4338 589.14 95.682 585.339 94.1783C581.58 92.6328 578.364 90.4398 575.69 87.5995C573.017 84.7591 570.949 81.3131 569.488 77.2614C568.067 73.2098 567.357 68.6777 567.357 63.6653C567.357 58.6529 568.067 54.1418 569.488 50.1319C570.949 46.0802 573.017 42.6342 575.69 39.7938C578.364 36.9117 581.58 34.7188 585.339 33.215C589.14 31.6696 593.401 30.8968 598.121 30.8968ZM598.121 86.9103C604.136 86.9103 608.626 84.8845 611.592 80.8328C614.557 76.7811 616.04 71.0795 616.04 63.728C616.04 56.3765 614.557 50.6749 611.592 46.6232C608.626 42.5297 604.136 40.483 598.121 40.483C592.022 40.483 587.469 42.5297 584.462 46.6232C581.496 50.6749 580.014 56.3765 580.014 63.728C580.014 71.0795 581.496 76.7811 584.462 80.8328C587.469 84.8845 592.022 86.9103 598.121 86.9103Z" fill="black"/>
<path d="M14.8321 44.117C16.8788 39.94 19.3433 36.6611 22.2254 34.2802C25.1075 31.8993 28.5744 30.7088 32.6261 30.7088C34.0045 30.7088 35.2994 30.8759 36.5107 31.2101C37.7638 31.5025 38.8498 31.9619 39.7688 32.5885L38.9543 41.7988C38.6619 42.9265 37.9727 43.4904 36.8866 43.4904C36.3019 43.4904 35.4247 43.386 34.2551 43.1772C33.0856 42.9265 31.8325 42.8012 30.4958 42.8012C28.5327 42.8012 26.7992 43.0936 25.2955 43.6784C23.7918 44.2214 22.4342 45.0568 21.2229 46.1846C20.0534 47.2706 19.0091 48.6281 18.0902 50.2572C17.1712 51.8444 16.315 53.6614 15.5213 55.7082V95.5567H3.30362V31.8993H10.321C11.6576 31.8993 12.5557 32.1499 13.0151 32.6511C13.5164 33.1106 13.8714 33.946 14.0803 35.1573L14.8321 44.117Z" stroke="black" stroke-width="2"/>
<path d="M89.0351 56.648C89.0351 54.2253 88.6801 51.9906 87.97 49.9439C87.3016 47.8972 86.2992 46.122 84.9625 44.6182C83.6259 43.1145 81.9969 41.945 80.0755 41.1096C78.154 40.2742 75.9402 39.8565 73.434 39.8565C68.2963 39.8565 64.2446 41.3393 61.279 44.305C58.3551 47.2706 56.4963 51.385 55.7027 56.648H89.0351ZM99.1225 86.4717C97.6188 88.226 95.8854 89.7506 93.9222 91.0455C91.959 92.2986 89.8705 93.322 87.6567 94.1156C85.4429 94.9092 83.1455 95.494 80.7646 95.8699C78.4255 96.2459 76.1073 96.4338 73.81 96.4338C69.4241 96.4338 65.3515 95.7029 61.5922 94.2409C57.8747 92.7372 54.6376 90.5652 51.8807 87.7248C49.1657 84.8427 47.0354 81.2922 45.4899 77.0735C43.9862 72.8129 43.2344 67.9259 43.2344 62.4122C43.2344 57.9846 43.9236 53.8703 45.302 50.0692C46.6804 46.2264 48.6436 42.8848 51.1915 40.0444C53.7813 37.2041 56.9349 34.9694 60.6524 33.3404C64.37 31.7113 68.5469 30.8968 73.1834 30.8968C77.068 30.8968 80.6393 31.5442 83.8974 32.8391C87.1972 34.0922 90.0376 35.9301 92.4185 38.3527C94.7993 40.7754 96.6581 43.7619 97.9947 47.3124C99.3732 50.8628 100.062 54.9145 100.062 59.4674C100.062 61.3471 99.8535 62.6211 99.4358 63.2894C99.0181 63.9159 98.2454 64.2292 97.1176 64.2292H55.3894C55.5147 68.0303 56.0577 71.351 57.0184 74.1913C57.9792 76.9899 59.2949 79.329 60.9657 81.2087C62.6783 83.0883 64.7041 84.4876 67.0432 85.4066C69.3823 86.3255 71.993 86.785 74.8751 86.785C77.5901 86.785 79.9293 86.4717 81.8924 85.8452C83.8974 85.2186 85.61 84.5503 87.0301 83.8402C88.4921 83.0883 89.7034 82.3991 90.6641 81.7726C91.6666 81.146 92.5438 80.8328 93.2956 80.8328C94.2981 80.8328 95.0708 81.2087 95.6138 81.9606L99.1225 86.4717Z" stroke="black" stroke-width="2"/>
<path d="M154.233 47.3124C152.228 44.6809 150.056 42.843 147.717 41.7988C145.42 40.7545 142.83 40.2324 139.948 40.2324C134.351 40.2324 130.007 42.2582 126.916 46.3099C123.867 50.3198 122.342 56.1885 122.342 63.9159C122.342 67.9676 122.676 71.4345 123.345 74.3167C124.055 77.157 125.057 79.4961 126.352 81.334C127.689 83.1301 129.318 84.4668 131.239 85.3439C133.16 86.1793 135.332 86.597 137.755 86.597C141.306 86.597 144.376 85.8034 146.965 84.2161C149.555 82.6289 151.978 80.3942 154.233 77.5121V47.3124ZM166.514 3.07803V95.5567H159.12C157.408 95.5567 156.343 94.7421 155.925 93.1131L154.86 85.7825C152.145 88.9988 149.054 91.5885 145.587 93.5517C142.162 95.4731 138.194 96.4338 133.683 96.4338C130.049 96.4338 126.749 95.7237 123.783 94.3036C120.859 92.8834 118.353 90.8158 116.265 88.1007C114.176 85.3439 112.568 81.9397 111.44 77.888C110.312 73.8363 109.748 69.179 109.748 63.9159C109.748 59.1959 110.375 54.8101 111.628 50.7584C112.881 46.7067 114.698 43.1981 117.079 40.2324C119.46 37.2667 122.342 34.9485 125.725 33.2777C129.109 31.5651 132.931 30.7088 137.191 30.7088C141.034 30.7088 144.292 31.3354 146.965 32.5885C149.68 33.8416 152.103 35.6168 154.233 37.9142V3.07803H166.514Z" stroke="black" stroke-width="2"/>
<path d="M195.777 79.8929C197.781 82.5244 199.933 84.3623 202.23 85.4066C204.569 86.4508 207.18 86.973 210.062 86.973C215.659 86.973 219.982 84.968 223.031 80.9581C226.122 76.9064 227.668 71.0168 227.668 63.2894C227.668 59.2377 227.313 55.7917 226.603 52.9513C225.934 50.0692 224.932 47.7301 223.595 45.934C222.3 44.0961 220.692 42.7595 218.771 41.9241C216.849 41.0469 214.677 40.6083 212.255 40.6083C208.704 40.6083 205.613 41.4019 202.982 42.9892C200.392 44.5765 197.99 46.832 195.777 49.7559V79.8929ZM195.15 41.4228C196.487 39.8356 197.907 38.3945 199.41 37.0996C200.956 35.763 202.606 34.6352 204.36 33.7163C206.115 32.7556 207.973 32.0246 209.937 31.5234C211.941 30.9803 214.072 30.7088 216.327 30.7088C219.961 30.7088 223.24 31.4189 226.164 32.8391C229.13 34.2593 231.657 36.3478 233.745 39.1046C235.834 41.8614 237.442 45.2657 238.57 49.3173C239.739 53.369 240.324 58.0264 240.324 63.2894C240.324 68.0094 239.677 72.3952 238.382 76.4469C237.129 80.4568 235.312 83.9446 232.931 86.9103C230.592 89.876 227.71 92.2151 224.284 93.9276C220.901 95.5984 217.079 96.4338 212.819 96.4338C209.018 96.4338 205.76 95.8073 203.044 94.5542C200.329 93.3011 197.907 91.5468 195.777 89.2912V116.922H183.559V31.8993H190.889C192.602 31.8993 193.667 32.7138 194.085 34.3428L195.15 41.4228Z" stroke="black" stroke-width="2"/>
<path d="M296.212 56.648C296.212 54.2253 295.857 51.9906 295.147 49.9439C294.479 47.8972 293.476 46.122 292.14 44.6182C290.803 43.1145 289.174 41.945 287.253 41.1096C285.331 40.2742 283.117 39.8565 280.611 39.8565C275.474 39.8565 271.422 41.3393 268.456 44.305C265.532 47.2706 263.674 51.385 262.88 56.648H296.212ZM306.3 86.4717C304.796 88.226 303.063 89.7506 301.099 91.0455C299.136 92.2986 297.048 93.322 294.834 94.1156C292.62 94.9092 290.323 95.494 287.942 95.8699C285.603 96.2459 283.285 96.4338 280.987 96.4338C276.601 96.4338 272.529 95.7029 268.769 94.2409C265.052 92.7372 261.815 90.5652 259.058 87.7248C256.343 84.8427 254.213 81.2922 252.667 77.0735C251.163 72.8129 250.412 67.9259 250.412 62.4122C250.412 57.9846 251.101 53.8703 252.479 50.0692C253.858 46.2264 255.821 42.8848 258.369 40.0444C260.958 37.2041 264.112 34.9694 267.83 33.3404C271.547 31.7113 275.724 30.8968 280.361 30.8968C284.245 30.8968 287.817 31.5442 291.075 32.8391C294.374 34.0922 297.215 35.9301 299.596 38.3527C301.977 40.7754 303.835 43.7619 305.172 47.3124C306.55 50.8628 307.24 54.9145 307.24 59.4674C307.24 61.3471 307.031 62.6211 306.613 63.2894C306.195 63.9159 305.423 64.2292 304.295 64.2292H262.567C262.692 68.0303 263.235 71.351 264.196 74.1913C265.156 76.9899 266.472 79.329 268.143 81.2087C269.855 83.0883 271.881 84.4876 274.22 85.4066C276.56 86.3255 279.17 86.785 282.052 86.785C284.767 86.785 287.106 86.4717 289.07 85.8452C291.075 85.2186 292.787 84.5503 294.207 83.8402C295.669 83.0883 296.881 82.3991 297.841 81.7726C298.844 81.146 299.721 80.8328 300.473 80.8328C301.475 80.8328 302.248 81.2087 302.791 81.9606L306.3 86.4717Z" stroke="black" stroke-width="2"/>
<path d="M331.838 40.7336C333.216 39.2717 334.657 37.935 336.161 36.7237C337.664 35.5124 339.252 34.489 340.922 33.6536C342.635 32.7765 344.452 32.1081 346.373 31.6487C348.337 31.1474 350.425 30.8968 352.639 30.8968C356.148 30.8968 359.218 31.4816 361.849 32.6511C364.522 33.8207 366.757 35.4706 368.553 37.6009C370.349 39.6894 371.707 42.2165 372.626 45.1821C373.545 48.1478 374.004 51.4267 374.004 55.019V95.5567H361.724V55.019C361.724 50.466 360.68 46.9365 358.591 44.4303C356.503 41.8823 353.307 40.6083 349.005 40.6083C345.872 40.6083 342.927 41.3602 340.171 42.8639C337.456 44.3258 334.928 46.3308 332.589 48.8788V95.5567H320.372V31.8993H327.702C329.415 31.8993 330.48 32.7138 330.898 34.3428L331.838 40.7336Z" stroke="black" stroke-width="2"/>
<path d="M435.102 43.8037C434.726 44.2632 434.35 44.6391 433.974 44.9315C433.64 45.1821 433.138 45.3074 432.47 45.3074C431.802 45.3074 431.092 45.0568 430.34 44.5556C429.63 44.0126 428.711 43.4487 427.583 42.8639C426.497 42.2373 425.16 41.6735 423.573 41.1722C422.028 40.6292 420.106 40.3577 417.809 40.3577C414.801 40.3577 412.149 40.9007 409.852 41.9867C407.554 43.0727 405.633 44.6182 404.087 46.6232C402.584 48.6282 401.435 51.0717 400.641 53.9538C399.848 56.8359 399.451 60.0731 399.451 63.6653C399.451 67.3828 399.869 70.7036 400.704 73.6274C401.539 76.5096 402.73 78.9531 404.275 80.9581C405.821 82.9213 407.7 84.425 409.914 85.4692C412.128 86.4717 414.593 86.973 417.308 86.973C419.939 86.973 422.111 86.6597 423.824 86.0331C425.536 85.3648 426.956 84.6547 428.084 83.9029C429.212 83.151 430.152 82.4618 430.904 81.8352C431.656 81.1669 432.428 80.8328 433.222 80.8328C434.224 80.8328 434.997 81.2087 435.54 81.9606L439.049 86.4717C437.587 88.2678 435.937 89.7924 434.099 91.0455C432.303 92.2986 430.382 93.322 428.335 94.1156C426.288 94.9092 424.137 95.494 421.881 95.8699C419.668 96.2459 417.412 96.4338 415.115 96.4338C411.147 96.4338 407.429 95.7029 403.962 94.2409C400.537 92.779 397.55 90.6487 395.002 87.8501C392.496 85.0515 390.512 81.6264 389.05 77.5747C387.588 73.4813 386.857 68.8448 386.857 63.6653C386.857 58.9453 387.505 54.5804 388.8 50.5704C390.136 46.5605 392.079 43.1145 394.626 40.2324C397.216 37.3085 400.391 35.032 404.15 33.403C407.909 31.7322 412.212 30.8968 417.057 30.8968C421.61 30.8968 425.62 31.6278 429.087 33.0897C432.554 34.5517 435.645 36.6193 438.36 39.2926L435.102 43.8037Z" stroke="black" stroke-width="2"/>
<path d="M463.236 31.8993V95.5567H451.018V31.8993H463.236ZM465.554 12.2256C465.554 13.3534 465.324 14.4395 464.865 15.4837C464.405 16.4862 463.779 17.3842 462.985 18.1779C462.233 18.9297 461.335 19.5354 460.291 19.9949C459.247 20.4126 458.161 20.6214 457.033 20.6214C455.905 20.6214 454.84 20.4126 453.837 19.9949C452.835 19.5354 451.937 18.9297 451.143 18.1779C450.391 17.3842 449.786 16.4862 449.326 15.4837C448.909 14.4395 448.7 13.3534 448.7 12.2256C448.7 11.0561 448.909 9.97007 449.326 8.96759C449.786 7.92335 450.391 7.02529 451.143 6.27343C451.937 5.4798 452.835 4.87414 453.837 4.45644C454.84 3.99697 455.905 3.76724 457.033 3.76724C458.161 3.76724 459.247 3.99697 460.291 4.45644C461.335 4.87414 462.233 5.4798 462.985 6.27343C463.779 7.02529 464.405 7.92335 464.865 8.96759C465.324 9.97007 465.554 11.0561 465.554 12.2256Z" stroke="black" stroke-width="2"/>
<path d="M493.456 3.07803V95.5567H481.175V3.07803H493.456Z" stroke="black" stroke-width="2"/>
<path d="M508.901 88.2261C508.901 87.0983 509.11 86.0331 509.528 85.0306C509.945 84.0282 510.509 83.151 511.219 82.3991C511.971 81.6473 512.848 81.0625 513.851 80.6448C514.853 80.1853 515.939 79.9556 517.109 79.9556C518.237 79.9556 519.302 80.1853 520.304 80.6448C521.307 81.0625 522.184 81.6473 522.936 82.3991C523.688 83.151 524.273 84.0282 524.69 85.0306C525.15 86.0331 525.379 87.0983 525.379 88.2261C525.379 89.3956 525.15 90.4816 524.69 91.4841C524.273 92.4866 523.688 93.3637 522.936 94.1156C522.184 94.8675 521.307 95.4522 520.304 95.8699C519.302 96.2876 518.237 96.4965 517.109 96.4965C515.939 96.4965 514.853 96.2876 513.851 95.8699C512.848 95.4522 511.971 94.8675 511.219 94.1156C510.509 93.3637 509.945 92.4866 509.528 91.4841C509.11 90.4816 508.901 89.3956 508.901 88.2261Z" stroke="black" stroke-width="2"/>
<path d="M553.302 31.8993V95.5567H541.084V31.8993H553.302ZM555.62 12.2256C555.62 13.3534 555.39 14.4395 554.931 15.4837C554.472 16.4862 553.845 17.3842 553.051 18.1779C552.3 18.9297 551.401 19.5354 550.357 19.9949C549.313 20.4126 548.227 20.6214 547.099 20.6214C545.971 20.6214 544.906 20.4126 543.904 19.9949C542.901 19.5354 542.003 18.9297 541.21 18.1779C540.458 17.3842 539.852 16.4862 539.393 15.4837C538.975 14.4395 538.766 13.3534 538.766 12.2256C538.766 11.0561 538.975 9.97007 539.393 8.96759C539.852 7.92335 540.458 7.02529 541.21 6.27343C542.003 5.4798 542.901 4.87414 543.904 4.45644C544.906 3.99697 545.971 3.76724 547.099 3.76724C548.227 3.76724 549.313 3.99697 550.357 4.45644C551.401 4.87414 552.3 5.4798 553.051 6.27343C553.845 7.02529 554.472 7.92335 554.931 8.96759C555.39 9.97007 555.62 11.0561 555.62 12.2256Z" stroke="black" stroke-width="2"/>
<path d="M598.121 30.8968C602.799 30.8968 607.018 31.6696 610.777 33.215C614.578 34.7188 617.794 36.9117 620.426 39.7938C623.099 42.6342 625.146 46.0802 626.566 50.1319C627.986 54.1418 628.696 58.6529 628.696 63.6653C628.696 68.6777 627.986 73.2098 626.566 77.2614C625.146 81.3131 623.099 84.7591 620.426 87.5995C617.794 90.4398 614.578 92.6328 610.777 94.1783C607.018 95.682 602.799 96.4338 598.121 96.4338C593.401 96.4338 589.14 95.682 585.339 94.1783C581.58 92.6328 578.364 90.4398 575.69 87.5995C573.017 84.7591 570.949 81.3131 569.488 77.2614C568.067 73.2098 567.357 68.6777 567.357 63.6653C567.357 58.6529 568.067 54.1418 569.488 50.1319C570.949 46.0802 573.017 42.6342 575.69 39.7938C578.364 36.9117 581.58 34.7188 585.339 33.215C589.14 31.6696 593.401 30.8968 598.121 30.8968ZM598.121 86.9103C604.136 86.9103 608.626 84.8845 611.592 80.8328C614.557 76.7811 616.04 71.0795 616.04 63.728C616.04 56.3765 614.557 50.6749 611.592 46.6232C608.626 42.5297 604.136 40.483 598.121 40.483C592.022 40.483 587.469 42.5297 584.462 46.6232C581.496 50.6749 580.014 56.3765 580.014 63.728C580.014 71.0795 581.496 76.7811 584.462 80.8328C587.469 84.8845 592.022 86.9103 598.121 86.9103Z" stroke="black" stroke-width="2"/>
<ellipse cx="517.067" cy="88.2191" rx="9.33962" ry="9.36433" fill="#FF0000"/>
</svg>