<?xml version="1.0" encoding="UTF-8"?>
<svg width="1508px" height="552px" viewBox="0 0 1508 552" version="1.1" xmlns="http://www.w3.org/2000/svg" xmlns:xlink="http://www.w3.org/1999/xlink">
    <title>Group</title>
    <g id="Page-1" stroke="none" stroke-width="1" fill="none" fill-rule="evenodd">
        <g id="Group" fill-rule="nonzero">
            <g id="logo-nccn-2">
                <polygon id="Triangle-4" fill="#FFFFFF" points="236.784866 0 475.382324 332.319672 475.382324 455.825287 327.991791 551.230743 150.70694 551.230743 0 455.825287 0 332.319672"></polygon>
                <g id="Group-16" transform="translate(28.000000, 42.000000)">
                    <polygon id="Path-16" fill="#F14831" transform="translate(355.000000, 297.194378) scale(-1, 1) translate(-355.000000, -297.194378) " points="420 114.388756 420 480 290 400 290 300"></polygon>
                    <polygon id="Path-16" fill="#000000" points="130 113.999718 130 479.610962 0 399.610962 0 299.610962"></polygon>
                    <polygon id="Path-24" fill="#FFE01D" points="140 99.2192093 210 0 280 100 280 480 140 480"></polygon>
                </g>
            </g>
            <path d="M562.061033,184 C575.639541,184 586.343766,180.285141 594.173709,172.855422 C602.003652,165.425703 606.612415,155.024096 608,141.650602 L593.876369,141.650602 C593.57903,146.009371 592.687011,150.07095 591.200313,153.835341 C589.713615,157.599732 587.657016,160.844043 585.030516,163.568273 C582.404017,166.292503 579.281951,168.422356 575.664319,169.957831 C572.046688,171.493307 567.908712,172.261044 563.250391,172.261044 C556.907147,172.261044 551.455921,171.072289 546.896714,168.694779 C542.337507,166.317269 538.595983,163.12249 535.672144,159.110442 C532.748305,155.098394 530.592593,150.392905 529.205008,144.993976 C527.817423,139.595047 527.123631,133.874163 527.123631,127.831325 C527.123631,122.283802 527.817423,116.934404 529.205008,111.783133 C530.592593,106.631861 532.748305,102.050201 535.672144,98.0381526 C538.595983,94.0261044 542.312728,90.8313253 546.822379,88.4538153 C551.332029,86.0763052 556.758477,84.8875502 563.101721,84.8875502 C570.535211,84.8875502 576.952791,86.7697456 582.35446,90.5341365 C587.756129,94.2985274 591.24987,99.9451138 592.835681,107.473896 L606.959311,107.473896 C606.166406,101.827309 604.481481,96.8493976 601.904538,92.5401606 C599.327595,88.2309237 596.106416,84.6398929 592.241002,81.7670683 C588.375587,78.8942436 583.96505,76.7148594 579.00939,75.2289157 C574.05373,73.7429719 568.80073,73 563.250391,73 C555.123109,73 547.912624,74.461178 541.618936,77.3835341 C535.325248,80.3058902 530.072248,84.2931727 525.859937,89.3453815 C521.647626,94.3975904 518.451226,100.3166 516.270736,107.10241 C514.090245,113.88822 513,121.144578 513,128.871486 C513,136.598394 514.01591,143.829987 516.047731,150.566265 C518.079551,157.302544 521.127282,163.147256 525.190923,168.100402 C529.254564,173.053548 534.358894,176.941767 540.503912,179.76506 C546.648931,182.588353 553.834637,184 562.061033,184 Z M632.8125,182 L632.8125,147.660288 C632.8125,142.683518 633.314951,138.279077 634.319853,134.446964 C635.324755,130.614852 636.932598,127.355067 639.143382,124.667612 C641.354167,121.980156 644.268382,119.93968 647.886029,118.546185 C651.503676,117.152689 655.875,116.455941 661,116.455941 L661,103.018663 C654.066176,102.819592 648.338235,104.213088 643.816176,107.19915 C639.294118,110.185211 635.47549,114.813607 632.360294,121.084337 L632.058824,121.084337 L632.058824,104.8103 L620,104.8103 L620,182 L632.8125,182 Z M681,91 L681,76 L669,76 L669,91 L681,91 Z M681,181 L681,104 L669,104 L669,181 L681,181 Z M726.425968,183 C730.275626,183 734.149962,182.62963 738.048975,181.888889 C741.947988,181.148148 745.452164,179.839506 748.561503,177.962963 C751.670843,176.08642 754.187927,173.617284 756.112756,170.555556 C758.037585,167.493827 759,163.641975 759,159 C759,155.345679 758.284358,152.283951 756.853075,149.814815 C755.421792,147.345679 753.546317,145.296296 751.226651,143.666667 C748.906986,142.037037 746.241838,140.728395 743.231207,139.740741 C740.220577,138.753086 737.135915,137.91358 733.977221,137.222222 C731.015945,136.530864 728.05467,135.864198 725.093394,135.222222 C722.132118,134.580247 719.46697,133.790123 717.09795,132.851852 C714.728929,131.91358 712.779423,130.728395 711.249431,129.296296 C709.719438,127.864198 708.954442,126.061728 708.954442,123.888889 C708.954442,121.91358 709.447988,120.308642 710.43508,119.074074 C711.422172,117.839506 712.705391,116.851852 714.284738,116.111111 C715.864085,115.37037 717.616173,114.851852 719.541002,114.555556 C721.465831,114.259259 723.365983,114.111111 725.241458,114.111111 C727.314351,114.111111 729.362566,114.333333 731.386105,114.777778 C733.409643,115.222222 735.26044,115.938272 736.938497,116.925926 C738.616553,117.91358 739.998481,119.222222 741.084282,120.851852 C742.170084,122.481481 742.811693,124.530864 743.009112,127 L755.594533,127 C755.298405,122.358025 754.311314,118.481481 752.633257,115.37037 C750.955201,112.259259 748.709567,109.790123 745.896355,107.962963 C743.083144,106.135802 739.850418,104.851852 736.198178,104.111111 C732.545938,103.37037 728.548216,103 724.205011,103 C720.848899,103 717.468109,103.419753 714.062642,104.259259 C710.657175,105.098765 707.597191,106.382716 704.882688,108.111111 C702.168185,109.839506 699.947229,112.08642 698.219818,114.851852 C696.492407,117.617284 695.628702,120.925926 695.628702,124.777778 C695.628702,129.716049 696.862566,133.567901 699.330296,136.333333 C701.798026,139.098765 704.882688,141.246914 708.584282,142.777778 C712.285877,144.308642 716.308276,145.493827 720.651481,146.333333 C724.994685,147.17284 729.017084,148.111111 732.718679,149.148148 C736.420273,150.185185 739.504935,151.54321 741.972665,153.222222 C744.440395,154.901235 745.67426,157.37037 745.67426,160.62963 C745.67426,163 745.082005,164.950617 743.897494,166.481481 C742.712984,168.012346 741.207669,169.17284 739.381549,169.962963 C737.555429,170.753086 735.556568,171.296296 733.384966,171.592593 C731.213364,171.888889 729.140471,172.037037 727.166287,172.037037 C724.599848,172.037037 722.107441,171.790123 719.689066,171.296296 C717.270691,170.802469 715.099089,169.987654 713.17426,168.851852 C711.249431,167.716049 709.694761,166.185185 708.510251,164.259259 C707.32574,162.333333 706.684131,159.987654 706.585421,157.222222 L694,157.222222 C694.197418,161.962963 695.18451,165.987654 696.961276,169.296296 C698.738041,172.604938 701.107062,175.271605 704.068337,177.296296 C707.029613,179.320988 710.43508,180.777778 714.284738,181.666667 C718.134396,182.555556 722.181473,183 726.425968,183 Z M783,91 L783,76 L771,76 L771,91 L783,91 Z M783,181 L783,104 L771,104 L771,181 L783,181 Z M829.425968,183 C833.275626,183 837.149962,182.62963 841.048975,181.888889 C844.947988,181.148148 848.452164,179.839506 851.561503,177.962963 C854.670843,176.08642 857.187927,173.617284 859.112756,170.555556 C861.037585,167.493827 862,163.641975 862,159 C862,155.345679 861.284358,152.283951 859.853075,149.814815 C858.421792,147.345679 856.546317,145.296296 854.226651,143.666667 C851.906986,142.037037 849.241838,140.728395 846.231207,139.740741 C843.220577,138.753086 840.135915,137.91358 836.977221,137.222222 C834.015945,136.530864 831.05467,135.864198 828.093394,135.222222 C825.132118,134.580247 822.46697,133.790123 820.09795,132.851852 C817.728929,131.91358 815.779423,130.728395 814.249431,129.296296 C812.719438,127.864198 811.954442,126.061728 811.954442,123.888889 C811.954442,121.91358 812.447988,120.308642 813.43508,119.074074 C814.422172,117.839506 815.705391,116.851852 817.284738,116.111111 C818.864085,115.37037 820.616173,114.851852 822.541002,114.555556 C824.465831,114.259259 826.365983,114.111111 828.241458,114.111111 C830.314351,114.111111 832.362566,114.333333 834.386105,114.777778 C836.409643,115.222222 838.26044,115.938272 839.938497,116.925926 C841.616553,117.91358 842.998481,119.222222 844.084282,120.851852 C845.170084,122.481481 845.811693,124.530864 846.009112,127 L858.594533,127 C858.298405,122.358025 857.311314,118.481481 855.633257,115.37037 C853.955201,112.259259 851.709567,109.790123 848.896355,107.962963 C846.083144,106.135802 842.850418,104.851852 839.198178,104.111111 C835.545938,103.37037 831.548216,103 827.205011,103 C823.848899,103 820.468109,103.419753 817.062642,104.259259 C813.657175,105.098765 810.597191,106.382716 807.882688,108.111111 C805.168185,109.839506 802.947229,112.08642 801.219818,114.851852 C799.492407,117.617284 798.628702,120.925926 798.628702,124.777778 C798.628702,129.716049 799.862566,133.567901 802.330296,136.333333 C804.798026,139.098765 807.882688,141.246914 811.584282,142.777778 C815.285877,144.308642 819.308276,145.493827 823.651481,146.333333 C827.994685,147.17284 832.017084,148.111111 835.718679,149.148148 C839.420273,150.185185 842.504935,151.54321 844.972665,153.222222 C847.440395,154.901235 848.67426,157.37037 848.67426,160.62963 C848.67426,163 848.082005,164.950617 846.897494,166.481481 C845.712984,168.012346 844.207669,169.17284 842.381549,169.962963 C840.555429,170.753086 838.556568,171.296296 836.384966,171.592593 C834.213364,171.888889 832.140471,172.037037 830.166287,172.037037 C827.599848,172.037037 825.107441,171.790123 822.689066,171.296296 C820.270691,170.802469 818.099089,169.987654 816.17426,168.851852 C814.249431,167.716049 812.694761,166.185185 811.510251,164.259259 C810.32574,162.333333 809.684131,159.987654 809.585421,157.222222 L797,157.222222 C797.197418,161.962963 798.18451,165.987654 799.961276,169.296296 C801.738041,172.604938 804.107062,175.271605 807.068337,177.296296 C810.029613,179.320988 813.43508,180.777778 817.284738,181.666667 C821.134396,182.555556 825.181473,183 829.425968,183 Z M904.52766,183 C914.217021,183 921.875532,180.432099 927.503191,175.296296 C933.130851,170.160494 936.629787,162.851852 938,153.37037 L925.22766,153.37037 C924.444681,159.296296 922.315957,163.888889 918.841489,167.148148 C915.367021,170.407407 910.546809,172.037037 904.380851,172.037037 C900.465957,172.037037 897.089362,171.246914 894.251064,169.666667 C891.412766,168.08642 889.112766,165.987654 887.351064,163.37037 C885.589362,160.753086 884.292553,157.765432 883.460638,154.407407 C882.628723,151.049383 882.212766,147.592593 882.212766,144.037037 C882.212766,140.185185 882.604255,136.45679 883.387234,132.851852 C884.170213,129.246914 885.467021,126.061728 887.27766,123.296296 C889.088298,120.530864 891.510638,118.308642 894.544681,116.62963 C897.578723,114.950617 901.346809,114.111111 905.848936,114.111111 C911.134043,114.111111 915.342553,115.444444 918.474468,118.111111 C921.606383,120.777778 923.661702,124.530864 924.640426,129.37037 L937.559574,129.37037 C937.070213,124.82716 935.895745,120.901235 934.03617,117.592593 C932.176596,114.283951 929.803191,111.54321 926.915957,109.37037 C924.028723,107.197531 920.701064,105.592593 916.932979,104.555556 C913.164894,103.518519 909.12766,103 904.821277,103 C898.851064,103 893.614894,104.061728 889.112766,106.185185 C884.610638,108.308642 880.867021,111.222222 877.881915,114.925926 C874.896809,118.62963 872.670213,122.975309 871.202128,127.962963 C869.734043,132.950617 869,138.308642 869,144.037037 C869,149.765432 869.758511,155.024691 871.275532,159.814815 C872.792553,164.604938 875.043617,168.728395 878.028723,172.185185 C881.01383,175.641975 884.732979,178.308642 889.18617,180.185185 C893.639362,182.061728 898.753191,183 904.52766,183 Z M982.889299,183 C991.615799,183 998.854828,180.82716 1004.60639,176.481481 C1010.35794,172.135802 1014.07662,165.666667 1015.76242,157.074074 L1003.26766,157.074074 C1002.17685,162.111111 999.92085,165.864198 996.499665,168.333333 C993.07848,170.802469 988.690438,172.037037 983.33554,172.037037 C979.170619,172.037037 975.551105,171.345679 972.476997,169.962963 C969.402888,168.580247 966.874186,166.728395 964.890891,164.407407 C962.907595,162.08642 961.469706,159.419753 960.577223,156.407407 C959.68474,153.395062 959.288081,150.209877 959.387245,146.851852 L1016.9524,146.851852 C1017.15073,142.209877 1016.72928,137.320988 1015.68805,132.185185 C1014.64682,127.049383 1012.76269,122.308642 1010.03566,117.962963 C1007.30863,113.617284 1003.68911,110.037037 999.177114,107.222222 C994.665116,104.407407 988.987933,103 982.145563,103 C976.889829,103 972.055546,103.987654 967.642713,105.962963 C963.229881,107.938272 959.412037,110.703704 956.189181,114.259259 C952.966326,117.814815 950.462415,122.012346 948.677449,126.851852 C946.892483,131.691358 946,137.024691 946,142.851852 C946.19833,148.679012 947.066021,154.061728 948.603076,159 C950.14013,163.938272 952.445711,168.185185 955.519819,171.740741 C958.593927,175.296296 962.38698,178.061728 966.898978,180.037037 C971.410975,182.012346 976.741082,183 982.889299,183 Z M1005,136 L960,136 C960.20202,132.986301 960.858586,130.148402 961.969697,127.486301 C963.080808,124.824201 964.59596,122.488584 966.515152,120.479452 C968.434343,118.47032 970.732323,116.888128 973.409091,115.732877 C976.085859,114.577626 979.090909,114 982.424242,114 C985.656566,114 988.611111,114.577626 991.287879,115.732877 C993.964646,116.888128 996.287879,118.445205 998.257576,120.40411 C1000.22727,122.363014 1001.79293,124.69863 1002.95455,127.410959 C1004.11616,130.123288 1004.79798,132.986301 1005,136 Z M1040.71028,182 L1040.71028,138.393195 C1040.71028,134.908633 1041.1838,131.697858 1042.13084,128.76087 C1043.07788,125.823882 1044.49844,123.260239 1046.39252,121.069943 C1048.2866,118.879647 1050.65421,117.187146 1053.49533,115.992439 C1056.33645,114.797732 1059.70093,114.200378 1063.58879,114.200378 C1068.47352,114.200378 1072.31153,115.594203 1075.1028,118.381853 C1077.89408,121.169502 1079.28972,124.952741 1079.28972,129.731569 L1079.28972,182 L1092,182 L1092,131.224953 C1092,127.043478 1091.57632,123.23535 1090.72897,119.800567 C1089.88162,116.365784 1088.41121,113.403907 1086.31776,110.914934 C1084.2243,108.425961 1081.48287,106.484562 1078.09346,105.090737 C1074.70405,103.696912 1070.46729,103 1065.38318,103 C1053.919,103 1045.54517,107.679269 1040.26168,117.037807 L1039.96262,117.037807 L1039.96262,104.79206 L1028,104.79206 L1028,182 L1040.71028,182 Z M1142,182 L1142,170.727679 L1136.20652,170.727679 C1134.22585,170.727679 1132.61655,170.65253 1131.37862,170.502232 C1130.1407,170.351935 1129.17512,170.02629 1128.48188,169.525298 C1127.78865,169.024306 1127.31824,168.322917 1127.07065,167.421131 C1126.82307,166.519345 1126.69928,165.316964 1126.69928,163.813988 L1126.69928,115.568452 L1142,115.568452 L1142,104.296131 L1126.69928,104.296131 L1126.69928,81 L1114.07246,81 L1114.07246,104.296131 L1101,104.296131 L1101,115.568452 L1114.07246,115.568452 L1114.07246,165.016369 C1114.07246,168.623512 1114.41908,171.529266 1115.11232,173.733631 C1115.80556,175.937996 1116.87017,177.641369 1118.30616,178.84375 C1119.74215,180.046131 1121.62379,180.872768 1123.95109,181.323661 C1126.27838,181.774554 1129.07609,182 1132.3442,182 L1142,182 Z M1164.8125,182 L1164.8125,147.660288 C1164.8125,142.683518 1165.31495,138.279077 1166.31985,134.446964 C1167.32475,130.614852 1168.9326,127.355067 1171.14338,124.667612 C1173.35417,121.980156 1176.26838,119.93968 1179.88603,118.546185 C1183.50368,117.152689 1187.875,116.455941 1193,116.455941 L1193,103.018663 C1186.06618,102.819592 1180.33824,104.213088 1175.81618,107.19915 C1171.29412,110.185211 1167.47549,114.813607 1164.36029,121.084337 L1164.05882,121.084337 L1164.05882,104.8103 L1152,104.8103 L1152,182 L1164.8125,182 Z M1226.61682,183 C1232.29907,183 1237.23364,181.877841 1241.42056,179.633523 C1245.60748,177.389205 1249.04673,173.873106 1251.73832,169.085227 L1252.03738,169.085227 L1252.03738,181.354167 L1264,181.354167 L1264,104 L1251.28972,104 L1251.28972,147.689394 C1251.28972,151.180556 1250.8162,154.397412 1249.86916,157.339962 C1248.92212,160.282513 1247.50156,162.85101 1245.60748,165.045455 C1243.7134,167.239899 1241.34579,168.935606 1238.50467,170.132576 C1235.66355,171.329545 1232.29907,171.92803 1228.41121,171.92803 C1223.52648,171.92803 1219.68847,170.531566 1216.8972,167.738636 C1214.10592,164.945707 1212.71028,161.155303 1212.71028,156.367424 L1212.71028,104 L1200,104 L1200,154.871212 C1200,159.060606 1200.42368,162.875947 1201.27103,166.317235 C1202.11838,169.758523 1203.58879,172.72601 1205.68224,175.219697 C1207.7757,177.713384 1210.51713,179.633523 1213.90654,180.980114 C1217.29595,182.326705 1221.53271,183 1226.61682,183 Z M1292.54483,182 L1292.54483,133.913043 C1292.54483,132.41966 1292.91379,130.55293 1293.65172,128.312854 C1294.38966,126.072779 1295.57034,123.907372 1297.19379,121.816635 C1298.81724,119.725898 1300.93264,117.933837 1303.54,116.440454 C1306.14736,114.94707 1309.27126,114.200378 1312.91172,114.200378 C1315.76506,114.200378 1318.10184,114.623503 1319.92207,115.469754 C1321.7423,116.316005 1323.19356,117.510712 1324.27586,119.053875 C1325.35816,120.597038 1326.12069,122.413989 1326.56345,124.504726 C1327.00621,126.595463 1327.22759,128.885318 1327.22759,131.374291 L1327.22759,182 L1339.77241,182 L1339.77241,133.913043 C1339.77241,127.939509 1341.54345,123.160681 1345.08552,119.57656 C1348.62759,115.992439 1353.49793,114.200378 1359.69655,114.200378 C1362.74667,114.200378 1365.23103,114.648393 1367.14966,115.544423 C1369.06828,116.440454 1370.56874,117.66005 1371.65103,119.203214 C1372.73333,120.746377 1373.47126,122.563327 1373.86483,124.654064 C1374.25839,126.744802 1374.45517,128.984877 1374.45517,131.374291 L1374.45517,182 L1387,182 L1387,125.400756 C1387,121.418399 1386.38506,118.008507 1385.15517,115.171078 C1383.92529,112.333648 1382.20345,110.018904 1379.98966,108.226843 C1377.77586,106.434783 1375.11931,105.115627 1372.02,104.269376 C1368.92069,103.423125 1365.45241,103 1361.61517,103 C1356.59724,103 1351.99747,104.144928 1347.81586,106.434783 C1343.63425,108.724638 1340.26437,111.960302 1337.70621,116.141777 C1336.13195,111.362949 1333.42621,107.977946 1329.58897,105.986767 C1325.75172,103.995589 1321.47172,103 1316.74897,103 C1306.02437,103 1297.80874,107.380592 1292.10207,116.141777 L1291.8069,116.141777 L1291.8069,104.79206 L1280,104.79206 L1280,182 L1292.54483,182 Z M562.061033,357 C575.639541,357 586.343766,353.285141 594.173709,345.855422 C602.003652,338.425703 606.612415,328.024096 608,314.650602 L593.876369,314.650602 C593.57903,319.009371 592.687011,323.07095 591.200313,326.835341 C589.713615,330.599732 587.657016,333.844043 585.030516,336.568273 C582.404017,339.292503 579.281951,341.422356 575.664319,342.957831 C572.046688,344.493307 567.908712,345.261044 563.250391,345.261044 C556.907147,345.261044 551.455921,344.072289 546.896714,341.694779 C542.337507,339.317269 538.595983,336.12249 535.672144,332.110442 C532.748305,328.098394 530.592593,323.392905 529.205008,317.993976 C527.817423,312.595047 527.123631,306.874163 527.123631,300.831325 C527.123631,295.283802 527.817423,289.934404 529.205008,284.783133 C530.592593,279.631861 532.748305,275.050201 535.672144,271.038153 C538.595983,267.026104 542.312728,263.831325 546.822379,261.453815 C551.332029,259.076305 556.758477,257.88755 563.101721,257.88755 C570.535211,257.88755 576.952791,259.769746 582.35446,263.534137 C587.756129,267.298527 591.24987,272.945114 592.835681,280.473896 L606.959311,280.473896 C606.166406,274.827309 604.481481,269.849398 601.904538,265.540161 C599.327595,261.230924 596.106416,257.639893 592.241002,254.767068 C588.375587,251.894244 583.96505,249.714859 579.00939,248.228916 C574.05373,246.742972 568.80073,246 563.250391,246 C555.123109,246 547.912624,247.461178 541.618936,250.383534 C535.325248,253.30589 530.072248,257.293173 525.859937,262.345382 C521.647626,267.39759 518.451226,273.3166 516.270736,280.10241 C514.090245,286.88822 513,294.144578 513,301.871486 C513,309.598394 514.01591,316.829987 516.047731,323.566265 C518.079551,330.302544 521.127282,336.147256 525.190923,341.100402 C529.254564,346.053548 534.358894,349.941767 540.503912,352.76506 C546.648931,355.588353 553.834637,357 562.061033,357 Z M652.889299,355 C661.615799,355 668.854828,352.82716 674.606386,348.481481 C680.357943,344.135802 684.076622,337.666667 685.762424,329.074074 L673.267661,329.074074 C672.176849,334.111111 669.92085,337.864198 666.499665,340.333333 C663.07848,342.802469 658.690438,344.037037 653.33554,344.037037 C649.170619,344.037037 645.551105,343.345679 642.476997,341.962963 C639.402888,340.580247 636.874186,338.728395 634.890891,336.407407 C632.907595,334.08642 631.469706,331.419753 630.577223,328.407407 C629.68474,325.395062 629.288081,322.209877 629.387245,318.851852 L686.952401,318.851852 C687.15073,314.209877 686.72928,309.320988 685.68805,304.185185 C684.64682,299.049383 682.762689,294.308642 680.035657,289.962963 C677.308626,285.617284 673.689111,282.037037 669.177114,279.222222 C664.665116,276.407407 658.987933,275 652.145563,275 C646.889829,275 642.055546,275.987654 637.642713,277.962963 C633.229881,279.938272 629.412037,282.703704 626.189181,286.259259 C622.966326,289.814815 620.462415,294.012346 618.677449,298.851852 C616.892483,303.691358 616,309.024691 616,314.851852 C616.19833,320.679012 617.066021,326.061728 618.603076,331 C620.14013,335.938272 622.445711,340.185185 625.519819,343.740741 C628.593927,347.296296 632.38698,350.061728 636.898978,352.037037 C641.410975,354.012346 646.741082,355 652.889299,355 Z M675,308 L630,308 C630.20202,304.986301 630.858586,302.148402 631.969697,299.486301 C633.080808,296.824201 634.59596,294.488584 636.515152,292.479452 C638.434343,290.47032 640.732323,288.888128 643.409091,287.732877 C646.085859,286.577626 649.090909,286 652.424242,286 C655.656566,286 658.611111,286.577626 661.287879,287.732877 C663.964646,288.888128 666.287879,290.445205 668.257576,292.40411 C670.227273,294.363014 671.792929,296.69863 672.954545,299.410959 C674.116162,302.123288 674.79798,304.986301 675,308 Z M710.71028,354 L710.71028,310.393195 C710.71028,306.908633 711.183801,303.697858 712.130841,300.76087 C713.077882,297.823882 714.498442,295.260239 716.392523,293.069943 C718.286604,290.879647 720.654206,289.187146 723.495327,287.992439 C726.336449,286.797732 729.700935,286.200378 733.588785,286.200378 C738.47352,286.200378 742.311526,287.594203 745.102804,290.381853 C747.894081,293.169502 749.28972,296.952741 749.28972,301.731569 L749.28972,354 L762,354 L762,303.224953 C762,299.043478 761.576324,295.23535 760.728972,291.800567 C759.88162,288.365784 758.411215,285.403907 756.317757,282.914934 C754.224299,280.425961 751.482866,278.484562 748.093458,277.090737 C744.70405,275.696912 740.46729,275 735.383178,275 C723.919003,275 715.545171,279.679269 710.261682,289.037807 L709.962617,289.037807 L709.962617,276.79206 L698,276.79206 L698,354 L710.71028,354 Z M812,354 L812,342.727679 L806.206522,342.727679 C804.225845,342.727679 802.616546,342.65253 801.378623,342.502232 C800.1407,342.351935 799.175121,342.02629 798.481884,341.525298 C797.788647,341.024306 797.318237,340.322917 797.070652,339.421131 C796.823068,338.519345 796.699275,337.316964 796.699275,335.813988 L796.699275,287.568452 L812,287.568452 L812,276.296131 L796.699275,276.296131 L796.699275,253 L784.072464,253 L784.072464,276.296131 L771,276.296131 L771,287.568452 L784.072464,287.568452 L784.072464,337.016369 C784.072464,340.623512 784.419082,343.529266 785.112319,345.733631 C785.805556,347.937996 786.870169,349.641369 788.306159,350.84375 C789.74215,352.046131 791.623792,352.872768 793.951087,353.323661 C796.278382,353.774554 799.076087,354 802.344203,354 L812,354 Z M834.8125,354 L834.8125,319.660288 C834.8125,314.683518 835.314951,310.279077 836.319853,306.446964 C837.324755,302.614852 838.932598,299.355067 841.143382,296.667612 C843.354167,293.980156 846.268382,291.93968 849.886029,290.546185 C853.503676,289.152689 857.875,288.455941 863,288.455941 L863,275.018663 C856.066176,274.819592 850.338235,276.213088 845.816176,279.19915 C841.294118,282.185211 837.47549,286.813607 834.360294,293.084337 L834.058824,293.084337 L834.058824,276.8103 L822,276.8103 L822,354 L834.8125,354 Z M899.889299,355 C908.615799,355 915.854828,352.82716 921.606386,348.481481 C927.357943,344.135802 931.076622,337.666667 932.762424,329.074074 L920.267661,329.074074 C919.176849,334.111111 916.92085,337.864198 913.499665,340.333333 C910.07848,342.802469 905.690438,344.037037 900.33554,344.037037 C896.170619,344.037037 892.551105,343.345679 889.476997,341.962963 C886.402888,340.580247 883.874186,338.728395 881.890891,336.407407 C879.907595,334.08642 878.469706,331.419753 877.577223,328.407407 C876.68474,325.395062 876.288081,322.209877 876.387245,318.851852 L933.952401,318.851852 C934.15073,314.209877 933.72928,309.320988 932.68805,304.185185 C931.64682,299.049383 929.762689,294.308642 927.035657,289.962963 C924.308626,285.617284 920.689111,282.037037 916.177114,279.222222 C911.665116,276.407407 905.987933,275 899.145563,275 C893.889829,275 889.055546,275.987654 884.642713,277.962963 C880.229881,279.938272 876.412037,282.703704 873.189181,286.259259 C869.966326,289.814815 867.462415,294.012346 865.677449,298.851852 C863.892483,303.691358 863,309.024691 863,314.851852 C863.19833,320.679012 864.066021,326.061728 865.603076,331 C867.14013,335.938272 869.445711,340.185185 872.519819,343.740741 C875.593927,347.296296 879.38698,350.061728 883.898978,352.037037 C888.410975,354.012346 893.741082,355 899.889299,355 Z M922,308 L877,308 C877.20202,304.986301 877.858586,302.148402 878.969697,299.486301 C880.080808,296.824201 881.59596,294.488584 883.515152,292.479452 C885.434343,290.47032 887.732323,288.888128 890.409091,287.732877 C893.085859,286.577626 896.090909,286 899.424242,286 C902.656566,286 905.611111,286.577626 908.287879,287.732877 C910.964646,288.888128 913.287879,290.445205 915.257576,292.40411 C917.227273,294.363014 918.792929,296.69863 919.954545,299.410959 C921.116162,302.123288 921.79798,304.986301 922,308 Z M1015.45714,355 C1020.82041,355 1025.73673,354.065287 1030.20612,352.195862 C1034.67551,350.326437 1037.95306,347.276322 1040.03878,343.045517 L1040.33673,343.045517 L1040.33673,353.376552 L1053,353.376552 L1053,248 L1040.33673,248 L1040.33673,287.257931 L1040.03878,287.257931 C1038.6483,284.994943 1036.93503,283.10092 1034.89898,281.575862 C1032.86293,280.050805 1030.70272,278.82092 1028.41837,277.886207 C1026.13401,276.951494 1023.84966,276.287356 1021.56531,275.893793 C1019.28095,275.50023 1017.14558,275.303448 1015.15918,275.303448 C1009.29932,275.303448 1004.15952,276.361149 999.739796,278.476552 C995.320068,280.591954 991.645238,283.445287 988.715306,287.036552 C985.785374,290.627816 983.60034,294.834023 982.160204,299.655172 C980.720068,304.476322 980,309.592644 980,315.004138 C980,320.415632 980.744898,325.531954 982.234694,330.353103 C983.72449,335.174253 985.934354,339.405057 988.864286,343.045517 C991.794218,346.685977 995.469048,349.588506 999.888776,351.753103 C1004.3085,353.917701 1009.49796,355 1015.45714,355 Z M1016.15094,344 C1012.02516,344 1008.42767,343.208866 1005.35849,341.626598 C1002.28931,340.044331 999.773585,337.918159 997.811321,335.248082 C995.849057,332.578005 994.389937,329.537084 993.433962,326.12532 C992.477987,322.713555 992,319.227621 992,315.667519 C992,311.909633 992.402516,308.250639 993.207547,304.690537 C994.012579,301.130435 995.320755,297.965899 997.132075,295.196931 C998.943396,292.427962 1001.35849,290.202899 1004.37736,288.521739 C1007.39623,286.84058 1011.06918,286 1015.39623,286 C1019.8239,286 1023.59748,286.815857 1026.71698,288.44757 C1029.83648,290.079284 1032.37736,292.230179 1034.33962,294.900256 C1036.30189,297.570332 1037.73585,300.660699 1038.64151,304.171355 C1039.54717,307.682012 1040,311.316283 1040,315.074169 C1040,318.634271 1039.57233,322.144928 1038.71698,325.606138 C1037.86164,329.067349 1036.47799,332.157715 1034.56604,334.877238 C1032.65409,337.59676 1030.18868,339.797101 1027.16981,341.478261 C1024.15094,343.15942 1020.47799,344 1016.15094,344 Z M1102.8893,355 C1111.6158,355 1118.85483,352.82716 1124.60639,348.481481 C1130.35794,344.135802 1134.07662,337.666667 1135.76242,329.074074 L1123.26766,329.074074 C1122.17685,334.111111 1119.92085,337.864198 1116.49966,340.333333 C1113.07848,342.802469 1108.69044,344.037037 1103.33554,344.037037 C1099.17062,344.037037 1095.5511,343.345679 1092.477,341.962963 C1089.40289,340.580247 1086.87419,338.728395 1084.89089,336.407407 C1082.9076,334.08642 1081.46971,331.419753 1080.57722,328.407407 C1079.68474,325.395062 1079.28808,322.209877 1079.38725,318.851852 L1136.9524,318.851852 C1137.15073,314.209877 1136.72928,309.320988 1135.68805,304.185185 C1134.64682,299.049383 1132.76269,294.308642 1130.03566,289.962963 C1127.30863,285.617284 1123.68911,282.037037 1119.17711,279.222222 C1114.66512,276.407407 1108.98793,275 1102.14556,275 C1096.88983,275 1092.05555,275.987654 1087.64271,277.962963 C1083.22988,279.938272 1079.41204,282.703704 1076.18918,286.259259 C1072.96633,289.814815 1070.46242,294.012346 1068.67745,298.851852 C1066.89248,303.691358 1066,309.024691 1066,314.851852 C1066.19833,320.679012 1067.06602,326.061728 1068.60308,331 C1070.14013,335.938272 1072.44571,340.185185 1075.51982,343.740741 C1078.59393,347.296296 1082.38698,350.061728 1086.89898,352.037037 C1091.41098,354.012346 1096.74108,355 1102.8893,355 Z M1124,308 L1079,308 C1079.20202,304.986301 1079.85859,302.148402 1080.9697,299.486301 C1082.08081,296.824201 1083.59596,294.488584 1085.51515,292.479452 C1087.43434,290.47032 1089.73232,288.888128 1092.40909,287.732877 C1095.08586,286.577626 1098.09091,286 1101.42424,286 C1104.65657,286 1107.61111,286.577626 1110.28788,287.732877 C1112.96465,288.888128 1115.28788,290.445205 1117.25758,292.40411 C1119.22727,294.363014 1120.79293,296.69863 1121.95455,299.410959 C1123.11616,302.123288 1123.79798,304.986301 1124,308 Z M1232.06103,357 C1245.63954,357 1256.34377,353.285141 1264.17371,345.855422 C1272.00365,338.425703 1276.61242,328.024096 1278,314.650602 L1263.87637,314.650602 C1263.57903,319.009371 1262.68701,323.07095 1261.20031,326.835341 C1259.71362,330.599732 1257.65702,333.844043 1255.03052,336.568273 C1252.40402,339.292503 1249.28195,341.422356 1245.66432,342.957831 C1242.04669,344.493307 1237.90871,345.261044 1233.25039,345.261044 C1226.90715,345.261044 1221.45592,344.072289 1216.89671,341.694779 C1212.33751,339.317269 1208.59598,336.12249 1205.67214,332.110442 C1202.7483,328.098394 1200.59259,323.392905 1199.20501,317.993976 C1197.81742,312.595047 1197.12363,306.874163 1197.12363,300.831325 C1197.12363,295.283802 1197.81742,289.934404 1199.20501,284.783133 C1200.59259,279.631861 1202.7483,275.050201 1205.67214,271.038153 C1208.59598,267.026104 1212.31273,263.831325 1216.82238,261.453815 C1221.33203,259.076305 1226.75848,257.88755 1233.10172,257.88755 C1240.53521,257.88755 1246.95279,259.769746 1252.35446,263.534137 C1257.75613,267.298527 1261.24987,272.945114 1262.83568,280.473896 L1276.95931,280.473896 C1276.16641,274.827309 1274.48148,269.849398 1271.90454,265.540161 C1269.3276,261.230924 1266.10642,257.639893 1262.241,254.767068 C1258.37559,251.894244 1253.96505,249.714859 1249.00939,248.228916 C1244.05373,246.742972 1238.80073,246 1233.25039,246 C1225.12311,246 1217.91262,247.461178 1211.61894,250.383534 C1205.32525,253.30589 1200.07225,257.293173 1195.85994,262.345382 C1191.64763,267.39759 1188.45123,273.3166 1186.27074,280.10241 C1184.09025,286.88822 1183,294.144578 1183,301.871486 C1183,309.598394 1184.01591,316.829987 1186.04773,323.566265 C1188.07955,330.302544 1191.12728,336.147256 1195.19092,341.100402 C1199.25456,346.053548 1204.35889,349.941767 1210.50391,352.76506 C1216.64893,355.588353 1223.83464,357 1232.06103,357 Z M1303.8125,354 L1303.8125,319.660288 C1303.8125,314.683518 1304.31495,310.279077 1305.31985,306.446964 C1306.32475,302.614852 1307.9326,299.355067 1310.14338,296.667612 C1312.35417,293.980156 1315.26838,291.93968 1318.88603,290.546185 C1322.50368,289.152689 1326.875,288.455941 1332,288.455941 L1332,275.018663 C1325.06618,274.819592 1319.33824,276.213088 1314.81618,279.19915 C1310.29412,282.185211 1306.47549,286.813607 1303.36029,293.084337 L1303.05882,293.084337 L1303.05882,276.8103 L1291,276.8103 L1291,354 L1303.8125,354 Z M1352,263 L1352,248 L1340,248 L1340,263 L1352,263 Z M1352,354 L1352,277 L1340,277 L1340,354 L1352,354 Z M1397.42597,355 C1401.27563,355 1405.14996,354.62963 1409.04897,353.888889 C1412.94799,353.148148 1416.45216,351.839506 1419.5615,349.962963 C1422.67084,348.08642 1425.18793,345.617284 1427.11276,342.555556 C1429.03759,339.493827 1430,335.641975 1430,331 C1430,327.345679 1429.28436,324.283951 1427.85308,321.814815 C1426.42179,319.345679 1424.54632,317.296296 1422.22665,315.666667 C1419.90699,314.037037 1417.24184,312.728395 1414.23121,311.740741 C1411.22058,310.753086 1408.13591,309.91358 1404.97722,309.222222 C1402.01595,308.530864 1399.05467,307.864198 1396.09339,307.222222 C1393.13212,306.580247 1390.46697,305.790123 1388.09795,304.851852 C1385.72893,303.91358 1383.77942,302.728395 1382.24943,301.296296 C1380.71944,299.864198 1379.95444,298.061728 1379.95444,295.888889 C1379.95444,293.91358 1380.44799,292.308642 1381.43508,291.074074 C1382.42217,289.839506 1383.70539,288.851852 1385.28474,288.111111 C1386.86409,287.37037 1388.61617,286.851852 1390.541,286.555556 C1392.46583,286.259259 1394.36598,286.111111 1396.24146,286.111111 C1398.31435,286.111111 1400.36257,286.333333 1402.3861,286.777778 C1404.40964,287.222222 1406.26044,287.938272 1407.9385,288.925926 C1409.61655,289.91358 1410.99848,291.222222 1412.08428,292.851852 C1413.17008,294.481481 1413.81169,296.530864 1414.00911,299 L1426.59453,299 C1426.29841,294.358025 1425.31131,290.481481 1423.63326,287.37037 C1421.9552,284.259259 1419.70957,281.790123 1416.89636,279.962963 C1414.08314,278.135802 1410.85042,276.851852 1407.19818,276.111111 C1403.54594,275.37037 1399.54822,275 1395.20501,275 C1391.8489,275 1388.46811,275.419753 1385.06264,276.259259 C1381.65718,277.098765 1378.59719,278.382716 1375.88269,280.111111 C1373.16819,281.839506 1370.94723,284.08642 1369.21982,286.851852 C1367.49241,289.617284 1366.6287,292.925926 1366.6287,296.777778 C1366.6287,301.716049 1367.86257,305.567901 1370.3303,308.333333 C1372.79803,311.098765 1375.88269,313.246914 1379.58428,314.777778 C1383.28588,316.308642 1387.30828,317.493827 1391.65148,318.333333 C1395.99468,319.17284 1400.01708,320.111111 1403.71868,321.148148 C1407.42027,322.185185 1410.50494,323.54321 1412.97267,325.222222 C1415.44039,326.901235 1416.67426,329.37037 1416.67426,332.62963 C1416.67426,335 1416.082,336.950617 1414.89749,338.481481 C1413.71298,340.012346 1412.20767,341.17284 1410.38155,341.962963 C1408.55543,342.753086 1406.55657,343.296296 1404.38497,343.592593 C1402.21336,343.888889 1400.14047,344.037037 1398.16629,344.037037 C1395.59985,344.037037 1393.10744,343.790123 1390.68907,343.296296 C1388.27069,342.802469 1386.09909,341.987654 1384.17426,340.851852 C1382.24943,339.716049 1380.69476,338.185185 1379.51025,336.259259 C1378.32574,334.333333 1377.68413,331.987654 1377.58542,329.222222 L1365,329.222222 C1365.19742,333.962963 1366.18451,337.987654 1367.96128,341.296296 C1369.73804,344.604938 1372.10706,347.271605 1375.06834,349.296296 C1378.02961,351.320988 1381.43508,352.777778 1385.28474,353.666667 C1389.1344,354.555556 1393.18147,355 1397.42597,355 Z M1472.8893,355 C1481.6158,355 1488.85483,352.82716 1494.60639,348.481481 C1500.35794,344.135802 1504.07662,337.666667 1505.76242,329.074074 L1493.26766,329.074074 C1492.17685,334.111111 1489.92085,337.864198 1486.49966,340.333333 C1483.07848,342.802469 1478.69044,344.037037 1473.33554,344.037037 C1469.17062,344.037037 1465.5511,343.345679 1462.477,341.962963 C1459.40289,340.580247 1456.87419,338.728395 1454.89089,336.407407 C1452.9076,334.08642 1451.46971,331.419753 1450.57722,328.407407 C1449.68474,325.395062 1449.28808,322.209877 1449.38725,318.851852 L1506.9524,318.851852 C1507.15073,314.209877 1506.72928,309.320988 1505.68805,304.185185 C1504.64682,299.049383 1502.76269,294.308642 1500.03566,289.962963 C1497.30863,285.617284 1493.68911,282.037037 1489.17711,279.222222 C1484.66512,276.407407 1478.98793,275 1472.14556,275 C1466.88983,275 1462.05555,275.987654 1457.64271,277.962963 C1453.22988,279.938272 1449.41204,282.703704 1446.18918,286.259259 C1442.96633,289.814815 1440.46242,294.012346 1438.67745,298.851852 C1436.89248,303.691358 1436,309.024691 1436,314.851852 C1436.19833,320.679012 1437.06602,326.061728 1438.60308,331 C1440.14013,335.938272 1442.44571,340.185185 1445.51982,343.740741 C1448.59393,347.296296 1452.38698,350.061728 1456.89898,352.037037 C1461.41098,354.012346 1466.74108,355 1472.8893,355 Z M1495,308 L1450,308 C1450.20202,304.986301 1450.85859,302.148402 1451.9697,299.486301 C1453.08081,296.824201 1454.59596,294.488584 1456.51515,292.479452 C1458.43434,290.47032 1460.73232,288.888128 1463.40909,287.732877 C1466.08586,286.577626 1469.09091,286 1472.42424,286 C1475.65657,286 1478.61111,286.577626 1481.28788,287.732877 C1483.96465,288.888128 1486.28788,290.445205 1488.25758,292.40411 C1490.22727,294.363014 1491.79293,296.69863 1492.95455,299.410959 C1494.11616,302.123288 1494.79798,304.986301 1495,308 Z M531.121622,527 L531.121622,489.885154 L548.810811,473.406162 L587.162162,527 L605,527 L558.472973,463.756303 L603.216216,421 L584.932432,421 L531.121622,473.851541 L531.121622,421 L517,421 L517,527 L531.121622,527 Z M624.8125,527 L624.8125,492.660288 C624.8125,487.683518 625.314951,483.279077 626.319853,479.446964 C627.324755,475.614852 628.932598,472.355067 631.143382,469.667612 C633.354167,466.980156 636.268382,464.93968 639.886029,463.546185 C643.503676,462.152689 647.875,461.455941 653,461.455941 L653,448.018663 C646.066176,447.819592 640.338235,449.213088 635.816176,452.19915 C631.294118,455.185211 627.47549,459.813607 624.360294,466.084337 L624.058824,466.084337 L624.058824,449.8103 L612,449.8103 L612,527 L624.8125,527 Z M673,436 L673,421 L661,421 L661,436 L673,436 Z M673,526 L673,449 L661,449 L661,526 L673,526 Z M717.425968,528 C721.275626,528 725.149962,527.62963 729.048975,526.888889 C732.947988,526.148148 736.452164,524.839506 739.561503,522.962963 C742.670843,521.08642 745.187927,518.617284 747.112756,515.555556 C749.037585,512.493827 750,508.641975 750,504 C750,500.345679 749.284358,497.283951 747.853075,494.814815 C746.421792,492.345679 744.546317,490.296296 742.226651,488.666667 C739.906986,487.037037 737.241838,485.728395 734.231207,484.740741 C731.220577,483.753086 728.135915,482.91358 724.977221,482.222222 C722.015945,481.530864 719.05467,480.864198 716.093394,480.222222 C713.132118,479.580247 710.46697,478.790123 708.09795,477.851852 C705.728929,476.91358 703.779423,475.728395 702.249431,474.296296 C700.719438,472.864198 699.954442,471.061728 699.954442,468.888889 C699.954442,466.91358 700.447988,465.308642 701.43508,464.074074 C702.422172,462.839506 703.705391,461.851852 705.284738,461.111111 C706.864085,460.37037 708.616173,459.851852 710.541002,459.555556 C712.465831,459.259259 714.365983,459.111111 716.241458,459.111111 C718.314351,459.111111 720.362566,459.333333 722.386105,459.777778 C724.409643,460.222222 726.26044,460.938272 727.938497,461.925926 C729.616553,462.91358 730.998481,464.222222 732.084282,465.851852 C733.170084,467.481481 733.811693,469.530864 734.009112,472 L746.594533,472 C746.298405,467.358025 745.311314,463.481481 743.633257,460.37037 C741.955201,457.259259 739.709567,454.790123 736.896355,452.962963 C734.083144,451.135802 730.850418,449.851852 727.198178,449.111111 C723.545938,448.37037 719.548216,448 715.205011,448 C711.848899,448 708.468109,448.419753 705.062642,449.259259 C701.657175,450.098765 698.597191,451.382716 695.882688,453.111111 C693.168185,454.839506 690.947229,457.08642 689.219818,459.851852 C687.492407,462.617284 686.628702,465.925926 686.628702,469.777778 C686.628702,474.716049 687.862566,478.567901 690.330296,481.333333 C692.798026,484.098765 695.882688,486.246914 699.584282,487.777778 C703.285877,489.308642 707.308276,490.493827 711.651481,491.333333 C715.994685,492.17284 720.017084,493.111111 723.718679,494.148148 C727.420273,495.185185 730.504935,496.54321 732.972665,498.222222 C735.440395,499.901235 736.67426,502.37037 736.67426,505.62963 C736.67426,508 736.082005,509.950617 734.897494,511.481481 C733.712984,513.012346 732.207669,514.17284 730.381549,514.962963 C728.555429,515.753086 726.556568,516.296296 724.384966,516.592593 C722.213364,516.888889 720.140471,517.037037 718.166287,517.037037 C715.599848,517.037037 713.107441,516.790123 710.689066,516.296296 C708.270691,515.802469 706.099089,514.987654 704.17426,513.851852 C702.249431,512.716049 700.694761,511.185185 699.510251,509.259259 C698.32574,507.333333 697.684131,504.987654 697.585421,502.222222 L685,502.222222 C685.197418,506.962963 686.18451,510.987654 687.961276,514.296296 C689.738041,517.604938 692.107062,520.271605 695.068337,522.296296 C698.029613,524.320988 701.43508,525.777778 705.284738,526.666667 C709.134396,527.555556 713.181473,528 717.425968,528 Z M795.889299,528 C804.615799,528 811.854828,525.82716 817.606386,521.481481 C823.357943,517.135802 827.076622,510.666667 828.762424,502.074074 L816.267661,502.074074 C815.176849,507.111111 812.92085,510.864198 809.499665,513.333333 C806.07848,515.802469 801.690438,517.037037 796.33554,517.037037 C792.170619,517.037037 788.551105,516.345679 785.476997,514.962963 C782.402888,513.580247 779.874186,511.728395 777.890891,509.407407 C775.907595,507.08642 774.469706,504.419753 773.577223,501.407407 C772.68474,498.395062 772.288081,495.209877 772.387245,491.851852 L829.952401,491.851852 C830.15073,487.209877 829.72928,482.320988 828.68805,477.185185 C827.64682,472.049383 825.762689,467.308642 823.035657,462.962963 C820.308626,458.617284 816.689111,455.037037 812.177114,452.222222 C807.665116,449.407407 801.987933,448 795.145563,448 C789.889829,448 785.055546,448.987654 780.642713,450.962963 C776.229881,452.938272 772.412037,455.703704 769.189181,459.259259 C765.966326,462.814815 763.462415,467.012346 761.677449,471.851852 C759.892483,476.691358 759,482.024691 759,487.851852 C759.19833,493.679012 760.066021,499.061728 761.603076,504 C763.14013,508.938272 765.445711,513.185185 768.519819,516.740741 C771.593927,520.296296 775.38698,523.061728 779.898978,525.037037 C784.410975,527.012346 789.741082,528 795.889299,528 Z M816,481 L771,481 C771.20202,477.986301 771.858586,475.148402 772.969697,472.486301 C774.080808,469.824201 775.59596,467.488584 777.515152,465.479452 C779.434343,463.47032 781.732323,461.888128 784.409091,460.732877 C787.085859,459.577626 790.090909,459 793.424242,459 C796.656566,459 799.611111,459.577626 802.287879,460.732877 C804.964646,461.888128 807.287879,463.445205 809.257576,465.40411 C811.227273,467.363014 812.792929,469.69863 813.954545,472.410959 C815.116162,475.123288 815.79798,477.986301 816,481 Z M852.71028,527 L852.71028,483.393195 C852.71028,479.908633 853.183801,476.697858 854.130841,473.76087 C855.077882,470.823882 856.498442,468.260239 858.392523,466.069943 C860.286604,463.879647 862.654206,462.187146 865.495327,460.992439 C868.336449,459.797732 871.700935,459.200378 875.588785,459.200378 C880.47352,459.200378 884.311526,460.594203 887.102804,463.381853 C889.894081,466.169502 891.28972,469.952741 891.28972,474.731569 L891.28972,527 L904,527 L904,476.224953 C904,472.043478 903.576324,468.23535 902.728972,464.800567 C901.88162,461.365784 900.411215,458.403907 898.317757,455.914934 C896.224299,453.425961 893.482866,451.484562 890.093458,450.090737 C886.70405,448.696912 882.46729,448 877.383178,448 C865.919003,448 857.545171,452.679269 852.261682,462.037807 L851.962617,462.037807 L851.962617,449.79206 L840,449.79206 L840,527 L852.71028,527 Z M979,526 L979,514.829787 L929.802752,514.829787 L976.912844,457.638298 L976.912844,449 L916.981651,449 L916.981651,460.170213 L960.513761,460.170213 L914,516.319149 L914,526 L979,526 Z M1021.8893,528 C1030.6158,528 1037.85483,525.82716 1043.60639,521.481481 C1049.35794,517.135802 1053.07662,510.666667 1054.76242,502.074074 L1042.26766,502.074074 C1041.17685,507.111111 1038.92085,510.864198 1035.49966,513.333333 C1032.07848,515.802469 1027.69044,517.037037 1022.33554,517.037037 C1018.17062,517.037037 1014.5511,516.345679 1011.477,514.962963 C1008.40289,513.580247 1005.87419,511.728395 1003.89089,509.407407 C1001.9076,507.08642 1000.46971,504.419753 999.577223,501.407407 C998.68474,498.395062 998.288081,495.209877 998.387245,491.851852 L1055.9524,491.851852 C1056.15073,487.209877 1055.72928,482.320988 1054.68805,477.185185 C1053.64682,472.049383 1051.76269,467.308642 1049.03566,462.962963 C1046.30863,458.617284 1042.68911,455.037037 1038.17711,452.222222 C1033.66512,449.407407 1027.98793,448 1021.14556,448 C1015.88983,448 1011.05555,448.987654 1006.64271,450.962963 C1002.22988,452.938272 998.412037,455.703704 995.189181,459.259259 C991.966326,462.814815 989.462415,467.012346 987.677449,471.851852 C985.892483,476.691358 985,482.024691 985,487.851852 C985.19833,493.679012 986.066021,499.061728 987.603076,504 C989.14013,508.938272 991.445711,513.185185 994.519819,516.740741 C997.593927,520.296296 1001.38698,523.061728 1005.89898,525.037037 C1010.41098,527.012346 1015.74108,528 1021.8893,528 Z M1043,481 L998,481 C998.20202,477.986301 998.858586,475.148402 999.969697,472.486301 C1001.08081,469.824201 1002.59596,467.488584 1004.51515,465.479452 C1006.43434,463.47032 1008.73232,461.888128 1011.40909,460.732877 C1014.08586,459.577626 1017.09091,459 1020.42424,459 C1023.65657,459 1026.61111,459.577626 1029.28788,460.732877 C1031.96465,461.888128 1034.28788,463.445205 1036.25758,465.40411 C1038.22727,467.363014 1039.79293,469.69863 1040.95455,472.410959 C1042.11616,475.123288 1042.79798,477.986301 1043,481 Z M1079.71028,527 L1079.71028,483.393195 C1079.71028,479.908633 1080.1838,476.697858 1081.13084,473.76087 C1082.07788,470.823882 1083.49844,468.260239 1085.39252,466.069943 C1087.2866,463.879647 1089.65421,462.187146 1092.49533,460.992439 C1095.33645,459.797732 1098.70093,459.200378 1102.58879,459.200378 C1107.47352,459.200378 1111.31153,460.594203 1114.1028,463.381853 C1116.89408,466.169502 1118.28972,469.952741 1118.28972,474.731569 L1118.28972,527 L1131,527 L1131,476.224953 C1131,472.043478 1130.57632,468.23535 1129.72897,464.800567 C1128.88162,461.365784 1127.41121,458.403907 1125.31776,455.914934 C1123.2243,453.425961 1120.48287,451.484562 1117.09346,450.090737 C1113.70405,448.696912 1109.46729,448 1104.38318,448 C1092.919,448 1084.54517,452.679269 1079.26168,462.037807 L1078.96262,462.037807 L1078.96262,449.79206 L1067,449.79206 L1067,527 L1079.71028,527 Z M1180,527 L1180,515.727679 L1174.20652,515.727679 C1172.22585,515.727679 1170.61655,515.65253 1169.37862,515.502232 C1168.1407,515.351935 1167.17512,515.02629 1166.48188,514.525298 C1165.78865,514.024306 1165.31824,513.322917 1165.07065,512.421131 C1164.82307,511.519345 1164.69928,510.316964 1164.69928,508.813988 L1164.69928,460.568452 L1180,460.568452 L1180,449.296131 L1164.69928,449.296131 L1164.69928,426 L1152.07246,426 L1152.07246,449.296131 L1139,449.296131 L1139,460.568452 L1152.07246,460.568452 L1152.07246,510.016369 C1152.07246,513.623512 1152.41908,516.529266 1153.11232,518.733631 C1153.80556,520.937996 1154.87017,522.641369 1156.30616,523.84375 C1157.74215,525.046131 1159.62379,525.872768 1161.95109,526.323661 C1164.27838,526.774554 1167.07609,527 1170.3442,527 L1180,527 Z M1203.8125,527 L1203.8125,492.660288 C1203.8125,487.683518 1204.31495,483.279077 1205.31985,479.446964 C1206.32475,475.614852 1207.9326,472.355067 1210.14338,469.667612 C1212.35417,466.980156 1215.26838,464.93968 1218.88603,463.546185 C1222.50368,462.152689 1226.875,461.455941 1232,461.455941 L1232,448.018663 C1225.06618,447.819592 1219.33824,449.213088 1214.81618,452.19915 C1210.29412,455.185211 1206.47549,459.813607 1203.36029,466.084337 L1203.05882,466.084337 L1203.05882,449.8103 L1191,449.8103 L1191,527 L1203.8125,527 Z M1264.61682,528 C1270.29907,528 1275.23364,526.877841 1279.42056,524.633523 C1283.60748,522.389205 1287.04673,518.873106 1289.73832,514.085227 L1290.03738,514.085227 L1290.03738,526.354167 L1302,526.354167 L1302,449 L1289.28972,449 L1289.28972,492.689394 C1289.28972,496.180556 1288.8162,499.397412 1287.86916,502.339962 C1286.92212,505.282513 1285.50156,507.85101 1283.60748,510.045455 C1281.7134,512.239899 1279.34579,513.935606 1276.50467,515.132576 C1273.66355,516.329545 1270.29907,516.92803 1266.41121,516.92803 C1261.52648,516.92803 1257.68847,515.531566 1254.8972,512.738636 C1252.10592,509.945707 1250.71028,506.155303 1250.71028,501.367424 L1250.71028,449 L1238,449 L1238,499.871212 C1238,504.060606 1238.42368,507.875947 1239.27103,511.317235 C1240.11838,514.758523 1241.58879,517.72601 1243.68224,520.219697 C1245.7757,522.713384 1248.51713,524.633523 1251.90654,525.980114 C1255.29595,527.326705 1259.53271,528 1264.61682,528 Z M1332.54483,527 L1332.54483,478.913043 C1332.54483,477.41966 1332.91379,475.55293 1333.65172,473.312854 C1334.38966,471.072779 1335.57034,468.907372 1337.19379,466.816635 C1338.81724,464.725898 1340.93264,462.933837 1343.54,461.440454 C1346.14736,459.94707 1349.27126,459.200378 1352.91172,459.200378 C1355.76506,459.200378 1358.10184,459.623503 1359.92207,460.469754 C1361.7423,461.316005 1363.19356,462.510712 1364.27586,464.053875 C1365.35816,465.597038 1366.12069,467.413989 1366.56345,469.504726 C1367.00621,471.595463 1367.22759,473.885318 1367.22759,476.374291 L1367.22759,527 L1379.77241,527 L1379.77241,478.913043 C1379.77241,472.939509 1381.54345,468.160681 1385.08552,464.57656 C1388.62759,460.992439 1393.49793,459.200378 1399.69655,459.200378 C1402.74667,459.200378 1405.23103,459.648393 1407.14966,460.544423 C1409.06828,461.440454 1410.56874,462.66005 1411.65103,464.203214 C1412.73333,465.746377 1413.47126,467.563327 1413.86483,469.654064 C1414.25839,471.744802 1414.45517,473.984877 1414.45517,476.374291 L1414.45517,527 L1427,527 L1427,470.400756 C1427,466.418399 1426.38506,463.008507 1425.15517,460.171078 C1423.92529,457.333648 1422.20345,455.018904 1419.98966,453.226843 C1417.77586,451.434783 1415.11931,450.115627 1412.02,449.269376 C1408.92069,448.423125 1405.45241,448 1401.61517,448 C1396.59724,448 1391.99747,449.144928 1387.81586,451.434783 C1383.63425,453.724638 1380.26437,456.960302 1377.70621,461.141777 C1376.13195,456.362949 1373.42621,452.977946 1369.58897,450.986767 C1365.75172,448.995589 1361.47172,448 1356.74897,448 C1346.02437,448 1337.80874,452.380592 1332.10207,461.141777 L1331.8069,461.141777 L1331.8069,449.79206 L1320,449.79206 L1320,527 L1332.54483,527 Z" id="CrisiscentrumCentredeCriseKrisenzentrum" stroke="#000000" fill="#000000"></path>
        </g>
    </g>
</svg>