<svg height="166" viewBox="0 0 421 166" width="421" xmlns="http://www.w3.org/2000/svg"><g fill="#363636" transform="translate(0 1)"><path d="m127.567164 164.3-55.8999996-164 .8-.3 55.8999996 164.1z"/><path d="m72.8671644 81.8c-4-3.1-5.9 0-8.4-.2-2.2-.2-4.2-3.6-5.8-2.8-3.2 1.6 1.3 7.3 3.2 8.5 1.7 1 3.9 2 4.4 2.2 2.5 1.2 3.5 3 3.9 5.8.1.7 0 2.1-.2 2.8-1.2 5-9.8 9.4-14.7 6-2.3-1.6-4.5-3.7-5.2-7.3-1.3-6.5-6-11.2-7.5-17.6-.9-3.9-1.6-7.9-2.6-11.8-1-4-2.1-8-2.9-11.6-.8-3.4-2.4-8.4-3.5-11.5-4.7-12.4-6.9-11.5-6.9-11.5s1.7 3.4 8 33.7c.2 1.2 2.5 14.6 4.2 19 .6 1.6 1.6 4.9 2.3 6.4 2 4.3 7.3 10.9 7.6 16.8.2 3.4.6 6.3.7 8.9.1.8.4 3.9.9 5.2 1.3 3.6 11.7 15.3 22.7 15.3v-8.8c-11 0-21.3-6.1-21.5-6.8-.1-.3.6-4.5 1.3-6.3 1.4-3.6 4.1-6.9 8.9-7.2 5.3-.4 8.5 1.2 11.3 1.2z"/><path d="m25.3671644 49.7c-.4 6.6-10.7 15.7-13.9 21.5-1.60000002 2.9-3.50000002 7.8-4.00000002 10.6-1.4 7.9.4 12.8 2.3 17.4 3.40000002 8.1-.5 11.1 2.20000002 9.5 3.3-2.7 2.8-8.9 2.5-12.8-.2-3.2-.4-6.8.1-10.5.9-7.1 5.2-14.6 8.8-19.9 4.4-6.3 2.8-12.8 2-15.8"/><path d="m27.3671644 68.5s1.1 5.2-3.5 18.7c-12.1 35.3 11 38.6 17.6 46.9 0 0 2.5-3.6-7.9-15.1-3.8-4.2-7.3-13.4-4.3-26.7 4.3-19-1.9-23.8-1.9-23.8"/><path d="m4.46716438 45.4c-.6-2.1-.7-3.9-.6-5.6.6-8.3 8.10000002-11.7 10.00000002-12.9 0 0 3.4-2.3 3.8-4.7 0 0 3.5 8.7-4.5 13.7-4.00000002 2.6-6.70000002 5.6-8.70000002 9.5"/><path d="m23.4671644 37.4c.4.8 3.6 5.4-9.2 16-12.70000002 10.5-8.80000002 18.1-8.80000002 18.1s-13.6-7.6 2.1-20.7c15.70000002-13.1 12.50000002-15.7 12.50000002-15.7s2.2-.2 3.4 2.3"/><path d="m40.0671644 41.4c2.2.3 3.6 7.2 8.7 8.7 3.8 1.1 7.7.5 8.6 2.8-1.7.9-.3 4 1.4 3.4 1.5-4 2.2-19.5-18.7-14.9m6.9 3.2c.2-.5.5-.1 1-.4.6-.6 1.2-1.5 2.2-1.8.7-.2 1.7-.1 2.3.1.4.1.2 1.2-.2 1.5-.7.5-2.7-.3-2.7 1.2.1 2.5 3.4-.1 5.1 0 .9 6-9.2 4.4-7.7-.6"/><path d="m150.793945 48 2.173828-6.2958984h11.935547l2.173828 6.2958984h3.28125l-9.310546-27.0292969h-4.245118l-9.290039 27.0292969zm13.104493-9.2490234h-9.925782l4.962891-14.3759766zm23.323242 9.6591797c2.440429 0 4.224609-.6152344 5.967773-1.8251954l1.886719 1.4560547h1.209961v-14.8886718h-8.941406v3.1787109h5.844726v6.7880859c-.307617.3486328-.902344.9433594-1.825195 1.4355469-.922852.4921875-2.214844.9023438-3.793946.9023438-2.789062 0-5.188476-1.2509766-6.890624-3.3017579-1.722657-2.0302734-2.707032-4.8398437-2.707032-8.0185546 0-2.9326172.861328-5.5986329 2.604492-7.5058594 1.722657-1.9072266 4.327149-3.0966797 7.854493-3.0966797.820312 0 1.804687.0615234 2.871093.2050781 1.045899.1435547 2.091797.3486328 3.055664.65625l.164063-.0820312v-2.9121094c-.922852-.2666016-2.009766-.4716797-3.09668-.6152344s-2.235351-.2255859-3.240234-.2255859c-4.532227 0-7.895508 1.5380859-10.110352 4.040039-2.214843 2.5019532-3.28125 5.9472657-3.28125 9.7207032 0 4.040039 1.250977 7.5673828 3.424805 10.0693359s5.25 4.0195313 9.00293 4.0195313zm34.5-.4101563v-2.953125h-13.104492v-9.0849609h13.104492v-2.953125h-13.104492v-9.084961h13.104492v-2.953125h-16.283203v27.0292969zm10.998047 0v-21.0820312l13.186523 21.0820312h3.178711v-27.0292969h-3.178711v20.897461l-13.063477-20.897461h-3.301757v27.0292969zm35.094726 0v-24.0761719h8.367188v-2.953125h-19.892579v2.953125h8.367188v24.0761719zm16.371094.4101563c5.147461 0 9.638672-2.7275391 9.638672-8.100586 0-3.0146484-1.168946-4.0605469-3.383789-5.6396484-.780875-.5600211-1.883321-1.1564465-3.020305-1.7461044l-.684039-.3526373c-1.595045-.8193138-3.145266-1.6084398-3.863039-2.2489146-.738281-.65625-1.168945-1.3945312-1.168945-2.727539 0-3.1582032 2.481445-4.1220703 5.475586-4.1220703 1.722656 0 3.46582.3076171 4.696289.5537109l.061523-.0410156v-2.7070313c-1.476562-.430664-3.09668-.7177734-4.757812-.7177734-4.737305 0-8.367188 2.1943359-8.367188 7.2802734 0 2.4404297.820312 4.1220703 2.132812 5.1679688.534618.4455145 2.01079 1.2399301 3.540196 2.0348401l.656129.3396903c1.417451.7316594 2.771382 1.4208292 3.350551 1.7885555 1.538085.9638672 2.378906 2.0302734 2.378906 3.8349609 0 3.3222657-3.076172 4.4501954-6.19336 4.4501954-1.866211 0-4.511718-.4716797-5.947265-1.1279297l-.061524.0205078v2.8710937c1.640625.7998047 3.547852 1.1894532 5.516602 1.1894532zm29.598633 0c1.907226 0 4.470703-.328125 6.234375-.8408204v-2.9121093l-.143555-.0820313c-1.640625.5126953-4.12207.8613281-5.926758.8613281-6.74707 0-10.479492-4.265625-10.479492-10.9716796 0-6.7675782 3.773438-10.9306641 10.479492-10.9306641 1.78418 0 4.306641.3486328 5.926758.8613281l.143555-.0820312v-2.9121094c-1.722657-.4921875-4.388672-.8408203-6.234375-.8408203-8.428711 0-13.289063 5.1679687-13.473633 13.4941406 0 8.7773438 4.77832 14.3554688 13.473633 14.3554688zm16.514648-.4101563v-11.9355469h13.186524v11.9355469h3.17871v-27.0292969h-3.17871v11.9355469h-13.186524v-11.9355469h-3.178711v27.0292969zm26.44043 0 2.173828-6.2958984h11.935547l2.173828 6.2958984h3.28125l-9.310547-27.0292969h-4.245117l-9.290039 27.0292969zm13.104492-9.2490234h-9.925781l4.96289-14.3759766zm16.432617 9.2490234v-8.6953125h1.948242c7.649414 0 13.535157-2.5019531 13.535157-9.5566406 0-6.8085938-5.475586-8.7773438-13.350586-8.7773438h-5.311524v27.0292969zm2.542969-11.6894531h-2.542969v-12.3457031h2.542969c5.578125 0 9.761719 1.415039 9.761719 6.2753906 0 4.8193359-4.101563 6.0703125-9.761719 6.0703125zm-229.96582 53.6894531c4.819336 0 8.346679-1.7226562 10.68457-4.265625 2.337891-2.5429687 3.46582-5.9267578 3.46582-9.2900391 0-3.6914062-1.374023-7.0751953-3.875976-9.515625-2.501953-2.4404296-6.090821-3.9580078-10.5-3.9580078h-8.961914v27.0292969zm-.799805-4.59375h-3.588867v-17.8212891h3.219726c3.424805 0 6.008789 1.1074219 7.731446 2.7480469 1.722656 1.6611328 2.583984 3.8964844 2.583984 6.131836 0 1.9482421-.574219 4.1835937-2.112305 5.9267578-1.558593 1.743164-4.040039 3.0146484-7.833984 3.0146484zm26.645508 4.59375v-27.0292969h-4.798828v27.0292969zm19.918945.4101563c2.399414 0 4.532227-.5742188 6.398438-1.6201172l1.271484 1.2099609h2.481445v-15.1347656l-.164062-.1640625h-9.372071v4.4501953h4.983399v4.6962891c-1.333008 1.2509765-3.137695 1.9482421-5.270508 1.9482421-2.460937 0-4.552734-.9433593-6.029297-2.6044921-1.476562-1.6611329-2.317383-4.0605469-2.317383-6.9931641 0-3.0966797 1.230469-5.3730469 3.055664-6.8701172 1.825196-1.4970703 4.265625-2.2353516 6.644532-2.2353516.574218 0 1.538086.0410157 2.604492.1640625 1.066406.1230469 2.255859.3486329 3.301758.6767579l.164062-.0820313v-4.4296875c-.984375-.2666016-1.907226-.4716797-2.912109-.6357422-1.004883-.1435547-2.112305-.2255859-3.404297-.2255859-5.188477 0-8.797852 1.743164-11.115234 4.3476562-2.317383 2.625-3.342774 6.1113282-3.342774 9.5566407 0 3.9375 1.333008 7.4238281 3.629883 9.9257812 2.276367 2.5019531 5.537109 4.0195313 9.392578 4.0195313zm22.256836-.4101563v-27.0292969h-4.798828v27.0292969zm19.488281 0v-22.4150391h8.203125v-4.6142578h-21.205078v4.6142578h8.203125v22.4150391zm14.44336 0 1.927734-5.5986328h10.5l1.927734 5.5986328h5.085938l-9.454102-27.4394531h-5.61914l-9.454102 27.4394531zm10.828125-10.2128906h-7.321289l3.670898-10.6230469zm17.929687 10.2128906 1.927735-5.5986328h10.5l1.927734 5.5986328h5.085937l-9.454101-27.4394531h-5.619141l-9.454101 27.4394531zm10.828125-10.2128906h-7.321289l3.670899-10.6230469zm30.952149 10.2128906v-4.6142578h-11.258789v-22.4150391h-4.798829v27.0292969zm-168.65625 42.410156 9.454101-27.439453h-5.085937l-7.177735 20.835938-7.177734-20.835938h-5.085938l9.454102 27.439453zm31.792968-.410156v-4.614258h-11.258789v-22.415039h-4.798828v27.029297zm9.521485 0 1.927734-5.598633h10.5l1.927734 5.598633h5.085938l-9.454102-27.439453h-5.61914l-9.454102 27.439453zm10.828125-10.212891h-7.321289l3.670898-10.623046zm17.929687 10.212891 1.927735-5.598633h10.5l1.927734 5.598633h5.085937l-9.454101-27.439453h-5.619141l-9.454101 27.439453zm10.828125-10.212891h-7.321289l3.670899-10.623046zm19.69336 10.212891v-17.964844l11.238281 17.964844h4.798828v-27.029297h-4.798828v17.985352l-11.238281-17.985352h-4.798829v27.029297zm33.55664 0c4.819336 0 8.34668-1.722656 10.684571-4.265625 2.33789-2.542969 3.46582-5.926758 3.46582-9.290039 0-3.691406-1.374024-7.075195-3.875977-9.515625s-6.09082-3.958008-10.5-3.958008h-8.961914v27.029297zm-.799805-4.59375h-3.588867v-17.821289h3.219727c3.424805 0 6.008789 1.107422 7.731445 2.748047 1.722656 1.661133 2.583985 3.896484 2.583985 6.131836 0 1.948242-.574219 4.183594-2.112305 5.926758-1.558594 1.743164-4.040039 3.014648-7.833985 3.014648zm37.904297 4.59375v-4.614258h-11.258789v-6.521484h10.951172v-4.614258h-10.951172v-6.665039h11.258789v-4.614258h-16.057617v27.029297zm27.199219.410156 2.132813-3.199218v-.225586c-1.230469-.430664-2.666016-1.497071-3.916993-2.748047-1.250976-1.230469-2.33789-2.666016-2.891601-3.896485 1.374023-.717773 2.522461-1.702148 3.342773-2.953125.820313-1.250976 1.291992-2.789062 1.291992-4.675781 0-2.604492-.738281-4.511719-1.948242-5.967773-1.209961-1.456055-2.830078-2.399414-4.634765-2.973633-1.804688-.574219-3.732422-.799805-5.516602-.799805h-7.751953v27.029297h4.798828v-8.080078h2.953125c.922852 0 1.845703-.020508 2.727539-.164063.389649 1.086914 1.107422 2.419922 2.050781 3.711914.94336 1.291993 2.112305 2.522461 3.383789 3.424805 1.271485.922852 2.645508 1.517578 3.978516 1.517578zm-12.058594-13.104492h-3.035156v-9.720703h3.035156c2.789063 0 4.59375.512695 5.701172 1.394531s1.497071 2.112305 1.497071 3.588867c0 1.456055-.389649 2.625-1.497071 3.445313-1.107422.820312-2.912109 1.291992-5.701172 1.291992zm36.325196 12.694336v-4.614258h-11.258789v-6.521484h10.951171v-4.614258h-10.951171v-6.665039h11.258789v-4.614258h-16.057618v27.029297zm12.105468 0v-17.964844l11.238282 17.964844h4.798828v-27.029297h-4.798828v17.985352l-11.238282-17.985352h-4.798828v27.029297z"/></g></svg>