<svg id="Your_design" data-name="Your design" xmlns="http://www.w3.org/2000/svg" viewBox="0 0 400 400"><defs><style>.cls-1{fill:#253e87;}.cls-2{fill:#fff;}.cls-3{fill:#6eb744;fill-rule:evenodd;}</style></defs><title>planvelo_CyclingUp</title><circle class="cls-1" cx="200" cy="200" r="200"/><path class="cls-2" d="M168.53,95.54a15.41,15.41,0,0,0-16.25-14.49A15.15,15.15,0,0,0,145.73,83l-5.42-7.9-.38-6A1.28,1.28,0,0,1,141.18,68l6.11-.36a.86.86,0,1,0-.08-1.71h0l-6.11.36a2.88,2.88,0,0,0-2.85,2.9l.38,6L132,87.73a.85.85,0,0,0,.17,1.19.86.86,0,0,0,1.2-.17,1,1,0,0,0,.12-.23l6-11.52,4.71,6.87a15.38,15.38,0,1,0,24.25,11.67ZM154,110.07a13.66,13.66,0,0,1-8.74-24.78l7.14,10.39a.86.86,0,0,0,1.42-1L146.7,84.37a13.9,13.9,0,0,1,5.68-1.62A13.68,13.68,0,0,1,154,110.07Z"/><path class="cls-2" d="M130.28,92l-.42,0L122.4,81.25a.86.86,0,0,0-1.57.65,1,1,0,0,0,.15.32l7.26,10.49a4.29,4.29,0,0,0-2,3.22l-4.13.25a15.44,15.44,0,0,0-7.71-10.52l4.19-7.93,15-.89a.85.85,0,0,0-.08-1.7h0L118.66,76,115,70a.86.86,0,0,0-.88-.4.85.85,0,0,0-.71,1,1,1,0,0,0,.11.31l3.65,6-4.26,8.07a15.37,15.37,0,1,0,9.53,13.33c0-.13,0-.25-.05-.37l4.11-.24A4.27,4.27,0,1,0,130.28,92Zm-16.64-4.85a13.67,13.67,0,0,1,6.78,9.1l-12,.7Zm-5.8,25.61a13.68,13.68,0,1,1,4.23-26.35l-5.85,11.08a.87.87,0,0,0,.34,1.16.92.92,0,0,0,.49.1l13.63-.8c0,.12,0,.24,0,.37A13.69,13.69,0,0,1,107.84,112.79Zm22.85-13.93a2.56,2.56,0,1,1,2.41-2.71A2.57,2.57,0,0,1,130.69,98.86Z"/><path class="cls-3" d="M190.44,207q-20,16.22-25.94,57.36c24.91,5.75,51.73,0,69-15.33q17.24-15.33,17.24-59.39Q210.47,190.79,190.44,207Z"/><path class="cls-2" d="M192.68,329.79c-7.14-3.62-14.09-7.63-20.88-11.92a132.07,132.07,0,0,1-19.39-14.57,43.68,43.68,0,0,1-4.27-4.6,17.38,17.38,0,0,1-3.26-6,8.52,8.52,0,0,1-.06-3.95,11.75,11.75,0,0,1,.47-1.69,12.8,12.8,0,0,1,.57-1.55,51.91,51.91,0,0,1,2.79-5.64,114.67,114.67,0,0,1,6.68-10.24c2.35-3.3,4.81-6.5,7.34-9.64a250.42,250.42,0,0,1,33.94-34.35,162,162,0,0,1,19.67-14.06c1.75-1,3.49-2,5.29-2.94s3.61-1.81,5.44-2.65a65,65,0,0,1,11.43-3.82c-1.87.74-3.73,1.43-5.51,2.34s-3.55,1.8-5.3,2.72a117.25,117.25,0,0,0-10,6.41c-1.63,1.13-3.21,2.33-4.8,3.5s-3.14,2.42-4.65,3.7c-3.06,2.51-6.08,5.09-9,7.76-5.85,5.34-11.53,10.88-16.94,16.68S171.51,257,166.55,263.15a167.92,167.92,0,0,0-13.82,19.1,45.14,45.14,0,0,0-2.67,5,8.65,8.65,0,0,0-.51,1.25,7.19,7.19,0,0,0-.37,1.18,3.78,3.78,0,0,0-.05,2,14,14,0,0,0,2.34,4.52,40.4,40.4,0,0,0,3.69,4.36,109.68,109.68,0,0,0,8.67,7.95c3,2.54,6.17,5,9.36,7.37C179.54,320.67,186.1,325.22,192.68,329.79Z"/><path class="cls-2" d="M337.36,180.66c-.06-.63-.1-1.25-.17-1.89,0-.32-.08-.64-.13-1l-.07-.51,0-.25c-.11-1.13-.24-2-.38-3s-.34-2.06-.52-3.08q-.58-3.06-1.35-6.06a97.21,97.21,0,0,0-3.83-11.8,79.32,79.32,0,0,0-12.65-21.65,63.09,63.09,0,0,0-19.92-16l-2.9-1.41-3-1.21-1.49-.59-1.53-.49-3-1c-1-.27-2.07-.51-3.1-.76s-2.07-.52-3.11-.66c-2.09-.33-4.18-.74-6.27-.87l-3.15-.29c-1.05-.06-2.12-.07-3.18-.1-2.12-.11-4.25.07-6.38.14a69.1,69.1,0,0,0-24.61,6.52,80.09,80.09,0,0,0-10.94,6.41,94.25,94.25,0,0,0-18.21,17,105.94,105.94,0,0,0-7.33,10c-.5.77-1,1.55-1.47,2.33l0-.05q-2.72-4-5.71-7.82a117.37,117.37,0,0,0-13.18-14.34,82.18,82.18,0,0,0-16-11.69c-1.45-.84-3-1.53-4.53-2.26S156,113,154.34,112.5s-3.29-1-5-1.44c-.84-.18-1.7-.34-2.54-.5a24.67,24.67,0,0,0-2.58-.38c-.87-.08-1.72-.23-2.6-.25l-2.61-.09c-.9,0-1.64,0-2.47,0s-1.61,0-2.42.08c-3.23.12-6.48.43-9.72.85a75.36,75.36,0,0,0-19.11,5.09,59.13,59.13,0,0,0-16.94,10.67A63.79,63.79,0,0,0,76,142.09a83.16,83.16,0,0,0-4.32,8.79c-1.2,3-2.32,6.05-3.22,9.14s-1.7,6.18-2.39,9.3c-.34,1.55-.61,3.12-.92,4.68s-.45,3.27-.68,4.9a67.44,67.44,0,0,0,1.27,19.43,99.49,99.49,0,0,0,5.78,18.21,165.66,165.66,0,0,0,18.72,32.64,224,224,0,0,0,24.21,28.45,258.06,258.06,0,0,1-22-29.94A175.18,175.18,0,0,1,76,214.81a97.05,97.05,0,0,1-4.59-17.52A61,61,0,0,1,71,179.62c.27-1.44.48-2.85.78-4.3s.67-3,1.06-4.42c.78-2.92,1.6-5.82,2.61-8.64a81.67,81.67,0,0,1,7.46-16.1A55.35,55.35,0,0,1,94,133a50.68,50.68,0,0,1,14.71-8.65,68.22,68.22,0,0,1,16.92-4c2.92-.32,5.87-.55,8.85-.61.74,0,1.48,0,2.23,0s1.53,0,2.19,0l2,.11c.68,0,1.35.16,2,.24a17.52,17.52,0,0,1,2,.33l2,.43c1.33.4,2.67.72,4,1.24s2.59,1,3.88,1.59,2.54,1.22,3.76,2a71.45,71.45,0,0,1,13.8,10.47,114.9,114.9,0,0,1,11.81,13.25q2.72,3.54,5.2,7.27c.83,1.24,1.63,2.5,2.41,3.76s1.56,2.58,2.18,3.72l5.22,9.58,4.7-9.92c.3-.64.76-1.53,1.18-2.3s.88-1.61,1.34-2.4q1.4-2.4,2.94-4.72a103,103,0,0,1,6.63-8.92,82.56,82.56,0,0,1,16-15,69.87,69.87,0,0,1,9.33-5.45A57.6,57.6,0,0,1,262,119.48c1.78,0,3.57-.23,5.36-.13.9,0,1.8,0,2.7.07l2.71.25a67.22,67.22,0,0,1,10.62,1.87l2.56.78,1.27.4,1.24.48,2.48,1,2.4,1.15A52.86,52.86,0,0,1,310,138.39,69.16,69.16,0,0,1,321.27,157a86.52,86.52,0,0,1,3.61,10.49c.48,1.79.93,3.59,1.3,5.39.18.9.36,1.81.51,2.71s.29,1.86.37,2.56l0,.24.06.35.1.54c0,.22.07.46.1.7.07.48.11,1,.16,1.48.08,1,.14,2,.17,3.07.06,2.07,0,4.17-.17,6.27a85,85,0,0,1-1.94,12.6,95.05,95.05,0,0,1-3.78,12.32,104.77,104.77,0,0,1-5.34,11.85,134.73,134.73,0,0,1-14.4,21.9,180.48,180.48,0,0,1-18,19.49c-1.58,1.56-3.27,3-4.92,4.49s-3.35,2.95-5.06,4.4c-3.43,2.91-6.82,5.85-10.29,8.71s-6.88,5.77-10.41,8.56l-5.25,4.22-5.33,4.12c-7.14,5.44-14.33,10.85-21.8,15.83l-5.64,3.67c-1.92,1.16-3.81,2.39-5.75,3.5a82.6,82.6,0,0,1-11.91,6l-5-2.66,4.92,3.15.08.05.1,0a82.73,82.73,0,0,0,12.57-5.2c2.05-1,4-2.07,6-3.12l5.92-3.34c7.84-4.54,15.44-9.46,22.9-14.59l5.59-3.87,5.51-4c3.69-2.62,7.29-5.35,10.92-8.06s7.16-5.53,10.74-8.3c1.78-1.38,3.57-2.77,5.33-4.25s3.56-2.87,5.25-4.41A185.63,185.63,0,0,0,308,254.38a142.74,142.74,0,0,0,16-22.76A113,113,0,0,0,330.13,219a102.87,102.87,0,0,0,4.54-13.39,84.51,84.51,0,0,0,2.5-14.05,69.33,69.33,0,0,0,.32-7.23C337.48,183.12,337.44,181.89,337.36,180.66Z"/></svg>