<svg id="Your_design" data-name="Your design" xmlns="http://www.w3.org/2000/svg" viewBox="0 0 400 400"><defs><style>.cls-1{fill:#44dba4;}.cls-2{fill:#0a0839;}.cls-3{fill:#f14a3b;}.cls-4{fill:#fff;}.cls-5{fill:#fcb70f;}</style></defs><title>Artboard 1</title><circle class="cls-1" cx="200" cy="200" r="200"/><path class="cls-2" d="M216,52.11a69.55,69.55,0,0,1,7.9.3h.3a3.21,3.21,0,0,0,3.3-3,3.5,3.5,0,0,0-3-3.6c-3-.3-6-.3-8.6-.3a3.1,3.1,0,0,0-3.3,3.3A3.42,3.42,0,0,0,216,52.11Z"/><path class="cls-2" d="M69.4,270.51a3.27,3.27,0,1,0-6,2.6,119.74,119.74,0,0,0,7.6,15.2,3.62,3.62,0,0,0,3,1.7,3.42,3.42,0,0,0,1.7-.3,3.27,3.27,0,0,0,1.3-4.6A70.14,70.14,0,0,1,69.4,270.51Z"/><path class="cls-2" d="M85.3,299a3.29,3.29,0,0,0-5.3,3.9,134.69,134.69,0,0,0,10.6,13.6,3.7,3.7,0,0,0,2.6,1,4.76,4.76,0,0,0,2.3-.7c1.3-1.3,1.7-3.3.3-4.6A74.13,74.13,0,0,1,85.3,299Z"/><path class="cls-2" d="M63.8,254.91a132.11,132.11,0,0,1-4-15.9,3.37,3.37,0,0,0-6.6,1.4,128.08,128.08,0,0,0,4,16.5,3.31,3.31,0,0,0,3.3,2.3h1A4,4,0,0,0,63.8,254.91Z"/><path class="cls-2" d="M61.1,160.31c.3,0,.7.3,1,.3a3.31,3.31,0,0,0,3-2.3c1.7-5.3,4-10.3,6-15.2a3.27,3.27,0,0,0-6-2.6c-2.3,5.3-4.6,10.6-6.3,15.9A3.79,3.79,0,0,0,61.1,160.31Z"/><path class="cls-2" d="M54.5,193.11h.3a3.43,3.43,0,0,0,3.3-3,153.47,153.47,0,0,1,3-16.2,3.37,3.37,0,1,0-6.6-1.4,161.57,161.57,0,0,0-3,16.9C51.2,191.11,52.5,192.71,54.5,193.11Z"/><path class="cls-2" d="M54.5,226.51a3,3,0,0,0,3-3.6c-.3-4.3-.7-8.9-.7-13.6v-3a3.1,3.1,0,0,0-3.3-3.3,3.26,3.26,0,0,0-3.3,3.3v3c0,4.6.3,9.3.7,14.2-.1,1.7,1.6,3,3.6,3Z"/><path class="cls-2" d="M87.6,110.41a3.44,3.44,0,0,0-4.6.7c-3.3,4.6-6.6,9.3-9.6,14.2a3.53,3.53,0,0,0,1,4.6,3.42,3.42,0,0,0,1.7.3,4.08,4.08,0,0,0,3-1.7,121.24,121.24,0,0,1,9.3-13.6C89.2,113.31,89.2,111.31,87.6,110.41Z"/><path class="cls-2" d="M96.2,103.41a2.76,2.76,0,0,0,2.3-1,131,131,0,0,1,11.9-11.6c1.3-1.3,1.7-3.3.3-4.6s-3.3-1.7-4.6-.3a124.2,124.2,0,0,0-12.2,11.9,3,3,0,0,0,.3,4.6A2.75,2.75,0,0,0,96.2,103.41Z"/><path class="cls-2" d="M150.8,65a2.08,2.08,0,0,0,1.3-.3,140.64,140.64,0,0,1,15.2-5.6,3.78,3.78,0,0,0,2.3-4.3,3.78,3.78,0,0,0-4.3-2.3,126.67,126.67,0,0,0-15.9,6,3.31,3.31,0,0,0-1.7,4.3A3,3,0,0,0,150.8,65Z"/><path class="cls-2" d="M182.5,55.11h.7a128.9,128.9,0,0,1,16.2-2.3c2-.3,3.3-1.7,3-3.6s-1.7-3.3-3.6-3c-5.6.7-11.2,1.3-16.9,2.3a3.32,3.32,0,0,0-2.6,4A3.14,3.14,0,0,0,182.5,55.11Z"/><path class="cls-2" d="M121.7,81.21a4,4,0,0,0,2-.7,118.39,118.39,0,0,1,13.9-8.6,3.38,3.38,0,0,0-3.3-5.9,133,133,0,0,0-14.6,9.3,2.93,2.93,0,0,0-.7,4.6C119.3,80.91,120.3,81.21,121.7,81.21Z"/><path class="cls-2" d="M106.8,323.81a3.25,3.25,0,1,0-4.6,4.6c2,2,4.3,3.6,6.3,5.6a2.38,2.38,0,0,0,2,.7,2.82,2.82,0,0,0,2.6-1.3,3.2,3.2,0,0,0-.3-4.6A27,27,0,0,1,106.8,323.81Z"/><path class="cls-2" d="M239.5,60.41l3.6-6,11.2,3-6.6,15.9,4,1.3,9.9-15.9,9.3,2.3s.3-.3,5.3-.7c4.6,0,1-2.3,1-2.3l-5.6-2.6-8.6-2-3-18.2-4-.3-.7,17.2-11.2-1.7-1.3-7.3-3.3-.3.3,8.6L236.2,59Z"/><path class="cls-2" d="M208.5,345A136.5,136.5,0,1,1,345,208.51,136.61,136.61,0,0,1,208.5,345Z"/><path d="M186.8,95.21c.8,0,1.3.2.5,0A.45.45,0,0,0,186.8,95.21Z"/><path class="cls-3" d="M92.7,250.51l.1-5.8-.1-2.4-.6-1.8-.7-.7-.8-.1-.9.7-.2,1.9-1.9.2-3.2-3-2.9-2L80.3,236l-.2-2-.6-1a134.28,134.28,0,0,0,8.3,24.6l.6-2.7Z"/><path class="cls-3" d="M81.9,213.51l-5.2.9a80.78,80.78,0,0,0,1,8.6l4.2-7.4Z"/><path class="cls-3" d="M144.9,305.81l4.5-2.9,5.5-2.1,1-4.4,2-6.6v-4.5l-.8-3.8,6.2-8.5-1.1-7h-2.1l-5.1-3.1-3.6-.4-4.7-1.9-1.7-1-1.5-1.8-1.4.3-.6,1.9-1.4,1.2-2,.1V260h1l1.1-.4.5-1.1-.1-.8-.2-.7-1.5-.1-.8.5-2.2,1.2v.9h-1l-.1-.8,1-1.5,1-1.5.7-2.3-1.1-3.2-1.7-2.4-2.1-2.2-5.9-1.3-2.5-2.8-1.8-1.4-2.3-2.2-1.4-2.3-.7-.3-1.5.2-1.9.8-3.1-.6-4-3.3-1.4-.2-1.1,2.4v3.3l-1.5.5-1-.9.1-1.7.6-.7.3-1.3,1.1-.8.1-1.1-.9-.3-1.8,1.3-2.6,1.5-2.4.7-1.7,4.6H93.8l-.1-.6-1-1.2-1.2-.5-1.4.8-1.7.7-1.8-1.1-.9-1.7-1.5-.7V232l1-7.2-7.4-.2c.5,2.8,1,5.5,1.6,8.3l.6,1,.2,2,1.2,1.5,2.9,2,3.2,3,1.9-.2.2-1.9.9-.7.8.1.7.7.6,1.8.1,2.4-.1,5.8-4.2,4.3-.6,2.7a132.53,132.53,0,0,0,54.7,60.2l1.6-4.9Z"/><polygon class="cls-4" points="146.8 158.81 147.6 156.41 147.4 155.5 146.1 155.91 140.3 160.1 140.3 160.91 141 163 143.6 163 145.3 163.91 147.5 165.21 148 162.71 147.6 159.91 146.8 158.81"/><polygon class="cls-4" points="166.4 99 170.7 96.31 170.6 95.31 169.3 95.2 165.5 95.5 162.2 95.5 159.1 95.5 157.1 94.2 153 94.2 149.6 95.31 146.3 96 146.3 97.11 148.4 97.5 152.6 97.11 155.7 97.61 155.6 98.5 152.1 99.61 148.1 101.31 145.7 103.41 145.9 104.61 147.2 106.11 150.5 105.81 152.6 105.61 157.4 100.81 162.1 99.2 166.4 99"/><polygon class="cls-4" points="127.4 128.6 127.4 126.7 126.5 126.11 124.8 126.11 121.5 128.21 121.5 129.1 122.7 130.31 123.7 130.5 124 129.71 124.9 129.21 126.3 129.5 127.1 130.91 128.2 130.71 128.1 129.5 127.4 128.6"/><path d="M120.1,107.61l1.6-1.8-.7-1.7c-1.5,1.4-3,2.7-4.5,4.2h1.2Z"/><path d="M109.3,118.21l1.7.4,1.2-1.1,1.8-.3.5-.4-.4-1-.5-.8,1.3-1.2v-1.3l-2.2-.7c-1.8,1.8-3.5,3.7-5.1,5.6h.2Z"/><polygon points="118.8 111.31 118.8 113.2 120.2 114.61 122.7 114.7 124.3 113.11 125.1 111.5 125.5 110.11 122.1 109.41 118.8 111.31"/><polygon class="cls-4" points="132.5 110.11 129.6 110.2 127.9 110.81 126.1 112.2 126.3 113.81 127.6 113.81 129.8 112.81 132.5 111.41 132.5 110.11"/><polygon points="127.7 108.7 129.9 107.2 130 106 128.9 105.11 127.6 104.81 126.5 105.2 126.2 106.11 126.6 108.81 127.7 108.7"/><polygon class="cls-4" points="138.4 109.5 146 109.5 145.3 107.81 137.9 107.7 135.7 104.91 133.1 105.41 134.2 108.41 138.4 109.5"/><polygon class="cls-4" points="149.4 121.11 150.5 120 150.9 118.61 149.2 116.61 146.1 114.91 144.7 113.2 141 113.91 140.1 112.7 140.4 111.91 140.2 111.11 138.6 111 135.7 110.91 130.9 114.2 131.3 116.61 134.4 117.5 138.2 118.11 142.9 118.7 143.7 120 142.2 121.41 137.4 126.2 134.9 126.2 133.8 126.2 131.6 128.41 132.4 129.31 136.9 129.31 140.7 133 142.4 134.31 143.3 134 145.9 129.1 146.1 126.41 146.6 126.2 147.6 128.1 149 128.91 153.8 126.11 154.1 124.7 149.4 121.81 149.4 121.11"/><polygon class="cls-3" points="102.2 216.71 102.2 215.6 94.7 210.41 88.1 210.1 86.2 211.21 86.2 211.91 93.1 212 94.4 213.81 96.1 215.1 97.1 215.81 96.6 217.1 101.9 217.1 102.2 216.71"/><polygon class="cls-3" points="94.4 220.31 95.3 220.91 97.1 220.91 97.3 219.31 94.5 219.41 94.4 220.31"/><polygon class="cls-3" points="107 217 104.5 217.5 103.3 217.6 103.6 219.21 100.9 219.31 100.7 219.6 100.8 220.31 103.2 220.31 105.2 220.71 105.8 221 107.6 220.1 110.9 219.71 110.9 218.81 109.1 218.6 107 217"/><polygon class="cls-3" points="113.5 219.81 112.7 220.5 113.5 221.1 115.9 220.81 115.2 219.71 113.5 219.81"/><polygon class="cls-3" points="119.8 222.81 119.9 223.21 120.7 225.21 122 224.81 122.1 223.71 121.4 223.1 119.8 222.81"/><polygon class="cls-3" points="120.5 225.91 120.5 227.6 120.8 228.91 121.9 229 121.8 225.91 120.5 225.91"/><polygon class="cls-4" points="201.2 123.2 201.8 121.5 200.4 121.31 198.2 120.41 198.2 119.2 199 119.2 199.9 119.91 201.7 119.7 201.7 118.81 200 117.41 199.9 115.91 201.4 115.2 202.1 115.91 203.6 115.91 205.1 114.41 207 111.7 207 110.91 204.2 109.31 204.1 106.7 207.4 104.2 210.9 102.2 211.4 101.11 215 99.7 216.4 99.41 216.3 98.41 214.1 98.11 210.8 97.91 208.8 99.11 206.8 99.61 205.1 98.41 203.1 97.41 201.6 96.61 201.6 95.91 204.2 95.41 205.5 94.61 205.5 93.61 192.8 93.31 191 96.31 185.5 96.5 183.3 95.11 180.9 95.31 166.5 101.31 166.5 103.11 165.3 104.11 162.7 104.11 161.7 103.81 159.9 105.11 160.1 107.41 162.2 107.41 164.7 107.31 167.8 109.7 168.8 114.91 170.5 118.7 167.9 123.2 164.2 128.31 164.2 135.5 166.9 137 169.3 139.41 170.9 138.5 178.7 128.81 184.5 126.91 191.3 124.31 197.4 123.41 201.2 123.2"/><polygon class="cls-4" points="203.8 128.31 202 129 200.7 129 199.7 127.31 198.3 127.41 197.1 128.6 197.5 130.71 198.4 131.21 198.4 132.41 201.1 133.21 205.2 133.41 207.7 131.71 208.3 129.31 207.1 127.7 203.8 128.31"/><polygon class="cls-2" points="213.7 149.91 211.7 150.81 210.1 153.41 209.5 155.1 210.2 155.6 209.5 157.1 210.2 157.1 211 156.81 211.6 157.31 212.4 157.41 214.5 154.81 215.5 152.41 216.5 150.1 215.6 149.91 213.7 149.91"/><polygon class="cls-2" points="220.1 150.71 220 152.81 218 154.21 217.1 156.21 217.8 157 217.8 157.91 215.7 158.5 215.6 159.5 218.4 158.91 221.9 158.41 224.7 157.6 225.9 155.91 226 154.6 224.1 154.41 223 152.31 222.1 150 220.9 148 220.7 146.81 222.2 146 221.6 144.81 220.2 144.21 220.7 143.5 220.7 142.81 218 142.91 216.8 145.31 216.8 148.1 218.8 150.31 220.1 150.71"/><polygon class="cls-2" points="235.2 176.31 236.6 176.31 236.9 175.81 236.9 174.1 236.3 172.5 235.1 173.91 235.2 175.71 235.2 176.31"/><polygon class="cls-2" points="235.5 181 236.2 180.81 236.7 179.6 236.4 179.31 236.8 178 236.7 177.31 235.5 177.6 234.8 178.21 234.7 179.1 235.1 180.5 235.5 181"/><polygon class="cls-2" points="243.3 184.81 244.7 185.91 246.2 185.71 246.4 183.91 245.5 182.91 244.1 182.91 241.5 183.1 241.7 183.6 243.3 184.81"/><polygon class="cls-2" points="260.3 189 261.3 189.6 262.8 188.81 262.6 188.21 259.5 188.31 257.9 187.71 257.9 188.31 259.2 188.71 260.3 189"/><polygon class="cls-2" points="274.7 189 275.6 187.81 275.3 186.91 272.7 187.71 271.7 189.21 272.3 189.91 273.2 189.91 274.7 189"/><polygon class="cls-2" points="288.4 118.91 291.5 118.81 291.5 118.11 289.2 117.61 288.7 116.91 287.9 113.81 284.6 114 283.9 117.7 287.5 118.31 288.4 118.91"/><polygon class="cls-2" points="289.9 111.61 290.4 111.61 292 110.41 293.5 110.41 296.6 108.11 296.7 105.81 295.9 105.81 292.9 108.61 291.3 108.61 289 108.41 288 109.61 287.2 110.91 286 111 285.8 113.11 288.5 113 289.9 111.61"/><path d="M279.7,214.81c.3,0,.9.1,1.4.1l-.1-.1Z"/><path class="cls-5" d="M274.1,196.41l-.8-.5-1.6-.2-1.2-.1-2.6.5-1.6.9h-2.4l-2.6-1.7-1.9-1.4-1.5-1.1-2.7.6-1.9,1.1-.1,1.6h.6l-.2,1.2h-1.3l-3.4-.6-2.2-1.2-.6-2.2-.9-.3-2.9-.4-1.9-.7-1.7-1.5-.3-1.1,1-2.5.2-2.1-3.9-.3h-3.4l-2.4.6-2.4.5-4,.9-4.9,1.8-2,.1-1.7-.9h-1.1l-1.8,2.8-1.1,1.4-2.9,2-.6,1.5-.5,2.9-3.5,4.2h-1.7l-2.3,2.6-4.3,8.6-.4,3.6.1,4.6-1.2,4.3v4.2l1.8,3.9,5.3,6.5,7.3,7.8,3.2.6,8.4-2.6,6.7-1.8,3-.4,2.9,4.1h2.7l2.5.3-.2,2.2-1.1,3-.8,3.5,4.5,6.8,2.5,5.2,1.4,8.6-3.2,6.1-.1,7.1,3.4,7.6.6,3.3,1,6.7,4.1,7.4.4,4.5,2.5,1.8.5,1,1.2.2,2-1.7,4.3-1.1,3.3-.4,3.3-2.6,4.2-4.8,3-5.7v-1.4l4-2.6.1-4.4-.9-4.2,3.3-2.7,3.9-3.2,3.6-3.9-.2-3.3-1.9-11.9.3-6.2,4.1-5.1,5.4-5.5,4.5-6,5.2-12.7-.2-1.4-2.9.4-5.5,1.8-3.4.9-1.5-.2.1-3.7-2.4-2.6-2.6-2.6-1-.6-.9-3.9-3.7-3.8-.1-3.1-.3-.6c-.5,0-1.1-.1-1.4-.1h1.3l-2.4-3.8-3.3-6.4-1-2.8-.4-1.7,1.8.1.1.5.5.2.1-.1c-.6-1.7-1.2-3.5-1.7-5.4Z"/><path class="cls-1" d="M334.8,165.41l-.3-1.2a131.12,131.12,0,0,0-21.7-41.8c-1-1.2-1.9-2.5-2.9-3.7-.1-.2-.3-.3-.4-.5-1-1.2-2-2.4-3-3.5-.2-.3-.5-.5-.7-.8l-1.9.1-.4.8-2.6,2.6.1,1.7,1.1.3,1.4,1.9v1.1l-1.8.2-2.3-1.4-4.4.3-4.4,1.2-2.8.9-3.5,1.4-3,.8-.8-.1-.1-1.8-1.9-1.2h-1.1v1.6l1.1.6v1.2l.9.8v1.7l-1.4-.1-.4-.6-1.6,1.4-1,.3-3,3.1h-1.6l-2.4-2.5-1.6-.9-1.3-1.1.1-1.8,2,.6,1.9.7,2.1,1.1,1.9-.1.7-.9v-1.5l-.7-.3-.8-1.2h-1.1l-3.9-2.7-4.6-1.8-1.7-.8-2.8-1.3h-3l-6.8,4.6-4,3.9-3.1,3.1-4.2,4-2.1,2-2.4,1.7v5l1.1,1.4,1.9-.1.6-.9.9-.2,1.6-.9v1.3l.6-.2v1.9l1.1.9.5,1.8.4,1.8,1.6-.1.5-1,1.1-.6.9-1v-1.1l1-2.4,1.4-2.4V139l-.9-2.2,1.4-3,1.8-1.1.1-1.2,1.5-1.8,1.6-1.7,1.2.5h.9v2.2l-1.5,1.8-1.9,1.8v1.4l2.3,4.5,2.1.1,1.6-.8,1.3-.4,1.6-.1.6.2.7,1.1-1.9,1h-1.6l-3.2.4.5,2v1.1l-1.3.5-.4-.4-1.2-.1-.8,1.1-1,2.4-.6,2.3-.9.2-1.3-.4-2.1.1-1.7.3-2,.7-1.7.1-2.4-.3-1.2-.5v-1.7l.9-1v-1.9l-.4-1.6-1.3.3-1.4,1,.2,1.6.2,3-.5,2-2.4.7-1.8.5.1,2.7-.6.1-.3-1.2-1,.6-.9,1.3-1.3.6-3.3,3.5h-1.7l-.8-1.1-1.4.1.6.8-.4,1.4h-3.2l.2,1.2.6.5,1.8.9,1.9,1.2.2,3-.9,1.5.4,1.3-1.8,1-1.5-.3-3-.7h-3.1l-2,.6-.3,2v9.7l1.1.8,1.2.3,1.8.9,2-.4,1.4-.4,1.6.7,1.2.1,2-3.3,1.8-3.8,4.5-3.8.4-1.8,2.2-1,.9,1,1.7-.3,1.9-2.1,1.2-.5,1.2,1,.6,1.4,1.7,2.7,1.2.7,1.8.2,1.5,1.1,1.4,1.5,1.1,1.4.2,2.5h.8l.4-.7.3-3.1h.6l.8.8h.6l-.6-1.3-1.1-1.1-2-1.3v-1.2l-1.7-.6-1.9-1-.3-1-1-1.8-.9-.9.3-1.4h1l.5.9,1,1.1,1.7.7L248,174l1.9,1.2,1.5,2,1.1,2.6,1,1.5,1.5.8-1,.3v2.5l1.3,1.2,2-.4v-4.3l.3-2.1.4-1.3,2.4-.5,1.1.8h1.2l2-1.8-.7-1.3v-2.4l1.2-2.3,1.1-3.3,2.2-1,1.1-.4.4.7.8,2.5,1.2,1.2h1.2l1.7-1.1V168l-1.1-1.1,3.7-1.8.8-.4,1.1.3v.8l-.9.5-1.2,1.2-.3,1.4.8.9,1.8,1.1,1,.9,1.3,1.1H283l1,.9-.4.9.1,1.8-2.8.1-1.7-.3-1.5-.3-2.1-.4-1.4-.9h-2.3l-1.1,1-1.1.7-.9.8-2,.4h-1.2l-.8.5-1,1h-1.6l.8,2.9.8,2.9,1.2,1.2,3-.1,2.8-.4,2.5.1,3.4-.3v.8l-.6.4v3.6l-.4,2.6-.6,1.9-.4.7c.5,1.9,1.1,3.7,1.7,5.4l.8-.9,1.9,4.8,6.7,10.5,4.5,6.1.8,5.6.8,1.6,1.9,3,1.8-.4,6.2-1.4,2.2-1.5,2.3-2.3,3.2-2.1,1.8-1.1,2.5-2.3,2.4-3.1,1.7-5.1-.6-1-1-.5-1.8-.3-1.8-.6-.3-1.4.1-2.2h-1.8l-1.1,1.8-1,1.3-2.4-.3-1.2-.3v-2.4l-.8-.8-1.3.7-.9-.3-.3-1.3-1-.4-1.1-2-2.1-1.8-.3-.9,1.1-1.2,1.9-.2,1.7,1.8,3.1,2.9,1.3,1.3h2.8l1-1,1.9-.3,1.3,1v1.8l2.3.9,1.9.6,10.6.1,2,1.9.9,1.5.9,1.6,2.6,2.7,1.6.9,1-.4.3-2.5h1.5l.4,5.5v.1a131.71,131.71,0,0,0,.9-15.5A127.12,127.12,0,0,0,334.8,165.41Z"/><path class="cls-5" d="M302.8,279.11l-.7.2-3.3,3.6-1.3,2.1-1.5,1.1-2.6,1.9-1,3.6.6.3-.1,2.4-2.1,4.7.2,3,1.4,2.9c2.2-1.9,4.4-3.8,6.5-5.8l.7-2.7,3.3-9.1-.1-5.5Z"/><path class="cls-2" d="M208.5,80.51a128,128,0,1,1-128,128,128.14,128.14,0,0,1,128-128m0-8.5A136.5,136.5,0,1,0,345,208.51,136.61,136.61,0,0,0,208.5,72Z"/></svg>