<svg xmlns="http://www.w3.org/2000/svg" viewBox="0 0 1000 1000"><defs><style>.a{fill:#5fc5be;}.b{fill:#3e7739;}.c{fill:#599d43;}.d{fill:#facf5a;}</style></defs><title>switch</title><circle class="a" cx="500" cy="500" r="500"/><path class="b" d="M888.3,531.832,781.085,494.315a167.527,167.527,0,0,0-215.1,107.674L537.93,690.823l-27.619,20.709V526.018c-.031-24.724-25.812-33.345-25.774,0V871.1l-25.775-12.887V831.7A201.684,201.684,0,0,0,193.281,640.381l-60.775,20.256a12.89,12.89,0,0,0,0,24.491l13.8,4.6A588.987,588.987,0,0,1,328.6,788.856L437.82,876.23a12.017,12.017,0,0,0,2.372,1.29l-.082.169,44.427,22.232v30.7h25.774V743.75l46.39-34.8-.139-.176a14.644,14.644,0,0,0,1.523-1.02,520.779,520.779,0,0,1,302.2-147.808l25.354-3.165a12.889,12.889,0,0,0,2.655-24.951Z" transform="translate(0)"/><path class="c" d="M661.356,586.332a186.818,186.818,0,0,0-63.345,75.2l-6.168,13.309A521.209,521.209,0,0,1,867.237,557.785l24.6-2.656-121.308-1.891A186.865,186.865,0,0,0,661.356,586.332Z" transform="translate(0)"/><path class="c" d="M455.666,883.963l-.258-1.416c-25.63-140.98-153.924-239.6-296.755-228.109l-6,.479-17.11,5.707a12.885,12.885,0,0,0,0,24.485l13.8,4.606a589.022,589.022,0,0,1,182.292,99.141L440.86,876.23a12.017,12.017,0,0,0,2.372,1.29l-.082.169Z" transform="translate(0)"/><path class="d" d="M431.673,473.711a27.358,27.358,0,0,0,4.581,15.12l14.608,21.958A27.342,27.342,0,0,0,473.632,523h52.745a27.342,27.342,0,0,0,22.77-12.206l14.607-21.958a27.339,27.339,0,0,0,4.582-15.12l.034-32.779H431.63ZM349.567,235.8a149.6,149.6,0,0,0,37.232,98.96c14.121,16.112,36.207,49.771,44.626,78.166.034.222.06.444.094.666H568.481c.034-.222.06-.436.094-.666,8.419-28.395,30.5-62.054,44.626-78.166A150.351,150.351,0,0,0,499.53,85.364C412.339,85.629,349.567,156.281,349.567,235.8ZM500,167.418A68.458,68.458,0,0,0,431.622,235.8a13.676,13.676,0,0,1-27.352,0A95.835,95.835,0,0,1,500,140.067a13.676,13.676,0,1,1,0,27.351Z" transform="translate(0)"/></svg>