<?xml version="1.0" encoding="utf-8"?>
<!-- Generator: Adobe Illustrator 15.0.0, SVG Export Plug-In . SVG Version: 6.00 Build 0)  -->
<!DOCTYPE svg PUBLIC "-//W3C//DTD SVG 1.1//EN" "http://www.w3.org/Graphics/SVG/1.1/DTD/svg11.dtd">
<svg version="1.1" id="Layer_1" xmlns="http://www.w3.org/2000/svg" xmlns:xlink="http://www.w3.org/1999/xlink" x="0px" y="0px"
	 width="80px" height="80px" viewBox="0 0 80 80" enable-background="new 0 0 80 80" xml:space="preserve">
<rect x="0" y="0" fill="#FFFFFF" width="80" height="80"/>
<g>
	<path fill="#A53220" d="M15.126,25.764c0-0.677,0-2.229-0.169-2.793c-0.226-0.733-1.044-0.706-1.693-0.706v-0.479
		c0.959,0.028,1.891,0.057,2.85,0.084c0.791-0.028,1.581-0.056,2.371-0.084c2.088-0.057,4.91,0.508,4.91,3.302
		c0,1.919-1.467,2.737-2.991,3.217v0.028c1.129,0.113,2.145,0.282,2.907,0.847c0.931,0.677,1.523,1.693,1.523,2.906
		c0,1.383-0.818,2.427-1.947,3.048c-1.072,0.592-2.512,0.536-3.668,0.536c-0.875-0.028-1.722-0.057-2.625-0.084
		c-1.129,0.028-2.258,0.056-3.358,0.084v-0.479c0.649,0,1.467,0.028,1.693-0.706c0.169-0.564,0.169-2.117,0.169-2.794v-5.926H15.126
		z M17.186,28.106h0.649c0.875,0,1.608,0.028,2.37-0.451c0.847-0.564,1.016-1.467,1.016-2.483c0-1.862-0.959-2.794-2.737-2.794
		c-0.254,0-1.016-0.028-1.185,0.113c-0.141,0.113-0.113,0.706-0.113,0.875V28.106z M17.186,31.577c0,0.705,0,2.003,0.226,2.652
		c0.338,0.903,1.326,0.875,2.088,0.875c1.946,0,2.821-1.213,2.821-3.217c0-1.185-0.395-2.201-1.439-2.793
		c-0.903-0.508-2.088-0.452-3.104-0.452h-0.621v2.935H17.186z"/>
	<path fill="#A7BECD" d="M44.728,33.947c0.648,0.791,0.931,1.073,1.946,1.242v0.479c-0.592-0.028-1.185-0.057-1.806-0.084
		c-0.508,0.028-0.987,0.056-1.495,0.084l-0.932-1.213l-3.302-4.317c-0.649-0.791-0.564-0.932-1.637-0.932v2.483
		c0,0.677,0,2.229,0.169,2.794c0.226,0.733,1.044,0.706,1.693,0.706v0.479c-0.903-0.028-1.862-0.057-2.822-0.084
		c-0.988,0.028-2.003,0.056-2.991,0.084v-0.479c0.649,0,1.467,0,1.693-0.706c0.169-0.564,0.169-2.117,0.169-2.794v-5.926
		c0-0.677,0-2.229-0.169-2.793c-0.226-0.733-1.044-0.706-1.693-0.706v-0.479c1.129,0.028,2.286,0.057,3.443,0.084
		c0.847-0.028,1.693-0.056,2.54-0.084c2.286,0,4.572,0.536,4.572,3.471c0,2.258-1.637,3.415-3.612,3.612L44.728,33.947z
		 M37.531,28.642c2.483,0,4.317-0.056,4.317-3.104c0-1.834-0.987-3.161-2.793-3.161c-0.226,0-1.129-0.056-1.298,0.028
		c-0.254,0.113-0.226,0.537-0.226,0.762V28.642z"/>
	<path fill="#A53220" d="M66.004,30.109c0,3.81-1.41,5.785-5.192,5.785c-3.555,0-5.305-1.326-5.305-5.107v-5.023
		c0-0.677,0-2.229-0.197-2.793c-0.254-0.706-1.072-0.706-1.722-0.706v-0.479c0.932,0.028,1.891,0.057,2.822,0.084
		c1.016-0.028,2.003-0.056,3.02-0.084v0.479c-0.649,0-1.468-0.028-1.722,0.706c-0.169,0.564-0.169,2.117-0.169,2.793v5.165
		c0,2.681,0.987,4.205,3.725,4.205c2.766,0,4.12-1.524,4.12-4.318v-4.571c0-0.733,0-2.342-0.198-2.991
		c-0.282-0.875-1.072-0.959-1.862-0.959v-0.479c0.79,0.028,1.524,0.056,2.314,0.084c0.733-0.028,1.467-0.056,2.229-0.084v0.479
		c-0.649,0.028-1.327,0-1.609,0.762c-0.282,0.762-0.282,2.37-0.282,3.217v3.837H66.004z"/>
	<path fill="#A7BECD" d="M24.917,48.367h-0.423c-0.141-2.342-1.608-4.063-3.894-4.063c-3.894,0-4.712,3.781-4.712,7.083
		c0,3.161,1.157,6.236,4.543,6.236c2.003,0,3.33-0.987,3.33-3.16c0-1.411-0.508-1.665-1.721-1.778v-0.479h5.221v0.479
		c-1.072-0.027-1.242,0.536-1.242,1.608v2.229c-1.467,0-1.581,0.17-2.822,0.875c-1.016,0.536-2.003,0.79-3.132,0.79
		c-3.894,0-6.687-2.681-6.687-6.829c0-4.289,2.822-7.534,6.969-7.534c1.468,0,2.963,0.367,4.148,1.326l0.423-0.932h0.197
		L24.917,48.367z"/>
	<path fill="#A53220" d="M45.828,48.367h-0.424c-0.141-2.342-1.608-4.063-3.895-4.063c-3.894,0-4.712,3.781-4.712,7.083
		c0,3.161,1.157,6.236,4.543,6.236c2.004,0,3.33-0.987,3.33-3.16c0-1.411-0.508-1.665-1.722-1.778v-0.479h5.221v0.479
		c-1.072-0.027-1.242,0.536-1.242,1.608v2.229c-1.467,0-1.58,0.17-2.821,0.875c-1.016,0.536-2.004,0.79-3.132,0.79
		c-3.895,0-6.688-2.681-6.688-6.829c0-4.289,2.822-7.534,6.97-7.534c1.468,0,2.963,0.367,4.148,1.326l0.424-0.932h0.226
		L45.828,48.367z"/>
	<path fill="#A7BECD" d="M57.002,48.142c0-0.678,0-2.229-0.197-2.794c-0.254-0.705-1.072-0.705-1.722-0.705v-0.564h9.905v3.16
		h-0.451c-0.367-2.455-1.411-2.596-3.527-2.596H59.57c-0.311,0-0.451-0.028-0.508,0.085c-0.028,0.084-0.028,0.311-0.028,0.79v4.967
		c2.737,0.112,3.132-1.073,3.245-2.568h0.451c-0.028,0.931-0.028,1.919-0.084,2.85c0.028,0.847,0.056,1.75,0.084,2.597h-0.451
		c-0.282-2.201-1.326-2.314-3.245-2.314v3.443c0,0.62,0,1.608,0.367,2.116c0.508,0.733,1.749,0.79,2.539,0.762
		c2.061-0.028,3.443-0.311,3.697-2.821h0.451l-0.169,3.386H55.083v-0.479c0.649,0,1.468,0,1.722-0.706
		c0.197-0.564,0.197-2.116,0.197-2.793V48.142L57.002,48.142z"/>
</g>
</svg>
