<?xml version="1.0" standalone="no"?>
<!DOCTYPE svg PUBLIC "-//W3C//DTD SVG 20010904//EN"
 "http://www.w3.org/TR/2001/REC-SVG-20010904/DTD/svg10.dtd">
<svg version="1.0" xmlns="http://www.w3.org/2000/svg"
 width="494.000000pt" height="608.000000pt" viewBox="0 0 494.000000 608.000000"
 preserveAspectRatio="xMidYMid meet">

<g transform="translate(0.000000,608.000000) scale(0.100000,-0.100000)"
fill="#000000" stroke="none">
<path d="M357 5713 c-4 -3 -7 -945 -7 -2093 0 -1609 3 -2089 12 -2098 9 -9
181 -12 712 -12 l700 0 341 340 340 340 340 -340 340 -340 700 0 c532 0 704 3
713 12 9 9 12 181 12 713 l0 700 -340 340 -340 340 340 340 340 341 0 696 c0
383 -3 703 -6 712 -6 14 -78 16 -713 16 l-706 0 -335 -335 c-184 -184 -339
-335 -345 -335 -6 0 -161 151 -345 335 l-335 335 -706 0 c-388 0 -709 -3 -712
-7z m1728 -383 l330 -330 -670 -670 -670 -670 -333 332 -332 333 0 668 0 667
673 0 672 0 330 -330z m2415 -338 l0 -667 -333 -333 -332 -332 -670 670 -670
670 330 330 330 330 672 0 673 0 0 -668z m-1370 -707 l665 -665 -672 -672
c-370 -370 -673 -670 -675 -667 -2 3 -302 305 -668 672 l-665 667 665 665
c366 366 669 665 675 665 6 0 309 -299 675 -665z m-2110 -670 c0 -6 -137 -147
-305 -315 l-305 -305 0 620 0 620 305 -305 c168 -168 305 -309 305 -315z m722
-712 l668 -668 -332 -332 -333 -333 -667 0 -668 0 0 672 0 673 327 327 c181
181 330 328 333 328 3 0 305 -300 672 -667z m2431 339 l327 -328 -2 -669 -3
-670 -665 -3 -665 -2 -332 332 -333 333 667 667 c368 368 670 668 673 668 3 0
153 -148 333 -328z"/>
<path d="M2952 1069 c-25 -13 -55 -39 -70 -62 l-27 -41 0 -241 0 -241 27 -41
c40 -61 84 -78 203 -78 122 0 164 17 206 84 l29 45 0 228 c0 262 -6 285 -82
335 -37 25 -52 28 -142 31 -88 3 -107 0 -144 -19z m213 -124 c25 -24 25 -25
25 -220 0 -195 0 -196 -25 -220 -20 -21 -34 -25 -80 -25 -46 0 -60 4 -80 25
-25 24 -25 25 -25 220 0 195 0 196 25 220 20 21 34 25 80 25 46 0 60 -4 80
-25z"/>
<path d="M3555 1071 c-48 -22 -79 -54 -100 -103 -12 -30 -15 -80 -15 -245 0
-232 7 -264 69 -316 45 -38 95 -50 194 -46 76 4 90 7 128 34 75 54 84 81 87
304 4 213 -4 265 -45 320 -39 51 -93 71 -193 71 -62 0 -96 -6 -125 -19z m202
-123 c23 -21 23 -25 23 -224 l0 -203 -26 -20 c-36 -28 -122 -29 -155 -2 -24
19 -24 21 -24 226 0 205 0 207 24 226 34 28 127 27 158 -3z"/>
<path d="M350 726 l0 -356 159 0 c154 0 160 1 212 28 42 22 58 38 78 77 23 45
26 61 29 209 5 181 -6 262 -42 317 -42 63 -78 74 -268 77 l-168 3 0 -355z
m314 213 l26 -20 0 -194 0 -194 -26 -20 c-22 -17 -41 -21 -105 -21 l-79 0 0
235 0 235 79 0 c64 0 83 -4 105 -21z"/>
<path d="M930 725 l0 -355 210 0 210 0 0 60 0 60 -145 0 -145 0 0 90 0 90 120
0 120 0 0 60 0 60 -120 0 -120 0 0 85 0 85 145 0 145 0 0 60 0 60 -210 0 -210
0 0 -355z"/>
<path d="M1685 1068 c-3 -7 -4 -166 -3 -353 l3 -340 65 0 65 0 5 121 c4 102 8
126 24 143 11 12 23 20 28 19 5 -2 48 -66 96 -143 l88 -140 77 -3 c42 -2 77 1
77 5 0 5 -54 96 -120 203 -66 106 -120 199 -120 205 0 6 50 72 110 147 61 75
110 139 110 142 0 3 -35 6 -77 6 l-78 -1 -100 -134 c-55 -74 -103 -134 -107
-134 -4 -1 -9 59 -10 132 l-3 132 -63 3 c-44 2 -64 -1 -67 -10z"/>
<path d="M2270 726 l0 -356 65 0 65 0 0 150 0 150 59 0 58 0 53 -150 52 -150
69 0 c38 0 69 3 69 6 0 3 -24 77 -54 164 l-55 158 35 33 c92 89 78 246 -28
316 -41 27 -45 28 -215 31 l-173 3 0 -355z m316 210 c39 -33 39 -89 0 -123
-25 -21 -36 -24 -105 -21 l-76 3 -3 83 -3 82 80 0 c70 0 83 -3 107 -24z"/>
<path d="M4040 725 l0 -355 65 0 65 0 0 112 c0 99 2 115 23 145 12 18 27 33
32 33 6 0 50 -65 100 -145 l90 -145 77 0 c43 0 78 2 78 5 0 3 -51 87 -114 188
-62 100 -118 192 -125 204 -10 19 0 35 99 157 61 75 110 140 110 146 0 6 -30
10 -74 10 l-73 0 -102 -135 c-56 -74 -107 -135 -112 -135 -5 0 -9 59 -9 135
l0 135 -65 0 -65 0 0 -355z"/>
</g>
</svg>
