<?xml version="1.0" encoding="UTF-8" standalone="no"?>
<svg
   xmlns:dc="http://purl.org/dc/elements/1.1/"
   xmlns:cc="http://creativecommons.org/ns#"
   xmlns:rdf="http://www.w3.org/1999/02/22-rdf-syntax-ns#"
   xmlns:svg="http://www.w3.org/2000/svg"
   xmlns="http://www.w3.org/2000/svg"
   viewBox="0 0 383.82666 144.21333"
   height="144.21333"
   width="383.82666"
   xml:space="preserve"
   id="svg2"
   version="1.1"><metadata
     id="metadata8"><rdf:RDF><cc:Work
         rdf:about=""><dc:format>image/svg+xml</dc:format><dc:type
           rdf:resource="http://purl.org/dc/dcmitype/StillImage" /></cc:Work></rdf:RDF></metadata><defs
     id="defs6"><clipPath
       id="clipPath20"
       clipPathUnits="userSpaceOnUse"><path
         id="path18"
         d="M 0,1081.64 V 0 h 2878.71 v 1081.64 z" /></clipPath></defs><g
     transform="matrix(1.3333333,0,0,-1.3333333,0,144.21333)"
     id="g10"><g
       transform="scale(0.1)"
       id="g12"><g
         id="g14"><g
           clip-path="url(#clipPath20)"
           id="g16"><path
             id="path22"
             style="fill:#606264;fill-opacity:1;fill-rule:nonzero;stroke:none"
             d="m 463.848,373.234 c 0,21.602 -8.106,33.75 -39.149,33.75 -21.601,0 -35.996,-9.89 -35.996,-33.75 0,-21.601 13.496,-35.097 37.344,-35.097 22.949,0 37.801,10.801 37.801,35.097 m 107.539,270.461 c 0,15.743 -3.602,25.196 -31.953,25.196 -25.641,0 -33.75,-8.106 -33.75,-25.196 0,-154.355 0.453,-243.449 0.453,-279.004 0,-14.855 5.847,-22.949 25.652,-22.949 15.305,0 24.297,3.594 27.004,17.559 3.594,18.445 3.141,21.601 7.195,21.601 8.555,0 8.098,-42.316 78.75,-42.316 59.856,0 96.746,50.852 96.746,123.301 0,79.199 -35.996,120.148 -93.14,120.148 -56.703,0 -65.707,-32.383 -73.352,-32.383 -3.605,0 -4.504,1.786 -4.504,9.883 0,7.656 0.899,14.852 0.899,37.801 z M 621.34,386.742 c -31.504,0 -53.106,26.543 -53.106,70.645 0,51.746 23.86,68.398 55.801,68.398 32.403,0 52.656,-16.652 52.656,-65.234 0,-47.715 -22.05,-73.809 -55.351,-73.809 m 211.953,61.66 c 0,45.438 19.797,67.938 57.598,67.938 22.949,0 26.093,14.855 26.093,31.496 0,19.805 -8.097,26.551 -26.543,26.551 -46.347,0 -54.445,-39.598 -62.097,-39.598 -3.156,0 -4.504,2.246 -6.75,17.547 -2.707,17.102 -7.207,22.051 -26.106,22.051 -18.894,0 -24.754,-4.949 -24.754,-19.793 0,-15.293 -1.796,-70.656 -1.796,-189.903 0,-16.64 8.566,-23.847 32.402,-23.847 25.644,0 31.953,7.644 31.953,23.847 z M 1154.58,365.59 c 0,15.312 1.35,161.101 1.35,188.105 0,16.641 -10.34,20.692 -33.29,20.692 -23.85,0 -31.95,-5.848 -31.95,-19.793 0,-14.406 0.89,-33.75 0.89,-89.551 0,-49.492 -15.75,-74.258 -47.69,-74.258 -26.11,0 -40.95,19.805 -40.95,59.403 0,22.949 0.9,95.851 0.9,103.945 0,17.558 -9.453,21.601 -32.402,21.601 -25.665,0 -31.954,-7.644 -31.954,-22.5 0,-79.648 0.45,-46.347 0.45,-118.347 0,-66.145 25.656,-98.985 78.296,-98.985 64.36,0 66.61,46.336 74.26,46.336 4.04,0 4.04,-8.543 6.3,-18.445 3.15,-13.957 8.99,-22.051 28.8,-22.051 18.9,0 26.99,8.992 26.99,23.848 m 53.56,55.351 c -15.76,0 -22.5,-7.656 -22.5,-23.847 0,-22.5 26.54,-61.192 100.8,-61.192 75.14,0 108.44,32.84 108.44,71.543 0,31.942 -13.49,53.106 -88.19,66.141 -50.86,9.004 -58.5,17.102 -58.5,34.199 0,16.211 14.4,24.309 40.04,24.309 21.61,0 36.01,-6.758 46.35,-24.309 3.61,-6.289 10.81,-14.383 23.41,-14.383 18.45,0 29.25,8.094 29.25,23.399 0,32.39 -29.25,62.539 -98.56,62.539 -50.85,0 -100.35,-23.848 -100.35,-76.055 0,-31.484 13.51,-59.844 78.31,-70.644 51.74,-8.555 66.14,-12.149 66.14,-27.903 0,-11.25 -8.54,-22.5 -40.04,-22.5 -60.31,0 -55.8,38.703 -84.6,38.703 m 232.63,0 c -15.73,0 -22.5,-7.656 -22.5,-23.847 0,-22.5 26.57,-61.192 100.81,-61.192 75.15,0 108.46,32.84 108.46,71.543 0,31.942 -13.51,53.106 -88.21,66.141 -50.84,9.004 -58.5,17.102 -58.5,34.199 0,16.211 14.41,24.309 40.05,24.309 21.61,0 36.01,-6.758 46.36,-24.309 3.59,-6.289 10.8,-14.383 23.4,-14.383 18.44,0 29.24,8.094 29.24,23.399 0,32.39 -29.24,62.539 -98.54,62.539 -50.86,0 -100.35,-23.848 -100.35,-76.055 0,-31.484 13.49,-59.844 78.3,-70.644 51.75,-8.555 66.15,-12.149 66.15,-27.903 0,-11.25 -8.55,-22.5 -40.05,-22.5 -60.3,0 -55.81,38.703 -84.62,38.703 m 430.22,-21.601 c 0,15.312 -10.8,23.406 -22.5,23.406 -32.85,0 -22.5,-36.453 -78.75,-36.453 -34.2,0 -57.61,22.949 -57.61,53.543 0,7.199 0.91,11.699 10.81,11.699 10.33,0 116.09,-0.449 128.7,-0.449 17.55,0 26.1,5.41 26.1,32.402 0,61.653 -40.05,96.301 -110.25,96.301 -74.71,0 -116.56,-49.055 -116.56,-117.902 0,-76.942 44.55,-125.547 116.09,-125.547 76.06,0 103.97,40.5 103.97,63 m -147.15,84.148 c -8.12,0 -9.9,2.707 -9.9,9.453 0,15.754 15.74,40.051 55.35,40.051 38.25,0 53.98,-22.5 53.98,-39.152 0,-7.207 -2.69,-10.352 -11.25,-10.352 z m 185.39,-90.437 c 0,-34.211 18.01,-57.149 55.8,-57.149 27.45,0 40.5,9.883 40.5,28.789 0,13.497 -5.85,20.692 -17.55,20.692 -4.95,0 -7.21,-0.899 -10.35,-0.899 -5.85,0 -7.65,3.157 -7.65,11.711 0,22.039 1.8,220.957 1.8,247.5 0,19.793 -9,25.196 -30.61,25.196 -23.39,0 -31.94,-8.555 -31.94,-24.297 z m 128.25,27.89 c -15.75,0 -22.5,-7.656 -22.5,-23.847 0,-22.5 26.55,-61.192 100.79,-61.192 75.16,0 108.46,32.84 108.46,71.543 0,31.942 -13.51,53.106 -88.19,66.141 -50.86,9.004 -58.51,17.102 -58.51,34.199 0,16.211 14.41,24.309 40.06,24.309 21.59,0 35.99,-6.758 46.34,-24.309 3.6,-6.289 10.81,-14.383 23.4,-14.383 18.44,0 29.24,8.094 29.24,23.399 0,32.39 -29.24,62.539 -98.54,62.539 -50.85,0 -100.35,-23.848 -100.35,-76.055 0,-31.484 13.49,-59.844 78.31,-70.644 51.74,-8.555 66.14,-12.149 66.14,-27.903 0,-11.25 -8.55,-22.5 -40.05,-22.5 -60.3,0 -55.8,38.703 -84.6,38.703" /><path
             id="path24"
             style="fill:#606264;fill-opacity:1;fill-rule:nonzero;stroke:none"
             d="m 2404.52,529.191 c -42.15,0 -84.05,-31.757 -84.05,-84.921 0,-51.504 47.71,-83.555 89.18,-83.555 45.63,0 67.65,14.277 106.09,6.515 30.08,-6.066 46.32,-20.761 54.38,-28.488 3.88,-3.699 8.75,-4.121 12.12,-1.902 3.34,2.215 5.58,6.387 3.34,16.328 -5.27,23.211 -17.64,49.187 -31.97,71.348 -28.21,43.543 -85.41,104.675 -149.09,104.675" /><path
             id="path26"
             style="fill:#606264;fill-opacity:1;fill-rule:nonzero;stroke:none"
             d="m 2794.68,529.191 c 42.14,0 84.02,-31.757 84.02,-84.921 0,-51.504 -47.68,-83.555 -89.18,-83.555 -45.62,0 -67.62,14.277 -106.08,6.515 -30.07,-6.066 -46.31,-20.761 -54.39,-28.488 -3.85,-3.699 -8.75,-4.121 -12.09,-1.902 -3.35,2.215 -5.59,6.387 -3.35,16.328 5.27,23.211 17.62,49.187 31.98,71.348 28.2,43.543 85.39,104.675 149.09,104.675" /><path
             id="path28"
             style="fill:#606264;fill-opacity:1;fill-rule:nonzero;stroke:none"
             d="m 2651.57,648.391 c -28.23,0 -45.83,-21.278 -51.97,-36.465 -6.15,15.187 -23.74,36.465 -51.98,36.465 -32.51,0 -58.82,-26.844 -58.82,-59.364 0,-12.285 4.19,-23.574 11.72,-33.859 29.6,-40.477 69.8,-53.465 99.08,-116.855 29.28,63.39 69.47,76.378 99.07,116.855 7.52,10.285 11.71,21.574 11.71,33.859 0,32.52 -26.3,59.364 -58.81,59.364 m 1.99,24.347 c 42.62,0 81.72,-33.937 81.72,-83.183 0,-21.594 -8.66,-37.969 -16.52,-49.434 -8.94,-13.058 -20.72,-24.367 -39.26,-40.449 -26.83,-23.32 -48.94,-46.074 -70.05,-90.617 -1.68,-3.555 -5.26,-7.559 -9.86,-7.559 -4.62,0 -8.17,4.004 -9.86,7.559 -21.1,44.543 -43.2,67.297 -70.05,90.617 -18.52,16.082 -30.3,27.391 -39.27,40.449 -7.86,11.465 -16.52,27.84 -16.52,49.434 0,49.246 39.13,83.183 81.75,83.183 23.53,0 43.03,-9.894 53.95,-24.347 10.93,14.453 30.42,24.347 53.97,24.347" /><path
             id="path30"
             style="fill:#274493;fill-opacity:1;fill-rule:nonzero;stroke:none"
             d="m 569.465,766.117 c 0,22.5 -0.449,161.102 -0.449,188.106 0,16.648 -6.758,25.195 -30.157,25.195 -27.004,0 -31.496,-5.852 -31.496,-22.5 0,-24.738 -1.355,-177.297 -1.355,-188.996 0,-17.098 7.656,-23.399 32.851,-23.399 25.204,0 30.606,4.942 30.606,21.594 m 255.586,1.367 c 0,79.188 -1.348,50.391 -1.348,121.934 0,67.5 -35.547,95.398 -81.008,95.398 -62.547,0 -67.5,-42.285 -75.593,-42.285 -2.696,0 -4.504,2.239 -7.2,15.305 -4.05,18.445 -9.004,21.582 -26.101,21.582 -18.899,0 -24.746,-5.391 -24.746,-20.684 0,-14.863 -1.36,-71.554 -1.36,-190.812 0,-17.098 9.004,-21.602 31.059,-21.602 26.101,0 33.75,2.246 33.75,22.051 0,15.754 -0.453,44.113 -0.453,98.547 0,40.957 20.254,63.457 46.797,63.457 31.953,0 42.304,-19.797 42.304,-59.855 0,-22.5 -1.347,-96.297 -1.347,-104.403 0,-17.988 7.648,-19.347 33.293,-19.347 23.855,0 31.953,4.511 31.953,20.714 m 251.549,0 c 0,79.188 -1.34,50.391 -1.34,121.934 0,67.5 -35.56,95.398 -81.01,95.398 -62.551,0 -67.5,-42.285 -75.598,-42.285 -2.703,0 -4.5,2.239 -7.207,15.305 -4.043,18.445 -8.992,21.582 -26.093,21.582 -18.907,0 -24.754,-5.391 -24.754,-20.684 0,-14.863 -1.348,-71.554 -1.348,-190.812 0,-17.098 9.004,-21.602 31.055,-21.602 26.093,0 33.75,2.246 33.75,22.051 0,15.754 -0.45,44.113 -0.45,98.547 0,40.957 20.243,63.457 46.797,63.457 31.958,0 42.298,-19.797 42.298,-59.855 0,-22.5 -1.35,-96.297 -1.35,-104.403 0,-17.988 7.66,-19.347 33.3,-19.347 23.85,0 31.95,4.511 31.95,20.714 m 147.6,-26.113 c 74.24,0 116.1,57.149 116.1,121.055 0,82.793 -42.75,122.39 -118.79,122.39 -76.96,-0.898 -116.56,-43.191 -116.56,-123.289 0,-73.359 45.9,-120.156 119.25,-120.156 m -1.35,51.758 c -39.15,0 -57.59,26.551 -57.59,64.793 0,36.457 14.84,71.105 55.8,71.105 47.69,0 60.74,-31.953 60.74,-71.105 0,-33.301 -19.35,-64.793 -58.95,-64.793 m 310.95,186.289 c -13.5,0 -21.61,-4.492 -24.75,-18.449 -4.5,-18.895 -14.41,-58.047 -25.2,-98.543 -12.15,-44.551 -13.05,-51.309 -18.9,-51.309 -8.55,0 -7.64,2.703 -30.61,85.957 -9.44,34.207 -13.94,48.594 -18.45,63.446 -3.13,13.046 -9.45,18.898 -22.94,18.898 h -21.6 c -10.8,0 -14.84,-5.852 -14.84,-13.047 0,-7.637 1.34,-13.496 7.64,-31.953 4.95,-15.293 14.41,-40.949 22.95,-66.582 21.15,-63.918 22.5,-67.063 27.9,-82.805 10.8,-31.511 18.44,-40.945 48.61,-40.945 24.29,0 35.54,8.992 46.34,40.039 5.4,16.211 8.99,25.203 28.35,81.453 20.26,58.945 23.84,72.891 28.35,86.387 1.79,4.953 2.69,9.453 2.69,13.508 0,8.992 -4.93,13.945 -14.84,13.945 h -20.7" /><path
             id="path32"
             style="fill:#274493;fill-opacity:1;fill-rule:nonzero;stroke:none"
             d="m 1624.4,744.613 c -25.21,0 -32.86,6.297 -32.86,23.399 0,11.699 1.35,164.238 1.35,188.972 0,16.661 4.5,22.5 31.51,22.5 23.39,0 30.14,-8.535 30.14,-25.183 0,-27.012 0.45,-165.586 0.45,-188.086 0,-16.652 -5.4,-21.602 -30.59,-21.602" /><path
             id="path34"
             style="fill:#274493;fill-opacity:1;fill-rule:nonzero;stroke:none"
             d="m 1758.04,769.809 c 0,-16.192 -6.3,-23.848 -31.95,-23.848 -23.84,0 -32.4,7.195 -32.4,23.848 0,119.238 1.8,174.589 1.8,189.89 0,14.844 5.85,19.797 24.75,19.797 18.9,0 23.39,-4.953 26.1,-22.043 2.25,-15.312 3.6,-17.547 6.75,-17.547 7.64,0 15.75,39.59 62.1,39.59 18.44,0 26.55,-6.738 26.55,-26.555 0,-16.648 -3.15,-31.484 -26.1,-31.484 -37.81,0 -57.6,-22.5 -57.6,-67.949 v -83.699" /><path
             id="path36"
             style="fill:#274493;fill-opacity:1;fill-rule:nonzero;stroke:none"
             d="m 1897.99,1004.7 c -24.31,0 -39.14,15.74 -39.14,37.34 0,21.6 12.59,39.6 38.69,39.6 28.8,0 40.5,-17.53 40.5,-42.3 0,-19.8 -17.55,-34.64 -40.05,-34.64" /><path
             id="path38"
             style="fill:#274493;fill-opacity:1;fill-rule:nonzero;stroke:none"
             d="m 1898.89,744.613 c -25.21,0 -32.84,6.297 -32.84,23.399 0,11.699 1.33,164.238 1.33,188.972 0,16.661 4.51,22.5 31.51,22.5 23.4,0 30.14,-8.535 30.14,-25.183 0,-27.012 0.45,-165.586 0.45,-188.086 0,-16.652 -5.4,-21.602 -30.59,-21.602" /><path
             id="path40"
             style="fill:#274493;fill-opacity:1;fill-rule:nonzero;stroke:none"
             d="m 1623.98,1004.7 c -24.3,0 -39.14,15.74 -39.14,37.34 0,21.6 12.59,39.6 38.69,39.6 28.8,0 40.5,-17.53 40.5,-42.3 0,-19.8 -17.55,-34.64 -40.05,-34.64" /><path
             id="path42"
             style="fill:#274493;fill-opacity:1;fill-rule:nonzero;stroke:none"
             d="m 537.277,1004.7 c -24.297,0 -39.132,15.74 -39.132,37.34 0,21.6 12.589,39.6 38.683,39.6 28.809,0 40.508,-17.53 40.508,-42.3 0,-19.8 -17.559,-34.64 -40.059,-34.64" /><path
             id="path44"
             style="fill:#274493;fill-opacity:1;fill-rule:nonzero;stroke:none"
             d="m 2068.99,787.355 c 31.49,0 40.04,11.25 40.04,22.5 0,15.762 -14.4,19.348 -66.15,27.903 -64.8,10.801 -78.29,39.14 -78.29,70.644 0,52.207 49.49,76.043 100.34,76.043 69.3,0 98.55,-30.144 98.55,-62.547 0,-15.304 -10.8,-23.398 -29.25,-23.398 -12.6,0 -19.79,8.094 -23.4,14.395 -10.35,17.558 -24.74,24.296 -46.35,24.296 -25.65,0 -40.04,-8.097 -40.04,-24.296 0,-17.09 7.64,-25.188 58.49,-34.192 74.69,-13.055 88.2,-34.199 88.2,-66.152 0,-38.699 -33.3,-71.543 -108.45,-71.543 -74.25,0 -100.78,38.691 -100.78,61.191 0,16.211 6.74,23.86 22.5,23.86 28.8,0 24.28,-38.704 84.59,-38.704" /><path
             id="path46"
             style="fill:#606264;fill-opacity:1;fill-rule:nonzero;stroke:none"
             d="m 675.031,171.457 c 4.246,0 5.496,-1.992 5.496,-4.004 0,-2.246 -0.507,-4.238 -1.504,-7.246 l -15.242,-52.734 -13,-50.2347 c -2.754,-10.5 -8.25,-15.5 -19.746,-15.5 -12.742,0 -17.488,6.25 -20.242,19.5 l -13.992,64.2347 c -2.5,12 -2.754,18.242 -5.254,18.242 -2.5,0 -3.246,-6.496 -5.246,-17.746 -5.254,-28.9924 -11.504,-59.7385 -13,-65.9807 -3.75,-15.75 -9.5,-18.25 -20.496,-18.25 -10.742,0 -15.996,5 -18.742,14.5 l -26.25,92.9727 c -2.5,8.75 -4.247,13.496 -4.247,16.992 0,2.754 1.504,5 5.497,5 h 8.75 c 6.503,0 7.246,-0.996 9.25,-8.496 l 18.992,-75.2343 c 4.746,-18.9844 4.25,-24.2344 7.004,-24.2344 2.996,0 2.5,6.25 6.25,24.4883 6.992,34.2384 11.492,54.4924 14.492,65.4884 3,10.742 8.25,15.742 18.242,15.742 9.758,0 15.5,-4.746 17.754,-15.742 3.496,-16.25 8.242,-38.242 14.746,-65.4884 5,-20.9961 4.746,-24.4883 6.75,-24.4883 2.996,0 1.492,2.9922 6.746,23.9922 l 18.496,73.7305 c 2.246,8.75 3.496,10.496 9.746,10.496 h 8.75" /><path
             id="path48"
             style="fill:#606264;fill-opacity:1;fill-rule:nonzero;stroke:none"
             d="m 719.563,124.973 c 0,-5.508 1.746,-6.25 7.246,-6.25 h 59.738 c 3.992,0 5.242,3.496 5.242,6.992 0,12.754 -10.242,28.75 -35.488,28.75 -25.246,0 -36.738,-18.496 -36.738,-29.492 z m -23.75,-17.996 c 0,5.75 0.496,11.492 1.503,17.488 4.5,27.754 24.239,49.492 60.235,49.492 36.992,0 55.73,-25.488 55.73,-53.484 0,-10.996 -3.992,-15.5 -12.996,-15.5 -6.496,0 -71.476,0.254 -76.73,0.254 -5.242,0 -5.496,-2.247 -5.496,-6.2504 0,-23.7461 14.746,-41.4883 38.992,-41.4883 32.238,0 30.988,22.7422 43.234,22.7422 5.508,0 8.504,-2.9922 8.504,-9 0,-9.9922 -15.496,-32.4922 -52.488,-32.4922 -41.242,0 -60.488,27.4922 -60.488,68.2387" /><path
             id="path50"
             style="fill:#606264;fill-opacity:1;fill-rule:nonzero;stroke:none"
             d="m 893.809,152.219 c -4.746,0 -7.5,1.992 -7.5,6.738 0,5 1.75,6.758 7.754,7.754 13.996,2.246 15.246,3 15.246,5.5 0,3.496 -2.5,5.496 -2.5,17 0,17.734 10.996,34.238 37.988,34.238 17.246,0 23.738,-5 23.738,-11.25 0,-5 -3.238,-11.25 -8.738,-11.25 -4.758,0 -7,3.008 -14.746,3.008 -12.754,0 -16.75,-6.504 -16.75,-20.254 0,-5.996 1.496,-12.742 4.25,-12.742 h 25.5 c 4.988,0 8.238,-2.258 8.238,-9.504 0,-7.246 -2.742,-9.238 -7.742,-9.238 h -24.746 c -2.5,0 -3,-1.504 -3,-3.262 0,-1.238 0.246,-6.238 0.246,-13.984 0,-65.9925 0.254,-17.754 0.254,-85.7347 0,-5 -0.996,-8 -10,-8 -8.75,0 -10.996,1.5117 -10.996,8.25 0,3 -0.246,18.75 -0.246,34.4883 0,11.75 0.246,24.0034 0.246,31.4964 v 32.488 c 0,3.254 -1.25,4.258 -3.996,4.258 h -12.5" /><path
             id="path52"
             style="fill:#606264;fill-opacity:1;fill-rule:nonzero;stroke:none"
             d="m 981.809,87.7266 c 0,39.9924 -0.254,32.2464 -0.254,76.7384 0,4.238 0.75,7.246 10.75,7.246 10.005,0 10.995,-3.008 10.995,-9.5 0,-4.25 0.26,-57.492 0.26,-69.9805 0,-24.75 9.74,-34.25 26.99,-34.25 18.24,0 36.48,14.0078 36.48,46.4965 0,54.988 0.26,50.488 0.26,59.48 0,5.254 0.99,7.246 10.99,7.246 10.25,0 11,-2.742 11,-7.246 0,-66.4843 -0.75,-103.7187 -0.75,-112.2187 0,-8.5 -1.75,-10 -8.5,-10 -6.99,0 -8,1.5 -9.25,10 -0.99,7.4922 -1.75,7.75 -3.49,7.75 -5,0 -8,-21 -41.74,-21 -21.99,0 -43.741,9.5 -43.741,49.2383" /><path
             id="path54"
             style="fill:#606264;fill-opacity:1;fill-rule:nonzero;stroke:none"
             d="m 1228.78,124.719 c 0,-39.4924 0.25,-32.9885 0.25,-77.2307 0,-4.25 -2.5,-5.75 -12.5,-5.75 -8.25,0 -9.24,1.5 -9.24,7.75 0,4.7422 -0.26,59.7417 -0.26,72.7307 0,21.992 -8.99,31.496 -25.24,31.496 -19.24,0 -38.74,-12.004 -38.74,-41.738 V 48.2383 c 0,-4.75 -0.5,-6.7383 -11.5,-6.7383 -8.25,0 -9.74,1.9883 -9.74,6.4883 0,65.9887 0.5,105.9687 0.5,114.4767 0,7.246 2.5,8.496 8.99,8.496 7.26,0 9,-1.008 9.76,-7.746 1.25,-10.254 1.25,-11.758 3.24,-11.758 4,0 9.5,22.5 40.74,22.5 21.99,0 43.74,-9.492 43.74,-49.238" /><path
             id="path56"
             style="fill:#606264;fill-opacity:1;fill-rule:nonzero;stroke:none"
             d="m 1276.05,105.48 c 0,-26.9917 12.75,-47.7417 39.49,-47.7417 24.74,0 39.99,18 39.99,49.7347 0,29.746 -15.74,47.734 -36.99,47.734 -31.24,0 -42.49,-23.984 -42.49,-49.727 z m 89.48,117.969 c 8.24,0 10.5,-3.75 10.5,-10.254 0,-8.242 0.75,-145.9567 0.75,-164.9567 0,-5.4883 0,-7.25 -9.25,-7.25 -7.75,0 -8.75,0.75 -9.5,8 -1,9.5 -1,12.5 -3,12.5 -4,0 -9.25,-22.75 -47.49,-22.75 -31.24,0 -52.99,26.5 -52.99,68.9887 0,42.48 26.5,66.23 56.49,66.23 37.99,0 40.24,-20.242 43.24,-20.242 1.25,0 1.5,0.75 1.5,4.754 0,5.996 -1,26.738 -1,54.472 0,6.758 2.5,10.508 10.75,10.508" /><path
             id="path58"
             style="fill:#606264;fill-opacity:1;fill-rule:nonzero;stroke:none"
             d="m 1471.79,170.961 c 5,0 7,-0.754 8.5,-5.246 l 29.74,-95.9767 c 1.01,-3.0078 2.26,-4.7578 5.5,-4.7578 3.5,0 4.5,2.2578 5.25,4.5078 l 26.5,93.9727 c 1.49,5.242 3.75,7.5 9.25,7.5 h 9.74 c 4,0 5.25,-2.004 5.25,-4.758 0,-3.992 -1.5,-7.734 -2.5,-11.238 L 1530.03,34.2383 C 1523.53,14 1512.03,0 1490.04,0 c -10,0 -13.25,4 -13.25,10.75 0,5.75 3.75,9.5 11.25,9.5 15.5,0 22.24,11.75 22.24,17.7383 0,2.5 -8.25,0.25 -13.25,13.25 -3.24,8.25 -9.99,27.9922 -16.24,44.4883 -13.75,36.2384 -16.25,46.9924 -20.99,59.4804 -1.75,4.504 -2.5,7.004 -2.5,10 0,3.496 1.74,5.754 6.49,5.754 h 8" /><path
             id="path60"
             style="fill:#606264;fill-opacity:1;fill-rule:nonzero;stroke:none"
             d="m 1688.52,104.477 c 0,32.488 -14.75,49.48 -39.75,49.48 -22.74,0 -40.49,-13.496 -40.49,-49.48 0,-25.9887 13.75,-46.7387 39.24,-46.7387 26.25,0 41,20.5 41,46.7387 z m 23.24,2.742 c 0,-35.7385 -19.99,-68.4807 -63.49,-68.4807 -41.24,0 -62.48,29 -62.48,66.9887 0,38.242 19.99,68.23 61.99,68.23 48.24,0 63.98,-34.238 63.98,-66.738" /><path
             id="path62"
             style="fill:#606264;fill-opacity:1;fill-rule:nonzero;stroke:none"
             d="m 1737.03,87.7266 c 0,39.9924 -0.24,32.2464 -0.24,76.7384 0,4.238 0.74,7.246 10.74,7.246 10,0 11,-3.008 11,-9.5 0,-4.25 0.25,-57.492 0.25,-69.9805 0,-24.75 9.75,-34.25 26.99,-34.25 18.25,0 36.5,14.0078 36.5,46.4965 0,54.988 0.24,50.488 0.24,59.48 0,5.254 1.01,7.246 11,7.246 10.25,0 10.99,-2.742 10.99,-7.246 0,-66.4843 -0.74,-103.7187 -0.74,-112.2187 0,-8.5 -1.75,-10 -8.49,-10 -7.01,0 -8,1.5 -9.25,10 -1.01,7.4922 -1.76,7.75 -3.51,7.75 -5,0 -8,-21 -41.74,-21 -21.99,0 -43.74,9.5 -43.74,49.2383" /><path
             id="path64"
             style="fill:#606264;fill-opacity:1;fill-rule:nonzero;stroke:none"
             d="m 1937.51,149.211 c -24.49,0 -39.99,-14.746 -39.99,-39.238 V 48.7383 c 0,-6.5 -3.49,-7 -11.49,-7 -10.5,0 -10.5,1.75 -10.5,10.25 0,8.25 0.5,94.4807 0.5,110.9727 0,5.5 1.5,8 8.75,8 4.25,0 8.99,-0.5 9.25,-5 l 0.99,-15.754 c 0.26,-5.488 0.51,-6.738 1.51,-6.738 2.74,0 10.99,27.492 37.98,27.492 9.51,0 13.75,-4.504 13.75,-11.25 0,-7.246 -3.5,-10.5 -10.75,-10.5" /><path
             id="path66"
             style="fill:#606264;fill-opacity:1;fill-rule:nonzero;stroke:none"
             d="m 2021.53,152.219 c -4.76,0 -7.5,1.992 -7.5,6.738 0,5 1.74,6.758 7.74,7.754 14,2.246 15.25,3 15.25,5.5 0,3.496 -2.5,5.496 -2.5,17 0,17.734 11,34.238 37.99,34.238 17.25,0 23.74,-5 23.74,-11.25 0,-5 -3.25,-11.25 -8.75,-11.25 -4.74,0 -6.99,3.008 -14.74,3.008 -12.75,0 -16.74,-6.504 -16.74,-20.254 0,-5.996 1.49,-12.742 4.25,-12.742 h 25.48 c 5,0 8.26,-2.258 8.26,-9.504 0,-7.246 -2.76,-9.238 -7.76,-9.238 h -24.73 c -2.5,0 -3,-1.504 -3,-3.262 0,-1.238 0.24,-6.238 0.24,-13.984 0,-65.9925 0.26,-17.754 0.26,-85.7347 0,-5 -1.01,-8 -10,-8 -8.75,0 -11,1.5117 -11,8.25 0,3 -0.25,18.75 -0.25,34.4883 0,11.75 0.25,24.0034 0.25,31.4964 v 32.488 c 0,3.254 -1.25,4.258 -4,4.258 h -12.49" /><path
             id="path68"
             style="fill:#606264;fill-opacity:1;fill-rule:nonzero;stroke:none"
             d="m 2109.52,87.7266 c 0,39.9924 -0.24,32.2464 -0.24,76.7384 0,4.238 0.74,7.246 10.74,7.246 10,0 11,-3.008 11,-9.5 0,-4.25 0.25,-57.492 0.25,-69.9805 0,-24.75 9.75,-34.25 26.99,-34.25 18.25,0 36.5,14.0078 36.5,46.4965 0,54.988 0.24,50.488 0.24,59.48 0,5.254 1.01,7.246 11,7.246 10.25,0 11,-2.742 11,-7.246 0,-66.4843 -0.75,-103.7187 -0.75,-112.2187 0,-8.5 -1.75,-10 -8.49,-10 -7.01,0 -8,1.5 -9.25,10 -1.01,7.4922 -1.76,7.75 -3.51,7.75 -5,0 -8,-21 -41.74,-21 -21.99,0 -43.74,9.5 -43.74,49.2383" /><path
             id="path70"
             style="fill:#606264;fill-opacity:1;fill-rule:nonzero;stroke:none"
             d="m 2262.77,204.203 c 0,5.496 2,9.5 10.49,9.5 8,0 9.75,-4.004 9.75,-8.75 v -28.75 c 0,-5 0.75,-5 3.75,-5 2,0 21.25,-0.242 28.24,-0.242 3.5,0 7.5,-1.75 7.5,-8.996 0,-7.754 -3.75,-9.746 -7.5,-9.746 h -27.24 c -3.5,0 -4.25,-1.004 -4.25,-4.004 V 75.7383 c 0,-10 4.5,-15 15,-15 5.5,0 8.75,3.4922 14.49,3.4922 5.5,0 8,-4.7422 8,-9.7422 0,-6.75 -7.49,-13.75 -24.24,-13.75 -26.49,0 -34.99,14.7422 -34.99,38.4922 0,13.75 0.74,47.2465 0.74,68.4885 0,3.25 -1.25,4.5 -3.99,4.5 h -12.75 c -4.75,0 -7.5,1.992 -7.5,6.738 0,5 1.75,6.758 7.75,8.008 13.75,2.746 16.75,2.746 16.75,6.496 v 30.742" /><path
             id="path72"
             style="fill:#606264;fill-opacity:1;fill-rule:nonzero;stroke:none"
             d="m 2346.26,87.7266 c 0,39.9924 -0.24,32.2464 -0.24,76.7384 0,4.238 0.74,7.246 10.74,7.246 10,0 11,-3.008 11,-9.5 0,-4.25 0.25,-57.492 0.25,-69.9805 0,-24.75 9.75,-34.25 26.99,-34.25 18.24,0 36.5,14.0078 36.5,46.4965 0,54.988 0.24,50.488 0.24,59.48 0,5.254 1.01,7.246 11,7.246 10.25,0 11,-2.742 11,-7.246 0,-66.4843 -0.75,-103.7187 -0.75,-112.2187 0,-8.5 -1.75,-10 -8.5,-10 -7,0 -7.99,1.5 -9.24,10 -1.01,7.4922 -1.76,7.75 -3.51,7.75 -5,0 -8,-21 -41.74,-21 -21.99,0 -43.74,9.5 -43.74,49.2383" /><path
             id="path74"
             style="fill:#606264;fill-opacity:1;fill-rule:nonzero;stroke:none"
             d="m 2546.74,149.211 c -24.49,0 -39.99,-14.746 -39.99,-39.238 V 48.7383 c 0,-6.5 -3.5,-7 -11.49,-7 -10.5,0 -10.5,1.75 -10.5,10.25 0,8.25 0.5,94.4807 0.5,110.9727 0,5.5 1.5,8 8.75,8 4.24,0 8.99,-0.5 9.24,-5 l 1,-15.754 c 0.25,-5.488 0.51,-6.738 1.5,-6.738 2.75,0 11,27.492 37.99,27.492 9.5,0 13.75,-4.504 13.75,-11.25 0,-7.246 -3.49,-10.5 -10.75,-10.5" /><path
             id="path76"
             style="fill:#606264;fill-opacity:1;fill-rule:nonzero;stroke:none"
             d="m 2588.5,124.973 c 0,-5.508 1.75,-6.25 7.24,-6.25 h 59.74 c 4,0 5.25,3.496 5.25,6.992 0,12.754 -10.25,28.75 -35.49,28.75 -25.25,0 -36.74,-18.496 -36.74,-29.492 z m -23.74,-17.996 c 0,5.75 0.5,11.492 1.49,17.488 4.5,27.754 24.25,49.492 60.24,49.492 36.99,0 55.74,-25.488 55.74,-53.484 0,-10.996 -4.01,-15.5 -13,-15.5 -6.5,0 -71.48,0.254 -76.74,0.254 -5.24,0 -5.5,-2.247 -5.5,-6.2504 0,-23.7461 14.75,-41.4883 39,-41.4883 32.24,0 30.99,22.7422 43.24,22.7422 5.5,0 8.5,-2.9922 8.5,-9 0,-9.9922 -15.5,-32.4922 -52.49,-32.4922 -41.24,0 -60.48,27.4922 -60.48,68.2387" /><path
             id="path78"
             style="fill:none;stroke:#274493;stroke-width:20;stroke-linecap:butt;stroke-linejoin:miter;stroke-miterlimit:10;stroke-dasharray:none;stroke-opacity:1"
             d="M 198.156,920.16 82.6484,1035.68 c -8.3203,8.3 -19.1992,12.46 -30.0976,12.46 -10.8906,0 -21.7774,-4.16 -30.0899,-12.46 -16.62106,-16.63 -16.62106,-43.567 0,-60.188 L 107.883,890.07 22.4609,804.652 c -16.62106,-16.621 -16.62106,-43.566 0,-60.175 16.6211,-16.622 43.5664,-16.622 60.1875,0 L 198.156,859.984 c 16.61,16.621 16.61,43.563 0,60.176 z" /><path
             id="path80"
             style="fill:none;stroke:#274493;stroke-width:20;stroke-linecap:butt;stroke-linejoin:miter;stroke-miterlimit:10;stroke-dasharray:none;stroke-opacity:1"
             d="m 373.359,920.16 -115.507,115.52 c -8.309,8.3 -19.2,12.46 -30.094,12.46 -10.891,0 -21.781,-4.16 -30.09,-12.46 -16.613,-16.63 -16.613,-43.567 0,-60.188 L 283.09,890.07 197.668,804.652 c -16.613,-16.621 -16.613,-43.566 0,-60.175 16.621,-16.622 43.562,-16.622 60.184,0 l 115.507,115.507 c 16.614,16.621 16.614,43.563 0,60.176 z" /></g></g></g></g></svg>