<svg width="499.99999999999994" height="499.99999999999994" xmlns="http://www.w3.org/2000/svg">
 <style type="text/css">.st0{fill:#FFFFFF;}</style>

 <g>
  <title>background</title>
  <rect fill="none" id="canvas_background" height="502" width="502" y="-1" x="-1"/>
 </g>
 <g>
  <title>Layer 1</title>
  <ellipse ry="250" rx="250" id="svg_43" cy="250" cx="250" stroke-opacity="null" stroke-width="null" stroke="null" fill="#ffc000"/>
  <ellipse ry="1" rx="1.5" id="svg_41" cy="136.5" cx="577" stroke-opacity="null" stroke-width="null" stroke="null" fill="#bfbf00"/>
  <g stroke="null" id="svg_42">
   <path stroke="null" fill="#ffffff" id="svg_49" d="m336.622968,343.506018c2.060036,-2.84143 3.622822,-5.967002 4.475251,-9.234646c3.906965,-14.704396 -4.120073,-35.162687 -20.600362,-40.561402c-12.999539,-4.262144 -24.010078,4.191108 -30.332258,23.583862c-1.775893,10.087074 -0.781393,18.824469 2.486251,25.430792c-9.092574,9.234646 -13.496789,15.627861 -12.999539,18.966541c0.852429,6.32218 14.988539,13.283682 20.529326,14.13611c0.213107,0.071036 0.49725,0.071036 0.781393,0.071036c0.923465,0 2.131072,-0.284143 3.33868,-1.207607c3.906965,-2.983501 6.180108,-12.64436 7.245644,-19.108612c0.710358,0.071036 1.491751,0.284143 2.202108,0.284143c2.131072,0 4.262144,-0.355179 6.393216,-0.923465c0.923464,5.967002 2.912465,15.130611 6.677359,17.901005c1.136571,0.852429 2.273143,1.136571 3.125572,1.136571c0.284143,0 0.568286,0 0.781393,-0.071035c5.043537,-0.781393 17.47479,-6.890466 18.256183,-12.715396c0.142071,-1.207608 0.49725,-4.83043 -12.360217,-17.687897zm-36.086152,25.857006c-5.114573,-1.065536 -13.923004,-6.464252 -14.704397,-8.240145c0.355179,-1.846929 5.114573,-7.600823 10.300182,-12.999539c1.917964,2.060036 4.120072,3.83593 6.748394,5.043537c0.710357,0.355179 1.562786,0.568286 2.344179,0.852429c-1.207607,7.387716 -3.196608,13.851968 -4.688358,15.343718zm5.256644,-21.879005c-12.502289,-5.895966 -10.371217,-23.796971 -9.518788,-28.698436c3.125572,-9.447752 8.595324,-19.818969 17.829969,-19.818969c1.349679,0 2.841429,0.213107 4.404215,0.710357c13.070575,4.262144 19.534826,21.239684 16.48029,32.889544c-1.704858,6.464251 -6.81943,12.289181 -13.283682,15.130611c-5.469751,2.415215 -11.081574,2.344179 -15.912004,-0.213107zm24.507328,19.96104c-1.349679,-1.704857 -3.125573,-7.956002 -4.120073,-14.633361l6.393216,-4.333179c4.83043,4.901465 9.589824,10.513288 10.016038,11.720895c-0.710357,1.775894 -8.027038,6.251145 -12.289181,7.245645z"/>
   <g stroke="null" id="svg_1">
    <g stroke="null" id="svg_2">
     <g stroke="null" id="svg_3">
      <path stroke="null" fill="#00bfbf" id="svg_4" d="m176.743026,168.260867c-10.65536,0 -24.152149,-2.841429 -24.152149,-15.627861s12.786432,-24.152149 24.862506,-24.862506s24.862506,9.945002 22.731434,22.731434c-1.420715,11.365717 -13.496789,16.338218 -23.441791,17.758933c-13.496789,2.131072 -13.496789,23.441791 0,21.31072c22.021077,-2.841429 44.042154,-14.207146 45.462868,-39.069652c1.420715,-24.152149 -20.600362,-44.752511 -44.042154,-44.042154c-23.441791,0.710357 -45.462868,21.31072 -46.883583,44.752511c-1.420715,25.572863 22.021077,38.359295 45.462868,38.359295c13.496789,0 13.496789,-21.31072 0,-21.31072l0,0z"/>
     </g>
    </g>
   </g>
   <g stroke="null" id="svg_5">
    <g stroke="null" id="svg_6">
     <g stroke="null" id="svg_7">
      <path stroke="null" fill="#00bfbf" id="svg_8" d="m92.160959,374.974847c-22.731434,-27.703935 10.65536,-80.980734 30.545365,-100.160382c29.835007,-29.12465 69.615017,-44.042154 109.395027,-53.987156c31.966079,-7.81393 71.746089,-20.600362 104.422526,-9.945002c22.731434,7.103573 42.621439,26.993578 41.911082,52.566442c-0.710357,12.076074 -10.65536,32.676437 -23.441791,36.228223c-36.228223,9.945002 -9.945002,-30.545365 -0.710357,-40.490367c9.234645,-9.945002 -5.682859,-24.862506 -14.917504,-14.917504c-17.048576,17.758933 -36.938581,42.621439 -19.890005,68.194303c12.786432,19.179648 34.807509,13.496789 51.145727,2.841429c51.145727,-34.097151 29.12465,-105.84324 -23.441791,-124.312531c-31.966079,-11.365717 -65.352873,-2.841429 -98.02931,4.262144c-39.069652,8.524288 -78.849662,19.890005 -112.236456,41.911082c-41.911082,27.703935 -100.870739,102.291454 -59.670015,152.726823c8.524288,10.65536 23.441791,-4.262144 14.917504,-14.917504l0,0z"/>
     </g>
    </g>
   </g>
   <g stroke="null" id="svg_9">
    <g stroke="null" id="svg_10">
     <g stroke="null" id="svg_11">
      <path stroke="null" fill="#5fbf00" id="svg_12" d="m333.731993,246.400172c-33.386794,-19.179648 -71.746089,-20.600362 -94.477523,14.917504c-20.600362,31.966079 -22.731434,75.297876 -17.048576,111.526099c2.131072,13.496789 22.731434,7.81393 20.600362,-5.682859c-4.262144,-26.993578 -2.131072,-57.538943 8.524288,-83.111806c14.207146,-33.386794 41.911082,-35.517866 71.746089,-19.179648c12.076074,7.103573 22.731434,-11.365717 10.65536,-18.46929l0,0z"/>
     </g>
    </g>
   </g>
   <g stroke="null" id="svg_13">
    <g stroke="null" id="svg_14">
     <g stroke="null" id="svg_15">
      <path stroke="null" fill="#5fbf00" id="svg_16" d="m382.036291,296.125184c14.917504,18.46929 33.386794,43.331796 33.386794,68.194303c0,13.496789 21.31072,13.496789 21.31072,0c0,-31.255722 -21.31072,-60.380372 -39.78001,-83.111806c-8.524288,-10.65536 -23.441791,4.262144 -14.917504,14.917504l0,0z"/>
     </g>
    </g>
   </g>
   <g transform="rotate(25 283.7449035644532,168.08154296875006) " stroke="null" id="svg_48">
    <g stroke="null" id="svg_47">
     <g stroke="null" id="svg_46">
      <path stroke="null" fill="#5fbf00" id="svg_45" d="m283.743026,188.260867c-10.65536,0 -24.152149,-2.841429 -24.152149,-15.627861s12.786432,-24.152149 24.862506,-24.862506s24.862506,9.945002 22.731434,22.731434c-1.420715,11.365717 -13.496789,16.338219 -23.441791,17.758933c-13.496789,2.131072 -13.496789,23.441792 0,21.31072c22.021076,-2.84143 44.042153,-14.207147 45.462868,-39.069653c1.420715,-24.152149 -20.600362,-44.752511 -44.042154,-44.042154c-23.441791,0.710358 -45.462868,21.31072 -46.883583,44.752512c-1.420714,25.572863 22.021077,38.359295 45.462869,38.359295c13.496789,0 13.496789,-21.31072 0,-21.31072l0,0z"/>
     </g>
    </g>
   </g>
  </g>
 </g>
</svg>