<svg id="Your_design" data-name="Your design" xmlns="http://www.w3.org/2000/svg" xmlns:xlink="http://www.w3.org/1999/xlink" viewBox="0 0 400 400"><defs><style>.cls-1{fill:url(#linear-gradient);}.cls-11,.cls-2{fill:#fff;}.cls-14,.cls-19,.cls-2,.cls-21,.cls-22,.cls-23,.cls-29,.cls-3,.cls-32,.cls-4,.cls-5,.cls-6{stroke:#383d6f;}.cls-10,.cls-14,.cls-19,.cls-2,.cls-20,.cls-21,.cls-22,.cls-23,.cls-29,.cls-3,.cls-32,.cls-36,.cls-4,.cls-5,.cls-6{stroke-miterlimit:10;}.cls-10,.cls-14,.cls-19,.cls-2,.cls-20,.cls-3{stroke-width:4px;}.cls-15,.cls-3,.cls-6{fill:#eff3fe;}.cls-26,.cls-4{fill:#bbcbe8;}.cls-29,.cls-32,.cls-4,.cls-5,.cls-6{stroke-width:2px;}.cls-30,.cls-5{fill:#4c5778;}.cls-7{clip-path:url(#clip-path);}.cls-8,.cls-9{opacity:0.05;}.cls-8{fill:url(#linear-gradient-3);}.cls-9{fill:url(#linear-gradient-4);}.cls-10,.cls-14,.cls-20,.cls-29,.cls-32,.cls-36{fill:none;}.cls-10{stroke:#eef3ff;}.cls-10,.cls-20,.cls-32,.cls-36{stroke-linecap:round;}.cls-12{clip-path:url(#clip-path-2);}.cls-13{fill:#d8eafd;}.cls-16{clip-path:url(#clip-path-3);}.cls-17{clip-path:url(#clip-path-4);}.cls-18{clip-path:url(#clip-path-5);}.cls-19,.cls-21{fill:#9cd6dd;}.cls-20{stroke:#fff;opacity:0.8;}.cls-21,.cls-22,.cls-23{stroke-width:3px;}.cls-22,.cls-33{fill:#ec6b58;}.cls-23,.cls-25{fill:#ffe0ac;}.cls-24{fill:#c1e2f9;}.cls-27{clip-path:url(#clip-path-6);}.cls-28{fill:#376ebd;}.cls-31{clip-path:url(#clip-path-7);}.cls-34{clip-path:url(#clip-path-8);}.cls-35{fill:#f29f9d;}.cls-36{stroke:#eff3fe;stroke-width:0.75px;}</style><linearGradient id="linear-gradient" x1="199.45" y1="-6.38" x2="200.51" y2="393.62" gradientUnits="userSpaceOnUse"><stop offset="0.5" stop-color="#376ebd"/><stop offset="0.64" stop-color="#3866b6"/><stop offset="0.86" stop-color="#3a4fa2"/><stop offset="1" stop-color="#3b3d92"/></linearGradient><clipPath id="clip-path"><circle class="cls-1" cx="200" cy="200" r="200"/></clipPath><linearGradient id="linear-gradient-3" x1="10.88" y1="68.4" x2="292.15" y2="68.4" gradientUnits="userSpaceOnUse"><stop offset="0.5" stop-color="#fff"/><stop offset="0.55" stop-color="#f7f7fa"/><stop offset="0.63" stop-color="#e0e0ee"/><stop offset="0.73" stop-color="#bbbbd9"/><stop offset="0.85" stop-color="#8788bc"/><stop offset="0.98" stop-color="#464798"/><stop offset="1" stop-color="#3b3d92"/></linearGradient><linearGradient id="linear-gradient-4" x1="-24.23" y1="211.15" x2="420.31" y2="211.15" xlink:href="#linear-gradient-3"/><clipPath id="clip-path-2"><path class="cls-2" d="M213.67,323.16H194.5a6.28,6.28,0,0,1-6.12-7.7l2.13-9.22,27.2-.25,2.1,9.53A6.29,6.29,0,0,1,213.67,323.16Z"/></clipPath><clipPath id="clip-path-3"><path class="cls-3" d="M158,248.56s-26.65,14.89-28.23,59.95a4.82,4.82,0,0,0,5.78,4.88l41-8.29Z"/></clipPath><clipPath id="clip-path-4"><path class="cls-3" d="M251.77,247.19s26.66,14.89,28.24,59.95a4.82,4.82,0,0,1-5.78,4.88l-41-8.29Z"/></clipPath><clipPath id="clip-path-5"><path class="cls-3" d="M168.87,298.3C158,273.81,140,211.88,196.7,146.81a9.1,9.1,0,0,1,13.89.07c55.89,65.28,40.47,126.32,30.41,151a18.23,18.23,0,0,1-16.8,11.49H185.47A18.25,18.25,0,0,1,168.87,298.3Z"/></clipPath><clipPath id="clip-path-6"><path class="cls-4" d="M319,134.07s-22.59,19.81-32.26,51l.86.74s30.26-29.14,33.78-49.48c0-.29.09-.58.13-.86Z"/></clipPath><clipPath id="clip-path-7"><path class="cls-5" d="M329.67,114.79a.88.88,0,0,0-1.13,0,46.91,46.91,0,0,1-8.68,6.24,8,8,0,0,0-4.11,5.27c-.89,5.22,1.91,7.75,3.49,8.81,5.26,3.64,14.13-1.28,13.67-10.44C332.58,118.07,330.69,115.64,329.67,114.79Z"/></clipPath><clipPath id="clip-path-8"><path class="cls-6" d="M85,157l-7,10.8a.61.61,0,0,0,.56.94l12.52-.94"/></clipPath></defs><title>Artboard 1</title><circle class="cls-1" cx="200" cy="200" r="200"/><g class="cls-7"><path class="cls-8" d="M256.15-.56C221,48.16,199.39,40.11,127.38,35S25.72,64.25,25.72,64.25L10.88,133s56.79,10.24,76.26-.5c40.12-22.14,38.12-66.5,121.57-78.79S292.15-.56,292.15-.56ZM39.7,103.22C35,62.56,88.41,68.91,88.41,68.91s12.71,1.27,16.52,21.6S44.36,143.88,39.7,103.22Z"/><path class="cls-9" d="M224.82,181.6c-97.29-15.17-106.22,52.22-150.41,89.71S-13.07,291.4-13.07,291.4l-11.16,4.46s11.61,21,69.63,16.52S183.32,231.15,232,249.44c118.72,42.85,183-32.58,183-32.58l5.35-107.56S322.12,196.78,224.82,181.6Zm138.09,39.63c-32.1,4.54-66.7-17.1-28.77-32.41h0a159.57,159.57,0,0,0,32.57-21.76c7.6-6.53,18.26-12.81,27.71-7.92C411.38,167.92,395,216.69,362.91,221.23Z"/><path class="cls-10" d="M132.61,358.79s54.51-32,87.79,21.5"/><path class="cls-10" d="M51.92,347.17s54.52-32,87.79,21.5"/><path class="cls-10" d="M203.4,358.47s44.54-53,98.34-9.21"/><path class="cls-10" d="M283.9,366.59s39.5-49.36,89.69-11.28"/><path class="cls-10" d="M194.86,388.5s34.8-23,58.6,11.09"/></g><path class="cls-11" d="M213.67,323.16H194.5a6.28,6.28,0,0,1-6.12-7.7l2.13-9.22,27.2-.25,2.1,9.53A6.29,6.29,0,0,1,213.67,323.16Z"/><g class="cls-12"><polygon class="cls-13" points="190 309.2 188.7 314.27 218.77 314.27 217.72 309.07 190 309.2"/></g><path class="cls-14" d="M213.67,323.16H194.5a6.28,6.28,0,0,1-6.12-7.7l2.13-9.22,27.2-.25,2.1,9.53A6.29,6.29,0,0,1,213.67,323.16Z"/><path class="cls-15" d="M158,248.56s-26.65,14.89-28.23,59.95a4.82,4.82,0,0,0,5.78,4.88l41-8.29Z"/><g class="cls-16"><path class="cls-13" d="M147.55,258.28s6.37,31.83,20.73,47h6.21l-16.51-57Z"/></g><path class="cls-14" d="M158,248.56s-26.65,14.89-28.23,59.95a4.82,4.82,0,0,0,5.78,4.88l41-8.29Z"/><path class="cls-15" d="M251.77,247.19s26.66,14.89,28.24,59.95a4.82,4.82,0,0,1-5.78,4.88l-41-8.29Z"/><g class="cls-17"><path class="cls-13" d="M262.25,256.91s-6.37,31.83-20.74,47h-6.2l16.51-57.05Z"/></g><path class="cls-14" d="M251.77,247.19s26.66,14.89,28.24,59.95a4.82,4.82,0,0,1-5.78,4.88l-41-8.29Z"/><path class="cls-15" d="M168.87,298.3C158,273.81,140,211.88,196.7,146.81a9.1,9.1,0,0,1,13.89.07c55.89,65.28,40.47,126.32,30.41,151a18.23,18.23,0,0,1-16.8,11.49H185.47A18.25,18.25,0,0,1,168.87,298.3Z"/><g class="cls-18"><path class="cls-13" d="M208.92,137.11S158.71,216,190.16,315.32l-33.65,1.1S117.33,171.32,208.92,137.11Z"/></g><path class="cls-14" d="M168.87,298.3C158,273.81,140,211.88,196.7,146.81a9.1,9.1,0,0,1,13.89.07c55.89,65.28,40.47,126.32,30.41,151a18.23,18.23,0,0,1-16.8,11.49H185.47A18.25,18.25,0,0,1,168.87,298.3Z"/><line class="cls-3" x1="158.62" y1="271.01" x2="250.1" y2="271.01"/><circle class="cls-19" cx="203.24" cy="215.19" r="23.53"/><path class="cls-20" d="M188.42,213.38a12.82,12.82,0,0,1,12.81-12.81"/><line class="cls-10" x1="196.81" y1="329.64" x2="196.81" y2="356.31"/><line class="cls-10" x1="211.08" y1="329.64" x2="211.08" y2="350.04"/><circle class="cls-21" cx="291.51" cy="107.3" r="10.47"/><circle class="cls-22" cx="295.55" cy="236.99" r="9.03"/><circle class="cls-23" cx="66.4" cy="211.74" r="11.85"/><path class="cls-24" d="M96.92,190h0a13.31,13.31,0,0,0-5.51,5.11h0a.25.25,0,0,1-.44,0h0a13.41,13.41,0,0,0-5.1-5.51h0a.25.25,0,0,1,0-.43h0a13.31,13.31,0,0,0,5.51-5.11h0a.25.25,0,0,1,.44,0h0a13.35,13.35,0,0,0,5.1,5.51h0A.25.25,0,0,1,96.92,190Z"/><path class="cls-24" d="M282.62,137.43h0a13.35,13.35,0,0,0-5.51,5.1h0a.24.24,0,0,1-.43,0h0a13.38,13.38,0,0,0-5.11-5.51h0a.25.25,0,0,1,0-.44h0a13.39,13.39,0,0,0,5.5-5.1h0a.25.25,0,0,1,.44,0h0a13.31,13.31,0,0,0,5.11,5.51h0A.26.26,0,0,1,282.62,137.43Z"/><path class="cls-24" d="M74.2,176.44h0a13.31,13.31,0,0,0-5.51,5.11h0a.25.25,0,0,1-.44,0h0a13.35,13.35,0,0,0-5.1-5.51h0a.25.25,0,0,1,0-.43h0a13.38,13.38,0,0,0,5.51-5.11h0a.25.25,0,0,1,.44,0h0a13.39,13.39,0,0,0,5.1,5.5h0A.25.25,0,0,1,74.2,176.44Z"/><path class="cls-25" d="M155.28,67.54h0a13.38,13.38,0,0,0-5.51,5.11h0a.24.24,0,0,1-.43,0h0a13.38,13.38,0,0,0-5.11-5.51h0a.25.25,0,0,1,0-.44h0a13.35,13.35,0,0,0,5.51-5.1h0a.25.25,0,0,1,.44,0h0a13.35,13.35,0,0,0,5.1,5.51h0A.24.24,0,0,1,155.28,67.54Z"/><path class="cls-25" d="M340.48,177.43h0a13.35,13.35,0,0,0-5.51,5.1h0a.25.25,0,0,1-.43,0h0a13.38,13.38,0,0,0-5.11-5.51h0a.24.24,0,0,1,0-.43h0a13.48,13.48,0,0,0,5.5-5.11h0a.25.25,0,0,1,.44,0h0A13.31,13.31,0,0,0,340.5,177h0A.25.25,0,0,1,340.48,177.43Z"/><path class="cls-25" d="M144.81,42.42h0a13.38,13.38,0,0,0-5.51,5.11h0a.25.25,0,0,1-.44,0h0a13.39,13.39,0,0,0-5.1-5.5h0a.25.25,0,0,1,0-.44h0a13.31,13.31,0,0,0,5.51-5.11h0a.26.26,0,0,1,.44,0h0a13.35,13.35,0,0,0,5.1,5.51h0A.24.24,0,0,1,144.81,42.42Z"/><path class="cls-25" d="M367.67,152.82h0a13.38,13.38,0,0,0-5.51,5.11h0a.24.24,0,0,1-.43,0h0a13.41,13.41,0,0,0-5.11-5.5h0a.25.25,0,0,1,0-.44h0a13.31,13.31,0,0,0,5.51-5.11h0a.26.26,0,0,1,.44,0h0a13.35,13.35,0,0,0,5.1,5.51h0A.24.24,0,0,1,367.67,152.82Z"/><circle class="cls-25" cx="84.94" cy="232.54" r="2.28"/><circle class="cls-25" cx="265.18" cy="110.02" r="2.28"/><circle class="cls-25" cx="329.81" cy="227.14" r="2.28"/><circle class="cls-24" cx="124.55" cy="64.53" r="2.28"/><path class="cls-24" d="M313.76,262.08h0a13.43,13.43,0,0,0,5.36,5.26h0a.25.25,0,0,1,0,.43h0a13.43,13.43,0,0,0-5.26,5.36h0a.24.24,0,0,1-.43,0h0a13.45,13.45,0,0,0-5.36-5.27h0a.24.24,0,0,1,0-.43h0a13.36,13.36,0,0,0,5.26-5.36h0A.25.25,0,0,1,313.76,262.08Z"/><path class="cls-24" d="M283.58,251.57h0a13.28,13.28,0,0,0,5.66,4.94h0a.24.24,0,0,1,0,.43h0a13.35,13.35,0,0,0-4.93,5.67h0a.25.25,0,0,1-.43,0h0a13.37,13.37,0,0,0-5.67-4.94h0a.25.25,0,0,1,0-.43h0a13.35,13.35,0,0,0,4.93-5.67h0A.26.26,0,0,1,283.58,251.57Z"/><path class="cls-26" d="M319,134.07s-22.59,19.81-32.26,51l.86.74s30.26-29.14,33.78-49.48c0-.29.09-.58.13-.86Z"/><g class="cls-27"><polygon class="cls-28" points="306.56 142.9 322.68 151.79 328.46 132 316.01 129.44 306.56 142.9"/></g><path class="cls-29" d="M319,134.07s-22.59,19.81-32.26,51l.86.74s30.26-29.14,33.78-49.48c0-.29.09-.58.13-.86Z"/><path class="cls-30" d="M329.67,114.79a.88.88,0,0,0-1.13,0,46.91,46.91,0,0,1-8.68,6.24,8,8,0,0,0-4.11,5.27c-.89,5.22,1.91,7.75,3.49,8.81,5.26,3.64,14.13-1.28,13.67-10.44C332.58,118.07,330.69,115.64,329.67,114.79Z"/><g class="cls-31"><path class="cls-25" d="M319.79,118.74a4.08,4.08,0,0,0,2.71,5.69c4.55,1.49,5.95-3,10.59,3.32l-4.64-19.94Z"/></g><path class="cls-29" d="M329.67,114.79a.88.88,0,0,0-1.13,0,46.91,46.91,0,0,1-8.68,6.24,8,8,0,0,0-4.11,5.27c-.89,5.22,1.91,7.75,3.49,8.81,5.26,3.64,14.13-1.28,13.67-10.44C332.58,118.07,330.69,115.64,329.67,114.79Z"/><path class="cls-32" d="M333.75,111.25s5.25,4.36,3.75,16.56"/><path class="cls-32" d="M342.16,121.3s1,2.35.26,6.54"/><line class="cls-29" x1="170.68" y1="109.49" x2="176.1" y2="118.97"/><polygon class="cls-33" points="170.95 108.28 178.44 104.55 181.65 106.16 184.29 111.87 183.56 114.34 176.8 118.11 170.95 108.28"/><path class="cls-15" d="M85,157l-7,10.8a.61.61,0,0,0,.56.94l12.52-.94"/><g class="cls-34"><polygon class="cls-35" points="81.08 165.04 82.51 167.55 78.98 167.83 81.08 165.04"/></g><path class="cls-29" d="M85,157l-7,10.8a.61.61,0,0,0,.56.94l12.52-.94"/><path class="cls-29" d="M129.72,81.05h12.16a0,0,0,0,1,0,0V186.62a3,3,0,0,1-3,3h-6.2a3,3,0,0,1-3-3V81.05a0,0,0,0,1,0,0Z" transform="translate(85.23 320.25) rotate(-119.61)"/><line class="cls-36" x1="92.9" y1="162.94" x2="170.39" y2="118.6"/><line class="cls-36" x1="91.5" y1="160.45" x2="168.99" y2="116.11"/><line class="cls-36" x1="89.99" y1="158.11" x2="167.47" y2="113.77"/><line class="cls-32" x1="187.81" y1="100.4" x2="237.15" y2="71.92"/><line class="cls-32" x1="174.6" y1="129.15" x2="223.95" y2="100.67"/><line class="cls-32" x1="214.26" y1="94.46" x2="247.81" y2="75.1"/><line class="cls-32" x1="208.76" y1="97.66" x2="211.06" y2="96.34"/><line class="cls-32" x1="194.98" y1="105.59" x2="205.7" y2="99.4"/><line class="cls-32" x1="183.95" y1="90.19" x2="150.4" y2="109.55"/><line class="cls-32" x1="189.46" y1="86.99" x2="187.16" y2="88.31"/><line class="cls-32" x1="203.23" y1="79.06" x2="192.52" y2="85.24"/></svg>