<svg id="Your_design" data-name="Your design" xmlns="http://www.w3.org/2000/svg" xmlns:xlink="http://www.w3.org/1999/xlink" viewBox="0 0 400 400"><defs><style>.cls-1{fill:none;}.cls-2{clip-path:url(#clip-path);}.cls-3{fill:#0ac;}</style><clipPath id="clip-path"><circle class="cls-1" cx="200" cy="200" r="200"/></clipPath></defs><title>Gentlestudent_Gentlecrew</title><g class="cls-2"><path class="cls-3" d="M327,171.65H192.23v55.53h77.28a84.54,84.54,0,0,1-16.31,25.64A74.69,74.69,0,1,1,148,146.8c28.74-28.35,74.95-29.13,104.08-1.17l2.33,2.33h66.41l-6.61-11.65a132.91,132.91,0,0,0-79.61-62.13c-21.75-6.22-45.05-5.83-67.18-.39C123.49,84.66,89.71,113,76.12,156.89c-6.22,20.59-8.55,42.72-5.05,63.69A129.43,129.43,0,0,0,106.8,292,127.89,127.89,0,0,0,200,330.87a146.45,146.45,0,0,0,73-20.19,93.89,93.89,0,0,0,33.4-31.84,153.18,153.18,0,0,0,21.36-51.27h24.46C336.7,311.46,255.92,367,171.65,351.46,101.36,338.25,48.93,278.84,45.44,207.38c-2.72-41.94,12.81-83.5,42.72-114.18A153.13,153.13,0,0,1,200,44.66h7.77a153.47,153.47,0,0,1,143.69,126.6Zm58.25-49.32C363.88,75,329.32,38.84,284.27,18.25A196.82,196.82,0,0,0,210.1,0H199.61a198,198,0,0,0-80.39,17.09A208.74,208.74,0,0,0,54.76,62.53a201.75,201.75,0,0,0-41.94,67.18A206.86,206.86,0,0,0,0,210.87a196.82,196.82,0,0,0,18.25,74.18A204.45,204.45,0,0,0,122.33,385.24,170.52,170.52,0,0,0,191.84,400H399.61V192.23A167,167,0,0,0,385.24,122.33Z"/></g></svg>