<?xml version="1.0" encoding="iso-8859-1"?>
<!-- Generator: Adobe Illustrator 23.0.3, SVG Export Plug-In . SVG Version: 6.00 Build 0)  -->
<svg version="1.1" id="Your_design" xmlns="http://www.w3.org/2000/svg" xmlns:xlink="http://www.w3.org/1999/xlink" x="0px"
	 y="0px" viewBox="0 0 400 400" style="enable-background:new 0 0 400 400;" xml:space="preserve">
<g style="display:none;opacity:0.74;">
	<g style="display:inline;">
		<circle style="fill:#FFFFFF;" cx="68.352" cy="213.659" r="13.546"/>
		<circle style="fill:#FFFFFF;" cx="82.676" cy="121.046" r="14.868"/>
		<circle style="fill:#FFFFFF;" cx="93.74" cy="47.071" r="15.87"/>
		<circle style="fill:#FFFFFF;" cx="136.726" cy="120.334" r="22.874"/>
		<circle style="fill:#FFFFFF;" cx="199.3" cy="51.42" r="15.61"/>
		<circle style="fill:#FFFFFF;" cx="208.538" cy="294.743" r="13.546"/>
		<circle style="fill:#FFFFFF;" cx="222.862" cy="202.13" r="14.868"/>
		<circle style="fill:#FFFFFF;" cx="259.806" cy="144.029" r="15.87"/>
		<circle style="fill:#FFFFFF;" cx="276.912" cy="201.418" r="22.874"/>
		<circle style="fill:#FFFFFF;" cx="375.486" cy="132.504" r="15.61"/>
	</g>
	
		<line style="display:inline;fill:none;stroke:#FFFFFF;stroke-width:4.3467;stroke-miterlimit:10;" x1="70.975" y1="206.741" x2="80.497" y2="126.794"/>
	
		<line style="display:inline;fill:none;stroke:#FFFFFF;stroke-width:4.3467;stroke-miterlimit:10;" x1="219.769" y1="199.174" x2="137.717" y2="119.888"/>
	
		<line style="display:inline;fill:none;stroke:#FFFFFF;stroke-width:4.3467;stroke-miterlimit:10;" x1="208.538" y1="294.743" x2="224.193" y2="211.52"/>
	
		<line style="display:inline;fill:none;stroke:#FFFFFF;stroke-width:4.3467;stroke-miterlimit:10;" x1="283.824" y1="203.348" x2="227.692" y2="200.413"/>
	
		<line style="display:inline;fill:none;stroke:#FFFFFF;stroke-width:4.3467;stroke-miterlimit:10;" x1="199.3" y1="51.42" x2="106.265" y2="49.571"/>
	
		<line style="display:inline;fill:none;stroke:#FFFFFF;stroke-width:4.3467;stroke-miterlimit:10;" x1="257.694" y1="143.097" x2="201.577" y2="56.478"/>
	
		<line style="display:inline;fill:none;stroke:#FFFFFF;stroke-width:4.3467;stroke-miterlimit:10;" x1="361.74" y1="130.549" x2="267.95" y2="141.795"/>
	
		<line style="display:inline;fill:none;stroke:#FFFFFF;stroke-width:4.3467;stroke-miterlimit:10;" x1="257.694" y1="143.097" x2="231.163" y2="200.594"/>
	
		<line style="display:inline;fill:none;stroke:#FFFFFF;stroke-width:4.3467;stroke-miterlimit:10;" x1="137.138" y1="121.248" x2="85.064" y2="122.172"/>
</g>
<g>
	<circle style="fill:#FAC51E;" cx="200" cy="200.476" r="200"/>
	<g>
		<g>
			<path style="fill:#FADB7A;" d="M338.231,326.511h-6.272l-18.244-87.456c-0.29-12.203-8.619-22.445-19.886-25.625l3.71-54.914
				c13.263-1.858,23.506-13.272,23.506-27.041c0-15.059-12.251-27.311-27.31-27.311c-8.063,0-15.319,3.515-20.322,9.09
				l-47.461-27.401c0.878-2.676,1.36-5.529,1.36-8.495c-0.001-15.059-12.253-27.311-27.312-27.311s-27.311,12.252-27.311,27.311
				c0,2.965,0.482,5.819,1.359,8.494l-47.461,27.402c-5.004-5.575-12.259-9.089-20.322-9.089c-15.059,0-27.311,12.251-27.311,27.311
				c0,13.768,10.242,25.182,23.506,27.041l3.71,54.914c-11.267,3.18-19.595,13.421-19.886,25.622L68.04,326.511h-6.272
				c-3.103,0-5.619,2.516-5.619,5.619c0,3.103,2.516,5.619,5.619,5.619h60.09c3.103,0,5.619-2.516,5.619-5.619
				c0-3.103-2.516-5.619-5.619-5.619h-2.66v-60.073c6.363-1.336,11.913-4.896,15.808-9.823l38.481,19.093l-0.088,0.72
				c-0.459,1.982-0.71,4.042-0.71,6.162c0,0,0,0,0,0.001v43.92h-6.458c-3.103,0-5.619,2.516-5.619,5.619
				c0,3.103,2.516,5.619,5.619,5.619h172.001c3.103,0,5.619-2.516,5.619-5.619C343.85,329.027,341.335,326.511,338.231,326.511z
				 M293.735,115.403c8.862,0,16.072,7.21,16.072,16.073s-7.21,16.073-16.072,16.073c-8.863,0-16.073-7.21-16.073-16.073
				C277.662,122.613,284.872,115.403,293.735,115.403z M273.413,149.697c3.41,3.8,7.868,6.636,12.913,8.06l-3.71,54.914
				c-6.185,0.866-11.709,3.81-15.847,8.104l-41.135-25.759c1.083-2.939,1.677-6.113,1.677-9.423c0-2.965-0.482-5.819-1.359-8.494
				L273.413,149.697z M220.322,95.58l47.461,27.401c-0.878,2.675-1.359,5.529-1.359,8.495c0,2.966,0.482,5.82,1.36,8.495
				l-47.461,27.402c-3.809-4.244-8.922-7.292-14.704-8.506v-54.782C211.4,102.87,216.513,99.823,220.322,95.58z M199.999,61.285
				c8.863,0,16.073,7.21,16.073,16.073c0,8.862-7.21,16.073-16.073,16.073c-8.863,0-16.073-7.21-16.073-16.073
				C183.927,68.495,191.137,61.285,199.999,61.285z M132.217,122.98l47.461-27.401c3.809,4.244,8.922,7.291,14.703,8.505v54.782
				c-5.782,1.214-10.894,4.262-14.703,8.506l-47.461-27.401c0.878-2.676,1.36-5.53,1.36-8.496
				C133.576,128.51,133.095,125.656,132.217,122.98z M90.192,131.475c0-8.862,7.21-16.073,16.073-16.073
				c8.863,0,16.073,7.21,16.073,16.073c0,8.863-7.21,16.073-16.073,16.073C97.402,147.548,90.192,140.338,90.192,131.475z
				 M107.959,326.511H79.52l14.201-68.078c3.756,3.981,8.687,6.84,14.238,8.006C107.959,266.438,107.959,326.511,107.959,326.511z
				 M113.579,255.784c-8.855,0-16.06-7.198-16.073-16.049c0-0.009-0.001-0.018-0.001-0.027c0.002-8.861,7.211-16.069,16.073-16.069
				c8.863,0,16.073,7.21,16.073,16.073C129.651,248.574,122.441,255.784,113.579,255.784z M133.231,220.775
				c-4.139-4.293-9.663-7.237-15.848-8.103l-3.71-54.914c5.045-1.424,9.504-4.26,12.914-8.06l47.462,27.401
				c-0.878,2.675-1.359,5.529-1.359,8.495c0,3.31,0.593,6.484,1.677,9.423L133.231,220.775z M174.928,263.879l-34.909-17.321
				c0.567-2.189,0.87-4.483,0.87-6.847c0-3.31-0.593-6.484-1.677-9.423l41.135-25.758c0.521,0.541,1.064,1.06,1.628,1.557
				L174.928,263.879z M215.588,326.511h-31.661v-21.859c4.513,3.297,10.068,5.249,16.073,5.249c5.792,0,11.165-1.818,15.589-4.905
				V326.511z M215.588,286.504c-1.752,6.977-8.075,12.159-15.589,12.159c-8.768,0-15.913-7.058-16.065-15.79l0.542-4.443
				c1.838-6.852,8.099-11.913,15.524-11.913c6.61,0,12.299,4.012,14.764,9.727l0.824,6.765V286.504z M186.889,258.64l5.703-46.765
				c2.358,0.666,4.84,1.029,7.407,1.029c2.397,0,4.722-0.313,6.938-0.896l5.648,46.356c-3.769-1.966-8.048-3.085-12.586-3.085
				C195.251,255.28,190.783,256.5,186.889,258.64z M200,201.666c-8.863,0-16.073-7.21-16.073-16.073
				c0-8.86,7.206-16.068,16.065-16.073c0.002,0,0.005,0.001,0.007,0.001c0.002,0,0.005-0.001,0.007-0.001
				c8.859,0.004,16.065,7.212,16.065,16.073C216.072,194.456,208.862,201.666,200,201.666z M217.584,206.468
				c0.723-0.61,1.412-1.257,2.067-1.937l41.135,25.759c-1.083,2.938-1.676,6.113-1.676,9.422c0,2.364,0.302,4.658,0.87,6.847
				l-35.373,17.551L217.584,206.468z M280.802,326.512h-53.976v-38.825l0,0c0.313-1.652,0.484-3.354,0.484-5.096
				c0-2.363-0.302-4.657-0.869-6.846l38.553-19.129c3.895,4.927,9.445,8.487,15.808,9.823L280.802,326.512L280.802,326.512z
				 M270.348,239.711c0-8.863,7.21-16.073,16.073-16.073c8.861,0,16.07,7.207,16.073,16.068c0,0.01-0.001,0.019-0.001,0.028
				c-0.013,8.852-7.217,16.049-16.073,16.049C277.558,255.784,270.348,248.574,270.348,239.711z M292.04,326.511v-60.073
				c5.551-1.165,10.483-4.024,14.238-8.006l14.201,68.078H292.04L292.04,326.511z"/>
		</g>
	</g>
	<g style="opacity:0.79;">
		<path style="fill:#829AB8;" d="M65.668,264.576c-0.004-0.25-0.01-0.499-0.01-0.749c0-23.839,19.325-43.164,43.164-43.164
			c20.544,0,37.733,14.352,42.094,33.577c4.066-2.276,8.75-3.58,13.741-3.58c15.574,0,28.199,12.625,28.199,28.199
			c0,0.636-0.029,1.266-0.07,1.892c11.562,4.292,19.802,15.421,19.802,28.476c0,16.772-13.596,30.368-30.368,30.368H73.916
			c-20.965,0-37.96-16.996-37.96-37.961C35.956,283.503,48.67,268.342,65.668,264.576z"/>
	</g>
	<g style="opacity:0.79;">
		<path style="fill:#E9E9E9;" d="M65.034,271.526c-0.004-0.226-0.01-0.452-0.01-0.679c0-21.63,19.325-39.165,43.164-39.165
			c20.544,0,37.733,13.023,42.094,30.466c4.066-2.065,8.75-3.248,13.741-3.248c15.574,0,28.199,11.455,28.199,25.586
			c0,0.577-0.029,1.149-0.07,1.717c11.562,3.894,19.802,13.992,19.802,25.838c0,15.218-13.596,27.555-30.368,27.555H73.281
			c-20.965,0-37.96-15.421-37.96-34.444C35.321,288.699,48.035,274.944,65.034,271.526z"/>
	</g>
	<g style="opacity:0.79;">
		<path style="fill:#829AB8;" d="M177.265,202.932c-0.002-0.105-0.004-0.209-0.004-0.314c0-10.009,8.114-18.123,18.123-18.123
			c8.625,0,15.843,6.026,17.673,14.097c1.707-0.956,3.674-1.503,5.769-1.503c6.539,0,11.839,5.301,11.839,11.839
			c0,0.267-0.012,0.532-0.03,0.794c4.854,1.802,8.314,6.474,8.314,11.956c0,7.042-5.708,12.75-12.75,12.75h-45.472
			c-8.802,0-15.938-7.136-15.938-15.938C164.79,210.878,170.128,204.513,177.265,202.932z"/>
	</g>
	<g style="opacity:0.79;">
		<path style="fill:#E9E9E9;" d="M176.999,210.459c-0.002-0.105-0.004-0.209-0.004-0.314c0-10.009,8.114-18.123,18.123-18.123
			c8.625,0,15.843,6.026,17.673,14.097c1.707-0.956,3.674-1.503,5.769-1.503c6.539,0,11.839,5.301,11.839,11.839
			c0,0.267-0.012,0.532-0.03,0.794c4.854,1.802,8.314,6.474,8.314,11.956c0,7.042-5.708,6.75-12.75,6.75h-45.472
			c-8.802,0-15.938-1.136-15.938-9.938C164.524,218.405,169.862,212.04,176.999,210.459z"/>
	</g>
	<g style="opacity:0.79;">
		<path style="fill:#829AB8;" d="M247.837,251.235c-0.003-0.166-0.006-0.332-0.006-0.498c0-15.871,12.866-28.736,28.736-28.736
			c13.677,0,25.121,9.555,28.024,22.354c2.707-1.515,5.825-2.383,9.148-2.383c10.368,0,18.773,8.405,18.773,18.773
			c0,0.424-0.019,0.843-0.047,1.26c7.697,2.857,13.183,10.266,13.183,18.958c0,11.166-9.052,20.217-20.217,20.217h-72.103
			c-13.957,0-25.272-11.315-25.272-25.272C228.056,263.836,236.521,253.743,247.837,251.235z"/>
	</g>
	<g style="opacity:0.79;">
		<path style="fill:#E9E9E9;" d="M247.415,258.571c-0.003-0.166-0.006-0.332-0.006-0.498c0-15.871,12.866-28.736,28.736-28.736
			c13.677,0,25.121,9.555,28.024,22.354c2.707-1.515,5.825-2.383,9.148-2.383c10.368,0,18.773,8.405,18.773,18.773
			c0,0.424-0.019,0.843-0.047,1.26c7.697,2.857,13.183,10.266,13.183,18.958c0,11.166-9.052,13.217-20.217,13.217h-72.103
			c-13.957,0-25.272-4.315-25.272-18.272C227.634,271.171,236.098,261.078,247.415,258.571z"/>
	</g>
	<g style="opacity:0.79;">
		<path style="fill:#829AB8;" d="M236.116,171.392c-0.001-0.07-0.003-0.139-0.003-0.209c0-6.663,5.402-12.065,12.065-12.065
			c5.742,0,10.547,4.012,11.766,9.385c1.137-0.636,2.446-1.001,3.841-1.001c4.353,0,7.882,3.529,7.882,7.882
			c0,0.178-0.008,0.354-0.02,0.529c3.232,1.2,5.535,4.31,5.535,7.96c0,4.688-3.8,8.488-8.488,8.488h-30.273
			c-5.86,0-10.611-4.751-10.611-10.611C227.811,176.682,231.365,172.445,236.116,171.392z"/>
	</g>
	<g style="opacity:0.79;">
		<path style="fill:#E9E9E9;" d="M235.939,176.403c-0.001-0.07-0.003-0.139-0.003-0.209c0-6.663,5.402-12.065,12.065-12.065
			c5.742,0,10.547,4.012,11.766,9.385c1.137-0.636,2.446-1.001,3.841-1.001c4.353,0,7.882,3.529,7.882,7.882
			c0,0.178-0.008,0.354-0.02,0.529c3.232,1.2,5.535,4.31,5.535,7.96c0,4.688-3.8,4.488-8.488,4.488h-30.273
			c-5.86,0-10.611-0.751-10.611-6.611C227.634,181.693,231.188,177.456,235.939,176.403z"/>
	</g>
</g>
</svg>
