<svg id="Your_design" data-name="Your design" xmlns="http://www.w3.org/2000/svg" xmlns:xlink="http://www.w3.org/1999/xlink" viewBox="0 0 399.94 399.69"><defs><style>.cls-1,.cls-6,.cls-8{fill:none;}.cls-2{clip-path:url(#clip-path);}.cls-3{fill:#c13838;}.cls-4{fill:#969696;}.cls-5{fill:#515151;}.cls-6,.cls-8{stroke:#f4f4f4;}.cls-11,.cls-6,.cls-8{stroke-miterlimit:10;}.cls-6{stroke-width:17px;}.cls-7{fill:#303030;}.cls-8{stroke-width:7px;}.cls-11,.cls-9{fill:#e59f6a;}.cls-10{fill:#c68a61;}.cls-11{stroke:#c68960;stroke-width:0.75px;}</style><clipPath id="clip-path"><circle class="cls-1" cx="199.94" cy="199.85" r="200"/></clipPath></defs><title>Artboard 1</title><g class="cls-2"><rect class="cls-3" x="76.7" width="246.48" height="399.69"/><rect class="cls-4" y="35.25" width="76.7" height="324.95"/><rect class="cls-5" x="323.18" y="39.5" width="76.76" height="320.7"/></g><line class="cls-6" x1="102.32" y1="271.63" x2="102.32" y2="209.87"/><line class="cls-6" x1="102.32" y1="360.19" x2="102.32" y2="298.43"/><line class="cls-6" x1="102.32" y1="182.79" x2="102.32" y2="121.03"/><line class="cls-6" x1="102.32" y1="101.26" x2="102.32" y2="39.5"/><line class="cls-6" x1="297.57" y1="271.63" x2="297.57" y2="209.87"/><line class="cls-6" x1="297.57" y1="360.19" x2="297.57" y2="298.43"/><line class="cls-6" x1="297.57" y1="182.79" x2="297.57" y2="121.03"/><line class="cls-6" x1="297.57" y1="101.26" x2="297.57" y2="39.5"/><path class="cls-7" d="M199.94,72.94H63.14L66,207.73s5.56,101.63,133.92,163.74C328.3,309.36,333.86,207.73,333.86,207.73l2.88-134.79ZM316.12,209.65s-4.83,88.2-116.18,142c-111.35-53.85-116.18-142-116.18-142L81.26,92.71H318.62Z"/><line class="cls-8" x1="201.56" y1="210.24" x2="201.56" y2="176.21"/><path class="cls-9" d="M133.29,164.24,184.21,212l50.92,47.77c26-9,31.46-33.54,31.46-33.54l-50.92-47.76L164.75,130.7S140.56,137.76,133.29,164.24Z"/><circle class="cls-10" cx="164.74" cy="178.52" r="0.95"/><circle class="cls-10" cx="170.38" cy="172.55" r="0.95"/><circle class="cls-10" cx="175.77" cy="167.42" r="0.95"/><circle class="cls-10" cx="180.95" cy="161.88" r="0.95"/><circle class="cls-10" cx="158.34" cy="172.05" r="0.95"/><circle class="cls-10" cx="163.98" cy="166.08" r="0.95"/><circle class="cls-10" cx="169.37" cy="160.95" r="0.95"/><circle class="cls-10" cx="174.54" cy="155.42" r="0.95"/><circle class="cls-10" cx="151.4" cy="166.46" r="0.95"/><circle class="cls-10" cx="157.05" cy="160.49" r="0.95"/><circle class="cls-10" cx="162.43" cy="155.36" r="0.95"/><circle class="cls-10" cx="167.61" cy="149.82" r="0.95"/><circle class="cls-10" cx="235.69" cy="242.56" r="0.95"/><circle class="cls-10" cx="241.34" cy="236.59" r="0.95"/><circle class="cls-10" cx="246.72" cy="231.46" r="0.95"/><circle class="cls-10" cx="251.9" cy="225.92" r="0.95"/><circle class="cls-10" cx="229.29" cy="236.1" r="0.95"/><circle class="cls-10" cx="234.93" cy="230.13" r="0.95"/><circle class="cls-10" cx="240.32" cy="224.99" r="0.95"/><circle class="cls-10" cx="245.5" cy="219.46" r="0.95"/><circle class="cls-10" cx="222.36" cy="230.51" r="0.95"/><circle class="cls-10" cx="228" cy="224.54" r="0.95"/><circle class="cls-10" cx="233.39" cy="219.4" r="0.95"/><circle class="cls-10" cx="238.56" cy="213.87" r="0.95"/><path class="cls-11" d="M266.59,164.24,215.67,212l-50.92,47.77c-26-9-31.46-33.54-31.46-33.54l50.92-47.76,50.92-47.77S259.32,137.76,266.59,164.24Z"/><rect class="cls-10" x="174.11" y="181.84" width="48.45" height="28.66" rx="2.04" transform="translate(-80.44 185.92) rotate(-42.58)"/><circle class="cls-10" cx="235.15" cy="178.52" r="0.95"/><circle class="cls-10" cx="229.5" cy="172.55" r="0.95"/><circle class="cls-10" cx="224.12" cy="167.42" r="0.95"/><circle class="cls-10" cx="218.94" cy="161.88" r="0.95"/><circle class="cls-10" cx="241.55" cy="172.05" r="0.95"/><circle class="cls-10" cx="235.91" cy="166.08" r="0.95"/><circle class="cls-10" cx="230.52" cy="160.95" r="0.95"/><circle class="cls-10" cx="225.34" cy="155.42" r="0.95"/><circle class="cls-10" cx="248.48" cy="166.46" r="0.95"/><circle class="cls-10" cx="242.84" cy="160.49" r="0.95"/><circle class="cls-10" cx="237.45" cy="155.36" r="0.95"/><circle class="cls-10" cx="232.28" cy="149.82" r="0.95"/><circle class="cls-10" cx="164.19" cy="242.56" r="0.95"/><circle class="cls-10" cx="158.55" cy="236.59" r="0.95"/><circle class="cls-10" cx="153.16" cy="231.46" r="0.95"/><circle class="cls-10" cx="147.99" cy="225.92" r="0.95"/><circle class="cls-10" cx="170.6" cy="236.1" r="0.95"/><circle class="cls-10" cx="164.95" cy="230.13" r="0.95"/><circle class="cls-10" cx="159.57" cy="224.99" r="0.95"/><circle class="cls-10" cx="154.39" cy="219.46" r="0.95"/><circle class="cls-10" cx="177.53" cy="230.51" r="0.95"/><circle class="cls-10" cx="171.89" cy="224.54" r="0.95"/><circle class="cls-10" cx="166.5" cy="219.4" r="0.95"/><circle class="cls-10" cx="161.32" cy="213.87" r="0.95"/></svg>