<svg width="400" height="400" viewBox="0 0 400 400" fill="none" xmlns="http://www.w3.org/2000/svg">
<rect width="400" height="400" fill="#E5E5E5"/>
<rect width="400" height="400" fill="white"/>
<circle cx="200" cy="200" r="200" fill="#A5C4EA"/>
<path d="M274.896 175.99C310.858 175.99 340.01 205.851 340.01 242.688C340.01 279.524 310.858 309.385 274.896 309.385C246.136 309.385 221.73 290.286 213.109 263.795H185.891C177.27 290.286 152.864 309.385 124.104 309.385C88.1424 309.385 58.9896 279.524 58.9896 242.688C58.9896 205.851 88.1424 175.99 124.104 175.99C157.752 175.99 185.439 202.133 188.863 235.671H210.137C213.56 202.133 241.248 175.99 274.896 175.99ZM124.104 204.073C103.284 204.073 86.4062 221.361 86.4062 242.688C86.4062 264.014 103.284 281.302 124.104 281.302C144.924 281.302 161.802 264.014 161.802 242.688C161.802 221.361 144.924 204.073 124.104 204.073ZM274.896 204.073C254.076 204.073 237.198 221.361 237.198 242.688C237.198 264.014 254.076 281.302 274.896 281.302C295.716 281.302 312.594 264.014 312.594 242.688C312.594 221.361 295.716 204.073 274.896 204.073ZM247.643 53.125C264.291 53.125 278.967 64.3104 283.751 80.6438L297.543 127.699C308.407 129.552 319.04 131.731 329.442 134.238C336.811 136.014 341.38 143.574 339.646 151.122C337.912 158.671 330.532 163.351 323.162 161.575C285.388 152.471 244.171 147.906 199.5 147.906C154.829 147.906 113.611 152.471 75.8377 161.575C68.468 163.351 61.088 158.671 59.354 151.122C57.6199 143.574 62.1885 136.014 69.5582 134.238C79.9551 131.732 90.5836 129.553 101.443 127.702L115.249 80.6438C120.033 64.3104 134.709 53.125 151.357 53.125H247.643Z" fill="#212121"/>
<g clip-path="url(#clip0_0_1)">
<path d="M87.7531 98.8158L90.5087 102.607L126.122 75.3294L123.366 71.5382L87.7531 98.8158Z" fill="#666666"/>
<path d="M129.518 76.5662L139.265 120.354L143.813 119.221L134.066 75.4332L129.518 76.5662Z" fill="#666666"/>
<path d="M136.224 159.918L67.4023 134.869C62.7987 133.193 60.4627 127.999 62.1849 123.268L71.2652 98.3198C72.9873 93.5883 78.1153 91.111 82.7189 92.7866L151.541 117.836C156.145 119.511 158.481 124.705 156.758 129.437L147.678 154.385C145.956 159.116 140.828 161.594 136.224 159.918Z" fill="#E54728"/>
<path d="M69.1995 129.931C67.2524 129.222 66.261 127.018 66.9894 125.016L76.0697 100.068C76.7981 98.0672 78.9745 97.0158 80.9217 97.7245L149.744 122.774C151.691 123.482 152.682 125.687 151.954 127.688L142.874 152.636C142.145 154.638 139.969 155.689 138.021 154.98L69.1994 129.931L69.1995 129.931Z" fill="#F95428"/>
<path d="M89.537 111.429L90.1634 111.657C91.1828 112.028 91.7019 113.182 91.3205 114.23C90.9822 115.159 91.4412 116.18 92.3457 116.509C93.2503 116.838 94.258 116.352 94.5963 115.422C95.6534 112.518 94.2144 109.318 91.3888 108.29L90.7624 108.062C87.5913 106.908 84.0464 108.62 82.8602 111.879C81.6739 115.139 83.2887 118.729 86.4598 119.883C87.8247 120.38 88.5196 121.925 88.009 123.328C87.4985 124.731 85.973 125.468 84.6081 124.971L83.9817 124.743C82.9623 124.372 82.4431 123.218 82.8245 122.17C83.1628 121.24 82.7038 120.22 81.7993 119.89C80.8948 119.561 79.8871 120.048 79.5487 120.978C78.4917 123.882 79.9307 127.081 82.7563 128.11L83.3827 128.338C86.5538 129.492 90.0987 127.779 91.2848 124.52C92.471 121.261 90.8563 117.671 87.6852 116.516C86.3203 116.02 85.6254 114.475 86.136 113.072C86.6466 111.669 88.1721 110.932 89.537 111.429Z" fill="white"/>
<path d="M120.307 135.301C119.402 134.971 118.395 135.458 118.056 136.388L117.813 137.056L112.863 135.255L118.405 120.029C118.743 119.099 118.284 118.079 117.379 117.749C116.475 117.42 115.467 117.907 115.129 118.837L108.974 135.745C108.636 136.675 109.095 137.696 110 138.025L118.225 141.019C119.13 141.348 120.138 140.861 120.476 139.932L121.332 137.58C121.67 136.65 121.211 135.63 120.307 135.301Z" fill="white"/>
<path d="M137.423 132.049C138.327 132.378 139.335 131.891 139.673 130.962L140.699 128.144C141.037 127.214 140.578 126.193 139.674 125.864L131.448 122.87C130.543 122.541 129.536 123.028 129.197 123.957L123.043 140.866C122.704 141.796 123.163 142.816 124.068 143.146L132.294 146.14C133.199 146.469 134.206 145.982 134.545 145.052L135.401 142.7C135.739 141.771 135.28 140.75 134.376 140.421C133.471 140.092 132.463 140.579 132.125 141.508L131.882 142.177L126.931 140.375L128.783 135.287L131.786 136.38C132.69 136.71 133.698 136.223 134.036 135.293C134.375 134.363 133.916 133.343 133.011 133.014L130.008 131.921L131.86 126.833L136.811 128.634L136.398 129.769C136.059 130.699 136.518 131.72 137.423 132.049Z" fill="white"/>
<path d="M105.651 113.605C102.509 112.461 98.9969 114.158 97.8217 117.387L93.2655 129.905C92.9272 130.834 93.3862 131.855 94.2907 132.184C95.1953 132.513 96.203 132.027 96.5413 131.097L97.9797 127.145L102.823 128.908L101.385 132.86C101.047 133.79 101.506 134.81 102.41 135.139C103.315 135.469 104.323 134.982 104.661 134.052L109.217 121.534C110.392 118.305 108.792 114.748 105.651 113.605ZM99.2052 123.778L101.097 118.579C101.597 117.206 103.09 116.485 104.425 116.971C105.761 117.457 106.441 118.97 105.941 120.342L104.049 125.541L99.2052 123.778Z" fill="white"/>
<path d="M127.004 78.1823C122.594 76.5771 120.348 71.5835 121.998 67.0509C123.648 62.5183 128.578 60.1366 132.988 61.7417C137.398 63.3468 139.644 68.3403 137.994 72.8731C136.344 77.4058 131.414 79.7874 127.004 78.1823ZM131.354 66.2307C129.352 65.5021 127.114 66.5831 126.366 68.6406C125.617 70.6981 126.636 72.9647 128.638 73.6933C130.64 74.4219 132.878 73.3407 133.627 71.2834C134.375 69.226 133.356 66.9593 131.354 66.2307Z" fill="#F95428"/>
</g>
<defs>
<clipPath id="clip0_0_1">
<rect width="90.98" height="91.5385" fill="white" transform="translate(90.308 46) rotate(20)"/>
</clipPath>
</defs>
</svg>
