<?xml version="1.0" encoding="UTF-8"?><svg id="Laag_2" xmlns="http://www.w3.org/2000/svg" viewBox="0 0 400 400"><defs><style>.cls-1{fill:#fff;}.cls-2{fill:#ffe615;}.cls-3{fill:#00005c;}.cls-4{fill:#fcfcfc;}</style></defs><g id="Laag_2-2"><circle class="cls-3" cx="200" cy="200" r="200"/><circle class="cls-1" cx="264.01" cy="48.28" r="2.85"/><circle class="cls-1" cx="159.64" cy="41.62" r="2.85"/><path class="cls-1" d="M112.67,336.94c10.94,7.2,22.77,13.07,35.11,17.44,104.44,36.93,215.03-41.31,214.8-152.09-1.38-25.74-7.02-50.96-17.31-74.64-3.32-7.98-7.06-15.85-10.87-23.99,26,24.11,38.52,63.13,36.96,98.09-.07,15.62-2.01,31.27-6.27,46.33-31.52,112.64-165.59,160.57-261.33,93.4l-3.88-2.72c.8-.98,2.8-3.61,5.42-6.79l7.37,4.95Z"/><g><path class="cls-1" d="M84.92,74.27l8.21,9.27,6.29-5.57,1.25,1.42-7.87,6.97-9.47-10.69,1.58-1.4Z"/><path class="cls-1" d="M107.84,74.23c-1.19,.88-2.43,1.41-3.72,1.61-1.28,.2-2.51,.04-3.69-.46-1.18-.5-2.21-1.36-3.11-2.58-.9-1.23-1.42-2.48-1.54-3.75-.12-1.27,.1-2.49,.67-3.66s1.46-2.19,2.65-3.06c1.21-.88,2.45-1.42,3.73-1.62,1.28-.19,2.51-.04,3.69,.46,1.18,.5,2.23,1.36,3.13,2.59,.89,1.22,1.4,2.46,1.52,3.74s-.11,2.5-.67,3.66-1.45,2.19-2.66,3.07Zm-1.13-1.54c.85-.62,1.49-1.35,1.91-2.16,.42-.82,.58-1.7,.5-2.63-.09-.94-.49-1.89-1.2-2.86s-1.5-1.64-2.37-2c-.87-.37-1.76-.47-2.67-.32-.91,.15-1.79,.54-2.64,1.16-.83,.61-1.45,1.33-1.88,2.16s-.6,1.72-.51,2.65c.09,.94,.49,1.89,1.2,2.86,.71,.97,1.5,1.64,2.37,2,.87,.37,1.76,.46,2.68,.3,.92-.16,1.79-.55,2.62-1.16Z"/><path class="cls-1" d="M125.3,57.13c.42,.99,.57,1.97,.44,2.92-.13,.96-.5,1.86-1.12,2.69-.62,.83-1.45,1.56-2.5,2.17-.95,.55-1.91,.91-2.87,1.08-.96,.17-1.89,.15-2.79-.05-.9-.21-1.75-.61-2.54-1.21-.79-.6-1.47-1.39-2.05-2.38-.58-1-.94-1.99-1.07-2.97-.13-.98-.06-1.91,.2-2.8,.26-.89,.71-1.71,1.33-2.46,.62-.75,1.41-1.41,2.36-1.96,1.07-.62,2.12-.99,3.15-1.11,1.03-.12,2,0,2.9,.37,.9,.37,1.68,.98,2.33,1.84l-1.75,1.02c-.51-.5-1.08-.85-1.7-1.05s-1.27-.25-1.95-.15c-.67,.1-1.35,.34-2.02,.73-.86,.5-1.54,1.14-2.04,1.92-.5,.78-.75,1.64-.77,2.59-.02,.95,.27,1.93,.87,2.96,.59,1.02,1.3,1.75,2.14,2.21s1.71,.66,2.63,.61c.92-.05,1.81-.33,2.67-.83,.67-.39,1.21-.85,1.63-1.38,.41-.53,.69-1.11,.83-1.75,.14-.64,.12-1.3-.04-1.99l1.73-1.01Z"/><path class="cls-1" d="M128.38,61.03l-.68-15.41,2.04-.94,11.31,10.51-2.08,.96-10.03-9.57,.72-.33,.78,13.84-2.06,.95Zm1.33-4.52l-.79-1.72,6.95-3.21,.79,1.72-6.95,3.21Z"/><path class="cls-1" d="M139.98,40.42l4.17,11.66,7.91-2.83,.64,1.78-9.9,3.54-4.81-13.45,1.99-.71Z"/><path class="cls-1" d="M173.66,31.57l1.7,12.27,8.32-1.15,.26,1.88-10.42,1.44-1.96-14.14,2.09-.29Z"/><path class="cls-1" d="M185.92,30.15l2.11-.16,1.08,14.24-2.11,.16-1.08-14.24Z"/><path class="cls-1" d="M204.77,41.43l-.61,.23-.2-12.16,2.13-.03,.23,14.28-2.13,.04-10.16-11.74,.61-.23,.2,12.12-2.11,.04-.23-14.28,2.11-.03,10.16,11.78Z"/><path class="cls-1" d="M210.84,29.81l2.1,.2-1.38,14.21-2.1-.21,1.38-14.21Zm3.52,7.7l.09-1.16,7.87,8.92-2.96-.29-7.07-8.2,7.55-6.1,2.91,.28-8.39,6.55Z"/><path class="cls-1" d="M227.39,39.94l-.81,4.21,9.03,1.73-.36,1.86-11.11-2.12,2.68-14.02,11.08,2.12-.36,1.86-9.01-1.72-.82,4.28,7.37,1.41-.35,1.81-7.37-1.41Z"/><path class="cls-1" d="M247.44,36.26c1.42,.42,2.56,.95,3.42,1.59s1.49,1.37,1.88,2.17c.4,.8,.6,1.65,.62,2.54,.01,.89-.12,1.79-.38,2.71-.26,.9-.66,1.72-1.17,2.47s-1.17,1.36-1.96,1.83c-.79,.47-1.72,.75-2.78,.84s-2.28-.06-3.65-.46l-5.49-1.62,4.03-13.7,5.49,1.61Zm-6.95,10.84l3.44,1.01c1.08,.32,2.02,.44,2.81,.36,.79-.08,1.46-.3,2.02-.67s1.01-.82,1.37-1.38c.35-.55,.62-1.14,.8-1.76,.19-.63,.28-1.27,.28-1.91,0-.64-.14-1.26-.42-1.86-.28-.59-.73-1.13-1.35-1.61-.62-.48-1.48-.88-2.56-1.2l-3.44-1.01-2.95,10.03Z"/><path class="cls-1" d="M279.23,50.96l1.88,1.01-6,11.09-1.88-1.02,6-11.09Zm-3.77-3.94l11.01,5.96-.9,1.66-11.01-5.96,.9-1.66Z"/><path class="cls-1" d="M279.13,65.18l12.67-8.79,1.88,1.22-2.85,15.17-1.92-1.25,2.75-13.59,.66,.43-11.29,8.04-1.9-1.24Zm4.53-1.28l1.03-1.59,6.42,4.17-1.03,1.59-6.42-4.17Z"/><path class="cls-1" d="M308.59,68.58l1.93,1.53-9.26,2.47-.09,.04-7.61,2.29-1.93-1.53,9.62-2.75h.06l7.28-2.05Zm-6.01-4.74l-.42,7.46v.05l-.46,9.98-2.11-1.66,.64-7.88-.02-.07,.44-9.4,1.93,1.53Z"/><path class="cls-1" d="M309.21,79.84l-2.95,3.12,6.68,6.32-1.3,1.37-8.21-7.78,9.82-10.37,8.19,7.76-1.3,1.38-6.66-6.31-3,3.16,5.45,5.16-1.27,1.34-5.45-5.16Z"/><path class="cls-1" d="M316.37,88.83l1.35,1.51c-.4,.41-.65,.9-.77,1.47s-.08,1.16,.12,1.78,.56,1.22,1.09,1.82c.46,.51,.91,.88,1.35,1.09,.44,.21,.87,.29,1.26,.24,.4-.05,.77-.23,1.11-.53,.34-.3,.53-.64,.56-1s-.04-.8-.24-1.29c-.19-.5-.47-1.07-.83-1.74-.31-.59-.59-1.19-.83-1.81-.25-.62-.41-1.23-.51-1.84-.09-.61-.07-1.2,.08-1.75s.47-1.05,.98-1.5c.54-.48,1.16-.77,1.87-.87s1.45,.02,2.23,.36,1.54,.92,2.27,1.74c1.13,1.27,1.67,2.52,1.61,3.73-.05,1.22-.62,2.29-1.71,3.21l-1.32-1.48c.72-.7,1.04-1.41,.97-2.13-.07-.73-.41-1.44-1.04-2.14-.54-.6-1.12-1.01-1.74-1.21-.63-.21-1.2-.08-1.73,.39-.23,.2-.39,.43-.47,.68s-.09,.55-.03,.91c.06,.36,.2,.79,.42,1.29s.5,1.12,.87,1.83c.29,.53,.54,1.06,.76,1.61,.21,.55,.35,1.09,.41,1.62s0,1.06-.19,1.57c-.19,.51-.55,1-1.08,1.47-.56,.5-1.19,.81-1.89,.94s-1.44,.03-2.22-.31c-.78-.34-1.58-.96-2.38-1.87-.64-.72-1.11-1.43-1.4-2.13-.29-.7-.44-1.36-.46-1.97-.02-.62,.05-1.18,.21-1.69s.36-.93,.6-1.27c.24-.34,.48-.59,.7-.73Z"/></g><path class="cls-4" d="M99.07,182.07l2.43,3.13c-14.61,10.28-25.61,25.72-36.18,40.2-4.36,6.14-8.61,12.41-12.76,18.75l-9.76,13.83-1.36,2.21-1.91-4.74c-2.16-6.74-3.93-13.7-5.29-20.89-2.94-15.37-3.51-31.13-2.23-46.7,1.48-34.97,17.34-72.76,45.33-94.52-4.5,7.77-8.91,15.29-12.91,22.95-12.3,22.7-20.11,47.33-23.71,72.86-1.39,15.53-.53,30.61,2.28,44.97l5.77-6.33c2.45-3.13,4.91-6.24,7.43-9.34,10.63-12.66,20.82-25.32,34.32-35.28-1.96-4.32-2.88-8.98-2.9-13.8v-2.72c15.94-2.53,32-3.22,48.13-4.75-13.22,5.41-27.26,8.56-41.42,10.14,.84,3.62,2.43,7.2,4.74,10.03Z"/><path class="cls-4" d="M204.32,168.74c-4.37-12.56-4.29-28.96-13.08-39.15-5.11-5.81-11.55-9.78-18.39-13.23l-3.29,4.18c-3.2,4.42-6.35,8.41-9.12,12.62-9.35,13.44-13.2,28.91-18.92,44.4-8.18-21.57-2-49.58,17.35-62.88-1.81-3.07-3.86-6.51-5.29-8.84l-.24-.36c-.08-.14-.08-.07-.12-.12l-7.63-18.42c21.97,11.34,52.69,20.77,59.89,47.55,2.82,11.41,2.76,23.19-1.16,34.25Z"/><path class="cls-4" d="M304.37,227.39c-10.19,19.06-17.93,39.87-30.46,58.05l-2.49,3.77c-6.82-1.01-13.76-2.06-20.57-3.22-14.51-2.47-34.36-5.85-48.81-8.67,20.3-4.73,41.39-5,62.13-3.76,9.51-13.92,16.34-29.28,24.4-44.38l-10.34-11.71c-15.34-17.76-26.59-29.71-23.46-52.64-6.76-1.93-13.47-4.04-20.13-6.34-8.97-3.36-18.27-6.06-25.88-12.27,9.67,.15,18.54,2.05,28.01,2.95,11,1.29,24.23,2.62,35.09,4.38-1.62,7.66-4.32,17.81-2.96,24.71,2.2,11.15,12.23,21.25,19.55,30.44,2.06,2.42,14.13,16.59,15.92,18.69Z"/><path class="cls-2" d="M191.06,275.18c-.1,.12-.19,.26-.29,.38l-.55,.74-1.2,1.61s-.02,.04-.04,.05c-9.59,12.91-20.04,26.4-30.58,38.57l-1.44-8.24-2.86-16.36-33.58,41.3c-3.4-2.08-6.7-4.29-9.92-6.63,19.76-21.75,44.84-49.38,48.87-53.81,.64,4.16,2.61,17.17,4,26.29,7.49-7.91,15.5-15.92,23.1-23.32l.13-.13,1.6-1.56,.36-.36c.16-.16,.33-.33,.5-.49,.55-.5,1.21-.92,2.49-.79,.33,1.37-.09,2.09-.58,2.75Z"/><path class="cls-2" d="M166.64,279.12c4.85-1.32,21.62-5.88,26.16-7.11-1.34,4.38-6.26,20.51-7.68,25.17l-3.35-19.11,4.69,4.79-19.81-3.74h0Z"/><polygon class="cls-4" points="224.05 186.8 245.47 206.12 244.63 190.16 224.05 186.8 224.05 186.8"/></g></svg>