<svg id="eTFCZ1jE8qK1" xmlns="http://www.w3.org/2000/svg" xmlns:xlink="http://www.w3.org/1999/xlink" viewBox="0 0 870 870" shape-rendering="geometricPrecision" text-rendering="geometricPrecision"><style><![CDATA[#eTFCZ1jE8qK26_tr {animation: eTFCZ1jE8qK26_tr__tr 4500ms linear infinite normal forwards}@keyframes eTFCZ1jE8qK26_tr__tr { 0% {transform: translate(435px,532.399475px) rotate(0deg)} 66.666667% {transform: translate(435px,532.399475px) rotate(360deg)} 100% {transform: translate(435px,532.399475px) rotate(360deg)}} #eTFCZ1jE8qK33_tr {animation: eTFCZ1jE8qK33_tr__tr 4500ms linear infinite normal forwards}@keyframes eTFCZ1jE8qK33_tr__tr { 0% {transform: translate(442px,533.399475px) rotate(0deg)} 1.111111% {transform: translate(442px,533.399475px) rotate(0deg)} 67.777778% {transform: translate(442px,533.399475px) rotate(360deg)} 100% {transform: translate(442px,533.399475px) rotate(360deg)}}]]></style><defs><filter id="eTFCZ1jE8qK33-filter" x="-150%" width="400%" y="-150%" height="400%"><feGaussianBlur id="eTFCZ1jE8qK33-filter-blur-0" stdDeviation="10,10" result="result"/></filter></defs><g clip-path="url(#eTFCZ1jE8qK58)"><g><g clip-path="url(#eTFCZ1jE8qK56)"><g><g><path d="M435,870c240.244,0,435-194.756,435-435s-194.756-435-435-435-435,194.756-435,435s194.756,435,435,435Z" fill="#11a9a1"/><path d="M433.398,615.249c38.05,0,68.895-30.846,68.895-68.895c0-38.05-30.845-68.896-68.895-68.896s-68.895,30.846-68.895,68.896c0,38.049,30.845,68.895,68.895,68.895Z" fill="none" stroke="#231f20" stroke-width="11" stroke-linejoin="round"/><path d="M433.398,684.144c76.099,0,137.79-61.691,137.79-137.79c0-76.1-61.691-137.791-137.79-137.791-76.1,0-137.79,61.691-137.79,137.791c0,76.099,61.69,137.79,137.79,137.79Z" fill="none" stroke="#231f20" stroke-width="11" stroke-linejoin="round"/><path d="M433.398,753.039c114.149,0,206.685-92.536,206.685-206.685c0-114.15-92.536-206.686-206.685-206.686s-206.685,92.536-206.685,206.686c0,114.149,92.536,206.685,206.685,206.685Z" fill="none" stroke="#231f20" stroke-width="11" stroke-linejoin="round"/><path d="M433.398,815.525c148.659,0,269.171-120.512,269.171-269.171c0-148.66-120.512-269.172-269.171-269.172s-269.171,120.512-269.171,269.172c0,148.659,120.512,269.171,269.171,269.171Z" fill="none" stroke="#231f20" stroke-width="11" stroke-linejoin="round"/><path d="M472.652,613.646c10.176,0,18.426-8.249,18.426-18.425s-8.25-18.425-18.426-18.425-18.425,8.249-18.425,18.425s8.249,18.425,18.425,18.425Z" fill="#ef492f"/><path d="M472.652,613.646c10.176,0,18.426-8.249,18.426-18.425s-8.25-18.425-18.426-18.425-18.425,8.249-18.425,18.425s8.249,18.425,18.425,18.425Z" fill="none" stroke="#231f20" stroke-width="11" stroke-linejoin="round"/><path d="M319.641,633.674c10.176,0,18.425-8.249,18.425-18.425s-8.249-18.426-18.425-18.426-18.425,8.25-18.425,18.426s8.249,18.425,18.425,18.425Z" fill="#ef492f"/><path d="M319.641,633.674c10.176,0,18.425-8.249,18.425-18.425s-8.249-18.426-18.425-18.426-18.425,8.25-18.425,18.426s8.249,18.425,18.425,18.425Z" fill="none" stroke="#231f20" stroke-width="11" stroke-linejoin="round"/><path d="M527.127,471.851c10.176,0,18.426-8.25,18.426-18.426s-8.25-18.425-18.426-18.425-18.425,8.249-18.425,18.425s8.249,18.426,18.425,18.426Z" fill="#ffde1b"/><path d="M527.127,471.851c10.176,0,18.426-8.25,18.426-18.426s-8.25-18.425-18.426-18.425-18.425,8.249-18.425,18.425s8.249,18.426,18.425,18.426Z" fill="none" stroke="#231f20" stroke-width="11" stroke-linejoin="round"/><path d="M282.79,426.989c10.176,0,18.426-8.249,18.426-18.425s-8.25-18.426-18.426-18.426-18.425,8.25-18.425,18.426s8.249,18.425,18.425,18.425Z" fill="#ef492f"/><path d="M282.79,426.989c10.176,0,18.426-8.249,18.426-18.425s-8.25-18.426-18.426-18.426-18.425,8.25-18.425,18.426s8.249,18.425,18.425,18.425Z" fill="none" stroke="#231f20" stroke-width="11" stroke-linejoin="round"/><path d="M395.746,762.652c10.176,0,18.425-8.249,18.425-18.425s-8.249-18.426-18.425-18.426-18.425,8.25-18.425,18.426s8.249,18.425,18.425,18.425Z" fill="#ffde1b"/><path d="M395.746,762.652c10.176,0,18.425-8.249,18.425-18.425s-8.249-18.426-18.425-18.426-18.425,8.25-18.425,18.426s8.249,18.425,18.425,18.425Z" fill="none" stroke="#231f20" stroke-width="11" stroke-linejoin="round"/><path d="M644.89,725.801c10.176,0,18.425-8.249,18.425-18.425s-8.249-18.426-18.425-18.426-18.426,8.25-18.426,18.426s8.25,18.425,18.426,18.425Z" fill="#ef492f"/><path d="M644.89,725.801c10.176,0,18.425-8.249,18.425-18.425s-8.249-18.426-18.425-18.426-18.426,8.25-18.426,18.426s8.25,18.425,18.426,18.425Z" fill="none" stroke="#231f20" stroke-width="11" stroke-linejoin="round"/><path d="M640.083,392.542c10.176,0,18.425-8.25,18.425-18.426s-8.249-18.425-18.425-18.425-18.425,8.249-18.425,18.425s8.249,18.426,18.425,18.426Z" fill="#ffde1b"/><path d="M640.083,392.542c10.176,0,18.425-8.25,18.425-18.426s-8.249-18.425-18.425-18.425-18.425,8.249-18.425,18.425s8.249,18.426,18.425,18.426Z" fill="none" stroke="#231f20" stroke-width="11" stroke-linejoin="round"/><g id="eTFCZ1jE8qK26_tr" transform="translate(435,532.399475) rotate(0)"><g transform="translate(-434.999999,-532.399475)" clip-path="url(#eTFCZ1jE8qK31)"><g><g><path d="M739.053,616.712L443.305,538.894c-4.471-.517-3.328-4.175-3.315-4.229.607-2.441,2.789-2.483,5.541-2.08l299.096,42.559c2.773.531.692,15.409.192,18.016l-1.508,7.868c-.499,2.607-1.485,16.217-4.258,15.684Z" fill="#231f20" fill-rule="evenodd"/><path d="M739.053,616.712L443.305,538.894c-4.471-.517-3.328-4.175-3.315-4.229.607-2.441,2.789-2.483,5.541-2.08l299.096,42.559c2.773.531.692,15.409.192,18.016l-1.508,7.868c-.499,2.607-1.485,16.217-4.258,15.684Z" fill="#231f20" fill-rule="evenodd"/></g></g><clipPath id="eTFCZ1jE8qK31"><path d="M739.053,616.712L443.305,538.894c-4.471-.517-3.328-4.175-3.315-4.229.607-2.441,2.789-2.483,5.541-2.08l299.096,42.559c2.773.531.692,15.409.192,18.016l-1.508,7.868c-.499,2.607-1.485,16.217-4.258,15.684Z" fill="#fff" fill-rule="evenodd"/></clipPath></g></g><g id="eTFCZ1jE8qK33_tr" transform="translate(442,533.399475) rotate(0)"><g transform="translate(-434.999999,-532.399475)" opacity="0.35" clip-path="url(#eTFCZ1jE8qK38)" filter="url(#eTFCZ1jE8qK33-filter)"><g><g><path d="M739.053,616.712L443.305,538.894c-4.471-.517-3.328-4.175-3.315-4.229.607-2.441,2.789-2.483,5.541-2.08l299.096,42.559c2.773.531.692,15.409.192,18.016l-1.508,7.868c-.499,2.607-1.485,16.217-4.258,15.684Z" fill="#231f20" fill-rule="evenodd"/><path d="M739.053,616.712L443.305,538.894c-4.471-.517-3.328-4.175-3.315-4.229.607-2.441,2.789-2.483,5.541-2.08l299.096,42.559c2.773.531.692,15.409.192,18.016l-1.508,7.868c-.499,2.607-1.485,16.217-4.258,15.684Z" fill="#231f20" fill-rule="evenodd"/></g></g><clipPath id="eTFCZ1jE8qK38"><path d="M739.053,616.712L443.305,538.894c-4.471-.517-3.328-4.175-3.315-4.229.607-2.441,2.789-2.483,5.541-2.08l299.096,42.559c2.773.531.692,15.409.192,18.016l-1.508,7.868c-.499,2.607-1.485,16.217-4.258,15.684Z" fill="#fff" fill-rule="evenodd"/></clipPath></g></g><g><path d="M435,19.933c-85.444,0-155,69.556-155,155c0,136.72,152.209,371.212,155,371.212c2.993-.194,155-237.399,155-371.212c0-85.444-69.556-155-155-155Zm0,73.927c34.657,0,66.975,27.096,66.975,67.766s-33.979,66.111-66.975,66.111-66.878-22.406-66.878-64.408c0-42.001,32.221-69.469,66.878-69.469Z" fill="#231f20" stroke="#231f20"/><path d="M435,27.548c-80.373,0-145.801,65.428-145.801,145.801C289.199,301.954,432.374,522.53,435,522.53c2.816-.182,145.801-223.309,145.801-349.181c0-80.373-65.428-145.801-145.801-145.801Zm0,69.539c32.6,0,63,25.488,63,63.744c0,38.257-31.963,62.188-63,62.188-31.038,0-62.909-21.077-62.909-60.585c0-39.509,30.309-65.347,62.909-65.347Z" fill="#ffde1b"/><g clip-path="url(#eTFCZ1jE8qK48)"><g><g><path d="M344.109,7.767L130.931,45.425l110,622.701l213.178-37.658-110-622.701Z" fill="#231f20"/><path d="M731.541,89.389L518.364,51.731l-110,622.701L621.541,712.09l110-622.701Z" fill="#ef492f"/></g></g><clipPath id="eTFCZ1jE8qK48"><path d="M435,27.548c-80.373,0-145.801,65.428-145.801,145.801C289.199,301.954,432.374,522.53,435,522.53c2.816-.182,145.801-223.309,145.801-349.181c0-80.373-65.428-145.801-145.801-145.801Zm0,69.539c32.6,0,63,25.488,63,63.744c0,38.257-31.963,62.188-63,62.188-31.038,0-62.909-21.077-62.909-60.585c0-39.509,30.309-65.347,62.909-65.347Z" fill="#fff"/></clipPath></g><g clip-path="url(#eTFCZ1jE8qK54)"><g><g><path d="M435,225c35.882,0,64.97-29.088,64.97-64.97c0-35.881-29.088-64.969-64.97-64.969s-64.97,29.088-64.97,64.969c0,35.882,29.088,64.97,64.97,64.97Z" fill="none" stroke="#231f20" stroke-width="20" stroke-linecap="square" stroke-miterlimit="3"/></g></g><clipPath id="eTFCZ1jE8qK54"><path d="M435,225c35.882,0,64.97-29.088,64.97-64.97c0-35.881-29.088-64.969-64.97-64.969s-64.97,29.088-64.97,64.969c0,35.882,29.088,64.97,64.97,64.97Z" fill="#fff"/></clipPath></g></g></g></g><clipPath id="eTFCZ1jE8qK56"><rect width="870" height="870" rx="0" ry="0" fill="#fff"/></clipPath></g></g><clipPath id="eTFCZ1jE8qK58"><rect width="870" height="870" rx="0" ry="0"/></clipPath></g></svg>