<svg width="400" height="400" viewBox="0 0 400 400" fill="none" xmlns="http://www.w3.org/2000/svg">
<rect width="400" height="400" fill="white"/>
<path d="M200 400C310.457 400 400 310.457 400 200C400 89.5431 310.457 0 200 0C89.5431 0 0 89.5431 0 200C0 310.457 89.5431 400 200 400Z" fill="#527A9A"/>
<path d="M238.71 295.091H103.226C101.71 295.091 100.241 294.795 98.8589 294.21C97.5229 293.645 96.3228 292.836 95.292 291.805C94.261 290.774 93.4518 289.574 92.8868 288.238C92.3021 286.856 92.0056 285.386 92.0056 283.871V81.6269C92.0056 80.1116 92.3021 78.6423 92.8868 77.2599C93.4518 75.924 94.261 74.7239 95.292 73.693C96.3228 72.6621 97.5229 71.8529 98.8589 71.2879C100.241 70.7032 101.71 70.4067 103.226 70.4067H238.71C240.225 70.4067 241.694 70.7032 243.077 71.2879C244.413 71.8529 245.613 72.6621 246.644 73.693C247.674 74.7239 248.484 75.924 249.049 77.2599C249.633 78.6423 249.93 80.1116 249.93 81.6269V283.871C249.93 285.386 249.633 286.856 249.049 288.238C248.484 289.574 247.674 290.774 246.644 291.805C245.613 292.836 244.413 293.645 243.077 294.21C241.694 294.795 240.225 295.091 238.71 295.091Z" fill="#F3FAEF"/>
<path d="M103.226 71.8093C97.8123 71.8093 93.4081 76.2134 93.4081 81.6269V283.871C93.4081 289.284 97.8123 293.689 103.226 293.689H238.71C244.123 293.689 248.527 289.284 248.527 283.871V81.6269C248.527 76.2134 244.123 71.8093 238.71 71.8093H103.226ZM103.226 69.0042H238.71C245.681 69.0042 251.332 74.6556 251.332 81.6269V283.871C251.332 290.842 245.681 296.494 238.71 296.494H103.226C96.2544 296.494 90.6031 290.842 90.6031 283.871V81.6269C90.6031 74.6556 96.2544 69.0042 103.226 69.0042Z" fill="#0D181B"/>
<path d="M113.665 121.626L122.107 128.171" stroke="#0D181B" stroke-width="5" stroke-linecap="round"/>
<path d="M131.923 111.056L122.107 128.171" stroke="#0D181B" stroke-width="5" stroke-linecap="round"/>
<path d="M150.631 119.495H228.612" stroke="#0D181B" stroke-width="5" stroke-linecap="round"/>
<path d="M113.345 162.626L121.786 169.17" stroke="#0D181B" stroke-width="5" stroke-linecap="round"/>
<path d="M131.603 152.056L121.786 169.17" stroke="#0D181B" stroke-width="5" stroke-linecap="round"/>
<path d="M150.07 160.729H228.331" stroke="#0D181B" stroke-width="5" stroke-linecap="round"/>
<path d="M113.665 203.626L122.107 210.17" stroke="#0D181B" stroke-width="5" stroke-linecap="round"/>
<path d="M131.923 193.056L122.107 210.17" stroke="#0D181B" stroke-width="5" stroke-linecap="round"/>
<path d="M150.631 201.683H228.612" stroke="#0D181B" stroke-width="5" stroke-linecap="round"/>
<path d="M113.665 244.625L122.107 251.17" stroke="#0D181B" stroke-width="5" stroke-linecap="round"/>
<path d="M131.923 234.055L122.107 251.17" stroke="#0D181B" stroke-width="5" stroke-linecap="round"/>
<path d="M150.631 242.637H228.612" stroke="#0D181B" stroke-width="5" stroke-linecap="round"/>
<path d="M228.875 316.188C228.875 316.188 232.681 324.434 243.548 319.241C254.415 314.049 251.077 305.835 251.077 305.835L207.032 211.381L197.203 204.024L187.834 183.931L174.153 185.862L185.226 209.609L184.83 221.733L228.875 316.188Z" fill="#FF6569" stroke="#0D181B" stroke-width="4"/>
<path d="M187.231 227.128L209.508 216.666Z" fill="#FF6569"/>
<path d="M187.231 227.128L209.508 216.666" stroke="#0D181B" stroke-width="4"/>
<path d="M180.475 197.255L191.74 194.07" stroke="#0D181B" stroke-width="3"/>
<path d="M232.43 322.719C220.441 315.183 235.273 294.193 235.273 294.193L275.843 222.358C275.843 222.358 266.163 194.625 310.988 182.838C310.988 182.838 324.106 219.587 297.332 234.766L256.301 306.961C256.301 306.961 247.586 324.05 237.551 324.219C235.733 324.237 233.951 323.715 232.43 322.719V322.719Z" fill="#FF6569" stroke="#0D181B" stroke-width="4"/>
<path d="M275.846 222.86L297.396 234.728Z" fill="#FF6569"/>
<path d="M275.846 222.86L297.396 234.728" stroke="#0D181B" stroke-width="4"/>
<path d="M269.6 232.542L291.149 244.41Z" fill="#FF6569"/>
<path d="M269.6 232.542L291.149 244.41" stroke="#0D181B" stroke-width="4"/>
<path d="M281.423 225.591C281.423 225.591 280.17 201.735 299.658 194.801Z" fill="#FF6569"/>
<path d="M281.423 225.591C281.423 225.591 280.17 201.735 299.658 194.801" stroke="#0D181B" stroke-width="2" stroke-linecap="round"/>
<path d="M290.532 229.842C290.532 229.842 301.82 225.39 306.264 210.202Z" fill="#FF6569"/>
<path d="M290.532 229.842C290.532 229.842 301.82 225.39 306.264 210.202" stroke="#0D181B" stroke-width="2" stroke-linecap="round"/>
<path d="M285.287 227.42C285.287 227.42 290.306 207.426 307.868 195.268Z" fill="#FF6569"/>
<path d="M285.287 227.42C285.287 227.42 290.306 207.426 307.868 195.268" stroke="#0D181B" stroke-width="2" stroke-linecap="round"/>
</svg>
