<svg width="1000" height="1000" viewBox="0 0 1000 1000" fill="none" xmlns="http://www.w3.org/2000/svg">
<circle cx="500" cy="500" r="500" fill="#234E70"/>
<path fill-rule="evenodd" clip-rule="evenodd" d="M454.19 297.28L454.232 297.267L454.233 297.266L454.235 297.266C460.862 295.15 467.839 292.922 476.09 289.48C492.761 282.65 510.46 278.668 528.45 277.7C526.91 258.29 526.77 242.08 526.66 229.09C526.46 205.9 526.34 192.99 518.54 190.43C502.54 185.2 470.05 228.67 453.86 271.28C450.339 280.591 447.661 290.2 445.86 299.99C448.62 299.05 451.37 298.17 454.18 297.28H454.19ZM592.12 282.79H592.22C602.72 284.57 611.39 286.36 618.98 287.93L619.261 287.988C638.558 291.954 650.774 294.466 668.12 291.48C678.74 289.65 686.98 288.12 694.4 281.38C708.86 268.23 714.4 240.54 700.47 220.73C686.76 201.22 660.79 198.73 643.87 204.56C625.46 210.85 617.45 226.94 605.47 251.06C600.261 261.297 595.783 271.89 592.07 282.76H592.12V282.79ZM629.74 566.38C631.08 568.71 632.4 570.96 633.69 573.16C646.28 594.7 655.87 611.11 656.03 635.11C656.09 643.94 655.81 670.86 635.81 691.71C632.41 695.26 618.52 709.7 597.41 711.93C578.4 713.94 563.37 705.04 540.81 689.7C537.13 687.21 533.67 684.8 530.31 682.45C526.583 663.088 518.636 640.081 507.942 609.125L507.942 609.124L507.83 608.8C507.51 607.848 507.186 606.907 506.86 605.961C506.727 605.575 506.593 605.188 506.46 604.8C506.194 604.011 505.928 603.24 505.653 602.444L505.61 602.32C492.04 613.16 479.3 624.24 467.69 635.48C458.076 628.636 447.765 622.827 436.93 618.15C455.29 601.15 471.85 583.52 491.85 562.15C454.02 451.38 450.32 433.49 447.85 418.88C446 408.02 444.64 397.81 443.64 388.21C453.805 391.386 463.461 394.546 472.477 397.497L472.484 397.499L472.485 397.5C473.657 397.883 474.819 398.264 475.97 398.64L482.17 400.64C493.31 404.29 523.76 414.18 562.57 424.84C547.99 386.25 535.59 343.36 530.69 299.58C529.69 291.92 529 284.6 528.48 277.76C536.68 277.27 543.67 277.34 548.89 277.41C560.997 277.569 571.3 279.315 591.781 282.785L592.05 282.83C584.703 304.515 581.029 327.275 581.18 350.17C581.221 360.828 582.289 371.457 584.37 381.91L584.371 381.918L584.372 381.918L584.372 381.919C586.171 391.855 587.619 399.855 585.23 414.85C584.413 419.971 583.237 425.029 581.713 429.986C611.807 437.824 645.378 445.611 678.24 451.19C694.91 454.02 722.81 452.16 759.81 442.51C782.73 436.53 804.09 430.61 812.22 428.13C793.61 435.4 702.51 475.21 610.87 530.27C612.979 534.326 615.023 538.184 616.948 541.819L616.953 541.828L617.004 541.924C617.542 542.94 618.071 543.939 618.59 544.92C623.12 553.48 626.94 560.71 629.74 566.38ZM581.676 430.024C575.134 428.326 568.742 426.608 562.58 424.92C566 433.92 569.55 442.69 573.14 451.19C574.06 449.31 574.91 447.493 575.69 445.74C577.33 442.12 578.69 438.75 579.8 435.59C580.504 433.666 581.12 431.81 581.676 430.024ZM569.39 556.33C556.48 564.82 543.8 573.57 531.54 582.51L653.97 655.33C643.56 596.18 616.63 563.99 569.39 556.33ZM481.69 646.15C477.08 642.52 473.25 639.51 470.06 637.15C469.684 636.865 469.299 636.606 468.906 636.341L468.8 636.27C468.42 636.01 468.04 635.76 467.67 635.49C432.92 669.11 408.39 704.1 403.36 738.23V738.28C401.5 750.73 395.45 791.92 415.46 804.92C434.19 817.14 466.3 798.49 476.06 792.82C483.11 788.71 513.06 770.32 526.59 736.22C533.47 718.95 534.14 702.68 530.24 682.48C508.2 667.04 492.69 654.83 481.69 646.15ZM207.26 663.47C213.9 630.49 262.48 616.11 280.03 610.92C285.79 609.17 365.09 586.99 436.85 618.14C424.9 629.22 412.19 639.99 397.27 651.34C360.79 679.08 335.43 697.92 296.2 705.92C266.57 712.92 199.59 719.13 207.26 663.47ZM315.98 362.04C306.63 425.09 291.95 487.06 255.76 497.69C231.39 504.86 200.32 487.82 191.09 467.4C178.02 438.48 208.61 395.52 241.61 376.4C262.447 364.791 288.324 361.041 315.97 362.04C318.168 347.277 320.072 332.354 321.895 318.071L322.05 316.86C328.93 262.89 334.69 217.71 350.75 216.71C365.12 215.83 382.84 248.8 385.12 253.08C392.53 266.95 395.41 280.16 397.71 290.73L397.773 291.016C400.409 303.016 402.286 311.557 409.38 313.73C413.09 314.87 415.8 313.51 422.63 310.06C425.05 308.84 427.97 307.37 431.63 305.65C436.27 303.497 441.027 301.608 445.88 299.99C442.11 319.7 439.53 348.66 443.59 388.17C404.443 375.921 358.147 363.542 315.98 362.04Z" fill="#F8F4C0"/>
</svg>