<svg width="400" height="400" viewBox="0 0 400 400" fill="none" xmlns="http://www.w3.org/2000/svg">
<rect width="400" height="400" fill="white"/>
<path d="M400 200C400 310.457 310.457 400 200 400C89.5431 400 0 310.457 0 200C0 89.5431 89.5431 0 200 0C310.457 0 400 89.5431 400 200Z" fill="#FFF3F0"/>
<path opacity="0.2" d="M200 142.313C200 140.488 201.479 139.009 203.304 139.009V139.009C205.129 139.009 206.609 140.488 206.609 142.313V162.139C206.609 163.964 205.129 165.443 203.304 165.443V165.443C201.479 165.443 200 163.964 200 162.139V142.313Z" fill="#E02D00"/>
<path opacity="0.2" d="M345.391 142.313C345.391 140.488 346.871 139.009 348.696 139.009V139.009C350.521 139.009 352 140.488 352 142.313V162.139C352 163.964 350.521 165.443 348.696 165.443V165.443C346.871 165.443 345.391 163.964 345.391 162.139V142.313Z" fill="#E02D00"/>
<path opacity="0.2" d="M215.861 138.348C215.861 135.793 217.932 133.722 220.487 133.722V133.722C223.042 133.722 225.113 135.793 225.113 138.348V166.104C225.113 168.659 223.042 170.73 220.487 170.73V170.73C217.932 170.73 215.861 168.659 215.861 166.104V138.348Z" fill="#E02D00"/>
<path opacity="0.2" d="M326.887 138.348C326.887 135.793 328.958 133.722 331.513 133.722V133.722C334.068 133.722 336.139 135.793 336.139 138.348V166.104C336.139 168.659 334.068 170.73 331.513 170.73V170.73C328.958 170.73 326.887 168.659 326.887 166.104V138.348Z" fill="#E02D00"/>
<path opacity="0.2" d="M234.365 125.13C234.365 122.576 236.436 120.504 238.991 120.504V120.504C241.546 120.504 243.617 122.576 243.617 125.13V174.035C243.617 176.59 241.546 178.661 238.991 178.661V178.661C236.436 178.661 234.365 176.59 234.365 174.035V125.13Z" fill="#E02D00"/>
<path opacity="0.2" d="M308.383 125.13C308.383 122.576 310.454 120.504 313.009 120.504V120.504C315.564 120.504 317.635 122.576 317.635 125.13V174.035C317.635 176.59 315.564 178.661 313.009 178.661V178.661C310.454 178.661 308.383 176.59 308.383 174.035V125.13Z" fill="#E02D00"/>
<path opacity="0.2" d="M271.374 125.13C271.374 122.576 273.445 120.504 276 120.504V120.504C278.555 120.504 280.626 122.576 280.626 125.13V174.035C280.626 176.59 278.555 178.661 276 178.661V178.661C273.445 178.661 271.374 176.59 271.374 174.035V125.13Z" fill="#E02D00"/>
<path opacity="0.2" d="M252.87 106.626C252.87 104.071 254.941 102 257.496 102V102C260.051 102 262.122 104.071 262.122 106.626V187.252C262.122 189.807 260.051 191.878 257.496 191.878V191.878C254.941 191.878 252.87 189.807 252.87 187.252V106.626Z" fill="#E02D00"/>
<path opacity="0.2" d="M289.878 106.626C289.878 104.071 291.949 102 294.504 102V102C297.059 102 299.13 104.071 299.13 106.626V187.252C299.13 189.807 297.059 191.878 294.504 191.878V191.878C291.949 191.878 289.878 189.807 289.878 187.252V106.626Z" fill="#E02D00"/>
<path d="M247.461 236.744H251.013L243.957 269H239.157L232.101 236.744H235.605L239.013 252.776C240.229 259.208 241.077 263.512 241.557 265.688C241.813 264.408 242.245 262.2 242.853 259.064C243.525 255.64 245.061 248.2 247.461 236.744ZM280.386 269L278.418 259.976H269.778L267.81 269H264.402L271.698 236.744H276.498L283.794 269H280.386ZM270.402 257H277.746L274.05 240.056L270.402 257ZM299.465 243.32C299.465 238.776 302.345 236.504 308.105 236.504C309.961 236.504 311.817 236.76 313.673 237.272V240.44C311.785 239.896 309.897 239.624 308.009 239.624C306.121 239.624 304.793 239.96 304.025 240.632C303.257 241.272 302.873 242.232 302.873 243.512V262.28C302.873 263.528 303.257 264.488 304.025 265.16C304.825 265.8 306.201 266.12 308.153 266.12C310.137 266.12 312.009 265.864 313.769 265.352V268.472C312.169 268.984 310.281 269.24 308.105 269.24C302.345 269.24 299.465 266.968 299.465 262.424V243.32Z" fill="black"/>
<path d="M247.461 236.744V235.744H246.648L246.482 236.539L247.461 236.744ZM251.013 236.744L251.989 236.958L252.255 235.744H251.013V236.744ZM243.957 269V270H244.761L244.933 269.214L243.957 269ZM239.157 269L238.18 269.214L238.352 270H239.157V269ZM232.101 236.744V235.744H230.858L231.124 236.958L232.101 236.744ZM235.605 236.744L236.583 236.536L236.414 235.744H235.605V236.744ZM239.013 252.776L239.995 252.59L239.993 252.579L239.991 252.568L239.013 252.776ZM241.557 265.688L240.58 265.903L242.537 265.884L241.557 265.688ZM242.853 259.064L241.871 258.871L241.871 258.874L242.853 259.064ZM247.461 237.744H251.013V235.744H247.461V237.744ZM250.036 236.53L242.98 268.786L244.933 269.214L251.989 236.958L250.036 236.53ZM243.957 268H239.157V270H243.957V268ZM240.133 268.786L233.077 236.53L231.124 236.958L238.18 269.214L240.133 268.786ZM232.101 237.744H235.605V235.744H232.101V237.744ZM234.626 236.952L238.034 252.984L239.991 252.568L236.583 236.536L234.626 236.952ZM238.03 252.962C239.246 259.392 240.096 263.71 240.58 265.903L242.533 265.473C242.057 263.314 241.212 259.024 239.995 252.59L238.03 252.962ZM242.537 265.884C242.794 264.601 243.226 262.39 243.834 259.254L241.871 258.874C241.263 262.01 240.831 264.215 240.576 265.492L242.537 265.884ZM243.834 259.257C244.504 255.84 246.039 248.407 248.439 236.949L246.482 236.539C244.082 247.993 242.545 255.44 241.871 258.871L243.834 259.257ZM280.386 269L279.409 269.213L279.581 270H280.386V269ZM278.418 259.976L279.395 259.763L279.223 258.976H278.418V259.976ZM269.778 259.976V258.976H268.973L268.801 259.763L269.778 259.976ZM267.81 269V270H268.615L268.787 269.213L267.81 269ZM264.402 269L263.427 268.779L263.15 270H264.402V269ZM271.698 236.744V235.744H270.899L270.723 236.523L271.698 236.744ZM276.498 236.744L277.473 236.523L277.297 235.744H276.498V236.744ZM283.794 269V270H285.045L284.769 268.779L283.794 269ZM270.402 257L269.424 256.79L269.164 258H270.402V257ZM277.746 257V258H278.988L278.723 256.787L277.746 257ZM274.05 240.056L275.027 239.843L273.072 239.846L274.05 240.056ZM281.363 268.787L279.395 259.763L277.441 260.189L279.409 269.213L281.363 268.787ZM278.418 258.976H269.778V260.976H278.418V258.976ZM268.801 259.763L266.833 268.787L268.787 269.213L270.755 260.189L268.801 259.763ZM267.81 268H264.402V270H267.81V268ZM265.377 269.221L272.673 236.965L270.723 236.523L263.427 268.779L265.377 269.221ZM271.698 237.744H276.498V235.744H271.698V237.744ZM275.523 236.965L282.819 269.221L284.769 268.779L277.473 236.523L275.523 236.965ZM283.794 268H280.386V270H283.794V268ZM270.402 258H277.746V256H270.402V258ZM278.723 256.787L275.027 239.843L273.073 240.269L276.769 257.213L278.723 256.787ZM273.072 239.846L269.424 256.79L271.38 257.21L275.028 240.266L273.072 239.846ZM313.673 237.272H314.673V236.511L313.939 236.308L313.673 237.272ZM313.673 240.44L313.396 241.401L314.673 241.769V240.44H313.673ZM304.025 240.632L304.665 241.4L304.674 241.393L304.683 241.385L304.025 240.632ZM304.025 265.16L303.366 265.913L303.383 265.927L303.4 265.941L304.025 265.16ZM313.769 265.352H314.769V264.02L313.489 264.392L313.769 265.352ZM313.769 268.472L314.074 269.424L314.769 269.202V268.472H313.769ZM300.465 243.32C300.465 241.274 301.101 239.895 302.244 238.993C303.432 238.056 305.329 237.504 308.105 237.504V235.504C305.12 235.504 302.698 236.088 301.005 237.423C299.268 238.793 298.465 240.822 298.465 243.32H300.465ZM308.105 237.504C309.868 237.504 311.634 237.747 313.407 238.236L313.939 236.308C311.999 235.773 310.054 235.504 308.105 235.504V237.504ZM312.673 237.272V240.44H314.673V237.272H312.673ZM313.95 239.479C311.975 238.91 309.994 238.624 308.009 238.624V240.624C309.799 240.624 311.594 240.882 313.396 241.401L313.95 239.479ZM308.009 238.624C306.061 238.624 304.418 238.959 303.366 239.879L304.683 241.385C305.167 240.961 306.181 240.624 308.009 240.624V238.624ZM303.385 239.864C302.328 240.745 301.873 242.025 301.873 243.512H303.873C303.873 242.439 304.186 241.799 304.665 241.4L303.385 239.864ZM301.873 243.512V262.28H303.873V243.512H301.873ZM301.873 262.28C301.873 263.746 302.334 265.009 303.366 265.913L304.683 264.407C304.18 263.967 303.873 263.31 303.873 262.28H301.873ZM303.4 265.941C304.479 266.804 306.151 267.12 308.153 267.12V265.12C306.251 265.12 305.171 264.796 304.65 264.379L303.4 265.941ZM308.153 267.12C310.224 267.12 312.19 266.853 314.048 266.312L313.489 264.392C311.827 264.875 310.05 265.12 308.153 265.12V267.12ZM312.769 265.352V268.472H314.769V265.352H312.769ZM313.464 267.52C311.987 267.992 310.206 268.24 308.105 268.24V270.24C310.355 270.24 312.351 269.976 314.074 269.424L313.464 267.52ZM308.105 268.24C305.329 268.24 303.432 267.688 302.244 266.751C301.101 265.849 300.465 264.47 300.465 262.424H298.465C298.465 264.922 299.268 266.951 301.005 268.321C302.698 269.656 305.12 270.24 308.105 270.24V268.24ZM300.465 262.424V243.32H298.465V262.424H300.465Z" fill="black"/>
<mask id="mask0_646_64" style="mask-type:alpha" maskUnits="userSpaceOnUse" x="-18" y="19" width="201" height="429">
<path fill-rule="evenodd" clip-rule="evenodd" d="M165.562 203.018C147.49 202.284 118.407 201.103 116.106 203.403C112.813 206.696 116.106 447.627 116.106 447.627L-4.08478 297.8C-46.3576 179.663 12.9969 72.5513 102.386 19C119.504 99.0517 169.254 178.385 178.473 193.086C179.101 194.088 179.54 194.789 179.769 195.171C183.357 201.153 183.096 202.755 179.769 203.403C179.107 203.568 173.36 203.335 165.562 203.018ZM79.3356 130.959C88.1256 130.959 95.2513 123.833 95.2513 115.043C95.2513 106.253 88.1256 99.1274 79.3356 99.1274C70.5456 99.1274 63.4199 106.253 63.4199 115.043C63.4199 123.833 70.5456 130.959 79.3356 130.959Z" fill="url(#paint0_linear_646_64)"/>
</mask>
<g mask="url(#mask0_646_64)">
<path d="M400 200C400 310.457 310.457 400 200 400C89.5431 400 0 310.457 0 200C0 89.5431 89.5431 0 200 0C310.457 0 400 89.5431 400 200Z" fill="url(#paint1_linear_646_64)"/>
<path d="M400 200C400 310.457 310.457 400 200 400C89.5431 400 0 310.457 0 200C0 89.5431 89.5431 0 200 0C310.457 0 400 89.5431 400 200Z" stroke="url(#paint2_linear_646_64)"/>
</g>
<defs>
<linearGradient id="paint0_linear_646_64" x1="82.1815" y1="19" x2="82.1815" y2="447.627" gradientUnits="userSpaceOnUse">
<stop offset="0.576647" stop-color="#FF8D70"/>
<stop offset="1" stop-color="#FFF3F0" stop-opacity="0"/>
</linearGradient>
<linearGradient id="paint1_linear_646_64" x1="200" y1="0" x2="200" y2="400" gradientUnits="userSpaceOnUse">
<stop offset="0.639234" stop-color="#FF8D70"/>
<stop offset="1" stop-color="#FFF3F0" stop-opacity="0"/>
</linearGradient>
<linearGradient id="paint2_linear_646_64" x1="200" y1="0" x2="200" y2="400" gradientUnits="userSpaceOnUse">
<stop stop-color="#FF8D70"/>
<stop offset="1" stop-color="#FF8D70" stop-opacity="0"/>
</linearGradient>
</defs>
</svg>
