<svg width="1200" height="1200" viewBox="0 0 1200 1200" fill="none" xmlns="http://www.w3.org/2000/svg">
<g clip-path="url(#clip0_69_179)">
<path d="M600 1200C931.371 1200 1200 931.371 1200 600C1200 268.629 931.371 0 600 0C268.629 0 0 268.629 0 600C0 931.371 268.629 1200 600 1200Z" fill="#0A0839"/>
<path d="M431.265 1175.95C446.775 1159.32 457.583 1137.95 461.18 1113.68C470.911 1050.24 427.202 991.098 363.478 981.681C301.798 972.249 244.16 1013.33 232.332 1074.19C290.944 1119.7 358.219 1154.58 431.265 1175.95Z" fill="#F14A3B"/>
<path d="M909.172 1114.32C818.879 1168.71 713.094 1200 600 1200C583.602 1200 567.357 1199.34 551.292 1198.05C556.103 1192.61 561.116 1187.34 566.327 1182.24C595.196 1153.38 629.207 1130.79 667.217 1115.07C706.371 1098.77 747.808 1090.47 790.387 1090.75C831.383 1091.02 871.318 1098.7 909.172 1114.32Z" fill="white"/>
<path d="M1156.82 823.925C1138.69 786.926 1113.47 753.477 1082.24 725.764C1081.53 725.055 1080.75 724.416 1079.97 723.777C1079.18 723.13 1078.39 722.483 1077.67 721.764C975.667 634.057 825.358 619.802 710.75 689.268C640.443 732.148 610.436 736.441 582.432 733.018C582.004 732.876 581.576 732.876 581.148 732.876C580.719 732.876 580.289 732.876 579.86 732.733C544.141 727.311 512.997 708.744 491.571 679.886C470.145 651.029 461.58 615.596 466.731 580.16C472.169 544.438 490.75 513.285 519.617 491.847C548.484 470.408 583.921 461.827 619.355 466.963C658.218 472.67 692.219 495.238 713.072 528.096L869.979 429.472C820.273 350.612 738.842 297.764 646.543 283.782C604.251 277.504 561.386 279.8 519.948 290.382C479.938 300.679 442.785 318.404 409.631 342.987C375.905 367.571 348.179 398.154 326.739 433.307C320.736 443.311 315.018 453.599 310.158 464.174C297.292 491.896 288.141 521.617 284.419 552.767C278.123 595.061 280.4 637.925 290.964 679.359C301.243 719.364 318.952 756.509 343.52 789.653C368.088 823.368 398.659 851.08 433.804 872.504C470.377 894.786 510.38 909.065 552.958 915.629C554.958 915.914 556.959 916.199 558.959 916.485C590.963 922.193 626.684 923.614 668.98 911.031C704.376 900.817 728.389 886.481 761.203 866.89C771.573 860.699 782.823 853.983 795.588 846.706C850.462 815.259 915.328 825.818 957.613 862.387L959.327 864.101C978.184 881.243 992.181 903.244 999.034 927.818C1005.89 951.821 1005.88 976.968 999.018 1000.97L1036.54 1011.62C1087.54 957.557 1128.61 894.018 1156.82 823.925Z" fill="#44DBA4"/>
<path d="M1074.5 232.73C1058.2 263.41 1047.07 297.019 1041.74 332.559C1029.72 414.29 1049.99 495.729 1098.56 562.015C1125.54 598.416 1159.42 627.921 1198.02 649.111C1199.33 632.914 1200 616.535 1200 600C1200 461.644 1153.17 334.225 1074.5 232.73Z" fill="#FCB70F"/>
</g>
<defs>
<clipPath id="clip0_69_179">
<rect width="1200" height="1200" fill="white"/>
</clipPath>
</defs>
</svg>
