<svg height="50" viewBox="0 0 197 50" width="197" xmlns="http://www.w3.org/2000/svg"><g fill="none" fill-rule="evenodd"><path d="m10.4623648 6.74525225c-5.6311479 0-10.196831 4.56568315-10.196831 10.19960565 0 5.6325352 4.5656831 10.1996056 10.196831 10.1996056h10.196831v-10.1996056c0-5.6339225-4.5642958-10.19960565-10.196831-10.19960565zm3.3989437 13.59854925h-3.3961691-.0027746c-1.87704931 0-3.39894367-1.5218943-3.39894367-3.3989436 0-1.8784366 1.52189436-3.400331 3.39894367-3.400331 1.8770493 0 3.3989437 1.5218944 3.3989437 3.400331z" fill="#f58732"/><g fill="#00a5da"><path d="m48.9392117 6.72410944c-2.2904718 0-4.7210634.41480986-6.0057254.72695774-.4161971.1040493-.6589788.38428874-.6589788.76580282v2.809331c0 .4522676.2760774.6270704.6242957.6270704h.1734155c1.0765634-.1040493 3.5404507-.2427817 5.7629437-.2427817 1.631493 0 2.6026197.4161972 2.6026197 2.3945211v1.2485916h-1.8742746c-5.9349719 0-8.5403662 1.8062958-8.5403662 5.8683803v.3107605c0 4.5143522 2.9175422 5.9724296 5.9377464 5.9724296 2.080986 0 3.4710846-.591 4.8251127-1.5635141v.5549296c0 .3815141.3121479.6950493.693662.6950493h3.8872817c.3815141 0 .693662-.3135352.693662-.6950493v-12.3915775c0-5.06789432-3.1228662-7.08090136-8.1213944-7.08090136zm2.6026197 15.48114786c-.8337817.4148099-1.8035211.7630282-2.8454014.7630282-1.4594648 0-2.1878099-.2774648-2.1878099-1.7355423v-.3107605c0-1.7022465.6256831-2.5360282 3.0548874-2.5360282h1.9783239z"/><path d="m61.9681258 26.8913879h4.2008169c.3815141 0 .6936619-.3482183.6936619-.7297324v-13.5721901c1.284662-.6950493 2.7774226-1.2152958 4.4768944-1.2152958h.2788521c.3121479 0 .5202465-.3482183.5202465-.6589789v-3.29905633c0-.38151409-.3135352-.69227465-.6950493-.69227465-1.666176 0-3.4017183.58822535-4.6863803 1.66478873v-.6950493c0-.38151408-.3121479-.69227464-.6936619-.69227464h-4.1300634c-.3829014 0-.6950493.31076056-.6950493.69227464v18.46805635c0 .3815141.346831.7297324.7297324.7297324"/><path d="m77.214483 21.2667604c0 4.9294395 2.013007 5.9391338 5.8309225 5.9391338 1.0085845 0 1.7022465-.1054366 2.7427394-.2799619.4161972-.0682564.6589789-.3482184.6589789-.6925522v-2.7080563c0-.3815141-.2760775-.591-.7269577-.591h-1.7022465c-1.0418803 0-1.1459296-.2427817-1.1459296-1.631493v-10.1011056h2.8481761c.381514 0 .6936619-.3135352.6936619-.6950493v-2.81349294c0-.38151409-.3121479-.69227465-.6936619-.69227465h-2.8481761v-3.6791831c0-.34821831-.2774648-.591-.6242958-.591h-.1040493l-4.2355.72834507c-.3815141.07075352-.6936619.31492254-.6936619.69643662v2.84540141h-2.7774226c-.3815141 0-.728345.34821831-.728345.72973239v2.2890845c0 .3815141.3468309.6617535.728345.7297324l2.7774226.4522676z"/><path d="m97.8059496 27.2054225c3.0202044 0 4.8958664-.2802394 7.1169714-.8337817.589613-.1387323.729733-.381514.729733-.9378309v-2.6373029c0-.381514-.278852-.5577042-.660366-.5577042h-.10405c-1.388711.1387324-4.478281.3135352-6.6647039.3135352-2.7427395 0-3.5765211-1.8049084-3.5765211-3.7846197v-.0679789h11.075007c.45088 0 .728345-.3135352.728345-.8337817v-2.0116197c0-5.2440845-2.881472-9.12997885-8.5736619-9.12997885-5.520162 0-8.7831479 3.53906335-8.7831479 9.12997885v2.4278169c0 6.702162 4.5115775 8.9232676 8.7123944 8.9232676zm-3.1589366-12.1168873c0-2.5332535 1.2846619-3.8525986 3.1936197-3.8525986 1.9450281 0 3.1256413 1.2860493 3.1256413 3.8525986v.1415071h-6.319261z"/><path d="m117.464607 27.2054225c4.064859 0 4.166412-.5563169 5.034876-3.6458873l4.373955-15.76138731c.033296-.06797888.033296-.1387324.033296-.20671127 0-.34683099-.277465-.58961268-.589613-.58961268h-4.582053c-.346831 0-.625683.31076057-.728345.72834507l-2.987186 13.60687329c-.102662.5202464-.312148.7297323-.55493.7297323-.242781 0-.41481-.2094859-.520246-.7297323l-2.985521-13.60687329c-.10405-.4175845-.381514-.72834507-.728345-.72834507h-4.583441c-.312148 0-.555207.24278169-.555207.58961268 0 .06797887 0 .13873239.03496.20671127l4.339272 15.76138731c.867078 3.0895704 1.094876 3.6458873 4.998528 3.6458873"/><path d="m137.228008 27.2054225c3.020482 0 4.896144-.2802394 7.116972-.8337817.589613-.1387323.729732-.381514.729732-.9378309v-2.6373029c0-.381514-.278852-.5577042-.660366-.5577042h-.104049c-1.388434.1387324-4.478004.3135352-6.664427.3135352-2.743017 0-3.576799-1.8049084-3.576799-3.7846197v-.0679789h11.075007c.450881 0 .728346-.3135352.728346-.8337817v-2.0116197c0-5.2440845-2.881195-9.12997885-8.573385-9.12997885-5.520439 0-8.783148 3.53906335-8.783148 9.12997885v2.4278169c0 6.702162 4.5113 8.9232676 8.712117 8.9232676zm-3.158937-12.1168873c0-2.5332535 1.284662-3.8525986 3.19362-3.8525986 1.945306 0 3.125918 1.2860493 3.125918 3.8525986v.1415071h-6.319538z"/><path d="m154.492616.26545056h-4.234112c-.382902 0-.729733.31353522-.729733.6950493v25.20212674c0 .3815141.346831.7283451.729733.7283451h4.234112c.381514 0 .660644-.346831.660644-.7283451v-25.20212674c0-.38151408-.27913-.6950493-.660644-.6950493"/><path d="m167.411266 27.2054225c2.671986 0 5.416113-.4189718 7.394437-.9045352.936443-.2067112 1.075176-.4494929 1.075176-1.0058098v-24.33366201c0-.38151408-.348219-.69504929-.729733-.69504929h-4.199429c-.381514 0-.693662.31353521-.693662.69504929v6.00572536c-1.007198-.14150705-2.153127-.2427817-2.846789-.2427817-5.867271 0-8.712394 3.43362675-8.712394 8.88719715v2.7066691c0 5.6228239 3.08957 8.8871971 8.712394 8.8871971zm-3.089571-11.5938662c0-2.4319788.624296-4.2368873 3.089571-4.2368873.832394 0 2.013007.0693662 2.846789.1748028v10.8280634c-.660367.1040493-1.702247.2094859-2.846789.2094859-2.465275 0-3.089571-1.8062957-3.089571-4.2687957z"/><path d="m188.320818 6.72410944c-5.520439 0-8.783148 3.53906336-8.783148 9.12997886v2.4278169c0 6.702162 4.5113 8.9232676 8.712395 8.9232676 3.020204 0 4.895866-.2802394 7.116971-.8337817.589613-.1387324.729455-.3815141.729455-.937831v-2.6373028c0-.3815141-.278574-.5577042-.660088-.5577042h-.10405c-1.388711.1387324-4.476894.3135352-6.664704.3135352-2.743017 0-3.576798-1.8049084-3.576798-3.7846197v-.0679789h11.075007c.45088 0 .728345-.3135352.728345-.8337817v-2.0116197c0-5.2440845-2.881195-9.12997886-8.573385-9.12997886zm3.089571 8.50568306h-6.319538v-.141507c0-2.5332535 1.284662-3.8525986 3.193897-3.8525986 1.945028 0 3.125641 1.2860493 3.125641 3.8525986z"/><path d="m45.7850752 40.3115828h-.5812887c-.1290211 0-.2358451.1193099-.2358451.2369549v5.000193c-.5452183.271638-1.1015352.4619789-1.5995845.4619789-.9003732 0-1.3026972-.3676409-1.3026972-1.5651789v-3.896993c0-.1301309-.1068239-.2369549-.2372324-.2369549h-.5688028c-.1290211 0-.2358451.106824-.2358451.2369549v3.896993c0 1.5762775.6395564 2.4638873 2.0601761 2.4638873.6992113 0 1.2319437-.1773 1.8839859-.543831v.225024c0 .1290211.094338.2355676.2247465.2355676h.5923873c.1304085 0 .2261338-.1065465.2261338-.2355676v-6.0420733c0-.1301309-.1082113-.2369549-.2261338-.2369549"/><path d="m50.6580506 40.2283711c-.6992113 0-1.233331.1792423-1.883986.5454958v-.2250239c0-.130131-.094338-.236955-.2247464-.236955h-.5923874c-.1304084 0-.2247464.106824-.2247464.236955v6.0406859c0 .130131.1068239.2369549.2247464.2369549h.5799015c.1304084 0 .2372323-.1179225.2372323-.2369549v-4.9974183c.5452184-.2730254 1.1015353-.4633662 1.5995846-.4633662.8989859 0 1.3026971.3676408 1.3026971 1.5651788v3.8956057c0 .130131.106824.2369549.2358451.2369549h.5701901c.1304085 0 .2372324-.1068239.2372324-.2369549v-3.8956057c0-1.5776647-.6409436-2.4655521-2.0615633-2.4655521"/><path d="m55.3998961 38.129239h-.603486c-.1317957 0-.2372324.1054366-.2372324.2361225v.6670254c0 .1306859.1054367.2372324.2372324.2372324h.603486c.1304084 0 .2372324-.1065465.2372324-.2372324v-.6670254c0-.1306859-.106824-.2361225-.2372324-.2361225"/><path d="m55.3757844 40.3115828h-.5688029c-.1290211 0-.2372323.106824-.2372323.2369549v6.0420733c0 .1290211.1082112.2355676.2372323.2355676h.5688029c.1304084 0 .2372324-.1065465.2372324-.2355676v-6.0420733c0-.1301309-.106824-.2369549-.2372324-.2369549"/><path d="m62.295451 40.3115828h-.6520423c-.094338 0-.1775774.0707535-.2247464.2261338l-1.3623522 5.1636197c-.0707535.2844014-.1428943.3440564-.2483309.3440564-.1193099 0-.1789648-.059655-.248331-.3440564l-1.3637395-5.1636197c-.047169-.1553803-.1304084-.2261338-.2247464-.2261338h-.6520423c-.1179225 0-.1886761.0832395-.1886761.2014395 0 .0246943 0 .047169.0110986.0829619l1.5995845 5.6397493c.153993.532455.201162.673962 1.0668522.673962.8865 0 .9114718-.141507 1.0654647-.673962l1.5995846-5.6397493c.0110985-.0357929.0110985-.0582676.0110985-.0829619 0-.1182-.0707535-.2014395-.188676-.2014395"/><path d="m66.0427239 40.2283711c-1.6953098 0-2.6303662 1.0782282-2.6303662 2.7718733v1.0671295c0 2.202793 1.3276691 2.8423493 2.6886338 2.8423493.7949367 0 1.4455916-.0707535 2.1212184-.2011619.1900633-.035793.2372324-.1190324.2372324-.2719155v-.4034338c0-.1182-.0957254-.165369-.1900634-.165369h-.059655c-.5452183.0818521-1.4206197.1306859-2.1087324.1306859-1.0890492 0-1.6453661-.5219113-1.6453661-1.931155v-.165369h3.9677464c.1415071 0 .2247465-.1079338.2247465-.2619267v-.6398338c0-1.6811592-.8754014-2.7718733-2.6053944-2.7718733zm1.5510282 2.8786972h-3.1381267v-.1068239c0-1.2788352.5674154-1.8590141 1.5870985-1.8590141 1.0418803 0 1.5510282.5202465 1.5510282 1.8590141z"/><path d="m72.8572869 40.2286486c-.5327324 0-1.0779507.1539929-1.670338.5688028v-.248331c0-.1304084-.0943381-.2372324-.2247465-.2372324h-.5577042c-.1304085 0-.2247465.106824-.2247465.2372324v6.0404085c0 .1304084.1068239.2372324.2247465.2372324h.5799014c.1304084 0 .2386197-.1179226.2386197-.2372324v-4.9624578c.5923873-.3551549 1.0890493-.4980493 1.6342676-.4980493.1664789 0 .248331-.0707535.248331-.2011619v-.4855634c0-.1428944-.0818521-.2136479-.248331-.2136479"/><path d="m77.159212 43.4040389-1.1722888-.6994888c-.5452183-.318807-.8171338-.5449408-.8171338-.9003732 0-.6045958.4370071-.6864479 1.1015352-.6864479.6631409 0 1.4220071.0596549 1.8354296.094338h.0360704c.1179226 0 .201162-.0596549.201162-.2011619v-.3912254c0-.1290211-.0707535-.212538-.2247465-.2375098-.5563169-.0940606-1.1847746-.1537155-1.8479155-.1537155-1.220845 0-2.1448028.3440563-2.1448028 1.5757225 0 .7466577.4869507 1.2558056 1.2083592 1.6942l1.1958732.7114197c.6756268.4012141.8892747.6273479.8892747.9822254 0 .6398338-.402324.8409957-1.1736761.8409957-.4259084 0-1.2902113-.0582676-1.8590141-.1304084h-.047169c-.1193098 0-.2136479.0721408-.2136479.1775775v.4148098c0 .130131.0943381.2025493.248331.2372324.5812887.1415071 1.434493.1775775 1.8715.1775775 1.327669 0 2.2155564-.5091479 2.2155564-1.7177845 0-.6975465-.3190846-1.2080817-1.3026972-1.7879831"/><path d="m80.9056525 40.3115828h-.5688028c-.1290211 0-.2372324.106824-.2372324.2369549v6.0420733c0 .1290211.1082113.2355676.2372324.2355676h.5688028c.1304085 0 .2372324-.1065465.2372324-.2355676v-6.0420733c0-.1301309-.1068239-.2369549-.2372324-.2369549"/><path d="m80.9297642 38.129239h-.6034859c-.1317958 0-.2372324.1054366-.2372324.2361225v.6670254c0 .1306859.1054366.2372324.2372324.2372324h.6034859c.1304085 0 .2372324-.1065465.2372324-.2372324v-.6670254c0-.1306859-.1068239-.2361225-.2372324-.2361225"/><path d="m86.2144696 46.0689494h-.6631409c-.4744648 0-.6395563-.094338-.6395563-.7461028v-4.1345028h1.2791127c.1304084 0 .2372324-.1054366.2372324-.2355676v-.4039887c0-.1304085-.106824-.2372324-.2372324-.2372324h-1.2791127v-1.2899338c0-.1195874-.0832394-.2028268-.1775775-.2028268h-.0360704l-.6145845.0957254c-.1304085.0235845-.2136479.1179225-.2136479.2372324v1.1598028h-1.1500915c-.1304085 0-.2247465.0832394-.2247465.2139253v.3188071c0 .1306859.094338.2025493.2247465.2136479l1.1500915.1304084v4.1345028c0 1.3024197.5202465 1.5868211 1.6106831 1.5868211.2247465 0 .5327324-.0235845.7699648-.0582676.153993-.0249718.2122606-.0954478.2122606-.2011619v-.4145324c0-.1195873-.0818521-.1667564-.248331-.1667564"/><path d="m92.543053 40.3115828h-.6631409c-.1082113 0-.2025493.0832395-.2247465.1792423l-1.4469788 5.4116732h-.1886761c-.0832394 0-.1650915-.0235845-.2261338-.2594296l-1.3970352-5.141145c-.0235845-.0946155-.106824-.1903409-.201162-.1903409h-.6520422c-.1415071 0-.2122606.0832395-.2122606.2014395 0 .0246943 0 .0593774.0110986.0829619l1.576 5.4147254c.2136479.7341718.5216338.8157465.8754014.8157465h.1664789l-.1179226.4869507c-.2011619.8282324-.4966619 1.0058098-1.1722887 1.0058098-.2608169 0-.7935493-.047169-1.0543662-.0707535h-.0360704c-.1304085 0-.2247465.0596549-.2247465.1886761v.4397816c0 .1179226.106824.1526057.248331.1886761.248331.0599324.6631408.1071014.9947113.1071014 1.3623521 0 1.8007464-.4744648 2.1683873-1.7538549l1.9547394-6.8228592c.0110986-.0235845.0110986-.0582676.0110986-.0829619 0-.1182-.0707535-.2014395-.188676-.2014395"/><path d="m99.5610808 40.2286486c-1.7424788 0-2.6303662 1.1500915-2.6303662 2.8911831v.8989859c0 1.7424789.8878874 2.8911831 2.6303662 2.8911831 1.7410912 0 2.6417422-1.1487042 2.6417422-2.8911831v-.8989859c0-1.7410916-.900651-2.8911831-2.6417422-2.8911831zm1.5981972 3.790169c0 1.2208451-.496662 1.9783239-1.5981972 1.9783239-1.1140211 0-1.5884859-.7685774-1.5884859-1.9783239v-.8989859c0-1.2208451.4855634-1.978324 1.5884859-1.978324 1.1126342 0 1.5981972.7699648 1.5981972 1.978324z"/><path d="m106.660295 38.2007694c-.15427-.0363479-.342669-.0710309-.663418-.0710309-1.042991 0-1.657575.3787394-1.657575 1.6456436v.8532042h-1.150369c-.130131 0-.224469.0957254-.224469.2136479v.3190845c0 .1193099.094338.2022719.224469.2133705l1.150369.1304084v5.1583479c0 .1179225.105437.2369549.235568.2369549h.579901c.119587 0 .225024-.1190324.225024-.2369549v-5.1583479h1.24443c.130408 0 .224746-.0832394.224746-.2008845v-.4619789c0-.1179225-.094338-.2136479-.224746-.2136479h-1.24443v-.8532042c0-.6509324.166201-.8160239.724183-.8160239h.567416c.130408 0 .213647-.0482789.213647-.1786874v-.3912253c0-.1054366-.094338-.1526056-.224746-.1886761"/><path d="m113.357102 40.2283711c-.806035 0-1.349866.0724183-1.836817.1542704-.165092.0249719-.246944.0943381-.246944.2244691v.4148098c0 .1556578.105437.1903409.212261.1903409h.059655c.473077-.0474465 1.04188-.0960028 1.811845-.0960028.923958 0 1.268014.3454436 1.268014 1.3387676v.4744647h-.876789c-2.108732 0-2.855112.6395564-2.855112 1.9186691v.1428943c0 1.4819395.923957 1.918669 1.931154 1.918669.663141 0 1.255251-.2480535 1.824331-.5799014v.2597071c0 .130131.105437.2369549.235845.2369549h.545219c.130408 0 .237232-.1068239.237232-.2369549v-4.1345028c0-1.3970353-.663141-2.226655-2.309894-2.226655zm1.268014 5.3553479c-.568803.3077085-1.054366.4744648-1.599585.4744648-.686725 0-1.090436-.2264113-1.090436-1.0796155v-.141507c0-.8407183.378739-1.1609127 1.813232-1.1609127h.876789z"/><path d="m119.816815 40.2286486c-.722796 0-1.552693.1193099-2.179486.2733028-.213648.047169-.249718.1179225-.249718.2719155v8.1505282c0 .1304084.095725.2247464.213648.2247464h.604596c.130685 0 .225023-.1068239.225023-.2247464v-2.1448028c.461979.0832394 1.018296.1304084 1.385937.1304084 1.729716 0 2.58181-1.0418803 2.58181-2.9022817v-.8532042c0-1.7757747-.817411-2.9258662-2.58181-2.9258662zm1.53993 3.7790704c0 1.2680141-.380127 2.025493-1.53993 2.025493-.378739 0-.994711-.047169-1.385937-.1179226v-4.6919295c.331571-.0582676.887888-.1179226 1.385937-.1179226 1.172289 0 1.53993.8060352 1.53993 2.0490775z"/><path d="m126.335351 40.2286486c-.722796 0-1.552693.1193099-2.179486.2733028-.213648.047169-.249996.1179225-.249996.2719155v8.1505282c0 .1304084.096003.2247464.213926.2247464h.604595c.130686 0 .225024-.1068239.225024-.2247464v-2.1448028c.461979.0832394 1.018296.1304084 1.385937.1304084 1.729715 0 2.58181-1.0418803 2.58181-2.9022817v-.8532042c0-1.7757747-.817412-2.9258662-2.58181-2.9258662zm1.539929 3.7790704c0 1.2680141-.380126 2.025493-1.539929 2.025493-.37874 0-.994711-.047169-1.385937-.1179226v-4.6919295c.331293-.0582676.887888-.1179226 1.385937-.1179226 1.172289 0 1.539929.8060352 1.539929 2.0490775z"/><path d="m131.373085 38.129239h-.615972c-.130408 0-.213648.1054366-.213648.225024v8.2348774c0 .1304085.094338.2375099.213648.2375099h.615972c.130408 0 .213648-.1179226.213648-.2375099v-8.2348774c0-.1304085-.095726-.225024-.213648-.225024"/><path d="m134.383467 38.129239h-.603486c-.131796 0-.237233.1054366-.237233.2361225v.6670254c0 .1306859.105437.2372324.237233.2372324h.603486c.130408 0 .236955-.1065465.236955-.2372324v-.6670254c0-.1306859-.106547-.2361225-.236955-.2361225"/><path d="m134.359355 40.3115828h-.568803c-.129021 0-.236955.106824-.236955.2369549v6.0420733c0 .1290211.107934.2355676.236955.2355676h.568803c.130686 0 .237232-.1065465.237232-.2355676v-6.0420733c0-.1301309-.106546-.2369549-.237232-.2369549"/><path d="m138.874373 40.2283711c-1.693645 0-2.628979 1.0782282-2.628979 2.7718733v1.0671295c0 2.202793 1.326559 2.8423493 2.688634 2.8423493.793549 0 1.445869-.0707535 2.119831-.2011619.190063-.035793.237232-.1190324.237232-.2719155v-.4034338c0-.1182-.094338-.165369-.190063-.165369h-.058268c-.54494.0818521-1.422007.1306859-2.108732.1306859-1.090437 0-1.646753-.5219113-1.646753-1.931155v-.165369h3.969133c.141785 0 .225024-.1079338.225024-.2619267v-.6398338c0-1.6811592-.877066-2.7718733-2.607059-2.7718733zm1.552693 2.8786972h-3.139791v-.1068239c0-1.2788352.568802-1.8590141 1.587098-1.8590141 1.043545 0 1.552693.5202465 1.552693 1.8590141z"/><path d="m147.596895 38.129239h-.603486c-.130408 0-.225856.1054366-.225856.225024v1.993307c-.461979-.0832394-1.018296-.1193099-1.385937-.1193099-1.73027 0-2.582087 1.0432676-2.582087 2.9022817v.8534817c0 1.777162.817134 2.9255888 2.582087 2.9255888.722518 0 1.445592-.0579902 2.179209-.2008846.213925-.0363478.249995-.1195873.249995-.2721929v-8.0822718c0-.1304085-.094338-.225024-.213925-.225024zm-.829342 7.7981479c-.402324.0346831-.982226.0693662-1.385937.0693662-1.172566 0-1.53993-.721131-1.53993-2.0127296v-.8534817c0-1.2666267.37985-1.9894225 1.53993-1.9894225.378462 0 .994711.0110986 1.385937.0832394z"/><path d="m155.384888 43.4040389-1.172567-.6994888c-.54494-.318807-.817133-.5449408-.817133-.9003732 0-.6045958.437007-.6864479 1.101812-.6864479.662864 0 1.42062.0596549 1.83543.094338h.034405c.119588 0 .202827-.0596549.202827-.2011619v-.3912254c0-.1290211-.070753-.212538-.224746-.2375098-.556595-.0940606-1.185052-.1537155-1.847916-.1537155-1.221122 0-2.14508.3440563-2.14508 1.5757225 0 .7466577.485563 1.2558056 1.208637 1.6942l1.195595.7114197c.675905.4012141.889275.6273479.889275.9822254 0 .6398338-.402324.8409957-1.173399.8409957-.425908 0-1.290211-.0582676-1.859014-.1304084h-.047169c-.119587 0-.213925.0721408-.213925.1775775v.4148098c0 .130131.094338.2025493.248608.2372324.581289.1415071 1.434493.1775775 1.8715.1775775 1.327392 0 2.215279-.5091479 2.215279-1.7177845 0-.6975465-.320472-1.2080817-1.302419-1.7879831"/><path d="m161.985248 40.3587241c-.391226-.0707535-.935057-.1304085-1.480275-.1304085-1.623169 0-2.523542 1.1376057-2.523542 2.8800845v.9239578c0 1.7399817.912859 2.8773098 2.523542 2.8773098.556317 0 1.089049-.0582676 1.480275-.1301309.190063-.0346831.237232-.1071014.237232-.2597071v-.4272958c0-.1179225-.094338-.1775774-.201162-.1775774h-.047169c-.521634.0596549-.889274.0832394-1.469176.0832394-.960028 0-1.480275-.6395563-1.480275-1.965838v-.9239578c0-1.3401549.531346-1.9672253 1.480275-1.9672253.579902 0 .947542.0235845 1.469176.0832394h.047169c.106824 0 .201162-.0596549.201162-.1775774v-.4272958c0-.1648141-.047169-.2247465-.237232-.2608169"/><path d="m164.618444 38.129239h-.603486c-.131796 0-.237232.1054366-.237232.2361225v.6670254c0 .1306859.105436.2372324.237232.2372324h.603486c.130409 0 .236955-.1065465.236955-.2372324v-.6670254c0-.1306859-.106546-.2361225-.236955-.2361225"/><path d="m164.594332 40.3115828h-.567415c-.130686 0-.237232.106824-.237232.2369549v6.0420733c0 .1290211.106546.2355676.237232.2355676h.567415c.130409 0 .236955-.1065465.236955-.2355676v-6.0420733c0-.1301309-.106546-.2369549-.236955-.2369549"/><path d="m169.109378 40.2283711c-1.693645 0-2.628979 1.0782282-2.628979 2.7718733v1.0671295c0 2.202793 1.326559 2.8423493 2.688634 2.8423493.793549 0 1.445869-.0707535 2.119831-.2011619.190063-.035793.237232-.1190324.237232-.2719155v-.4034338c0-.1182-.094338-.165369-.190063-.165369h-.058268c-.54494.0818521-1.422007.1306859-2.108732.1306859-1.089049 0-1.646753-.5219113-1.646753-1.931155v-.165369h3.969133c.141785 0 .225024-.1079338.225024-.2619267v-.6398338c0-1.6811592-.877066-2.7718733-2.607059-2.7718733zm1.552693 2.8786972h-3.139791v-.1068239c0-1.2788352.568802-1.8590141 1.587098-1.8590141 1.043545 0 1.552693.5202465 1.552693 1.8590141z"/><path d="m176.173881 40.2283711c-.699488 0-1.233331.1792423-1.883986.5454958v-.2250239c0-.130131-.094338-.236955-.225023-.236955h-.59211c-.130409 0-.224747.106824-.224747.236955v6.0406859c0 .130131.106824.2369549.224747.2369549h.579624c.130686 0 .237509-.1179225.237509-.2369549v-4.9974183c.545219-.2730254 1.101536-.4633662 1.599585-.4633662.900373 0 1.302697.3676408 1.302697 1.5651788v3.8956057c0 .130131.106824.2369549.237233.2369549h.568802c.130409 0 .237233-.1068239.237233-.2369549v-3.8956057c0-1.5776647-.640944-2.4655521-2.061564-2.4655521"/><path d="m183.74645 40.3587241c-.390947-.0707535-.934778-.1304085-1.480274-.1304085-1.623169 0-2.523542 1.1376057-2.523542 2.8800845v.9239578c0 1.7399817.912859 2.8773098 2.523542 2.8773098.556594 0 1.089327-.0582676 1.480274-.1301309.190341-.0346831.237233-.1071014.237233-.2597071v-.4272958c0-.1179225-.095448-.1775774-.200885-.1775774h-.047446c-.521634.0596549-.888997.0832394-1.469176.0832394-.960028 0-1.480275-.6395563-1.480275-1.965838v-.9239578c0-1.3401549.531345-1.9672253 1.480275-1.9672253.580179 0 .947542.0235845 1.469176.0832394h.047446c.105437 0 .200885-.0596549.200885-.1775774v-.4272958c0-.1648141-.046892-.2247465-.237233-.2608169"/><path d="m187.835255 40.2283711c-1.693645 0-2.628979 1.0782282-2.628979 2.7718733v1.0671295c0 2.202793 1.326282 2.8423493 2.688634 2.8423493.793549 0 1.445591-.0707535 2.119831-.2011619.190063-.035793.237232-.1190324.237232-.2719155v-.4034338c0-.1182-.094338-.165369-.190063-.165369h-.058268c-.544941.0818521-1.422007.1306859-2.108732.1306859-1.08905 0-1.646754-.5219113-1.646754-1.931155v-.165369h3.969134c.141507 0 .225024-.1079338.225024-.2619267v-.6398338c0-1.6811592-.877066-2.7718733-2.607059-2.7718733zm1.552415 2.8786972h-3.139514v-.1068239c0-1.2788352.568803-1.8590141 1.587099-1.8590141 1.043267 0 1.552415.5202465 1.552415 1.8590141z"/><path d="m194.793572 43.4040389-1.172288-.6994888c-.545219-.318807-.817134-.5449408-.817134-.9003732 0-.6045958.437007-.6864479 1.101535-.6864479.663141 0 1.422007.0596549 1.836817.094338h.033296c.119309 0 .202826-.0596549.202826-.2011619v-.3912254c0-.1290211-.072418-.212538-.225024-.2375098-.556316-.0940606-1.184774-.1537155-1.847915-.1537155-1.220845 0-2.144803.3440563-2.144803 1.5757225 0 .7466577.486951 1.2558056 1.208359 1.6942l1.195874.7114197c.675626.4012141.889274.6273479.889274.9822254 0 .6398338-.402324.8409957-1.173676.8409957-.425908 0-1.290211-.0582676-1.859014-.1304084h-.047169c-.11931 0-.213648.0721408-.213648.1775775v.4148098c0 .130131.094338.2025493.248331.2372324.581289.1415071 1.434493.1775775 1.8715.1775775 1.327669 0 2.215556-.5091479 2.215556-1.7177845 0-.6975465-.320471-1.2080817-1.302697-1.7879831"/></g><path d="m27.2388889 26.9093056h6.8222222v-6.8236112h-6.8222222z" fill="#5ab031"/><path d="m27.2388889 13.2968056h6.8222222v-6.82361116h-6.8222222z" fill="#5ab031"/></g></svg>