<?xml version="1.0" encoding="UTF-8"?>
<svg width="556px" height="105px" viewBox="0 0 556 105" version="1.1" xmlns="http://www.w3.org/2000/svg" xmlns:xlink="http://www.w3.org/1999/xlink">
    <title>Artboard</title>
    <g id="Artboard" stroke="none" stroke-width="1" fill="none" fill-rule="evenodd">
        <g id="arvesta" transform="translate(0.620000, 0.854822)" fill-rule="nonzero">
            <g id="Group" transform="translate(0.000000, 0.000000)">
                <g transform="translate(0.000000, 0.000000)">
                    <path d="M103.47,98.9551776 C97.97,97.9151776 98.41,96.7851776 99.5,95.8351776 C122.57,81.5951776 141.24,65.6051776 140.11,46.5651776 C139.73,40.1451776 135.49,29.6851776 137.11,31.9051776 C198.4,115.765178 116.18,100.975178 103.47,98.9551776 M405.02,74.3051776 L356.69,74.3051776 C357.35,83.9251776 365.87,89.2851776 374.07,89.1751776 C385.82,89.1751776 383.4,81.0851776 403.27,81.0851776 C400.43,87.7551776 396.16,92.7851776 391.13,96.1751776 C386.1,99.6751776 380.2,101.425178 373.97,101.425178 C355.49,101.425178 342.26,86.4451776 342.26,69.7151776 C342.26,52.6551776 355.6,37.6751776 373.75,37.6751776 C382.72,37.6751776 390.59,41.0651776 396.16,46.8551776 C403.48,54.4051776 406.22,63.8051776 405.02,74.3051776 M357.04,62.9151776 L390.99,62.9151776 C390.44,57.2351776 384.44,49.2651776 373.96,49.3751776 C363.37,49.3751776 357.58,57.0251776 357.04,62.9151776 M555.36,50.7651776 L555.36,99.0451776 C555.36,99.0451776 541.06,100.505178 541.06,90.4251776 C537.24,97.4151776 529.27,100.905178 520.86,100.905178 C501.65,100.905178 490.4,85.9551776 490.4,69.0351776 C490.4,50.1551776 504.04,37.2651776 520.86,37.2651776 C531.77,37.2651776 538.43,43.0451776 541.06,47.8551776 L541.06,39.1251776 C555.15,39.1151776 555.36,50.7651776 555.36,50.7651776 M504.71,69.2451776 C504.71,76.7751776 510.06,87.5851776 522.94,87.5851776 C530.91,87.5851776 536.15,83.4351776 538.88,77.9851776 C540.3,75.3651776 540.95,72.5251776 541.17,69.5751776 C541.28,66.7351776 540.73,63.7951776 539.53,61.1651776 C537.02,55.4851776 531.46,50.5751776 522.83,50.5751776 C511.27,50.5851776 504.71,59.9651776 504.71,69.2451776 M253.2,89.8451776 C253.2,100.145178 267.5,99.0451776 267.5,99.0451776 L267.5,68.6551776 C267.5,58.2851776 272.63,51.6651776 282.67,51.6651776 L283.32,51.6651776 L283.32,39.1851776 C274.26,39.2951776 269.35,43.1351776 266.73,48.4851776 C266.73,48.4851776 264.26,39.1151776 253.19,39.1151776 L253.19,89.8451776 L253.2,89.8451776 Z M345.62,39.1151776 C329.82,39.1151776 328.1,47.1151776 328.1,47.1151776 L316.37,81.0351776 L305.68,49.7051776 C305.68,49.7051776 302.23,39.1151776 287.12,39.1151776 C292.74,54.8751776 305.51,88.6851776 305.51,88.6851776 C310.66,101.105178 323.36,99.0351776 323.36,99.0351776 L345.62,39.1151776 L345.62,39.1151776 Z M453.16,55.2751776 C451.96,40.8651776 439.95,37.2651776 431.87,37.2651776 C420.3,37.2651776 410.36,44.5751776 410.36,56.3651776 C410.47,64.9951776 417.02,69.4651776 425.1,71.9751776 C436.13,75.7951776 440.6,77.2151776 440.6,82.3451776 C440.71,86.3851776 436.89,89.3351776 432.41,89.3351776 C421.86,89.3351776 426.41,81.5851776 409.27,81.5851776 C410.36,96.1051776 422.92,100.905178 432.2,100.905178 C444.75,100.905178 455.12,93.0451776 454.9,80.7151776 C454.79,67.8351776 444.42,64.9951776 434.82,62.3751776 C429.14,60.7351776 424.78,58.6651776 424.67,54.8451776 C424.67,51.8951776 426.96,48.8451776 431.76,48.8451776 C437.33,48.8351776 439.48,55.2751776 453.16,55.2751776 M466.22,90.8151776 C466.22,100.205178 480.52,99.0451776 480.52,99.0451776 L480.52,50.1451776 L490.78,50.1451776 L490.78,39.1151776 L480.52,39.1151776 L480.52,28.0051776 C480.52,28.0051776 481.61,18.2651776 466.22,18.2651776 L466.22,39.1151776 L456.29,39.1151776 C456.29,39.1151776 453.72,50.1451776 466.22,50.1451776 L466.22,90.8151776 L466.22,90.8151776 Z M246.87,50.7651776 L246.87,99.0451776 C246.87,99.0451776 232.57,100.505178 232.57,90.4251776 C228.75,97.4151776 220.78,100.905178 212.38,100.905178 C193.17,100.905178 181.92,85.9551776 181.92,69.0351776 C181.92,50.1551776 195.57,37.2651776 212.38,37.2651776 C223.3,37.2651776 229.96,43.0451776 232.57,47.8551776 L232.57,39.1251776 C246.66,39.1151776 246.87,50.7651776 246.87,50.7651776 M196.22,69.2451776 C196.22,76.7751776 201.57,87.5851776 214.45,87.5851776 C222.42,87.5851776 227.66,83.4351776 230.39,77.9851776 C231.81,75.3651776 232.46,72.5251776 232.68,69.5751776 C232.79,66.7351776 232.24,63.7951776 231.04,61.1651776 C228.53,55.4851776 222.96,50.5751776 214.34,50.5751776 C202.77,50.5851776 196.22,59.9651776 196.22,69.2451776" id="Shape" fill="#546223"></path>
                    <path d="M128.99,16.4951776 C166.23,79.8751776 10.76,107.795178 0,102.745178 C27.88,87.5451776 63.15,15.2651776 95.49,2.06517761 C107.21,-2.70482239 118.54,0.265177608 128.99,16.4951776" id="Path" fill="#84BD00"></path>
                </g>
            </g>
        </g>
    </g>
</svg>