<?xml version="1.0" encoding="UTF-8" standalone="no"?>
<!-- Created with Inkscape (http://www.inkscape.org/) -->

<svg
   xmlns:dc="http://purl.org/dc/elements/1.1/"
   xmlns:cc="http://creativecommons.org/ns#"
   xmlns:rdf="http://www.w3.org/1999/02/22-rdf-syntax-ns#"
   xmlns:svg="http://www.w3.org/2000/svg"
   xmlns="http://www.w3.org/2000/svg"
   xmlns:sodipodi="http://sodipodi.sourceforge.net/DTD/sodipodi-0.dtd"
   xmlns:inkscape="http://www.inkscape.org/namespaces/inkscape"
   width="131.65332"
   height="64.584023"
   viewBox="0 0 34.833274 17.087856"
   version="1.1"
   id="svg5223"
   inkscape:version="0.92.0 r15299"
   sodipodi:docname="belnet.svg">
  <defs
     id="defs5217" />
  <sodipodi:namedview
     id="base"
     pagecolor="#ffffff"
     bordercolor="#666666"
     borderopacity="1.0"
     inkscape:pageopacity="0.0"
     inkscape:pageshadow="2"
     inkscape:zoom="6.8654966"
     inkscape:cx="65.326664"
     inkscape:cy="31.792013"
     inkscape:document-units="mm"
     inkscape:current-layer="layer1"
     showgrid="false"
     fit-margin-top="0"
     fit-margin-left="0"
     fit-margin-right="0"
     fit-margin-bottom="0"
     units="px"
     inkscape:window-width="1280"
     inkscape:window-height="744"
     inkscape:window-x="-4"
     inkscape:window-y="-4"
     inkscape:window-maximized="1" />
  <metadata
     id="metadata5220">
    <rdf:RDF>
      <cc:Work
         rdf:about="">
        <dc:format>image/svg+xml</dc:format>
        <dc:type
           rdf:resource="http://purl.org/dc/dcmitype/StillImage" />
        <dc:title></dc:title>
      </cc:Work>
    </rdf:RDF>
  </metadata>
  <g
     inkscape:label="Layer 1"
     inkscape:groupmode="layer"
     id="layer1"
     transform="translate(-47.727558,-174.93092)">
    <g
       id="g5310"
       transform="translate(0.13229067,-0.13229569)">
      <path
         inkscape:connector-curvature="0"
         id="path4492"
         style="fill:#ffffff;fill-opacity:1;fill-rule:nonzero;stroke:none;stroke-width:0.35277778"
         d="M 49.620173,191.0008 H 81.098184 V 176.46035 H 49.620173 Z" />
      <path
         d="m 57.526225,188.68952 v 0.22225 c 0,0.23707 0.06033,0.41381 0.309386,0.41381 0.103717,0 0.22225,-0.009 0.277283,-0.0205 v -1.00859 c -0.05503,-0.0117 -0.173566,-0.0201 -0.277283,-0.0201 -0.249061,0 -0.309386,0.17603 -0.309386,0.4131"
         style="fill:#1476c6;fill-opacity:1;fill-rule:nonzero;stroke:none;stroke-width:0.35277778"
         id="path4504"
         inkscape:connector-curvature="0" />
      <path
         d="m 52.852175,182.01679 h -1.102783 v 1.84185 c 0.157339,0 0.669219,0.01 0.807508,0.01 1.014589,0 1.339144,-0.31503 1.339144,-0.86642 v -0.10866 c 0,-0.47272 -0.255411,-0.87665 -1.043869,-0.87665"
         style="fill:#1476c6;fill-opacity:1;fill-rule:nonzero;stroke:none;stroke-width:0.35277778"
         id="path4508"
         inkscape:connector-curvature="0" />
      <path
         d="m 70.971767,188.29358 c -0.178858,0 -0.309386,0.127 -0.309386,0.3556 v 0.0113 h 0.613128 v -0.0113 c 0,-0.22578 -0.124178,-0.3556 -0.303742,-0.3556"
         style="fill:#1476c6;fill-opacity:1;fill-rule:nonzero;stroke:none;stroke-width:0.35277778"
         id="path4512"
         inkscape:connector-curvature="0" />
      <path
         d="m 65.942171,188.29358 c -0.202494,0 -0.309386,0.15311 -0.309386,0.39017 v 0.23389 c 0,0.23742 0.106892,0.39018 0.309386,0.39018 0.202494,0 0.309033,-0.15276 0.309033,-0.39018 v -0.23389 c 0,-0.23706 -0.106539,-0.39017 -0.309033,-0.39017"
         style="fill:#1476c6;fill-opacity:1;fill-rule:nonzero;stroke:none;stroke-width:0.35277778"
         id="path4516"
         inkscape:connector-curvature="0" />
      <path
         d="m 53.857327,180.06681 v -0.14746 c 0,-0.54257 -0.344664,-0.78846 -1.359253,-0.78846 -0.158044,0 -0.610658,0 -0.748594,0.01 v 1.70462 h 1.102783 c 0.778228,0 1.005064,-0.3549 1.005064,-0.77823"
         style="fill:#1476c6;fill-opacity:1;fill-rule:nonzero;stroke:none;stroke-width:0.35277778"
         id="path4520"
         inkscape:connector-curvature="0" />
      <path
         d="m 61.922224,188.68952 v 0.22225 c 0,0.23707 0.06068,0.41381 0.309386,0.41381 0.103717,0 0.222603,-0.009 0.277283,-0.0205 v -1.00859 c -0.08079,-0.0117 -0.208138,-0.0201 -0.277283,-0.0201 -0.248708,0 -0.309386,0.17603 -0.309386,0.4131"
         style="fill:#1476c6;fill-opacity:1;fill-rule:nonzero;stroke:none;stroke-width:0.35277778"
         id="path4524"
         inkscape:connector-curvature="0" />
      <path
         d="m 53.772025,188.68952 v 0.22225 c 0,0.23707 0.06068,0.41381 0.309386,0.41381 0.103717,0 0.222603,-0.009 0.277283,-0.0205 v -1.00859 c -0.08079,-0.0117 -0.208138,-0.0201 -0.277283,-0.0201 -0.248708,0 -0.309386,0.17603 -0.309386,0.4131"
         style="fill:#1476c6;fill-opacity:1;fill-rule:nonzero;stroke:none;stroke-width:0.35277778"
         id="path4528"
         inkscape:connector-curvature="0" />
      <path
         d="m 74.317371,181.81033 c 0,-0.72919 -0.334786,-1.09361 -0.886531,-1.09361 -0.541513,0 -0.905933,0.3743 -0.905933,1.09361 v 0.0388 h 1.792464 z"
         style="fill:#1476c6;fill-opacity:1;fill-rule:nonzero;stroke:none;stroke-width:0.35277778"
         id="path4532"
         inkscape:connector-curvature="0" />
      <path
         d="m 60.582744,188.29358 c -0.178858,0 -0.309033,0.127 -0.309033,0.3556 v 0.0113 h 0.612775 v -0.0113 c 0,-0.22578 -0.124178,-0.3556 -0.303742,-0.3556"
         style="fill:#1476c6;fill-opacity:1;fill-rule:nonzero;stroke:none;stroke-width:0.35277778"
         id="path4536"
         inkscape:connector-curvature="0" />
      <path
         d="m 52.432519,188.29358 c -0.178858,0 -0.309386,0.127 -0.309386,0.3556 v 0.0113 h 0.613128 v -0.0113 c 0,-0.22578 -0.124178,-0.3556 -0.303742,-0.3556"
         style="fill:#1476c6;fill-opacity:1;fill-rule:nonzero;stroke:none;stroke-width:0.35277778"
         id="path4540"
         inkscape:connector-curvature="0" />
      <path
         d="M 80.567993,175.19551 H 49.456169 c -0.95497,0 -1.728611,0.77364 -1.728611,1.72861 v 13.3664 c 0,0.95461 0.773641,1.72826 1.728611,1.72826 h 31.111824 c 0.954617,0 1.728258,-0.77365 1.728258,-1.72826 v -13.3664 c 0,-0.95497 -0.773641,-1.72861 -1.728258,-1.72861 m -9.619191,6.83119 c 0,-1.58609 0.925688,-2.59045 2.492022,-2.59045 1.615016,0 2.432755,1.10278 2.432755,2.59045 v 0.57115 c 0,0.14781 -0.07867,0.23671 -0.206375,0.23671 H 72.52466 v 0.0198 c 0,0.56126 0.236714,1.0735 1.014589,1.0735 0.620183,0 1.497541,-0.0494 1.891241,-0.0889 h 0.02963 c 0.108655,0 0.187325,0.049 0.187325,0.15804 v 0.7486 c 0,0.15698 -0.03951,0.22613 -0.207434,0.26599 -0.630061,0.15734 -1.162402,0.23636 -2.018947,0.23636 -1.191683,0 -2.472266,-0.63041 -2.472266,-2.53188 z m -19.537539,7.45772 c 0,0.0434 -0.01164,0.0603 -0.07796,0.078 -0.179211,0.0462 -0.396169,0.0752 -0.581025,0.0752 -0.465314,0 -0.690739,-0.27446 -0.690739,-0.72567 v -0.22225 c 0,-0.4512 0.225425,-0.72566 0.690739,-0.72566 0.0695,0 0.170745,0.006 0.277284,0.0201 v -0.51153 c 0,-0.0318 0.02611,-0.0579 0.05821,-0.0579 h 0.265642 c 0.0321,0 0.05785,0.0261 0.05785,0.0579 z M 53.120471,188.86 c 0,0.0462 -0.01764,0.0723 -0.0575,0.0723 h -0.942623 v 0.009 c 0,0.16757 0.06985,0.36689 0.347134,0.36689 0.210961,0 0.410633,-0.0173 0.531636,-0.0289 h 0.0085 c 0.02928,0 0.05221,0.0145 0.05221,0.0434 v 0.19085 c 0,0.0462 -0.0088,0.0663 -0.06068,0.0751 -0.188031,0.0349 -0.300567,0.049 -0.560564,0.049 -0.288925,0 -0.699558,-0.15593 -0.699558,-0.72567 v -0.21378 c 0,-0.45085 0.25153,-0.73413 0.693561,-0.73413 0.445558,0 0.687916,0.30339 0.687916,0.73413 z m 1.619603,0.62442 c 0,0.0434 -0.01129,0.0603 -0.07761,0.078 -0.179564,0.0462 -0.396169,0.0752 -0.581378,0.0752 -0.464961,0 -0.690739,-0.27446 -0.690739,-0.72567 v -0.22225 c 0,-0.4512 0.225778,-0.72566 0.690739,-0.72566 0.06985,0 0.170745,0.006 0.277636,0.0201 v -0.51153 c 0,-0.0318 0.02611,-0.0579 0.05786,-0.0579 h 0.265994 c 0.0321,0 0.0575,0.0261 0.0575,0.0579 z m 0.767645,0.0692 c 0,0.0317 -0.02646,0.061 -0.05821,0.061 h -0.265641 c -0.0321,0 -0.05786,-0.0293 -0.05786,-0.061 v -1.51166 c 0,-0.0317 0.02575,-0.0579 0.05786,-0.0579 h 0.265641 c 0.03175,0 0.05821,0.0261 0.05821,0.0579 z m 0.0085,-1.84397 c 0,0.0321 -0.02611,0.0579 -0.05786,0.0579 H 55.1779 c -0.0314,0 -0.06068,-0.0257 -0.06068,-0.0579 v -0.25436 c 0,-0.0318 0.02928,-0.0575 0.06068,-0.0575 h 0.280459 c 0.03175,0 0.05786,0.0257 0.05786,0.0575 z m 0.01552,-4.66831 c 0,1.73355 -1.398763,2.20662 -3.10268,2.20662 -0.650169,0 -1.418872,-0.0497 -1.802342,-0.11853 -0.394758,-0.0684 -0.542219,-0.19685 -0.542219,-0.64029 v -5.98876 c 0,-0.44309 0.137936,-0.58102 0.522464,-0.63994 0.335139,-0.049 1.132064,-0.10865 1.762478,-0.10865 1.861961,0 3.113263,0.49248 3.113263,2.05846 v 0.17744 c 0,0.64065 -0.305858,1.19239 -0.827616,1.44816 0.521758,0.25611 0.876652,0.77787 0.876652,1.45767 z m 1.395589,5.22323 c 0,0.0289 -0.02328,0.0434 -0.05221,0.0434 h -0.0085 c -0.115712,-0.0145 -0.185209,-0.0201 -0.372887,-0.0201 -0.135819,0 -0.277636,0.078 -0.277636,0.37888 v 0.26847 c 0,0.30056 0.141817,0.37888 0.277636,0.37888 0.187678,0 0.257175,-0.006 0.372887,-0.0205 h 0.0085 c 0.02893,0 0.05221,0.0145 0.05221,0.0434 v 0.18803 c 0,0.0462 -0.01164,0.0635 -0.06068,0.0751 -0.06667,0.0173 -0.196498,0.0374 -0.372887,0.0374 -0.376061,0 -0.658988,-0.23107 -0.658988,-0.70238 v -0.26847 c 0,-0.47131 0.282927,-0.70273 0.658988,-0.70273 0.176389,0 0.306212,0.0201 0.372887,0.0374 0.04904,0.0116 0.06068,0.0293 0.06068,0.0755 z m 1.567039,1.2199 c 0,0.0434 -0.01164,0.0603 -0.07832,0.078 -0.178858,0.0462 -0.395463,0.0752 -0.580672,0.0752 -0.465666,0 -0.691091,-0.27446 -0.691091,-0.72567 v -0.22225 c 0,-0.4512 0.225425,-0.72566 0.691091,-0.72566 0.185209,0 0.401814,0.0289 0.580672,0.0751 0.06667,0.0176 0.07832,0.0349 0.07832,0.0783 z m 1.211792,-1.27176 c 0,0.0317 -0.0254,0.0579 -0.0575,0.0579 h -0.407458 v 0.93345 c 0,0.11571 0.05186,0.13582 0.176389,0.13582 h 0.227894 c 0.03775,0 0.06068,0.0145 0.06068,0.0434 v 0.17921 c 0,0.0289 -0.01693,0.0462 -0.05468,0.0522 -0.0695,0.0113 -0.216958,0.0229 -0.338314,0.0229 -0.286102,0 -0.456494,-0.0981 -0.456494,-0.43357 v -1.45662 c 0,-0.0321 0.02611,-0.0522 0.05786,-0.0579 L 59.183,187.6429 h 0.0088 c 0.02611,0 0.04939,0.0293 0.04939,0.0582 v 0.28293 h 0.407458 c 0.0321,0 0.0575,0.0261 0.0575,0.0579 z m 1.564569,0.64734 c 0,0.0462 -0.01729,0.0723 -0.0575,0.0723 h -0.942622 v 0.009 c 0,0.16757 0.06985,0.36689 0.347486,0.36689 0.210609,0 0.409928,-0.0173 0.531284,-0.0289 h 0.0085 c 0.02928,0 0.05221,0.0145 0.05221,0.0434 v 0.19085 c 0,0.0462 -0.0085,0.0663 -0.06068,0.0751 -0.188031,0.0349 -0.300567,0.049 -0.560564,0.049 -0.288925,0 -0.699559,-0.15593 -0.699559,-0.72567 v -0.21378 c 0,-0.45085 0.251178,-0.73413 0.693562,-0.73413 0.445205,0 0.687916,0.30339 0.687916,0.73413 z m 0.08326,-6.26215 c 0,0.14781 -0.07973,0.23671 -0.207434,0.23671 h -3.141486 v 0.0198 c 0,0.56126 0.235656,1.0735 1.013884,1.0735 0.620536,0 1.497189,-0.0494 1.890889,-0.0889 h 0.03034 c 0.10795,0 0.18662,0.049 0.18662,0.15804 v 0.7486 c 0,0.15698 -0.03916,0.22613 -0.206375,0.26599 -0.630767,0.15734 -1.162403,0.23636 -2.018947,0.23636 -1.192742,0 -2.47262,-0.63041 -2.47262,-2.53188 v -0.68933 c 0,-1.58609 0.926042,-2.59045 2.49167,-2.59045 1.615369,0 2.433461,1.10278 2.433461,2.59045 z m 1.536347,6.88657 c 0,0.0434 -0.01129,0.0603 -0.07761,0.078 -0.179564,0.0462 -0.39617,0.0752 -0.581025,0.0752 -0.465314,0 -0.690739,-0.27446 -0.690739,-0.72567 v -0.22225 c 0,-0.4512 0.225425,-0.72566 0.690739,-0.72566 0.06914,0 0.170392,0.006 0.277283,0.0201 v -0.51153 c 0,-0.0318 0.02611,-0.0579 0.05821,-0.0579 h 0.265994 c 0.03175,0 0.05715,0.0261 0.05715,0.0579 z m 0.906639,-4.32505 H 62.59573 c -0.109009,0 -0.207081,-0.0984 -0.207081,-0.20744 v -7.15116 c 0,-0.10795 0.09807,-0.19685 0.207081,-0.19685 h 1.201208 c 0.108655,0 0.187325,0.0889 0.187325,0.19685 v 7.15116 c 0,0.10901 -0.07867,0.20744 -0.187325,0.20744 m 1.228725,3.10515 c 0,0.0289 -0.02364,0.0434 -0.05221,0.0434 h -0.0088 c -0.115358,-0.0145 -0.184855,-0.0201 -0.372533,-0.0201 -0.136172,0 -0.277636,0.078 -0.277636,0.37888 v 0.26847 c 0,0.30056 0.141464,0.37888 0.277636,0.37888 0.187678,0 0.257175,-0.006 0.372533,-0.0205 h 0.0088 c 0.02858,0 0.05221,0.0145 0.05221,0.0434 v 0.18803 c 0,0.0462 -0.01164,0.0635 -0.06103,0.0751 -0.06667,0.0173 -0.196497,0.0374 -0.372533,0.0374 -0.376061,0 -0.659695,-0.23107 -0.659695,-0.70238 v -0.26847 c 0,-0.47131 0.283634,-0.70273 0.659695,-0.70273 0.176036,0 0.305858,0.0201 0.372533,0.0374 0.04939,0.0116 0.06103,0.0293 0.06103,0.0755 z m 1.607255,0.65334 c 0,0.41346 -0.237066,0.71967 -0.690739,0.71967 -0.453672,0 -0.690738,-0.30621 -0.690738,-0.71967 v -0.23424 c 0,-0.41311 0.237066,-0.71967 0.690738,-0.71967 0.453673,0 0.690739,0.30656 0.690739,0.71967 z m 1.648884,0.63571 c 0,0.0317 -0.02328,0.061 -0.05503,0.061 h -0.271639 c -0.03175,0 -0.05503,-0.0293 -0.05503,-0.061 v -0.99978 c 0,-0.14181 -0.02858,-0.27164 -0.196497,-0.27164 h -0.179211 c -0.16757,0 -0.196497,0.12983 -0.196497,0.27164 v 0.99978 c 0,0.0317 -0.02328,0.061 -0.05503,0.061 h -0.271639 c -0.03175,0 -0.05468,-0.0293 -0.05468,-0.061 v -0.99978 c 0,-0.34995 0.202141,-0.58984 0.57785,-0.58984 h 0.179211 c 0.375708,0 0.578203,0.23989 0.578203,0.58984 z m 0.08572,-4.60164 v -3.4671 c 0,-0.43356 -0.06914,-0.73836 -0.581378,-0.73836 h -0.492125 c -0.511881,0 -0.581025,0.3048 -0.581025,0.73836 v 3.4671 c 0,0.10901 -0.0889,0.20744 -0.19685,0.20744 h -1.211792 c -0.108655,0 -0.187325,-0.0984 -0.187325,-0.20744 v -3.4671 c 0,-1.35925 0.758472,-2.04858 2.176992,-2.04858 h 0.492125 c 1.419225,0 2.176991,0.68933 2.176991,2.04858 v 3.4671 c 0,0.10901 -0.07832,0.20744 -0.186972,0.20744 h -1.211791 c -0.10795,0 -0.19685,-0.0984 -0.19685,-0.20744 m 1.59773,4.60164 c 0,0.0317 -0.02328,0.061 -0.05503,0.061 H 69.63823 c -0.0314,0 -0.05468,-0.0293 -0.05468,-0.061 v -0.99978 c 0,-0.14181 -0.02893,-0.27164 -0.196498,-0.27164 H 69.20749 c -0.167569,0 -0.196497,0.12983 -0.196497,0.27164 v 0.99978 c 0,0.0317 -0.02293,0.061 -0.05468,0.061 h -0.271992 c -0.03175,0 -0.05468,-0.0293 -0.05468,-0.061 v -0.99978 c 0,-0.34995 0.202142,-0.58984 0.57785,-0.58984 h 0.179564 c 0.375709,0 0.578203,0.23989 0.578203,0.58984 z M 71.659649,188.86 c 0,0.0462 -0.01729,0.0723 -0.0575,0.0723 H 70.65988 v 0.009 c 0,0.16757 0.06914,0.36689 0.34678,0.36689 0.210608,0 0.410633,-0.0173 0.531636,-0.0289 h 0.0088 c 0.02858,0 0.05186,0.0145 0.05186,0.0434 v 0.19085 c 0,0.0462 -0.0088,0.0663 -0.06068,0.0751 -0.187678,0.0349 -0.300566,0.049 -0.560564,0.049 -0.289277,0 -0.699558,-0.15593 -0.699558,-0.72567 v -0.21378 c 0,-0.45085 0.251531,-0.73413 0.693561,-0.73413 0.445558,0 0.687917,0.30339 0.687917,0.73413 z m 1.36278,-0.59548 c 0,0.0289 -0.02328,0.0434 -0.05186,0.0434 h -0.0088 c -0.115359,-0.0145 -0.184856,-0.0201 -0.372887,-0.0201 -0.135819,0 -0.277283,0.078 -0.277283,0.37888 v 0.26847 c 0,0.30056 0.141464,0.37888 0.277283,0.37888 0.188031,0 0.257528,-0.006 0.372887,-0.0205 h 0.0088 c 0.02857,0 0.05186,0.0145 0.05186,0.0434 v 0.18803 c 0,0.0462 -0.01164,0.0635 -0.06068,0.0751 -0.06668,0.0173 -0.196498,0.0374 -0.372887,0.0374 -0.375708,0 -0.659341,-0.23107 -0.659341,-0.70238 v -0.26847 c 0,-0.47131 0.283633,-0.70273 0.659341,-0.70273 0.176389,0 0.306212,0.0201 0.372887,0.0374 0.04904,0.0116 0.06068,0.0293 0.06068,0.0755 z m 1.153936,-0.0519 c 0,0.0317 -0.02611,0.0579 -0.05786,0.0579 h -0.407459 v 0.93345 c 0,0.11571 0.05221,0.13582 0.176389,0.13582 h 0.228248 c 0.03775,0 0.06068,0.0145 0.06068,0.0434 v 0.17921 c 0,0.0289 -0.01729,0.0462 -0.05503,0.0522 -0.06914,0.0113 -0.216606,0.0229 -0.337961,0.0229 -0.286103,0 -0.456847,-0.0981 -0.456847,-0.43357 v -1.45662 c 0,-0.0321 0.0261,-0.0522 0.05821,-0.0579 l 0.268817,-0.0466 h 0.0085 c 0.02611,0 0.04904,0.0293 0.04904,0.0582 v 0.28293 h 0.407459 c 0.03175,0 0.05786,0.0261 0.05786,0.0579 z m 0.651228,1.34091 c 0,0.0317 -0.0261,0.061 -0.05785,0.061 h -0.265995 c -0.03175,0 -0.05786,-0.0293 -0.05786,-0.061 v -1.51166 c 0,-0.0317 0.02611,-0.0579 0.05786,-0.0579 h 0.265995 c 0.03175,0 0.05785,0.0261 0.05785,0.0579 z m 0.0088,-1.84397 c 0,0.0321 -0.02646,0.0579 -0.05821,0.0579 h -0.280105 c -0.03175,0 -0.06068,-0.0257 -0.06068,-0.0579 v -0.25436 c 0,-0.0318 0.02893,-0.0575 0.06068,-0.0575 h 0.280105 c 0.03175,0 0.05821,0.0257 0.05821,0.0575 z m 1.708502,0.34113 -0.364066,1.31516 c -0.05821,0.21378 -0.214136,0.27164 -0.361245,0.27164 -0.147461,0 -0.300919,-0.0579 -0.358422,-0.27164 l -0.364419,-1.31516 c -0.0028,-0.006 -0.0028,-0.0145 -0.0028,-0.0201 0,-0.0261 0.02011,-0.0466 0.04621,-0.0466 h 0.289278 c 0.02575,0 0.04868,0.0205 0.0575,0.0579 l 0.277283,1.21109 c 0.01164,0.055 0.0321,0.0727 0.05539,0.0727 0.02293,0 0.04339,-0.0176 0.05503,-0.0727 l 0.277283,-1.21109 c 0.0088,-0.0374 0.03457,-0.0579 0.06068,-0.0579 h 0.288925 c 0.02575,0 0.04621,0.0205 0.04621,0.0466 0,0.006 0,0.0145 -0.0028,0.0201 m 0.651581,1.50284 c 0,0.0317 -0.02611,0.061 -0.05786,0.061 h -0.265641 c -0.0321,0 -0.05821,-0.0293 -0.05821,-0.061 v -1.51166 c 0,-0.0317 0.02611,-0.0579 0.05821,-0.0579 h 0.265641 c 0.03175,0 0.05786,0.0261 0.05786,0.0579 z m 0.0085,-1.84397 c 0,0.0321 -0.02575,0.0579 -0.0575,0.0579 h -0.280811 c -0.03175,0 -0.06032,-0.0257 -0.06032,-0.0579 v -0.25436 c 0,-0.0318 0.02857,-0.0575 0.06032,-0.0575 h 0.280811 c 0.03175,0 0.0575,0.0257 0.0575,0.0575 z m 1.211438,0.50306 c 0,0.0317 -0.02575,0.0579 -0.05715,0.0579 H 77.95144 v 0.93345 c 0,0.11571 0.05186,0.13582 0.176389,0.13582 h 0.227895 c 0.03775,0 0.06068,0.0145 0.06068,0.0434 v 0.17921 c 0,0.0289 -0.01693,0.0462 -0.05503,0.0522 -0.06914,0.0113 -0.216253,0.0229 -0.337961,0.0229 -0.286103,0 -0.456142,-0.0981 -0.456142,-0.43357 v -1.45662 c 0,-0.0321 0.02575,-0.0522 0.05715,-0.0579 l 0.26917,-0.0466 h 0.0085 c 0.02611,0 0.04939,0.0293 0.04939,0.0582 v 0.28293 h 0.407811 c 0.0314,0 0.05715,0.0261 0.05715,0.0579 z m 1.611136,1.39594 c 0,0.41063 -0.208138,0.58385 -0.650169,0.58385 -0.243064,0 -0.433917,-0.0346 -0.540808,-0.0692 -0.04057,-0.0116 -0.05786,-0.0289 -0.05786,-0.0695 v -0.1531 c 0,-0.0289 0.02328,-0.0494 0.05503,-0.0494 h 0.0056 c 0.130528,0.0116 0.404636,0.0349 0.537986,0.0349 0.233539,0 0.268464,-0.0579 0.268464,-0.25717 v -0.0233 c -0.06032,0.0116 -0.208139,0.0317 -0.277283,0.0317 -0.465667,0 -0.690387,-0.27446 -0.690387,-0.72567 v -0.86995 c 0,-0.0317 0.0254,-0.0579 0.05715,-0.0579 h 0.265995 c 0.03175,0 0.05821,0.0261 0.05821,0.0579 v 0.86995 c 0,0.23707 0.06068,0.41381 0.309034,0.41381 0.06914,0 0.19685,-0.0116 0.277283,-0.0233 v -1.26048 c 0,-0.0317 0.02575,-0.0579 0.05786,-0.0579 h 0.265995 c 0.0314,0 0.05785,0.0261 0.05785,0.0579 z m 0.0032,-9.09885 c 0,0.10831 -0.08819,0.19721 -0.19685,0.19721 h -1.348669 v 2.92558 c 0,0.34467 0.156986,0.40358 0.581025,0.40358 h 0.738364 c 0.127705,0 0.207433,0.0593 0.207433,0.16722 v 0.75882 c 0,0.10831 -0.0695,0.17745 -0.197908,0.19721 -0.285045,0.049 -0.75812,0.0885 -1.181453,0.0885 -1.103841,0 -1.754011,-0.34537 -1.754011,-1.6256 v -4.94453 c 0,-0.1083 0.08925,-0.17745 0.197908,-0.1972 l 1.201209,-0.20673 h 0.02928 c 0.0889,0 0.178153,0.0984 0.178153,0.1972 v 1.04387 h 1.348669 c 0.108656,0 0.19685,0.0889 0.19685,0.19685 z"
         style="fill:#1476c6;fill-opacity:1;fill-rule:nonzero;stroke:none;stroke-width:0.35277778"
         id="path4544"
         inkscape:connector-curvature="0" />
      <path
         d="m 50.442906,188.68952 v 0.22225 c 0,0.23707 0.06068,0.41381 0.309386,0.41381 0.103717,0 0.222603,-0.009 0.277283,-0.0205 v -1.00859 c -0.08114,-0.0117 -0.208138,-0.0201 -0.277283,-0.0201 -0.248708,0 -0.309386,0.17603 -0.309386,0.4131"
         style="fill:#1476c6;fill-opacity:1;fill-rule:nonzero;stroke:none;stroke-width:0.35277778"
         id="path4548"
         inkscape:connector-curvature="0" />
      <path
         d="m 58.910842,180.71662 c -0.541514,0 -0.905933,0.3743 -0.905933,1.09361 v 0.0388 h 1.791758 v -0.0388 c 0,-0.72919 -0.334081,-1.09361 -0.885825,-1.09361"
         style="fill:#1476c6;fill-opacity:1;fill-rule:nonzero;stroke:none;stroke-width:0.35277778"
         id="path4552"
         inkscape:connector-curvature="0" />
    </g>
  </g>
</svg>
