<?xml version="1.0" encoding="UTF-8"?>
<svg width="837px" height="473px" viewBox="0 0 837 473" version="1.1" xmlns="http://www.w3.org/2000/svg" xmlns:xlink="http://www.w3.org/1999/xlink">
    <title>HOGENT_Logo_Pos_rgb</title>
    <defs>
        <polygon id="path-1" points="0 0 207.913 0 207.913 217.562 0 217.562"></polygon>
    </defs>
    <g id="HOGENT_Logo_Pos_rgb" stroke="none" stroke-width="1" fill="none" fill-rule="evenodd">
        <polygon id="Fill-1" fill="#000000" points="224.4175 8.5045 224.4175 217.7025 162.0455 217.7025 162.0455 136.1155 76.9945 136.1155 76.9945 217.7025 14.6225 217.7025 14.6225 8.5045 76.9945 8.5045 76.9945 87.1015 162.0455 87.1015 162.0455 8.5045"></polygon>
        <g id="Group-7" transform="translate(0.000000, 0.137300)">
            <path d="M306.1553,203.52 C288.5243,194.157 274.6723,181.209 264.6153,164.666 C254.5513,148.133 249.5233,129.507 249.5233,108.784 C249.5233,88.063 254.5513,69.437 264.6153,52.899 C274.6723,36.361 288.5243,23.414 306.1553,14.045 C323.7883,4.682 343.6623,0 365.7773,0 C387.8913,0 407.7663,4.682 425.3963,14.045 C443.0293,23.414 456.8743,36.361 466.9373,52.899 C476.9973,69.437 482.0303,88.063 482.0303,108.784 C482.0303,129.507 476.9973,148.133 466.9373,164.666 C456.8743,181.209 443.0293,194.157 425.3963,203.52 C407.7663,212.887 387.8913,217.564 365.7773,217.564 C343.6623,217.564 323.7883,212.887 306.1553,203.52 M394.4653,161.081 C403.0313,156.103 409.8063,149.081 414.7893,140.013 C419.7673,130.949 422.2613,120.54 422.2613,108.784 C422.2613,97.03 419.7673,86.62 414.7893,77.553 C409.8063,68.489 403.0313,61.467 394.4653,56.484 C385.8973,51.504 376.3343,49.012 365.7773,49.012 C355.2153,49.012 345.6523,51.504 337.0863,56.484 C328.5193,61.467 321.7433,68.489 316.7653,77.553 C311.7833,86.62 309.2933,97.03 309.2933,108.784 C309.2933,120.54 311.7833,130.949 316.7653,140.013 C321.7433,149.081 328.5193,156.103 337.0863,161.081 C345.6523,166.066 355.2153,168.554 365.7773,168.554 C376.3343,168.554 385.8973,166.066 394.4653,161.081" id="Fill-2" fill="#000000"></path>
            <g id="Group-6" transform="translate(0.000000, 254.712200)">
                <mask id="mask-2" fill="white">
                    <use xlink:href="#path-1"></use>
                </mask>
                <g id="Clip-5"></g>
                <path d="M150.832,104.299 L203.132,104.299 L203.132,190.965 C191.177,199.534 177.432,206.111 161.89,210.689 C146.351,215.271 130.811,217.562 115.269,217.562 C93.35,217.562 73.625,212.933 56.098,203.666 C38.562,194.403 24.814,181.506 14.855,164.965 C4.89,148.432 -0.088,129.699 -0.088,108.781 C-0.088,87.863 4.89,69.136 14.855,52.597 C24.814,36.061 38.659,23.159 56.397,13.896 C74.126,4.629 94.147,0 116.465,0 C135.989,0 153.523,3.285 169.062,9.861 C184.602,16.436 197.553,25.901 207.913,38.251 L170.259,72.32 C156.109,56.781 139.177,49.009 119.454,49.009 C101.523,49.009 87.074,54.44 76.12,65.298 C65.159,76.159 59.682,90.654 59.682,108.781 C59.682,120.339 62.172,130.649 67.155,139.712 C72.132,148.78 79.109,155.849 88.075,160.931 C97.041,166.012 107.298,168.553 118.857,168.553 C130.212,168.553 140.868,166.263 150.832,161.678 L150.832,104.299 Z" id="Fill-4" fill="#000000" mask="url(#mask-2)"></path>
            </g>
        </g>
        <polygon id="Fill-8" fill="#000000" points="399.0742 422.505 399.0742 468.229 240.3222 468.229 240.3222 259.031 399.0742 259.031 399.0742 304.757 298.8982 304.757 298.8982 340.021 399.0742 340.021 399.0742 384.25 298.8982 384.25 298.8982 422.505"></polygon>
        <polygon id="Fill-9" fill="#000000" points="634.2109 259.0318 634.2109 468.2298 585.4989 468.2298 493.1509 356.7558 493.1509 468.2298 435.1729 468.2298 435.1729 259.0318 483.8879 259.0318 576.2319 370.5038 576.2319 259.0318"></polygon>
        <polygon id="Fill-10" fill="#000000" points="661.1022 259.0317 661.1022 305.9527 719.8412 305.9527 719.8412 468.2297 779.0142 468.2297 779.0142 305.9527 837.4522 305.9527 837.4522 259.0317"></polygon>
    </g>
</svg>