<?xml version="1.0" encoding="UTF-8"?>
<svg width="147px" height="127px" viewBox="0 0 147 127" version="1.1" xmlns="http://www.w3.org/2000/svg" xmlns:xlink="http://www.w3.org/1999/xlink">
    <title>KdG_V_RichBlack</title>
    <g id="KdG_V_RichBlack" stroke="none" stroke-width="1" fill="none" fill-rule="evenodd">
        <path d="M64.359,56.028 C58.233,56.028 53.248,51.085 53.248,45.008 C53.248,38.831 58.233,33.806 64.359,33.806 C70.536,33.806 75.561,38.831 75.561,45.008 C75.561,51.085 70.536,56.028 64.359,56.028 Z M85.01,1.569 L78.553,1.868 L80.313,37.263 C77.341,31.138 71.229,27.257 64.359,27.257 C54.621,27.257 46.699,35.22 46.699,45.008 C46.699,54.746 54.621,62.668 64.359,62.668 C71.83,62.668 78.476,57.996 81.008,51.139 L81.766,65.959 L88.224,65.66 L85.024,1.838 L85.01,1.569 Z M130.613,58.556 C129.735,58.651 128.847,58.7 127.971,58.7 L127.969,58.7 C115.587,58.698 105.305,49.503 104.052,37.305 C103.317,30.952 105.116,24.688 109.119,19.669 C113.148,14.617 118.895,11.448 125.3,10.746 L125.571,10.716 L124.778,4.079 L124.512,4.109 C107.73,5.954 95.573,21.159 97.414,38.005 C99.131,53.095 111.808,64.822 126.892,65.285 C127.278,65.309 127.678,65.321 128.082,65.321 C129.071,65.321 130.128,65.249 131.313,65.101 L131.576,65.068 L130.882,58.526 L130.613,58.556 Z M115.399,34.009 L115.399,40.559 L138.253,40.559 L138.307,64.504 L144.799,64.504 L144.801,34.009 L115.399,34.009 Z M0.512,64.945 L6.97,64.945 L6.97,0.762 L0.512,0.762 L0.512,64.945 Z M40.012,7.03 L35.247,2.562 L12.752,26.446 L17.424,30.821 L40.012,7.03 Z M12.728,38.806 L39.159,64.455 L39.349,64.639 L43.96,60.109 L17.34,34.181 L12.728,38.806 L12.728,38.806 Z" id="Fill-1" fill="#0F1010"></path>
        <polyline id="Fill-2" fill="#0F1010" points="9.857 97.051 3.99 90.094 2.436 91.856 2.436 97.051 0.512 97.051 0.512 81.584 2.436 81.584 2.436 89.56 9.277 81.584 11.689 81.584 5.242 88.912 12.269 97.051 9.857 97.051"></polyline>
        <path d="M20.988,94.686 L20.988,92.552 C20.316,91.648 19.133,91.184 17.928,91.184 C16.281,91.184 15.145,92.204 15.145,93.619 C15.145,95.057 16.281,96.076 17.928,96.076 C19.133,96.076 20.316,95.613 20.988,94.686 Z M20.988,97.051 L20.988,95.775 C20.084,96.796 18.785,97.329 17.278,97.329 C15.4,97.329 13.382,96.054 13.382,93.619 C13.382,91.091 15.377,89.931 17.278,89.931 C18.808,89.931 20.084,90.418 20.988,91.439 L20.988,89.421 C20.988,87.937 19.783,87.079 18.159,87.079 C16.815,87.079 15.725,87.543 14.727,88.633 L13.916,87.428 C15.122,86.175 16.559,85.572 18.391,85.572 C20.78,85.572 22.727,86.638 22.727,89.352 L22.727,97.051 L20.988,97.051 L20.988,97.051 Z" id="Fill-3" fill="#0F1010"></path>
        <path d="M26.23,97.051 L26.23,85.85 L27.969,85.85 L27.969,87.636 C28.874,86.477 30.172,85.595 31.703,85.595 L31.703,87.38 C31.494,87.358 31.285,87.334 31.03,87.334 C29.94,87.334 28.479,88.216 27.969,89.12 L27.969,97.051 L26.23,97.051" id="Fill-4" fill="#0F1010"></path>
        <path d="M38.729,87.009 C36.341,87.009 35.158,89.027 35.065,90.72 L42.416,90.72 C42.393,89.073 41.28,87.009 38.729,87.009 Z M33.233,91.439 C33.233,88.192 35.552,85.572 38.753,85.572 C42.138,85.572 44.133,88.216 44.133,91.578 L44.133,92.019 L35.089,92.019 C35.228,94.129 36.689,95.891 39.1,95.891 C40.399,95.891 41.674,95.382 42.579,94.454 L43.414,95.59 C42.277,96.703 40.77,97.329 38.961,97.329 C35.622,97.329 33.233,94.941 33.233,91.439 L33.233,91.439 Z" id="Fill-5" fill="#0F1010"></path>
        <polygon id="Fill-6" fill="#0F1010" points="46.938 97.051 48.678 97.051 48.678 81.584 46.938 81.584"></polygon>
        <path d="M66.278,93.99 L66.278,88.934 C65.676,87.961 64.308,87.125 62.939,87.125 C60.667,87.125 59.322,88.981 59.322,91.462 C59.322,93.944 60.667,95.775 62.939,95.775 C64.308,95.775 65.676,94.963 66.278,93.99 Z M66.278,97.051 L66.278,95.382 C65.444,96.517 64.075,97.329 62.499,97.329 C59.577,97.329 57.513,95.103 57.513,91.462 C57.513,87.867 59.577,85.572 62.499,85.572 C64.006,85.572 65.374,86.314 66.278,87.543 L66.278,81.584 L68.018,81.584 L68.018,97.051 L66.278,97.051 L66.278,97.051 Z" id="Fill-7" fill="#0F1010"></path>
        <path d="M76.343,87.009 C73.955,87.009 72.772,89.027 72.679,90.72 L80.03,90.72 C80.007,89.073 78.894,87.009 76.343,87.009 Z M70.847,91.439 C70.847,88.192 73.166,85.572 76.367,85.572 C79.752,85.572 81.746,88.216 81.746,91.578 L81.746,92.019 L72.702,92.019 C72.842,94.129 74.303,95.891 76.714,95.891 C78.013,95.891 79.288,95.382 80.192,94.454 L81.028,95.59 C79.891,96.703 78.384,97.329 76.575,97.329 C73.236,97.329 70.847,94.941 70.847,91.439 L70.847,91.439 Z" id="Fill-8" fill="#0F1010"></path>
        <path d="M90.002,89.329 C90.002,84.506 93.55,81.329 97.956,81.329 C100.715,81.329 102.617,82.534 103.962,84.203 L102.431,85.178 C101.457,83.926 99.811,83.044 97.956,83.044 C94.57,83.044 91.996,85.619 91.996,89.329 C91.996,92.993 94.57,95.613 97.956,95.613 C99.811,95.613 101.342,94.732 102.13,93.944 L102.13,90.813 L96.796,90.813 L96.796,89.097 L104.031,89.097 L104.031,94.662 C102.594,96.285 100.484,97.352 97.956,97.352 C93.55,97.352 90.002,94.129 90.002,89.329" id="Fill-9" fill="#0F1010"></path>
        <path d="M107.093,97.051 L107.093,85.85 L108.833,85.85 L108.833,87.636 C109.737,86.477 111.036,85.595 112.566,85.595 L112.566,87.38 C112.358,87.358 112.149,87.334 111.894,87.334 C110.804,87.334 109.343,88.216 108.833,89.12 L108.833,97.051 L107.093,97.051" id="Fill-10" fill="#0F1010"></path>
        <path d="M123.349,91.439 C123.349,89.167 122.028,87.125 119.639,87.125 C117.25,87.125 115.929,89.167 115.929,91.439 C115.929,93.735 117.25,95.775 119.639,95.775 C122.028,95.775 123.349,93.735 123.349,91.439 Z M114.097,91.439 C114.097,88.192 116.23,85.572 119.639,85.572 C123.048,85.572 125.181,88.192 125.181,91.439 C125.181,94.686 123.048,97.329 119.639,97.329 C116.23,97.329 114.097,94.686 114.097,91.439 L114.097,91.439 Z" id="Fill-11" fill="#0F1010"></path>
        <path d="M128.359,94.708 L128.359,87.38 L126.504,87.38 L126.504,85.85 L128.359,85.85 L128.359,82.789 L130.121,82.789 L130.121,85.85 L132.394,85.85 L132.394,87.38 L130.121,87.38 L130.121,94.337 C130.121,95.172 130.492,95.775 131.234,95.775 C131.745,95.775 132.185,95.543 132.417,95.288 L132.927,96.61 C132.487,97.027 131.86,97.329 130.863,97.329 C129.194,97.329 128.359,96.379 128.359,94.708" id="Fill-12" fill="#0F1010"></path>
        <path d="M139.675,87.009 C137.287,87.009 136.104,89.027 136.012,90.72 L143.362,90.72 C143.339,89.073 142.226,87.009 139.675,87.009 Z M134.18,91.439 C134.18,88.192 136.498,85.572 139.699,85.572 C143.084,85.572 145.079,88.216 145.079,91.578 L145.079,92.019 L136.035,92.019 C136.174,94.129 137.635,95.891 140.046,95.891 C141.345,95.891 142.62,95.382 143.525,94.454 L144.36,95.59 C143.224,96.703 141.716,97.329 139.907,97.329 C136.568,97.329 134.18,94.941 134.18,91.439 L134.18,91.439 Z" id="Fill-13" fill="#0F1010"></path>
        <polyline id="Fill-14" fill="#0F1010" points="11.48 120.942 11.48 113.847 2.436 113.847 2.436 120.942 0.512 120.942 0.512 105.475 2.436 105.475 2.436 112.13 11.48 112.13 11.48 105.475 13.405 105.475 13.405 120.942 11.48 120.942"></polyline>
        <path d="M25.557,115.331 C25.557,113.058 24.235,111.017 21.847,111.017 C19.458,111.017 18.136,113.058 18.136,115.331 C18.136,117.627 19.458,119.667 21.847,119.667 C24.235,119.667 25.557,117.627 25.557,115.331 Z M16.304,115.331 C16.304,112.084 18.437,109.464 21.847,109.464 C25.255,109.464 27.389,112.084 27.389,115.331 C27.389,118.577 25.255,121.221 21.847,121.221 C18.437,121.221 16.304,118.577 16.304,115.331 L16.304,115.331 Z" id="Fill-15" fill="#0F1010"></path>
        <path d="M38.334,117.719 L38.334,112.803 C37.709,111.853 36.363,111.017 34.995,111.017 C32.723,111.017 31.378,112.803 31.378,115.284 C31.378,117.742 32.723,119.528 34.995,119.528 C36.363,119.528 37.709,118.693 38.334,117.719 Z M30.195,123.795 L31.076,122.543 C32.004,123.632 33.117,124.049 34.717,124.049 C36.572,124.049 38.334,123.145 38.334,120.78 L38.334,119.087 C37.5,120.224 36.131,121.081 34.555,121.081 C31.633,121.081 29.569,118.901 29.569,115.284 C29.569,111.69 31.61,109.464 34.555,109.464 C36.062,109.464 37.43,110.206 38.334,111.434 L38.334,109.742 L40.073,109.742 L40.073,120.78 C40.073,124.328 37.453,125.487 34.717,125.487 C32.839,125.487 31.54,125.116 30.195,123.795 L30.195,123.795 Z" id="Fill-16" fill="#0F1010"></path>
        <path d="M48.399,110.901 C46.011,110.901 44.828,112.919 44.735,114.611 L52.086,114.611 C52.063,112.965 50.95,110.901 48.399,110.901 Z M42.903,115.331 C42.903,112.084 45.222,109.464 48.423,109.464 C51.808,109.464 53.803,112.108 53.803,115.469 L53.803,115.91 L44.758,115.91 C44.898,118.02 46.358,119.783 48.771,119.783 C50.069,119.783 51.344,119.273 52.249,118.345 L53.084,119.482 C51.947,120.595 50.44,121.221 48.631,121.221 C45.292,121.221 42.903,118.832 42.903,115.331 L42.903,115.331 Z" id="Fill-17" fill="#0F1010"></path>
        <path d="M55.658,119.458 L56.539,118.206 C57.281,119.064 58.696,119.806 60.226,119.806 C61.942,119.806 62.893,118.995 62.893,117.882 C62.893,115.168 55.959,116.837 55.959,112.687 C55.959,110.925 57.443,109.464 60.11,109.464 C62.035,109.464 63.38,110.183 64.261,111.087 L63.449,112.293 C62.777,111.481 61.571,110.878 60.11,110.878 C58.58,110.878 57.629,111.643 57.629,112.641 C57.629,115.076 64.562,113.476 64.562,117.835 C64.562,119.713 63.055,121.221 60.18,121.221 C58.325,121.221 56.794,120.641 55.658,119.458" id="Fill-18" fill="#0F1010"></path>
        <path d="M66.743,115.331 C66.743,112.014 68.992,109.464 72.331,109.464 C74.372,109.464 75.578,110.299 76.436,111.412 L75.277,112.455 C74.535,111.434 73.584,111.017 72.424,111.017 C70.059,111.017 68.552,112.85 68.552,115.331 C68.552,117.812 70.059,119.667 72.424,119.667 C73.584,119.667 74.535,119.203 75.277,118.206 L76.436,119.273 C75.578,120.385 74.372,121.221 72.331,121.221 C68.992,121.221 66.743,118.646 66.743,115.331" id="Fill-19" fill="#0F1010"></path>
        <path d="M86.477,120.942 L86.477,113.568 C86.477,111.574 85.48,111.017 83.95,111.017 C82.605,111.017 81.306,111.853 80.657,112.756 L80.657,120.942 L78.917,120.942 L78.917,105.475 L80.657,105.475 L80.657,111.365 C81.422,110.415 82.953,109.464 84.645,109.464 C86.988,109.464 88.217,110.6 88.217,113.035 L88.217,120.942 L86.477,120.942" id="Fill-20" fill="#0F1010"></path>
        <path d="M100.299,115.331 C100.299,113.058 98.977,111.017 96.588,111.017 C94.2,111.017 92.878,113.058 92.878,115.331 C92.878,117.627 94.2,119.667 96.588,119.667 C98.977,119.667 100.299,117.627 100.299,115.331 Z M91.046,115.331 C91.046,112.084 93.179,109.464 96.588,109.464 C99.997,109.464 102.131,112.084 102.131,115.331 C102.131,118.577 99.997,121.221 96.588,121.221 C93.179,121.221 91.046,118.577 91.046,115.331 L91.046,115.331 Z" id="Fill-21" fill="#0F1010"></path>
        <path d="M113.564,115.331 C113.564,113.058 112.242,111.017 109.853,111.017 C107.465,111.017 106.143,113.058 106.143,115.331 C106.143,117.627 107.465,119.667 109.853,119.667 C112.242,119.667 113.564,117.627 113.564,115.331 Z M104.311,115.331 C104.311,112.084 106.444,109.464 109.853,109.464 C113.262,109.464 115.396,112.084 115.396,115.331 C115.396,118.577 113.262,121.221 109.853,121.221 C106.444,121.221 104.311,118.577 104.311,115.331 L104.311,115.331 Z" id="Fill-22" fill="#0F1010"></path>
        <polygon id="Fill-23" fill="#0F1010" points="118.225 120.942 119.964 120.942 119.964 105.475 118.225 105.475"></polygon>
    </g>
</svg>