<?xml version="1.0" encoding="UTF-8" standalone="no"?>
<!DOCTYPE svg PUBLIC "-//W3C//DTD SVG 1.1//EN" "http://www.w3.org/Graphics/SVG/1.1/DTD/svg11.dtd">
<svg width="100%" height="100%" viewBox="0 0 6006 1567" version="1.1" xmlns="http://www.w3.org/2000/svg" xmlns:xlink="http://www.w3.org/1999/xlink" xml:space="preserve" xmlns:serif="http://www.serif.com/" style="fill-rule:evenodd;clip-rule:evenodd;stroke-linejoin:round;stroke-miterlimit:2;">
    <g transform="matrix(1,0,0,1,0,-9375)">
        <g id="Page-5" serif:id="Page 5" transform="matrix(4.16667,0,0,4.16667,0,9375)">
            <rect x="0" y="0" width="1441.21" height="376" style="fill:none;"/>
            <g id="Layer-1" serif:id="Layer 1">
                <g>
                    <g transform="matrix(1,0,0,1,160.979,175.23)">
                        <path d="M0,-7.851L55.723,-84.94L6.62,-84.94L-46.902,-11.53L-49.828,-7.518L-46.902,-3.679L14.731,77.089L64.806,77.089L0,-7.851Z" style="fill:rgb(17,192,192);fill-rule:nonzero;"/>
                    </g>
                    <g transform="matrix(1,0,0,1,462.963,214.025)">
                        <path d="M0,-85.438L0,0.246L13.994,0.246C39.527,0.246 59.414,-15.467 59.414,-43.21C59.414,-71.935 39.527,-85.438 13.994,-85.438L0,-85.438ZM102.624,-43.21C102.624,5.647 64.324,38.3 14.24,38.3L-42.228,38.3L-42.228,-123.738L14.24,-123.738C64.324,-123.738 102.624,-93.049 102.624,-43.21" style="fill:rgb(27,22,24);fill-rule:nonzero;"/>
                    </g>
                    <g transform="matrix(1,0,0,1,702.094,214.269)">
                        <path d="M0,-85.928L-70.216,-85.928L-70.216,-63.587L-20.132,-63.587L-20.132,-28.233L-70.216,-28.233L-70.216,0.001L2.945,0.001L2.945,38.055L-112.445,38.055L-112.445,-123.983L0,-123.983L0,-85.928Z" style="fill:rgb(27,22,24);fill-rule:nonzero;"/>
                    </g>
                    <g transform="matrix(1,0,0,1,944.176,128.341)">
                        <path d="M0,85.93L67.024,85.93L67.024,123.984L-42.228,123.984L-42.228,-38.054L0,-38.054L0,85.93Z" style="fill:rgb(27,22,24);fill-rule:nonzero;"/>
                    </g>
                    <g transform="matrix(1,0,0,1,1173.24,161.975)">
                        <path d="M0,21.606C0,65.061 -30.689,93.295 -71.689,93.295C-112.934,93.295 -143.378,65.061 -143.378,21.606L-143.378,-71.689L-101.15,-71.689L-101.15,24.798C-101.15,43.456 -88.874,54.505 -71.689,54.505C-54.504,54.505 -42.227,43.456 -42.227,24.798L-42.227,-71.689L0,-71.689L0,21.606Z" style="fill:rgb(27,22,24);fill-rule:nonzero;"/>
                    </g>
                    <g transform="matrix(1,0,0,1,1293.79,140.126)">
                        <path d="M0,62.36C0,52.785 -6.382,48.12 -16.204,48.12L-48.611,48.12L-48.611,76.6L-16.204,76.6C-6.382,76.6 0,71.934 0,62.36M-48.611,-14.24L-48.611,14.239L-33.389,14.239C-23.323,14.239 -17.185,8.592 -17.185,0C-17.185,-8.593 -23.323,-14.24 -33.389,-14.24L-48.611,-14.24ZM41.247,64.078C41.247,92.558 17.677,112.199 -13.503,112.199L-67.515,112.199L-89.12,112.199L-89.12,-49.839L-30.689,-49.839C0.246,-49.839 24.06,-30.689 24.06,-1.964C24.06,9.083 20.378,18.413 14.24,25.288C30.69,31.916 41.247,44.929 41.247,64.078" style="fill:rgb(27,22,24);fill-rule:nonzero;"/>
                    </g>
                    <g transform="matrix(-1,0,0,1,180.074,73.645)">
                        <rect x="68.923" y="123.681" width="42.228" height="54.993" style="fill:rgb(17,192,192);"/>
                    </g>
                    <g transform="matrix(1,0,0,1,731.313,90.2908)">
                        <path d="M0,162.028L50.074,162.028L111.708,81.26L114.634,77.422L111.708,73.409L58.186,0L9.082,0L64.806,77.088L0,162.028Z" style="fill:rgb(17,192,192);fill-rule:nonzero;"/>
                    </g>
                    <g transform="matrix(1,0,0,1,0,73.645)">
                        <rect x="845.947" y="123.681" width="42.228" height="54.993" style="fill:rgb(17,192,192);"/>
                    </g>
                    <g transform="matrix(1,0,0,1,309.267,129.262)">
                        <path d="M0,85.445C-23.59,85.445 -42.722,66.323 -42.722,42.723C-42.722,19.123 -23.59,0.001 0,0.001C23.6,0.001 42.732,19.123 42.732,42.723C42.732,66.323 23.6,85.445 0,85.445M0,-40.173C-45.777,-40.173 -82.895,-3.064 -82.895,42.723C-82.895,88.51 -45.777,125.618 0,125.618C45.787,125.618 82.906,88.51 82.906,42.723C82.906,-3.064 45.787,-40.173 0,-40.173" style="fill:rgb(27,22,24);fill-rule:nonzero;"/>
                    </g>
                </g>
            </g>
        </g>
    </g>
</svg>
