<?xml version="1.0" encoding="UTF-8"?>
<svg width="435px" height="405px" viewBox="0 0 435 405" version="1.1" xmlns="http://www.w3.org/2000/svg" xmlns:xlink="http://www.w3.org/1999/xlink">
    <title>Artboard</title>
    <g id="Artboard" stroke="none" stroke-width="1" fill="none" fill-rule="evenodd">
        <rect id="Rectangle" fill="#EBEBEF" x="0" y="282" width="434" height="68"></rect>
        <rect id="Rectangle-Copy" fill="#252A56" x="0" y="350" width="434" height="55"></rect>
        <path d="M260.353829,126.494447 L185,82.988893 L109.646171,126.494447 L109.646171,213.505553 L185,257.011107 L260.353829,213.505553 L260.353829,126.494447 Z M185,98 L247.353829,134 L247.353829,206 L185,242 L122.646171,206 L122.646171,134 L185,98 Z" id="Polygon-Copy" fill="#25295A" fill-rule="nonzero"></path>
        <path d="M138.502232,171.363249 L91.5,144.226497 L44.4977679,171.363249 L44.4977679,225.636751 L91.5,252.773503 L138.502232,225.636751 L138.502232,171.363249 Z M91.5,150 L133.502232,174.25 L133.502232,222.75 L91.5,247 L49.4977679,222.75 L49.4977679,174.25 L91.5,150 Z" id="Polygon-Copy-2" fill="#25295A" fill-rule="nonzero"></path>
        <path d="M62.6458256,198.095299 L32.5,180.690599 L2.35417438,198.095299 L2.35417438,232.904701 L32.5,250.309401 L62.6458256,232.904701 L62.6458256,198.095299 Z M32.5,183 L60.6458256,199.25 L60.6458256,231.75 L32.5,248 L4.35417438,231.75 L4.35417438,199.25 L32.5,183 Z" id="Polygon-Copy-3" fill="#25295A" fill-rule="nonzero"></path>
        <path d="M434.262794,66.0303449 L320,0.0606897708 L205.737206,66.0303449 L205.737206,197.969655 L320,263.93931 L434.262794,197.969655 L434.262794,66.0303449 Z M320,22 L415.262794,77 L415.262794,187 L320,242 L224.737206,187 L224.737206,77 L320,22 Z" id="Polygon" fill="#B53456" fill-rule="nonzero"></path>
        <path d="M22.8706055,329.876465 C27.5356445,329.876465 31.0136719,328.461182 33.3046875,325.630615 C35.5957031,322.800049 36.7412109,319.392578 36.7412109,315.408203 C36.7412109,311.490234 35.5957031,308.095215 33.3046875,305.223145 C31.0136719,302.351074 27.5356445,300.915039 22.8706055,300.915039 C18.2055664,300.915039 14.7275391,302.351074 12.4365234,305.223145 C10.1455078,308.095215 9,311.490234 9,315.408203 C9,319.392578 10.1455078,322.800049 12.4365234,325.630615 C14.7275391,328.461182 18.2055664,329.876465 22.8706055,329.876465 Z M22.8457031,323.924805 C20.7705078,323.924805 19.1726074,323.186035 18.052002,321.708496 C16.9313965,320.230957 16.3710938,318.130859 16.3710938,315.408203 C16.3710938,312.685547 16.9313965,310.5896 18.052002,309.120361 C19.1726074,307.651123 20.7705078,306.916504 22.8457031,306.916504 C24.9208984,306.916504 26.5146484,307.651123 27.6269531,309.120361 C28.7392578,310.5896 29.2954102,312.685547 29.2954102,315.408203 C29.2954102,318.130859 28.7392578,320.230957 27.6269531,321.708496 C26.5146484,323.186035 24.9208984,323.924805 22.8457031,323.924805 Z M49.2329928,339.613281 L49.2329928,325.46875 C49.9800631,326.614258 50.743735,327.48584 51.5240084,328.083496 C52.9517428,329.162598 54.7447115,329.702148 56.9029147,329.702148 C60.2896334,329.702148 63.057944,328.44873 65.2078463,325.941895 C67.3577486,323.435059 68.4326998,319.791016 68.4326998,315.009766 C68.4326998,310.477539 67.3328463,307.041016 65.1331393,304.700195 C62.9334322,302.359375 60.2481295,301.188965 57.0772311,301.188965 C54.9024264,301.188965 53.0264498,301.794922 51.4493014,303.006836 C50.5860201,303.6875 49.7725436,304.617188 49.0088717,305.795898 L49.0088717,305.795898 L49.0088717,301.786621 L42.2105319,301.786621 L42.2105319,339.613281 L49.2329928,339.613281 Z M55.0352389,323.750488 C53.6739108,323.750488 52.4951998,323.376953 51.4991061,322.629883 C49.8223483,321.351562 48.9839694,319.135254 48.9839694,315.980957 C48.9839694,313.98877 49.2329928,312.345215 49.7310397,311.050293 C50.6939303,308.609863 52.4619967,307.389648 55.0352389,307.389648 C57.1768404,307.389648 58.7249361,308.194824 59.679526,309.805176 C60.6341158,311.415527 61.1114108,313.266602 61.1114108,315.358398 C61.1114108,317.898438 60.5926119,319.932129 59.5550143,321.459473 C58.5174166,322.986816 57.0108248,323.750488 55.0352389,323.750488 Z M85.1080754,329.82666 C89.2916692,329.82666 92.5455754,328.506836 94.8697942,325.867188 C96.3639348,324.207031 97.2023137,322.571777 97.3849309,320.961426 L97.3849309,320.961426 L90.1383489,320.961426 C89.7565129,321.758301 89.3165715,322.380859 88.8185246,322.829102 C87.9054387,323.65918 86.718427,324.074219 85.2574895,324.074219 C83.8795598,324.074219 82.7008489,323.733887 81.7213567,323.053223 C80.1110051,321.95752 79.2560246,320.04834 79.1564153,317.325684 L79.1564153,317.325684 L97.7335637,317.325684 C97.7667668,314.984863 97.6920598,313.191895 97.5094426,311.946777 C97.1940129,309.821777 96.5050481,307.954102 95.4425481,306.34375 C94.2638371,304.517578 92.7696965,303.181152 90.9601262,302.334473 C89.1505559,301.487793 87.1168645,301.064453 84.859052,301.064453 C81.0572942,301.064453 77.9652532,302.317871 75.5829289,304.824707 C73.2006047,307.331543 72.0094426,310.934082 72.0094426,315.632324 C72.0094426,320.645996 73.3292668,324.265137 75.9689153,326.489746 C78.6085637,328.714355 81.6549504,329.82666 85.1080754,329.82666 Z M90.36247,312.644043 L79.3307317,312.644043 C79.5631535,310.884277 80.1317571,309.489746 81.0365422,308.460449 C81.9413274,307.431152 83.2154973,306.916504 84.859052,306.916504 C86.3697942,306.916504 87.6356633,307.4021 88.6566594,308.373291 C89.6776555,309.344482 90.246259,310.768066 90.36247,312.644043 L90.36247,312.644043 Z M110.225346,328.930176 L110.225346,314.237793 C110.225346,312.561035 110.457767,311.183105 110.922611,310.104004 C111.819096,308.062012 113.470951,307.041016 115.878178,307.041016 C117.837162,307.041016 119.165287,307.738281 119.862553,309.132812 C120.244389,309.896484 120.435306,310.992188 120.435306,312.419922 L120.435306,312.419922 L120.435306,328.930176 L127.706791,328.930176 L127.706791,310.651855 C127.706791,307.248535 126.814457,304.812256 125.029789,303.343018 C123.245121,301.873779 120.949955,301.13916 118.144291,301.13916 C115.90308,301.13916 114.052006,301.687012 112.591068,302.782715 C111.777592,303.396973 110.91431,304.401367 110.001224,305.795898 L110.001224,305.795898 L110.001224,301.836426 L103.15308,301.836426 L103.15308,328.930176 L110.225346,328.930176 Z M156.67473,328.930176 L156.67473,315.956055 C156.67473,313.78125 156.948655,312.170898 157.496507,311.125 C158.475999,309.265625 160.39348,308.335938 163.248948,308.335938 C163.464769,308.335938 163.746995,308.344238 164.095628,308.36084 C164.444261,308.377441 164.842698,308.410645 165.290941,308.460449 L165.290941,308.460449 L165.290941,301.188965 C164.975511,301.172363 164.772142,301.159912 164.680833,301.151611 C164.589524,301.143311 164.477464,301.13916 164.344651,301.13916 C162.219651,301.13916 160.493089,301.695312 159.164964,302.807617 C158.351487,303.47168 157.396898,304.708496 156.301194,306.518066 L156.301194,306.518066 L156.301194,301.786621 L149.527757,301.786621 L149.527757,328.930176 L156.67473,328.930176 Z M180.995125,329.82666 C185.178718,329.82666 188.432625,328.506836 190.756843,325.867188 C192.250984,324.207031 193.089363,322.571777 193.27198,320.961426 L193.27198,320.961426 L186.025398,320.961426 C185.643562,321.758301 185.203621,322.380859 184.705574,322.829102 C183.792488,323.65918 182.605476,324.074219 181.144539,324.074219 C179.766609,324.074219 178.587898,323.733887 177.608406,323.053223 C175.998054,321.95752 175.143074,320.04834 175.043465,317.325684 L175.043465,317.325684 L193.620613,317.325684 C193.653816,314.984863 193.579109,313.191895 193.396492,311.946777 C193.081062,309.821777 192.392097,307.954102 191.329597,306.34375 C190.150886,304.517578 188.656746,303.181152 186.847175,302.334473 C185.037605,301.487793 183.003914,301.064453 180.746101,301.064453 C176.944343,301.064453 173.852302,302.317871 171.469978,304.824707 C169.087654,307.331543 167.896492,310.934082 167.896492,315.632324 C167.896492,320.645996 169.216316,324.265137 171.855965,326.489746 C174.495613,328.714355 177.542,329.82666 180.995125,329.82666 Z M186.249519,312.644043 L175.217781,312.644043 C175.450203,310.884277 176.018806,309.489746 176.923591,308.460449 C177.828377,307.431152 179.102547,306.916504 180.746101,306.916504 C182.256843,306.916504 183.522713,307.4021 184.543709,308.373291 C185.564705,309.344482 186.133308,310.768066 186.249519,312.644043 L186.249519,312.644043 Z M210.171477,329.876465 C214.537688,329.876465 217.833098,328.324219 220.057707,325.219727 C221.452239,323.293945 222.232512,321.251953 222.398528,319.09375 L222.398528,319.09375 L215.151946,319.09375 C215.002532,320.521484 214.579192,321.683594 213.881926,322.580078 C213.18466,323.476562 212.00595,323.924805 210.345793,323.924805 C208.004973,323.924805 206.411223,322.795898 205.564543,320.538086 C205.0997,319.326172 204.867278,317.724121 204.867278,315.731934 C204.867278,313.640137 205.0997,311.963379 205.564543,310.70166 C206.444426,308.327637 208.07968,307.140625 210.470305,307.140625 C212.147063,307.140625 213.383879,307.688477 214.180754,308.78418 C214.728606,309.597656 215.068938,310.510742 215.20175,311.523438 L215.20175,311.523438 L222.473235,311.523438 C222.074797,307.655273 220.792326,304.95752 218.625823,303.430176 C216.459319,301.902832 213.674407,301.13916 210.271086,301.13916 C206.27011,301.13916 203.132414,302.434082 200.858,305.023926 C198.583586,307.61377 197.446379,311.241211 197.446379,315.90625 C197.446379,320.040039 198.475676,323.401855 200.53427,325.991699 C202.592864,328.581543 205.805266,329.876465 210.171477,329.876465 Z M240.144704,329.876465 C244.809743,329.876465 248.28777,328.461182 250.578786,325.630615 C252.869802,322.800049 254.015309,319.392578 254.015309,315.408203 C254.015309,311.490234 252.869802,308.095215 250.578786,305.223145 C248.28777,302.351074 244.809743,300.915039 240.144704,300.915039 C235.479665,300.915039 232.001638,302.351074 229.710622,305.223145 C227.419606,308.095215 226.274099,311.490234 226.274099,315.408203 C226.274099,319.392578 227.419606,322.800049 229.710622,325.630615 C232.001638,328.461182 235.479665,329.876465 240.144704,329.876465 Z M240.119802,323.924805 C238.044606,323.924805 236.446706,323.186035 235.326101,321.708496 C234.205495,320.230957 233.645192,318.130859 233.645192,315.408203 C233.645192,312.685547 234.205495,310.5896 235.326101,309.120361 C236.446706,307.651123 238.044606,306.916504 240.119802,306.916504 C242.194997,306.916504 243.788747,307.651123 244.901052,309.120361 C246.013356,310.5896 246.569509,312.685547 246.569509,315.408203 C246.569509,318.130859 246.013356,320.230957 244.901052,321.708496 C243.788747,323.186035 242.194997,323.924805 240.119802,323.924805 Z M270.790294,340.036621 C276.534435,340.036621 280.419201,338.509277 282.444591,335.45459 C283.623302,333.678223 284.212658,331.038574 284.212658,327.535645 L284.212658,327.535645 L284.212658,301.786621 L277.314709,301.786621 L277.314709,305.696289 C276.252209,303.787109 274.857677,302.475586 273.131115,301.761719 C272.118419,301.34668 270.931408,301.13916 269.57008,301.13916 C265.884533,301.13916 263.037365,302.512939 261.028576,305.260498 C259.019787,308.008057 258.015392,311.398926 258.015392,315.433105 C258.015392,319.616699 259.05714,322.932861 261.140636,325.381592 C263.224132,327.830322 266.009044,329.054688 269.495373,329.054688 C271.753185,329.054688 273.587658,328.515137 274.998791,327.436035 C275.779064,326.85498 276.509533,325.983398 277.190197,324.821289 L277.190197,324.821289 L277.190197,326.564453 C277.190197,329.154297 276.90797,330.99707 276.343517,332.092773 C275.480236,333.802734 273.770275,334.657715 271.213634,334.657715 C269.404064,334.657715 268.117443,334.333984 267.353771,333.686523 C266.905529,333.321289 266.581798,332.723633 266.38258,331.893555 L266.38258,331.893555 L258.662853,331.893555 C258.895275,334.599609 260.107189,336.633301 262.298595,337.994629 C264.490002,339.355957 267.320568,340.036621 270.790294,340.036621 Z M271.338146,323.103027 C268.847912,323.103027 267.121349,321.95752 266.158459,319.666504 C265.627209,318.437988 265.361584,317.035156 265.361584,315.458008 C265.361584,313.631836 265.610607,312.096191 266.108654,310.851074 C267.054943,308.510254 268.773205,307.339844 271.263439,307.339844 C273.089611,307.339844 274.546398,308.012207 275.6338,309.356934 C276.721203,310.70166 277.264904,312.660645 277.264904,315.233887 C277.264904,317.973145 276.69215,319.969482 275.546642,321.2229 C274.401134,322.476318 272.998302,323.103027 271.338146,323.103027 Z M298.547213,328.930176 L298.547213,314.237793 C298.547213,312.561035 298.779635,311.183105 299.244479,310.104004 C300.140963,308.062012 301.792819,307.041016 304.200045,307.041016 C306.159029,307.041016 307.487154,307.738281 308.18442,309.132812 C308.566256,309.896484 308.757174,310.992188 308.757174,312.419922 L308.757174,312.419922 L308.757174,328.930176 L316.028658,328.930176 L316.028658,310.651855 C316.028658,307.248535 315.136324,304.812256 313.351656,303.343018 C311.566988,301.873779 309.271822,301.13916 306.466158,301.13916 C304.224947,301.13916 302.373873,301.687012 300.912936,302.782715 C300.099459,303.396973 299.236178,304.401367 298.323092,305.795898 L298.323092,305.795898 L298.323092,301.836426 L291.474947,301.836426 L291.474947,328.930176 L298.547213,328.930176 Z M330.462823,298.549316 L330.462823,292 L323.266046,292 L323.266046,298.549316 L330.462823,298.549316 Z M330.462823,328.930176 L330.462823,301.786621 L323.266046,301.786621 L323.266046,328.930176 L330.462823,328.930176 Z M340.115738,327.560547 C341.344253,328.838867 343.635269,329.419922 346.988785,329.303711 L346.988785,329.303711 L350.350601,329.179199 L350.350601,323.875 C350.118179,323.891602 349.881607,323.904053 349.640884,323.912354 C349.400162,323.920654 349.17189,323.924805 348.95607,323.924805 C347.511734,323.924805 346.648453,323.787842 346.366226,323.513916 C346.083999,323.23999 345.942886,322.546875 345.942886,321.43457 L345.942886,321.43457 L345.942886,307.09082 L350.350601,307.09082 L350.350601,302.035645 L345.942886,302.035645 L345.942886,294.465332 L338.920425,294.465332 L338.920425,302.035645 L335.135269,302.035645 L335.135269,307.09082 L338.920425,307.09082 L338.920425,323.800293 C338.920425,325.493652 339.318863,326.74707 340.115738,327.560547 Z M362.792578,298.549316 L362.792578,292 L355.595801,292 L355.595801,298.549316 L362.792578,298.549316 Z M362.792578,328.930176 L362.792578,301.786621 L355.595801,301.786621 L355.595801,328.930176 L362.792578,328.930176 Z M381.456235,329.876465 C386.121274,329.876465 389.599301,328.461182 391.890317,325.630615 C394.181333,322.800049 395.32684,319.392578 395.32684,315.408203 C395.32684,311.490234 394.181333,308.095215 391.890317,305.223145 C389.599301,302.351074 386.121274,300.915039 381.456235,300.915039 C376.791196,300.915039 373.313169,302.351074 371.022153,305.223145 C368.731137,308.095215 367.58563,311.490234 367.58563,315.408203 C367.58563,319.392578 368.731137,322.800049 371.022153,325.630615 C373.313169,328.461182 376.791196,329.876465 381.456235,329.876465 Z M382.431333,323.924805 C380.356137,323.924805 378.758237,323.186035 377.637631,321.708496 C376.517026,320.230957 375.956723,318.130859 375.956723,315.408203 C375.956723,312.685547 376.517026,310.5896 377.637631,309.120361 C378.758237,307.651123 380.356137,306.916504 382.431333,306.916504 C384.506528,306.916504 386.100278,307.651123 387.212583,309.120361 C388.324887,310.5896 388.88104,312.685547 388.88104,315.408203 C388.88104,318.130859 388.324887,320.230957 387.212583,321.708496 C386.100278,323.186035 384.506528,323.924805 382.431333,323.924805 Z M408.11745,328.930176 L408.11745,314.237793 C408.11745,312.561035 408.349872,311.183105 408.814716,310.104004 C409.7112,308.062012 411.363056,307.041016 413.770282,307.041016 C415.729267,307.041016 417.057392,307.738281 417.754657,309.132812 C418.136493,309.896484 418.327411,310.992188 418.327411,312.419922 L418.327411,312.419922 L418.327411,328.930176 L425.598896,328.930176 L425.598896,310.651855 C425.598896,307.248535 424.706562,304.812256 422.921894,303.343018 C421.137226,301.873779 418.84206,301.13916 416.036396,301.13916 C413.795185,301.13916 411.944111,301.687012 410.483173,302.782715 C409.669697,303.396973 408.806415,304.401367 407.893329,305.795898 L407.893329,305.795898 L407.893329,301.836426 L401.045185,301.836426 L401.045185,328.930176 L408.11745,328.930176 Z" id="openrecognition" fill="#C33859" fill-rule="nonzero"></path>
        <path d="M16.4873047,394 L18.5292969,387.934082 L29.3999023,387.934082 L31.3017578,394 L37.9882812,394 L27.5380859,364.491211 L20.5712891,364.491211 L10.0410156,394 L16.4873047,394 Z M27.6782227,382.849121 L20.190918,382.849121 L23.9946289,371.237793 L27.6782227,382.849121 Z M92.289313,394 L92.289313,388.694824 L77.6750552,388.694824 L77.6750552,364.491211 L71.5090396,364.491211 L71.5090396,394 L92.289313,394 Z M147.110853,394 L147.110853,388.694824 L132.496595,388.694824 L132.496595,364.491211 L126.330579,364.491211 L126.330579,394 L147.110853,394 Z M186.797627,394 L186.797627,364.491211 L180.67165,364.491211 L180.67165,394 L186.797627,394 Z M226.684596,394 L228.726588,387.934082 L239.597194,387.934082 L241.499049,394 L248.185572,394 L237.735377,364.491211 L230.76858,364.491211 L220.238307,394 L226.684596,394 Z M237.875514,382.849121 L230.388209,382.849121 L234.19192,371.237793 L237.875514,382.849121 Z M287.351839,394 L287.351839,373.039551 L299.403596,394 L305.569612,394 L305.569612,364.491211 L299.824007,364.491211 L299.824007,385.091309 L288.072542,364.491211 L281.606233,364.491211 L281.606233,394 L287.351839,394 Z M353.464394,394.820801 C356.894407,394.820801 359.707151,393.813151 361.902626,391.797852 C364.098101,389.782552 365.462766,387.166667 365.99662,383.950195 L365.99662,383.950195 L359.890663,383.950195 C359.476926,385.47168 358.956419,386.612793 358.32914,387.373535 C357.1947,388.788249 355.546425,389.495605 353.384316,389.495605 C351.275592,389.495605 349.537229,388.671468 348.169228,387.023193 C346.801226,385.374919 346.117226,382.895833 346.117226,379.585938 C346.117226,376.276042 346.764524,373.716878 348.05912,371.908447 C349.353717,370.100016 351.122109,369.195801 353.364296,369.195801 C355.566445,369.195801 357.228066,369.836426 358.349159,371.117676 C358.976438,371.838379 359.490273,372.906087 359.890663,374.320801 L359.890663,374.320801 L366.056679,374.320801 C365.963254,372.479004 365.28259,370.64388 364.014687,368.81543 C361.719114,365.558919 358.088906,363.930664 353.124062,363.930664 C349.413775,363.930664 346.35746,365.145182 343.955116,367.574219 C341.192421,370.363607 339.811074,374.334147 339.811074,379.48584 C339.811074,384.250488 341.025592,388.000814 343.454628,390.736816 C345.883665,393.459473 349.220253,394.820801 353.464394,394.820801 Z M423.020308,394 L423.020308,388.694824 L406.684371,388.694824 L406.684371,381.107422 L421.018355,381.107422 L421.018355,375.982422 L406.684371,375.982422 L406.684371,369.716309 L422.299605,369.716309 L422.299605,364.491211 L400.658492,364.491211 L400.658492,394 L423.020308,394 Z" id="ALLIANCE" fill="#FFFFFF" fill-rule="nonzero"></path>
    </g>
</svg>