<?xml version="1.0" encoding="UTF-8"?>
<svg width="1336px" height="356px" viewBox="0 0 1336 356" version="1.1" xmlns="http://www.w3.org/2000/svg" xmlns:xlink="http://www.w3.org/1999/xlink">
    <title>Artboard</title>
    <g id="Artboard" stroke="none" stroke-width="1" fill="none" fill-rule="evenodd">
        <g id="provincie-oost-vlaanderen" transform="translate(0.091872, 0.891726)" fill-rule="nonzero">
            <path d="M298.008128,124.008274 C290.708128,127.708274 284.208128,132.608274 277.508128,137.208274 C247.808128,157.408274 219.108128,179.008274 190.408128,200.608274 C176.908128,210.808274 163.608128,221.208274 150.308128,231.608274 C142.408128,237.808274 134.708128,244.408274 126.908128,250.808274 C126.108128,251.408274 125.408128,252.208274 124.608128,252.708274 C122.008128,254.508274 119.208128,256.508274 115.908128,254.908274 C112.708128,253.408274 112.608128,249.908274 112.608128,247.008274 C112.708128,235.008274 112.608128,223.008274 113.308128,211.008274 C115.108128,179.008274 119.708128,147.508274 129.108128,116.708274 C135.508128,95.8082743 143.908128,75.7082743 156.108128,57.4082743 C177.108128,25.7082743 206.608128,7.90827434 244.008128,1.70827434 C276.308128,-3.69172566 305.308128,3.90827434 332.208128,21.7082743 C339.608128,26.6082743 345.908128,32.8082743 351.008128,40.0082743 C353.208128,43.0082743 354.708128,43.9082743 358.508128,42.3082743 C384.008128,31.9082743 409.408128,21.3082743 435.608128,12.7082743 C439.808128,11.3082743 444.008128,9.50827434 448.808128,9.90827434 C448.808128,12.6082743 445.608128,12.7082743 445.008128,14.8082743 C444.808128,15.0082743 444.708128,15.2082743 444.508128,15.4082743 C444.908128,15.4082743 445.308128,15.5082743 445.708128,15.5082743 C459.708128,12.8082743 473.708128,10.0082743 487.808128,7.50827434 C493.008128,6.50827434 498.308128,5.90827434 503.608128,5.50827434 C505.908128,5.30827434 509.208128,4.60827434 509.908128,7.80827434 C510.508128,10.8082743 507.308128,11.2082743 505.208128,12.0082743 C488.708128,17.8082743 471.808128,21.9082743 455.008128,26.9082743 C442.508128,30.6082743 429.908128,34.4082743 417.408128,38.1082743 C416.508128,38.4082743 415.908128,38.7082743 415.608128,39.6082743 C417.408128,40.4082743 419.108128,39.7082743 420.808128,39.2082743 C441.208128,33.7082743 461.208128,26.9082743 481.908128,22.4082743 C488.308128,21.0082743 494.708128,19.4082743 501.708128,21.0082743 C500.308128,24.3082743 496.708128,24.3082743 494.308128,28.1082743 C516.708128,25.0082743 537.808128,21.0082743 559.908128,19.8082743 C558.808128,23.2082743 556.108128,22.8082743 554.008128,25.1082743 C582.108128,23.2082743 609.408128,21.4082743 636.708128,20.7082743 C664.008128,20.0082743 691.208128,20.1082743 718.208128,24.3082743 C715.808128,26.5082743 713.208128,26.2082743 710.708128,26.2082743 C689.908128,26.2082743 669.108128,24.6082743 648.308128,25.0082743 C605.508128,25.9082743 562.908128,29.5082743 520.608128,35.6082743 C467.808128,43.1082743 418.708128,60.5082743 371.108128,82.9082743 C369.108128,83.8082743 367.908128,84.6082743 368.208128,87.2082743 C371.808128,117.308274 367.008128,146.308274 356.908128,174.608274 C345.708128,205.908274 326.908128,232.408274 306.408128,258.008274 C295.608128,271.608274 283.508128,284.108274 270.108128,295.008274 C243.908128,316.408274 214.608128,332.008274 182.708128,343.308274 C157.308128,352.208274 131.608128,356.808274 104.808128,353.908274 C78.6081279,351.108274 54.4081279,342.708274 34.7081279,324.808274 C17.9081279,309.508274 7.7081279,290.008274 3.0081279,267.708274 C-3.0918721,239.108274 0.608127897,211.208274 9.4081279,184.008274 C28.1081279,126.508274 64.2081279,82.8082743 117.308128,53.4082743 C121.508128,51.1082743 125.808128,48.6082743 130.908128,48.2082743 C122.108128,54.8082743 112.508128,60.1082743 104.208128,67.2082743 C103.608128,67.7082743 102.908128,68.1082743 102.308128,68.6082743 C103.408128,69.2082743 104.408128,69.2082743 105.408128,68.3082743 C106.008128,68.1082743 107.008128,67.6082743 107.308128,67.9082743 C108.508128,68.9082743 107.208128,69.7082743 106.708128,70.2082743 C102.008128,74.9082743 97.1081279,79.4082743 92.4081279,84.1082743 C88.2081279,88.3082743 84.1081279,92.6082743 79.3081279,97.6082743 C86.6081279,98.0082743 83.9081279,101.108274 81.8081279,103.408274 C76.0081279,110.008274 69.9081279,116.408274 64.7081279,123.608274 C63.2081279,125.608274 60.0081279,129.108274 61.7081279,130.108274 C64.9081279,131.908274 65.7081279,127.408274 67.3081279,125.408274 C72.0081279,119.808274 76.8081279,114.208274 82.5081279,109.608274 C83.7081279,108.608274 85.1081279,106.708274 86.7081279,108.508274 C87.9081279,109.808274 86.4081279,111.208274 85.3081279,112.308274 C67.5081279,130.608274 53.2081279,151.308274 42.3081279,174.408274 C39.1081279,181.208274 36.2081279,188.108274 36.6081279,195.908274 C49.8081279,174.308274 58.3081279,149.308274 81.6081279,135.008274 C65.2081279,155.908274 51.1081279,178.008274 42.9081279,205.008274 C49.7081279,199.708274 53.0081279,191.908274 61.9081279,189.708274 C56.5081279,199.008274 52.8081279,208.008274 49.2081279,217.108274 C47.0081279,222.608274 45.7081279,228.308274 44.5081279,233.908274 C42.5081279,243.308274 40.3081279,252.908274 41.2081279,262.708274 C42.3081279,276.008274 44.8081279,289.008274 53.5081279,299.708274 C62.9081279,311.208274 75.9081279,315.508274 90.3081279,315.908274 C111.108128,316.608274 130.408128,310.308274 148.808128,301.408274 C192.608128,280.308274 227.808128,248.708274 256.908128,210.208274 C276.308128,184.408274 288.708128,155.008274 298.608128,124.508274 C298.608128,124.108274 298.608128,123.708274 298.508128,123.308274 C298.308128,123.508274 298.108128,123.708274 298.008128,124.008274 Z M78.8081279,98.8082743 C78.2081279,99.4082743 76.8081279,99.9082743 77.7081279,100.708274 C78.5081279,101.408274 79.3081279,100.108274 79.9081279,99.5082743 C80.3081279,99.1082743 80.8081279,98.5082743 80.1081279,98.1082743 C79.3081279,97.5082743 79.1081279,98.3082743 78.8081279,98.8082743 Z M308.408128,61.9082743 C308.408128,51.0082743 301.008128,40.7082743 290.808128,37.0082743 C267.008128,28.4082743 245.808128,33.7082743 228.208128,50.8082743 C202.308128,76.0082743 186.208128,107.208274 177.408128,142.208274 C177.008128,144.008274 176.608128,145.908274 178.508128,147.208274 C180.408128,148.508274 182.108128,147.508274 183.608128,146.608274 C188.008128,143.908274 192.308128,141.108274 196.608128,138.208274 C233.008128,113.708274 267.808128,86.8082743 306.208128,65.3082743 C307.408128,64.5082743 308.908128,63.9082743 308.408128,61.9082743 Z" id="XMLID_403_" fill="#D0702B"></path>
            <path d="M486.208128,245.108274 C486.108128,255.008274 484.908128,264.608274 480.208128,273.608274 C473.608128,286.308274 462.608128,291.108274 448.908128,291.008274 C435.508128,290.908274 424.708128,285.608274 419.108128,273.008274 C411.108128,255.308274 411.108128,237.108274 418.408128,219.208274 C424.408128,204.608274 437.108128,198.408274 455.308128,200.008274 C469.408128,201.208274 480.108128,210.808274 484.008128,225.908274 C485.608128,232.208274 486.208128,238.608274 486.208128,245.108274 Z M431.908128,244.808274 C431.908128,251.808274 431.708128,258.808274 433.708128,265.608274 C436.408128,274.908274 440.808128,278.308274 450.208128,278.208274 C459.008128,278.108274 463.908128,274.408274 466.008128,265.408274 C469.008128,252.608274 469.008128,239.608274 466.608128,226.808274 C464.808128,217.008274 459.408128,213.108274 449.308128,213.308274 C440.208128,213.408274 435.208128,217.808274 433.108128,227.008274 C431.708128,232.808274 431.808128,238.808274 431.908128,244.808274 Z" id="XMLID_400_" fill="#555555"></path>
            <path d="M1066.00813,221.008274 C1066.00813,212.308274 1066.10813,204.208274 1065.90813,196.008274 C1065.80813,193.008274 1066.70813,192.108274 1069.80813,192.108274 C1082.00813,192.008274 1082.00813,191.908274 1082.00813,204.208274 C1082.00813,230.808274 1082.00813,257.508274 1081.90813,284.108274 C1081.90813,285.708274 1083.50813,288.908274 1080.30813,288.908274 C1076.90813,288.908274 1073.00813,290.908274 1070.20813,287.208274 C1068.90813,285.508274 1068.50813,283.208274 1066.60813,281.808274 C1062.70813,284.408274 1061.00813,289.408274 1055.40813,290.408274 C1043.40813,292.408274 1032.50813,287.408274 1028.30813,276.008274 C1022.90813,261.508274 1022.90813,246.608274 1028.30813,232.108274 C1033.50813,218.408274 1048.80813,211.408274 1066.00813,221.008274 Z M1066.00813,253.508274 C1066.00813,247.808274 1066.00813,242.208274 1066.00813,236.508274 C1066.00813,235.108274 1066.30813,233.708274 1064.80813,232.508274 C1056.80813,225.608274 1044.10813,229.608274 1042.10813,239.808274 C1040.60813,247.508274 1041.00813,255.408274 1041.40813,263.208274 C1041.60813,267.008274 1042.30813,270.808274 1044.10813,274.208274 C1046.70813,278.908274 1051.90813,281.008274 1057.40813,279.708274 C1063.20813,278.308274 1066.00813,274.808274 1066.00813,268.908274 C1066.00813,263.808274 1066.00813,258.708274 1066.00813,253.508274 Z" id="XMLID_397_" fill="#555555"></path>
            <path d="M738.408128,273.108274 C741.008128,264.708274 741.408128,255.808274 744.008128,247.408274 C748.308128,233.408274 752.408128,219.408274 756.408128,205.308274 C757.308128,201.908274 758.808128,200.808274 762.308128,201.108274 C765.908128,201.408274 769.608128,201.208274 773.908128,201.208274 C770.508128,212.008274 767.208128,222.408274 763.908128,232.808274 C758.308128,250.208274 752.608128,267.608274 747.208128,285.008274 C746.308128,287.908274 745.208128,289.208274 741.808128,289.208274 C730.608128,289.008274 730.508128,289.208274 726.908128,278.308274 C718.908128,254.208274 711.108128,230.008274 703.008128,205.908274 C701.808128,202.208274 702.008128,201.108274 706.308128,201.108274 C719.508128,201.208274 719.608128,201.008274 723.308128,213.708274 C728.808128,233.208274 736.408128,252.408274 738.408128,273.108274 Z" id="XMLID_396_" fill="#555555"></path>
            <path d="M870.008128,258.008274 C870.008128,263.808274 870.108128,269.708274 870.008128,275.508274 C869.908128,278.508274 870.808128,280.308274 874.108128,280.408274 C875.508128,280.408274 877.408128,280.208274 877.208128,282.508274 C876.908128,284.808274 878.608128,287.308274 875.408128,289.108274 C869.508128,292.408274 861.608128,291.108274 857.808128,285.608274 C855.908128,282.808274 854.708128,281.908274 852.208128,285.208274 C847.008128,292.208274 839.408128,291.508274 832.208128,290.508274 C825.208128,289.508274 820.108128,285.308274 818.408128,278.308274 C814.908128,263.308274 818.908128,252.808274 834.908128,249.308274 C839.908128,248.208274 845.108128,247.508274 850.208128,247.008274 C853.008128,246.708274 854.108128,245.808274 854.108128,242.708274 C854.108128,232.408274 850.308128,228.808274 840.008128,230.408274 C835.108128,231.108274 830.208128,232.308274 825.508128,234.008274 C823.408128,234.808274 822.308128,234.708274 821.908128,231.908274 C820.208128,220.708274 818.208128,223.208274 829.108128,219.208274 C836.008128,216.708274 843.308128,215.908274 850.708128,216.808274 C861.508128,218.108274 867.108128,223.308274 869.008128,234.008274 C869.308128,235.808274 869.708128,237.608274 869.808128,239.408274 C869.908128,245.608274 869.808128,251.708274 869.808128,257.908274 C869.908128,258.008274 869.908128,258.008274 870.008128,258.008274 Z M854.008128,266.308274 C854.008128,263.608274 854.008128,261.008274 854.008128,258.308274 C854.008128,256.808274 853.808128,255.608274 851.908128,255.908274 C847.208128,256.808274 842.308128,256.708274 837.808128,258.808274 C832.808128,261.108274 832.308128,265.508274 832.508128,270.108274 C832.708128,274.308274 834.008128,277.808274 838.608128,279.308274 C847.508128,282.208274 854.008128,277.808274 854.008128,268.608274 C854.008128,268.008274 854.008128,267.108274 854.008128,266.308274 Z" id="XMLID_393_" fill="#555555"></path>
            <path d="M922.408128,281.808274 C919.308128,287.708274 914.708128,290.508274 908.608128,290.908274 C900.808128,291.408274 893.208128,290.708274 888.608128,283.608274 C883.508128,275.908274 883.708128,267.408274 887.308128,259.208274 C889.608128,253.908274 894.708128,251.708274 899.808128,250.108274 C905.708128,248.308274 911.808128,247.408274 918.008128,246.908274 C920.908128,246.708274 921.908128,245.608274 922.008128,242.608274 C922.008128,232.608274 918.108128,228.908274 908.108128,230.208274 C903.008128,230.908274 898.008128,232.108274 893.108128,233.908274 C890.708128,234.808274 890.108128,234.108274 889.508128,231.808274 C887.208128,222.608274 887.308128,222.008274 896.208128,219.208274 C903.108128,217.008274 910.108128,215.808274 917.308128,216.608274 C929.908128,218.008274 935.808128,224.108274 937.008128,236.908274 C938.108128,248.708274 937.308128,260.508274 937.508128,272.308274 C937.608128,276.308274 936.808128,280.708274 943.108128,280.408274 C945.308128,280.308274 944.808128,282.508274 944.908128,283.808274 C945.108128,286.008274 945.008128,287.908274 942.508128,289.208274 C936.208128,292.308274 929.208128,290.808274 925.008128,285.108274 C924.308128,284.308274 923.608128,283.408274 922.408128,281.808274 Z M921.808128,265.908274 C921.808128,263.408274 921.708128,260.908274 921.808128,258.408274 C921.908128,256.408274 921.108128,255.608274 919.208128,256.008274 C914.808128,256.708274 910.308128,256.908274 906.108128,258.608274 C901.408128,260.508274 899.708128,264.308274 900.208128,271.008274 C900.608128,275.408274 902.608128,278.608274 907.108128,279.708274 C916.108128,282.008274 921.908128,277.508274 921.908128,268.408274 C921.808128,267.608274 921.808128,266.808274 921.808128,265.908274 Z" id="XMLID_390_" fill="#555555"></path>
            <path d="M496.908128,253.708274 C496.508128,246.608274 497.508128,239.508274 500.508128,232.908274 C505.508128,221.608274 514.608128,216.508274 526.708128,216.508274 C539.108128,216.508274 548.508128,222.708274 552.608128,234.008274 C557.308128,247.008274 557.308128,260.208274 552.608128,273.108274 C548.108128,285.708274 537.408128,291.908274 523.408128,290.908274 C510.608128,290.008274 501.408128,281.508274 498.108128,267.708274 C497.008128,263.208274 496.708128,258.608274 496.908128,253.708274 Z M539.108128,253.608274 C539.108128,248.608274 539.208128,243.608274 538.008128,238.708274 C536.408128,232.008274 533.108128,229.108274 526.708128,228.908274 C519.808128,228.708274 516.108128,231.208274 514.508128,238.108274 C512.208128,248.408274 512.208128,258.908274 514.808128,269.208274 C516.408128,275.808274 520.408128,278.708274 526.408128,278.708274 C532.308128,278.608274 536.108128,275.408274 537.808128,268.908274 C539.308128,264.008274 539.208128,258.808274 539.108128,253.608274 Z" id="XMLID_387_" fill="#555555"></path>
            <path d="M1247.00813,258.808274 C1241.50813,258.808274 1236.00813,258.908274 1230.50813,258.808274 C1228.50813,258.808274 1227.70813,259.208274 1227.70813,261.608274 C1227.60813,273.308274 1232.80813,278.508274 1244.40813,278.108274 C1249.50813,277.908274 1254.30813,276.608274 1258.90813,274.708274 C1261.50813,273.608274 1262.00813,274.508274 1262.50813,276.708274 C1264.80813,285.608274 1264.40813,286.508274 1255.40813,289.008274 C1250.70813,290.308274 1246.00813,291.108274 1241.10813,291.008274 C1225.80813,290.808274 1216.00813,283.308274 1212.50813,268.308274 C1209.70813,256.608274 1209.80813,244.808274 1214.30813,233.408274 C1219.20813,220.708274 1230.10813,215.008274 1244.90813,216.808274 C1256.50813,218.208274 1264.00813,226.108274 1265.70813,239.408274 C1266.40813,244.508274 1266.30813,249.708274 1266.70813,254.808274 C1267.00813,257.808274 1266.00813,259.008274 1262.80813,258.808274 C1257.70813,258.708274 1252.40813,258.808274 1247.00813,258.808274 Z M1239.90813,247.808274 C1240.60813,247.808274 1241.20813,247.808274 1241.90813,247.808274 C1252.80813,247.808274 1253.90813,246.308274 1250.50813,235.608274 C1248.80813,230.208274 1245.40813,227.808274 1239.70813,228.008274 C1232.80813,228.208274 1229.10813,232.808274 1228.00813,242.208274 C1227.50813,246.208274 1227.90813,248.708274 1232.90813,247.908274 C1235.20813,247.508274 1237.60813,247.808274 1239.90813,247.808274 Z" id="XMLID_384_" fill="#555555"></path>
            <path d="M1132.30813,258.808274 C1127.00813,258.808274 1121.60813,258.908274 1116.30813,258.708274 C1113.40813,258.608274 1112.70813,259.608274 1112.90813,262.408274 C1113.50813,273.808274 1118.30813,278.408274 1129.60813,278.008274 C1134.70813,277.808274 1139.50813,276.508274 1144.10813,274.608274 C1146.40813,273.708274 1147.20813,274.108274 1147.80813,276.508274 C1150.00813,285.808274 1149.80813,286.208274 1140.60813,288.808274 C1135.10813,290.408274 1129.50813,291.108274 1123.80813,290.708274 C1112.60813,289.808274 1103.90813,285.008274 1099.80813,274.108274 C1094.40813,259.708274 1094.20813,245.008274 1100.80813,230.908274 C1106.10813,219.408274 1117.20813,214.508274 1131.40813,216.708274 C1141.80813,218.308274 1148.90813,226.008274 1150.90813,237.908274 C1151.90813,243.708274 1151.80813,249.508274 1151.90813,255.308274 C1151.90813,258.108274 1150.70813,258.608274 1148.30813,258.608274 C1143.00813,258.808274 1137.60813,258.808274 1132.30813,258.808274 Z M1124.80813,247.808274 C1127.80813,247.808274 1130.80813,247.808274 1133.80813,247.808274 C1134.90813,247.808274 1136.50813,248.208274 1136.70813,246.608274 C1137.20813,241.208274 1137.00813,235.808274 1133.60813,231.408274 C1130.90813,227.808274 1126.80813,227.508274 1122.70813,228.308274 C1116.10813,229.608274 1114.60813,234.908274 1113.60813,240.508274 C1112.30813,247.808274 1112.30813,247.808274 1119.40813,247.808274 C1121.10813,247.808274 1123.00813,247.808274 1124.80813,247.808274 Z" id="XMLID_381_" fill="#555555"></path>
            <path d="M972.708128,227.408274 C977.908128,218.608274 985.208128,215.508274 994.508128,216.708274 C1003.10813,217.808274 1008.00813,222.208274 1010.00813,230.608274 C1011.00813,234.908274 1011.00813,239.208274 1011.00813,243.508274 C1011.00813,257.308274 1010.90813,271.208274 1011.10813,285.008274 C1011.10813,288.308274 1010.10813,289.108274 1006.90813,289.108274 C995.008128,289.108274 995.008128,289.208274 995.008128,277.408274 C995.008128,265.108274 995.008128,252.708274 995.008128,240.408274 C995.008128,231.308274 991.708128,228.508274 982.608128,229.908274 C981.008128,230.208274 979.408128,230.708274 977.808128,231.208274 C974.208128,232.208274 972.808128,234.308274 972.908128,238.408274 C973.208128,253.908274 972.908128,269.408274 973.108128,284.908274 C973.108128,288.508274 972.108128,289.308274 968.608128,289.208274 C957.008128,289.108274 957.008128,289.208274 957.008128,277.708274 C957.008128,259.508274 957.008128,241.408274 957.108128,223.208274 C957.108128,221.508274 955.608128,218.308274 958.508128,218.308274 C961.908128,218.308274 966.308128,215.908274 968.808128,220.408274 C970.008128,222.308274 971.108128,224.408274 972.708128,227.408274 Z" id="XMLID_380_" fill="#555555"></path>
            <path d="M1296.60813,227.008274 C1300.90813,222.108274 1304.50813,217.408274 1311.60813,216.708274 C1325.40813,215.308274 1334.00813,221.208274 1334.70813,235.008274 C1335.50813,252.108274 1335.00813,269.308274 1335.10813,286.408274 C1335.10813,288.308274 1334.50813,289.208274 1332.50813,289.008274 C1332.30813,289.008274 1332.20813,289.008274 1332.00813,289.008274 C1319.00813,289.808274 1319.00813,289.808274 1319.00813,276.908274 C1319.00813,264.608274 1319.00813,252.308274 1319.00813,239.908274 C1319.00813,231.608274 1315.90813,228.708274 1307.70813,229.608274 C1306.50813,229.708274 1305.40813,229.908274 1304.30813,230.208274 C1297.70813,232.008274 1297.10813,232.708274 1297.10813,239.708274 C1297.10813,254.908274 1297.00813,270.008274 1297.20813,285.208274 C1297.20813,288.208274 1296.50813,289.108274 1293.40813,289.108274 C1281.20813,289.108274 1281.20813,289.308274 1281.20813,277.208274 C1281.20813,259.208274 1281.20813,241.208274 1281.30813,223.208274 C1281.30813,221.508274 1279.90813,218.308274 1282.60813,218.308274 C1286.00813,218.308274 1290.30813,215.808274 1293.00813,220.308274 C1294.00813,222.308274 1295.20813,224.508274 1296.60813,227.008274 Z" id="XMLID_379_" fill="#555555"></path>
            <path d="M586.608128,291.208274 C581.208128,291.008274 576.008128,290.008274 570.908128,288.408274 C567.408128,287.308274 565.808128,286.008274 566.808128,281.708274 C568.308128,275.308274 567.908128,275.108274 574.308128,277.108274 C579.008128,278.508274 583.708128,279.208274 588.608128,278.808274 C594.408128,278.408274 597.608128,275.808274 598.108128,271.108274 C598.708128,265.908274 597.008128,263.608274 590.808128,261.708274 C587.108128,260.608274 583.408128,259.908274 579.708128,258.708274 C569.408128,255.408274 565.208128,248.908274 565.608128,236.908274 C565.908128,226.608274 571.008128,220.008274 581.008128,217.508274 C589.608128,215.308274 598.108128,216.208274 606.608128,218.708274 C610.108128,219.708274 611.108128,221.508274 610.108128,224.808274 C609.708128,225.908274 609.408128,227.108274 609.308128,228.208274 C609.208128,231.808274 607.608128,232.208274 604.508128,231.108274 C599.408128,229.308274 594.108128,229.108274 588.708128,229.508274 C584.308128,229.808274 580.808128,231.208274 580.308128,236.208274 C579.808128,241.008274 582.208128,243.708274 586.608128,244.908274 C590.008128,245.808274 593.308128,246.708274 596.708128,247.608274 C609.308128,251.008274 613.808128,257.008274 613.408128,269.808274 C613.108128,281.008274 607.008128,287.808274 595.208128,290.108274 C592.208128,290.808274 589.408128,290.908274 586.608128,291.208274 Z" id="XMLID_378_" fill="#555555"></path>
            <path d="M644.608128,253.108274 C644.608128,259.808274 644.608128,266.408274 644.608128,273.108274 C644.608128,277.308274 646.608128,279.208274 650.708128,279.108274 C652.208128,279.008274 653.708128,279.108274 655.208128,279.108274 C660.908128,279.108274 662.208128,280.508274 661.808128,286.308274 C661.708128,288.108274 660.508128,288.508274 659.308128,288.908274 C654.708128,290.308274 649.908128,291.308274 645.108128,291.008274 C635.108128,290.208274 629.708128,285.008274 628.908128,274.808274 C627.808128,261.408274 628.508128,247.908274 628.508128,234.408274 C628.508128,230.708274 627.808128,228.708274 623.608128,229.408274 C620.608128,229.908274 620.108128,228.408274 620.008128,225.708274 C620.008128,218.608274 619.808128,218.508274 626.808128,218.308274 C629.008128,218.308274 630.108128,217.608274 630.808128,215.608274 C632.408128,211.108274 634.508128,206.708274 635.908128,202.108274 C637.008128,198.408274 639.708128,199.108274 642.208128,199.108274 C645.608128,199.208274 644.108128,201.908274 644.408128,203.608274 C644.508128,203.908274 644.408128,204.308274 644.408128,204.608274 C644.508128,208.908274 643.008128,214.308274 645.108128,217.308274 C647.108128,220.208274 652.808128,218.108274 656.908128,218.308274 C659.108128,218.408274 659.908128,219.108274 659.708128,221.208274 C659.608128,222.908274 659.508128,224.508274 659.708128,226.208274 C660.008128,228.908274 658.808128,229.508274 656.308128,229.608274 C652.408128,229.808274 647.308128,227.708274 645.108128,230.708274 C643.308128,233.308274 644.508128,238.108274 644.508128,241.908274 C644.508128,245.408274 644.608128,249.208274 644.608128,253.108274 Z" id="XMLID_377_" fill="#555555"></path>
            <path d="M802.608128,241.008274 C802.608128,255.508274 802.508128,270.008274 802.708128,284.508274 C802.708128,287.808274 802.208128,289.108274 798.408128,289.108274 C786.508128,289.008274 786.508128,289.208274 786.508128,277.208274 C786.508128,250.508274 786.608128,223.908274 786.408128,197.208274 C786.408128,193.008274 787.608128,191.908274 791.708128,192.008274 C802.608128,192.308274 802.608128,192.108274 802.608128,203.008274 C802.608128,215.708274 802.608128,228.308274 802.608128,241.008274 Z" id="XMLID_376_" fill="#555555"></path>
            <path d="M1166.00813,253.408274 C1166.00813,242.908274 1166.10813,232.408274 1165.90813,221.908274 C1165.90813,219.108274 1166.30813,218.108274 1169.60813,217.808274 C1175.10813,217.308274 1178.40813,218.908274 1180.00813,224.308274 C1181.00813,227.808274 1182.70813,227.608274 1184.30813,224.708274 C1188.60813,216.908274 1195.50813,215.508274 1203.50813,217.008274 C1206.40813,217.608274 1208.00813,219.008274 1207.00813,222.208274 C1206.90813,222.508274 1206.90813,222.908274 1206.90813,223.208274 C1206.30813,226.108274 1206.50813,229.708274 1204.80813,231.808274 C1202.90813,234.208274 1199.50813,231.108274 1196.70813,231.608274 C1195.10813,231.908274 1193.40813,231.708274 1191.70813,231.908274 C1182.90813,233.008274 1182.00813,234.008274 1182.00813,242.608274 C1182.00813,256.708274 1181.90813,270.908274 1182.10813,285.008274 C1182.10813,288.308274 1181.20813,289.108302 1177.90813,289.108302 C1166.00813,289.108302 1166.00813,289.208274 1166.00813,277.408274 C1166.00813,269.408274 1166.00813,261.408274 1166.00813,253.408274 Z" id="XMLID_375_" fill="#555555"></path>
            <path d="M483.508128,114.208274 C485.808128,114.208274 488.208128,114.208274 490.508128,114.208274 C507.608128,114.508274 512.408128,126.608274 509.008128,139.908274 C507.108128,147.608274 500.208128,151.708274 490.408128,152.008274 C481.608128,152.308274 481.608128,152.308274 481.608128,161.108274 C481.608128,162.308274 481.608128,163.408274 481.608128,164.608274 C481.608128,169.508274 476.208128,172.508274 471.808128,170.108274 C470.208128,169.208274 470.708128,167.808274 470.708128,166.508274 C470.708128,150.408274 470.708128,134.208274 470.608128,118.108274 C470.608128,115.008274 471.608128,113.908274 474.608128,114.108274 C477.708128,114.308274 480.608128,114.208274 483.508128,114.208274 Z M481.708128,133.308274 C481.708128,135.808274 481.708128,138.408274 481.708128,140.908274 C481.708128,142.508274 481.808128,143.708274 484.008128,144.208274 C493.308128,146.208274 498.208128,142.408274 498.008128,132.708274 C497.908128,124.708274 495.508128,122.908274 486.608128,122.608274 C478.508128,122.408274 482.708128,128.208274 481.708128,131.508274 C481.608128,132.108274 481.708128,132.708274 481.708128,133.308274 Z" id="XMLID_372_" fill="#555555"></path>
            <path d="M587.008128,148.008274 C586.908128,152.308274 586.408128,156.508274 584.708128,160.508274 C581.408128,168.408274 576.108128,171.608274 566.808128,171.408274 C559.008128,171.208274 553.208128,167.108274 550.708128,159.508274 C548.508128,152.708274 548.308128,145.808274 550.008128,138.908274 C552.508128,128.808274 559.008128,123.708274 568.608128,123.908274 C577.908128,124.208274 584.008128,129.408274 586.108128,139.408274 C586.708128,142.208274 586.708128,145.108274 587.008128,148.008274 Z M576.308128,147.908274 C575.908128,144.408274 576.308128,140.908274 575.308128,137.508274 C574.208128,133.808274 571.908128,132.108274 568.008128,132.108274 C564.308128,132.108274 561.608128,133.508274 560.808128,137.408274 C559.208128,144.308274 559.208128,151.308274 561.008128,158.108274 C562.008128,161.808274 564.608128,163.408274 568.308128,163.408274 C571.908128,163.408274 573.908128,161.508274 575.108128,158.208274 C576.308128,154.908274 575.908128,151.408274 576.308128,147.908274 Z" id="XMLID_369_" fill="#555555"></path>
            <path d="M783.808128,151.208274 C782.008128,151.208274 780.208128,150.808274 778.608128,151.308274 C776.308128,152.108274 772.108128,148.608274 772.008128,153.908274 C771.908128,158.508274 773.508128,162.408274 778.908128,163.108274 C782.608128,163.608274 786.208128,163.008274 789.808128,161.908274 C791.208128,161.508274 793.408128,159.408274 793.908128,162.508274 C794.208128,164.608274 796.408128,167.208274 793.108128,169.208274 C780.308128,177.108274 764.008128,169.808274 761.508128,155.108274 C760.508128,148.808274 760.608128,142.708274 762.508128,136.708274 C765.208128,127.908274 772.008128,123.408274 781.008128,124.008274 C789.608128,124.608274 794.108128,128.908274 796.008128,138.308274 C798.508128,150.908274 798.308128,151.208274 783.808128,151.208274 Z M779.008128,144.508274 C781.508128,142.708274 786.608128,147.108274 786.708128,140.608274 C786.808128,134.808274 784.108128,131.508274 779.508128,131.508274 C774.908128,131.508274 772.208128,134.908274 772.008128,140.608274 C771.708128,147.008274 776.708128,142.808274 779.008128,144.508274 Z" id="XMLID_366_" fill="#555555"></path>
            <path d="M657.908128,147.508274 C657.908128,141.508274 657.808128,135.408274 658.008128,129.408274 C658.008128,127.708274 656.908128,125.108274 660.008128,124.808274 C662.208128,124.608274 664.808128,123.908274 666.008128,126.908274 C667.208128,129.908274 668.608128,130.108274 670.808128,127.508274 C674.808128,122.908274 680.208128,123.208274 685.308128,124.708274 C690.208128,126.208274 692.308128,130.508274 692.408128,135.108274 C692.808128,145.808274 692.608128,156.508274 692.608128,167.208274 C692.608128,172.208274 688.808128,169.708274 686.608128,170.108274 C684.208128,170.508274 682.108128,170.508274 682.208128,166.708274 C682.508128,157.608274 682.208128,148.408274 682.308128,139.308274 C682.408128,134.808274 680.908128,132.108274 676.008128,132.508274 C671.808128,132.908274 667.908128,133.208274 668.208128,139.308274 C668.608128,148.208274 668.108128,157.208274 668.408128,166.108274 C668.608128,170.308274 666.508128,170.408274 663.508128,170.208274 C660.708128,170.008274 657.508128,171.108274 657.908128,166.108274 C658.208128,159.908274 657.908128,153.708274 657.908128,147.508274 Z" id="XMLID_365_" fill="#555555"></path>
            <path d="M628.308128,125.308274 C624.008128,139.408274 619.608128,153.508274 615.408128,167.608274 C614.308128,171.208274 611.508128,170.108274 609.208128,170.208274 C606.808128,170.208274 604.208128,171.108274 603.108128,167.508274 C599.008128,154.208274 594.808128,140.808274 590.608128,127.508274 C590.008128,125.508274 590.308128,124.708274 592.508128,124.608274 C597.208128,124.408274 601.308128,123.908274 602.508128,130.708274 C604.408128,140.908274 608.208128,150.608274 609.408128,161.108274 C611.208128,151.108274 613.808128,141.508274 616.708128,131.808274 C619.208128,123.908274 619.008128,123.808274 628.308128,125.308274 Z" id="XMLID_361_" fill="#555555"></path>
            <path d="M701.108128,147.008274 C700.808128,144.308274 701.408128,141.208274 702.108128,138.208274 C704.908128,125.608274 719.408128,119.408274 730.708128,125.808274 C734.108128,127.708274 731.808128,130.208274 731.508128,132.408274 C731.108128,135.608274 729.108128,133.908274 727.608128,133.708274 C725.908128,133.508274 724.208128,132.908274 722.508128,132.708274 C715.708128,132.208274 713.408128,134.108274 712.308128,140.808274 C711.708128,144.808274 711.608128,148.908274 712.108128,152.908274 C713.308128,162.408274 717.108128,164.808274 726.408128,162.508274 C728.108128,162.108274 730.908128,158.308274 732.308128,163.008274 C733.408128,166.608274 732.908128,169.108274 728.508128,170.308274 C711.408128,174.708274 701.108128,167.408274 701.108128,147.008274 Z" id="XMLID_360_" fill="#555555"></path>
            <path d="M528.808128,130.808274 C532.108128,125.808274 535.908128,123.008274 541.708128,124.008274 C545.108128,124.608274 545.308128,126.408274 544.508128,128.908274 C543.808128,131.108274 545.108128,134.908274 540.408128,133.908274 C538.708128,133.508274 536.908128,133.708274 535.208128,133.808274 C531.008128,134.108274 528.608128,135.708274 528.808128,140.708274 C529.208128,149.208274 528.708128,157.808274 529.008128,166.408274 C529.208128,170.908274 526.508128,170.308274 523.808128,170.308274 C521.208128,170.208274 518.508128,171.208274 518.608128,166.508274 C518.908128,154.408274 518.608128,142.408274 518.808128,130.308274 C518.808128,128.408274 517.108128,125.308274 520.908128,124.708274 C523.808128,124.208274 526.308128,124.608274 527.308128,128.108274 C527.308128,128.808274 527.908128,129.408274 528.808128,130.808274 Z" id="XMLID_345_" fill="#555555"></path>
            <path d="M683.708128,256.208274 C679.908128,256.208274 676.008128,256.008274 672.208128,256.308274 C669.508128,256.508274 668.908128,255.408274 668.908128,252.908274 C668.608128,241.508274 668.508128,241.508274 679.808128,241.508274 C685.008128,241.508274 690.108128,241.608274 695.308128,241.408274 C698.208128,241.308274 698.908128,242.308274 699.008128,245.108274 C699.208128,256.208274 699.308128,256.208274 688.308128,256.208274 C686.708128,256.208274 685.208128,256.208274 683.708128,256.208274 Z" id="XMLID_337_" fill="#555555"></path>
            <path d="M741.108128,147.408274 C741.108128,141.208274 741.408128,135.008274 741.008128,128.708274 C740.708128,123.808274 743.808128,124.708274 746.708128,124.608274 C749.608128,124.508274 751.908128,124.408274 751.808128,128.608274 C751.608128,141.208274 751.608128,153.908274 751.808128,166.508274 C751.908128,171.208274 749.008128,170.208274 746.408128,170.208274 C743.908128,170.208274 740.808128,171.308274 741.008128,166.608274 C741.308128,160.208274 741.108128,153.808274 741.108128,147.408274 Z" id="XMLID_334_" fill="#555555"></path>
            <path d="M635.608128,147.308274 C635.608128,141.108274 635.908128,134.808274 635.508128,128.608274 C635.208128,123.608274 638.508128,124.808274 641.208128,124.708274 C644.208128,124.508274 646.308128,124.608274 646.208128,128.808274 C645.908128,141.408274 645.908128,154.108274 646.208128,166.708274 C646.308128,171.508274 643.208128,170.208274 640.808128,170.308274 C638.208128,170.408274 635.308128,171.208274 635.508128,166.608274 C635.808128,160.108274 635.608128,153.708274 635.608128,147.308274 Z" id="XMLID_333_" fill="#555555"></path>
            <path d="M640.308128,106.908274 C644.608128,107.108274 647.008128,109.108274 647.008128,112.908274 C647.008128,116.508274 644.808128,118.508274 641.108128,118.608274 C637.108128,118.708274 634.808128,116.508274 634.708128,112.708274 C634.708128,109.308274 637.108128,107.308274 640.308128,106.908274 Z" id="XMLID_329_" fill="#555555"></path>
            <path d="M746.708128,107.008274 C750.208128,107.408274 752.408128,109.208274 752.408128,112.908274 C752.408128,116.908274 750.108128,118.808274 746.208128,118.708274 C742.508128,118.608274 740.508128,116.708274 740.508128,112.908274 C740.508128,108.908274 742.908128,107.108274 746.708128,107.008274 Z" id="XMLID_328_" fill="#555555"></path>
            <path d="M79.9081279,99.5082743 C79.3081279,100.208274 78.5081279,101.508274 77.7081279,100.708274 C76.8081279,99.8082743 78.3081279,99.4082743 78.8081279,98.8082743 C79.1081279,99.0082743 79.5081279,99.2082743 79.9081279,99.5082743 Z" id="XMLID_325_" fill="#D0702B"></path>
            <path d="M105.408128,68.4082743 C104.408128,69.2082743 103.408128,69.3082743 102.308128,68.7082743 C102.908128,68.2082743 103.608128,67.8082743 104.208128,67.3082743 C104.608128,67.7082743 105.008128,68.0082743 105.408128,68.4082743 Z" id="XMLID_324_" fill="#D0702B"></path>
            <path d="M78.8081279,98.8082743 C79.1081279,98.4082743 79.3081279,97.6082743 80.1081279,98.1082743 C80.8081279,98.6082743 80.4081279,99.1082743 79.9081279,99.5082743 C79.5081279,99.2082743 79.1081279,99.0082743 78.8081279,98.8082743 Z" id="XMLID_323_" fill="#D0702B"></path>
            <path d="M298.008128,124.008274 C298.208128,123.808274 298.408128,123.508274 298.608128,123.308274 C298.608128,123.708274 298.608128,124.108274 298.708128,124.508274 C298.308128,124.408274 298.108128,124.208274 298.008128,124.008274 Z" id="XMLID_322_" fill="#D0702B"></path>
            <path d="M445.508128,15.5082743 C445.108128,15.5082743 444.708128,15.4082743 444.308128,15.4082743 C444.508128,15.2082743 444.608128,15.0082743 444.808128,14.8082743 C445.008128,15.0082743 445.308128,15.3082743 445.508128,15.5082743 Z" id="XMLID_321_" fill="#D0702B"></path>
        </g>
    </g>
</svg>