<?xml version="1.0" encoding="UTF-8"?>
<svg width="146px" height="57px" viewBox="0 0 146 57" version="1.1" xmlns="http://www.w3.org/2000/svg" xmlns:xlink="http://www.w3.org/1999/xlink">
    <title>Artboard</title>
    <defs>
        <polygon id="path-1" points="0 0 7.1 0 7.1 11.881 0 11.881"></polygon>
    </defs>
    <g id="Artboard" stroke="none" stroke-width="1" fill="none" fill-rule="evenodd">
        <path d="M144.06,52.99 L138.024,52.99 C133.7,52.99 131.156,52.927 129.154,51.636 C126.77,50.09 125.015,46.94 125.015,43.794 L125.015,33.488 C125.015,29.164 125.079,26.621 126.368,24.618 C127.916,22.233 130.489,20.63 134.216,20.632 L134.216,20.63 L144.131,20.63 C144.794,20.63 145.327,20.131 145.327,19.515 L145.327,18.075 C145.327,17.459 144.794,16.96 144.131,16.96 L133.94,16.96 C133.937,16.96 133.933,16.96 133.93,16.96 L133.897,16.96 C133.887,16.96 133.882,16.964 133.872,16.964 C129.317,16.999 124.973,19.531 123.229,22.98 C121.993,25.12 121.544,27.842 121.533,33.263 C121.533,33.265 121.53,33.267 121.53,33.269 L121.53,43.865 L121.527,43.865 C121.527,43.871 121.53,43.875 121.53,43.884 L121.53,44.499 C121.53,44.548 121.558,44.593 121.581,44.641 C121.852,48.95 124.246,53.124 127.515,54.776 C129.502,55.926 132.005,56.39 136.678,56.462 C136.739,56.468 136.804,56.476 136.856,56.476 L144.032,56.476 C144.977,56.476 145.327,56.089 145.327,55.525 L145.327,54.013 C145.327,53.275 144.76,52.99 144.06,52.99" id="Fill-1" fill="#00939C"></path>
        <path d="M144.352,34.345 L137.401,34.345 C136.278,34.345 136.278,35.368 136.278,35.368 L136.278,36.775 C136.278,37.358 136.754,37.833 137.338,37.833 L144.352,37.833 C144.937,37.833 145.412,37.358 145.412,36.775 L145.412,35.403 C145.412,34.82 144.937,34.345 144.352,34.345" id="Fill-2" fill="#00939C"></path>
        <path d="M40.851,16.804 L38.457,16.804 C38.052,16.804 37.683,17.035 37.505,17.398 L21.082,50.726 L4.61,17.398 C4.431,17.035 4.062,16.804 3.659,16.804 L1.212,16.804 C0.626,16.804 0.151,17.281 0.151,17.868 L0.151,55.572 C0.151,56.157 0.626,56.634 1.212,56.634 L2.74,56.634 C3.326,56.634 3.802,56.157 3.802,55.572 L3.802,23.937 L19.673,56.04 C19.851,56.402 20.22,56.634 20.625,56.634 L21.489,56.634 C21.894,56.634 22.263,56.402 22.442,56.04 L38.261,23.95 L38.261,55.572 C38.261,56.157 38.736,56.634 39.322,56.634 L40.851,56.634 C41.437,56.634 41.913,56.157 41.913,55.572 L41.913,17.868 C41.913,17.281 41.437,16.804 40.851,16.804" id="Fill-3" fill="#00939C"></path>
        <path d="M114.467,37.831 C116.223,35.523 117.198,32.418 117.079,29.524 C117.069,24.927 114.55,20.333 111.073,18.574 C108.894,17.314 106.127,16.868 100.529,16.868 L91.92,16.868 C91.333,16.868 90.859,17.342 90.859,17.928 L90.859,55.631 C90.859,56.216 91.333,56.693 91.92,56.693 L93.447,56.693 C94.034,56.693 94.507,56.216 94.507,55.631 L94.507,20.366 L100.529,20.366 C104.865,20.366 107.419,20.429 109.428,21.724 C111.821,23.277 113.43,26.439 113.43,29.595 C113.43,32.553 112.53,34.812 110.528,36.896 C108.445,38.981 104.191,38.981 101.65,38.981 L100.58,38.981 C100.185,38.981 99.821,39.201 99.637,39.553 C99.455,39.907 99.483,40.33 99.714,40.656 L110.772,56.247 C110.97,56.527 111.292,56.693 111.637,56.693 L113.572,56.693 C113.97,56.693 114.334,56.47 114.516,56.116 C114.697,55.764 114.669,55.339 114.435,55.014 L105.419,42.374 C108.901,42.1 111.86,41.259 114.467,37.831" id="Fill-4" fill="#00939C"></path>
        <path d="M80.755,22.15 C77.016,18.49 71.946,16.964 66.543,16.475 C65.421,16.377 65.456,17.025 65.456,17.025 L65.456,19.234 C65.494,19.889 66.543,19.887 66.543,19.887 C75.98,19.887 83.096,27.049 83.096,36.542 C83.096,46.036 75.98,53.195 66.543,53.195 C57.26,53.195 49.988,45.903 49.988,36.589 L49.988,36.542 L49.984,36.542 C49.94,35.849 49.636,35.808 49.135,35.808 L47.134,35.808 C46.266,35.802 46.427,36.788 46.427,36.788 L46.439,36.788 C46.501,42.251 48.579,47.267 52.328,50.933 C56.067,54.592 61.116,56.607 66.543,56.607 C71.97,56.607 77.016,54.592 80.755,50.933 C84.563,47.21 86.657,42.1 86.657,36.542 C86.657,30.984 84.563,25.872 80.755,22.15" id="Fill-5" fill="#DD472C"></path>
        <path d="M24.714,0.156 C21.438,0.156 18.875,2.774 18.875,6.133 C18.875,9.485 21.438,12.11 24.714,12.11 C27.988,12.11 30.553,9.485 30.553,6.133 C30.553,2.78 27.988,0.156 24.714,0.156 M24.714,11.069 C22.042,11.069 19.949,8.906 19.949,6.133 C19.949,3.32 21.998,1.199 24.714,1.199 C27.429,1.199 29.477,3.32 29.477,6.133 C29.477,8.945 27.429,11.069 24.714,11.069" id="Fill-6" fill="#DD472C"></path>
        <path d="M24.714,1.354 C22.086,1.354 20.104,3.408 20.104,6.133 C20.104,8.814 22.129,10.913 24.714,10.913 C27.34,10.913 29.322,8.857 29.322,6.133 C29.322,3.408 27.34,1.354 24.714,1.354 Z M24.714,11.222 C21.954,11.222 19.794,8.988 19.794,6.133 C19.794,3.232 21.909,1.043 24.714,1.043 C27.517,1.043 29.632,3.232 29.632,6.133 C29.632,9.035 27.517,11.222 24.714,11.222 Z M24.714,0.311 C21.527,0.311 19.03,2.868 19.03,6.133 C19.03,9.397 21.527,11.956 24.714,11.956 C27.901,11.956 30.398,9.397 30.398,6.133 C30.398,2.868 27.901,0.311 24.714,0.311 Z M24.714,12.265 C21.353,12.265 18.719,9.573 18.719,6.133 C18.719,2.694 21.353,-7.10542736e-15 24.714,-7.10542736e-15 C28.075,-7.10542736e-15 30.709,2.694 30.709,6.133 C30.709,9.573 28.075,12.265 24.714,12.265 L24.714,12.265 Z" id="Fill-7" fill="#DD472C"></path>
        <g id="Group-11" transform="translate(0.000000, 0.192000)">
            <mask id="mask-2" fill="white">
                <use xlink:href="#path-1"></use>
            </mask>
            <g id="Clip-9"></g>
            <path d="M6.624,0.156 L0.417,0.156 C0.24,0.156 0.096,0.299 0.096,0.477 L0.096,0.876 C0.096,1.054 0.24,1.201 0.417,1.201 L2.983,1.201 L2.983,11.404 C2.983,11.582 3.127,11.726 3.306,11.726 L3.736,11.726 C3.914,11.726 4.058,11.582 4.058,11.404 L4.058,1.201 L6.624,1.201 C6.801,1.201 6.946,1.054 6.946,0.876 L6.946,0.477 C6.946,0.299 6.801,0.156 6.624,0.156" id="Fill-8" fill="#DD472C" mask="url(#mask-2)"></path>
            <path d="M0.417,0.309 C0.326,0.309 0.251,0.385 0.251,0.477 L0.251,0.876 C0.251,0.97 0.326,1.046 0.417,1.046 L3.137,1.046 L3.137,11.404 C3.137,11.496 3.213,11.57 3.306,11.57 L3.736,11.57 C3.828,11.57 3.903,11.496 3.903,11.404 L3.903,1.046 L6.624,1.046 C6.716,1.046 6.791,0.97 6.791,0.876 L6.791,0.477 C6.791,0.385 6.716,0.309 6.624,0.309 L0.417,0.309 Z M3.736,11.881 L3.306,11.881 C3.042,11.881 2.827,11.668 2.827,11.404 L2.827,1.355 L0.417,1.355 C0.154,1.355 -0.06,1.14 -0.06,0.876 L-0.06,0.477 C-0.06,0.213 0.154,0 0.417,0 L6.624,0 C6.887,0 7.1,0.213 7.1,0.477 L7.1,0.876 C7.1,1.14 6.887,1.355 6.624,1.355 L4.213,1.355 L4.213,11.404 C4.213,11.668 3.999,11.881 3.736,11.881 L3.736,11.881 Z" id="Fill-10" fill="#DD472C" mask="url(#mask-2)"></path>
        </g>
        <path d="M16.064,0.348 L15.633,0.348 C15.455,0.348 15.309,0.491 15.309,0.669 L15.309,5.574 L10.007,5.574 L10.007,0.669 C10.007,0.491 9.863,0.348 9.684,0.348 L9.255,0.348 C9.076,0.348 8.931,0.491 8.931,0.669 L8.931,11.596 C8.931,11.774 9.076,11.918 9.255,11.918 L9.684,11.918 C9.863,11.918 10.007,11.774 10.007,11.596 L10.007,6.615 L15.309,6.615 L15.309,11.596 C15.309,11.774 15.455,11.918 15.633,11.918 L16.064,11.918 C16.241,11.918 16.386,11.774 16.386,11.596 L16.386,0.669 C16.386,0.491 16.241,0.348 16.064,0.348" id="Fill-12" fill="#DD472C"></path>
        <path d="M9.852,6.462 L15.465,6.462 L15.465,11.596 C15.465,11.688 15.539,11.762 15.633,11.762 L16.064,11.762 C16.156,11.762 16.231,11.688 16.231,11.596 L16.231,0.669 C16.231,0.577 16.156,0.501 16.064,0.501 L15.633,0.501 C15.539,0.501 15.465,0.577 15.465,0.669 L15.465,5.73 L9.852,5.73 L9.852,0.669 C9.852,0.577 9.777,0.501 9.684,0.501 L9.255,0.501 C9.162,0.501 9.087,0.577 9.087,0.669 L9.087,11.596 C9.087,11.688 9.162,11.762 9.255,11.762 L9.684,11.762 C9.777,11.762 9.852,11.688 9.852,11.596 L9.852,6.462 Z M16.064,12.073 L15.633,12.073 C15.369,12.073 15.154,11.86 15.154,11.596 L15.154,6.771 L10.163,6.771 L10.163,11.596 C10.163,11.86 9.948,12.073 9.684,12.073 L9.255,12.073 C8.991,12.073 8.776,11.86 8.776,11.596 L8.776,0.669 C8.776,0.405 8.991,0.192 9.255,0.192 L9.684,0.192 C9.948,0.192 10.163,0.405 10.163,0.669 L10.163,5.419 L15.154,5.419 L15.154,0.669 C15.154,0.405 15.369,0.192 15.633,0.192 L16.064,0.192 C16.327,0.192 16.542,0.405 16.542,0.669 L16.542,11.596 C16.542,11.86 16.327,12.073 16.064,12.073 L16.064,12.073 Z" id="Fill-13" fill="#DD472C"></path>
        <path d="M62.79,5.529 L62.67,5.497 C61.131,5.094 60.042,4.695 60.051,3.255 C60.051,2.062 60.937,1.199 62.159,1.199 C63.291,1.199 63.954,1.812 64.184,3.075 C64.211,3.228 64.345,3.341 64.499,3.341 L64.931,3.341 C65.024,3.341 65.111,3.3 65.174,3.23 C65.235,3.161 65.263,3.068 65.25,2.976 C64.983,0.896 63.432,0.156 62.187,0.156 C61.264,0.156 60.396,0.501 59.808,1.105 C59.244,1.684 58.956,2.455 58.977,3.328 C58.977,5.634 61.014,6.149 62.002,6.401 L62.076,6.421 C63.091,6.699 64.48,7.078 64.48,8.792 C64.48,10.197 63.261,11.067 62.13,11.067 C61.791,11.067 60.087,10.958 59.821,8.796 C59.802,8.634 59.663,8.514 59.501,8.514 L59.069,8.514 C58.981,8.514 58.896,8.549 58.834,8.614 C58.773,8.679 58.742,8.767 58.749,8.855 C58.896,10.993 60.569,12.11 62.145,12.11 C63.784,12.11 65.556,10.819 65.556,8.733 C65.556,6.26 63.473,5.709 62.79,5.529" id="Fill-14" fill="#DD472C"></path>
        <path d="M59.069,8.667 C59.023,8.667 58.979,8.688 58.946,8.722 C58.917,8.755 58.9,8.8 58.904,8.843 C59.045,10.887 60.64,11.956 62.145,11.956 C63.711,11.956 65.4,10.723 65.4,8.733 C65.4,6.378 63.406,5.852 62.75,5.679 L62.629,5.646 C61.075,5.239 59.885,4.805 59.897,3.253 C59.897,1.972 60.848,1.043 62.159,1.043 C63.362,1.043 64.094,1.716 64.336,3.048 C64.351,3.128 64.419,3.185 64.499,3.185 L64.931,3.185 C64.98,3.185 65.025,3.165 65.059,3.126 C65.088,3.091 65.102,3.044 65.096,2.999 C64.842,1.013 63.37,0.311 62.187,0.311 C61.306,0.311 60.479,0.638 59.919,1.213 C59.383,1.761 59.111,2.494 59.133,3.324 C59.133,5.511 61.022,5.992 62.037,6.249 L62.118,6.272 C63.123,6.546 64.635,6.961 64.635,8.792 C64.635,10.293 63.335,11.222 62.13,11.222 C61.768,11.222 59.949,11.105 59.667,8.814 C59.657,8.731 59.586,8.667 59.501,8.667 L59.069,8.667 Z M62.145,12.265 C60.496,12.265 58.747,11.099 58.595,8.868 C58.583,8.739 58.629,8.608 58.72,8.51 C58.811,8.414 58.938,8.358 59.069,8.358 L59.501,8.358 C59.742,8.358 59.947,8.538 59.975,8.778 C60.225,10.809 61.814,10.911 62.13,10.911 C63.186,10.911 64.325,10.101 64.325,8.792 C64.325,7.199 63.058,6.851 62.039,6.573 L61.961,6.55 C60.942,6.292 58.822,5.752 58.822,3.328 C58.799,2.416 59.102,1.608 59.696,0.996 C60.315,0.362 61.223,-7.10542736e-15 62.187,-7.10542736e-15 C63.497,-7.10542736e-15 65.124,0.773 65.404,2.956 C65.424,3.089 65.382,3.226 65.291,3.332 C65.196,3.437 65.066,3.496 64.931,3.496 L64.499,3.496 C64.268,3.496 64.071,3.33 64.031,3.101 C63.814,1.909 63.219,1.354 62.159,1.354 C61.028,1.354 60.206,2.152 60.206,3.255 C60.198,4.588 61.192,4.948 62.71,5.345 L62.831,5.38 C63.543,5.566 65.711,6.139 65.711,8.733 C65.711,10.915 63.86,12.265 62.145,12.265 L62.145,12.265 Z" id="Fill-15" fill="#DD472C"></path>
        <path d="M44.556,0.348 L43.88,0.348 C43.756,0.348 43.643,0.417 43.589,0.53 L38.981,10.142 L34.358,0.53 C34.304,0.417 34.193,0.348 34.069,0.348 L33.378,0.348 C33.2,0.348 33.056,0.491 33.056,0.669 L33.056,11.596 C33.056,11.774 33.2,11.918 33.378,11.918 L33.808,11.918 C33.986,11.918 34.131,11.774 34.131,11.596 L34.131,2.524 L38.561,11.735 C38.616,11.848 38.728,11.918 38.852,11.918 L39.097,11.918 C39.221,11.918 39.333,11.848 39.388,11.735 L43.802,2.53 L43.802,11.596 C43.802,11.774 43.947,11.918 44.124,11.918 L44.556,11.918 C44.734,11.918 44.879,11.774 44.879,11.596 L44.879,0.669 C44.879,0.491 44.734,0.348 44.556,0.348" id="Fill-16" fill="#DD472C"></path>
        <path d="M43.958,1.847 L43.958,11.596 C43.958,11.688 44.032,11.762 44.124,11.762 L44.556,11.762 C44.649,11.762 44.724,11.688 44.724,11.596 L44.724,0.669 C44.724,0.577 44.649,0.501 44.556,0.501 L43.88,0.501 C43.815,0.501 43.758,0.538 43.73,0.597 L38.981,10.502 L34.218,0.597 C34.19,0.538 34.133,0.501 34.069,0.501 L33.378,0.501 C33.286,0.501 33.21,0.577 33.21,0.669 L33.21,11.596 C33.21,11.688 33.286,11.762 33.378,11.762 L33.808,11.762 C33.901,11.762 33.976,11.688 33.976,11.596 L33.976,1.843 L38.7,11.668 C38.729,11.725 38.787,11.762 38.852,11.762 L39.097,11.762 C39.162,11.762 39.22,11.725 39.25,11.666 L43.958,1.847 Z M44.556,12.073 L44.124,12.073 C43.861,12.073 43.647,11.86 43.647,11.596 L43.647,3.212 L39.528,11.803 C39.444,11.971 39.279,12.073 39.097,12.073 L38.852,12.073 C38.668,12.073 38.503,11.971 38.421,11.805 L34.286,3.206 L34.286,11.596 C34.286,11.86 34.072,12.073 33.808,12.073 L33.378,12.073 C33.115,12.073 32.9,11.86 32.9,11.596 L32.9,0.669 C32.9,0.405 33.115,0.192 33.378,0.192 L34.069,0.192 C34.254,0.192 34.419,0.297 34.498,0.464 L38.981,9.784 L43.45,0.462 C43.528,0.299 43.697,0.192 43.88,0.192 L44.556,0.192 C44.82,0.192 45.035,0.405 45.035,0.669 L45.035,11.596 C45.035,11.86 44.82,12.073 44.556,12.073 L44.556,12.073 Z" id="Fill-17" fill="#DD472C"></path>
        <path d="M52.628,0.546 C52.579,0.426 52.46,0.348 52.329,0.348 L51.772,0.348 C51.641,0.348 51.522,0.426 51.473,0.546 L46.919,11.474 C46.877,11.572 46.888,11.684 46.947,11.774 C47.009,11.864 47.108,11.918 47.217,11.918 L47.675,11.918 C47.806,11.918 47.924,11.84 47.973,11.721 L49.485,8.109 L54.616,8.109 L56.128,11.721 C56.178,11.84 56.294,11.918 56.425,11.918 L56.884,11.918 C56.991,11.918 57.091,11.864 57.154,11.774 C57.212,11.684 57.223,11.572 57.181,11.474 L52.628,0.546 Z M49.938,7.065 L52.044,1.931 L54.161,7.065 L49.938,7.065 L49.938,7.065 Z" id="Fill-18" fill="#DD472C"></path>
        <path d="M50.169,6.91 L53.929,6.91 L52.044,2.338 L50.169,6.91 Z M54.392,7.221 L49.707,7.221 L52.043,1.522 L54.392,7.221 Z M49.381,7.953 L54.72,7.953 L56.271,11.662 C56.296,11.723 56.358,11.762 56.425,11.762 L56.884,11.762 C56.94,11.762 56.993,11.735 57.026,11.686 C57.054,11.643 57.06,11.584 57.039,11.535 L52.484,0.606 C52.459,0.542 52.398,0.503 52.329,0.503 L51.772,0.503 C51.702,0.503 51.642,0.542 51.617,0.604 L47.062,11.533 C47.04,11.584 47.046,11.643 47.077,11.688 C47.109,11.735 47.16,11.762 47.217,11.762 L47.675,11.762 C47.744,11.762 47.804,11.723 47.83,11.662 L49.381,7.953 Z M56.884,12.073 L56.425,12.073 C56.233,12.073 56.06,11.958 55.984,11.783 L54.513,8.264 L49.588,8.264 L48.116,11.781 C48.043,11.958 47.87,12.073 47.675,12.073 L47.217,12.073 C47.057,12.073 46.908,11.995 46.819,11.862 C46.73,11.727 46.714,11.56 46.775,11.414 L51.33,0.485 C51.401,0.309 51.574,0.192 51.772,0.192 L52.329,0.192 C52.524,0.192 52.698,0.309 52.771,0.487 L57.324,11.412 C57.386,11.558 57.371,11.725 57.283,11.86 C57.19,11.995 57.042,12.073 56.884,12.073 L56.884,12.073 Z" id="Fill-19" fill="#DD472C"></path>
    </g>
</svg>