<?xml version="1.0" encoding="UTF-8"?>
<svg width="56px" height="49px" viewBox="0 0 56 49" version="1.1" xmlns="http://www.w3.org/2000/svg" xmlns:xlink="http://www.w3.org/1999/xlink">
    <title>logo_UGent_EN_RGB_color</title>
    <g id="logo_UGent_EN_RGB_color" stroke="none" stroke-width="1" fill="none" fill-rule="evenodd">
        <polygon id="Fill-1" fill="#1E64C8" points="10.266 16.504 11.513 16.504 11.513 8.408 10.266 8.408"></polygon>
        <polygon id="Fill-2" fill="#1E64C8" points="7.772 16.504 9.019 16.504 9.019 8.408 7.772 8.408"></polygon>
        <polygon id="Fill-3" fill="#1E64C8" points="5.278 16.504 6.525 16.504 6.525 8.408 5.278 8.408"></polygon>
        <polygon id="Fill-4" fill="#1E64C8" points="2.784 16.504 4.031 16.504 4.031 8.408 2.784 8.408"></polygon>
        <polygon id="Fill-5" fill="#1E64C8" points="12.76 16.504 14.007 16.504 14.007 8.408 12.76 8.408"></polygon>
        <polygon id="Fill-6" fill="#1E64C8" points="15.254 16.504 16.501 16.504 16.501 8.408 15.254 8.408"></polygon>
        <polygon id="Fill-7" fill="#1E64C8" points="17.749 16.504 18.996 16.504 18.996 8.408 17.749 8.408"></polygon>
        <polygon id="Fill-8" fill="#1E64C8" points="1.507 18.999 20.273 18.999 20.273 17.751 1.507 17.751"></polygon>
        <polyline id="Fill-9" fill="#1E64C8" points="18.996 7.161 2.784 7.161 1.537 5.914 20.243 5.914 18.996 7.161"></polyline>
        <polygon id="Fill-10" fill="#1E64C8" points="0.26 21.493 21.52 21.493 21.52 20.245 0.26 20.245"></polygon>
        <polyline id="Fill-11" fill="#1E64C8" points="21.52 3.896 10.89 0.132 0.26 3.896 0.26 5.221 10.89 1.457 21.52 5.221 21.52 3.896"></polyline>
        <polyline id="Fill-12" fill="#1E64C8" points="10.58 31.296 7.894 31.296 7.894 35.298 6.646 35.298 6.646 26.48 7.894 26.48 7.894 30.238 10.58 30.238 10.58 26.48 11.828 26.48 11.828 35.298 10.58 35.298 10.58 31.296"></polyline>
        <path d="M37.909,39.827 C38.459,39.825 38.979,40.006 39.217,40.193 L39.217,39.069 C38.979,38.923 38.393,38.76 37.799,38.76 C36.144,38.76 35.233,39.701 35.233,41.066 C35.233,42.205 35.715,42.752 36.492,43.422 L37.202,44.035 C37.788,44.525 38.151,44.903 38.151,45.637 C38.151,46.494 37.584,46.834 36.734,46.834 C36.089,46.834 35.554,46.655 35.246,46.442 L35.246,47.586 C35.517,47.742 36.083,47.903 36.845,47.9010184 C38.497,47.897 39.408,46.959 39.4100015,45.595 C39.411,44.457 38.927,43.909 38.151,43.24 L37.442,42.626 C36.854,42.123 36.49,41.76 36.492,41.027 C36.494,40.166 37.056,39.829 37.909,39.827" id="Fill-13" fill="#1E64C8"></path>
        <path d="M30.246,39.98 L30.246,43.088 L30.911,43.088 C31.887,43.088 32.539,42.883 32.539,41.527 C32.539,40.184 31.887,39.98 30.911,39.98 L30.246,39.98 Z M28.998,38.922 L31.033,38.922 C32.661,38.922 33.827,39.533 33.827,41.527 C33.827,42.924 33.149,43.602 32.294,43.914 L34.167,47.74 L32.742,47.74 L31.086,44.145 L30.246,44.145 L30.246,47.74 L28.998,47.74 L28.998,38.922 L28.998,38.922 Z" id="Fill-14" fill="#1E64C8"></path>
        <path d="M0.26,45.081 L0.26,38.923 L1.508,38.923 L1.508,45.136 C1.508,46.438 1.956,46.817 2.864,46.817 C3.773,46.817 4.221,46.438 4.221,45.136 L4.221,38.923 L5.469,38.923 L5.469,45.081 C5.469,47.089 4.628,47.903 2.864,47.903 C1.074,47.903 0.26,47.116 0.26,45.081" id="Fill-15" fill="#1E64C8"></path>
        <path d="M7.083,38.923 L8.521,38.923 L11.302,45.949 C11.207,45.23 11.125,44.39 11.125,43.603 L11.125,38.923 L12.319,38.923 L12.319,47.74 L10.881,47.74 L8.073,40.687 C8.182,41.405 8.277,42.26 8.277,43.061 L8.277,47.74 L7.083,47.74 L7.083,38.923" id="Fill-16" fill="#1E64C8"></path>
        <polygon id="Fill-17" fill="#1E64C8" points="14.086 47.74 15.334 47.74 15.334 38.923 14.086 38.923"></polygon>
        <path d="M16.494,38.923 L17.796,38.923 L18.908,43.508 C19.071,44.2 19.274,45.366 19.396,46.289 C19.519,45.366 19.722,44.2 19.912,43.508 L21.011,38.923 L22.272,38.923 L20.034,47.74 L18.732,47.74 L16.494,38.923" id="Fill-18" fill="#1E64C8"></path>
        <polyline id="Fill-19" fill="#1E64C8" points="23.432 38.923 27.556 38.923 27.556 39.981 24.68 39.981 24.68 42.681 27 42.681 27 43.725 24.68 43.725 24.68 46.683 27.556 46.683 27.556 47.74 23.432 47.74 23.432 38.923"></polyline>
        <polygon id="Fill-20" fill="#1E64C8" points="40.891 47.74 42.139 47.74 42.139 38.923 40.891 38.923"></polygon>
        <path d="M-0.011,30.89 C-0.011,27.417 0.911,26.317 3.204,26.317 C3.854,26.317 4.546,26.494 4.845,26.671 L4.845,27.823 C4.519,27.634 3.895,27.43 3.298,27.43 C1.833,27.43 1.277,27.973 1.277,30.89 C1.277,33.778 1.671,34.375 2.946,34.375 C3.339,34.375 3.665,34.321 3.909,34.253 L3.909,31.309 L2.606,31.309 L2.606,30.252 L5.157,30.252 L5.157,35.013 C4.899,35.176 3.868,35.461 2.959,35.461 C0.572,35.461 -0.011,34.213 -0.011,30.89" id="Fill-21" fill="#1E64C8"></path>
        <polyline id="Fill-22" fill="#1E64C8" points="13.595 26.48 17.719 26.48 17.719 27.539 14.843 27.539 14.843 30.238 17.163 30.238 17.163 31.282 14.843 31.282 14.843 34.24 17.719 34.24 17.719 35.298 13.595 35.298 13.595 26.48"></polyline>
        <path d="M19.16,26.48 L20.598,26.48 L23.379,33.507 C23.284,32.788 23.203,31.947 23.203,31.16 L23.203,26.48 L24.396,26.48 L24.396,35.298 L22.958,35.298 L20.15,28.244 C20.259,28.963 20.354,29.817 20.354,30.618 L20.354,35.298 L19.16,35.298 L19.16,26.48" id="Fill-23" fill="#1E64C8"></path>
        <polyline id="Fill-24" fill="#1E64C8" points="25.539 26.48 30.599 26.48 30.599 27.539 28.686 27.539 28.686 35.298 27.438 35.298 27.438 27.539 25.539 27.539 25.539 26.48"></polyline>
        <path d="M51.29,44.078 L48.876,38.923 L50.246,38.923 L51.29,41.297 C51.535,41.866 51.766,42.477 51.915,43.02 C52.078,42.477 52.322,41.866 52.566,41.297 L53.61,38.923 L54.94,38.923 L52.539,44.078 L52.539,47.74 L51.29,47.74 L51.29,44.078" id="Fill-25" fill="#1E64C8"></path>
        <polyline id="Fill-26" fill="#1E64C8" points="43.324 38.923 48.383 38.923 48.383 39.981 46.471 39.981 46.471 47.74 45.223 47.74 45.223 39.981 43.324 39.981 43.324 38.923"></polyline>
    </g>
</svg>